solid OpenSCAD_Model
  facet normal 1 -0 0
    outer loop
      vertex 30.48 0 30.48
      vertex 30.48 30.48 0
      vertex 30.48 30.48 30.48
    endloop
  endfacet
  facet normal 1 0 0
    outer loop
      vertex 30.48 30.48 0
      vertex 30.48 0 30.48
      vertex 30.48 0 0
    endloop
  endfacet
  facet normal 0 0 1
    outer loop
      vertex 30.48 30.48 30.48
      vertex 27.94 27.94 30.48
      vertex 30.48 0 30.48
    endloop
  endfacet
  facet normal 0 0 1
    outer loop
      vertex 30.48 30.48 30.48
      vertex 2.54 27.94 30.48
      vertex 27.94 27.94 30.48
    endloop
  endfacet
  facet normal 0 0 1
    outer loop
      vertex 2.54 27.94 30.48
      vertex 0 30.48 30.48
      vertex 2.54 2.54 30.48
    endloop
  endfacet
  facet normal -0 0 1
    outer loop
      vertex 0 30.48 30.48
      vertex 2.54 27.94 30.48
      vertex 30.48 30.48 30.48
    endloop
  endfacet
  facet normal -0 0 1
    outer loop
      vertex 27.94 2.54 30.48
      vertex 30.48 0 30.48
      vertex 27.94 27.94 30.48
    endloop
  endfacet
  facet normal -0 0 1
    outer loop
      vertex 2.54 2.54 30.48
      vertex 30.48 0 30.48
      vertex 27.94 2.54 30.48
    endloop
  endfacet
  facet normal 0 0 1
    outer loop
      vertex 2.54 2.54 30.48
      vertex 0 0 30.48
      vertex 30.48 0 30.48
    endloop
  endfacet
  facet normal 0 0 1
    outer loop
      vertex 0 0 30.48
      vertex 2.54 2.54 30.48
      vertex 0 30.48 30.48
    endloop
  endfacet
  facet normal 0 0 -1
    outer loop
      vertex 0 0 0
      vertex 30.48 30.48 0
      vertex 30.48 0 0
    endloop
  endfacet
  facet normal -0 0 -1
    outer loop
      vertex 30.48 30.48 0
      vertex 0 0 0
      vertex 0 30.48 0
    endloop
  endfacet
  facet normal -1 0 0
    outer loop
      vertex 0 0 0
      vertex 0 30.48 30.48
      vertex 0 30.48 0
    endloop
  endfacet
  facet normal -1 -0 0
    outer loop
      vertex 0 30.48 30.48
      vertex 0 0 0
      vertex 0 0 30.48
    endloop
  endfacet
  facet normal 0 1 -0
    outer loop
      vertex 30.48 30.48 0
      vertex 0 30.48 30.48
      vertex 30.48 30.48 30.48
    endloop
  endfacet
  facet normal 0 1 0
    outer loop
      vertex 0 30.48 30.48
      vertex 30.48 30.48 0
      vertex 0 30.48 0
    endloop
  endfacet
  facet normal 0 -1 0
    outer loop
      vertex 0 0 0
      vertex 30.48 0 30.48
      vertex 0 0 30.48
    endloop
  endfacet
  facet normal 0 -1 -0
    outer loop
      vertex 30.48 0 30.48
      vertex 0 0 0
      vertex 30.48 0 0
    endloop
  endfacet
  facet normal -1 0 0
    outer loop
      vertex 27.94 2.54 7.62
      vertex 27.94 27.94 30.48
      vertex 27.94 27.94 7.62
    endloop
  endfacet
  facet normal -1 -0 0
    outer loop
      vertex 27.94 27.94 30.48
      vertex 27.94 2.54 7.62
      vertex 27.94 2.54 30.48
    endloop
  endfacet
  facet normal 1 -0 0
    outer loop
      vertex 2.54 2.54 30.48
      vertex 2.54 27.94 7.62
      vertex 2.54 27.94 30.48
    endloop
  endfacet
  facet normal 1 0 0
    outer loop
      vertex 2.54 27.94 7.62
      vertex 2.54 2.54 30.48
      vertex 2.54 2.54 7.62
    endloop
  endfacet
  facet normal 0 -1 0
    outer loop
      vertex 2.54 27.94 7.62
      vertex 27.94 27.94 30.48
      vertex 2.54 27.94 30.48
    endloop
  endfacet
  facet normal 0 -1 -0
    outer loop
      vertex 27.94 27.94 30.48
      vertex 2.54 27.94 7.62
      vertex 27.94 27.94 7.62
    endloop
  endfacet
  facet normal 0 1 -0
    outer loop
      vertex 27.94 2.54 7.62
      vertex 2.54 2.54 30.48
      vertex 27.94 2.54 30.48
    endloop
  endfacet
  facet normal 0 1 0
    outer loop
      vertex 2.54 2.54 30.48
      vertex 27.94 2.54 7.62
      vertex 2.54 2.54 7.62
    endloop
  endfacet
  facet normal -0.90507 0.362028 -0.223124
    outer loop
      vertex -20.0768 2.54 8.56432
      vertex -19.844 2.54 7.62
      vertex -20.86 0 7.62
    endloop
  endfacet
  facet normal 0.112369 0.362033 0.925368
    outer loop
      vertex -22.6189 0 5.63458
      vertex -22.4965 2.54 4.62599
      vertex -23.4619 2.54 4.74322
    endloop
  endfacet
  facet normal -0.90507 0.362028 0.223124
    outer loop
      vertex -19.844 2.54 7.62
      vertex -20.0768 2.54 6.67568
      vertex -20.86 0 7.62
    endloop
  endfacet
  facet normal 0.112366 0.362036 -0.925367
    outer loop
      vertex -23.4619 2.54 10.4968
      vertex -23.1685 0 9.53869
      vertex -23.3757 0 9.51353
    endloop
  endfacet
  facet normal 0.112354 0.362035 -0.925369
    outer loop
      vertex -23.1685 0 9.53869
      vertex -23.4619 2.54 10.4968
      vertex -22.6189 0 9.60542
    endloop
  endfacet
  facet normal 0.112383 0.362036 -0.925365
    outer loop
      vertex -23.5692 0 9.49003
      vertex -23.4619 2.54 10.4968
      vertex -23.3757 0 9.51353
    endloop
  endfacet
  facet normal 0.112405 0.362034 -0.925363
    outer loop
      vertex -23.4619 2.54 10.4968
      vertex -23.5692 0 9.49003
      vertex -23.9295 2.54 10.44
    endloop
  endfacet
  facet normal -0.330569 0.362028 -0.871584
    outer loop
      vertex -22.6189 0 9.60542
      vertex -22.0561 2.54 10.447
      vertex -21.7239 0 9.26597
    endloop
  endfacet
  facet normal -0.330514 0.362024 -0.871607
    outer loop
      vertex -22.0561 2.54 10.447
      vertex -22.6189 0 9.60542
      vertex -22.4965 2.54 10.614
    endloop
  endfacet
  facet normal -0.697747 0.362036 -0.618126
    outer loop
      vertex -21.1467 2.54 10.1021
      vertex -20.5018 2.54 9.37413
      vertex -21.7239 0 9.26597
    endloop
  endfacet
  facet normal 0.529533 0.362033 -0.767155
    outer loop
      vertex -23.9295 2.54 10.44
      vertex -23.5692 0 9.49003
      vertex -24.7299 2.54 9.88752
    endloop
  endfacet
  facet normal -0.330542 0.362036 0.871592
    outer loop
      vertex -21.7239 0 5.97403
      vertex -21.1467 2.54 5.13788
      vertex -22.0561 2.54 4.793
    endloop
  endfacet
  facet normal 0.825328 0.362027 0.433324
    outer loop
      vertex -24.6619 0 6.87472
      vertex -25.7884 2.54 6.89822
      vertex -24.8019 0 7.14137
    endloop
  endfacet
  facet normal 0.825472 0.362094 0.432995
    outer loop
      vertex -24.5514 0 6.66406
      vertex -25.7884 2.54 6.89822
      vertex -24.6619 0 6.87472
    endloop
  endfacet
  facet normal 0.825356 0.362011 0.433284
    outer loop
      vertex -24.357 0 6.29375
      vertex -25.7884 2.54 6.89822
      vertex -24.5514 0 6.66406
    endloop
  endfacet
  facet normal 0.825377 0.362037 0.433223
    outer loop
      vertex -25.7884 2.54 6.89822
      vertex -24.357 0 6.29375
      vertex -25.1175 2.54 5.62002
    endloop
  endfacet
  facet normal 0.112341 0.362032 -0.925372
    outer loop
      vertex -22.4965 2.54 10.614
      vertex -22.6189 0 9.60542
      vertex -23.4619 2.54 10.4968
    endloop
  endfacet
  facet normal 0.529531 0.362033 0.767157
    outer loop
      vertex -24.7299 2.54 5.35248
      vertex -24.357 0 6.29375
      vertex -23.5692 0 5.74997
    endloop
  endfacet
  facet normal 0.529529 0.362033 0.767158
    outer loop
      vertex -24.357 0 6.29375
      vertex -24.7299 2.54 5.35248
      vertex -25.1175 2.54 5.62002
    endloop
  endfacet
  facet normal 0.529531 0.362033 -0.767157
    outer loop
      vertex -24.357 0 8.94625
      vertex -24.7299 2.54 9.88752
      vertex -23.5692 0 9.49003
    endloop
  endfacet
  facet normal 0.529529 0.362033 -0.767158
    outer loop
      vertex -24.7299 2.54 9.88752
      vertex -24.357 0 8.94625
      vertex -25.1175 2.54 9.61998
    endloop
  endfacet
  facet normal 0.529539 0.362035 0.76715
    outer loop
      vertex -23.5692 0 5.74997
      vertex -23.9295 2.54 4.79999
      vertex -24.7299 2.54 5.35248
    endloop
  endfacet
  facet normal -0.697754 0.36204 0.618115
    outer loop
      vertex -20.5018 2.54 5.86587
      vertex -21.1467 2.54 5.13788
      vertex -21.7239 0 5.97403
    endloop
  endfacet
  facet normal -0.697771 0.362028 -0.618103
    outer loop
      vertex -21.5678 0 9.08985
      vertex -20.1895 2.54 9.0216
      vertex -21.0891 0 8.54945
    endloop
  endfacet
  facet normal -0.697543 0.361895 -0.618438
    outer loop
      vertex -21.6606 0 9.19452
      vertex -20.1895 2.54 9.0216
      vertex -21.5678 0 9.08985
    endloop
  endfacet
  facet normal -0.697749 0.362036 -0.618123
    outer loop
      vertex -20.1895 2.54 9.0216
      vertex -21.6606 0 9.19452
      vertex -20.5018 2.54 9.37413
    endloop
  endfacet
  facet normal -0.697732 0.36203 -0.618145
    outer loop
      vertex -20.5018 2.54 9.37413
      vertex -21.6606 0 9.19452
      vertex -21.7239 0 9.26597
    endloop
  endfacet
  facet normal -0.330559 0.362031 -0.871587
    outer loop
      vertex -21.1467 2.54 10.1021
      vertex -21.7239 0 9.26597
      vertex -22.0561 2.54 10.447
    endloop
  endfacet
  facet normal 0.825377 0.362037 -0.433223
    outer loop
      vertex -24.357 0 8.94625
      vertex -25.7884 2.54 8.34178
      vertex -25.1175 2.54 9.61998
    endloop
  endfacet
  facet normal 0.825356 0.362011 -0.433284
    outer loop
      vertex -24.5514 0 8.57594
      vertex -25.7884 2.54 8.34178
      vertex -24.357 0 8.94625
    endloop
  endfacet
  facet normal 0.825472 0.362094 -0.432995
    outer loop
      vertex -24.6619 0 8.36528
      vertex -25.7884 2.54 8.34178
      vertex -24.5514 0 8.57594
    endloop
  endfacet
  facet normal 0.825328 0.362027 -0.433324
    outer loop
      vertex -25.7884 2.54 8.34178
      vertex -24.6619 0 8.36528
      vertex -24.8019 0 8.09863
    endloop
  endfacet
  facet normal 0.932163 0.362039 0
    outer loop
      vertex -24.8019 0 8.09863
      vertex -25.7884 2.54 6.89822
      vertex -25.7884 2.54 8.34178
    endloop
  endfacet
  facet normal 0.932163 0.362039 0
    outer loop
      vertex -25.7884 2.54 6.89822
      vertex -24.8019 0 8.09863
      vertex -24.8019 0 7.14137
    endloop
  endfacet
  facet normal 0.112354 0.362029 0.925371
    outer loop
      vertex -23.4619 2.54 4.74322
      vertex -23.1685 0 5.70131
      vertex -22.6189 0 5.63458
    endloop
  endfacet
  facet normal 0.112366 0.36203 0.925369
    outer loop
      vertex -23.1685 0 5.70131
      vertex -23.4619 2.54 4.74322
      vertex -23.3757 0 5.72647
    endloop
  endfacet
  facet normal 0.112383 0.362029 0.925367
    outer loop
      vertex -23.4619 2.54 4.74322
      vertex -23.5692 0 5.74997
      vertex -23.3757 0 5.72647
    endloop
  endfacet
  facet normal 0.112347 0.362032 0.925371
    outer loop
      vertex -23.5692 0 5.74997
      vertex -23.4619 2.54 4.74322
      vertex -23.9295 2.54 4.79999
    endloop
  endfacet
  facet normal 0 -1 0
    outer loop
      vertex -8.32921 0 24.73
      vertex -4.57764e-07 0 30.48
      vertex -30.48 0 30.48
    endloop
  endfacet
  facet normal 0 -1 0
    outer loop
      vertex -4.57764e-07 0 30.48
      vertex -8.06504 0 24.8099
      vertex -7.37893 0 24.8454
    endloop
  endfacet
  facet normal 0 -1 0
    outer loop
      vertex -4.57764e-07 0 30.48
      vertex -8.32921 0 24.73
      vertex -8.06504 0 24.8099
    endloop
  endfacet
  facet normal 0 -1 0
    outer loop
      vertex -8.06504 0 24.8099
      vertex -8.32921 0 24.73
      vertex -8.13567 0 24.7535
    endloop
  endfacet
  facet normal 0 -1 0
    outer loop
      vertex -30.48 0 30.48
      vertex -9.11702 0 24.1862
      vertex -8.32921 0 24.73
    endloop
  endfacet
  facet normal 0 -1 0
    outer loop
      vertex -9.42194 0 23.7278
      vertex -9.11702 0 24.1862
      vertex -30.48 0 30.48
    endloop
  endfacet
  facet normal 0 -1 0
    outer loop
      vertex -9.11702 0 24.1862
      vertex -9.42194 0 23.7278
      vertex -9.31137 0 23.8159
    endloop
  endfacet
  facet normal 0 -1 0
    outer loop
      vertex -9.56188 0 23.3386
      vertex -9.42194 0 23.7278
      vertex -30.48 0 30.48
    endloop
  endfacet
  facet normal 0 -1 -0
    outer loop
      vertex -9.42194 0 23.7278
      vertex -9.56188 0 23.3386
      vertex -9.42194 0 23.6053
    endloop
  endfacet
  facet normal 0 -1 0
    outer loop
      vertex -30.48 0 30.48
      vertex -9.56188 0 22.3814
      vertex -9.56188 0 23.3386
    endloop
  endfacet
  facet normal 0 -1 0
    outer loop
      vertex -22.6189 0 9.60542
      vertex -9.56188 0 22.3814
      vertex -30.48 0 30.48
    endloop
  endfacet
  facet normal 0 -1 0
    outer loop
      vertex -9.56188 0 22.3814
      vertex -9.42194 0 21.9922
      vertex -9.42194 0 22.1147
    endloop
  endfacet
  facet normal 0 -1 -0
    outer loop
      vertex -9.56188 0 22.3814
      vertex -22.6189 0 9.60542
      vertex -9.42194 0 21.9922
    endloop
  endfacet
  facet normal 0 -1 0
    outer loop
      vertex -21.7239 0 9.26597
      vertex -9.42194 0 21.9922
      vertex -22.6189 0 9.60542
    endloop
  endfacet
  facet normal -0 -1 0
    outer loop
      vertex -9.11702 0 21.5338
      vertex -9.42194 0 21.9922
      vertex -21.7239 0 9.26597
    endloop
  endfacet
  facet normal 0 -1 0
    outer loop
      vertex -8.32921 0 20.99
      vertex -8.06504 0 20.9101
      vertex -8.13567 0 20.9665
    endloop
  endfacet
  facet normal 0 -1 0
    outer loop
      vertex -21.0891 0 8.54945
      vertex -9.11702 0 21.5338
      vertex -21.613 0 9.18366
    endloop
  endfacet
  facet normal 0 -1 0
    outer loop
      vertex -21.613 0 9.18366
      vertex -9.11702 0 21.5338
      vertex -21.7239 0 9.26597
    endloop
  endfacet
  facet normal 0 -1 0
    outer loop
      vertex -9.42194 0 21.9922
      vertex -9.11702 0 21.5338
      vertex -9.31137 0 21.9041
    endloop
  endfacet
  facet normal 0 -1 0
    outer loop
      vertex -30.48 0 30.48
      vertex -23.305 0 9.56986
      vertex -22.6189 0 9.60542
    endloop
  endfacet
  facet normal 0 -1 0
    outer loop
      vertex -23.5692 0 9.49003
      vertex -23.305 0 9.56986
      vertex -30.48 0 30.48
    endloop
  endfacet
  facet normal 0 -1 0
    outer loop
      vertex -23.305 0 9.56986
      vertex -23.5692 0 9.49003
      vertex -23.3757 0 9.51353
    endloop
  endfacet
  facet normal 0 -1 0
    outer loop
      vertex -30.48 0 30.48
      vertex -24.357 0 8.94625
      vertex -23.5692 0 9.49003
    endloop
  endfacet
  facet normal 0 -1 0
    outer loop
      vertex -24.6619 0 8.48777
      vertex -24.357 0 8.94625
      vertex -30.48 0 30.48
    endloop
  endfacet
  facet normal 0 -1 0
    outer loop
      vertex -24.357 0 8.94625
      vertex -24.6619 0 8.48777
      vertex -24.5514 0 8.57594
    endloop
  endfacet
  facet normal 0 -1 0
    outer loop
      vertex -24.8019 0 8.09863
      vertex -24.6619 0 8.48777
      vertex -30.48 0 30.48
    endloop
  endfacet
  facet normal 0 -1 -0
    outer loop
      vertex -24.6619 0 8.48777
      vertex -24.8019 0 8.09863
      vertex -24.6619 0 8.36528
    endloop
  endfacet
  facet normal 0 -1 0
    outer loop
      vertex -30.48 0 0
      vertex -24.8019 0 8.09863
      vertex -30.48 0 30.48
    endloop
  endfacet
  facet normal 0 -1 0
    outer loop
      vertex -24.8019 0 7.14137
      vertex -24.6619 0 6.75223
      vertex -24.6619 0 6.87472
    endloop
  endfacet
  facet normal 0 -1 0
    outer loop
      vertex -24.6619 0 6.75223
      vertex -24.357 0 6.29375
      vertex -24.5514 0 6.66406
    endloop
  endfacet
  facet normal 0 -1 0
    outer loop
      vertex -23.5692 0 5.74997
      vertex -23.305 0 5.67014
      vertex -23.3757 0 5.72647
    endloop
  endfacet
  facet normal 0 -1 -0
    outer loop
      vertex -23.305 0 5.67014
      vertex -30.48 0 0
      vertex -22.6189 0 5.63458
    endloop
  endfacet
  facet normal 0 -1 -0
    outer loop
      vertex -23.5692 0 5.74997
      vertex -30.48 0 0
      vertex -23.305 0 5.67014
    endloop
  endfacet
  facet normal 0 -1 -0
    outer loop
      vertex -24.357 0 6.29375
      vertex -30.48 0 0
      vertex -23.5692 0 5.74997
    endloop
  endfacet
  facet normal 0 -1 -0
    outer loop
      vertex -24.6619 0 6.75223
      vertex -30.48 0 0
      vertex -24.357 0 6.29375
    endloop
  endfacet
  facet normal 0 -1 -0
    outer loop
      vertex -24.8019 0 7.14137
      vertex -30.48 0 0
      vertex -24.6619 0 6.75223
    endloop
  endfacet
  facet normal 0 -1 -0
    outer loop
      vertex -24.8019 0 8.09863
      vertex -30.48 0 0
      vertex -24.8019 0 7.14137
    endloop
  endfacet
  facet normal 0 -1 0
    outer loop
      vertex -6.48387 0 24.506
      vertex -4.57764e-07 0 30.48
      vertex -7.37893 0 24.8454
    endloop
  endfacet
  facet normal 0 -1 0
    outer loop
      vertex -6.37302 0 24.4237
      vertex -6.48387 0 24.506
      vertex -6.42057 0 24.4345
    endloop
  endfacet
  facet normal 0 -1 0
    outer loop
      vertex -6.48387 0 24.506
      vertex -6.37302 0 24.4237
      vertex -4.57764e-07 0 30.48
    endloop
  endfacet
  facet normal 0 -1 0
    outer loop
      vertex -5.84909 0 23.7894
      vertex -6.37302 0 24.4237
      vertex -6.32784 0 24.3298
    endloop
  endfacet
  facet normal 0 -1 0
    outer loop
      vertex -6.37302 0 24.4237
      vertex -5.84909 0 23.7894
      vertex -4.57764e-07 0 30.48
    endloop
  endfacet
  facet normal 0 -1 0
    outer loop
      vertex -5.62 0 22.86
      vertex -4.57764e-07 0 30.48
      vertex -5.84909 0 23.7894
    endloop
  endfacet
  facet normal 0 -1 0
    outer loop
      vertex -5.84909 0 21.9306
      vertex -4.57764e-07 0 30.48
      vertex -5.62 0 22.86
    endloop
  endfacet
  facet normal 0 -1 0
    outer loop
      vertex -6.37302 0 21.2963
      vertex -5.84909 0 21.9306
      vertex -6.32784 0 21.3902
    endloop
  endfacet
  facet normal 0 -1 0
    outer loop
      vertex -6.48387 0 21.214
      vertex -6.37302 0 21.2963
      vertex -6.42057 0 21.2855
    endloop
  endfacet
  facet normal 0 -1 -0
    outer loop
      vertex -9.11702 0 21.5338
      vertex -21.0891 0 8.54945
      vertex -8.32921 0 20.99
    endloop
  endfacet
  facet normal 0 -1 -0
    outer loop
      vertex -8.32921 0 20.99
      vertex -21.0891 0 8.54945
      vertex -8.06504 0 20.9101
    endloop
  endfacet
  facet normal 0 -1 0
    outer loop
      vertex -20.86 0 7.62
      vertex -8.06504 0 20.9101
      vertex -21.0891 0 8.54945
    endloop
  endfacet
  facet normal 0 -1 0
    outer loop
      vertex -21.613 0 9.18366
      vertex -21.7239 0 9.26597
      vertex -21.6606 0 9.19452
    endloop
  endfacet
  facet normal 0 -1 0
    outer loop
      vertex -4.57764e-07 0 0
      vertex -8.06504 0 20.9101
      vertex -20.86 0 7.62
    endloop
  endfacet
  facet normal 0 -1 0
    outer loop
      vertex -21.0891 0 8.54945
      vertex -21.613 0 9.18366
      vertex -21.5678 0 9.08985
    endloop
  endfacet
  facet normal 0 -1 0
    outer loop
      vertex -8.06504 0 20.9101
      vertex -4.57764e-07 0 0
      vertex -7.37893 0 20.8746
    endloop
  endfacet
  facet normal 0 -1 0
    outer loop
      vertex -7.37893 0 20.8746
      vertex -4.57764e-07 0 0
      vertex -6.48387 0 21.214
    endloop
  endfacet
  facet normal 0 -1 0
    outer loop
      vertex -4.57764e-07 0 0
      vertex -20.86 0 7.62
      vertex -21.0891 0 6.69055
    endloop
  endfacet
  facet normal 0 -1 0
    outer loop
      vertex -21.613 0 6.05634
      vertex -21.0891 0 6.69055
      vertex -21.5678 0 6.15015
    endloop
  endfacet
  facet normal 0 -1 -0
    outer loop
      vertex -21.0891 0 6.69055
      vertex -21.613 0 6.05634
      vertex -4.57764e-07 0 0
    endloop
  endfacet
  facet normal 0 -1 0
    outer loop
      vertex -21.7239 0 5.97403
      vertex -21.613 0 6.05634
      vertex -21.6606 0 6.04549
    endloop
  endfacet
  facet normal 0 -1 0
    outer loop
      vertex -30.48 0 0
      vertex -21.7239 0 5.97403
      vertex -22.6189 0 5.63458
    endloop
  endfacet
  facet normal 0 -1 0
    outer loop
      vertex -5.84909 0 21.9306
      vertex -4.57764e-07 0 0
      vertex -4.57764e-07 0 30.48
    endloop
  endfacet
  facet normal 0 -1 0
    outer loop
      vertex -6.37302 0 21.2963
      vertex -4.57764e-07 0 0
      vertex -5.84909 0 21.9306
    endloop
  endfacet
  facet normal 0 -1 0
    outer loop
      vertex -6.48387 0 21.214
      vertex -4.57764e-07 0 0
      vertex -6.37302 0 21.2963
    endloop
  endfacet
  facet normal 0 -1 0
    outer loop
      vertex -21.7239 0 5.97403
      vertex -4.57764e-07 0 0
      vertex -21.613 0 6.05634
    endloop
  endfacet
  facet normal 0 -1 0
    outer loop
      vertex -4.57764e-07 0 0
      vertex -21.7239 0 5.97403
      vertex -30.48 0 0
    endloop
  endfacet
  facet normal 0 -1 0
    outer loop
      vertex -7.37893 0 24.8454
      vertex -8.06504 0 24.8099
      vertex -7.92849 0 24.7787
    endloop
  endfacet
  facet normal 0 -1 -0
    outer loop
      vertex -7.92849 0 20.9413
      vertex -8.06504 0 20.9101
      vertex -7.37893 0 20.8746
    endloop
  endfacet
  facet normal 0 -1 0
    outer loop
      vertex -22.6189 0 9.60542
      vertex -23.305 0 9.56986
      vertex -23.1685 0 9.53869
    endloop
  endfacet
  facet normal 0 -1 -0
    outer loop
      vertex -23.1685 0 5.70131
      vertex -23.305 0 5.67014
      vertex -22.6189 0 5.63458
    endloop
  endfacet
  facet normal 0 -1 0
    outer loop
      vertex -24.6619 0 8.48777
      vertex -24.6619 0 8.36528
      vertex -24.5514 0 8.57594
    endloop
  endfacet
  facet normal -0 -1 -0
    outer loop
      vertex -21.613 0 9.18366
      vertex -21.6606 0 9.19452
      vertex -21.5678 0 9.08985
    endloop
  endfacet
  facet normal 0 -1 -0
    outer loop
      vertex -23.305 0 9.56986
      vertex -23.3757 0 9.51353
      vertex -23.1685 0 9.53869
    endloop
  endfacet
  facet normal 0 -1 0
    outer loop
      vertex -21.5678 0 6.15015
      vertex -21.6606 0 6.04549
      vertex -21.613 0 6.05634
    endloop
  endfacet
  facet normal -0 -1 0
    outer loop
      vertex -23.1685 0 5.70131
      vertex -23.3757 0 5.72647
      vertex -23.305 0 5.67014
    endloop
  endfacet
  facet normal 0 -1 0
    outer loop
      vertex -24.6619 0 6.87472
      vertex -24.6619 0 6.75223
      vertex -24.5514 0 6.66406
    endloop
  endfacet
  facet normal 0 -1 0
    outer loop
      vertex -9.42194 0 23.7278
      vertex -9.42194 0 23.6053
      vertex -9.31137 0 23.8159
    endloop
  endfacet
  facet normal -0 -1 -0
    outer loop
      vertex -6.37302 0 24.4237
      vertex -6.42057 0 24.4345
      vertex -6.32784 0 24.3298
    endloop
  endfacet
  facet normal 0 -1 -0
    outer loop
      vertex -8.06504 0 24.8099
      vertex -8.13567 0 24.7535
      vertex -7.92849 0 24.7787
    endloop
  endfacet
  facet normal 0 -1 0
    outer loop
      vertex -6.32784 0 21.3902
      vertex -6.42057 0 21.2855
      vertex -6.37302 0 21.2963
    endloop
  endfacet
  facet normal -0 -1 0
    outer loop
      vertex -7.92849 0 20.9413
      vertex -8.13567 0 20.9665
      vertex -8.06504 0 20.9101
    endloop
  endfacet
  facet normal 0 -1 0
    outer loop
      vertex -9.42194 0 22.1147
      vertex -9.42194 0 21.9922
      vertex -9.31137 0 21.9041
    endloop
  endfacet
  facet normal -0.330531 0.362025 0.8716
    outer loop
      vertex -22.6189 0 5.63458
      vertex -22.0561 2.54 4.793
      vertex -22.4965 2.54 4.62599
    endloop
  endfacet
  facet normal -0.330569 0.362028 0.871584
    outer loop
      vertex -22.0561 2.54 4.793
      vertex -22.6189 0 5.63458
      vertex -21.7239 0 5.97403
    endloop
  endfacet
  facet normal -0.697771 0.362047 0.618092
    outer loop
      vertex -21.6606 0 6.04549
      vertex -20.5018 2.54 5.86587
      vertex -21.7239 0 5.97403
    endloop
  endfacet
  facet normal -0.697748 0.362039 0.618123
    outer loop
      vertex -20.5018 2.54 5.86587
      vertex -21.6606 0 6.04549
      vertex -20.1895 2.54 6.2184
    endloop
  endfacet
  facet normal -0.697517 0.361881 0.618475
    outer loop
      vertex -21.5678 0 6.15015
      vertex -20.1895 2.54 6.2184
      vertex -21.6606 0 6.04549
    endloop
  endfacet
  facet normal -0.697771 0.362028 0.618103
    outer loop
      vertex -20.1895 2.54 6.2184
      vertex -21.5678 0 6.15015
      vertex -21.0891 0 6.69055
    endloop
  endfacet
  facet normal -0.905087 0.362022 0.223065
    outer loop
      vertex -21.0891 0 6.69055
      vertex -20.0768 2.54 6.67568
      vertex -20.1895 2.54 6.2184
    endloop
  endfacet
  facet normal -0.905081 0.36202 0.223093
    outer loop
      vertex -20.0768 2.54 6.67568
      vertex -21.0891 0 6.69055
      vertex -20.86 0 7.62
    endloop
  endfacet
  facet normal -0.905081 0.36202 -0.223093
    outer loop
      vertex -21.0891 0 8.54945
      vertex -20.0768 2.54 8.56432
      vertex -20.86 0 7.62
    endloop
  endfacet
  facet normal -0.905087 0.362022 -0.223065
    outer loop
      vertex -20.0768 2.54 8.56432
      vertex -21.0891 0 8.54945
      vertex -20.1895 2.54 9.0216
    endloop
  endfacet
  facet normal -0.905079 0.362031 -0.223083
    outer loop
      vertex -4.83675 2.54 23.8043
      vertex -4.604 2.54 22.86
      vertex -5.62 0 22.86
    endloop
  endfacet
  facet normal 0.11233 0.362036 0.925371
    outer loop
      vertex -7.37893 0 20.8746
      vertex -7.25646 2.54 19.866
      vertex -8.22195 2.54 19.9832
    endloop
  endfacet
  facet normal -0.905079 0.362031 0.223083
    outer loop
      vertex -4.604 2.54 22.86
      vertex -4.83675 2.54 21.9157
      vertex -5.62 0 22.86
    endloop
  endfacet
  facet normal 0.112552 0.362046 -0.92534
    outer loop
      vertex -8.22195 2.54 25.7368
      vertex -7.92849 0 24.7787
      vertex -8.13567 0 24.7535
    endloop
  endfacet
  facet normal 0.112313 0.362032 -0.925375
    outer loop
      vertex -7.92849 0 24.7787
      vertex -8.22195 2.54 25.7368
      vertex -7.37893 0 24.8454
    endloop
  endfacet
  facet normal 0.112359 0.362049 -0.925363
    outer loop
      vertex -8.32921 0 24.73
      vertex -8.22195 2.54 25.7368
      vertex -8.13567 0 24.7535
    endloop
  endfacet
  facet normal 0.112419 0.362044 -0.925357
    outer loop
      vertex -8.22195 2.54 25.7368
      vertex -8.32921 0 24.73
      vertex -8.68949 2.54 25.68
    endloop
  endfacet
  facet normal -0.330506 0.362034 -0.871606
    outer loop
      vertex -7.37893 0 24.8454
      vertex -6.81609 2.54 25.687
      vertex -6.48387 0 24.506
    endloop
  endfacet
  facet normal -0.330532 0.362036 -0.871595
    outer loop
      vertex -6.81609 2.54 25.687
      vertex -7.37893 0 24.8454
      vertex -7.25646 2.54 25.854
    endloop
  endfacet
  facet normal -0.697745 0.362019 -0.618137
    outer loop
      vertex -5.90672 2.54 25.3421
      vertex -5.26178 2.54 24.6141
      vertex -6.48387 0 24.506
    endloop
  endfacet
  facet normal 0.52954 0.362037 -0.767148
    outer loop
      vertex -8.68949 2.54 25.68
      vertex -8.32921 0 24.73
      vertex -9.4899 2.54 25.1275
    endloop
  endfacet
  facet normal -0.33057 0.362017 0.871589
    outer loop
      vertex -6.48387 0 21.214
      vertex -5.90672 2.54 20.3779
      vertex -6.81609 2.54 20.033
    endloop
  endfacet
  facet normal 0.825427 0.36206 0.433109
    outer loop
      vertex -9.42194 0 22.1147
      vertex -10.5484 2.54 22.1382
      vertex -9.56188 0 22.3814
    endloop
  endfacet
  facet normal 0.825335 0.362017 0.43332
    outer loop
      vertex -9.31137 0 21.9041
      vertex -10.5484 2.54 22.1382
      vertex -9.42194 0 22.1147
    endloop
  endfacet
  facet normal 0.825383 0.362052 0.433198
    outer loop
      vertex -9.11702 0 21.5338
      vertex -10.5484 2.54 22.1382
      vertex -9.31137 0 21.9041
    endloop
  endfacet
  facet normal 0.825377 0.362044 0.433216
    outer loop
      vertex -10.5484 2.54 22.1382
      vertex -9.11702 0 21.5338
      vertex -9.87751 2.54 20.86
    endloop
  endfacet
  facet normal 0.11233 0.362036 -0.925371
    outer loop
      vertex -7.25646 2.54 25.854
      vertex -7.37893 0 24.8454
      vertex -8.22195 2.54 25.7368
    endloop
  endfacet
  facet normal 0.529539 0.362036 0.76715
    outer loop
      vertex -9.4899 2.54 20.5925
      vertex -9.11702 0 21.5338
      vertex -8.32921 0 20.99
    endloop
  endfacet
  facet normal 0.529464 0.362043 0.767198
    outer loop
      vertex -9.11702 0 21.5338
      vertex -9.4899 2.54 20.5925
      vertex -9.87751 2.54 20.86
    endloop
  endfacet
  facet normal 0.529539 0.362036 -0.76715
    outer loop
      vertex -9.11702 0 24.1862
      vertex -9.4899 2.54 25.1275
      vertex -8.32921 0 24.73
    endloop
  endfacet
  facet normal 0.529464 0.362043 -0.767198
    outer loop
      vertex -9.4899 2.54 25.1275
      vertex -9.11702 0 24.1862
      vertex -9.87751 2.54 24.86
    endloop
  endfacet
  facet normal 0.52954 0.362037 0.767148
    outer loop
      vertex -8.32921 0 20.99
      vertex -8.68949 2.54 20.04
      vertex -9.4899 2.54 20.5925
    endloop
  endfacet
  facet normal -0.697745 0.362019 0.618137
    outer loop
      vertex -5.26178 2.54 21.1059
      vertex -5.90672 2.54 20.3779
      vertex -6.48387 0 21.214
    endloop
  endfacet
  facet normal -0.697735 0.36204 -0.618136
    outer loop
      vertex -6.32784 0 24.3298
      vertex -4.94947 2.54 24.2616
      vertex -5.84909 0 23.7894
    endloop
  endfacet
  facet normal -0.697808 0.362082 -0.61803
    outer loop
      vertex -6.42057 0 24.4345
      vertex -4.94947 2.54 24.2616
      vertex -6.32784 0 24.3298
    endloop
  endfacet
  facet normal -0.697718 0.36202 -0.618168
    outer loop
      vertex -4.94947 2.54 24.2616
      vertex -6.42057 0 24.4345
      vertex -5.26178 2.54 24.6141
    endloop
  endfacet
  facet normal -0.697928 0.362096 -0.617886
    outer loop
      vertex -5.26178 2.54 24.6141
      vertex -6.42057 0 24.4345
      vertex -6.48387 0 24.506
    endloop
  endfacet
  facet normal -0.33057 0.362017 -0.871589
    outer loop
      vertex -5.90672 2.54 25.3421
      vertex -6.48387 0 24.506
      vertex -6.81609 2.54 25.687
    endloop
  endfacet
  facet normal 0.825377 0.362044 -0.433216
    outer loop
      vertex -9.11702 0 24.1862
      vertex -10.5484 2.54 23.5818
      vertex -9.87751 2.54 24.86
    endloop
  endfacet
  facet normal 0.825383 0.362052 -0.433198
    outer loop
      vertex -9.31137 0 23.8159
      vertex -10.5484 2.54 23.5818
      vertex -9.11702 0 24.1862
    endloop
  endfacet
  facet normal 0.825335 0.362017 -0.43332
    outer loop
      vertex -9.42194 0 23.6053
      vertex -10.5484 2.54 23.5818
      vertex -9.31137 0 23.8159
    endloop
  endfacet
  facet normal 0.825427 0.36206 -0.433109
    outer loop
      vertex -10.5484 2.54 23.5818
      vertex -9.42194 0 23.6053
      vertex -9.56188 0 23.3386
    endloop
  endfacet
  facet normal 0.932161 0.362045 0
    outer loop
      vertex -9.56188 0 23.3386
      vertex -10.5484 2.54 22.1382
      vertex -10.5484 2.54 23.5818
    endloop
  endfacet
  facet normal 0.932161 0.362045 0
    outer loop
      vertex -10.5484 2.54 22.1382
      vertex -9.56188 0 23.3386
      vertex -9.56188 0 22.3814
    endloop
  endfacet
  facet normal 0.112313 0.362032 0.925375
    outer loop
      vertex -8.22195 2.54 19.9832
      vertex -7.92849 0 20.9413
      vertex -7.37893 0 20.8746
    endloop
  endfacet
  facet normal 0.112552 0.362046 0.92534
    outer loop
      vertex -7.92849 0 20.9413
      vertex -8.22195 2.54 19.9832
      vertex -8.13567 0 20.9665
    endloop
  endfacet
  facet normal 0.112359 0.362049 0.925363
    outer loop
      vertex -8.22195 2.54 19.9832
      vertex -8.32921 0 20.99
      vertex -8.13567 0 20.9665
    endloop
  endfacet
  facet normal 0.112419 0.362044 0.925357
    outer loop
      vertex -8.32921 0 20.99
      vertex -8.22195 2.54 19.9832
      vertex -8.68949 2.54 20.04
    endloop
  endfacet
  facet normal -0.330532 0.362036 0.871595
    outer loop
      vertex -7.37893 0 20.8746
      vertex -6.81609 2.54 20.033
      vertex -7.25646 2.54 19.866
    endloop
  endfacet
  facet normal -0.330506 0.362034 0.871606
    outer loop
      vertex -6.81609 2.54 20.033
      vertex -7.37893 0 20.8746
      vertex -6.48387 0 21.214
    endloop
  endfacet
  facet normal -0.697928 0.362096 0.617886
    outer loop
      vertex -6.42057 0 21.2855
      vertex -5.26178 2.54 21.1059
      vertex -6.48387 0 21.214
    endloop
  endfacet
  facet normal -0.697718 0.36202 0.618168
    outer loop
      vertex -5.26178 2.54 21.1059
      vertex -6.42057 0 21.2855
      vertex -4.94947 2.54 21.4584
    endloop
  endfacet
  facet normal -0.697808 0.362082 0.61803
    outer loop
      vertex -6.32784 0 21.3902
      vertex -4.94947 2.54 21.4584
      vertex -6.42057 0 21.2855
    endloop
  endfacet
  facet normal -0.697735 0.36204 0.618136
    outer loop
      vertex -4.94947 2.54 21.4584
      vertex -6.32784 0 21.3902
      vertex -5.84909 0 21.9306
    endloop
  endfacet
  facet normal -0.905075 0.362035 0.223092
    outer loop
      vertex -5.84909 0 21.9306
      vertex -4.83675 2.54 21.9157
      vertex -4.94947 2.54 21.4584
    endloop
  endfacet
  facet normal -0.905075 0.362034 0.223094
    outer loop
      vertex -4.83675 2.54 21.9157
      vertex -5.84909 0 21.9306
      vertex -5.62 0 22.86
    endloop
  endfacet
  facet normal -0.905075 0.362034 -0.223094
    outer loop
      vertex -5.84909 0 23.7894
      vertex -4.83675 2.54 23.8043
      vertex -5.62 0 22.86
    endloop
  endfacet
  facet normal -0.905075 0.362035 -0.223092
    outer loop
      vertex -4.83675 2.54 23.8043
      vertex -5.84909 0 23.7894
      vertex -4.94947 2.54 24.2616
    endloop
  endfacet
  facet normal 1 -0 0
    outer loop
      vertex -4.57764e-07 0 30.48
      vertex -4.57764e-07 2.54 0
      vertex -4.57764e-07 2.54 30.48
    endloop
  endfacet
  facet normal 1 0 0
    outer loop
      vertex -4.57764e-07 2.54 0
      vertex -4.57764e-07 0 30.48
      vertex -4.57764e-07 0 0
    endloop
  endfacet
  facet normal -0 0 1
    outer loop
      vertex -30.48 2.54 30.48
      vertex -4.57764e-07 0 30.48
      vertex -4.57764e-07 2.54 30.48
    endloop
  endfacet
  facet normal 0 0 1
    outer loop
      vertex -4.57764e-07 0 30.48
      vertex -30.48 2.54 30.48
      vertex -30.48 0 30.48
    endloop
  endfacet
  facet normal 0 0 -1
    outer loop
      vertex -30.48 0 0
      vertex -4.57764e-07 2.54 0
      vertex -4.57764e-07 0 0
    endloop
  endfacet
  facet normal -0 0 -1
    outer loop
      vertex -4.57764e-07 2.54 0
      vertex -30.48 0 0
      vertex -30.48 2.54 0
    endloop
  endfacet
  facet normal -1 0 0
    outer loop
      vertex -30.48 0 0
      vertex -30.48 2.54 30.48
      vertex -30.48 2.54 0
    endloop
  endfacet
  facet normal -1 -0 0
    outer loop
      vertex -30.48 2.54 30.48
      vertex -30.48 0 0
      vertex -30.48 0 30.48
    endloop
  endfacet
  facet normal 0 1 0
    outer loop
      vertex -8.22195 2.54 25.7368
      vertex -4.57764e-07 2.54 30.48
      vertex -7.25646 2.54 25.854
    endloop
  endfacet
  facet normal 0 1 0
    outer loop
      vertex -4.57764e-07 2.54 30.48
      vertex -6.81609 2.54 25.687
      vertex -7.25646 2.54 25.854
    endloop
  endfacet
  facet normal 0 1 0
    outer loop
      vertex -4.57764e-07 2.54 30.48
      vertex -5.90672 2.54 25.3421
      vertex -6.81609 2.54 25.687
    endloop
  endfacet
  facet normal 0 1 0
    outer loop
      vertex -4.57764e-07 2.54 30.48
      vertex -5.26178 2.54 24.6141
      vertex -5.90672 2.54 25.3421
    endloop
  endfacet
  facet normal 0 1 0
    outer loop
      vertex -4.57764e-07 2.54 30.48
      vertex -4.94947 2.54 24.2616
      vertex -5.26178 2.54 24.6141
    endloop
  endfacet
  facet normal 0 1 0
    outer loop
      vertex -4.57764e-07 2.54 30.48
      vertex -4.83675 2.54 23.8043
      vertex -4.94947 2.54 24.2616
    endloop
  endfacet
  facet normal 0 1 0
    outer loop
      vertex -4.57764e-07 2.54 30.48
      vertex -4.604 2.54 22.86
      vertex -4.83675 2.54 23.8043
    endloop
  endfacet
  facet normal 0 1 0
    outer loop
      vertex -4.57764e-07 2.54 30.48
      vertex -4.83675 2.54 21.9157
      vertex -4.604 2.54 22.86
    endloop
  endfacet
  facet normal 0 1 0
    outer loop
      vertex -4.57764e-07 2.54 30.48
      vertex -4.94947 2.54 21.4584
      vertex -4.83675 2.54 21.9157
    endloop
  endfacet
  facet normal 0 1 0
    outer loop
      vertex -4.57764e-07 2.54 0
      vertex -5.26178 2.54 21.1059
      vertex -4.94947 2.54 21.4584
    endloop
  endfacet
  facet normal 0 1 0
    outer loop
      vertex -4.57764e-07 2.54 0
      vertex -7.25646 2.54 19.866
      vertex -6.81609 2.54 20.033
    endloop
  endfacet
  facet normal 0 1 0
    outer loop
      vertex -4.57764e-07 2.54 0
      vertex -6.81609 2.54 20.033
      vertex -5.90672 2.54 20.3779
    endloop
  endfacet
  facet normal 0 1 0
    outer loop
      vertex -7.25646 2.54 19.866
      vertex -22.0561 2.54 10.447
      vertex -22.4965 2.54 10.614
    endloop
  endfacet
  facet normal 0 1 0
    outer loop
      vertex -7.25646 2.54 19.866
      vertex -21.1467 2.54 10.1021
      vertex -22.0561 2.54 10.447
    endloop
  endfacet
  facet normal 0 1 0
    outer loop
      vertex -7.25646 2.54 19.866
      vertex -20.5018 2.54 9.37413
      vertex -21.1467 2.54 10.1021
    endloop
  endfacet
  facet normal 0 1 0
    outer loop
      vertex -7.25646 2.54 19.866
      vertex -20.1895 2.54 9.0216
      vertex -20.5018 2.54 9.37413
    endloop
  endfacet
  facet normal 0 1 0
    outer loop
      vertex -7.25646 2.54 19.866
      vertex -20.0768 2.54 8.56432
      vertex -20.1895 2.54 9.0216
    endloop
  endfacet
  facet normal 0 1 0
    outer loop
      vertex -7.25646 2.54 19.866
      vertex -19.844 2.54 7.62
      vertex -20.0768 2.54 8.56432
    endloop
  endfacet
  facet normal 0 1 0
    outer loop
      vertex -7.25646 2.54 19.866
      vertex -4.57764e-07 2.54 0
      vertex -19.844 2.54 7.62
    endloop
  endfacet
  facet normal 0 1 0
    outer loop
      vertex -19.844 2.54 7.62
      vertex -4.57764e-07 2.54 0
      vertex -20.0768 2.54 6.67568
    endloop
  endfacet
  facet normal 0 1 0
    outer loop
      vertex -20.0768 2.54 6.67568
      vertex -4.57764e-07 2.54 0
      vertex -20.1895 2.54 6.2184
    endloop
  endfacet
  facet normal 0 1 0
    outer loop
      vertex -20.1895 2.54 6.2184
      vertex -4.57764e-07 2.54 0
      vertex -20.5018 2.54 5.86587
    endloop
  endfacet
  facet normal 0 1 0
    outer loop
      vertex -22.0561 2.54 4.793
      vertex -4.57764e-07 2.54 0
      vertex -22.4965 2.54 4.62599
    endloop
  endfacet
  facet normal 0 1 0
    outer loop
      vertex -21.1467 2.54 5.13788
      vertex -4.57764e-07 2.54 0
      vertex -22.0561 2.54 4.793
    endloop
  endfacet
  facet normal 0 1 0
    outer loop
      vertex -20.5018 2.54 5.86587
      vertex -4.57764e-07 2.54 0
      vertex -21.1467 2.54 5.13788
    endloop
  endfacet
  facet normal 0 1 0
    outer loop
      vertex -5.26178 2.54 21.1059
      vertex -4.57764e-07 2.54 0
      vertex -5.90672 2.54 20.3779
    endloop
  endfacet
  facet normal 0 1 -0
    outer loop
      vertex -4.57764e-07 2.54 0
      vertex -4.94947 2.54 21.4584
      vertex -4.57764e-07 2.54 30.48
    endloop
  endfacet
  facet normal 0 1 0
    outer loop
      vertex -8.68949 2.54 25.68
      vertex -4.57764e-07 2.54 30.48
      vertex -8.22195 2.54 25.7368
    endloop
  endfacet
  facet normal 0 1 0
    outer loop
      vertex -4.57764e-07 2.54 30.48
      vertex -8.68949 2.54 25.68
      vertex -30.48 2.54 30.48
    endloop
  endfacet
  facet normal 0 1 -0
    outer loop
      vertex -9.4899 2.54 25.1275
      vertex -30.48 2.54 30.48
      vertex -8.68949 2.54 25.68
    endloop
  endfacet
  facet normal 0 1 -0
    outer loop
      vertex -9.87751 2.54 24.86
      vertex -30.48 2.54 30.48
      vertex -9.4899 2.54 25.1275
    endloop
  endfacet
  facet normal 0 1 -0
    outer loop
      vertex -10.5484 2.54 23.5818
      vertex -30.48 2.54 30.48
      vertex -9.87751 2.54 24.86
    endloop
  endfacet
  facet normal 0 1 -0
    outer loop
      vertex -10.5484 2.54 22.1382
      vertex -30.48 2.54 30.48
      vertex -10.5484 2.54 23.5818
    endloop
  endfacet
  facet normal 0 1 0
    outer loop
      vertex -22.4965 2.54 10.614
      vertex -10.5484 2.54 22.1382
      vertex -9.87751 2.54 20.86
    endloop
  endfacet
  facet normal 0 1 0
    outer loop
      vertex -22.4965 2.54 10.614
      vertex -9.87751 2.54 20.86
      vertex -9.4899 2.54 20.5925
    endloop
  endfacet
  facet normal 0 1 0
    outer loop
      vertex -22.4965 2.54 10.614
      vertex -9.4899 2.54 20.5925
      vertex -8.68949 2.54 20.04
    endloop
  endfacet
  facet normal 0 1 0
    outer loop
      vertex -22.4965 2.54 10.614
      vertex -8.22195 2.54 19.9832
      vertex -7.25646 2.54 19.866
    endloop
  endfacet
  facet normal 0 1 0
    outer loop
      vertex -22.4965 2.54 10.614
      vertex -8.68949 2.54 20.04
      vertex -8.22195 2.54 19.9832
    endloop
  endfacet
  facet normal 0 1 0
    outer loop
      vertex -10.5484 2.54 22.1382
      vertex -22.4965 2.54 10.614
      vertex -30.48 2.54 30.48
    endloop
  endfacet
  facet normal 0 1 -0
    outer loop
      vertex -23.4619 2.54 10.4968
      vertex -30.48 2.54 30.48
      vertex -22.4965 2.54 10.614
    endloop
  endfacet
  facet normal 0 1 -0
    outer loop
      vertex -23.9295 2.54 10.44
      vertex -30.48 2.54 30.48
      vertex -23.4619 2.54 10.4968
    endloop
  endfacet
  facet normal 0 1 -0
    outer loop
      vertex -24.7299 2.54 9.88752
      vertex -30.48 2.54 30.48
      vertex -23.9295 2.54 10.44
    endloop
  endfacet
  facet normal 0 1 -0
    outer loop
      vertex -25.1175 2.54 9.61998
      vertex -30.48 2.54 30.48
      vertex -24.7299 2.54 9.88752
    endloop
  endfacet
  facet normal 0 1 -0
    outer loop
      vertex -25.7884 2.54 8.34178
      vertex -30.48 2.54 30.48
      vertex -25.1175 2.54 9.61998
    endloop
  endfacet
  facet normal 0 1 0
    outer loop
      vertex -30.48 2.54 0
      vertex -25.7884 2.54 8.34178
      vertex -25.7884 2.54 6.89822
    endloop
  endfacet
  facet normal 0 1 0
    outer loop
      vertex -30.48 2.54 0
      vertex -24.7299 2.54 5.35248
      vertex -23.9295 2.54 4.79999
    endloop
  endfacet
  facet normal 0 1 0
    outer loop
      vertex -30.48 2.54 0
      vertex -23.4619 2.54 4.74322
      vertex -22.4965 2.54 4.62599
    endloop
  endfacet
  facet normal 0 1 0
    outer loop
      vertex -30.48 2.54 0
      vertex -22.4965 2.54 4.62599
      vertex -4.57764e-07 2.54 0
    endloop
  endfacet
  facet normal 0 1 0
    outer loop
      vertex -25.7884 2.54 8.34178
      vertex -30.48 2.54 0
      vertex -30.48 2.54 30.48
    endloop
  endfacet
  facet normal 0 1 0
    outer loop
      vertex -25.1175 2.54 5.62002
      vertex -30.48 2.54 0
      vertex -25.7884 2.54 6.89822
    endloop
  endfacet
  facet normal 0 1 0
    outer loop
      vertex -24.7299 2.54 5.35248
      vertex -30.48 2.54 0
      vertex -25.1175 2.54 5.62002
    endloop
  endfacet
  facet normal 0 1 0
    outer loop
      vertex -23.4619 2.54 4.74322
      vertex -30.48 2.54 0
      vertex -23.9295 2.54 4.79999
    endloop
  endfacet
  facet normal -0.362028 -0.90507 -0.223124
    outer loop
      vertex 27.94 41.116 7.62
      vertex 30.48 40.1 7.62
      vertex 27.94 40.8832 8.56432
    endloop
  endfacet
  facet normal -0.362033 0.112369 0.925368
    outer loop
      vertex 30.48 38.3411 5.63458
      vertex 27.94 38.4635 4.62599
      vertex 27.94 37.4981 4.74322
    endloop
  endfacet
  facet normal -0.362028 -0.90507 0.223124
    outer loop
      vertex 30.48 40.1 7.62
      vertex 27.94 41.116 7.62
      vertex 27.94 40.8832 6.67568
    endloop
  endfacet
  facet normal -0.362036 0.112383 -0.925365
    outer loop
      vertex 27.94 37.4981 10.4968
      vertex 30.48 37.5843 9.51353
      vertex 30.48 37.3908 9.49003
    endloop
  endfacet
  facet normal -0.362036 0.112366 -0.925367
    outer loop
      vertex 30.48 37.5843 9.51353
      vertex 27.94 37.4981 10.4968
      vertex 30.48 37.7915 9.53869
    endloop
  endfacet
  facet normal -0.362034 0.112405 -0.925363
    outer loop
      vertex 27.94 37.4981 10.4968
      vertex 30.48 37.3908 9.49003
      vertex 27.94 37.0305 10.44
    endloop
  endfacet
  facet normal -0.362035 0.112354 -0.925369
    outer loop
      vertex 30.48 37.7915 9.53869
      vertex 27.94 37.4981 10.4968
      vertex 30.48 38.3411 9.60542
    endloop
  endfacet
  facet normal -0.362024 -0.330514 -0.871607
    outer loop
      vertex 27.94 38.9039 10.447
      vertex 30.48 38.3411 9.60542
      vertex 27.94 38.4635 10.614
    endloop
  endfacet
  facet normal -0.362028 -0.330569 -0.871584
    outer loop
      vertex 30.48 38.3411 9.60542
      vertex 27.94 38.9039 10.447
      vertex 30.48 39.2361 9.26597
    endloop
  endfacet
  facet normal -0.362036 -0.697747 -0.618126
    outer loop
      vertex 27.94 40.4582 9.37413
      vertex 30.48 39.2361 9.26597
      vertex 27.94 39.8133 10.1021
    endloop
  endfacet
  facet normal -0.362033 0.529533 -0.767155
    outer loop
      vertex 27.94 37.0305 10.44
      vertex 30.48 37.3908 9.49003
      vertex 27.94 36.2301 9.88752
    endloop
  endfacet
  facet normal -0.362036 -0.330542 0.871592
    outer loop
      vertex 30.48 39.2361 5.97403
      vertex 27.94 39.8133 5.13788
      vertex 27.94 38.9039 4.793
    endloop
  endfacet
  facet normal -0.362027 0.825328 0.433324
    outer loop
      vertex 30.48 36.2981 6.87472
      vertex 27.94 35.1716 6.89822
      vertex 30.48 36.1581 7.14137
    endloop
  endfacet
  facet normal -0.362094 0.825472 0.432995
    outer loop
      vertex 30.48 36.4086 6.66406
      vertex 27.94 35.1716 6.89822
      vertex 30.48 36.2981 6.87472
    endloop
  endfacet
  facet normal -0.362011 0.825356 0.433284
    outer loop
      vertex 30.48 36.603 6.29375
      vertex 27.94 35.1716 6.89822
      vertex 30.48 36.4086 6.66406
    endloop
  endfacet
  facet normal -0.362037 0.825377 0.433223
    outer loop
      vertex 27.94 35.1716 6.89822
      vertex 30.48 36.603 6.29375
      vertex 27.94 35.8425 5.62002
    endloop
  endfacet
  facet normal -0.362032 0.112341 -0.925372
    outer loop
      vertex 27.94 38.4635 10.614
      vertex 30.48 38.3411 9.60542
      vertex 27.94 37.4981 10.4968
    endloop
  endfacet
  facet normal -0.362033 0.529531 0.767157
    outer loop
      vertex 27.94 36.2301 5.35248
      vertex 30.48 36.603 6.29375
      vertex 30.48 37.3908 5.74997
    endloop
  endfacet
  facet normal -0.362033 0.529529 0.767158
    outer loop
      vertex 30.48 36.603 6.29375
      vertex 27.94 36.2301 5.35248
      vertex 27.94 35.8425 5.62002
    endloop
  endfacet
  facet normal -0.362033 0.529529 -0.767158
    outer loop
      vertex 27.94 36.2301 9.88752
      vertex 30.48 36.603 8.94625
      vertex 27.94 35.8425 9.61998
    endloop
  endfacet
  facet normal -0.362033 0.529531 -0.767157
    outer loop
      vertex 30.48 36.603 8.94625
      vertex 27.94 36.2301 9.88752
      vertex 30.48 37.3908 9.49003
    endloop
  endfacet
  facet normal -0.362035 0.529539 0.76715
    outer loop
      vertex 30.48 37.3908 5.74997
      vertex 27.94 37.0305 4.79999
      vertex 27.94 36.2301 5.35248
    endloop
  endfacet
  facet normal -0.36204 -0.697754 0.618115
    outer loop
      vertex 30.48 39.2361 5.97403
      vertex 27.94 40.4582 5.86587
      vertex 27.94 39.8133 5.13788
    endloop
  endfacet
  facet normal -0.36203 -0.697732 -0.618145
    outer loop
      vertex 27.94 40.4582 9.37413
      vertex 30.48 39.2994 9.19452
      vertex 30.48 39.2361 9.26597
    endloop
  endfacet
  facet normal -0.362036 -0.697749 -0.618123
    outer loop
      vertex 27.94 40.7705 9.0216
      vertex 30.48 39.2994 9.19452
      vertex 27.94 40.4582 9.37413
    endloop
  endfacet
  facet normal -0.361895 -0.697543 -0.618438
    outer loop
      vertex 30.48 39.2994 9.19452
      vertex 27.94 40.7705 9.0216
      vertex 30.48 39.3922 9.08985
    endloop
  endfacet
  facet normal -0.362028 -0.697771 -0.618103
    outer loop
      vertex 30.48 39.3922 9.08985
      vertex 27.94 40.7705 9.0216
      vertex 30.48 39.8709 8.54945
    endloop
  endfacet
  facet normal -0.362031 -0.330559 -0.871587
    outer loop
      vertex 27.94 39.8133 10.1021
      vertex 30.48 39.2361 9.26597
      vertex 27.94 38.9039 10.447
    endloop
  endfacet
  facet normal -0.362011 0.825356 -0.433284
    outer loop
      vertex 27.94 35.1716 8.34178
      vertex 30.48 36.603 8.94625
      vertex 30.48 36.4086 8.57594
    endloop
  endfacet
  facet normal -0.362094 0.825472 -0.432995
    outer loop
      vertex 27.94 35.1716 8.34178
      vertex 30.48 36.4086 8.57594
      vertex 30.48 36.2981 8.36528
    endloop
  endfacet
  facet normal -0.362037 0.825377 -0.433223
    outer loop
      vertex 30.48 36.603 8.94625
      vertex 27.94 35.1716 8.34178
      vertex 27.94 35.8425 9.61998
    endloop
  endfacet
  facet normal -0.362027 0.825328 -0.433324
    outer loop
      vertex 27.94 35.1716 8.34178
      vertex 30.48 36.2981 8.36528
      vertex 30.48 36.1581 8.09863
    endloop
  endfacet
  facet normal -0.362039 0.932163 0
    outer loop
      vertex 30.48 36.1581 7.14137
      vertex 27.94 35.1716 8.34178
      vertex 30.48 36.1581 8.09863
    endloop
  endfacet
  facet normal -0.362039 0.932163 0
    outer loop
      vertex 27.94 35.1716 8.34178
      vertex 30.48 36.1581 7.14137
      vertex 27.94 35.1716 6.89822
    endloop
  endfacet
  facet normal -0.362029 0.112354 0.925371
    outer loop
      vertex 27.94 37.4981 4.74322
      vertex 30.48 37.7915 5.70131
      vertex 30.48 38.3411 5.63458
    endloop
  endfacet
  facet normal -0.36203 0.112366 0.925369
    outer loop
      vertex 30.48 37.7915 5.70131
      vertex 27.94 37.4981 4.74322
      vertex 30.48 37.5843 5.72647
    endloop
  endfacet
  facet normal -0.362029 0.112383 0.925367
    outer loop
      vertex 30.48 37.5843 5.72647
      vertex 27.94 37.4981 4.74322
      vertex 30.48 37.3908 5.74997
    endloop
  endfacet
  facet normal -0.362032 0.112347 0.925371
    outer loop
      vertex 30.48 37.3908 5.74997
      vertex 27.94 37.4981 4.74322
      vertex 27.94 37.0305 4.79999
    endloop
  endfacet
  facet normal 1 0 0
    outer loop
      vertex 30.48 36.2981 6.87472
      vertex 30.48 36.1581 7.14137
      vertex 30.48 36.2981 6.75223
    endloop
  endfacet
  facet normal 1 0 0
    outer loop
      vertex 30.48 51.5381 22.1147
      vertex 30.48 51.3981 22.3814
      vertex 30.48 51.5381 21.9922
    endloop
  endfacet
  facet normal 1 0 0
    outer loop
      vertex 30.48 55.1109 21.9306
      vertex 30.48 60.96 30.48
      vertex 30.48 55.34 22.86
    endloop
  endfacet
  facet normal 1 0 0
    outer loop
      vertex 30.48 60.96 30.48
      vertex 30.48 55.1109 23.7894
      vertex 30.48 55.34 22.86
    endloop
  endfacet
  facet normal 1 -0 0
    outer loop
      vertex 30.48 54.587 24.4237
      vertex 30.48 55.1109 23.7894
      vertex 30.48 60.96 30.48
    endloop
  endfacet
  facet normal 1 0 0
    outer loop
      vertex 30.48 55.1109 23.7894
      vertex 30.48 54.587 24.4237
      vertex 30.48 54.6322 24.3298
    endloop
  endfacet
  facet normal 1 -0 0
    outer loop
      vertex 30.48 54.4761 24.506
      vertex 30.48 54.587 24.4237
      vertex 30.48 60.96 30.48
    endloop
  endfacet
  facet normal 1 0 0
    outer loop
      vertex 30.48 54.587 24.4237
      vertex 30.48 54.4761 24.506
      vertex 30.48 54.5394 24.4345
    endloop
  endfacet
  facet normal 1 0 0
    outer loop
      vertex 30.48 60.96 30.48
      vertex 30.48 53.5811 24.8454
      vertex 30.48 54.4761 24.506
    endloop
  endfacet
  facet normal 1 0 0
    outer loop
      vertex 30.48 52.895 24.8099
      vertex 30.48 53.5811 24.8454
      vertex 30.48 60.96 30.48
    endloop
  endfacet
  facet normal 1 0 0
    outer loop
      vertex 30.48 53.5811 24.8454
      vertex 30.48 52.895 24.8099
      vertex 30.48 53.0315 24.7787
    endloop
  endfacet
  facet normal 1 0 0
    outer loop
      vertex 30.48 52.895 24.8099
      vertex 30.48 52.6308 24.73
      vertex 30.48 52.8243 24.7535
    endloop
  endfacet
  facet normal 1 0 0
    outer loop
      vertex 30.48 60.96 30.48
      vertex 30.48 52.6308 24.73
      vertex 30.48 52.895 24.8099
    endloop
  endfacet
  facet normal 1 -0 0
    outer loop
      vertex 30.48 30.48 30.48
      vertex 30.48 52.6308 24.73
      vertex 30.48 60.96 30.48
    endloop
  endfacet
  facet normal 1 0 0
    outer loop
      vertex 30.48 51.843 24.1862
      vertex 30.48 51.5381 23.7278
      vertex 30.48 51.6486 23.8159
    endloop
  endfacet
  facet normal 1 0 0
    outer loop
      vertex 30.48 51.5381 23.7278
      vertex 30.48 51.3981 23.3386
      vertex 30.48 51.5381 23.6053
    endloop
  endfacet
  facet normal 1 0 0
    outer loop
      vertex 30.48 30.48 30.48
      vertex 30.48 51.3981 22.3814
      vertex 30.48 51.3981 23.3386
    endloop
  endfacet
  facet normal 1 0 0
    outer loop
      vertex 30.48 30.48 30.48
      vertex 30.48 51.3981 23.3386
      vertex 30.48 51.5381 23.7278
    endloop
  endfacet
  facet normal 1 0 0
    outer loop
      vertex 30.48 30.48 30.48
      vertex 30.48 51.5381 23.7278
      vertex 30.48 51.843 24.1862
    endloop
  endfacet
  facet normal 1 0 0
    outer loop
      vertex 30.48 51.3981 22.3814
      vertex 30.48 39.8709 8.54945
      vertex 30.48 40.1 7.62
    endloop
  endfacet
  facet normal 1 0 0
    outer loop
      vertex 30.48 51.3981 22.3814
      vertex 30.48 39.347 9.18366
      vertex 30.48 39.8709 8.54945
    endloop
  endfacet
  facet normal 1 0 0
    outer loop
      vertex 30.48 39.8709 8.54945
      vertex 30.48 39.347 9.18366
      vertex 30.48 39.3922 9.08985
    endloop
  endfacet
  facet normal 1 0 0
    outer loop
      vertex 30.48 51.3981 22.3814
      vertex 30.48 39.2361 9.26597
      vertex 30.48 39.347 9.18366
    endloop
  endfacet
  facet normal 1 0 0
    outer loop
      vertex 30.48 39.347 9.18366
      vertex 30.48 39.2361 9.26597
      vertex 30.48 39.2994 9.19452
    endloop
  endfacet
  facet normal 1 0 0
    outer loop
      vertex 30.48 51.3981 22.3814
      vertex 30.48 38.3411 9.60542
      vertex 30.48 39.2361 9.26597
    endloop
  endfacet
  facet normal 1 0 0
    outer loop
      vertex 30.48 51.3981 22.3814
      vertex 30.48 30.48 30.48
      vertex 30.48 38.3411 9.60542
    endloop
  endfacet
  facet normal 1 0 0
    outer loop
      vertex 30.48 38.3411 9.60542
      vertex 30.48 37.655 9.56986
      vertex 30.48 37.7915 9.53869
    endloop
  endfacet
  facet normal 1 0 0
    outer loop
      vertex 30.48 38.3411 9.60542
      vertex 30.48 30.48 30.48
      vertex 30.48 37.655 9.56986
    endloop
  endfacet
  facet normal 1 0 -0
    outer loop
      vertex 30.48 37.3908 9.49003
      vertex 30.48 37.655 9.56986
      vertex 30.48 30.48 30.48
    endloop
  endfacet
  facet normal 1 0 0
    outer loop
      vertex 30.48 37.655 9.56986
      vertex 30.48 37.3908 9.49003
      vertex 30.48 37.5843 9.51353
    endloop
  endfacet
  facet normal 1 0 0
    outer loop
      vertex 30.48 36.603 8.94625
      vertex 30.48 36.2981 8.48777
      vertex 30.48 36.4086 8.57594
    endloop
  endfacet
  facet normal 1 0 0
    outer loop
      vertex 30.48 36.2981 8.48777
      vertex 30.48 36.1581 8.09863
      vertex 30.48 36.2981 8.36528
    endloop
  endfacet
  facet normal 1 0 0
    outer loop
      vertex 30.48 30.48 0
      vertex 30.48 36.1581 8.09863
      vertex 30.48 30.48 30.48
    endloop
  endfacet
  facet normal 1 0 0
    outer loop
      vertex 30.48 36.2981 8.48777
      vertex 30.48 30.48 30.48
      vertex 30.48 36.1581 8.09863
    endloop
  endfacet
  facet normal 1 0 0
    outer loop
      vertex 30.48 36.603 8.94625
      vertex 30.48 30.48 30.48
      vertex 30.48 36.2981 8.48777
    endloop
  endfacet
  facet normal 1 0 0
    outer loop
      vertex 30.48 37.3908 9.49003
      vertex 30.48 30.48 30.48
      vertex 30.48 36.603 8.94625
    endloop
  endfacet
  facet normal 1 0 0
    outer loop
      vertex 30.48 52.6308 24.73
      vertex 30.48 30.48 30.48
      vertex 30.48 51.843 24.1862
    endloop
  endfacet
  facet normal 1 0 0
    outer loop
      vertex 30.48 60.96 30.48
      vertex 30.48 55.1109 21.9306
      vertex 30.48 60.96 0
    endloop
  endfacet
  facet normal 1 0 0
    outer loop
      vertex 30.48 54.587 21.2963
      vertex 30.48 55.1109 21.9306
      vertex 30.48 54.6322 21.3902
    endloop
  endfacet
  facet normal 1 0 0
    outer loop
      vertex 30.48 55.1109 21.9306
      vertex 30.48 54.587 21.2963
      vertex 30.48 60.96 0
    endloop
  endfacet
  facet normal 1 0 0
    outer loop
      vertex 30.48 54.4761 21.214
      vertex 30.48 54.587 21.2963
      vertex 30.48 54.5394 21.2855
    endloop
  endfacet
  facet normal 1 0 0
    outer loop
      vertex 30.48 54.587 21.2963
      vertex 30.48 54.4761 21.214
      vertex 30.48 60.96 0
    endloop
  endfacet
  facet normal 1 -0 0
    outer loop
      vertex 30.48 53.5811 20.8746
      vertex 30.48 60.96 0
      vertex 30.48 54.4761 21.214
    endloop
  endfacet
  facet normal 1 -0 0
    outer loop
      vertex 30.48 52.895 20.9101
      vertex 30.48 53.5811 20.8746
      vertex 30.48 53.0315 20.9413
    endloop
  endfacet
  facet normal 1 0 0
    outer loop
      vertex 30.48 53.5811 20.8746
      vertex 30.48 52.895 20.9101
      vertex 30.48 60.96 0
    endloop
  endfacet
  facet normal 1 0 0
    outer loop
      vertex 30.48 52.6308 20.99
      vertex 30.48 52.895 20.9101
      vertex 30.48 52.8243 20.9665
    endloop
  endfacet
  facet normal 1 0 0
    outer loop
      vertex 30.48 52.895 20.9101
      vertex 30.48 52.6308 20.99
      vertex 30.48 40.1 7.62
    endloop
  endfacet
  facet normal 1 0 0
    outer loop
      vertex 30.48 40.1 7.62
      vertex 30.48 52.6308 20.99
      vertex 30.48 51.843 21.5338
    endloop
  endfacet
  facet normal 1 0 0
    outer loop
      vertex 30.48 51.5381 21.9922
      vertex 30.48 51.843 21.5338
      vertex 30.48 51.6486 21.9041
    endloop
  endfacet
  facet normal 1 0 0
    outer loop
      vertex 30.48 51.843 21.5338
      vertex 30.48 51.5381 21.9922
      vertex 30.48 40.1 7.62
    endloop
  endfacet
  facet normal 1 0 0
    outer loop
      vertex 30.48 40.1 7.62
      vertex 30.48 51.5381 21.9922
      vertex 30.48 51.3981 22.3814
    endloop
  endfacet
  facet normal 1 0 0
    outer loop
      vertex 30.48 52.895 20.9101
      vertex 30.48 40.1 7.62
      vertex 30.48 60.96 0
    endloop
  endfacet
  facet normal 1 -0 0
    outer loop
      vertex 30.48 39.8709 6.69055
      vertex 30.48 60.96 0
      vertex 30.48 40.1 7.62
    endloop
  endfacet
  facet normal 1 0 0
    outer loop
      vertex 30.48 39.347 6.05634
      vertex 30.48 39.8709 6.69055
      vertex 30.48 39.3922 6.15015
    endloop
  endfacet
  facet normal 1 0 0
    outer loop
      vertex 30.48 39.8709 6.69055
      vertex 30.48 39.347 6.05634
      vertex 30.48 60.96 0
    endloop
  endfacet
  facet normal 1 0 0
    outer loop
      vertex 30.48 39.2361 5.97403
      vertex 30.48 39.347 6.05634
      vertex 30.48 39.2994 6.04549
    endloop
  endfacet
  facet normal 1 0 0
    outer loop
      vertex 30.48 39.347 6.05634
      vertex 30.48 39.2361 5.97403
      vertex 30.48 60.96 0
    endloop
  endfacet
  facet normal 1 -0 0
    outer loop
      vertex 30.48 38.3411 5.63458
      vertex 30.48 60.96 0
      vertex 30.48 39.2361 5.97403
    endloop
  endfacet
  facet normal 1 -0 0
    outer loop
      vertex 30.48 37.655 5.67014
      vertex 30.48 38.3411 5.63458
      vertex 30.48 37.7915 5.70131
    endloop
  endfacet
  facet normal 1 0 0
    outer loop
      vertex 30.48 38.3411 5.63458
      vertex 30.48 37.655 5.67014
      vertex 30.48 30.48 0
    endloop
  endfacet
  facet normal 1 0 0
    outer loop
      vertex 30.48 37.3908 5.74997
      vertex 30.48 37.655 5.67014
      vertex 30.48 37.5843 5.72647
    endloop
  endfacet
  facet normal 1 0 0
    outer loop
      vertex 30.48 36.2981 6.75223
      vertex 30.48 36.603 6.29375
      vertex 30.48 36.4086 6.66406
    endloop
  endfacet
  facet normal 1 0 0
    outer loop
      vertex 30.48 38.3411 5.63458
      vertex 30.48 30.48 0
      vertex 30.48 60.96 0
    endloop
  endfacet
  facet normal 1 0 0
    outer loop
      vertex 30.48 37.3908 5.74997
      vertex 30.48 30.48 0
      vertex 30.48 37.655 5.67014
    endloop
  endfacet
  facet normal 1 0 0
    outer loop
      vertex 30.48 36.603 6.29375
      vertex 30.48 30.48 0
      vertex 30.48 37.3908 5.74997
    endloop
  endfacet
  facet normal 1 0 0
    outer loop
      vertex 30.48 36.2981 6.75223
      vertex 30.48 30.48 0
      vertex 30.48 36.603 6.29375
    endloop
  endfacet
  facet normal 1 0 0
    outer loop
      vertex 30.48 36.1581 7.14137
      vertex 30.48 30.48 0
      vertex 30.48 36.2981 6.75223
    endloop
  endfacet
  facet normal 1 0 0
    outer loop
      vertex 30.48 36.1581 8.09863
      vertex 30.48 30.48 0
      vertex 30.48 36.1581 7.14137
    endloop
  endfacet
  facet normal 1 -0 0
    outer loop
      vertex 30.48 36.2981 8.48777
      vertex 30.48 36.2981 8.36528
      vertex 30.48 36.4086 8.57594
    endloop
  endfacet
  facet normal 1 0 0
    outer loop
      vertex 30.48 39.347 9.18366
      vertex 30.48 39.2994 9.19452
      vertex 30.48 39.3922 9.08985
    endloop
  endfacet
  facet normal 1 0 0
    outer loop
      vertex 30.48 37.655 9.56986
      vertex 30.48 37.5843 9.51353
      vertex 30.48 37.7915 9.53869
    endloop
  endfacet
  facet normal 1 0 0
    outer loop
      vertex 30.48 39.3922 6.15015
      vertex 30.48 39.2994 6.04549
      vertex 30.48 39.347 6.05634
    endloop
  endfacet
  facet normal 1 0 0
    outer loop
      vertex 30.48 37.7915 5.70131
      vertex 30.48 37.5843 5.72647
      vertex 30.48 37.655 5.67014
    endloop
  endfacet
  facet normal 1 0 0
    outer loop
      vertex 30.48 36.2981 6.87472
      vertex 30.48 36.2981 6.75223
      vertex 30.48 36.4086 6.66406
    endloop
  endfacet
  facet normal 1 -0 0
    outer loop
      vertex 30.48 51.5381 23.7278
      vertex 30.48 51.5381 23.6053
      vertex 30.48 51.6486 23.8159
    endloop
  endfacet
  facet normal 1 0 0
    outer loop
      vertex 30.48 54.587 24.4237
      vertex 30.48 54.5394 24.4345
      vertex 30.48 54.6322 24.3298
    endloop
  endfacet
  facet normal 1 0 0
    outer loop
      vertex 30.48 52.895 24.8099
      vertex 30.48 52.8243 24.7535
      vertex 30.48 53.0315 24.7787
    endloop
  endfacet
  facet normal 1 0 0
    outer loop
      vertex 30.48 54.6322 21.3902
      vertex 30.48 54.5394 21.2855
      vertex 30.48 54.587 21.2963
    endloop
  endfacet
  facet normal 1 0 0
    outer loop
      vertex 30.48 53.0315 20.9413
      vertex 30.48 52.8243 20.9665
      vertex 30.48 52.895 20.9101
    endloop
  endfacet
  facet normal 1 0 0
    outer loop
      vertex 30.48 51.5381 22.1147
      vertex 30.48 51.5381 21.9922
      vertex 30.48 51.6486 21.9041
    endloop
  endfacet
  facet normal -0.362028 -0.330569 0.871584
    outer loop
      vertex 27.94 38.9039 4.793
      vertex 30.48 38.3411 5.63458
      vertex 30.48 39.2361 5.97403
    endloop
  endfacet
  facet normal -0.362025 -0.330531 0.8716
    outer loop
      vertex 30.48 38.3411 5.63458
      vertex 27.94 38.9039 4.793
      vertex 27.94 38.4635 4.62599
    endloop
  endfacet
  facet normal -0.362028 -0.697771 0.618103
    outer loop
      vertex 27.94 40.7705 6.2184
      vertex 30.48 39.3922 6.15015
      vertex 30.48 39.8709 6.69055
    endloop
  endfacet
  facet normal -0.361881 -0.697517 0.618475
    outer loop
      vertex 27.94 40.7705 6.2184
      vertex 30.48 39.2994 6.04549
      vertex 30.48 39.3922 6.15015
    endloop
  endfacet
  facet normal -0.362039 -0.697748 0.618123
    outer loop
      vertex 27.94 40.4582 5.86587
      vertex 30.48 39.2994 6.04549
      vertex 27.94 40.7705 6.2184
    endloop
  endfacet
  facet normal -0.362047 -0.697771 0.618092
    outer loop
      vertex 30.48 39.2994 6.04549
      vertex 27.94 40.4582 5.86587
      vertex 30.48 39.2361 5.97403
    endloop
  endfacet
  facet normal -0.36202 -0.905081 0.223093
    outer loop
      vertex 27.94 40.8832 6.67568
      vertex 30.48 39.8709 6.69055
      vertex 30.48 40.1 7.62
    endloop
  endfacet
  facet normal -0.362022 -0.905087 0.223065
    outer loop
      vertex 30.48 39.8709 6.69055
      vertex 27.94 40.8832 6.67568
      vertex 27.94 40.7705 6.2184
    endloop
  endfacet
  facet normal -0.362022 -0.905087 -0.223065
    outer loop
      vertex 27.94 40.8832 8.56432
      vertex 30.48 39.8709 8.54945
      vertex 27.94 40.7705 9.0216
    endloop
  endfacet
  facet normal -0.36202 -0.905081 -0.223093
    outer loop
      vertex 30.48 39.8709 8.54945
      vertex 27.94 40.8832 8.56432
      vertex 30.48 40.1 7.62
    endloop
  endfacet
  facet normal -0.362028 -0.905069 -0.223128
    outer loop
      vertex 27.94 56.356 22.86
      vertex 30.48 55.34 22.86
      vertex 27.94 56.1232 23.8043
    endloop
  endfacet
  facet normal -0.362038 0.11234 0.925369
    outer loop
      vertex 30.48 53.5811 20.8746
      vertex 27.94 53.7035 19.866
      vertex 27.94 52.7381 19.9832
    endloop
  endfacet
  facet normal -0.362028 -0.905069 0.223128
    outer loop
      vertex 30.48 55.34 22.86
      vertex 27.94 56.356 22.86
      vertex 27.94 56.1232 21.9157
    endloop
  endfacet
  facet normal -0.362045 0.112382 -0.925361
    outer loop
      vertex 27.94 52.7381 25.7368
      vertex 30.48 52.8243 24.7535
      vertex 30.48 52.6308 24.73
    endloop
  endfacet
  facet normal -0.362043 0.112542 -0.925343
    outer loop
      vertex 30.48 52.8243 24.7535
      vertex 27.94 52.7381 25.7368
      vertex 30.48 53.0315 24.7787
    endloop
  endfacet
  facet normal -0.362044 0.112405 -0.925359
    outer loop
      vertex 27.94 52.7381 25.7368
      vertex 30.48 52.6308 24.73
      vertex 27.94 52.2705 25.68
    endloop
  endfacet
  facet normal -0.362029 0.112305 -0.925377
    outer loop
      vertex 30.48 53.0315 24.7787
      vertex 27.94 52.7381 25.7368
      vertex 30.48 53.5811 24.8454
    endloop
  endfacet
  facet normal -0.36203 -0.330513 -0.871605
    outer loop
      vertex 27.94 54.1439 25.687
      vertex 30.48 53.5811 24.8454
      vertex 27.94 53.7035 25.854
    endloop
  endfacet
  facet normal -0.362031 -0.330526 -0.8716
    outer loop
      vertex 30.48 53.5811 24.8454
      vertex 27.94 54.1439 25.687
      vertex 30.48 54.4761 24.506
    endloop
  endfacet
  facet normal -0.362029 -0.697762 -0.618113
    outer loop
      vertex 27.94 55.6982 24.6141
      vertex 30.48 54.4761 24.506
      vertex 27.94 55.0533 25.3421
    endloop
  endfacet
  facet normal -0.36204 0.529544 -0.767144
    outer loop
      vertex 27.94 52.2705 25.68
      vertex 30.48 52.6308 24.73
      vertex 27.94 51.4701 25.1275
    endloop
  endfacet
  facet normal -0.362022 -0.33056 0.87159
    outer loop
      vertex 30.48 54.4761 21.214
      vertex 27.94 55.0533 20.3779
      vertex 27.94 54.1439 20.033
    endloop
  endfacet
  facet normal -0.362041 0.825357 0.433258
    outer loop
      vertex 30.48 51.5381 22.1147
      vertex 27.94 50.4116 22.1382
      vertex 30.48 51.3981 22.3814
    endloop
  endfacet
  facet normal -0.362074 0.825428 0.433095
    outer loop
      vertex 30.48 51.6486 21.9041
      vertex 27.94 50.4116 22.1382
      vertex 30.48 51.5381 22.1147
    endloop
  endfacet
  facet normal -0.362017 0.825349 0.433292
    outer loop
      vertex 30.48 51.843 21.5338
      vertex 27.94 50.4116 22.1382
      vertex 30.48 51.6486 21.9041
    endloop
  endfacet
  facet normal -0.362048 0.825373 0.433221
    outer loop
      vertex 27.94 50.4116 22.1382
      vertex 30.48 51.843 21.5338
      vertex 27.94 51.0825 20.86
    endloop
  endfacet
  facet normal -0.362038 0.11234 -0.925369
    outer loop
      vertex 27.94 53.7035 25.854
      vertex 30.48 53.5811 24.8454
      vertex 27.94 52.7381 25.7368
    endloop
  endfacet
  facet normal -0.36204 0.529543 0.767145
    outer loop
      vertex 27.94 51.4701 20.5925
      vertex 30.48 51.843 21.5338
      vertex 30.48 52.6308 20.99
    endloop
  endfacet
  facet normal -0.362046 0.529472 0.767191
    outer loop
      vertex 30.48 51.843 21.5338
      vertex 27.94 51.4701 20.5925
      vertex 27.94 51.0825 20.86
    endloop
  endfacet
  facet normal -0.362046 0.529472 -0.767191
    outer loop
      vertex 27.94 51.4701 25.1275
      vertex 30.48 51.843 24.1862
      vertex 27.94 51.0825 24.86
    endloop
  endfacet
  facet normal -0.36204 0.529543 -0.767145
    outer loop
      vertex 30.48 51.843 24.1862
      vertex 27.94 51.4701 25.1275
      vertex 30.48 52.6308 24.73
    endloop
  endfacet
  facet normal -0.36204 0.529544 0.767144
    outer loop
      vertex 30.48 52.6308 20.99
      vertex 27.94 52.2705 20.04
      vertex 27.94 51.4701 20.5925
    endloop
  endfacet
  facet normal -0.362029 -0.697762 0.618113
    outer loop
      vertex 30.48 54.4761 21.214
      vertex 27.94 55.6982 21.1059
      vertex 27.94 55.0533 20.3779
    endloop
  endfacet
  facet normal -0.362099 -0.697927 -0.617885
    outer loop
      vertex 27.94 55.6982 24.6141
      vertex 30.48 54.5394 24.4345
      vertex 30.48 54.4761 24.506
    endloop
  endfacet
  facet normal -0.362026 -0.697726 -0.618155
    outer loop
      vertex 27.94 56.0105 24.2616
      vertex 30.48 54.5394 24.4345
      vertex 27.94 55.6982 24.6141
    endloop
  endfacet
  facet normal -0.36195 -0.697615 -0.618325
    outer loop
      vertex 30.48 54.5394 24.4345
      vertex 27.94 56.0105 24.2616
      vertex 30.48 54.6322 24.3298
    endloop
  endfacet
  facet normal -0.362039 -0.697768 -0.6181
    outer loop
      vertex 30.48 54.6322 24.3298
      vertex 27.94 56.0105 24.2616
      vertex 30.48 55.1109 23.7894
    endloop
  endfacet
  facet normal -0.362022 -0.33056 -0.87159
    outer loop
      vertex 27.94 55.0533 25.3421
      vertex 30.48 54.4761 24.506
      vertex 27.94 54.1439 25.687
    endloop
  endfacet
  facet normal -0.362017 0.825349 -0.433292
    outer loop
      vertex 27.94 50.4116 23.5818
      vertex 30.48 51.843 24.1862
      vertex 30.48 51.6486 23.8159
    endloop
  endfacet
  facet normal -0.362074 0.825428 -0.433095
    outer loop
      vertex 27.94 50.4116 23.5818
      vertex 30.48 51.6486 23.8159
      vertex 30.48 51.5381 23.6053
    endloop
  endfacet
  facet normal -0.362048 0.825373 -0.433221
    outer loop
      vertex 30.48 51.843 24.1862
      vertex 27.94 50.4116 23.5818
      vertex 27.94 51.0825 24.86
    endloop
  endfacet
  facet normal -0.362041 0.825357 -0.433258
    outer loop
      vertex 27.94 50.4116 23.5818
      vertex 30.48 51.5381 23.6053
      vertex 30.48 51.3981 23.3386
    endloop
  endfacet
  facet normal -0.362039 0.932163 0
    outer loop
      vertex 30.48 51.3981 22.3814
      vertex 27.94 50.4116 23.5818
      vertex 30.48 51.3981 23.3386
    endloop
  endfacet
  facet normal -0.362039 0.932163 0
    outer loop
      vertex 27.94 50.4116 23.5818
      vertex 30.48 51.3981 22.3814
      vertex 27.94 50.4116 22.1382
    endloop
  endfacet
  facet normal -0.362029 0.112305 0.925377
    outer loop
      vertex 27.94 52.7381 19.9832
      vertex 30.48 53.0315 20.9413
      vertex 30.48 53.5811 20.8746
    endloop
  endfacet
  facet normal -0.362043 0.112542 0.925343
    outer loop
      vertex 30.48 53.0315 20.9413
      vertex 27.94 52.7381 19.9832
      vertex 30.48 52.8243 20.9665
    endloop
  endfacet
  facet normal -0.362045 0.112382 0.925361
    outer loop
      vertex 30.48 52.8243 20.9665
      vertex 27.94 52.7381 19.9832
      vertex 30.48 52.6308 20.99
    endloop
  endfacet
  facet normal -0.362044 0.112405 0.925359
    outer loop
      vertex 30.48 52.6308 20.99
      vertex 27.94 52.7381 19.9832
      vertex 27.94 52.2705 20.04
    endloop
  endfacet
  facet normal -0.362031 -0.330526 0.8716
    outer loop
      vertex 27.94 54.1439 20.033
      vertex 30.48 53.5811 20.8746
      vertex 30.48 54.4761 21.214
    endloop
  endfacet
  facet normal -0.36203 -0.330513 0.871605
    outer loop
      vertex 30.48 53.5811 20.8746
      vertex 27.94 54.1439 20.033
      vertex 27.94 53.7035 19.866
    endloop
  endfacet
  facet normal -0.362039 -0.697768 0.6181
    outer loop
      vertex 27.94 56.0105 21.4584
      vertex 30.48 54.6322 21.3902
      vertex 30.48 55.1109 21.9306
    endloop
  endfacet
  facet normal -0.36195 -0.697615 0.618325
    outer loop
      vertex 27.94 56.0105 21.4584
      vertex 30.48 54.5394 21.2855
      vertex 30.48 54.6322 21.3902
    endloop
  endfacet
  facet normal -0.362026 -0.697726 0.618155
    outer loop
      vertex 27.94 55.6982 21.1059
      vertex 30.48 54.5394 21.2855
      vertex 27.94 56.0105 21.4584
    endloop
  endfacet
  facet normal -0.362099 -0.697927 0.617885
    outer loop
      vertex 30.48 54.5394 21.2855
      vertex 27.94 55.6982 21.1059
      vertex 30.48 54.4761 21.214
    endloop
  endfacet
  facet normal -0.362021 -0.905077 0.223104
    outer loop
      vertex 27.94 56.1232 21.9157
      vertex 30.48 55.1109 21.9306
      vertex 30.48 55.34 22.86
    endloop
  endfacet
  facet normal -0.362025 -0.905088 0.223056
    outer loop
      vertex 30.48 55.1109 21.9306
      vertex 27.94 56.1232 21.9157
      vertex 27.94 56.0105 21.4584
    endloop
  endfacet
  facet normal -0.362025 -0.905088 -0.223056
    outer loop
      vertex 27.94 56.1232 23.8043
      vertex 30.48 55.1109 23.7894
      vertex 27.94 56.0105 24.2616
    endloop
  endfacet
  facet normal -0.362021 -0.905077 -0.223104
    outer loop
      vertex 30.48 55.1109 23.7894
      vertex 27.94 56.1232 23.8043
      vertex 30.48 55.34 22.86
    endloop
  endfacet
  facet normal 0 1 -0
    outer loop
      vertex 30.48 60.96 0
      vertex 27.94 60.96 30.48
      vertex 30.48 60.96 30.48
    endloop
  endfacet
  facet normal 0 1 0
    outer loop
      vertex 27.94 60.96 30.48
      vertex 30.48 60.96 0
      vertex 27.94 60.96 0
    endloop
  endfacet
  facet normal -0 0 1
    outer loop
      vertex 27.94 60.96 30.48
      vertex 30.48 30.48 30.48
      vertex 30.48 60.96 30.48
    endloop
  endfacet
  facet normal 0 0 1
    outer loop
      vertex 30.48 30.48 30.48
      vertex 27.94 60.96 30.48
      vertex 27.94 30.48 30.48
    endloop
  endfacet
  facet normal 0 0 -1
    outer loop
      vertex 27.94 30.48 0
      vertex 30.48 60.96 0
      vertex 30.48 30.48 0
    endloop
  endfacet
  facet normal -0 0 -1
    outer loop
      vertex 30.48 60.96 0
      vertex 27.94 30.48 0
      vertex 27.94 60.96 0
    endloop
  endfacet
  facet normal 0 -1 0
    outer loop
      vertex 27.94 30.48 0
      vertex 30.48 30.48 30.48
      vertex 27.94 30.48 30.48
    endloop
  endfacet
  facet normal 0 -1 -0
    outer loop
      vertex 30.48 30.48 30.48
      vertex 27.94 30.48 0
      vertex 30.48 30.48 0
    endloop
  endfacet
  facet normal -1 0 0
    outer loop
      vertex 27.94 56.0105 21.4584
      vertex 27.94 60.96 30.48
      vertex 27.94 60.96 0
    endloop
  endfacet
  facet normal -1 0 0
    outer loop
      vertex 27.94 60.96 30.48
      vertex 27.94 56.1232 21.9157
      vertex 27.94 56.356 22.86
    endloop
  endfacet
  facet normal -1 0 0
    outer loop
      vertex 27.94 60.96 30.48
      vertex 27.94 56.0105 21.4584
      vertex 27.94 56.1232 21.9157
    endloop
  endfacet
  facet normal -1 0 0
    outer loop
      vertex 27.94 60.96 0
      vertex 27.94 55.6982 21.1059
      vertex 27.94 56.0105 21.4584
    endloop
  endfacet
  facet normal -1 0 0
    outer loop
      vertex 27.94 60.96 0
      vertex 27.94 55.0533 20.3779
      vertex 27.94 55.6982 21.1059
    endloop
  endfacet
  facet normal -1 0 0
    outer loop
      vertex 27.94 60.96 0
      vertex 27.94 54.1439 20.033
      vertex 27.94 55.0533 20.3779
    endloop
  endfacet
  facet normal -1 0 0
    outer loop
      vertex 27.94 60.96 0
      vertex 27.94 53.7035 19.866
      vertex 27.94 54.1439 20.033
    endloop
  endfacet
  facet normal -1 0 0
    outer loop
      vertex 27.94 41.116 7.62
      vertex 27.94 53.7035 19.866
      vertex 27.94 60.96 0
    endloop
  endfacet
  facet normal -1 -0 0
    outer loop
      vertex 27.94 53.7035 19.866
      vertex 27.94 41.116 7.62
      vertex 27.94 52.7381 19.9832
    endloop
  endfacet
  facet normal -1 -0 0
    outer loop
      vertex 27.94 52.7381 19.9832
      vertex 27.94 41.116 7.62
      vertex 27.94 52.2705 20.04
    endloop
  endfacet
  facet normal -1 0 0
    outer loop
      vertex 27.94 40.8832 8.56432
      vertex 27.94 52.2705 20.04
      vertex 27.94 41.116 7.62
    endloop
  endfacet
  facet normal -1 0 0
    outer loop
      vertex 27.94 40.7705 9.0216
      vertex 27.94 52.2705 20.04
      vertex 27.94 40.8832 8.56432
    endloop
  endfacet
  facet normal -1 -0 0
    outer loop
      vertex 27.94 51.4701 20.5925
      vertex 27.94 40.7705 9.0216
      vertex 27.94 51.0825 20.86
    endloop
  endfacet
  facet normal -1 -0 0
    outer loop
      vertex 27.94 52.2705 20.04
      vertex 27.94 40.7705 9.0216
      vertex 27.94 51.4701 20.5925
    endloop
  endfacet
  facet normal -1 0 0
    outer loop
      vertex 27.94 60.96 0
      vertex 27.94 40.8832 6.67568
      vertex 27.94 41.116 7.62
    endloop
  endfacet
  facet normal -1 0 0
    outer loop
      vertex 27.94 60.96 0
      vertex 27.94 40.7705 6.2184
      vertex 27.94 40.8832 6.67568
    endloop
  endfacet
  facet normal -1 0 0
    outer loop
      vertex 27.94 60.96 0
      vertex 27.94 40.4582 5.86587
      vertex 27.94 40.7705 6.2184
    endloop
  endfacet
  facet normal -1 0 0
    outer loop
      vertex 27.94 60.96 0
      vertex 27.94 39.8133 5.13788
      vertex 27.94 40.4582 5.86587
    endloop
  endfacet
  facet normal -1 0 0
    outer loop
      vertex 27.94 60.96 0
      vertex 27.94 38.9039 4.793
      vertex 27.94 39.8133 5.13788
    endloop
  endfacet
  facet normal -1 0 0
    outer loop
      vertex 27.94 60.96 0
      vertex 27.94 38.4635 4.62599
      vertex 27.94 38.9039 4.793
    endloop
  endfacet
  facet normal -1 0 0
    outer loop
      vertex 27.94 30.48 0
      vertex 27.94 38.4635 4.62599
      vertex 27.94 60.96 0
    endloop
  endfacet
  facet normal -1 -0 0
    outer loop
      vertex 27.94 38.4635 4.62599
      vertex 27.94 30.48 0
      vertex 27.94 37.4981 4.74322
    endloop
  endfacet
  facet normal -1 -0 0
    outer loop
      vertex 27.94 35.1716 6.89822
      vertex 27.94 30.48 0
      vertex 27.94 35.1716 8.34178
    endloop
  endfacet
  facet normal -1 -0 0
    outer loop
      vertex 27.94 35.8425 5.62002
      vertex 27.94 30.48 0
      vertex 27.94 35.1716 6.89822
    endloop
  endfacet
  facet normal -1 -0 0
    outer loop
      vertex 27.94 36.2301 5.35248
      vertex 27.94 30.48 0
      vertex 27.94 35.8425 5.62002
    endloop
  endfacet
  facet normal -1 -0 0
    outer loop
      vertex 27.94 37.0305 4.79999
      vertex 27.94 30.48 0
      vertex 27.94 36.2301 5.35248
    endloop
  endfacet
  facet normal -1 -0 0
    outer loop
      vertex 27.94 37.4981 4.74322
      vertex 27.94 30.48 0
      vertex 27.94 37.0305 4.79999
    endloop
  endfacet
  facet normal -1 0 0
    outer loop
      vertex 27.94 56.1232 23.8043
      vertex 27.94 60.96 30.48
      vertex 27.94 56.356 22.86
    endloop
  endfacet
  facet normal -1 0 0
    outer loop
      vertex 27.94 56.0105 24.2616
      vertex 27.94 60.96 30.48
      vertex 27.94 56.1232 23.8043
    endloop
  endfacet
  facet normal -1 0 0
    outer loop
      vertex 27.94 55.6982 24.6141
      vertex 27.94 60.96 30.48
      vertex 27.94 56.0105 24.2616
    endloop
  endfacet
  facet normal -1 0 0
    outer loop
      vertex 27.94 55.0533 25.3421
      vertex 27.94 60.96 30.48
      vertex 27.94 55.6982 24.6141
    endloop
  endfacet
  facet normal -1 0 0
    outer loop
      vertex 27.94 54.1439 25.687
      vertex 27.94 60.96 30.48
      vertex 27.94 55.0533 25.3421
    endloop
  endfacet
  facet normal -1 0 0
    outer loop
      vertex 27.94 53.7035 25.854
      vertex 27.94 60.96 30.48
      vertex 27.94 54.1439 25.687
    endloop
  endfacet
  facet normal -1 0 0
    outer loop
      vertex 27.94 52.7381 25.7368
      vertex 27.94 60.96 30.48
      vertex 27.94 53.7035 25.854
    endloop
  endfacet
  facet normal -1 0 0
    outer loop
      vertex 27.94 52.2705 25.68
      vertex 27.94 60.96 30.48
      vertex 27.94 52.7381 25.7368
    endloop
  endfacet
  facet normal -1 0 0
    outer loop
      vertex 27.94 40.4582 9.37413
      vertex 27.94 51.0825 20.86
      vertex 27.94 40.7705 9.0216
    endloop
  endfacet
  facet normal -1 0 0
    outer loop
      vertex 27.94 39.8133 10.1021
      vertex 27.94 51.0825 20.86
      vertex 27.94 40.4582 9.37413
    endloop
  endfacet
  facet normal -1 -0 0
    outer loop
      vertex 27.94 51.0825 20.86
      vertex 27.94 39.8133 10.1021
      vertex 27.94 50.4116 22.1382
    endloop
  endfacet
  facet normal -1 0 0
    outer loop
      vertex 27.94 38.9039 10.447
      vertex 27.94 50.4116 22.1382
      vertex 27.94 39.8133 10.1021
    endloop
  endfacet
  facet normal -1 0 0
    outer loop
      vertex 27.94 38.4635 10.614
      vertex 27.94 50.4116 22.1382
      vertex 27.94 38.9039 10.447
    endloop
  endfacet
  facet normal -1 0 0
    outer loop
      vertex 27.94 30.48 30.48
      vertex 27.94 50.4116 22.1382
      vertex 27.94 38.4635 10.614
    endloop
  endfacet
  facet normal -1 0 0
    outer loop
      vertex 27.94 50.4116 22.1382
      vertex 27.94 30.48 30.48
      vertex 27.94 50.4116 23.5818
    endloop
  endfacet
  facet normal -1 0 0
    outer loop
      vertex 27.94 30.48 30.48
      vertex 27.94 38.4635 10.614
      vertex 27.94 37.4981 10.4968
    endloop
  endfacet
  facet normal -1 0 0
    outer loop
      vertex 27.94 30.48 30.48
      vertex 27.94 37.4981 10.4968
      vertex 27.94 37.0305 10.44
    endloop
  endfacet
  facet normal -1 0 0
    outer loop
      vertex 27.94 30.48 30.48
      vertex 27.94 37.0305 10.44
      vertex 27.94 36.2301 9.88752
    endloop
  endfacet
  facet normal -1 0 0
    outer loop
      vertex 27.94 30.48 30.48
      vertex 27.94 36.2301 9.88752
      vertex 27.94 35.8425 9.61998
    endloop
  endfacet
  facet normal -1 0 0
    outer loop
      vertex 27.94 30.48 30.48
      vertex 27.94 35.1716 8.34178
      vertex 27.94 30.48 0
    endloop
  endfacet
  facet normal -1 0 0
    outer loop
      vertex 27.94 52.2705 25.68
      vertex 27.94 30.48 30.48
      vertex 27.94 60.96 30.48
    endloop
  endfacet
  facet normal -1 0 0
    outer loop
      vertex 27.94 51.4701 25.1275
      vertex 27.94 30.48 30.48
      vertex 27.94 52.2705 25.68
    endloop
  endfacet
  facet normal -1 0 0
    outer loop
      vertex 27.94 51.0825 24.86
      vertex 27.94 30.48 30.48
      vertex 27.94 51.4701 25.1275
    endloop
  endfacet
  facet normal -1 0 0
    outer loop
      vertex 27.94 50.4116 23.5818
      vertex 27.94 30.48 30.48
      vertex 27.94 51.0825 24.86
    endloop
  endfacet
  facet normal -1 0 0
    outer loop
      vertex 27.94 35.1716 8.34178
      vertex 27.94 30.48 30.48
      vertex 27.94 35.8425 9.61998
    endloop
  endfacet
  facet normal -0 0 1
    outer loop
      vertex 2.54 27.94 7.62
      vertex 27.94 2.54 7.62
      vertex 27.94 27.94 7.62
    endloop
  endfacet
  facet normal 0 0 1
    outer loop
      vertex 27.94 2.54 7.62
      vertex 2.54 27.94 7.62
      vertex 2.54 2.54 7.62
    endloop
  endfacet
endsolid OpenSCAD_Model
