<?xml version="1.0" encoding="UTF-8" standalone="no"?>
<!-- Created with Inkscape (http://www.inkscape.org/) -->

<svg
   width="210mm"
   height="297mm"
   viewBox="0 0 210 297"
   version="1.1"
   id="svg1"
   xml:space="preserve"
   inkscape:version="1.4.1 (93de688d07, 2025-03-30)"
   sodipodi:docname="ecg.svg"
   xmlns:inkscape="http://www.inkscape.org/namespaces/inkscape"
   xmlns:sodipodi="http://sodipodi.sourceforge.net/DTD/sodipodi-0.dtd"
   xmlns="http://www.w3.org/2000/svg"
   xmlns:svg="http://www.w3.org/2000/svg"><sodipodi:namedview
     id="namedview1"
     pagecolor="#ffffff"
     bordercolor="#000000"
     borderopacity="0.25"
     inkscape:showpageshadow="2"
     inkscape:pageopacity="0.0"
     inkscape:pagecheckerboard="0"
     inkscape:deskcolor="#d1d1d1"
     inkscape:document-units="mm"
     inkscape:zoom="0.50844341"
     inkscape:cx="1212.5243"
     inkscape:cy="553.6506"
     inkscape:window-width="1920"
     inkscape:window-height="1080"
     inkscape:window-x="0"
     inkscape:window-y="0"
     inkscape:window-maximized="1"
     inkscape:current-layer="layer1" /><defs
     id="defs1" /><g
     inkscape:label="Layer 1"
     inkscape:groupmode="layer"
     id="layer1"><path
       style="baseline-shift:baseline;display:inline;overflow:visible;vector-effect:none;fill:#ff0000;enable-background:accumulate;stop-color:#000000;stop-opacity:1;opacity:1"
       d="M 87.435547,-0.10742187 77.183594,149.36914 c -1.928333,-1.1891 -4.151814,-2.03079 -6.421875,-2.07812 -6.533174,-0.1362 -9.615661,-0.2052 -10.328125,-0.28321 -0.134121,-0.16903 -0.04879,-0.0688 -0.429688,-0.58203 -0.135644,-0.18276 -2.093715,-4.69072 -4.847656,-8.8418 -2.753941,-4.15108 -8.067587,-9.0493 -15.257813,-8.41992 -3.131208,0.27408 -5.965646,1.76345 -7.929687,3.54297 -1.964041,1.77952 -3.268646,3.75539 -4.435547,5.66211 -2.333801,3.81344 -4.182908,7.49529 -6.683594,10.125 0.507043,-0.5332 -0.681779,0.37641 -2.707031,0.80078 -2.025252,0.42437 -4.744541,0.6849 -7.376953,0.79102 -5.2648242,0.21223 -10.09375,-0.13086 -10.09375,-0.13086 l -0.86914062,11.96875 c 0,0 5.37145532,0.39726 11.44726562,0.15234 3.037905,-0.12246 6.273298,-0.38931 9.355469,-1.03515 3.082171,-0.64584 6.153251,-1.34739 8.939453,-4.27735 4.134353,-4.34767 6.36762,-9.09972 8.222656,-12.13086 0.927518,-1.51556 1.744414,-2.56627 2.259766,-3.0332 0.515352,-0.46694 0.518506,-0.44567 0.916015,-0.48047 1.81057,-0.15848 2.517605,0.53937 4.214844,3.09766 1.697239,2.55828 2.622054,5.87385 5.208984,9.35937 0.635974,0.85688 1.192536,1.77658 2.486329,2.91992 1.293792,1.14335 3.297124,2.00907 4.904296,2.30274 3.214346,0.58733 6.0651,0.35084 12.751954,0.49023 0.714981,0.0149 0.307649,-0.0302 0.308593,-0.0293 9.44e-4,8.6e-4 0.428923,0.5083 0.919922,1.81445 0.981999,2.6123 1.997711,7.7848 4.1875,13.93555 l 11.638672,-1.60157 4.171875,-60.84765 3.285156,85.35547 11.994146,-0.16016 c 0,0 0.0886,-7.23885 1.2246,-15.91016 1.10551,-8.43867 3.62785,-18.12493 6.5254,-22.41797 0.0852,-0.0381 0.0694,-0.0467 0.28515,-0.10351 0.81927,-0.21561 2.38449,-0.41568 4.34375,-0.46289 3.91852,-0.0944 9.40506,0.3414 15.25781,0.85156 11.70552,1.02032 24.39961,3.02027 34.29297,-1.12891 7.83469,-3.28577 12.47664,-10.38785 17.9961,-16.07226 5.35063,-5.51054 10.42923,-9.26629 15.65234,-9.41992 0.0114,0.15124 0.9471,0.64175 2.19531,2.30078 1.76738,2.34906 3.90029,6.02187 6.1875,9.87304 2.28722,3.85118 4.73104,7.89864 7.72852,11.36329 2.99748,3.46464 6.86064,6.81981 12.30078,7.09961 7.02961,0.36155 24.00056,-0.22754 41.10742,-0.89258 17.10687,-0.66505 33.97226,-1.45141 38.57813,-1.60938 5.28829,-0.18137 9.83147,-2.3445 12.54296,-5.43164 2.7115,-3.08714 3.72862,-6.41911 4.58594,-8.95312 0.85733,-2.53401 1.6029,-4.28445 2.10352,-4.88868 0.50062,-0.60422 0.42345,-0.86953 2.84375,-0.85351 2.74754,0.0182 2.2687,0.16474 2.65625,0.70117 0.38754,0.53643 1.05811,2.59278 2.28125,5.56641 1.22314,2.97362 3.54961,6.93399 7.89258,9.43164 3.84951,2.21386 8.8523,3.19164 15.3789,3.1289 0.77206,1.31443 1.792,3.52147 2.70117,5.77149 1.82833,4.52469 3.29493,9.19922 3.29493,9.19922 l 11.71093,-1.36914 4.32032,-61.44922 3.35742,87.41797 11.99414,-0.19727 c 0,0 0.0845,-11.36847 1.77148,-22.49219 0.84351,-5.56185 2.14676,-11.05104 3.69922,-14.55859 0.77623,-1.75378 1.62008,-2.96394 2.13086,-3.46484 0.51078,-0.50091 0.37627,-0.334 0.375,-0.33399 17.9874,-0.17012 32.10224,2.50939 47.12891,1.95508 5.29453,-0.19532 8.41551,-2.94188 12.11914,-5.88281 3.70363,-2.94093 7.52708,-6.57832 11.22851,-10.12696 3.70144,-3.54863 7.28313,-7.01139 10.13868,-9.40625 1.42777,-1.19742 2.68553,-2.12403 3.5,-2.61132 0.22818,-0.13653 0.2942,-0.13597 0.43359,-0.18555 1.0087,0.14488 2.19489,0.74744 3.95508,2.72656 1.97702,2.22293 4.1386,5.74121 6.30078,9.50195 2.16218,3.76075 4.32261,7.7461 7.02539,11.21485 2.70278,3.46875 6.41588,7.0594 11.89453,7.22851 8.47338,0.26155 59.59766,-0.0332 59.59766,-0.0332 l -0.0625,-12 c 0,0 -52.69132,0.23892 -59.16602,0.0391 0.0401,0.001 -1.00633,-0.31083 -2.79883,-2.61132 -1.7925,-2.3005 -3.86396,-5.95023 -6.08789,-9.81836 -2.22392,-3.86814 -4.60228,-7.97224 -7.73633,-11.4961 -3.13404,-3.52386 -7.51143,-6.77777 -13.10351,-6.88086 -2.93108,-0.054 -4.69224,0.98859 -6.41211,2.01758 -1.71987,1.02899 -3.3473,2.28423 -5.05078,3.71289 -3.40697,2.85732 -7.06783,6.42615 -10.73242,9.93945 -3.66459,3.51331 -7.33106,6.96774 -10.38477,9.39258 -3.05371,2.42485 -5.9577,3.31877 -5.09961,3.28711 -13.22917,0.48801 -27.61276,-2.14241 -46.80078,-1.96094 -3.41604,0.0323 -6.54615,1.68671 -8.66406,3.76368 -0.40249,0.39471 -0.67437,0.86233 -1.0293,1.2832 L 390.75586,1.2910156 378.77539,1.0996094 368.30664,150.04883 c -1.0779,-1.03813 -2.60953,-2.25932 -5.42969,-2.11914 -6.492,0.32258 -9.76426,-0.6518 -11.29687,-1.53321 -1.53261,-0.8814 -1.99715,-1.69699 -2.77735,-3.59375 -0.78019,-1.89675 -1.32223,-4.80401 -3.65234,-8.02929 -2.33011,-3.22529 -7.03175,-5.637 -12.30273,-5.67188 -5.04675,-0.0334 -9.61727,2.12148 -12.16407,5.19531 -2.54679,3.07384 -3.40259,6.25803 -4.22851,8.69922 -0.82592,2.4412 -1.57329,4.12596 -2.23633,4.88086 -0.66304,0.7549 -1.10452,1.26026 -3.9375,1.35742 -4.95445,0.16993 -21.58763,0.94869 -38.63281,1.61133 -17.04518,0.66265 -34.8803,1.16307 -40.02539,0.89844 -0.35348,-0.0182 -1.82499,-0.63566 -3.8418,-2.9668 -2.01681,-2.33113 -4.26596,-5.90201 -6.48633,-9.64062 -2.22036,-3.73861 -4.40992,-7.62612 -6.91601,-10.95703 -2.5061,-3.33091 -5.48873,-7.07954 -11.10743,-7.16602 -10.85133,-0.16692 -18.7966,6.81224 -24.93945,13.13867 -6.14285,6.32643 -11.65414,12.36994 -14.02734,13.36524 -3.93908,1.652 -16.85151,1.26512 -28.60938,0.24023 -5.87893,-0.51244 -11.58975,-1.01503 -16.58984,-0.89453 -2.50005,0.0602 -4.82521,0.25629 -7.10938,0.85742 -2.28416,0.60114 -4.81319,1.63237 -6.67968,4.18164 -0.0215,0.0294 -0.0333,0.0662 -0.0547,0.0957 L 99.416016,0.07226562 Z"
       id="path1" /></g></svg>
