solid OpenSCAD_Model
  facet normal -0.357466 -0.862807 0.357466
    outer loop
      vertex -20 -47.4558 20
      vertex -20 -47.6985 19.4142
      vertex -19.4142 -47.6985 20
    endloop
  endfacet
  facet normal 0.678586 -0.678586 0.281142
    outer loop
      vertex 20 -47.4558 20
      vertex 47.6985 -20 19.4142
      vertex 47.4558 -20 20
    endloop
  endfacet
  facet normal 0.678586 -0.678586 0.281142
    outer loop
      vertex 47.6985 -20 19.4142
      vertex 20 -47.4558 20
      vertex 20 -47.6985 19.4142
    endloop
  endfacet
  facet normal -0.678586 0.678586 -0.281142
    outer loop
      vertex -47.6985 20 -19.4142
      vertex -20 47.4558 -20
      vertex -47.4558 20 -20
    endloop
  endfacet
  facet normal -0.678586 0.678586 -0.281142
    outer loop
      vertex -20 47.4558 -20
      vertex -47.6985 20 -19.4142
      vertex -20 47.6985 -19.4142
    endloop
  endfacet
  facet normal -0.678586 -0.678586 0.281142
    outer loop
      vertex -47.6985 -20 19.4142
      vertex -20 -47.4558 20
      vertex -47.4558 -20 20
    endloop
  endfacet
  facet normal -0.678586 -0.678586 0.281142
    outer loop
      vertex -20 -47.4558 20
      vertex -47.6985 -20 19.4142
      vertex -20 -47.6985 19.4142
    endloop
  endfacet
  facet normal 0.678586 -0.281142 -0.678586
    outer loop
      vertex 20 -20 -47.4558
      vertex 47.6985 -19.4142 -20
      vertex 47.4558 -20 -20
    endloop
  endfacet
  facet normal 0.678586 -0.281142 -0.678586
    outer loop
      vertex 47.6985 -19.4142 -20
      vertex 20 -20 -47.4558
      vertex 20 -19.4142 -47.6985
    endloop
  endfacet
  facet normal 0.57735 -0.57735 -0.57735
    outer loop
      vertex 47.4558 -20 -20
      vertex 20 -47.4558 -20
      vertex 20 -20 -47.4558
    endloop
  endfacet
  facet normal 0 0 -1
    outer loop
      vertex 1.24698 -1.56366 -47.6985
      vertex 20 -19.4142 -47.6985
      vertex 19.4142 -20 -47.6985
    endloop
  endfacet
  facet normal 0 0 -1
    outer loop
      vertex 20 -19.4142 -47.6985
      vertex 2 0 -47.6985
      vertex 20 19.4142 -47.6985
    endloop
  endfacet
  facet normal 0 0 -1
    outer loop
      vertex 1.24698 1.56366 -47.6985
      vertex 20 19.4142 -47.6985
      vertex 2 0 -47.6985
    endloop
  endfacet
  facet normal 0 0 -1
    outer loop
      vertex 20 -19.4142 -47.6985
      vertex 1.24698 -1.56366 -47.6985
      vertex 2 0 -47.6985
    endloop
  endfacet
  facet normal 0 0 -1
    outer loop
      vertex 19.4142 -20 -47.6985
      vertex -0.445042 -1.94986 -47.6985
      vertex 1.24698 -1.56366 -47.6985
    endloop
  endfacet
  facet normal 0 0 -1
    outer loop
      vertex -19.4142 -20 -47.6985
      vertex -0.445042 -1.94986 -47.6985
      vertex 19.4142 -20 -47.6985
    endloop
  endfacet
  facet normal 0 0 -1
    outer loop
      vertex -20 -19.4142 -47.6985
      vertex -1.80194 -0.867767 -47.6985
      vertex -19.4142 -20 -47.6985
    endloop
  endfacet
  facet normal -0 0 -1
    outer loop
      vertex -0.445042 -1.94986 -47.6985
      vertex -19.4142 -20 -47.6985
      vertex -1.80194 -0.867767 -47.6985
    endloop
  endfacet
  facet normal -0 0 -1
    outer loop
      vertex 20 19.4142 -47.6985
      vertex 1.24698 1.56366 -47.6985
      vertex 19.4142 20 -47.6985
    endloop
  endfacet
  facet normal 0 0 -1
    outer loop
      vertex -0.445042 1.94986 -47.6985
      vertex 19.4142 20 -47.6985
      vertex 1.24698 1.56366 -47.6985
    endloop
  endfacet
  facet normal 0 0 -1
    outer loop
      vertex -19.4142 20 -47.6985
      vertex -0.445042 1.94986 -47.6985
      vertex -1.80194 0.867767 -47.6985
    endloop
  endfacet
  facet normal 0 0 -1
    outer loop
      vertex -0.445042 1.94986 -47.6985
      vertex -19.4142 20 -47.6985
      vertex 19.4142 20 -47.6985
    endloop
  endfacet
  facet normal -0 0 -1
    outer loop
      vertex -1.80194 -0.867767 -47.6985
      vertex -20 -19.4142 -47.6985
      vertex -1.80194 0.867767 -47.6985
    endloop
  endfacet
  facet normal 0 0 -1
    outer loop
      vertex -20 19.4142 -47.6985
      vertex -1.80194 0.867767 -47.6985
      vertex -20 -19.4142 -47.6985
    endloop
  endfacet
  facet normal 0 0 -1
    outer loop
      vertex -1.80194 0.867767 -47.6985
      vertex -20 19.4142 -47.6985
      vertex -19.4142 20 -47.6985
    endloop
  endfacet
  facet normal 0 1 0
    outer loop
      vertex 20 47.6985 19.4142
      vertex -19.4142 47.6985 20
      vertex 19.4142 47.6985 20
    endloop
  endfacet
  facet normal 0 1 0
    outer loop
      vertex 20 47.6985 19.4142
      vertex -20 47.6985 19.4142
      vertex -19.4142 47.6985 20
    endloop
  endfacet
  facet normal 0 1 -0
    outer loop
      vertex 20 47.6985 -19.4142
      vertex -20 47.6985 19.4142
      vertex 20 47.6985 19.4142
    endloop
  endfacet
  facet normal 0 1 0
    outer loop
      vertex 20 47.6985 -19.4142
      vertex -20 47.6985 -19.4142
      vertex -20 47.6985 19.4142
    endloop
  endfacet
  facet normal 0 1 -0
    outer loop
      vertex 19.4142 47.6985 -20
      vertex -20 47.6985 -19.4142
      vertex 20 47.6985 -19.4142
    endloop
  endfacet
  facet normal 0 1 0
    outer loop
      vertex -20 47.6985 -19.4142
      vertex 19.4142 47.6985 -20
      vertex -19.4142 47.6985 -20
    endloop
  endfacet
  facet normal -0.678586 -0.678586 -0.281142
    outer loop
      vertex -20 -47.4558 -20
      vertex -47.6985 -20 -19.4142
      vertex -47.4558 -20 -20
    endloop
  endfacet
  facet normal -0.678586 -0.678586 -0.281142
    outer loop
      vertex -47.6985 -20 -19.4142
      vertex -20 -47.4558 -20
      vertex -20 -47.6985 -19.4142
    endloop
  endfacet
  facet normal 0.281142 -0.678586 -0.678586
    outer loop
      vertex 19.4142 -47.6985 -20
      vertex 20 -20 -47.4558
      vertex 20 -47.4558 -20
    endloop
  endfacet
  facet normal 0.281142 -0.678586 -0.678586
    outer loop
      vertex 20 -20 -47.4558
      vertex 19.4142 -47.6985 -20
      vertex 19.4142 -20 -47.6985
    endloop
  endfacet
  facet normal -0.862807 0.357466 0.357466
    outer loop
      vertex -47.6985 20 19.4142
      vertex -47.6985 19.4142 20
      vertex -47.4558 20 20
    endloop
  endfacet
  facet normal 0.862807 -0.357466 0.357466
    outer loop
      vertex 47.6985 -19.4142 20
      vertex 47.4558 -20 20
      vertex 47.6985 -20 19.4142
    endloop
  endfacet
  facet normal -0.57735 0.57735 -0.57735
    outer loop
      vertex -20 20 -47.4558
      vertex -47.4558 20 -20
      vertex -20 47.4558 -20
    endloop
  endfacet
  facet normal -0.357466 -0.357466 -0.862807
    outer loop
      vertex -19.4142 -20 -47.6985
      vertex -20 -20 -47.4558
      vertex -20 -19.4142 -47.6985
    endloop
  endfacet
  facet normal 0.57735 0.57735 -0.57735
    outer loop
      vertex 47.4558 20 -20
      vertex 20 20 -47.4558
      vertex 20 47.4558 -20
    endloop
  endfacet
  facet normal 1 0 0
    outer loop
      vertex 47.6985 19.4142 20
      vertex 47.6985 20 -19.4142
      vertex 47.6985 20 19.4142
    endloop
  endfacet
  facet normal 1 0 0
    outer loop
      vertex 47.6985 19.4142 20
      vertex 47.6985 19.4142 -20
      vertex 47.6985 20 -19.4142
    endloop
  endfacet
  facet normal 1 -0 0
    outer loop
      vertex 47.6985 -19.4142 20
      vertex 47.6985 19.4142 -20
      vertex 47.6985 19.4142 20
    endloop
  endfacet
  facet normal 1 0 0
    outer loop
      vertex 47.6985 -19.4142 20
      vertex 47.6985 -19.4142 -20
      vertex 47.6985 19.4142 -20
    endloop
  endfacet
  facet normal 1 -0 0
    outer loop
      vertex 47.6985 -20 19.4142
      vertex 47.6985 -19.4142 -20
      vertex 47.6985 -19.4142 20
    endloop
  endfacet
  facet normal 1 0 0
    outer loop
      vertex 47.6985 -19.4142 -20
      vertex 47.6985 -20 19.4142
      vertex 47.6985 -20 -19.4142
    endloop
  endfacet
  facet normal -0.281142 -0.678586 -0.678586
    outer loop
      vertex -20 -20 -47.4558
      vertex -19.4142 -47.6985 -20
      vertex -20 -47.4558 -20
    endloop
  endfacet
  facet normal -0.281142 -0.678586 -0.678586
    outer loop
      vertex -19.4142 -47.6985 -20
      vertex -20 -20 -47.4558
      vertex -19.4142 -20 -47.6985
    endloop
  endfacet
  facet normal -0.357466 0.862807 -0.357466
    outer loop
      vertex -19.4142 47.6985 -20
      vertex -20 47.4558 -20
      vertex -20 47.6985 -19.4142
    endloop
  endfacet
  facet normal -0.707107 0 -0.707107
    outer loop
      vertex -20 -19.4142 -47.6985
      vertex -47.6985 19.4142 -20
      vertex -20 19.4142 -47.6985
    endloop
  endfacet
  facet normal -0.707107 -0 -0.707107
    outer loop
      vertex -47.6985 19.4142 -20
      vertex -20 -19.4142 -47.6985
      vertex -47.6985 -19.4142 -20
    endloop
  endfacet
  facet normal -0.678586 0.678586 0.281142
    outer loop
      vertex -47.6985 20 19.4142
      vertex -20 47.4558 20
      vertex -20 47.6985 19.4142
    endloop
  endfacet
  facet normal -0.678586 0.678586 0.281142
    outer loop
      vertex -20 47.4558 20
      vertex -47.6985 20 19.4142
      vertex -47.4558 20 20
    endloop
  endfacet
  facet normal -0.57735 -0.57735 -0.57735
    outer loop
      vertex -20 -47.4558 -20
      vertex -47.4558 -20 -20
      vertex -20 -20 -47.4558
    endloop
  endfacet
  facet normal -0.357466 0.862807 0.357466
    outer loop
      vertex -20 47.6985 19.4142
      vertex -20 47.4558 20
      vertex -19.4142 47.6985 20
    endloop
  endfacet
  facet normal -0.357466 0.357466 -0.862807
    outer loop
      vertex -19.4142 20 -47.6985
      vertex -20 19.4142 -47.6985
      vertex -20 20 -47.4558
    endloop
  endfacet
  facet normal 0.707107 0.707107 0
    outer loop
      vertex 47.6985 20 19.4142
      vertex 20 47.6985 -19.4142
      vertex 20 47.6985 19.4142
    endloop
  endfacet
  facet normal 0.707107 0.707107 0
    outer loop
      vertex 20 47.6985 -19.4142
      vertex 47.6985 20 19.4142
      vertex 47.6985 20 -19.4142
    endloop
  endfacet
  facet normal 0.357466 -0.862807 -0.357466
    outer loop
      vertex 20 -47.6985 -19.4142
      vertex 19.4142 -47.6985 -20
      vertex 20 -47.4558 -20
    endloop
  endfacet
  facet normal -0.862807 -0.357466 -0.357466
    outer loop
      vertex -47.4558 -20 -20
      vertex -47.6985 -20 -19.4142
      vertex -47.6985 -19.4142 -20
    endloop
  endfacet
  facet normal 0.281142 0.678586 -0.678586
    outer loop
      vertex 20 20 -47.4558
      vertex 19.4142 47.6985 -20
      vertex 20 47.4558 -20
    endloop
  endfacet
  facet normal 0.281142 0.678586 -0.678586
    outer loop
      vertex 19.4142 47.6985 -20
      vertex 20 20 -47.4558
      vertex 19.4142 20 -47.6985
    endloop
  endfacet
  facet normal 0.862807 -0.357466 -0.357466
    outer loop
      vertex 47.6985 -20 -19.4142
      vertex 47.4558 -20 -20
      vertex 47.6985 -19.4142 -20
    endloop
  endfacet
  facet normal 0.678586 0.678586 0.281142
    outer loop
      vertex 47.6985 20 19.4142
      vertex 20 47.4558 20
      vertex 47.4558 20 20
    endloop
  endfacet
  facet normal 0.678586 0.678586 0.281142
    outer loop
      vertex 20 47.4558 20
      vertex 47.6985 20 19.4142
      vertex 20 47.6985 19.4142
    endloop
  endfacet
  facet normal 0.707107 -0.707107 0
    outer loop
      vertex 20 -47.6985 19.4142
      vertex 47.6985 -20 -19.4142
      vertex 47.6985 -20 19.4142
    endloop
  endfacet
  facet normal 0.707107 -0.707107 0
    outer loop
      vertex 47.6985 -20 -19.4142
      vertex 20 -47.6985 19.4142
      vertex 20 -47.6985 -19.4142
    endloop
  endfacet
  facet normal 0.678586 0.281142 -0.678586
    outer loop
      vertex 47.6985 19.4142 -20
      vertex 20 20 -47.4558
      vertex 47.4558 20 -20
    endloop
  endfacet
  facet normal 0.678586 0.281142 -0.678586
    outer loop
      vertex 20 20 -47.4558
      vertex 47.6985 19.4142 -20
      vertex 20 19.4142 -47.6985
    endloop
  endfacet
  facet normal -0.862807 -0.357466 0.357466
    outer loop
      vertex -47.6985 -19.4142 20
      vertex -47.6985 -20 19.4142
      vertex -47.4558 -20 20
    endloop
  endfacet
  facet normal -1 0 0
    outer loop
      vertex -47.6985 19.4142 -20
      vertex -47.6985 20 19.4142
      vertex -47.6985 20 -19.4142
    endloop
  endfacet
  facet normal -1 0 0
    outer loop
      vertex -47.6985 19.4142 -20
      vertex -47.6985 19.4142 20
      vertex -47.6985 20 19.4142
    endloop
  endfacet
  facet normal -1 0 0
    outer loop
      vertex -47.6985 -19.4142 -20
      vertex -47.6985 19.4142 20
      vertex -47.6985 19.4142 -20
    endloop
  endfacet
  facet normal -1 0 0
    outer loop
      vertex -47.6985 -19.4142 -20
      vertex -47.6985 -19.4142 20
      vertex -47.6985 19.4142 20
    endloop
  endfacet
  facet normal -1 0 0
    outer loop
      vertex -47.6985 -20 -19.4142
      vertex -47.6985 -19.4142 20
      vertex -47.6985 -19.4142 -20
    endloop
  endfacet
  facet normal -1 0 0
    outer loop
      vertex -47.6985 -19.4142 20
      vertex -47.6985 -20 -19.4142
      vertex -47.6985 -20 19.4142
    endloop
  endfacet
  facet normal 0.357466 -0.357466 -0.862807
    outer loop
      vertex 20 -20 -47.4558
      vertex 19.4142 -20 -47.6985
      vertex 20 -19.4142 -47.6985
    endloop
  endfacet
  facet normal 0.357466 0.357466 -0.862807
    outer loop
      vertex 20 19.4142 -47.6985
      vertex 19.4142 20 -47.6985
      vertex 20 20 -47.4558
    endloop
  endfacet
  facet normal 0.678586 0.678586 -0.281142
    outer loop
      vertex 47.6985 20 -19.4142
      vertex 20 47.4558 -20
      vertex 20 47.6985 -19.4142
    endloop
  endfacet
  facet normal 0.678586 0.678586 -0.281142
    outer loop
      vertex 20 47.4558 -20
      vertex 47.6985 20 -19.4142
      vertex 47.4558 20 -20
    endloop
  endfacet
  facet normal -0.707107 0.707107 0
    outer loop
      vertex -47.6985 20 -19.4142
      vertex -20 47.6985 19.4142
      vertex -20 47.6985 -19.4142
    endloop
  endfacet
  facet normal -0.707107 0.707107 0
    outer loop
      vertex -20 47.6985 19.4142
      vertex -47.6985 20 -19.4142
      vertex -47.6985 20 19.4142
    endloop
  endfacet
  facet normal 0.357466 0.862807 0.357466
    outer loop
      vertex 20 47.6985 19.4142
      vertex 19.4142 47.6985 20
      vertex 20 47.4558 20
    endloop
  endfacet
  facet normal 0.357466 -0.862807 0.357466
    outer loop
      vertex 20 -47.4558 20
      vertex 19.4142 -47.6985 20
      vertex 20 -47.6985 19.4142
    endloop
  endfacet
  facet normal 0.678586 -0.678586 -0.281142
    outer loop
      vertex 47.6985 -20 -19.4142
      vertex 20 -47.4558 -20
      vertex 47.4558 -20 -20
    endloop
  endfacet
  facet normal 0.678586 -0.678586 -0.281142
    outer loop
      vertex 20 -47.4558 -20
      vertex 47.6985 -20 -19.4142
      vertex 20 -47.6985 -19.4142
    endloop
  endfacet
  facet normal 0.707107 0 -0.707107
    outer loop
      vertex 47.6985 -19.4142 -20
      vertex 20 19.4142 -47.6985
      vertex 47.6985 19.4142 -20
    endloop
  endfacet
  facet normal 0.707107 0 -0.707107
    outer loop
      vertex 20 19.4142 -47.6985
      vertex 47.6985 -19.4142 -20
      vertex 20 -19.4142 -47.6985
    endloop
  endfacet
  facet normal -0.707107 -0.707107 0
    outer loop
      vertex -20 -47.6985 -19.4142
      vertex -47.6985 -20 19.4142
      vertex -47.6985 -20 -19.4142
    endloop
  endfacet
  facet normal -0.707107 -0.707107 0
    outer loop
      vertex -47.6985 -20 19.4142
      vertex -20 -47.6985 -19.4142
      vertex -20 -47.6985 19.4142
    endloop
  endfacet
  facet normal 0 -0.707107 -0.707107
    outer loop
      vertex -19.4142 -20 -47.6985
      vertex 19.4142 -47.6985 -20
      vertex -19.4142 -47.6985 -20
    endloop
  endfacet
  facet normal 0 -0.707107 -0.707107
    outer loop
      vertex 19.4142 -47.6985 -20
      vertex -19.4142 -20 -47.6985
      vertex 19.4142 -20 -47.6985
    endloop
  endfacet
  facet normal -0.281142 0.678586 -0.678586
    outer loop
      vertex -19.4142 47.6985 -20
      vertex -20 20 -47.4558
      vertex -20 47.4558 -20
    endloop
  endfacet
  facet normal -0.281142 0.678586 -0.678586
    outer loop
      vertex -20 20 -47.4558
      vertex -19.4142 47.6985 -20
      vertex -19.4142 20 -47.6985
    endloop
  endfacet
  facet normal 0.357466 0.862807 -0.357466
    outer loop
      vertex 20 47.4558 -20
      vertex 19.4142 47.6985 -20
      vertex 20 47.6985 -19.4142
    endloop
  endfacet
  facet normal -0.357466 -0.862807 -0.357466
    outer loop
      vertex -19.4142 -47.6985 -20
      vertex -20 -47.6985 -19.4142
      vertex -20 -47.4558 -20
    endloop
  endfacet
  facet normal 0 -1 0
    outer loop
      vertex -20 -47.6985 19.4142
      vertex 19.4142 -47.6985 20
      vertex -19.4142 -47.6985 20
    endloop
  endfacet
  facet normal 0 -1 0
    outer loop
      vertex -20 -47.6985 19.4142
      vertex 20 -47.6985 19.4142
      vertex 19.4142 -47.6985 20
    endloop
  endfacet
  facet normal 0 -1 0
    outer loop
      vertex -20 -47.6985 -19.4142
      vertex 20 -47.6985 19.4142
      vertex -20 -47.6985 19.4142
    endloop
  endfacet
  facet normal 0 -1 0
    outer loop
      vertex -20 -47.6985 -19.4142
      vertex 20 -47.6985 -19.4142
      vertex 20 -47.6985 19.4142
    endloop
  endfacet
  facet normal 0 -1 0
    outer loop
      vertex -19.4142 -47.6985 -20
      vertex 20 -47.6985 -19.4142
      vertex -20 -47.6985 -19.4142
    endloop
  endfacet
  facet normal 0 -1 0
    outer loop
      vertex 20 -47.6985 -19.4142
      vertex -19.4142 -47.6985 -20
      vertex 19.4142 -47.6985 -20
    endloop
  endfacet
  facet normal 0.862807 0.357466 0.357466
    outer loop
      vertex 47.6985 20 19.4142
      vertex 47.4558 20 20
      vertex 47.6985 19.4142 20
    endloop
  endfacet
  facet normal 0.862807 0.357466 -0.357466
    outer loop
      vertex 47.6985 19.4142 -20
      vertex 47.4558 20 -20
      vertex 47.6985 20 -19.4142
    endloop
  endfacet
  facet normal 0 0.707107 -0.707107
    outer loop
      vertex 19.4142 20 -47.6985
      vertex -19.4142 47.6985 -20
      vertex 19.4142 47.6985 -20
    endloop
  endfacet
  facet normal 0 0.707107 -0.707107
    outer loop
      vertex -19.4142 47.6985 -20
      vertex 19.4142 20 -47.6985
      vertex -19.4142 20 -47.6985
    endloop
  endfacet
  facet normal -0.678586 -0.281142 -0.678586
    outer loop
      vertex -20 -20 -47.4558
      vertex -47.6985 -19.4142 -20
      vertex -20 -19.4142 -47.6985
    endloop
  endfacet
  facet normal -0.678586 -0.281142 -0.678586
    outer loop
      vertex -47.6985 -19.4142 -20
      vertex -20 -20 -47.4558
      vertex -47.4558 -20 -20
    endloop
  endfacet
  facet normal -0.678586 0.281142 -0.678586
    outer loop
      vertex -47.6985 19.4142 -20
      vertex -20 20 -47.4558
      vertex -20 19.4142 -47.6985
    endloop
  endfacet
  facet normal -0.678586 0.281142 -0.678586
    outer loop
      vertex -20 20 -47.4558
      vertex -47.6985 19.4142 -20
      vertex -47.4558 20 -20
    endloop
  endfacet
  facet normal -0.862807 0.357466 -0.357466
    outer loop
      vertex -47.4558 20 -20
      vertex -47.6985 19.4142 -20
      vertex -47.6985 20 -19.4142
    endloop
  endfacet
  facet normal 0.357395 0.862866 -0.357395
    outer loop
      vertex -19 -45.0831 19
      vertex -18.4435 -45.3136 19
      vertex -19 -45.3136 18.4435
    endloop
  endfacet
  facet normal -0.678601 0.678601 -0.281074
    outer loop
      vertex 45.3136 -19 18.4435
      vertex 19 -45.0831 19
      vertex 45.0831 -19 19
    endloop
  endfacet
  facet normal -0.678601 0.678601 -0.281074
    outer loop
      vertex 19 -45.0831 19
      vertex 45.3136 -19 18.4435
      vertex 19 -45.3136 18.4435
    endloop
  endfacet
  facet normal 0.678601 -0.678601 0.281074
    outer loop
      vertex -45.3136 19 -18.4435
      vertex -19 45.0831 -19
      vertex -19 45.3136 -18.4435
    endloop
  endfacet
  facet normal 0.678601 -0.678601 0.281074
    outer loop
      vertex -19 45.0831 -19
      vertex -45.3136 19 -18.4435
      vertex -45.0831 19 -19
    endloop
  endfacet
  facet normal 0.57735 -0.57735 -0.57735
    outer loop
      vertex -45.0831 19 19
      vertex -19 44.0831 20
      vertex -44.0831 19 20
    endloop
  endfacet
  facet normal 0.57735 -0.57735 -0.57735
    outer loop
      vertex -19 44.0831 20
      vertex -45.0831 19 19
      vertex -19 45.0831 19
    endloop
  endfacet
  facet normal 0.678601 0.678601 -0.281074
    outer loop
      vertex -19 -45.0831 19
      vertex -45.3136 -19 18.4435
      vertex -45.0831 -19 19
    endloop
  endfacet
  facet normal 0.678601 0.678601 -0.281074
    outer loop
      vertex -45.3136 -19 18.4435
      vertex -19 -45.0831 19
      vertex -19 -45.3136 18.4435
    endloop
  endfacet
  facet normal -0.281074 -0.678601 -0.678601
    outer loop
      vertex 18.4435 45.3136 19
      vertex 19 44.0831 20
      vertex 18.4435 44.3136 20
    endloop
  endfacet
  facet normal -0.281074 -0.678601 -0.678601
    outer loop
      vertex 19 44.0831 20
      vertex 18.4435 45.3136 19
      vertex 19 45.0831 19
    endloop
  endfacet
  facet normal -0.678601 0.281074 0.678601
    outer loop
      vertex 19 -19 -45.0831
      vertex 45.3136 -18.4435 -19
      vertex 19 -18.4435 -45.3136
    endloop
  endfacet
  facet normal -0.678601 0.281074 0.678601
    outer loop
      vertex 45.3136 -18.4435 -19
      vertex 19 -19 -45.0831
      vertex 45.0831 -19 -19
    endloop
  endfacet
  facet normal -0.57735 0.57735 0.57735
    outer loop
      vertex 45.0831 -19 -19
      vertex 19 -19 -45.0831
      vertex 19 -45.0831 -19
    endloop
  endfacet
  facet normal 0 0 1
    outer loop
      vertex 1.24698 1.56366 -45.3136
      vertex 19 18.4435 -45.3136
      vertex 18.4435 19 -45.3136
    endloop
  endfacet
  facet normal 0 0 1
    outer loop
      vertex 19 18.4435 -45.3136
      vertex 2 0 -45.3136
      vertex 19 -18.4435 -45.3136
    endloop
  endfacet
  facet normal -0 0 1
    outer loop
      vertex 1.24698 -1.56366 -45.3136
      vertex 19 -18.4435 -45.3136
      vertex 2 0 -45.3136
    endloop
  endfacet
  facet normal 0 0 1
    outer loop
      vertex 19 18.4435 -45.3136
      vertex 1.24698 1.56366 -45.3136
      vertex 2 0 -45.3136
    endloop
  endfacet
  facet normal 0 0 1
    outer loop
      vertex 18.4435 19 -45.3136
      vertex -0.445042 1.94986 -45.3136
      vertex 1.24698 1.56366 -45.3136
    endloop
  endfacet
  facet normal -0 0 1
    outer loop
      vertex -18.4435 19 -45.3136
      vertex -0.445042 1.94986 -45.3136
      vertex 18.4435 19 -45.3136
    endloop
  endfacet
  facet normal -0 0 1
    outer loop
      vertex -19 18.4435 -45.3136
      vertex -1.80194 0.867767 -45.3136
      vertex -18.4435 19 -45.3136
    endloop
  endfacet
  facet normal 0 0 1
    outer loop
      vertex -0.445042 1.94986 -45.3136
      vertex -18.4435 19 -45.3136
      vertex -1.80194 0.867767 -45.3136
    endloop
  endfacet
  facet normal 0 0 1
    outer loop
      vertex 19 -18.4435 -45.3136
      vertex 1.24698 -1.56366 -45.3136
      vertex 18.4435 -19 -45.3136
    endloop
  endfacet
  facet normal -0 0 1
    outer loop
      vertex -0.445042 -1.94986 -45.3136
      vertex 18.4435 -19 -45.3136
      vertex 1.24698 -1.56366 -45.3136
    endloop
  endfacet
  facet normal 0 0 1
    outer loop
      vertex -18.4435 -19 -45.3136
      vertex -0.445042 -1.94986 -45.3136
      vertex -1.80194 -0.867767 -45.3136
    endloop
  endfacet
  facet normal 0 0 1
    outer loop
      vertex -0.445042 -1.94986 -45.3136
      vertex -18.4435 -19 -45.3136
      vertex 18.4435 -19 -45.3136
    endloop
  endfacet
  facet normal 0 0 1
    outer loop
      vertex -1.80194 0.867767 -45.3136
      vertex -19 18.4435 -45.3136
      vertex -1.80194 -0.867767 -45.3136
    endloop
  endfacet
  facet normal 0 0 1
    outer loop
      vertex -19 -18.4435 -45.3136
      vertex -1.80194 -0.867767 -45.3136
      vertex -19 18.4435 -45.3136
    endloop
  endfacet
  facet normal 0 0 1
    outer loop
      vertex -1.80194 -0.867767 -45.3136
      vertex -19 -18.4435 -45.3136
      vertex -18.4435 -19 -45.3136
    endloop
  endfacet
  facet normal -0.678601 0.281074 -0.678601
    outer loop
      vertex 45.0831 -19 19
      vertex 44.3136 -18.4435 20
      vertex 45.3136 -18.4435 19
    endloop
  endfacet
  facet normal -0.678601 0.281074 -0.678601
    outer loop
      vertex 44.3136 -18.4435 20
      vertex 45.0831 -19 19
      vertex 44.0831 -19 20
    endloop
  endfacet
  facet normal 0 -1 0
    outer loop
      vertex -19 45.3136 18.4435
      vertex 18.4435 45.3136 19
      vertex -18.4435 45.3136 19
    endloop
  endfacet
  facet normal 0 -1 0
    outer loop
      vertex -19 45.3136 18.4435
      vertex 19 45.3136 18.4435
      vertex 18.4435 45.3136 19
    endloop
  endfacet
  facet normal 0 -1 0
    outer loop
      vertex -19 45.3136 -18.4435
      vertex 19 45.3136 18.4435
      vertex -19 45.3136 18.4435
    endloop
  endfacet
  facet normal 0 -1 0
    outer loop
      vertex -19 45.3136 -18.4435
      vertex 19 45.3136 -18.4435
      vertex 19 45.3136 18.4435
    endloop
  endfacet
  facet normal 0 -1 0
    outer loop
      vertex -18.4435 45.3136 -19
      vertex 19 45.3136 -18.4435
      vertex -19 45.3136 -18.4435
    endloop
  endfacet
  facet normal 0 -1 0
    outer loop
      vertex 19 45.3136 -18.4435
      vertex -18.4435 45.3136 -19
      vertex 18.4435 45.3136 -19
    endloop
  endfacet
  facet normal 0.678601 0.678601 0.281074
    outer loop
      vertex -45.3136 -19 -18.4435
      vertex -19 -45.0831 -19
      vertex -45.0831 -19 -19
    endloop
  endfacet
  facet normal 0.678601 0.678601 0.281074
    outer loop
      vertex -19 -45.0831 -19
      vertex -45.3136 -19 -18.4435
      vertex -19 -45.3136 -18.4435
    endloop
  endfacet
  facet normal 0.707107 0 -0.707107
    outer loop
      vertex -44.3136 -18.4435 20
      vertex -45.3136 18.4435 19
      vertex -44.3136 18.4435 20
    endloop
  endfacet
  facet normal 0.707107 0 -0.707107
    outer loop
      vertex -45.3136 18.4435 19
      vertex -44.3136 -18.4435 20
      vertex -45.3136 -18.4435 19
    endloop
  endfacet
  facet normal 0.678601 0.281074 -0.678601
    outer loop
      vertex -44.0831 -19 20
      vertex -45.3136 -18.4435 19
      vertex -44.3136 -18.4435 20
    endloop
  endfacet
  facet normal 0.678601 0.281074 -0.678601
    outer loop
      vertex -45.3136 -18.4435 19
      vertex -44.0831 -19 20
      vertex -45.0831 -19 19
    endloop
  endfacet
  facet normal -0.281074 0.678601 0.678601
    outer loop
      vertex 19 -19 -45.0831
      vertex 18.4435 -45.3136 -19
      vertex 19 -45.0831 -19
    endloop
  endfacet
  facet normal -0.281074 0.678601 0.678601
    outer loop
      vertex 18.4435 -45.3136 -19
      vertex 19 -19 -45.0831
      vertex 18.4435 -19 -45.3136
    endloop
  endfacet
  facet normal 0.862866 -0.357395 -0.357395
    outer loop
      vertex -45.3136 19 18.4435
      vertex -45.0831 19 19
      vertex -45.3136 18.4435 19
    endloop
  endfacet
  facet normal -0.57735 -0.57735 -0.57735
    outer loop
      vertex 19 44.0831 20
      vertex 45.0831 19 19
      vertex 44.0831 19 20
    endloop
  endfacet
  facet normal -0.57735 -0.57735 -0.57735
    outer loop
      vertex 45.0831 19 19
      vertex 19 44.0831 20
      vertex 19 45.0831 19
    endloop
  endfacet
  facet normal -0.862866 0.357395 -0.357395
    outer loop
      vertex 45.3136 -18.4435 19
      vertex 45.3136 -19 18.4435
      vertex 45.0831 -19 19
    endloop
  endfacet
  facet normal -0.281074 0.678601 -0.678601
    outer loop
      vertex 19 -45.0831 19
      vertex 18.4435 -44.3136 20
      vertex 19 -44.0831 20
    endloop
  endfacet
  facet normal -0.281074 0.678601 -0.678601
    outer loop
      vertex 18.4435 -44.3136 20
      vertex 19 -45.0831 19
      vertex 18.4435 -45.3136 19
    endloop
  endfacet
  facet normal 0.57735 -0.57735 0.57735
    outer loop
      vertex -19 19 -45.0831
      vertex -19 45.0831 -19
      vertex -45.0831 19 -19
    endloop
  endfacet
  facet normal 0.357395 0.357395 0.862866
    outer loop
      vertex -18.4435 -19 -45.3136
      vertex -19 -18.4435 -45.3136
      vertex -19 -19 -45.0831
    endloop
  endfacet
  facet normal -0.57735 -0.57735 0.57735
    outer loop
      vertex 45.0831 19 -19
      vertex 19 45.0831 -19
      vertex 19 19 -45.0831
    endloop
  endfacet
  facet normal 0 0.707107 -0.707107
    outer loop
      vertex 18.4435 -45.3136 19
      vertex -18.4435 -44.3136 20
      vertex 18.4435 -44.3136 20
    endloop
  endfacet
  facet normal 0 0.707107 -0.707107
    outer loop
      vertex -18.4435 -44.3136 20
      vertex 18.4435 -45.3136 19
      vertex -18.4435 -45.3136 19
    endloop
  endfacet
  facet normal 0.281074 0.678601 0.678601
    outer loop
      vertex -18.4435 -45.3136 -19
      vertex -19 -19 -45.0831
      vertex -19 -45.0831 -19
    endloop
  endfacet
  facet normal 0.281074 0.678601 0.678601
    outer loop
      vertex -19 -19 -45.0831
      vertex -18.4435 -45.3136 -19
      vertex -18.4435 -19 -45.3136
    endloop
  endfacet
  facet normal -0.678601 -0.281074 -0.678601
    outer loop
      vertex 45.3136 18.4435 19
      vertex 44.0831 19 20
      vertex 45.0831 19 19
    endloop
  endfacet
  facet normal -0.678601 -0.281074 -0.678601
    outer loop
      vertex 44.0831 19 20
      vertex 45.3136 18.4435 19
      vertex 44.3136 18.4435 20
    endloop
  endfacet
  facet normal 0.57735 0.57735 -0.57735
    outer loop
      vertex -19 -44.0831 20
      vertex -45.0831 -19 19
      vertex -44.0831 -19 20
    endloop
  endfacet
  facet normal 0.57735 0.57735 -0.57735
    outer loop
      vertex -45.0831 -19 19
      vertex -19 -44.0831 20
      vertex -19 -45.0831 19
    endloop
  endfacet
  facet normal 0.281074 0.678601 -0.678601
    outer loop
      vertex -18.4435 -45.3136 19
      vertex -19 -44.0831 20
      vertex -18.4435 -44.3136 20
    endloop
  endfacet
  facet normal 0.281074 0.678601 -0.678601
    outer loop
      vertex -19 -44.0831 20
      vertex -18.4435 -45.3136 19
      vertex -19 -45.0831 19
    endloop
  endfacet
  facet normal 0.357395 -0.862866 0.357395
    outer loop
      vertex -18.4435 45.3136 -19
      vertex -19 45.3136 -18.4435
      vertex -19 45.0831 -19
    endloop
  endfacet
  facet normal 0.707107 -0 0.707107
    outer loop
      vertex -45.3136 -18.4435 -19
      vertex -19 18.4435 -45.3136
      vertex -45.3136 18.4435 -19
    endloop
  endfacet
  facet normal 0.707107 0 0.707107
    outer loop
      vertex -19 18.4435 -45.3136
      vertex -45.3136 -18.4435 -19
      vertex -19 -18.4435 -45.3136
    endloop
  endfacet
  facet normal 0.678601 -0.678601 -0.281074
    outer loop
      vertex -45.3136 19 18.4435
      vertex -19 45.0831 19
      vertex -45.0831 19 19
    endloop
  endfacet
  facet normal 0.678601 -0.678601 -0.281074
    outer loop
      vertex -19 45.0831 19
      vertex -45.3136 19 18.4435
      vertex -19 45.3136 18.4435
    endloop
  endfacet
  facet normal 0.57735 0.57735 0.57735
    outer loop
      vertex -19 -45.0831 -19
      vertex -19 -19 -45.0831
      vertex -45.0831 -19 -19
    endloop
  endfacet
  facet normal 0.357395 -0.862866 -0.357395
    outer loop
      vertex -19 45.3136 18.4435
      vertex -18.4435 45.3136 19
      vertex -19 45.0831 19
    endloop
  endfacet
  facet normal 0.357395 -0.357395 0.862866
    outer loop
      vertex -18.4435 19 -45.3136
      vertex -19 19 -45.0831
      vertex -19 18.4435 -45.3136
    endloop
  endfacet
  facet normal 0.678601 -0.281074 -0.678601
    outer loop
      vertex -44.3136 18.4435 20
      vertex -45.0831 19 19
      vertex -44.0831 19 20
    endloop
  endfacet
  facet normal 0.678601 -0.281074 -0.678601
    outer loop
      vertex -45.0831 19 19
      vertex -44.3136 18.4435 20
      vertex -45.3136 18.4435 19
    endloop
  endfacet
  facet normal -0.707107 -0.707107 0
    outer loop
      vertex 45.3136 19 -18.4435
      vertex 19 45.3136 18.4435
      vertex 19 45.3136 -18.4435
    endloop
  endfacet
  facet normal -0.707107 -0.707107 0
    outer loop
      vertex 19 45.3136 18.4435
      vertex 45.3136 19 -18.4435
      vertex 45.3136 19 18.4435
    endloop
  endfacet
  facet normal -0.357395 0.862866 0.357395
    outer loop
      vertex 19 -45.3136 -18.4435
      vertex 19 -45.0831 -19
      vertex 18.4435 -45.3136 -19
    endloop
  endfacet
  facet normal 0.862866 0.357395 0.357395
    outer loop
      vertex -45.0831 -19 -19
      vertex -45.3136 -18.4435 -19
      vertex -45.3136 -19 -18.4435
    endloop
  endfacet
  facet normal -0.281074 -0.678601 0.678601
    outer loop
      vertex 18.4435 45.3136 -19
      vertex 19 19 -45.0831
      vertex 19 45.0831 -19
    endloop
  endfacet
  facet normal -0.281074 -0.678601 0.678601
    outer loop
      vertex 19 19 -45.0831
      vertex 18.4435 45.3136 -19
      vertex 18.4435 19 -45.3136
    endloop
  endfacet
  facet normal -0.57735 0.57735 -0.57735
    outer loop
      vertex 19 -45.0831 19
      vertex 44.0831 -19 20
      vertex 45.0831 -19 19
    endloop
  endfacet
  facet normal -0.57735 0.57735 -0.57735
    outer loop
      vertex 44.0831 -19 20
      vertex 19 -45.0831 19
      vertex 19 -44.0831 20
    endloop
  endfacet
  facet normal -0.862866 0.357395 0.357395
    outer loop
      vertex 45.3136 -19 -18.4435
      vertex 45.3136 -18.4435 -19
      vertex 45.0831 -19 -19
    endloop
  endfacet
  facet normal -0.678601 -0.678601 -0.281074
    outer loop
      vertex 45.3136 19 18.4435
      vertex 19 45.0831 19
      vertex 19 45.3136 18.4435
    endloop
  endfacet
  facet normal -0.678601 -0.678601 -0.281074
    outer loop
      vertex 19 45.0831 19
      vertex 45.3136 19 18.4435
      vertex 45.0831 19 19
    endloop
  endfacet
  facet normal -0.707107 0.707107 0
    outer loop
      vertex 19 -45.3136 -18.4435
      vertex 45.3136 -19 18.4435
      vertex 45.3136 -19 -18.4435
    endloop
  endfacet
  facet normal -0.707107 0.707107 0
    outer loop
      vertex 45.3136 -19 18.4435
      vertex 19 -45.3136 -18.4435
      vertex 19 -45.3136 18.4435
    endloop
  endfacet
  facet normal -0.678601 -0.281074 0.678601
    outer loop
      vertex 45.3136 18.4435 -19
      vertex 19 19 -45.0831
      vertex 19 18.4435 -45.3136
    endloop
  endfacet
  facet normal -0.678601 -0.281074 0.678601
    outer loop
      vertex 19 19 -45.0831
      vertex 45.3136 18.4435 -19
      vertex 45.0831 19 -19
    endloop
  endfacet
  facet normal 0 -0.707107 -0.707107
    outer loop
      vertex -18.4435 45.3136 19
      vertex 18.4435 44.3136 20
      vertex -18.4435 44.3136 20
    endloop
  endfacet
  facet normal 0 -0.707107 -0.707107
    outer loop
      vertex 18.4435 44.3136 20
      vertex -18.4435 45.3136 19
      vertex 18.4435 45.3136 19
    endloop
  endfacet
  facet normal 0.862866 0.357395 -0.357395
    outer loop
      vertex -45.3136 -18.4435 19
      vertex -45.0831 -19 19
      vertex -45.3136 -19 18.4435
    endloop
  endfacet
  facet normal 1 0 0
    outer loop
      vertex -45.3136 18.4435 19
      vertex -45.3136 19 -18.4435
      vertex -45.3136 19 18.4435
    endloop
  endfacet
  facet normal 1 0 0
    outer loop
      vertex -45.3136 18.4435 19
      vertex -45.3136 18.4435 -19
      vertex -45.3136 19 -18.4435
    endloop
  endfacet
  facet normal 1 -0 0
    outer loop
      vertex -45.3136 -18.4435 19
      vertex -45.3136 18.4435 -19
      vertex -45.3136 18.4435 19
    endloop
  endfacet
  facet normal 1 0 0
    outer loop
      vertex -45.3136 -18.4435 19
      vertex -45.3136 -18.4435 -19
      vertex -45.3136 18.4435 -19
    endloop
  endfacet
  facet normal 1 -0 0
    outer loop
      vertex -45.3136 -19 18.4435
      vertex -45.3136 -18.4435 -19
      vertex -45.3136 -18.4435 19
    endloop
  endfacet
  facet normal 1 0 0
    outer loop
      vertex -45.3136 -18.4435 -19
      vertex -45.3136 -19 18.4435
      vertex -45.3136 -19 -18.4435
    endloop
  endfacet
  facet normal -0.357395 0.357395 0.862866
    outer loop
      vertex 19 -19 -45.0831
      vertex 19 -18.4435 -45.3136
      vertex 18.4435 -19 -45.3136
    endloop
  endfacet
  facet normal -0.357395 -0.357395 0.862866
    outer loop
      vertex 19 18.4435 -45.3136
      vertex 19 19 -45.0831
      vertex 18.4435 19 -45.3136
    endloop
  endfacet
  facet normal -0.678601 -0.678601 0.281074
    outer loop
      vertex 45.3136 19 -18.4435
      vertex 19 45.0831 -19
      vertex 45.0831 19 -19
    endloop
  endfacet
  facet normal -0.678601 -0.678601 0.281074
    outer loop
      vertex 19 45.0831 -19
      vertex 45.3136 19 -18.4435
      vertex 19 45.3136 -18.4435
    endloop
  endfacet
  facet normal 0.707107 -0.707107 0
    outer loop
      vertex -45.3136 19 18.4435
      vertex -19 45.3136 -18.4435
      vertex -19 45.3136 18.4435
    endloop
  endfacet
  facet normal 0.707107 -0.707107 0
    outer loop
      vertex -19 45.3136 -18.4435
      vertex -45.3136 19 18.4435
      vertex -45.3136 19 -18.4435
    endloop
  endfacet
  facet normal 0.281074 -0.678601 -0.678601
    outer loop
      vertex -19 45.0831 19
      vertex -18.4435 44.3136 20
      vertex -19 44.0831 20
    endloop
  endfacet
  facet normal 0.281074 -0.678601 -0.678601
    outer loop
      vertex -18.4435 44.3136 20
      vertex -19 45.0831 19
      vertex -18.4435 45.3136 19
    endloop
  endfacet
  facet normal -0.357395 -0.862866 -0.357395
    outer loop
      vertex 19 45.3136 18.4435
      vertex 19 45.0831 19
      vertex 18.4435 45.3136 19
    endloop
  endfacet
  facet normal -0.357395 0.862866 -0.357395
    outer loop
      vertex 19 -45.0831 19
      vertex 19 -45.3136 18.4435
      vertex 18.4435 -45.3136 19
    endloop
  endfacet
  facet normal -0.678601 0.678601 0.281074
    outer loop
      vertex 19 -45.0831 -19
      vertex 45.3136 -19 -18.4435
      vertex 45.0831 -19 -19
    endloop
  endfacet
  facet normal -0.678601 0.678601 0.281074
    outer loop
      vertex 45.3136 -19 -18.4435
      vertex 19 -45.0831 -19
      vertex 19 -45.3136 -18.4435
    endloop
  endfacet
  facet normal -1 0 0
    outer loop
      vertex 45.3136 18.4435 -19
      vertex 45.3136 19 18.4435
      vertex 45.3136 19 -18.4435
    endloop
  endfacet
  facet normal -1 0 0
    outer loop
      vertex 45.3136 18.4435 -19
      vertex 45.3136 18.4435 19
      vertex 45.3136 19 18.4435
    endloop
  endfacet
  facet normal -1 0 0
    outer loop
      vertex 45.3136 -18.4435 -19
      vertex 45.3136 18.4435 19
      vertex 45.3136 18.4435 -19
    endloop
  endfacet
  facet normal -1 0 0
    outer loop
      vertex 45.3136 -18.4435 -19
      vertex 45.3136 -18.4435 19
      vertex 45.3136 18.4435 19
    endloop
  endfacet
  facet normal -1 0 0
    outer loop
      vertex 45.3136 -19 -18.4435
      vertex 45.3136 -18.4435 19
      vertex 45.3136 -18.4435 -19
    endloop
  endfacet
  facet normal -1 0 0
    outer loop
      vertex 45.3136 -18.4435 19
      vertex 45.3136 -19 -18.4435
      vertex 45.3136 -19 18.4435
    endloop
  endfacet
  facet normal -0.707107 0 0.707107
    outer loop
      vertex 19 -18.4435 -45.3136
      vertex 45.3136 18.4435 -19
      vertex 19 18.4435 -45.3136
    endloop
  endfacet
  facet normal -0.707107 0 0.707107
    outer loop
      vertex 45.3136 18.4435 -19
      vertex 19 -18.4435 -45.3136
      vertex 45.3136 -18.4435 -19
    endloop
  endfacet
  facet normal -0.707107 0 -0.707107
    outer loop
      vertex 45.3136 -18.4435 19
      vertex 44.3136 18.4435 20
      vertex 45.3136 18.4435 19
    endloop
  endfacet
  facet normal -0.707107 -0 -0.707107
    outer loop
      vertex 44.3136 18.4435 20
      vertex 45.3136 -18.4435 19
      vertex 44.3136 -18.4435 20
    endloop
  endfacet
  facet normal 0.707107 0.707107 0
    outer loop
      vertex -19 -45.3136 18.4435
      vertex -45.3136 -19 -18.4435
      vertex -45.3136 -19 18.4435
    endloop
  endfacet
  facet normal 0.707107 0.707107 0
    outer loop
      vertex -45.3136 -19 -18.4435
      vertex -19 -45.3136 18.4435
      vertex -19 -45.3136 -18.4435
    endloop
  endfacet
  facet normal 0 0.707107 0.707107
    outer loop
      vertex 18.4435 -19 -45.3136
      vertex -18.4435 -45.3136 -19
      vertex 18.4435 -45.3136 -19
    endloop
  endfacet
  facet normal 0 0.707107 0.707107
    outer loop
      vertex -18.4435 -45.3136 -19
      vertex 18.4435 -19 -45.3136
      vertex -18.4435 -19 -45.3136
    endloop
  endfacet
  facet normal 0.281074 -0.678601 0.678601
    outer loop
      vertex -19 19 -45.0831
      vertex -18.4435 45.3136 -19
      vertex -19 45.0831 -19
    endloop
  endfacet
  facet normal 0.281074 -0.678601 0.678601
    outer loop
      vertex -18.4435 45.3136 -19
      vertex -19 19 -45.0831
      vertex -18.4435 19 -45.3136
    endloop
  endfacet
  facet normal -0.357395 -0.862866 0.357395
    outer loop
      vertex 19 45.0831 -19
      vertex 19 45.3136 -18.4435
      vertex 18.4435 45.3136 -19
    endloop
  endfacet
  facet normal 0.357395 0.862866 0.357395
    outer loop
      vertex -18.4435 -45.3136 -19
      vertex -19 -45.0831 -19
      vertex -19 -45.3136 -18.4435
    endloop
  endfacet
  facet normal 0 1 0
    outer loop
      vertex 19 -45.3136 18.4435
      vertex -18.4435 -45.3136 19
      vertex 18.4435 -45.3136 19
    endloop
  endfacet
  facet normal 0 1 0
    outer loop
      vertex 19 -45.3136 18.4435
      vertex -19 -45.3136 18.4435
      vertex -18.4435 -45.3136 19
    endloop
  endfacet
  facet normal 0 1 -0
    outer loop
      vertex 19 -45.3136 -18.4435
      vertex -19 -45.3136 18.4435
      vertex 19 -45.3136 18.4435
    endloop
  endfacet
  facet normal 0 1 0
    outer loop
      vertex 19 -45.3136 -18.4435
      vertex -19 -45.3136 -18.4435
      vertex -19 -45.3136 18.4435
    endloop
  endfacet
  facet normal 0 1 -0
    outer loop
      vertex 18.4435 -45.3136 -19
      vertex -19 -45.3136 -18.4435
      vertex 19 -45.3136 -18.4435
    endloop
  endfacet
  facet normal 0 1 0
    outer loop
      vertex -19 -45.3136 -18.4435
      vertex 18.4435 -45.3136 -19
      vertex -18.4435 -45.3136 -19
    endloop
  endfacet
  facet normal -0.862866 -0.357395 -0.357395
    outer loop
      vertex 45.3136 19 18.4435
      vertex 45.3136 18.4435 19
      vertex 45.0831 19 19
    endloop
  endfacet
  facet normal -0.862866 -0.357395 0.357395
    outer loop
      vertex 45.3136 18.4435 -19
      vertex 45.3136 19 -18.4435
      vertex 45.0831 19 -19
    endloop
  endfacet
  facet normal 0 -0.707107 0.707107
    outer loop
      vertex -18.4435 19 -45.3136
      vertex 18.4435 45.3136 -19
      vertex -18.4435 45.3136 -19
    endloop
  endfacet
  facet normal 0 -0.707107 0.707107
    outer loop
      vertex 18.4435 45.3136 -19
      vertex -18.4435 19 -45.3136
      vertex 18.4435 19 -45.3136
    endloop
  endfacet
  facet normal 0.678601 0.281074 0.678601
    outer loop
      vertex -19 -19 -45.0831
      vertex -45.3136 -18.4435 -19
      vertex -45.0831 -19 -19
    endloop
  endfacet
  facet normal 0.678601 0.281074 0.678601
    outer loop
      vertex -45.3136 -18.4435 -19
      vertex -19 -19 -45.0831
      vertex -19 -18.4435 -45.3136
    endloop
  endfacet
  facet normal 0.678601 -0.281074 0.678601
    outer loop
      vertex -45.3136 18.4435 -19
      vertex -19 19 -45.0831
      vertex -45.0831 19 -19
    endloop
  endfacet
  facet normal 0.678601 -0.281074 0.678601
    outer loop
      vertex -19 19 -45.0831
      vertex -45.3136 18.4435 -19
      vertex -19 18.4435 -45.3136
    endloop
  endfacet
  facet normal 0.862866 -0.357395 0.357395
    outer loop
      vertex -45.0831 19 -19
      vertex -45.3136 19 -18.4435
      vertex -45.3136 18.4435 -19
    endloop
  endfacet
  facet normal -0.222525 -0.974927 0
    outer loop
      vertex -0.445042 1.94986 -47.6985
      vertex 1.24698 1.56366 -45.3136
      vertex -0.445042 1.94986 -45.3136
    endloop
  endfacet
  facet normal -0.222525 -0.974927 -0
    outer loop
      vertex 1.24698 1.56366 -45.3136
      vertex -0.445042 1.94986 -47.6985
      vertex 1.24698 1.56366 -47.6985
    endloop
  endfacet
  facet normal -0.900969 -0.433884 0
    outer loop
      vertex 2 0 -47.6985
      vertex 1.24698 1.56366 -45.3136
      vertex 1.24698 1.56366 -47.6985
    endloop
  endfacet
  facet normal -0.900969 -0.433884 0
    outer loop
      vertex 1.24698 1.56366 -45.3136
      vertex 2 0 -47.6985
      vertex 2 0 -45.3136
    endloop
  endfacet
  facet normal -0.900969 0.433884 0
    outer loop
      vertex 1.24698 -1.56366 -47.6985
      vertex 2 0 -45.3136
      vertex 2 0 -47.6985
    endloop
  endfacet
  facet normal -0.900969 0.433884 0
    outer loop
      vertex 2 0 -45.3136
      vertex 1.24698 -1.56366 -47.6985
      vertex 1.24698 -1.56366 -45.3136
    endloop
  endfacet
  facet normal 0.623491 -0.781831 0
    outer loop
      vertex -1.80194 0.867767 -47.6985
      vertex -0.445042 1.94986 -45.3136
      vertex -1.80194 0.867767 -45.3136
    endloop
  endfacet
  facet normal 0.623491 -0.781831 0
    outer loop
      vertex -0.445042 1.94986 -45.3136
      vertex -1.80194 0.867767 -47.6985
      vertex -0.445042 1.94986 -47.6985
    endloop
  endfacet
  facet normal 0.623491 0.781831 -0
    outer loop
      vertex -0.445042 -1.94986 -47.6985
      vertex -1.80194 -0.867767 -45.3136
      vertex -0.445042 -1.94986 -45.3136
    endloop
  endfacet
  facet normal 0.623491 0.781831 0
    outer loop
      vertex -1.80194 -0.867767 -45.3136
      vertex -0.445042 -1.94986 -47.6985
      vertex -1.80194 -0.867767 -47.6985
    endloop
  endfacet
  facet normal -0.222525 0.974927 0
    outer loop
      vertex 1.24698 -1.56366 -47.6985
      vertex -0.445042 -1.94986 -45.3136
      vertex 1.24698 -1.56366 -45.3136
    endloop
  endfacet
  facet normal -0.222525 0.974927 0
    outer loop
      vertex -0.445042 -1.94986 -45.3136
      vertex 1.24698 -1.56366 -47.6985
      vertex -0.445042 -1.94986 -47.6985
    endloop
  endfacet
  facet normal 1 -0 0
    outer loop
      vertex -1.80194 -0.867767 -45.3136
      vertex -1.80194 0.867767 -47.6985
      vertex -1.80194 0.867767 -45.3136
    endloop
  endfacet
  facet normal 1 0 0
    outer loop
      vertex -1.80194 0.867767 -47.6985
      vertex -1.80194 -0.867767 -45.3136
      vertex -1.80194 -0.867767 -47.6985
    endloop
  endfacet
  facet normal 0 0 1
    outer loop
      vertex 44.3136 18.4435 20
      vertex 47.6985 19.4142 20
      vertex 47.4558 20 20
    endloop
  endfacet
  facet normal 0 0 1
    outer loop
      vertex 47.6985 19.4142 20
      vertex 44.3136 18.4435 20
      vertex 47.6985 -19.4142 20
    endloop
  endfacet
  facet normal -0 0 1
    outer loop
      vertex 44.3136 -18.4435 20
      vertex 47.6985 -19.4142 20
      vertex 44.3136 18.4435 20
    endloop
  endfacet
  facet normal 0 0 1
    outer loop
      vertex 47.4558 20 20
      vertex 44.0831 19 20
      vertex 44.3136 18.4435 20
    endloop
  endfacet
  facet normal 0 0 1
    outer loop
      vertex 20 47.4558 20
      vertex 44.0831 19 20
      vertex 47.4558 20 20
    endloop
  endfacet
  facet normal 0 0 1
    outer loop
      vertex 18.4435 44.3136 20
      vertex 20 47.4558 20
      vertex 19.4142 47.6985 20
    endloop
  endfacet
  facet normal 0 0 1
    outer loop
      vertex 20 47.4558 20
      vertex 19 44.0831 20
      vertex 44.0831 19 20
    endloop
  endfacet
  facet normal 0 0 1
    outer loop
      vertex 20 47.4558 20
      vertex 18.4435 44.3136 20
      vertex 19 44.0831 20
    endloop
  endfacet
  facet normal 0 0 1
    outer loop
      vertex 19.4142 47.6985 20
      vertex -18.4435 44.3136 20
      vertex 18.4435 44.3136 20
    endloop
  endfacet
  facet normal -0 0 1
    outer loop
      vertex -19.4142 47.6985 20
      vertex -18.4435 44.3136 20
      vertex 19.4142 47.6985 20
    endloop
  endfacet
  facet normal -0 0 1
    outer loop
      vertex -20 47.4558 20
      vertex -18.4435 44.3136 20
      vertex -19.4142 47.6985 20
    endloop
  endfacet
  facet normal 0 0 1
    outer loop
      vertex -18.4435 44.3136 20
      vertex -20 47.4558 20
      vertex -19 44.0831 20
    endloop
  endfacet
  facet normal 0 0 1
    outer loop
      vertex -20 47.4558 20
      vertex -44.0831 19 20
      vertex -19 44.0831 20
    endloop
  endfacet
  facet normal -0 0 1
    outer loop
      vertex -47.6985 19.4142 20
      vertex -44.3136 18.4435 20
      vertex -47.4558 20 20
    endloop
  endfacet
  facet normal 0 0 1
    outer loop
      vertex -44.0831 19 20
      vertex -47.4558 20 20
      vertex -44.3136 18.4435 20
    endloop
  endfacet
  facet normal -0 0 1
    outer loop
      vertex -47.4558 20 20
      vertex -44.0831 19 20
      vertex -20 47.4558 20
    endloop
  endfacet
  facet normal 0 0 1
    outer loop
      vertex 47.6985 -19.4142 20
      vertex 44.3136 -18.4435 20
      vertex 47.4558 -20 20
    endloop
  endfacet
  facet normal -0 0 1
    outer loop
      vertex 44.0831 -19 20
      vertex 47.4558 -20 20
      vertex 44.3136 -18.4435 20
    endloop
  endfacet
  facet normal 0 0 1
    outer loop
      vertex 44.0831 -19 20
      vertex 20 -47.4558 20
      vertex 47.4558 -20 20
    endloop
  endfacet
  facet normal -0 0 1
    outer loop
      vertex 19 -44.0831 20
      vertex 20 -47.4558 20
      vertex 44.0831 -19 20
    endloop
  endfacet
  facet normal -0 0 1
    outer loop
      vertex 18.4435 -44.3136 20
      vertex 20 -47.4558 20
      vertex 19 -44.0831 20
    endloop
  endfacet
  facet normal 0 0 1
    outer loop
      vertex 20 -47.4558 20
      vertex 18.4435 -44.3136 20
      vertex 19.4142 -47.6985 20
    endloop
  endfacet
  facet normal -0 0 1
    outer loop
      vertex -18.4435 -44.3136 20
      vertex 19.4142 -47.6985 20
      vertex 18.4435 -44.3136 20
    endloop
  endfacet
  facet normal 0 0 1
    outer loop
      vertex -18.4435 -44.3136 20
      vertex -19.4142 -47.6985 20
      vertex 19.4142 -47.6985 20
    endloop
  endfacet
  facet normal 0 0 1
    outer loop
      vertex -20 -47.4558 20
      vertex -18.4435 -44.3136 20
      vertex -19 -44.0831 20
    endloop
  endfacet
  facet normal 0 0 1
    outer loop
      vertex -18.4435 -44.3136 20
      vertex -20 -47.4558 20
      vertex -19.4142 -47.6985 20
    endloop
  endfacet
  facet normal 0 0 1
    outer loop
      vertex -44.0831 -19 20
      vertex -20 -47.4558 20
      vertex -19 -44.0831 20
    endloop
  endfacet
  facet normal 0 0 1
    outer loop
      vertex -44.0831 -19 20
      vertex -47.4558 -20 20
      vertex -20 -47.4558 20
    endloop
  endfacet
  facet normal 0 0 1
    outer loop
      vertex -44.3136 -18.4435 20
      vertex -47.4558 -20 20
      vertex -44.0831 -19 20
    endloop
  endfacet
  facet normal 0 0 1
    outer loop
      vertex -44.3136 18.4435 20
      vertex -47.6985 19.4142 20
      vertex -44.3136 -18.4435 20
    endloop
  endfacet
  facet normal 0 0 1
    outer loop
      vertex -47.6985 -19.4142 20
      vertex -44.3136 -18.4435 20
      vertex -47.6985 19.4142 20
    endloop
  endfacet
  facet normal 0 0 1
    outer loop
      vertex -44.3136 -18.4435 20
      vertex -47.6985 -19.4142 20
      vertex -47.4558 -20 20
    endloop
  endfacet
endsolid OpenSCAD_Model
