solid OpenSCAD_Model
  facet normal 0 0 1
    outer loop
      vertex 0 5 -7.23607
      vertex 0 -5 -7.23607
      vertex 7.23607 0 -7.23607
    endloop
  endfacet
  facet normal 0 -0 1
    outer loop
      vertex 0 -5 -7.23607
      vertex 0 5 -7.23607
      vertex -7.23607 0 -7.23607
    endloop
  endfacet
  facet normal 0 0 1
    outer loop
      vertex 0 5 7.23607
      vertex 0 -5 7.23607
      vertex 7.23607 0 7.23607
    endloop
  endfacet
  facet normal 0 -0 1
    outer loop
      vertex 0 -5 7.23607
      vertex 0 5 7.23607
      vertex -7.23607 0 7.23607
    endloop
  endfacet
  facet normal 1 0 0
    outer loop
      vertex 7.23607 -5 -2.05588e-07
      vertex 7.23607 5 -2.05588e-07
      vertex 7.23607 0 7.23607
    endloop
  endfacet
  facet normal 1 0 0
    outer loop
      vertex 7.23607 5 -2.05588e-07
      vertex 7.23607 -5 -2.05588e-07
      vertex 7.23607 0 -7.23607
    endloop
  endfacet
  facet normal 1 0 0
    outer loop
      vertex -7.23607 -5 -2.05588e-07
      vertex -7.23607 5 -2.05588e-07
      vertex -7.23607 0 7.23607
    endloop
  endfacet
  facet normal 1 0 0
    outer loop
      vertex -7.23607 5 -2.05588e-07
      vertex -7.23607 -5 -2.05588e-07
      vertex -7.23607 0 -7.23607
    endloop
  endfacet
  facet normal -0.494201 0.715214 0.494201
    outer loop
      vertex 7.23607 0 -7.23607
      vertex 0 -10 -2.05588e-07
      vertex 7.23607 -5 -2.05588e-07
    endloop
  endfacet
  facet normal -0.494201 0.715214 0.494201
    outer loop
      vertex 0 -10 -2.05588e-07
      vertex 7.23607 0 -7.23607
      vertex 0 -5 -7.23607
    endloop
  endfacet
  facet normal 0.494201 0.715214 0.494201
    outer loop
      vertex 0 -5 -7.23607
      vertex -7.23607 -5 -2.05588e-07
      vertex 0 -10 -2.05588e-07
    endloop
  endfacet
  facet normal 0.494201 0.715214 0.494201
    outer loop
      vertex -7.23607 -5 -2.05588e-07
      vertex 0 -5 -7.23607
      vertex -7.23607 0 -7.23607
    endloop
  endfacet
  facet normal -0.494201 0.715214 -0.494201
    outer loop
      vertex 0 5 -7.23607
      vertex -7.23607 5 -2.05588e-07
      vertex 0 10 -2.05588e-07
    endloop
  endfacet
  facet normal -0.494201 0.715214 -0.494201
    outer loop
      vertex -7.23607 5 -2.05588e-07
      vertex 0 5 -7.23607
      vertex -7.23607 0 -7.23607
    endloop
  endfacet
  facet normal 0.494201 0.715214 -0.494201
    outer loop
      vertex 7.23607 0 -7.23607
      vertex 0 10 -2.05588e-07
      vertex 7.23607 5 -2.05588e-07
    endloop
  endfacet
  facet normal 0.494201 0.715214 -0.494201
    outer loop
      vertex 0 10 -2.05588e-07
      vertex 7.23607 0 -7.23607
      vertex 0 5 -7.23607
    endloop
  endfacet
  facet normal 0.494201 -0.715214 0.494201
    outer loop
      vertex 0 -10 -2.05588e-07
      vertex 7.23607 0 7.23607
      vertex 0 -5 7.23607
    endloop
  endfacet
  facet normal 0.494201 -0.715214 0.494201
    outer loop
      vertex 7.23607 0 7.23607
      vertex 0 -10 -2.05588e-07
      vertex 7.23607 -5 -2.05588e-07
    endloop
  endfacet
  facet normal -0.494201 -0.715214 0.494201
    outer loop
      vertex -7.23607 -5 -2.05588e-07
      vertex 0 -5 7.23607
      vertex -7.23607 0 7.23607
    endloop
  endfacet
  facet normal -0.494201 -0.715214 0.494201
    outer loop
      vertex 0 -5 7.23607
      vertex -7.23607 -5 -2.05588e-07
      vertex 0 -10 -2.05588e-07
    endloop
  endfacet
  facet normal 0.494201 -0.715214 -0.494201
    outer loop
      vertex -7.23607 5 -2.05588e-07
      vertex 0 5 7.23607
      vertex -7.23607 0 7.23607
    endloop
  endfacet
  facet normal 0.494201 -0.715214 -0.494201
    outer loop
      vertex 0 5 7.23607
      vertex -7.23607 5 -2.05588e-07
      vertex 0 10 -2.05588e-07
    endloop
  endfacet
  facet normal -0.494201 -0.715214 -0.494201
    outer loop
      vertex 0 10 -2.05588e-07
      vertex 7.23607 0 7.23607
      vertex 0 5 7.23607
    endloop
  endfacet
  facet normal -0.494201 -0.715214 -0.494201
    outer loop
      vertex 7.23607 0 7.23607
      vertex 0 10 -2.05588e-07
      vertex 7.23607 5 -2.05588e-07
    endloop
  endfacet
endsolid OpenSCAD_Model
