solid OpenSCAD_Model
  facet normal -0.61425 -0.61425 0.495372
    outer loop
      vertex -2.49511 -3.88721 1
      vertex -2.45466 -3.85782 1.0866
      vertex -3.90933 -2.47299 1
    endloop
  endfacet
  facet normal 0 -0.876581 -0.481254
    outer loop
      vertex -0.984549 -3.87598 -2.50082
      vertex 1.0309 -3.92353 -2.41421
      vertex -0.969098 -3.92353 -2.41421
    endloop
  endfacet
  facet normal 0.774622 -0.447193 -0.44719
    outer loop
      vertex 3.92843 -1 -2.41421
      vertex 3.87843 -2.41421 -1.0866
      vertex 3.87843 -1 -2.50082
    endloop
  endfacet
  facet normal -0.57735 0.57735 0.57735
    outer loop
      vertex -2.45466 1.02939 3.91503
      vertex -2.45466 3.85782 1.0866
      vertex -3.86888 2.4436 1.0866
    endloop
  endfacet
  facet normal 0 1 -0
    outer loop
      vertex 1.0309 3.92353 -2.41421
      vertex -2.38331 3.92353 -1
      vertex 2.44512 3.92353 -1
    endloop
  endfacet
  facet normal 0.485741 0.726715 0.485737
    outer loop
      vertex 2.42966 3.87598 1.0866
      vertex 2.44512 3.92353 1
      vertex 1.01545 3.87598 2.50082
    endloop
  endfacet
  facet normal 0 0 -1
    outer loop
      vertex -0.984549 -2.46177 -3.91503
      vertex -1.04045 2.4436 -3.91503
      vertex 1.01545 -2.46177 -3.91503
    endloop
  endfacet
  facet normal 0.697426 0.506753 -0.506753
    outer loop
      vertex 3.84388 2.46177 -1.0866
      vertex 3.87843 1 -2.50082
      vertex 3.84388 1.04755 -2.50082
    endloop
  endfacet
  facet normal 0 -0.707107 -0.707107
    outer loop
      vertex 1.01545 -3.87598 -2.50082
      vertex -0.984549 -2.46177 -3.91503
      vertex 1.01545 -2.46177 -3.91503
    endloop
  endfacet
  facet normal 0.485741 -0.726715 -0.485737
    outer loop
      vertex 1.01545 -3.87598 -2.50082
      vertex 2.42966 -3.87598 -1.0866
      vertex 2.44512 -3.92353 -1
    endloop
  endfacet
  facet normal -0.308971 0.951072 0
    outer loop
      vertex -2.49511 3.88721 1
      vertex -2.38331 3.92353 -1
      vertex -2.49511 3.88721 -1
    endloop
  endfacet
  facet normal -1 0 0
    outer loop
      vertex -3.90933 -2.47299 1
      vertex -3.90933 -1.05878 -2.41421
      vertex -3.90933 -2.47299 -1
    endloop
  endfacet
  facet normal 0.62879 -0.62879 0.457434
    outer loop
      vertex 3.84388 -2.46177 1.0866
      vertex 2.44512 -3.92353 1
      vertex 3.85933 -2.50932 1
    endloop
  endfacet
  facet normal 0 -1 0
    outer loop
      vertex -0.969098 -3.92353 2.41421
      vertex 2.44512 -3.92353 1
      vertex 1.0309 -3.92353 2.41421
    endloop
  endfacet
  facet normal 0 0.707107 -0.707107
    outer loop
      vertex 1.01545 2.46177 -3.91503
      vertex -0.984549 3.87598 -2.50082
      vertex 1.01545 3.87598 -2.50082
    endloop
  endfacet
  facet normal 0.57735 0.577354 0.577346
    outer loop
      vertex 1.01545 3.87598 2.50082
      vertex 3.84388 2.46177 1.0866
      vertex 2.42966 3.87598 1.0866
    endloop
  endfacet
  facet normal 0.809023 0.587777 -0
    outer loop
      vertex 3.92843 2.41421 -1
      vertex 3.85933 2.50932 1
      vertex 3.92843 2.41421 1
    endloop
  endfacet
  facet normal 0 -0.876581 0.481254
    outer loop
      vertex -0.969098 -3.92353 2.41421
      vertex 1.01545 -3.87598 2.50082
      vertex -0.984549 -3.87598 2.50082
    endloop
  endfacet
  facet normal -0.906055 0 0.42316
    outer loop
      vertex -3.90933 1.05878 2.41421
      vertex -3.86888 -1.02939 2.50082
      vertex -3.86888 1.02939 2.50082
    endloop
  endfacet
  facet normal -0.707104 0 0.707109
    outer loop
      vertex -2.45466 1.02939 3.91503
      vertex -3.86888 -1.02939 2.50082
      vertex -2.45466 -1.02939 3.91503
    endloop
  endfacet
  facet normal 0 -0.707107 -0.707107
    outer loop
      vertex -0.984549 -3.87598 -2.50082
      vertex -0.984549 -2.46177 -3.91503
      vertex 1.01545 -3.87598 -2.50082
    endloop
  endfacet
  facet normal 0.628947 -0.456995 0.628952
    outer loop
      vertex 2.46421 -1 3.91503
      vertex 2.42966 -1.04755 3.91503
      vertex 3.84388 -1.04755 2.50082
    endloop
  endfacet
  facet normal -0.707107 -0.707107 0
    outer loop
      vertex -2.49511 -3.88721 -1
      vertex -2.49511 -3.88721 1
      vertex -3.90933 -2.47299 -1
    endloop
  endfacet
  facet normal -0.577346 0.577354 -0.57735
    outer loop
      vertex -2.45466 1.02939 -3.91503
      vertex -3.86888 1.02939 -2.50082
      vertex -3.86888 2.4436 -1.0866
    endloop
  endfacet
  facet normal -0.295201 0.908687 -0.295201
    outer loop
      vertex -2.38331 3.92353 -1
      vertex -1.0809 3.88721 -2.41421
      vertex -2.49511 3.88721 -1
    endloop
  endfacet
  facet normal -0.47321 -0.743064 0.47321
    outer loop
      vertex -2.49511 -3.88721 1
      vertex -1.0809 -3.88721 2.41421
      vertex -2.45466 -3.85782 1.0866
    endloop
  endfacet
  facet normal 0.577352 -0.577348 -0.577352
    outer loop
      vertex 1.01545 -2.46177 -3.91503
      vertex 2.42966 -1.04755 -3.91503
      vertex 3.84388 -2.46177 -1.0866
    endloop
  endfacet
  facet normal 0.809023 -0.587777 0
    outer loop
      vertex 3.85933 -2.50932 -1
      vertex 3.92843 -2.41421 1
      vertex 3.85933 -2.50932 1
    endloop
  endfacet
  facet normal 0.697503 0.506702 0.506698
    outer loop
      vertex 3.87843 1 2.50082
      vertex 3.87843 2.41421 1.0866
      vertex 3.84388 2.46177 1.0866
    endloop
  endfacet
  facet normal 0.73301 -0.532552 -0.423185
    outer loop
      vertex 3.92843 -2.41421 -1
      vertex 3.85933 -2.50932 -1
      vertex 3.84388 -2.46177 -1.0866
    endloop
  endfacet
  facet normal 0.57735 -0.577354 0.577346
    outer loop
      vertex 3.84388 -2.46177 1.0866
      vertex 1.01545 -3.87598 2.50082
      vertex 2.42966 -3.87598 1.0866
    endloop
  endfacet
  facet normal 0.628947 -0.456995 0.628952
    outer loop
      vertex 2.46421 -1 3.91503
      vertex 3.84388 -1.04755 2.50082
      vertex 3.87843 -1 2.50082
    endloop
  endfacet
  facet normal 0 -0.876581 0.481254
    outer loop
      vertex 1.0309 -3.92353 2.41421
      vertex 1.01545 -3.87598 2.50082
      vertex -0.969098 -3.92353 2.41421
    endloop
  endfacet
  facet normal -0 0 1
    outer loop
      vertex -2.45466 1.02939 3.91503
      vertex -1.04045 -2.4436 3.91503
      vertex -1.04045 2.4436 3.91503
    endloop
  endfacet
  facet normal -0.57735 0.57735 -0.57735
    outer loop
      vertex -2.45466 1.02939 -3.91503
      vertex -2.45466 3.85782 -1.0866
      vertex -1.04045 2.4436 -3.91503
    endloop
  endfacet
  facet normal -0.707136 -0.499981 0.499978
    outer loop
      vertex -3.86888 -2.4436 1.0866
      vertex -3.86888 -1.02939 2.50082
      vertex -3.90933 -2.47299 1
    endloop
  endfacet
  facet normal -0.295197 -0.90869 -0.295197
    outer loop
      vertex -2.38331 -3.92353 -1
      vertex -1.0809 -3.88721 -2.41421
      vertex -0.969098 -3.92353 -2.41421
    endloop
  endfacet
  facet normal 0 0 -1
    outer loop
      vertex 2.42966 -1.04755 -3.91503
      vertex -1.04045 2.4436 -3.91503
      vertex 2.46421 -1 -3.91503
    endloop
  endfacet
  facet normal -0.707104 -0 -0.707109
    outer loop
      vertex -3.86888 1.02939 -2.50082
      vertex -2.45466 -1.02939 -3.91503
      vertex -3.86888 -1.02939 -2.50082
    endloop
  endfacet
  facet normal 0.628947 0.456995 0.628952
    outer loop
      vertex 3.84388 1.04755 2.50082
      vertex 2.42966 1.04755 3.91503
      vertex 2.46421 1 3.91503
    endloop
  endfacet
  facet normal -0.223879 -0.689156 0.689161
    outer loop
      vertex -0.984549 -3.87598 2.50082
      vertex -1.04045 -2.4436 3.91503
      vertex -1.04045 -3.85782 2.50082
    endloop
  endfacet
  facet normal -0.707107 -0.707107 0
    outer loop
      vertex -3.90933 -2.47299 -1
      vertex -2.49511 -3.88721 1
      vertex -3.90933 -2.47299 1
    endloop
  endfacet
  facet normal 0.866044 0 -0.499968
    outer loop
      vertex 3.92843 -1 -2.41421
      vertex 3.87843 1 -2.50082
      vertex 3.92843 1 -2.41421
    endloop
  endfacet
  facet normal 0.577353 -0.577349 -0.577349
    outer loop
      vertex 1.01545 -2.46177 -3.91503
      vertex 2.42966 -3.87598 -1.0866
      vertex 1.01545 -3.87598 -2.50082
    endloop
  endfacet
  facet normal 0 0.876581 -0.481254
    outer loop
      vertex -0.984549 3.87598 -2.50082
      vertex 1.0309 3.92353 -2.41421
      vertex 1.01545 3.87598 -2.50082
    endloop
  endfacet
  facet normal -1 -0 0
    outer loop
      vertex -3.90933 2.47299 -1
      vertex -3.90933 -1.05878 -2.41421
      vertex -3.90933 2.47299 1
    endloop
  endfacet
  facet normal 0.774586 0.447224 -0.447221
    outer loop
      vertex 3.92843 2.41421 -1
      vertex 3.87843 1 -2.50082
      vertex 3.87843 2.41421 -1.0866
    endloop
  endfacet
  facet normal 0.577348 -0.577352 -0.577352
    outer loop
      vertex 3.84388 -2.46177 -1.0866
      vertex 2.42966 -1.04755 -3.91503
      vertex 3.84388 -1.04755 -2.50082
    endloop
  endfacet
  facet normal 0.707104 0 -0.707109
    outer loop
      vertex 2.46421 1 -3.91503
      vertex 3.87843 1 -2.50082
      vertex 2.46421 -1 -3.91503
    endloop
  endfacet
  facet normal 0.62879 -0.62879 -0.457434
    outer loop
      vertex 3.84388 -2.46177 -1.0866
      vertex 3.85933 -2.50932 -1
      vertex 2.44512 -3.92353 -1
    endloop
  endfacet
  facet normal 0.628947 -0.456995 -0.628952
    outer loop
      vertex 3.84388 -1.04755 -2.50082
      vertex 2.42966 -1.04755 -3.91503
      vertex 2.46421 -1 -3.91503
    endloop
  endfacet
  facet normal 0.774623 0.44719 -0.44719
    outer loop
      vertex 3.92843 1 -2.41421
      vertex 3.87843 1 -2.50082
      vertex 3.92843 2.41421 -1
    endloop
  endfacet
  facet normal 0.707107 -0.707107 0
    outer loop
      vertex 3.85933 -2.50932 -1
      vertex 2.44512 -3.92353 1
      vertex 2.44512 -3.92353 -1
    endloop
  endfacet
  facet normal 0.707107 -0.707107 0
    outer loop
      vertex 3.85933 -2.50932 1
      vertex 2.44512 -3.92353 1
      vertex 3.85933 -2.50932 -1
    endloop
  endfacet
  facet normal -0 0 1
    outer loop
      vertex -1.04045 2.4436 3.91503
      vertex -1.04045 -2.4436 3.91503
      vertex -0.984549 2.46177 3.91503
    endloop
  endfacet
  facet normal 0 -0.707107 0.707107
    outer loop
      vertex -0.984549 -3.87598 2.50082
      vertex 1.01545 -3.87598 2.50082
      vertex -0.984549 -2.46177 3.91503
    endloop
  endfacet
  facet normal -0.223996 0.689137 0.689142
    outer loop
      vertex -1.04045 2.4436 3.91503
      vertex -0.984549 2.46177 3.91503
      vertex -1.04045 3.85782 2.50082
    endloop
  endfacet
  facet normal 0 1 0
    outer loop
      vertex -0.969098 3.92353 2.41421
      vertex -2.38331 3.92353 -1
      vertex -2.38331 3.92353 1
    endloop
  endfacet
  facet normal 0 0 -1
    outer loop
      vertex 2.46421 -1 -3.91503
      vertex -1.04045 2.4436 -3.91503
      vertex 2.46421 1 -3.91503
    endloop
  endfacet
  facet normal -0.707104 0 0.707109
    outer loop
      vertex -3.86888 1.02939 2.50082
      vertex -3.86888 -1.02939 2.50082
      vertex -2.45466 1.02939 3.91503
    endloop
  endfacet
  facet normal 0.485663 0.726815 0.485666
    outer loop
      vertex 1.01545 3.87598 2.50082
      vertex 2.44512 3.92353 1
      vertex 1.0309 3.92353 2.41421
    endloop
  endfacet
  facet normal -0.707197 0.499938 0.499934
    outer loop
      vertex -3.86888 2.4436 1.0866
      vertex -3.90933 1.05878 2.41421
      vertex -3.86888 1.02939 2.50082
    endloop
  endfacet
  facet normal 0.577352 0.577348 0.577352
    outer loop
      vertex 2.42966 1.04755 3.91503
      vertex 3.84388 2.46177 1.0866
      vertex 1.01545 2.46177 3.91503
    endloop
  endfacet
  facet normal 0.577348 -0.577352 0.577352
    outer loop
      vertex 3.84388 -1.04755 2.50082
      vertex 2.42966 -1.04755 3.91503
      vertex 3.84388 -2.46177 1.0866
    endloop
  endfacet
  facet normal -0.27994 -0.861726 -0.423158
    outer loop
      vertex -0.969098 -3.92353 -2.41421
      vertex -1.0809 -3.88721 -2.41421
      vertex -0.984549 -3.87598 -2.50082
    endloop
  endfacet
  facet normal -0.473158 -0.743133 -0.473154
    outer loop
      vertex -1.0809 -3.88721 -2.41421
      vertex -2.45466 -3.85782 -1.0866
      vertex -1.04045 -3.85782 -2.50082
    endloop
  endfacet
  facet normal -0.61425 -0.61425 -0.495372
    outer loop
      vertex -3.86888 -2.4436 -1.0866
      vertex -2.45466 -3.85782 -1.0866
      vertex -3.90933 -2.47299 -1
    endloop
  endfacet
  facet normal -0.223879 0.689156 -0.689161
    outer loop
      vertex -0.984549 3.87598 -2.50082
      vertex -1.04045 2.4436 -3.91503
      vertex -1.04045 3.85782 -2.50082
    endloop
  endfacet
  facet normal -0.223996 -0.689137 -0.689142
    outer loop
      vertex -0.984549 -2.46177 -3.91503
      vertex -1.04045 -3.85782 -2.50082
      vertex -1.04045 -2.4436 -3.91503
    endloop
  endfacet
  facet normal -0.22388 -0.689158 -0.689158
    outer loop
      vertex -0.984549 -3.87598 -2.50082
      vertex -1.04045 -3.85782 -2.50082
      vertex -0.984549 -2.46177 -3.91503
    endloop
  endfacet
  facet normal -0.295201 -0.908687 -0.295201
    outer loop
      vertex -2.49511 -3.88721 -1
      vertex -1.0809 -3.88721 -2.41421
      vertex -2.38331 -3.92353 -1
    endloop
  endfacet
  facet normal -0.308971 -0.951072 0
    outer loop
      vertex -2.49511 -3.88721 -1
      vertex -2.38331 -3.92353 1
      vertex -2.49511 -3.88721 1
    endloop
  endfacet
  facet normal -0.577346 -0.577354 0.57735
    outer loop
      vertex -2.45466 -1.02939 3.91503
      vertex -3.86888 -1.02939 2.50082
      vertex -3.86888 -2.4436 1.0866
    endloop
  endfacet
  facet normal 0 1 -0
    outer loop
      vertex -0.969098 3.92353 -2.41421
      vertex -2.38331 3.92353 -1
      vertex 1.0309 3.92353 -2.41421
    endloop
  endfacet
  facet normal -0 -0.876581 -0.481254
    outer loop
      vertex 1.01545 -3.87598 -2.50082
      vertex 1.0309 -3.92353 -2.41421
      vertex -0.984549 -3.87598 -2.50082
    endloop
  endfacet
  facet normal 0.485663 -0.726815 -0.485666
    outer loop
      vertex 2.44512 -3.92353 -1
      vertex 1.0309 -3.92353 -2.41421
      vertex 1.01545 -3.87598 -2.50082
    endloop
  endfacet
  facet normal 1 0 0
    outer loop
      vertex 3.92843 2.41421 1
      vertex 3.92843 -1 -2.41421
      vertex 3.92843 2.41421 -1
    endloop
  endfacet
  facet normal 0.62879 0.62879 0.457434
    outer loop
      vertex 3.84388 2.46177 1.0866
      vertex 3.85933 2.50932 1
      vertex 2.44512 3.92353 1
    endloop
  endfacet
  facet normal -0.27994 0.861726 0.423158
    outer loop
      vertex -0.969098 3.92353 2.41421
      vertex -1.0809 3.88721 2.41421
      vertex -0.984549 3.87598 2.50082
    endloop
  endfacet
  facet normal 0.57735 0.57735 0.57735
    outer loop
      vertex 1.01545 2.46177 3.91503
      vertex 3.84388 2.46177 1.0866
      vertex 1.01545 3.87598 2.50082
    endloop
  endfacet
  facet normal 0.577349 -0.577353 -0.577349
    outer loop
      vertex 3.84388 -2.46177 -1.0866
      vertex 2.42966 -3.87598 -1.0866
      vertex 1.01545 -2.46177 -3.91503
    endloop
  endfacet
  facet normal 0.628767 -0.628771 -0.457492
    outer loop
      vertex 2.44512 -3.92353 -1
      vertex 2.42966 -3.87598 -1.0866
      vertex 3.84388 -2.46177 -1.0866
    endloop
  endfacet
  facet normal 0 0 -1
    outer loop
      vertex 1.01545 -2.46177 -3.91503
      vertex -1.04045 2.4436 -3.91503
      vertex 2.42966 -1.04755 -3.91503
    endloop
  endfacet
  facet normal 0.577348 0.577352 0.577352
    outer loop
      vertex 3.84388 1.04755 2.50082
      vertex 3.84388 2.46177 1.0866
      vertex 2.42966 1.04755 3.91503
    endloop
  endfacet
  facet normal 1 -0 0
    outer loop
      vertex 3.92843 -2.41421 -1
      vertex 3.92843 -1 -2.41421
      vertex 3.92843 -2.41421 1
    endloop
  endfacet
  facet normal 0.485741 -0.726715 0.485737
    outer loop
      vertex 2.42966 -3.87598 1.0866
      vertex 1.01545 -3.87598 2.50082
      vertex 2.44512 -3.92353 1
    endloop
  endfacet
  facet normal 0.733022 -0.532504 0.423223
    outer loop
      vertex 3.92843 -2.41421 1
      vertex 3.87843 -2.41421 1.0866
      vertex 3.84388 -2.46177 1.0866
    endloop
  endfacet
  facet normal 0.628947 0.456995 0.628952
    outer loop
      vertex 2.46421 1 3.91503
      vertex 3.87843 1 2.50082
      vertex 3.84388 1.04755 2.50082
    endloop
  endfacet
  facet normal 0.697503 -0.506702 0.506698
    outer loop
      vertex 3.84388 -2.46177 1.0866
      vertex 3.87843 -2.41421 1.0866
      vertex 3.87843 -1 2.50082
    endloop
  endfacet
  facet normal 0.73301 -0.532552 0.423185
    outer loop
      vertex 3.85933 -2.50932 1
      vertex 3.92843 -2.41421 1
      vertex 3.84388 -2.46177 1.0866
    endloop
  endfacet
  facet normal -0.308971 -0.951072 0
    outer loop
      vertex -2.38331 -3.92353 -1
      vertex -2.38331 -3.92353 1
      vertex -2.49511 -3.88721 -1
    endloop
  endfacet
  facet normal 0 -1 0
    outer loop
      vertex -0.969098 -3.92353 -2.41421
      vertex 2.44512 -3.92353 1
      vertex -2.38331 -3.92353 -1
    endloop
  endfacet
  facet normal -0.473158 -0.743133 0.473154
    outer loop
      vertex -2.45466 -3.85782 1.0866
      vertex -1.0809 -3.88721 2.41421
      vertex -1.04045 -3.85782 2.50082
    endloop
  endfacet
  facet normal -0.27994 -0.861726 0.423158
    outer loop
      vertex -0.984549 -3.87598 2.50082
      vertex -1.0809 -3.88721 2.41421
      vertex -0.969098 -3.92353 2.41421
    endloop
  endfacet
  facet normal -0.223997 -0.689139 0.689139
    outer loop
      vertex -0.984549 -2.46177 3.91503
      vertex -1.04045 -2.4436 3.91503
      vertex -0.984549 -3.87598 2.50082
    endloop
  endfacet
  facet normal -0.57735 0.57735 0.57735
    outer loop
      vertex -1.04045 2.4436 3.91503
      vertex -2.45466 3.85782 1.0866
      vertex -2.45466 1.02939 3.91503
    endloop
  endfacet
  facet normal -0.577346 0.577354 0.57735
    outer loop
      vertex -3.86888 1.02939 2.50082
      vertex -2.45466 1.02939 3.91503
      vertex -3.86888 2.4436 1.0866
    endloop
  endfacet
  facet normal -0.22388 0.689158 0.689158
    outer loop
      vertex -1.04045 3.85782 2.50082
      vertex -0.984549 2.46177 3.91503
      vertex -0.984549 3.87598 2.50082
    endloop
  endfacet
  facet normal -1 -0 0
    outer loop
      vertex -3.90933 2.47299 1
      vertex -3.90933 -1.05878 -2.41421
      vertex -3.90933 1.05878 2.41421
    endloop
  endfacet
  facet normal -0.7072 0.499934 -0.499934
    outer loop
      vertex -3.90933 2.47299 -1
      vertex -3.86888 1.02939 -2.50082
      vertex -3.90933 1.05878 -2.41421
    endloop
  endfacet
  facet normal 0 0.876581 -0.481254
    outer loop
      vertex -0.969098 3.92353 -2.41421
      vertex 1.0309 3.92353 -2.41421
      vertex -0.984549 3.87598 -2.50082
    endloop
  endfacet
  facet normal 0 0 -1
    outer loop
      vertex -2.45466 1.02939 -3.91503
      vertex -1.04045 2.4436 -3.91503
      vertex -2.45466 -1.02939 -3.91503
    endloop
  endfacet
  facet normal 0.866044 0 0.499968
    outer loop
      vertex 3.92843 -1 2.41421
      vertex 3.87843 1 2.50082
      vertex 3.87843 -1 2.50082
    endloop
  endfacet
  facet normal 0 0 1
    outer loop
      vertex 1.01545 2.46177 3.91503
      vertex -1.04045 -2.4436 3.91503
      vertex 2.42966 1.04755 3.91503
    endloop
  endfacet
  facet normal -0.577354 -0.577346 -0.57735
    outer loop
      vertex -1.04045 -3.85782 -2.50082
      vertex -2.45466 -3.85782 -1.0866
      vertex -1.04045 -2.4436 -3.91503
    endloop
  endfacet
  facet normal -0.27994 -0.861726 -0.423158
    outer loop
      vertex -0.984549 -3.87598 -2.50082
      vertex -1.0809 -3.88721 -2.41421
      vertex -1.04045 -3.85782 -2.50082
    endloop
  endfacet
  facet normal -0.47321 -0.743064 -0.47321
    outer loop
      vertex -2.49511 -3.88721 -1
      vertex -2.45466 -3.85782 -1.0866
      vertex -1.0809 -3.88721 -2.41421
    endloop
  endfacet
  facet normal -0.61425 -0.61425 -0.495372
    outer loop
      vertex -3.90933 -2.47299 -1
      vertex -2.45466 -3.85782 -1.0866
      vertex -2.49511 -3.88721 -1
    endloop
  endfacet
  facet normal 0 -1 0
    outer loop
      vertex -2.38331 -3.92353 -1
      vertex 2.44512 -3.92353 1
      vertex -2.38331 -3.92353 1
    endloop
  endfacet
  facet normal 0 -1 0
    outer loop
      vertex -2.38331 -3.92353 1
      vertex 2.44512 -3.92353 1
      vertex -0.969098 -3.92353 2.41421
    endloop
  endfacet
  facet normal 0.57735 0.57735 -0.57735
    outer loop
      vertex 3.84388 2.46177 -1.0866
      vertex 3.84388 1.04755 -2.50082
      vertex 1.01545 2.46177 -3.91503
    endloop
  endfacet
  facet normal 1 -0 0
    outer loop
      vertex 3.92843 -2.41421 1
      vertex 3.92843 -1 -2.41421
      vertex 3.92843 -1 2.41421
    endloop
  endfacet
  facet normal 0 0.707107 -0.707107
    outer loop
      vertex -0.984549 2.46177 -3.91503
      vertex -0.984549 3.87598 -2.50082
      vertex 1.01545 2.46177 -3.91503
    endloop
  endfacet
  facet normal -0.61425 0.61425 -0.495372
    outer loop
      vertex -2.49511 3.88721 -1
      vertex -2.45466 3.85782 -1.0866
      vertex -3.90933 2.47299 -1
    endloop
  endfacet
  facet normal -0.61425 0.61425 0.495372
    outer loop
      vertex -3.86888 2.4436 1.0866
      vertex -2.45466 3.85782 1.0866
      vertex -3.90933 2.47299 1
    endloop
  endfacet
  facet normal 0.697503 0.506702 -0.506698
    outer loop
      vertex 3.87843 2.41421 -1.0866
      vertex 3.87843 1 -2.50082
      vertex 3.84388 2.46177 -1.0866
    endloop
  endfacet
  facet normal 0 0.876581 0.481254
    outer loop
      vertex 1.01545 3.87598 2.50082
      vertex -0.969098 3.92353 2.41421
      vertex -0.984549 3.87598 2.50082
    endloop
  endfacet
  facet normal 0.485663 0.726815 -0.485666
    outer loop
      vertex 1.0309 3.92353 -2.41421
      vertex 2.44512 3.92353 -1
      vertex 1.01545 3.87598 -2.50082
    endloop
  endfacet
  facet normal 0 0 -1
    outer loop
      vertex 2.42966 1.04755 -3.91503
      vertex -1.04045 2.4436 -3.91503
      vertex 1.01545 2.46177 -3.91503
    endloop
  endfacet
  facet normal -0.223997 0.689139 -0.689139
    outer loop
      vertex -0.984549 2.46177 -3.91503
      vertex -1.04045 2.4436 -3.91503
      vertex -0.984549 3.87598 -2.50082
    endloop
  endfacet
  facet normal 0.697426 -0.506753 -0.506753
    outer loop
      vertex 3.84388 -1.04755 -2.50082
      vertex 3.87843 -1 -2.50082
      vertex 3.84388 -2.46177 -1.0866
    endloop
  endfacet
  facet normal 0.628947 -0.456995 -0.628952
    outer loop
      vertex 2.46421 -1 -3.91503
      vertex 3.87843 -1 -2.50082
      vertex 3.84388 -1.04755 -2.50082
    endloop
  endfacet
  facet normal -0 0 -1
    outer loop
      vertex 1.01545 2.46177 -3.91503
      vertex -1.04045 2.4436 -3.91503
      vertex -0.984549 2.46177 -3.91503
    endloop
  endfacet
  facet normal 0 0 -1
    outer loop
      vertex 2.46421 1 -3.91503
      vertex -1.04045 2.4436 -3.91503
      vertex 2.42966 1.04755 -3.91503
    endloop
  endfacet
  facet normal 0.809023 -0.587777 0
    outer loop
      vertex 3.92843 -2.41421 -1
      vertex 3.92843 -2.41421 1
      vertex 3.85933 -2.50932 -1
    endloop
  endfacet
  facet normal 0.774588 -0.447221 -0.447221
    outer loop
      vertex 3.92843 -2.41421 -1
      vertex 3.87843 -2.41421 -1.0866
      vertex 3.92843 -1 -2.41421
    endloop
  endfacet
  facet normal -0.577354 -0.577346 0.57735
    outer loop
      vertex -1.04045 -3.85782 2.50082
      vertex -1.04045 -2.4436 3.91503
      vertex -2.45466 -3.85782 1.0866
    endloop
  endfacet
  facet normal 0.697426 -0.506753 0.506753
    outer loop
      vertex 3.87843 -1 2.50082
      vertex 3.84388 -1.04755 2.50082
      vertex 3.84388 -2.46177 1.0866
    endloop
  endfacet
  facet normal 0 -1 0
    outer loop
      vertex 1.0309 -3.92353 -2.41421
      vertex 2.44512 -3.92353 1
      vertex -0.969098 -3.92353 -2.41421
    endloop
  endfacet
  facet normal -0 -1 0
    outer loop
      vertex 2.44512 -3.92353 -1
      vertex 2.44512 -3.92353 1
      vertex 1.0309 -3.92353 -2.41421
    endloop
  endfacet
  facet normal 0 0 1
    outer loop
      vertex 2.42966 1.04755 3.91503
      vertex -1.04045 -2.4436 3.91503
      vertex 2.46421 1 3.91503
    endloop
  endfacet
  facet normal -0.27994 -0.861726 0.423158
    outer loop
      vertex -1.04045 -3.85782 2.50082
      vertex -1.0809 -3.88721 2.41421
      vertex -0.984549 -3.87598 2.50082
    endloop
  endfacet
  facet normal -0 0 1
    outer loop
      vertex -0.984549 2.46177 3.91503
      vertex -1.04045 -2.4436 3.91503
      vertex 1.01545 2.46177 3.91503
    endloop
  endfacet
  facet normal -0 0 1
    outer loop
      vertex -2.45466 -1.02939 3.91503
      vertex -1.04045 -2.4436 3.91503
      vertex -2.45466 1.02939 3.91503
    endloop
  endfacet
  facet normal 0 0 1
    outer loop
      vertex 2.42966 -1.04755 3.91503
      vertex -1.04045 -2.4436 3.91503
      vertex 1.01545 -2.46177 3.91503
    endloop
  endfacet
  facet normal -0.61425 -0.61425 0.495372
    outer loop
      vertex -3.90933 -2.47299 1
      vertex -2.45466 -3.85782 1.0866
      vertex -3.86888 -2.4436 1.0866
    endloop
  endfacet
  facet normal -0.295201 -0.908687 0.295201
    outer loop
      vertex -2.38331 -3.92353 1
      vertex -1.0809 -3.88721 2.41421
      vertex -2.49511 -3.88721 1
    endloop
  endfacet
  facet normal -0.295197 -0.90869 0.295197
    outer loop
      vertex -0.969098 -3.92353 2.41421
      vertex -1.0809 -3.88721 2.41421
      vertex -2.38331 -3.92353 1
    endloop
  endfacet
  facet normal -0.61425 0.61425 0.495372
    outer loop
      vertex -3.90933 2.47299 1
      vertex -2.45466 3.85782 1.0866
      vertex -2.49511 3.88721 1
    endloop
  endfacet
  facet normal 0 0.707107 0.707107
    outer loop
      vertex 1.01545 3.87598 2.50082
      vertex -0.984549 2.46177 3.91503
      vertex 1.01545 2.46177 3.91503
    endloop
  endfacet
  facet normal -0.57735 -0.57735 0.57735
    outer loop
      vertex -3.86888 -2.4436 1.0866
      vertex -1.04045 -2.4436 3.91503
      vertex -2.45466 -1.02939 3.91503
    endloop
  endfacet
  facet normal 0.577352 -0.577348 0.577352
    outer loop
      vertex 3.84388 -2.46177 1.0866
      vertex 2.42966 -1.04755 3.91503
      vertex 1.01545 -2.46177 3.91503
    endloop
  endfacet
  facet normal -0.707138 0.499978 0.499978
    outer loop
      vertex -3.90933 2.47299 1
      vertex -3.90933 1.05878 2.41421
      vertex -3.86888 2.4436 1.0866
    endloop
  endfacet
  facet normal -1 0 0
    outer loop
      vertex -3.90933 1.05878 -2.41421
      vertex -3.90933 -1.05878 -2.41421
      vertex -3.90933 2.47299 -1
    endloop
  endfacet
  facet normal -0.707136 0.499981 -0.499978
    outer loop
      vertex -3.86888 2.4436 -1.0866
      vertex -3.86888 1.02939 -2.50082
      vertex -3.90933 2.47299 -1
    endloop
  endfacet
  facet normal -1 -0 0
    outer loop
      vertex -3.90933 1.05878 2.41421
      vertex -3.90933 -1.05878 -2.41421
      vertex -3.90933 -1.05878 2.41421
    endloop
  endfacet
  facet normal -0.707104 -0 -0.707109
    outer loop
      vertex -2.45466 1.02939 -3.91503
      vertex -2.45466 -1.02939 -3.91503
      vertex -3.86888 1.02939 -2.50082
    endloop
  endfacet
  facet normal -0.57735 -0.57735 -0.57735
    outer loop
      vertex -3.86888 -2.4436 -1.0866
      vertex -2.45466 -1.02939 -3.91503
      vertex -2.45466 -3.85782 -1.0866
    endloop
  endfacet
  facet normal -0.57735 -0.57735 -0.57735
    outer loop
      vertex -2.45466 -3.85782 -1.0866
      vertex -2.45466 -1.02939 -3.91503
      vertex -1.04045 -2.4436 -3.91503
    endloop
  endfacet
  facet normal -1 0 -0
    outer loop
      vertex -3.90933 -1.05878 2.41421
      vertex -3.90933 -1.05878 -2.41421
      vertex -3.90933 -2.47299 1
    endloop
  endfacet
  facet normal -0 0.707107 0.707107
    outer loop
      vertex -0.984549 3.87598 2.50082
      vertex -0.984549 2.46177 3.91503
      vertex 1.01545 3.87598 2.50082
    endloop
  endfacet
  facet normal 0.697426 0.506753 0.506753
    outer loop
      vertex 3.87843 1 2.50082
      vertex 3.84388 2.46177 1.0866
      vertex 3.84388 1.04755 2.50082
    endloop
  endfacet
  facet normal 0.866044 0 0.499968
    outer loop
      vertex 3.92843 1 2.41421
      vertex 3.87843 1 2.50082
      vertex 3.92843 -1 2.41421
    endloop
  endfacet
  facet normal 1 0 0
    outer loop
      vertex 3.92843 2.41421 -1
      vertex 3.92843 -1 -2.41421
      vertex 3.92843 1 -2.41421
    endloop
  endfacet
  facet normal 0.73301 0.532552 0.423185
    outer loop
      vertex 3.92843 2.41421 1
      vertex 3.85933 2.50932 1
      vertex 3.84388 2.46177 1.0866
    endloop
  endfacet
  facet normal 0.628767 0.628771 0.457492
    outer loop
      vertex 3.84388 2.46177 1.0866
      vertex 2.44512 3.92353 1
      vertex 2.42966 3.87598 1.0866
    endloop
  endfacet
  facet normal 0.577349 0.577353 -0.577349
    outer loop
      vertex 1.01545 2.46177 -3.91503
      vertex 2.42966 3.87598 -1.0866
      vertex 3.84388 2.46177 -1.0866
    endloop
  endfacet
  facet normal 0.628767 0.628771 -0.457492
    outer loop
      vertex 3.84388 2.46177 -1.0866
      vertex 2.42966 3.87598 -1.0866
      vertex 2.44512 3.92353 -1
    endloop
  endfacet
  facet normal 0.628947 0.456995 -0.628952
    outer loop
      vertex 2.42966 1.04755 -3.91503
      vertex 3.84388 1.04755 -2.50082
      vertex 2.46421 1 -3.91503
    endloop
  endfacet
  facet normal 0.57735 0.577346 -0.577354
    outer loop
      vertex 1.01545 2.46177 -3.91503
      vertex 3.84388 1.04755 -2.50082
      vertex 2.42966 1.04755 -3.91503
    endloop
  endfacet
  facet normal 1 0 0
    outer loop
      vertex 3.92843 1 2.41421
      vertex 3.92843 -1 -2.41421
      vertex 3.92843 2.41421 1
    endloop
  endfacet
  facet normal 1 -0 0
    outer loop
      vertex 3.92843 -1 2.41421
      vertex 3.92843 -1 -2.41421
      vertex 3.92843 1 2.41421
    endloop
  endfacet
  facet normal 0.733022 -0.532504 -0.423223
    outer loop
      vertex 3.84388 -2.46177 -1.0866
      vertex 3.87843 -2.41421 -1.0866
      vertex 3.92843 -2.41421 -1
    endloop
  endfacet
  facet normal 0.697503 -0.506702 -0.506698
    outer loop
      vertex 3.87843 -1 -2.50082
      vertex 3.87843 -2.41421 -1.0866
      vertex 3.84388 -2.46177 -1.0866
    endloop
  endfacet
  facet normal 0 0 1
    outer loop
      vertex 2.46421 -1 3.91503
      vertex -1.04045 -2.4436 3.91503
      vertex 2.42966 -1.04755 3.91503
    endloop
  endfacet
  facet normal -0.57735 -0.57735 0.57735
    outer loop
      vertex -2.45466 -3.85782 1.0866
      vertex -1.04045 -2.4436 3.91503
      vertex -3.86888 -2.4436 1.0866
    endloop
  endfacet
  facet normal 0.774588 -0.447221 0.447221
    outer loop
      vertex 3.92843 -1 2.41421
      vertex 3.87843 -2.41421 1.0866
      vertex 3.92843 -2.41421 1
    endloop
  endfacet
  facet normal 0.774622 -0.447193 0.44719
    outer loop
      vertex 3.87843 -1 2.50082
      vertex 3.87843 -2.41421 1.0866
      vertex 3.92843 -1 2.41421
    endloop
  endfacet
  facet normal 0.485663 -0.726815 0.485666
    outer loop
      vertex 2.44512 -3.92353 1
      vertex 1.01545 -3.87598 2.50082
      vertex 1.0309 -3.92353 2.41421
    endloop
  endfacet
  facet normal 0.628767 -0.628771 0.457492
    outer loop
      vertex 3.84388 -2.46177 1.0866
      vertex 2.42966 -3.87598 1.0866
      vertex 2.44512 -3.92353 1
    endloop
  endfacet
  facet normal 0.57735 -0.57735 0.57735
    outer loop
      vertex 1.01545 -2.46177 3.91503
      vertex 1.01545 -3.87598 2.50082
      vertex 3.84388 -2.46177 1.0866
    endloop
  endfacet
  facet normal 0 -0.707107 0.707107
    outer loop
      vertex -0.984549 -2.46177 3.91503
      vertex 1.01545 -3.87598 2.50082
      vertex 1.01545 -2.46177 3.91503
    endloop
  endfacet
  facet normal 0 0.876581 0.481254
    outer loop
      vertex 1.0309 3.92353 2.41421
      vertex -0.969098 3.92353 2.41421
      vertex 1.01545 3.87598 2.50082
    endloop
  endfacet
  facet normal -0.473158 0.743133 -0.473154
    outer loop
      vertex -1.04045 3.85782 -2.50082
      vertex -2.45466 3.85782 -1.0866
      vertex -1.0809 3.88721 -2.41421
    endloop
  endfacet
  facet normal -0.27994 0.861726 0.423158
    outer loop
      vertex -0.984549 3.87598 2.50082
      vertex -1.0809 3.88721 2.41421
      vertex -1.04045 3.85782 2.50082
    endloop
  endfacet
  facet normal -0.47321 0.743064 0.47321
    outer loop
      vertex -2.45466 3.85782 1.0866
      vertex -1.0809 3.88721 2.41421
      vertex -2.49511 3.88721 1
    endloop
  endfacet
  facet normal 0 0 1
    outer loop
      vertex 1.01545 -2.46177 3.91503
      vertex -1.04045 -2.4436 3.91503
      vertex -0.984549 -2.46177 3.91503
    endloop
  endfacet
  facet normal 0 0 1
    outer loop
      vertex 2.46421 1 3.91503
      vertex -1.04045 -2.4436 3.91503
      vertex 2.46421 -1 3.91503
    endloop
  endfacet
  facet normal -0.906055 0 0.42316
    outer loop
      vertex -3.90933 -1.05878 2.41421
      vertex -3.86888 -1.02939 2.50082
      vertex -3.90933 1.05878 2.41421
    endloop
  endfacet
  facet normal -0.7072 -0.499934 0.499934
    outer loop
      vertex -3.90933 -2.47299 1
      vertex -3.86888 -1.02939 2.50082
      vertex -3.90933 -1.05878 2.41421
    endloop
  endfacet
  facet normal -0.707107 0.707107 0
    outer loop
      vertex -3.90933 2.47299 1
      vertex -2.49511 3.88721 -1
      vertex -3.90933 2.47299 -1
    endloop
  endfacet
  facet normal -0.707107 0.707107 0
    outer loop
      vertex -2.49511 3.88721 1
      vertex -2.49511 3.88721 -1
      vertex -3.90933 2.47299 1
    endloop
  endfacet
  facet normal -0.577354 0.577346 -0.57735
    outer loop
      vertex -1.04045 2.4436 -3.91503
      vertex -2.45466 3.85782 -1.0866
      vertex -1.04045 3.85782 -2.50082
    endloop
  endfacet
  facet normal -0.577346 -0.577354 -0.57735
    outer loop
      vertex -3.86888 -1.02939 -2.50082
      vertex -2.45466 -1.02939 -3.91503
      vertex -3.86888 -2.4436 -1.0866
    endloop
  endfacet
  facet normal -0.707197 -0.499938 -0.499934
    outer loop
      vertex -3.86888 -2.4436 -1.0866
      vertex -3.90933 -1.05878 -2.41421
      vertex -3.86888 -1.02939 -2.50082
    endloop
  endfacet
  facet normal -0.707138 -0.499978 -0.499978
    outer loop
      vertex -3.90933 -2.47299 -1
      vertex -3.90933 -1.05878 -2.41421
      vertex -3.86888 -2.4436 -1.0866
    endloop
  endfacet
  facet normal -0.906055 0 -0.42316
    outer loop
      vertex -3.90933 -1.05878 -2.41421
      vertex -3.86888 1.02939 -2.50082
      vertex -3.86888 -1.02939 -2.50082
    endloop
  endfacet
  facet normal -0.906055 -0 -0.42316
    outer loop
      vertex -3.90933 1.05878 -2.41421
      vertex -3.86888 1.02939 -2.50082
      vertex -3.90933 -1.05878 -2.41421
    endloop
  endfacet
  facet normal 0.707104 -0 0.707109
    outer loop
      vertex 2.46421 -1 3.91503
      vertex 3.87843 1 2.50082
      vertex 2.46421 1 3.91503
    endloop
  endfacet
  facet normal 0.707104 -0 0.707109
    outer loop
      vertex 3.87843 -1 2.50082
      vertex 3.87843 1 2.50082
      vertex 2.46421 -1 3.91503
    endloop
  endfacet
  facet normal 0 1 0
    outer loop
      vertex 1.0309 3.92353 2.41421
      vertex -2.38331 3.92353 -1
      vertex -0.969098 3.92353 2.41421
    endloop
  endfacet
  facet normal -0.308971 0.951072 0
    outer loop
      vertex -2.38331 3.92353 1
      vertex -2.38331 3.92353 -1
      vertex -2.49511 3.88721 1
    endloop
  endfacet
  facet normal 0.733022 0.532504 0.423223
    outer loop
      vertex 3.84388 2.46177 1.0866
      vertex 3.87843 2.41421 1.0866
      vertex 3.92843 2.41421 1
    endloop
  endfacet
  facet normal 0.707107 0.707107 0
    outer loop
      vertex 2.44512 3.92353 1
      vertex 3.85933 2.50932 1
      vertex 2.44512 3.92353 -1
    endloop
  endfacet
  facet normal 0.73301 0.532552 -0.423185
    outer loop
      vertex 3.84388 2.46177 -1.0866
      vertex 3.85933 2.50932 -1
      vertex 3.92843 2.41421 -1
    endloop
  endfacet
  facet normal 0.62879 0.62879 -0.457434
    outer loop
      vertex 2.44512 3.92353 -1
      vertex 3.85933 2.50932 -1
      vertex 3.84388 2.46177 -1.0866
    endloop
  endfacet
  facet normal 0.628947 0.456995 -0.628952
    outer loop
      vertex 3.84388 1.04755 -2.50082
      vertex 3.87843 1 -2.50082
      vertex 2.46421 1 -3.91503
    endloop
  endfacet
  facet normal 0.733022 0.532504 -0.423223
    outer loop
      vertex 3.92843 2.41421 -1
      vertex 3.87843 2.41421 -1.0866
      vertex 3.84388 2.46177 -1.0866
    endloop
  endfacet
  facet normal 0.577353 0.577349 -0.577349
    outer loop
      vertex 1.01545 3.87598 -2.50082
      vertex 2.42966 3.87598 -1.0866
      vertex 1.01545 2.46177 -3.91503
    endloop
  endfacet
  facet normal 0.485741 0.726715 -0.485737
    outer loop
      vertex 2.44512 3.92353 -1
      vertex 2.42966 3.87598 -1.0866
      vertex 1.01545 3.87598 -2.50082
    endloop
  endfacet
  facet normal -0.577354 0.577346 0.57735
    outer loop
      vertex -1.04045 3.85782 2.50082
      vertex -2.45466 3.85782 1.0866
      vertex -1.04045 2.4436 3.91503
    endloop
  endfacet
  facet normal -0.473158 0.743133 0.473154
    outer loop
      vertex -1.04045 3.85782 2.50082
      vertex -1.0809 3.88721 2.41421
      vertex -2.45466 3.85782 1.0866
    endloop
  endfacet
  facet normal -0.295197 0.90869 0.295197
    outer loop
      vertex -2.38331 3.92353 1
      vertex -1.0809 3.88721 2.41421
      vertex -0.969098 3.92353 2.41421
    endloop
  endfacet
  facet normal -0.295201 0.908687 0.295201
    outer loop
      vertex -2.49511 3.88721 1
      vertex -1.0809 3.88721 2.41421
      vertex -2.38331 3.92353 1
    endloop
  endfacet
  facet normal 0 1 0
    outer loop
      vertex 2.44512 3.92353 1
      vertex -2.38331 3.92353 -1
      vertex 1.0309 3.92353 2.41421
    endloop
  endfacet
  facet normal 0 1 -0
    outer loop
      vertex 2.44512 3.92353 -1
      vertex -2.38331 3.92353 -1
      vertex 2.44512 3.92353 1
    endloop
  endfacet
  facet normal -0.295197 0.90869 -0.295197
    outer loop
      vertex -0.969098 3.92353 -2.41421
      vertex -1.0809 3.88721 -2.41421
      vertex -2.38331 3.92353 -1
    endloop
  endfacet
  facet normal -0.47321 0.743064 -0.47321
    outer loop
      vertex -1.0809 3.88721 -2.41421
      vertex -2.45466 3.85782 -1.0866
      vertex -2.49511 3.88721 -1
    endloop
  endfacet
  facet normal 0.774622 0.447193 0.44719
    outer loop
      vertex 3.92843 1 2.41421
      vertex 3.87843 2.41421 1.0866
      vertex 3.87843 1 2.50082
    endloop
  endfacet
  facet normal 0.774588 0.447221 0.447221
    outer loop
      vertex 3.92843 2.41421 1
      vertex 3.87843 2.41421 1.0866
      vertex 3.92843 1 2.41421
    endloop
  endfacet
  facet normal 0.809023 0.587777 -0
    outer loop
      vertex 3.85933 2.50932 -1
      vertex 3.85933 2.50932 1
      vertex 3.92843 2.41421 -1
    endloop
  endfacet
  facet normal 0.707107 0.707107 0
    outer loop
      vertex 2.44512 3.92353 -1
      vertex 3.85933 2.50932 1
      vertex 3.85933 2.50932 -1
    endloop
  endfacet
  facet normal 0.866044 0 -0.499968
    outer loop
      vertex 3.87843 -1 -2.50082
      vertex 3.87843 1 -2.50082
      vertex 3.92843 -1 -2.41421
    endloop
  endfacet
  facet normal 0.707104 0 -0.707109
    outer loop
      vertex 2.46421 -1 -3.91503
      vertex 3.87843 1 -2.50082
      vertex 3.87843 -1 -2.50082
    endloop
  endfacet
  facet normal -0.27994 0.861726 -0.423158
    outer loop
      vertex -0.969098 3.92353 -2.41421
      vertex -1.04045 3.85782 -2.50082
      vertex -1.0809 3.88721 -2.41421
    endloop
  endfacet
  facet normal -0.27994 0.861726 -0.423158
    outer loop
      vertex -0.984549 3.87598 -2.50082
      vertex -1.04045 3.85782 -2.50082
      vertex -0.969098 3.92353 -2.41421
    endloop
  endfacet
  facet normal 0 0 -1
    outer loop
      vertex -1.04045 -2.4436 -3.91503
      vertex -1.04045 2.4436 -3.91503
      vertex -0.984549 -2.46177 -3.91503
    endloop
  endfacet
  facet normal 0 0 -1
    outer loop
      vertex -2.45466 -1.02939 -3.91503
      vertex -1.04045 2.4436 -3.91503
      vertex -1.04045 -2.4436 -3.91503
    endloop
  endfacet
  facet normal -0.57735 0.57735 -0.57735
    outer loop
      vertex -3.86888 2.4436 -1.0866
      vertex -2.45466 3.85782 -1.0866
      vertex -2.45466 1.02939 -3.91503
    endloop
  endfacet
  facet normal -0.61425 0.61425 -0.495372
    outer loop
      vertex -3.90933 2.47299 -1
      vertex -2.45466 3.85782 -1.0866
      vertex -3.86888 2.4436 -1.0866
    endloop
  endfacet
endsolid OpenSCAD_Model
