solid OpenSCAD_Model
  facet normal -0.743018 0.669271 0
    outer loop
      vertex 0.190983 55.8378 0
      vertex 0.330869 55.9931 2
      vertex 0.330869 55.9931 0
    endloop
  endfacet
  facet normal -0.743018 0.669271 0
    outer loop
      vertex 0.330869 55.9931 2
      vertex 0.190983 55.8378 0
      vertex 0.190983 55.8378 2
    endloop
  endfacet
  facet normal 0 0 -1
    outer loop
      vertex 11 50.25 0
      vertex 12 50.25 0
      vertex 11.8689 49.0025 0
    endloop
  endfacet
  facet normal 0 0 -1
    outer loop
      vertex 10.8907 49.2104 0
      vertex 11.8689 49.0025 0
      vertex 11.4813 47.8096 0
    endloop
  endfacet
  facet normal 0 0 -1
    outer loop
      vertex 12 50.25 0
      vertex 11 50.25 0
      vertex 11.8689 51.4975 0
    endloop
  endfacet
  facet normal 0 0 -1
    outer loop
      vertex 10.8907 51.2896 0
      vertex 11.8689 51.4975 0
      vertex 11 50.25 0
    endloop
  endfacet
  facet normal 0 0 -1
    outer loop
      vertex 11.8689 49.0025 0
      vertex 10.8907 49.2104 0
      vertex 11 50.25 0
    endloop
  endfacet
  facet normal 0 0 -1
    outer loop
      vertex 10.5677 48.2163 0
      vertex 11.4813 47.8096 0
      vertex 10.8541 46.7233 0
    endloop
  endfacet
  facet normal 0 0 -1
    outer loop
      vertex 11.4813 47.8096 0
      vertex 10.5677 48.2163 0
      vertex 10.8907 49.2104 0
    endloop
  endfacet
  facet normal 0 0 -1
    outer loop
      vertex 10.8541 46.7233 0
      vertex 10.0451 47.3111 0
      vertex 10.5677 48.2163 0
    endloop
  endfacet
  facet normal 0 0 -1
    outer loop
      vertex 10.0148 45.7911 0
      vertex 10.0451 47.3111 0
      vertex 10.8541 46.7233 0
    endloop
  endfacet
  facet normal 0 0 -1
    outer loop
      vertex 10.0148 45.7911 0
      vertex 9.34565 46.5343 0
      vertex 10.0451 47.3111 0
    endloop
  endfacet
  facet normal 0 0 -1
    outer loop
      vertex 9 45.0538 0
      vertex 9.34565 46.5343 0
      vertex 10.0148 45.7911 0
    endloop
  endfacet
  facet normal 0 0 -1
    outer loop
      vertex 9 45.0538 0
      vertex 8.5 45.9199 0
      vertex 9.34565 46.5343 0
    endloop
  endfacet
  facet normal 0 0 -1
    outer loop
      vertex 7.8541 44.5437 0
      vertex 8.5 45.9199 0
      vertex 9 45.0538 0
    endloop
  endfacet
  facet normal 0 0 -1
    outer loop
      vertex 7.8541 44.5437 0
      vertex 7.54508 45.4947 0
      vertex 8.5 45.9199 0
    endloop
  endfacet
  facet normal 0 0 -1
    outer loop
      vertex 6.62717 44.2829 0
      vertex 7.54508 45.4947 0
      vertex 7.8541 44.5437 0
    endloop
  endfacet
  facet normal 0 0 -1
    outer loop
      vertex 6.62717 44.2829 0
      vertex 6.52264 45.2774 0
      vertex 7.54508 45.4947 0
    endloop
  endfacet
  facet normal 0 0 -1
    outer loop
      vertex 6.62717 44.2829 0
      vertex 5.47736 45.2774 0
      vertex 6.52264 45.2774 0
    endloop
  endfacet
  facet normal 0 0 -1
    outer loop
      vertex 5.37283 44.2829 0
      vertex 5.47736 45.2774 0
      vertex 6.62717 44.2829 0
    endloop
  endfacet
  facet normal 0 0 -1
    outer loop
      vertex 5.37283 44.2829 0
      vertex 4.45492 45.4947 0
      vertex 5.47736 45.2774 0
    endloop
  endfacet
  facet normal 0 0 -1
    outer loop
      vertex 4.1459 44.5437 0
      vertex 4.45492 45.4947 0
      vertex 5.37283 44.2829 0
    endloop
  endfacet
  facet normal 0 0 -1
    outer loop
      vertex 4.1459 44.5437 0
      vertex 3.5 45.9199 0
      vertex 4.45492 45.4947 0
    endloop
  endfacet
  facet normal 0 0 -1
    outer loop
      vertex 3 45.0538 0
      vertex 3.5 45.9199 0
      vertex 4.1459 44.5437 0
    endloop
  endfacet
  facet normal 0 0 -1
    outer loop
      vertex 2 45.7804 0
      vertex 3.5 45.9199 0
      vertex 3 45.0538 0
    endloop
  endfacet
  facet normal -0 0 -1
    outer loop
      vertex 3.5 45.9199 0
      vertex 2 45.7804 0
      vertex 2.65435 46.5343 0
    endloop
  endfacet
  facet normal -0 0 -1
    outer loop
      vertex 2.65435 46.5343 0
      vertex 2 45.7804 0
      vertex 1.95492 47.3111 0
    endloop
  endfacet
  facet normal -0 0 -1
    outer loop
      vertex 11.8689 51.4975 0
      vertex 10.8907 51.2896 0
      vertex 11.4813 52.6904 0
    endloop
  endfacet
  facet normal 0 0 -1
    outer loop
      vertex 10.5677 52.2837 0
      vertex 11.4813 52.6904 0
      vertex 10.8907 51.2896 0
    endloop
  endfacet
  facet normal -0 0 -1
    outer loop
      vertex 11.4813 52.6904 0
      vertex 10.5677 52.2837 0
      vertex 10.8541 53.7767 0
    endloop
  endfacet
  facet normal 0 0 -1
    outer loop
      vertex 10.0451 53.1889 0
      vertex 10.8541 53.7767 0
      vertex 10.5677 52.2837 0
    endloop
  endfacet
  facet normal -0 0 -1
    outer loop
      vertex 10.8541 53.7767 0
      vertex 10.0451 53.1889 0
      vertex 10.4329 54.2445 0
    endloop
  endfacet
  facet normal 0 0 -1
    outer loop
      vertex 84.8188 0.00547791 0
      vertex 85.7143 1 0
      vertex 85.6924 0.792088 0
    endloop
  endfacet
  facet normal 0 0 -1
    outer loop
      vertex 85.7143 1 0
      vertex 83.7143 3 0
      vertex 85.7143 55.25 0
    endloop
  endfacet
  facet normal 0 0 -1
    outer loop
      vertex 84.8188 0.00547791 0
      vertex 85.6924 0.792088 0
      vertex 85.6278 0.593263 0
    endloop
  endfacet
  facet normal 0 0 -1
    outer loop
      vertex 83.7143 53.25 0
      vertex 85.7143 55.25 0
      vertex 83.7143 3 0
    endloop
  endfacet
  facet normal 0 0 -1
    outer loop
      vertex 84.8188 0.00547791 0
      vertex 85.6278 0.593263 0
      vertex 85.5233 0.412214 0
    endloop
  endfacet
  facet normal 0 0 -1
    outer loop
      vertex 83.6924 53.4579 0
      vertex 85.7143 55.25 0
      vertex 83.7143 53.25 0
    endloop
  endfacet
  facet normal 0 0 -1
    outer loop
      vertex 84.8188 0.00547791 0
      vertex 85.5233 0.412214 0
      vertex 85.3834 0.256855 0
    endloop
  endfacet
  facet normal 0 0 -1
    outer loop
      vertex 83.6278 53.6567 0
      vertex 85.7143 55.25 0
      vertex 83.6924 53.4579 0
    endloop
  endfacet
  facet normal 0 0 -1
    outer loop
      vertex 84.8188 0.00547791 0
      vertex 85.3834 0.256855 0
      vertex 85.2143 0.133974 0
    endloop
  endfacet
  facet normal 0 0 -1
    outer loop
      vertex 83.5233 53.8378 0
      vertex 85.7143 55.25 0
      vertex 83.6278 53.6567 0
    endloop
  endfacet
  facet normal 0 0 -1
    outer loop
      vertex 84.8188 0.00547791 0
      vertex 85.2143 0.133974 0
      vertex 85.0233 0.0489426 0
    endloop
  endfacet
  facet normal 0 0 -1
    outer loop
      vertex 83.3834 53.9931 0
      vertex 85.7143 55.25 0
      vertex 83.5233 53.8378 0
    endloop
  endfacet
  facet normal -0 0 -1
    outer loop
      vertex 85.7143 1 0
      vertex 84.8188 0.00547791 0
      vertex 83.3834 2.25686 0
    endloop
  endfacet
  facet normal 0 -0 -1
    outer loop
      vertex 84.8188 56.2445 0
      vertex 85.7143 55.25 0
      vertex 83.3834 53.9931 0
    endloop
  endfacet
  facet normal 0 0 -1
    outer loop
      vertex 85.7143 55.25 0
      vertex 84.8188 56.2445 0
      vertex 85.6924 55.4579 0
    endloop
  endfacet
  facet normal 0 0 -1
    outer loop
      vertex 85.7143 1 0
      vertex 83.6924 2.79209 0
      vertex 83.7143 3 0
    endloop
  endfacet
  facet normal 0 0 -1
    outer loop
      vertex 85.7143 1 0
      vertex 83.6278 2.59326 0
      vertex 83.6924 2.79209 0
    endloop
  endfacet
  facet normal 0 0 -1
    outer loop
      vertex 85.7143 1 0
      vertex 83.5233 2.41221 0
      vertex 83.6278 2.59326 0
    endloop
  endfacet
  facet normal 0 0 -1
    outer loop
      vertex 85.7143 1 0
      vertex 83.3834 2.25686 0
      vertex 83.5233 2.41221 0
    endloop
  endfacet
  facet normal 0 0 -1
    outer loop
      vertex 84.8188 0.00547791 0
      vertex 83.2143 2.13397 0
      vertex 83.3834 2.25686 0
    endloop
  endfacet
  facet normal 0 0 -1
    outer loop
      vertex 84.8188 0.00547791 0
      vertex 83.0233 2.04894 0
      vertex 83.2143 2.13397 0
    endloop
  endfacet
  facet normal 0 0 -1
    outer loop
      vertex 84.8188 0.00547791 0
      vertex 82.8188 2.00548 0
      vertex 83.0233 2.04894 0
    endloop
  endfacet
  facet normal 0 0 -1
    outer loop
      vertex 84.8188 0.00547791 0
      vertex 2.89547 2.00548 0
      vertex 82.8188 2.00548 0
    endloop
  endfacet
  facet normal 0 0 -1
    outer loop
      vertex 0 1 0
      vertex 2 45.7804 0
      vertex 2 3 0
    endloop
  endfacet
  facet normal 0 -0 -1
    outer loop
      vertex 1.10926 49.2104 0
      vertex 2 45.7804 0
      vertex 0 1 0
    endloop
  endfacet
  facet normal 0 0 -1
    outer loop
      vertex 2 45.7804 0
      vertex 1.43227 48.2163 0
      vertex 1.95492 47.3111 0
    endloop
  endfacet
  facet normal 0 0 -1
    outer loop
      vertex 2 45.7804 0
      vertex 1.10926 49.2104 0
      vertex 1.43227 48.2163 0
    endloop
  endfacet
  facet normal -0 0 -1
    outer loop
      vertex 2.02185 2.79209 0
      vertex 0 1 0
      vertex 2 3 0
    endloop
  endfacet
  facet normal -0 0 -1
    outer loop
      vertex 2.08645 2.59326 0
      vertex 0 1 0
      vertex 2.02185 2.79209 0
    endloop
  endfacet
  facet normal -0 0 -1
    outer loop
      vertex 2.19098 2.41221 0
      vertex 0 1 0
      vertex 2.08645 2.59326 0
    endloop
  endfacet
  facet normal -0 0 -1
    outer loop
      vertex 2.33087 2.25686 0
      vertex 0 1 0
      vertex 2.19098 2.41221 0
    endloop
  endfacet
  facet normal 0 0 -1
    outer loop
      vertex 0 1 0
      vertex 2.33087 2.25686 0
      vertex 0.895471 0.00547791 0
    endloop
  endfacet
  facet normal -0 0 -1
    outer loop
      vertex 2.5 2.13397 0
      vertex 0.895471 0.00547791 0
      vertex 2.33087 2.25686 0
    endloop
  endfacet
  facet normal -0 0 -1
    outer loop
      vertex 2.69098 2.04894 0
      vertex 0.895471 0.00547791 0
      vertex 2.5 2.13397 0
    endloop
  endfacet
  facet normal -0 0 -1
    outer loop
      vertex 2.89547 2.00548 0
      vertex 0.895471 0.00547791 0
      vertex 2.69098 2.04894 0
    endloop
  endfacet
  facet normal 0 0 -1
    outer loop
      vertex 0.895471 0.00547791 0
      vertex 2.89547 2.00548 0
      vertex 84.8188 0.00547791 0
    endloop
  endfacet
  facet normal 0 0 -1
    outer loop
      vertex 85.6278 55.6567 0
      vertex 84.8188 56.2445 0
      vertex 85.5233 55.8378 0
    endloop
  endfacet
  facet normal 0 0 -1
    outer loop
      vertex 85.5233 55.8378 0
      vertex 84.8188 56.2445 0
      vertex 85.3834 55.9931 0
    endloop
  endfacet
  facet normal 0 0 -1
    outer loop
      vertex 85.3834 55.9931 0
      vertex 84.8188 56.2445 0
      vertex 85.2143 56.116 0
    endloop
  endfacet
  facet normal 0 0 -1
    outer loop
      vertex 85.2143 56.116 0
      vertex 84.8188 56.2445 0
      vertex 85.0233 56.2011 0
    endloop
  endfacet
  facet normal 0 0 -1
    outer loop
      vertex 85.6924 55.4579 0
      vertex 84.8188 56.2445 0
      vertex 85.6278 55.6567 0
    endloop
  endfacet
  facet normal 0 0 -1
    outer loop
      vertex 83.2143 54.116 0
      vertex 84.8188 56.2445 0
      vertex 83.3834 53.9931 0
    endloop
  endfacet
  facet normal 0 0 -1
    outer loop
      vertex 83.0233 54.2011 0
      vertex 84.8188 56.2445 0
      vertex 83.2143 54.116 0
    endloop
  endfacet
  facet normal 0 0 -1
    outer loop
      vertex 82.8188 54.2445 0
      vertex 84.8188 56.2445 0
      vertex 83.0233 54.2011 0
    endloop
  endfacet
  facet normal 0 0 -1
    outer loop
      vertex 10.4329 54.2445 0
      vertex 84.8188 56.2445 0
      vertex 82.8188 54.2445 0
    endloop
  endfacet
  facet normal 0 0 -1
    outer loop
      vertex 9.34565 53.9657 0
      vertex 10.4329 54.2445 0
      vertex 10.0451 53.1889 0
    endloop
  endfacet
  facet normal 0 0 -1
    outer loop
      vertex 8.5 54.5801 0
      vertex 10.4329 54.2445 0
      vertex 9.34565 53.9657 0
    endloop
  endfacet
  facet normal 0 0 -1
    outer loop
      vertex 7.54508 55.0053 0
      vertex 10.4329 54.2445 0
      vertex 8.5 54.5801 0
    endloop
  endfacet
  facet normal 0 0 -1
    outer loop
      vertex 10.4329 54.2445 0
      vertex 7.54508 55.0053 0
      vertex 84.8188 56.2445 0
    endloop
  endfacet
  facet normal 0 0 -1
    outer loop
      vertex 6.52264 55.2226 0
      vertex 84.8188 56.2445 0
      vertex 7.54508 55.0053 0
    endloop
  endfacet
  facet normal 0 0 -1
    outer loop
      vertex 0.895471 56.2445 0
      vertex 6.52264 55.2226 0
      vertex 5.47736 55.2226 0
    endloop
  endfacet
  facet normal 0 0 -1
    outer loop
      vertex 6.52264 55.2226 0
      vertex 0.895471 56.2445 0
      vertex 84.8188 56.2445 0
    endloop
  endfacet
  facet normal 0 0 -1
    outer loop
      vertex 4.45492 55.0053 0
      vertex 0.895471 56.2445 0
      vertex 5.47736 55.2226 0
    endloop
  endfacet
  facet normal 0 0 -1
    outer loop
      vertex 3.5 54.5801 0
      vertex 0.895471 56.2445 0
      vertex 4.45492 55.0053 0
    endloop
  endfacet
  facet normal 0 0 -1
    outer loop
      vertex 2.65435 53.9657 0
      vertex 0.895471 56.2445 0
      vertex 3.5 54.5801 0
    endloop
  endfacet
  facet normal 0 0 -1
    outer loop
      vertex 0 55.25 0
      vertex 2.65435 53.9657 0
      vertex 1.95492 53.1889 0
    endloop
  endfacet
  facet normal 0 0 -1
    outer loop
      vertex 0 55.25 0
      vertex 1.95492 53.1889 0
      vertex 1.43227 52.2837 0
    endloop
  endfacet
  facet normal 0 0 -1
    outer loop
      vertex 0 55.25 0
      vertex 1.43227 52.2837 0
      vertex 1.10926 51.2896 0
    endloop
  endfacet
  facet normal 0 0 -1
    outer loop
      vertex 0 55.25 0
      vertex 1.10926 51.2896 0
      vertex 1 50.25 0
    endloop
  endfacet
  facet normal 0 0 -1
    outer loop
      vertex 0 55.25 0
      vertex 1.10926 49.2104 0
      vertex 0 1 0
    endloop
  endfacet
  facet normal 0 0 -1
    outer loop
      vertex 0 1 0
      vertex 0.895471 0.00547791 0
      vertex 0.690983 0.0489426 0
    endloop
  endfacet
  facet normal 0 0 -1
    outer loop
      vertex 1.10926 49.2104 0
      vertex 0 55.25 0
      vertex 1 50.25 0
    endloop
  endfacet
  facet normal 0 0 -1
    outer loop
      vertex 0 1 0
      vertex 0.690983 0.0489426 0
      vertex 0.5 0.133974 0
    endloop
  endfacet
  facet normal 0 0 -1
    outer loop
      vertex 2.65435 53.9657 0
      vertex 0 55.25 0
      vertex 0.895471 56.2445 0
    endloop
  endfacet
  facet normal 0 0 -1
    outer loop
      vertex 0 1 0
      vertex 0.5 0.133974 0
      vertex 0.330869 0.256855 0
    endloop
  endfacet
  facet normal 0 0 -1
    outer loop
      vertex 0.895471 56.2445 0
      vertex 0 55.25 0
      vertex 0.690983 56.2011 0
    endloop
  endfacet
  facet normal 0 0 -1
    outer loop
      vertex 0 1 0
      vertex 0.330869 0.256855 0
      vertex 0.190983 0.412214 0
    endloop
  endfacet
  facet normal 0 0 -1
    outer loop
      vertex 0.690983 56.2011 0
      vertex 0 55.25 0
      vertex 0.5 56.116 0
    endloop
  endfacet
  facet normal 0 0 -1
    outer loop
      vertex 0 1 0
      vertex 0.190983 0.412214 0
      vertex 0.0864544 0.593263 0
    endloop
  endfacet
  facet normal 0 0 -1
    outer loop
      vertex 0.5 56.116 0
      vertex 0 55.25 0
      vertex 0.330869 55.9931 0
    endloop
  endfacet
  facet normal 0 0 -1
    outer loop
      vertex 0 1 0
      vertex 0.0864544 0.593263 0
      vertex 0.0218515 0.792088 0
    endloop
  endfacet
  facet normal 0 0 -1
    outer loop
      vertex 0.330869 55.9931 0
      vertex 0 55.25 0
      vertex 0.190983 55.8378 0
    endloop
  endfacet
  facet normal 0 0 -1
    outer loop
      vertex 0.190983 55.8378 0
      vertex 0 55.25 0
      vertex 0.0864544 55.6567 0
    endloop
  endfacet
  facet normal 0 0 -1
    outer loop
      vertex 0.0864544 55.6567 0
      vertex 0 55.25 0
      vertex 0.0218515 55.4579 0
    endloop
  endfacet
  facet normal 0 -1 0
    outer loop
      vertex 0.895471 0.00547791 0
      vertex 84.8188 0.00547791 2
      vertex 0.895471 0.00547791 2
    endloop
  endfacet
  facet normal 0 -1 -0
    outer loop
      vertex 84.8188 0.00547791 2
      vertex 0.895471 0.00547791 0
      vertex 84.8188 0.00547791 0
    endloop
  endfacet
  facet normal 0.994498 0.104759 0
    outer loop
      vertex 85.7143 55.25 2
      vertex 85.6924 55.4579 0
      vertex 85.6924 55.4579 2
    endloop
  endfacet
  facet normal 0.994498 0.104759 0
    outer loop
      vertex 85.6924 55.4579 0
      vertex 85.7143 55.25 2
      vertex 85.7143 55.25 0
    endloop
  endfacet
  facet normal -0.951044 0.309055 0
    outer loop
      vertex 0.0218515 55.4579 0
      vertex 0.0864544 55.6567 2
      vertex 0.0864544 55.6567 0
    endloop
  endfacet
  facet normal -0.951044 0.309055 0
    outer loop
      vertex 0.0864544 55.6567 2
      vertex 0.0218515 55.4579 0
      vertex 0.0218515 55.4579 2
    endloop
  endfacet
  facet normal -0.207613 0.978211 0
    outer loop
      vertex 0.895471 56.2445 0
      vertex 0.690983 56.2011 2
      vertex 0.895471 56.2445 2
    endloop
  endfacet
  facet normal -0.207613 0.978211 0
    outer loop
      vertex 0.690983 56.2011 2
      vertex 0.895471 56.2445 0
      vertex 0.690983 56.2011 0
    endloop
  endfacet
  facet normal -0.994522 0.10453 0
    outer loop
      vertex 0 55.25 0
      vertex 0.0218515 55.4579 2
      vertex 0.0218515 55.4579 0
    endloop
  endfacet
  facet normal -0.994522 0.10453 0
    outer loop
      vertex 0.0218515 55.4579 2
      vertex 0 55.25 0
      vertex 0 55.25 2
    endloop
  endfacet
  facet normal -0.994522 -0.104524 0
    outer loop
      vertex 0.0218515 0.792088 0
      vertex 0 1 2
      vertex 0 1 0
    endloop
  endfacet
  facet normal -0.994522 -0.104524 0
    outer loop
      vertex 0 1 2
      vertex 0.0218515 0.792088 0
      vertex 0.0218515 0.792088 2
    endloop
  endfacet
  facet normal 0.994498 -0.104754 0
    outer loop
      vertex 85.6924 0.792088 2
      vertex 85.7143 1 0
      vertex 85.7143 1 2
    endloop
  endfacet
  facet normal 0.994498 -0.104754 0
    outer loop
      vertex 85.7143 1 0
      vertex 85.6924 0.792088 2
      vertex 85.6924 0.792088 0
    endloop
  endfacet
  facet normal -0.406738 -0.913545 0
    outer loop
      vertex 0.5 0.133974 0
      vertex 0.690983 0.0489426 2
      vertex 0.5 0.133974 2
    endloop
  endfacet
  facet normal -0.406738 -0.913545 -0
    outer loop
      vertex 0.690983 0.0489426 2
      vertex 0.5 0.133974 0
      vertex 0.690983 0.0489426 0
    endloop
  endfacet
  facet normal 1 -0 0
    outer loop
      vertex 85.7143 1 2
      vertex 85.7143 55.25 0
      vertex 85.7143 55.25 2
    endloop
  endfacet
  facet normal 1 0 0
    outer loop
      vertex 85.7143 55.25 0
      vertex 85.7143 1 2
      vertex 85.7143 1 0
    endloop
  endfacet
  facet normal 0.207897 -0.978151 0
    outer loop
      vertex 84.8188 0.00547791 0
      vertex 85.0233 0.0489426 2
      vertex 84.8188 0.00547791 2
    endloop
  endfacet
  facet normal 0.207897 -0.978151 0
    outer loop
      vertex 85.0233 0.0489426 2
      vertex 84.8188 0.00547791 0
      vertex 85.0233 0.0489426 0
    endloop
  endfacet
  facet normal -1 0 0
    outer loop
      vertex 0 55.25 0
      vertex 0 50.25 2
      vertex 0 55.25 2
    endloop
  endfacet
  facet normal -1 0 0
    outer loop
      vertex 0 1 0
      vertex 0 50.25 2
      vertex 0 55.25 0
    endloop
  endfacet
  facet normal -1 -0 0
    outer loop
      vertex 0 50.25 2
      vertex 0 1 0
      vertex 0 1 2
    endloop
  endfacet
  facet normal 0 1 -0
    outer loop
      vertex 84.8188 56.2445 0
      vertex 0.895471 56.2445 2
      vertex 84.8188 56.2445 2
    endloop
  endfacet
  facet normal 0 1 0
    outer loop
      vertex 0.895471 56.2445 2
      vertex 84.8188 56.2445 0
      vertex 0.895471 56.2445 0
    endloop
  endfacet
  facet normal 0.406708 -0.913558 0
    outer loop
      vertex 85.0233 0.0489426 0
      vertex 85.2143 0.133974 2
      vertex 85.0233 0.0489426 2
    endloop
  endfacet
  facet normal 0.406708 -0.913558 0
    outer loop
      vertex 85.2143 0.133974 2
      vertex 85.0233 0.0489426 0
      vertex 85.2143 0.133974 0
    endloop
  endfacet
  facet normal -0.866026 -0.5 0
    outer loop
      vertex 0.190983 0.412214 0
      vertex 0.0864544 0.593263 2
      vertex 0.0864544 0.593263 0
    endloop
  endfacet
  facet normal -0.866026 -0.5 0
    outer loop
      vertex 0.0864544 0.593263 2
      vertex 0.190983 0.412214 0
      vertex 0.190983 0.412214 2
    endloop
  endfacet
  facet normal 0.406981 0.913436 -0
    outer loop
      vertex 85.2143 56.116 0
      vertex 85.0233 56.2011 2
      vertex 85.2143 56.116 2
    endloop
  endfacet
  facet normal 0.406981 0.913436 0
    outer loop
      vertex 85.0233 56.2011 2
      vertex 85.2143 56.116 0
      vertex 85.0233 56.2011 0
    endloop
  endfacet
  facet normal 0.587916 0.808922 -0
    outer loop
      vertex 85.3834 55.9931 0
      vertex 85.2143 56.116 2
      vertex 85.3834 55.9931 2
    endloop
  endfacet
  facet normal 0.587916 0.808922 0
    outer loop
      vertex 85.2143 56.116 2
      vertex 85.3834 55.9931 0
      vertex 85.2143 56.116 0
    endloop
  endfacet
  facet normal 0.587856 -0.808965 0
    outer loop
      vertex 85.2143 0.133974 0
      vertex 85.3834 0.256855 2
      vertex 85.2143 0.133974 2
    endloop
  endfacet
  facet normal 0.587856 -0.808965 0
    outer loop
      vertex 85.3834 0.256855 2
      vertex 85.2143 0.133974 0
      vertex 85.3834 0.256855 0
    endloop
  endfacet
  facet normal 0.95106 -0.309008 0
    outer loop
      vertex 85.6278 0.593263 2
      vertex 85.6924 0.792088 0
      vertex 85.6924 0.792088 2
    endloop
  endfacet
  facet normal 0.95106 -0.309008 0
    outer loop
      vertex 85.6924 0.792088 0
      vertex 85.6278 0.593263 2
      vertex 85.6278 0.593263 0
    endloop
  endfacet
  facet normal -0.743145 -0.669131 0
    outer loop
      vertex 0.330869 0.256855 0
      vertex 0.190983 0.412214 2
      vertex 0.190983 0.412214 0
    endloop
  endfacet
  facet normal -0.743145 -0.669131 0
    outer loop
      vertex 0.190983 0.412214 2
      vertex 0.330869 0.256855 0
      vertex 0.330869 0.256855 2
    endloop
  endfacet
  facet normal 0.207601 0.978214 -0
    outer loop
      vertex 85.0233 56.2011 0
      vertex 84.8188 56.2445 2
      vertex 85.0233 56.2011 2
    endloop
  endfacet
  facet normal 0.207601 0.978214 0
    outer loop
      vertex 84.8188 56.2445 2
      vertex 85.0233 56.2011 0
      vertex 84.8188 56.2445 0
    endloop
  endfacet
  facet normal 0.866146 0.499791 0
    outer loop
      vertex 85.6278 55.6567 2
      vertex 85.5233 55.8378 0
      vertex 85.5233 55.8378 2
    endloop
  endfacet
  facet normal 0.866146 0.499791 0
    outer loop
      vertex 85.5233 55.8378 0
      vertex 85.6278 55.6567 2
      vertex 85.6278 55.6567 0
    endloop
  endfacet
  facet normal 0.742985 0.669308 0
    outer loop
      vertex 85.5233 55.8378 2
      vertex 85.3834 55.9931 0
      vertex 85.3834 55.9931 2
    endloop
  endfacet
  facet normal 0.742985 0.669308 0
    outer loop
      vertex 85.3834 55.9931 0
      vertex 85.5233 55.8378 2
      vertex 85.5233 55.8378 0
    endloop
  endfacet
  facet normal 0.743111 -0.669168 0
    outer loop
      vertex 85.3834 0.256855 2
      vertex 85.5233 0.412214 0
      vertex 85.5233 0.412214 2
    endloop
  endfacet
  facet normal 0.743111 -0.669168 0
    outer loop
      vertex 85.5233 0.412214 0
      vertex 85.3834 0.256855 2
      vertex 85.3834 0.256855 0
    endloop
  endfacet
  facet normal -0.951055 -0.30902 0
    outer loop
      vertex 0.0864544 0.593263 0
      vertex 0.0218515 0.792088 2
      vertex 0.0218515 0.792088 0
    endloop
  endfacet
  facet normal -0.951055 -0.30902 0
    outer loop
      vertex 0.0218515 0.792088 2
      vertex 0.0864544 0.593263 0
      vertex 0.0864544 0.593263 2
    endloop
  endfacet
  facet normal 0.866085 -0.499897 0
    outer loop
      vertex 85.5233 0.412214 2
      vertex 85.6278 0.593263 0
      vertex 85.6278 0.593263 2
    endloop
  endfacet
  facet normal 0.866085 -0.499897 0
    outer loop
      vertex 85.6278 0.593263 0
      vertex 85.5233 0.412214 2
      vertex 85.5233 0.412214 0
    endloop
  endfacet
  facet normal 0.951048 0.309043 0
    outer loop
      vertex 85.6924 55.4579 2
      vertex 85.6278 55.6567 0
      vertex 85.6278 55.6567 2
    endloop
  endfacet
  facet normal 0.951048 0.309043 0
    outer loop
      vertex 85.6278 55.6567 0
      vertex 85.6924 55.4579 2
      vertex 85.6924 55.4579 0
    endloop
  endfacet
  facet normal -0.587845 0.808973 0
    outer loop
      vertex 0.5 56.116 0
      vertex 0.330869 55.9931 2
      vertex 0.5 56.116 2
    endloop
  endfacet
  facet normal -0.587845 0.808973 0
    outer loop
      vertex 0.330869 55.9931 2
      vertex 0.5 56.116 0
      vertex 0.330869 55.9931 0
    endloop
  endfacet
  facet normal -0.866087 0.499894 0
    outer loop
      vertex 0.0864544 55.6567 0
      vertex 0.190983 55.8378 2
      vertex 0.190983 55.8378 0
    endloop
  endfacet
  facet normal -0.866087 0.499894 0
    outer loop
      vertex 0.190983 55.8378 2
      vertex 0.0864544 55.6567 0
      vertex 0.0864544 55.6567 2
    endloop
  endfacet
  facet normal -0.207909 -0.978148 0
    outer loop
      vertex 0.690983 0.0489426 0
      vertex 0.895471 0.00547791 2
      vertex 0.690983 0.0489426 2
    endloop
  endfacet
  facet normal -0.207909 -0.978148 -0
    outer loop
      vertex 0.895471 0.00547791 2
      vertex 0.690983 0.0489426 0
      vertex 0.895471 0.00547791 0
    endloop
  endfacet
  facet normal -0.587786 -0.809017 0
    outer loop
      vertex 0.330869 0.256855 0
      vertex 0.5 0.133974 2
      vertex 0.330869 0.256855 2
    endloop
  endfacet
  facet normal -0.587786 -0.809017 -0
    outer loop
      vertex 0.5 0.133974 2
      vertex 0.330869 0.256855 0
      vertex 0.5 0.133974 0
    endloop
  endfacet
  facet normal -0.407012 0.913423 0
    outer loop
      vertex 0.690983 56.2011 0
      vertex 0.5 56.116 2
      vertex 0.690983 56.2011 2
    endloop
  endfacet
  facet normal -0.407012 0.913423 0
    outer loop
      vertex 0.5 56.116 2
      vertex 0.690983 56.2011 0
      vertex 0.5 56.116 0
    endloop
  endfacet
  facet normal 0 0 1
    outer loop
      vertex 2 45.7804 2
      vertex 1.98522 45.7911 2
      vertex 2 3 2
    endloop
  endfacet
  facet normal 0 0 1
    outer loop
      vertex 84.8188 56.2445 2
      vertex 85.7143 55.25 2
      vertex 85.6924 55.4579 2
    endloop
  endfacet
  facet normal 0 0 1
    outer loop
      vertex 85.7143 55.25 2
      vertex 83.7143 53.25 2
      vertex 85.7143 1 2
    endloop
  endfacet
  facet normal 0 0 1
    outer loop
      vertex 84.8188 56.2445 2
      vertex 85.6924 55.4579 2
      vertex 85.6278 55.6567 2
    endloop
  endfacet
  facet normal -0 0 1
    outer loop
      vertex 83.7143 3 2
      vertex 85.7143 1 2
      vertex 83.7143 53.25 2
    endloop
  endfacet
  facet normal 0 0 1
    outer loop
      vertex 84.8188 56.2445 2
      vertex 85.6278 55.6567 2
      vertex 85.5233 55.8378 2
    endloop
  endfacet
  facet normal -0 0 1
    outer loop
      vertex 83.6924 2.79209 2
      vertex 85.7143 1 2
      vertex 83.7143 3 2
    endloop
  endfacet
  facet normal 0 0 1
    outer loop
      vertex 84.8188 56.2445 2
      vertex 85.5233 55.8378 2
      vertex 85.3834 55.9931 2
    endloop
  endfacet
  facet normal -0 0 1
    outer loop
      vertex 83.6278 2.59326 2
      vertex 85.7143 1 2
      vertex 83.6924 2.79209 2
    endloop
  endfacet
  facet normal 0 0 1
    outer loop
      vertex 84.8188 56.2445 2
      vertex 85.3834 55.9931 2
      vertex 85.2143 56.116 2
    endloop
  endfacet
  facet normal -0 0 1
    outer loop
      vertex 83.5233 2.41221 2
      vertex 85.7143 1 2
      vertex 83.6278 2.59326 2
    endloop
  endfacet
  facet normal 0 0 1
    outer loop
      vertex 84.8188 56.2445 2
      vertex 85.2143 56.116 2
      vertex 85.0233 56.2011 2
    endloop
  endfacet
  facet normal -0 0 1
    outer loop
      vertex 83.3834 2.25686 2
      vertex 85.7143 1 2
      vertex 83.5233 2.41221 2
    endloop
  endfacet
  facet normal 0 0 1
    outer loop
      vertex 85.7143 55.25 2
      vertex 84.8188 56.2445 2
      vertex 83.3834 53.9931 2
    endloop
  endfacet
  facet normal 0 -0 1
    outer loop
      vertex 84.8188 0.00547791 2
      vertex 85.7143 1 2
      vertex 83.3834 2.25686 2
    endloop
  endfacet
  facet normal 0 0 1
    outer loop
      vertex 85.7143 1 2
      vertex 84.8188 0.00547791 2
      vertex 85.6924 0.792088 2
    endloop
  endfacet
  facet normal 0 0 1
    outer loop
      vertex 85.7143 55.25 2
      vertex 83.6924 53.4579 2
      vertex 83.7143 53.25 2
    endloop
  endfacet
  facet normal 0 0 1
    outer loop
      vertex 85.7143 55.25 2
      vertex 83.6278 53.6567 2
      vertex 83.6924 53.4579 2
    endloop
  endfacet
  facet normal 0 0 1
    outer loop
      vertex 85.7143 55.25 2
      vertex 83.5233 53.8378 2
      vertex 83.6278 53.6567 2
    endloop
  endfacet
  facet normal 0 0 1
    outer loop
      vertex 85.7143 55.25 2
      vertex 83.3834 53.9931 2
      vertex 83.5233 53.8378 2
    endloop
  endfacet
  facet normal 0 0 1
    outer loop
      vertex 84.8188 56.2445 2
      vertex 83.2143 54.116 2
      vertex 83.3834 53.9931 2
    endloop
  endfacet
  facet normal 0 0 1
    outer loop
      vertex 84.8188 56.2445 2
      vertex 83.0233 54.2011 2
      vertex 83.2143 54.116 2
    endloop
  endfacet
  facet normal 0 0 1
    outer loop
      vertex 84.8188 56.2445 2
      vertex 82.8188 54.2445 2
      vertex 83.0233 54.2011 2
    endloop
  endfacet
  facet normal -0 0 1
    outer loop
      vertex 10.0148 54.7089 2
      vertex 82.8188 54.2445 2
      vertex 84.8188 56.2445 2
    endloop
  endfacet
  facet normal 0 0 1
    outer loop
      vertex 82.8188 54.2445 2
      vertex 10.0148 54.7089 2
      vertex 10.4329 54.2445 2
    endloop
  endfacet
  facet normal 0 0 1
    outer loop
      vertex 84.8188 56.2445 2
      vertex 9 55.4462 2
      vertex 10.0148 54.7089 2
    endloop
  endfacet
  facet normal 0 0 1
    outer loop
      vertex 84.8188 56.2445 2
      vertex 7.8541 55.9563 2
      vertex 9 55.4462 2
    endloop
  endfacet
  facet normal 0 0 1
    outer loop
      vertex 84.8188 56.2445 2
      vertex 6.62717 56.2171 2
      vertex 7.8541 55.9563 2
    endloop
  endfacet
  facet normal 0 0 1
    outer loop
      vertex 84.8188 56.2445 2
      vertex 5.37283 56.2171 2
      vertex 6.62717 56.2171 2
    endloop
  endfacet
  facet normal -0 0 1
    outer loop
      vertex 0.895471 56.2445 2
      vertex 5.37283 56.2171 2
      vertex 84.8188 56.2445 2
    endloop
  endfacet
  facet normal 0 0 1
    outer loop
      vertex 0.895471 56.2445 2
      vertex 4.1459 55.9563 2
      vertex 5.37283 56.2171 2
    endloop
  endfacet
  facet normal 0 0 1
    outer loop
      vertex 0.895471 56.2445 2
      vertex 3 55.4462 2
      vertex 4.1459 55.9563 2
    endloop
  endfacet
  facet normal 0 0 1
    outer loop
      vertex 0.895471 56.2445 2
      vertex 1.98522 54.7089 2
      vertex 3 55.4462 2
    endloop
  endfacet
  facet normal -0 0 1
    outer loop
      vertex 0 55.25 2
      vertex 1.98522 54.7089 2
      vertex 0.895471 56.2445 2
    endloop
  endfacet
  facet normal 0 0 1
    outer loop
      vertex 0 55.25 2
      vertex 0.895471 56.2445 2
      vertex 0.690983 56.2011 2
    endloop
  endfacet
  facet normal 0 0 1
    outer loop
      vertex 1.98522 54.7089 2
      vertex 0 55.25 2
      vertex 1.1459 53.7767 2
    endloop
  endfacet
  facet normal 0 0 1
    outer loop
      vertex 0 55.25 2
      vertex 0.690983 56.2011 2
      vertex 0.5 56.116 2
    endloop
  endfacet
  facet normal 0 0 1
    outer loop
      vertex 0 55.25 2
      vertex 0.5 56.116 2
      vertex 0.330869 55.9931 2
    endloop
  endfacet
  facet normal 0 0 1
    outer loop
      vertex 0 55.25 2
      vertex 0.330869 55.9931 2
      vertex 0.190983 55.8378 2
    endloop
  endfacet
  facet normal 0 0 1
    outer loop
      vertex 1.1459 53.7767 2
      vertex 0 55.25 2
      vertex 0.518727 52.6904 2
    endloop
  endfacet
  facet normal 0 0 1
    outer loop
      vertex 0 55.25 2
      vertex 0.190983 55.8378 2
      vertex 0.0864544 55.6567 2
    endloop
  endfacet
  facet normal 0 0 1
    outer loop
      vertex 0 55.25 2
      vertex 0.0864544 55.6567 2
      vertex 0.0218515 55.4579 2
    endloop
  endfacet
  facet normal 0 0 1
    outer loop
      vertex 0.518727 52.6904 2
      vertex 0 55.25 2
      vertex 0.131115 51.4975 2
    endloop
  endfacet
  facet normal 0 0 1
    outer loop
      vertex 0.131115 51.4975 2
      vertex 0 55.25 2
      vertex 0 50.25 2
    endloop
  endfacet
  facet normal 0 0 1
    outer loop
      vertex 85.6278 0.593263 2
      vertex 84.8188 0.00547791 2
      vertex 85.5233 0.412214 2
    endloop
  endfacet
  facet normal 0 0 1
    outer loop
      vertex 85.5233 0.412214 2
      vertex 84.8188 0.00547791 2
      vertex 85.3834 0.256855 2
    endloop
  endfacet
  facet normal 0 0 1
    outer loop
      vertex 85.3834 0.256855 2
      vertex 84.8188 0.00547791 2
      vertex 85.2143 0.133974 2
    endloop
  endfacet
  facet normal 0 0 1
    outer loop
      vertex 85.2143 0.133974 2
      vertex 84.8188 0.00547791 2
      vertex 85.0233 0.0489426 2
    endloop
  endfacet
  facet normal 0 0 1
    outer loop
      vertex 85.6924 0.792088 2
      vertex 84.8188 0.00547791 2
      vertex 85.6278 0.593263 2
    endloop
  endfacet
  facet normal -0 0 1
    outer loop
      vertex 83.2143 2.13397 2
      vertex 84.8188 0.00547791 2
      vertex 83.3834 2.25686 2
    endloop
  endfacet
  facet normal -0 0 1
    outer loop
      vertex 83.0233 2.04894 2
      vertex 84.8188 0.00547791 2
      vertex 83.2143 2.13397 2
    endloop
  endfacet
  facet normal -0 0 1
    outer loop
      vertex 82.8188 2.00548 2
      vertex 84.8188 0.00547791 2
      vertex 83.0233 2.04894 2
    endloop
  endfacet
  facet normal -0 0 1
    outer loop
      vertex 2.89547 2.00548 2
      vertex 84.8188 0.00547791 2
      vertex 82.8188 2.00548 2
    endloop
  endfacet
  facet normal 0 0 1
    outer loop
      vertex 0 1 2
      vertex 1.98522 45.7911 2
      vertex 1.1459 46.7233 2
    endloop
  endfacet
  facet normal 0 0 1
    outer loop
      vertex 2.89547 2.00548 2
      vertex 0.895471 0.00547791 2
      vertex 84.8188 0.00547791 2
    endloop
  endfacet
  facet normal 0 0 1
    outer loop
      vertex 2.69098 2.04894 2
      vertex 0.895471 0.00547791 2
      vertex 2.89547 2.00548 2
    endloop
  endfacet
  facet normal 0 0 1
    outer loop
      vertex 2.5 2.13397 2
      vertex 0.895471 0.00547791 2
      vertex 2.69098 2.04894 2
    endloop
  endfacet
  facet normal 0 0 1
    outer loop
      vertex 2.33087 2.25686 2
      vertex 0.895471 0.00547791 2
      vertex 2.5 2.13397 2
    endloop
  endfacet
  facet normal 0 0 1
    outer loop
      vertex 0 1 2
      vertex 2.33087 2.25686 2
      vertex 2.19098 2.41221 2
    endloop
  endfacet
  facet normal 0 0 1
    outer loop
      vertex 0 1 2
      vertex 2.19098 2.41221 2
      vertex 2.08645 2.59326 2
    endloop
  endfacet
  facet normal 0 0 1
    outer loop
      vertex 0 1 2
      vertex 2.08645 2.59326 2
      vertex 2.02185 2.79209 2
    endloop
  endfacet
  facet normal 0 0 1
    outer loop
      vertex 0 1 2
      vertex 2.02185 2.79209 2
      vertex 2 3 2
    endloop
  endfacet
  facet normal 0 0 1
    outer loop
      vertex 1.98522 45.7911 2
      vertex 0 1 2
      vertex 2 3 2
    endloop
  endfacet
  facet normal 0 0 1
    outer loop
      vertex 2.33087 2.25686 2
      vertex 0 1 2
      vertex 0.895471 0.00547791 2
    endloop
  endfacet
  facet normal 0 0 1
    outer loop
      vertex 0 1 2
      vertex 1.1459 46.7233 2
      vertex 0.518727 47.8096 2
    endloop
  endfacet
  facet normal 0 0 1
    outer loop
      vertex 0.895471 0.00547791 2
      vertex 0 1 2
      vertex 0.690983 0.0489426 2
    endloop
  endfacet
  facet normal 0 0 1
    outer loop
      vertex 0.690983 0.0489426 2
      vertex 0 1 2
      vertex 0.5 0.133974 2
    endloop
  endfacet
  facet normal 0 0 1
    outer loop
      vertex 0.5 0.133974 2
      vertex 0 1 2
      vertex 0.330869 0.256855 2
    endloop
  endfacet
  facet normal 0 0 1
    outer loop
      vertex 0 1 2
      vertex 0.518727 47.8096 2
      vertex 0.131115 49.0025 2
    endloop
  endfacet
  facet normal 0 0 1
    outer loop
      vertex 0.330869 0.256855 2
      vertex 0 1 2
      vertex 0.190983 0.412214 2
    endloop
  endfacet
  facet normal 0 0 1
    outer loop
      vertex 0.190983 0.412214 2
      vertex 0 1 2
      vertex 0.0864544 0.593263 2
    endloop
  endfacet
  facet normal 0 0 1
    outer loop
      vertex 0 1 2
      vertex 0.131115 49.0025 2
      vertex 0 50.25 2
    endloop
  endfacet
  facet normal 0 0 1
    outer loop
      vertex 0.0864544 0.593263 2
      vertex 0 1 2
      vertex 0.0218515 0.792088 2
    endloop
  endfacet
  facet normal 0 1 -0
    outer loop
      vertex 82.8188 2.00548 0
      vertex 2.89547 2.00548 2
      vertex 82.8188 2.00548 2
    endloop
  endfacet
  facet normal 0 1 0
    outer loop
      vertex 2.89547 2.00548 2
      vertex 82.8188 2.00548 0
      vertex 2.89547 2.00548 0
    endloop
  endfacet
  facet normal -0.994498 -0.104759 0
    outer loop
      vertex 83.7143 53.25 0
      vertex 83.6924 53.4579 2
      vertex 83.6924 53.4579 0
    endloop
  endfacet
  facet normal -0.994498 -0.104759 0
    outer loop
      vertex 83.6924 53.4579 2
      vertex 83.7143 53.25 0
      vertex 83.7143 53.25 2
    endloop
  endfacet
  facet normal 0.994523 0.104518 0
    outer loop
      vertex 2.02185 2.79209 2
      vertex 2 3 0
      vertex 2 3 2
    endloop
  endfacet
  facet normal 0.994523 0.104518 0
    outer loop
      vertex 2 3 0
      vertex 2.02185 2.79209 2
      vertex 2.02185 2.79209 0
    endloop
  endfacet
  facet normal -0.994498 0.104755 0
    outer loop
      vertex 83.6924 2.79209 0
      vertex 83.7143 3 2
      vertex 83.7143 3 0
    endloop
  endfacet
  facet normal -0.994498 0.104755 0
    outer loop
      vertex 83.7143 3 2
      vertex 83.6924 2.79209 0
      vertex 83.6924 2.79209 2
    endloop
  endfacet
  facet normal 0.406738 0.913545 -0
    outer loop
      vertex 2.69098 2.04894 0
      vertex 2.5 2.13397 2
      vertex 2.69098 2.04894 2
    endloop
  endfacet
  facet normal 0.406738 0.913545 0
    outer loop
      vertex 2.5 2.13397 2
      vertex 2.69098 2.04894 0
      vertex 2.5 2.13397 0
    endloop
  endfacet
  facet normal -1 0 0
    outer loop
      vertex 83.7143 3 0
      vertex 83.7143 53.25 2
      vertex 83.7143 53.25 0
    endloop
  endfacet
  facet normal -1 -0 0
    outer loop
      vertex 83.7143 53.25 2
      vertex 83.7143 3 0
      vertex 83.7143 3 2
    endloop
  endfacet
  facet normal -0.207876 0.978155 0
    outer loop
      vertex 83.0233 2.04894 0
      vertex 82.8188 2.00548 2
      vertex 83.0233 2.04894 2
    endloop
  endfacet
  facet normal -0.207876 0.978155 0
    outer loop
      vertex 82.8188 2.00548 2
      vertex 83.0233 2.04894 0
      vertex 82.8188 2.00548 0
    endloop
  endfacet
  facet normal 1 -0 0
    outer loop
      vertex 2 3 2
      vertex 2 45.7804 0
      vertex 2 45.7804 2
    endloop
  endfacet
  facet normal 1 0 0
    outer loop
      vertex 2 45.7804 0
      vertex 2 3 2
      vertex 2 3 0
    endloop
  endfacet
  facet normal 0 -1 0
    outer loop
      vertex 10.4329 54.2445 0
      vertex 82.8188 54.2445 2
      vertex 10.4329 54.2445 2
    endloop
  endfacet
  facet normal 0 -1 -0
    outer loop
      vertex 82.8188 54.2445 2
      vertex 10.4329 54.2445 0
      vertex 82.8188 54.2445 0
    endloop
  endfacet
  facet normal -0.406702 0.913561 0
    outer loop
      vertex 83.2143 2.13397 0
      vertex 83.0233 2.04894 2
      vertex 83.2143 2.13397 2
    endloop
  endfacet
  facet normal -0.406702 0.913561 0
    outer loop
      vertex 83.0233 2.04894 2
      vertex 83.2143 2.13397 0
      vertex 83.0233 2.04894 0
    endloop
  endfacet
  facet normal 0.866024 0.500003 0
    outer loop
      vertex 2.19098 2.41221 2
      vertex 2.08645 2.59326 0
      vertex 2.08645 2.59326 2
    endloop
  endfacet
  facet normal 0.866024 0.500003 0
    outer loop
      vertex 2.08645 2.59326 0
      vertex 2.19098 2.41221 2
      vertex 2.19098 2.41221 0
    endloop
  endfacet
  facet normal -0.406981 -0.913436 0
    outer loop
      vertex 83.0233 54.2011 0
      vertex 83.2143 54.116 2
      vertex 83.0233 54.2011 2
    endloop
  endfacet
  facet normal -0.406981 -0.913436 -0
    outer loop
      vertex 83.2143 54.116 2
      vertex 83.0233 54.2011 0
      vertex 83.2143 54.116 0
    endloop
  endfacet
  facet normal -0.587916 -0.808922 0
    outer loop
      vertex 83.2143 54.116 0
      vertex 83.3834 53.9931 2
      vertex 83.2143 54.116 2
    endloop
  endfacet
  facet normal -0.587916 -0.808922 -0
    outer loop
      vertex 83.3834 53.9931 2
      vertex 83.2143 54.116 0
      vertex 83.3834 53.9931 0
    endloop
  endfacet
  facet normal -0.587884 0.808945 0
    outer loop
      vertex 83.3834 2.25686 0
      vertex 83.2143 2.13397 2
      vertex 83.3834 2.25686 2
    endloop
  endfacet
  facet normal -0.587884 0.808945 0
    outer loop
      vertex 83.2143 2.13397 2
      vertex 83.3834 2.25686 0
      vertex 83.2143 2.13397 0
    endloop
  endfacet
  facet normal -0.951062 0.309001 0
    outer loop
      vertex 83.6278 2.59326 0
      vertex 83.6924 2.79209 2
      vertex 83.6924 2.79209 0
    endloop
  endfacet
  facet normal -0.951062 0.309001 0
    outer loop
      vertex 83.6924 2.79209 2
      vertex 83.6278 2.59326 0
      vertex 83.6278 2.59326 2
    endloop
  endfacet
  facet normal 0.743116 0.669163 0
    outer loop
      vertex 2.33087 2.25686 2
      vertex 2.19098 2.41221 0
      vertex 2.19098 2.41221 2
    endloop
  endfacet
  facet normal 0.743116 0.669163 0
    outer loop
      vertex 2.19098 2.41221 0
      vertex 2.33087 2.25686 2
      vertex 2.33087 2.25686 0
    endloop
  endfacet
  facet normal -0.207601 -0.978214 0
    outer loop
      vertex 82.8188 54.2445 0
      vertex 83.0233 54.2011 2
      vertex 82.8188 54.2445 2
    endloop
  endfacet
  facet normal -0.207601 -0.978214 -0
    outer loop
      vertex 83.0233 54.2011 2
      vertex 82.8188 54.2445 0
      vertex 83.0233 54.2011 0
    endloop
  endfacet
  facet normal -0.866146 -0.499791 0
    outer loop
      vertex 83.6278 53.6567 0
      vertex 83.5233 53.8378 2
      vertex 83.5233 53.8378 0
    endloop
  endfacet
  facet normal -0.866146 -0.499791 0
    outer loop
      vertex 83.5233 53.8378 2
      vertex 83.6278 53.6567 0
      vertex 83.6278 53.6567 2
    endloop
  endfacet
  facet normal -0.742985 -0.669308 0
    outer loop
      vertex 83.5233 53.8378 0
      vertex 83.3834 53.9931 2
      vertex 83.3834 53.9931 0
    endloop
  endfacet
  facet normal -0.742985 -0.669308 0
    outer loop
      vertex 83.3834 53.9931 2
      vertex 83.5233 53.8378 0
      vertex 83.5233 53.8378 2
    endloop
  endfacet
  facet normal -0.743092 0.669189 0
    outer loop
      vertex 83.3834 2.25686 0
      vertex 83.5233 2.41221 2
      vertex 83.5233 2.41221 0
    endloop
  endfacet
  facet normal -0.743092 0.669189 0
    outer loop
      vertex 83.5233 2.41221 2
      vertex 83.3834 2.25686 0
      vertex 83.3834 2.25686 2
    endloop
  endfacet
  facet normal 0.951062 0.309001 0
    outer loop
      vertex 2.08645 2.59326 2
      vertex 2.02185 2.79209 0
      vertex 2.02185 2.79209 2
    endloop
  endfacet
  facet normal 0.951062 0.309001 0
    outer loop
      vertex 2.02185 2.79209 0
      vertex 2.08645 2.59326 2
      vertex 2.08645 2.59326 0
    endloop
  endfacet
  facet normal -0.866086 0.499895 0
    outer loop
      vertex 83.5233 2.41221 0
      vertex 83.6278 2.59326 2
      vertex 83.6278 2.59326 0
    endloop
  endfacet
  facet normal -0.866086 0.499895 0
    outer loop
      vertex 83.6278 2.59326 2
      vertex 83.5233 2.41221 0
      vertex 83.5233 2.41221 2
    endloop
  endfacet
  facet normal -0.951048 -0.309043 0
    outer loop
      vertex 83.6924 53.4579 0
      vertex 83.6278 53.6567 2
      vertex 83.6278 53.6567 0
    endloop
  endfacet
  facet normal -0.951048 -0.309043 0
    outer loop
      vertex 83.6278 53.6567 2
      vertex 83.6924 53.4579 0
      vertex 83.6924 53.4579 2
    endloop
  endfacet
  facet normal 0.587816 0.808995 -0
    outer loop
      vertex 2.5 2.13397 0
      vertex 2.33087 2.25686 2
      vertex 2.5 2.13397 2
    endloop
  endfacet
  facet normal 0.587816 0.808995 0
    outer loop
      vertex 2.33087 2.25686 2
      vertex 2.5 2.13397 0
      vertex 2.33087 2.25686 0
    endloop
  endfacet
  facet normal 0.207886 0.978153 -0
    outer loop
      vertex 2.89547 2.00548 0
      vertex 2.69098 2.04894 2
      vertex 2.89547 2.00548 2
    endloop
  endfacet
  facet normal 0.207886 0.978153 0
    outer loop
      vertex 2.69098 2.04894 2
      vertex 2.89547 2.00548 0
      vertex 2.69098 2.04894 0
    endloop
  endfacet
  facet normal 0.40677 -0.91353 0
    outer loop
      vertex 3.5 54.5801 0
      vertex 4.45492 55.0053 5.5
      vertex 3.5 54.5801 5.5
    endloop
  endfacet
  facet normal 0.40677 -0.91353 0
    outer loop
      vertex 4.45492 55.0053 5.5
      vertex 3.5 54.5801 0
      vertex 4.45492 55.0053 0
    endloop
  endfacet
  facet normal -0.40677 -0.91353 0
    outer loop
      vertex 7.54508 55.0053 0
      vertex 8.5 54.5801 5.5
      vertex 7.54508 55.0053 5.5
    endloop
  endfacet
  facet normal -0.40677 -0.91353 -0
    outer loop
      vertex 8.5 54.5801 5.5
      vertex 7.54508 55.0053 0
      vertex 8.5 54.5801 0
    endloop
  endfacet
  facet normal 0.866012 -0.500023 0
    outer loop
      vertex 1.43227 52.2837 5.5
      vertex 1.95492 53.1889 0
      vertex 1.95492 53.1889 5.5
    endloop
  endfacet
  facet normal 0.866012 -0.500023 0
    outer loop
      vertex 1.95492 53.1889 0
      vertex 1.43227 52.2837 5.5
      vertex 1.43227 52.2837 0
    endloop
  endfacet
  facet normal 0.587785 -0.809017 0
    outer loop
      vertex 2.65435 53.9657 0
      vertex 3.5 54.5801 5.5
      vertex 2.65435 53.9657 5.5
    endloop
  endfacet
  facet normal 0.587785 -0.809017 0
    outer loop
      vertex 3.5 54.5801 5.5
      vertex 2.65435 53.9657 0
      vertex 3.5 54.5801 0
    endloop
  endfacet
  facet normal 0 -1 0
    outer loop
      vertex 5.47736 55.2226 0
      vertex 6.52264 55.2226 5.5
      vertex 5.47736 55.2226 5.5
    endloop
  endfacet
  facet normal 0 -1 -0
    outer loop
      vertex 6.52264 55.2226 5.5
      vertex 5.47736 55.2226 0
      vertex 6.52264 55.2226 0
    endloop
  endfacet
  facet normal 0.951054 -0.309023 0
    outer loop
      vertex 1.10926 51.2896 5.5
      vertex 1.43227 52.2837 0
      vertex 1.43227 52.2837 5.5
    endloop
  endfacet
  facet normal 0.951054 -0.309023 0
    outer loop
      vertex 1.43227 52.2837 0
      vertex 1.10926 51.2896 5.5
      vertex 1.10926 51.2896 0
    endloop
  endfacet
  facet normal 0.207888 -0.978153 0
    outer loop
      vertex 4.45492 55.0053 0
      vertex 5.47736 55.2226 5.5
      vertex 4.45492 55.0053 5.5
    endloop
  endfacet
  facet normal 0.207888 -0.978153 0
    outer loop
      vertex 5.47736 55.2226 5.5
      vertex 4.45492 55.0053 0
      vertex 5.47736 55.2226 0
    endloop
  endfacet
  facet normal 0.866012 0.500023 0
    outer loop
      vertex 1.95492 47.3111 5.5
      vertex 1.43227 48.2163 0
      vertex 1.43227 48.2163 5.5
    endloop
  endfacet
  facet normal 0.866012 0.500023 0
    outer loop
      vertex 1.43227 48.2163 0
      vertex 1.95492 47.3111 5.5
      vertex 1.95492 47.3111 0
    endloop
  endfacet
  facet normal 0.994523 -0.104522 0
    outer loop
      vertex 1 50.25 5.5
      vertex 1.10926 51.2896 0
      vertex 1.10926 51.2896 5.5
    endloop
  endfacet
  facet normal 0.994523 -0.104522 0
    outer loop
      vertex 1.10926 51.2896 0
      vertex 1 50.25 5.5
      vertex 1 50.25 0
    endloop
  endfacet
  facet normal -0.587785 -0.809017 0
    outer loop
      vertex 8.5 54.5801 0
      vertex 9.34565 53.9657 5.5
      vertex 8.5 54.5801 5.5
    endloop
  endfacet
  facet normal -0.587785 -0.809017 -0
    outer loop
      vertex 9.34565 53.9657 5.5
      vertex 8.5 54.5801 0
      vertex 9.34565 53.9657 0
    endloop
  endfacet
  facet normal -0.207888 -0.978153 0
    outer loop
      vertex 6.52264 55.2226 0
      vertex 7.54508 55.0053 5.5
      vertex 6.52264 55.2226 5.5
    endloop
  endfacet
  facet normal -0.207888 -0.978153 -0
    outer loop
      vertex 7.54508 55.0053 5.5
      vertex 6.52264 55.2226 0
      vertex 7.54508 55.0053 0
    endloop
  endfacet
  facet normal 0.994523 0.104522 0
    outer loop
      vertex 1.10926 49.2104 5.5
      vertex 1 50.25 0
      vertex 1 50.25 5.5
    endloop
  endfacet
  facet normal 0.994523 0.104522 0
    outer loop
      vertex 1 50.25 0
      vertex 1.10926 49.2104 5.5
      vertex 1.10926 49.2104 0
    endloop
  endfacet
  facet normal 0.951054 0.309023 0
    outer loop
      vertex 1.43227 48.2163 5.5
      vertex 1.10926 49.2104 0
      vertex 1.10926 49.2104 5.5
    endloop
  endfacet
  facet normal 0.951054 0.309023 0
    outer loop
      vertex 1.10926 49.2104 0
      vertex 1.43227 48.2163 5.5
      vertex 1.43227 48.2163 0
    endloop
  endfacet
  facet normal 0.743147 0.669129 0
    outer loop
      vertex 2.65435 46.5343 5.5
      vertex 1.95492 47.3111 0
      vertex 1.95492 47.3111 5.5
    endloop
  endfacet
  facet normal 0.743147 0.669129 0
    outer loop
      vertex 1.95492 47.3111 0
      vertex 2.65435 46.5343 5.5
      vertex 2.65435 46.5343 0
    endloop
  endfacet
  facet normal 0.743147 -0.669129 0
    outer loop
      vertex 1.95492 53.1889 5.5
      vertex 2.65435 53.9657 0
      vertex 2.65435 53.9657 5.5
    endloop
  endfacet
  facet normal 0.743147 -0.669129 0
    outer loop
      vertex 2.65435 53.9657 0
      vertex 1.95492 53.1889 5.5
      vertex 1.95492 53.1889 0
    endloop
  endfacet
  facet normal -0.951057 -0.309015 0
    outer loop
      vertex 10.8907 51.2896 0
      vertex 10.5677 52.2837 5.5
      vertex 10.5677 52.2837 0
    endloop
  endfacet
  facet normal -0.951057 -0.309015 0
    outer loop
      vertex 10.5677 52.2837 5.5
      vertex 10.8907 51.2896 0
      vertex 10.8907 51.2896 5.5
    endloop
  endfacet
  facet normal -0.994519 -0.10456 0
    outer loop
      vertex 11 50.25 0
      vertex 10.8907 51.2896 5.5
      vertex 10.8907 51.2896 0
    endloop
  endfacet
  facet normal -0.994519 -0.10456 0
    outer loop
      vertex 10.8907 51.2896 5.5
      vertex 11 50.25 0
      vertex 11 50.25 5.5
    endloop
  endfacet
  facet normal -0.866033 -0.499987 0
    outer loop
      vertex 10.5677 52.2837 0
      vertex 10.0451 53.1889 5.5
      vertex 10.0451 53.1889 0
    endloop
  endfacet
  facet normal -0.866033 -0.499987 0
    outer loop
      vertex 10.0451 53.1889 5.5
      vertex 10.5677 52.2837 0
      vertex 10.5677 52.2837 5.5
    endloop
  endfacet
  facet normal 0 0 -1
    outer loop
      vertex 8 50.25 5.5
      vertex 11 50.25 5.5
      vertex 10.8907 49.2104 5.5
    endloop
  endfacet
  facet normal 0 0 -1
    outer loop
      vertex 7.9563 49.8342 5.5
      vertex 10.8907 49.2104 5.5
      vertex 10.5677 48.2163 5.5
    endloop
  endfacet
  facet normal 0 0 -1
    outer loop
      vertex 11 50.25 5.5
      vertex 8 50.25 5.5
      vertex 10.8907 51.2896 5.5
    endloop
  endfacet
  facet normal 0 0 -1
    outer loop
      vertex 7.82709 49.4365 5.5
      vertex 10.5677 48.2163 5.5
      vertex 10.0451 47.3111 5.5
    endloop
  endfacet
  facet normal 0 0 -1
    outer loop
      vertex 7.9563 50.6658 5.5
      vertex 10.8907 51.2896 5.5
      vertex 8 50.25 5.5
    endloop
  endfacet
  facet normal 0 0 -1
    outer loop
      vertex 7.61803 49.0744 5.5
      vertex 10.0451 47.3111 5.5
      vertex 9.34565 46.5343 5.5
    endloop
  endfacet
  facet normal -0 0 -1
    outer loop
      vertex 10.8907 51.2896 5.5
      vertex 7.9563 50.6658 5.5
      vertex 10.5677 52.2837 5.5
    endloop
  endfacet
  facet normal 0 0 -1
    outer loop
      vertex 7.33826 48.7637 5.5
      vertex 9.34565 46.5343 5.5
      vertex 8.5 45.9199 5.5
    endloop
  endfacet
  facet normal 0 0 -1
    outer loop
      vertex 7.82709 51.0635 5.5
      vertex 10.5677 52.2837 5.5
      vertex 7.9563 50.6658 5.5
    endloop
  endfacet
  facet normal -0 0 -1
    outer loop
      vertex 10.5677 52.2837 5.5
      vertex 7.82709 51.0635 5.5
      vertex 10.0451 53.1889 5.5
    endloop
  endfacet
  facet normal 0 0 -1
    outer loop
      vertex 10.8907 49.2104 5.5
      vertex 7.9563 49.8342 5.5
      vertex 8 50.25 5.5
    endloop
  endfacet
  facet normal 0 0 -1
    outer loop
      vertex 10.5677 48.2163 5.5
      vertex 7.82709 49.4365 5.5
      vertex 7.9563 49.8342 5.5
    endloop
  endfacet
  facet normal 0 0 -1
    outer loop
      vertex 10.0451 47.3111 5.5
      vertex 7.61803 49.0744 5.5
      vertex 7.82709 49.4365 5.5
    endloop
  endfacet
  facet normal 0 0 -1
    outer loop
      vertex 7 48.518 5.5
      vertex 8.5 45.9199 5.5
      vertex 7.54508 45.4947 5.5
    endloop
  endfacet
  facet normal 0 0 -1
    outer loop
      vertex 9.34565 46.5343 5.5
      vertex 7.33826 48.7637 5.5
      vertex 7.61803 49.0744 5.5
    endloop
  endfacet
  facet normal 0 0 -1
    outer loop
      vertex 8.5 45.9199 5.5
      vertex 7 48.518 5.5
      vertex 7.33826 48.7637 5.5
    endloop
  endfacet
  facet normal 0 0 -1
    outer loop
      vertex 7.54508 45.4947 5.5
      vertex 6.61803 48.3479 5.5
      vertex 7 48.518 5.5
    endloop
  endfacet
  facet normal 0 0 -1
    outer loop
      vertex 6.52264 45.2774 5.5
      vertex 6.61803 48.3479 5.5
      vertex 7.54508 45.4947 5.5
    endloop
  endfacet
  facet normal 0 0 -1
    outer loop
      vertex 6.52264 45.2774 5.5
      vertex 6.20906 48.261 5.5
      vertex 6.61803 48.3479 5.5
    endloop
  endfacet
  facet normal 0 0 -1
    outer loop
      vertex 6.52264 45.2774 5.5
      vertex 5.79094 48.261 5.5
      vertex 6.20906 48.261 5.5
    endloop
  endfacet
  facet normal 0 0 -1
    outer loop
      vertex 5.47736 45.2774 5.5
      vertex 5.79094 48.261 5.5
      vertex 6.52264 45.2774 5.5
    endloop
  endfacet
  facet normal 0 0 -1
    outer loop
      vertex 5.47736 45.2774 5.5
      vertex 5.38197 48.3479 5.5
      vertex 5.79094 48.261 5.5
    endloop
  endfacet
  facet normal 0 0 -1
    outer loop
      vertex 4.45492 45.4947 5.5
      vertex 5.38197 48.3479 5.5
      vertex 5.47736 45.2774 5.5
    endloop
  endfacet
  facet normal -0 0 -1
    outer loop
      vertex 5.38197 48.3479 5.5
      vertex 4.45492 45.4947 5.5
      vertex 5 48.518 5.5
    endloop
  endfacet
  facet normal 0 0 -1
    outer loop
      vertex 3.5 45.9199 5.5
      vertex 5 48.518 5.5
      vertex 4.45492 45.4947 5.5
    endloop
  endfacet
  facet normal -0 0 -1
    outer loop
      vertex 5 48.518 5.5
      vertex 3.5 45.9199 5.5
      vertex 4.66174 48.7637 5.5
    endloop
  endfacet
  facet normal 0 0 -1
    outer loop
      vertex 2.65435 46.5343 5.5
      vertex 4.66174 48.7637 5.5
      vertex 3.5 45.9199 5.5
    endloop
  endfacet
  facet normal -0 0 -1
    outer loop
      vertex 4.66174 48.7637 5.5
      vertex 2.65435 46.5343 5.5
      vertex 4.38197 49.0744 5.5
    endloop
  endfacet
  facet normal 0 0 -1
    outer loop
      vertex 1.95492 47.3111 5.5
      vertex 4.38197 49.0744 5.5
      vertex 2.65435 46.5343 5.5
    endloop
  endfacet
  facet normal -0 0 -1
    outer loop
      vertex 4.38197 49.0744 5.5
      vertex 1.95492 47.3111 5.5
      vertex 4.17291 49.4365 5.5
    endloop
  endfacet
  facet normal 0 0 -1
    outer loop
      vertex 7.61803 51.4256 5.5
      vertex 10.0451 53.1889 5.5
      vertex 7.82709 51.0635 5.5
    endloop
  endfacet
  facet normal -0 0 -1
    outer loop
      vertex 10.0451 53.1889 5.5
      vertex 7.61803 51.4256 5.5
      vertex 9.34565 53.9657 5.5
    endloop
  endfacet
  facet normal 0 0 -1
    outer loop
      vertex 7.33826 51.7363 5.5
      vertex 9.34565 53.9657 5.5
      vertex 7.61803 51.4256 5.5
    endloop
  endfacet
  facet normal -0 0 -1
    outer loop
      vertex 9.34565 53.9657 5.5
      vertex 7.33826 51.7363 5.5
      vertex 8.5 54.5801 5.5
    endloop
  endfacet
  facet normal 0 0 -1
    outer loop
      vertex 7 51.982 5.5
      vertex 8.5 54.5801 5.5
      vertex 7.33826 51.7363 5.5
    endloop
  endfacet
  facet normal -0 0 -1
    outer loop
      vertex 8.5 54.5801 5.5
      vertex 7 51.982 5.5
      vertex 7.54508 55.0053 5.5
    endloop
  endfacet
  facet normal 0 0 -1
    outer loop
      vertex 6.61803 52.1521 5.5
      vertex 7.54508 55.0053 5.5
      vertex 7 51.982 5.5
    endloop
  endfacet
  facet normal 0 0 -1
    outer loop
      vertex 6.61803 52.1521 5.5
      vertex 6.52264 55.2226 5.5
      vertex 7.54508 55.0053 5.5
    endloop
  endfacet
  facet normal 0 0 -1
    outer loop
      vertex 6.20906 52.239 5.5
      vertex 6.52264 55.2226 5.5
      vertex 6.61803 52.1521 5.5
    endloop
  endfacet
  facet normal 0 0 -1
    outer loop
      vertex 5.79094 52.239 5.5
      vertex 6.52264 55.2226 5.5
      vertex 6.20906 52.239 5.5
    endloop
  endfacet
  facet normal 0 0 -1
    outer loop
      vertex 5.79094 52.239 5.5
      vertex 5.47736 55.2226 5.5
      vertex 6.52264 55.2226 5.5
    endloop
  endfacet
  facet normal 0 0 -1
    outer loop
      vertex 5.38197 52.1521 5.5
      vertex 5.47736 55.2226 5.5
      vertex 5.79094 52.239 5.5
    endloop
  endfacet
  facet normal 0 0 -1
    outer loop
      vertex 4.45492 55.0053 5.5
      vertex 5.38197 52.1521 5.5
      vertex 5 51.982 5.5
    endloop
  endfacet
  facet normal 0 0 -1
    outer loop
      vertex 3.5 54.5801 5.5
      vertex 5 51.982 5.5
      vertex 4.66174 51.7363 5.5
    endloop
  endfacet
  facet normal 0 0 -1
    outer loop
      vertex 5.38197 52.1521 5.5
      vertex 4.45492 55.0053 5.5
      vertex 5.47736 55.2226 5.5
    endloop
  endfacet
  facet normal 0 0 -1
    outer loop
      vertex 2.65435 53.9657 5.5
      vertex 4.66174 51.7363 5.5
      vertex 4.38197 51.4256 5.5
    endloop
  endfacet
  facet normal 0 0 -1
    outer loop
      vertex 1.95492 53.1889 5.5
      vertex 4.38197 51.4256 5.5
      vertex 4.17291 51.0635 5.5
    endloop
  endfacet
  facet normal 0 0 -1
    outer loop
      vertex 1.43227 52.2837 5.5
      vertex 4.17291 51.0635 5.5
      vertex 4.0437 50.6658 5.5
    endloop
  endfacet
  facet normal 0 0 -1
    outer loop
      vertex 1.10926 51.2896 5.5
      vertex 4.0437 50.6658 5.5
      vertex 4 50.25 5.5
    endloop
  endfacet
  facet normal 0 0 -1
    outer loop
      vertex 1.43227 48.2163 5.5
      vertex 4.17291 49.4365 5.5
      vertex 1.95492 47.3111 5.5
    endloop
  endfacet
  facet normal 0 0 -1
    outer loop
      vertex 5 51.982 5.5
      vertex 3.5 54.5801 5.5
      vertex 4.45492 55.0053 5.5
    endloop
  endfacet
  facet normal -0 0 -1
    outer loop
      vertex 4.17291 49.4365 5.5
      vertex 1.43227 48.2163 5.5
      vertex 4.0437 49.8342 5.5
    endloop
  endfacet
  facet normal 0 0 -1
    outer loop
      vertex 4.66174 51.7363 5.5
      vertex 2.65435 53.9657 5.5
      vertex 3.5 54.5801 5.5
    endloop
  endfacet
  facet normal 0 0 -1
    outer loop
      vertex 1.10926 49.2104 5.5
      vertex 4.0437 49.8342 5.5
      vertex 1.43227 48.2163 5.5
    endloop
  endfacet
  facet normal 0 0 -1
    outer loop
      vertex 4.38197 51.4256 5.5
      vertex 1.95492 53.1889 5.5
      vertex 2.65435 53.9657 5.5
    endloop
  endfacet
  facet normal -0 0 -1
    outer loop
      vertex 4.0437 49.8342 5.5
      vertex 1.10926 49.2104 5.5
      vertex 4 50.25 5.5
    endloop
  endfacet
  facet normal 0 0 -1
    outer loop
      vertex 4.17291 51.0635 5.5
      vertex 1.43227 52.2837 5.5
      vertex 1.95492 53.1889 5.5
    endloop
  endfacet
  facet normal 0 0 -1
    outer loop
      vertex 1 50.25 5.5
      vertex 4 50.25 5.5
      vertex 1.10926 49.2104 5.5
    endloop
  endfacet
  facet normal 0 0 -1
    outer loop
      vertex 4.0437 50.6658 5.5
      vertex 1.10926 51.2896 5.5
      vertex 1.43227 52.2837 5.5
    endloop
  endfacet
  facet normal 0 0 -1
    outer loop
      vertex 4 50.25 5.5
      vertex 1 50.25 5.5
      vertex 1.10926 51.2896 5.5
    endloop
  endfacet
  facet normal -0.951057 0.309015 0
    outer loop
      vertex 10.5677 48.2163 0
      vertex 10.8907 49.2104 5.5
      vertex 10.8907 49.2104 0
    endloop
  endfacet
  facet normal -0.951057 0.309015 0
    outer loop
      vertex 10.8907 49.2104 5.5
      vertex 10.5677 48.2163 0
      vertex 10.5677 48.2163 5.5
    endloop
  endfacet
  facet normal -0.994519 0.10456 0
    outer loop
      vertex 10.8907 49.2104 0
      vertex 11 50.25 5.5
      vertex 11 50.25 0
    endloop
  endfacet
  facet normal -0.994519 0.10456 0
    outer loop
      vertex 11 50.25 5.5
      vertex 10.8907 49.2104 0
      vertex 10.8907 49.2104 5.5
    endloop
  endfacet
  facet normal -0.866033 0.499987 0
    outer loop
      vertex 10.0451 47.3111 0
      vertex 10.5677 48.2163 5.5
      vertex 10.5677 48.2163 0
    endloop
  endfacet
  facet normal -0.866033 0.499987 0
    outer loop
      vertex 10.5677 48.2163 5.5
      vertex 10.0451 47.3111 0
      vertex 10.0451 47.3111 5.5
    endloop
  endfacet
  facet normal -0.587785 0.809017 0
    outer loop
      vertex 9.34565 46.5343 0
      vertex 8.5 45.9199 5.5
      vertex 9.34565 46.5343 5.5
    endloop
  endfacet
  facet normal -0.587785 0.809017 0
    outer loop
      vertex 8.5 45.9199 5.5
      vertex 9.34565 46.5343 0
      vertex 8.5 45.9199 0
    endloop
  endfacet
  facet normal -0.743137 -0.669139 0
    outer loop
      vertex 10.0451 53.1889 0
      vertex 9.34565 53.9657 5.5
      vertex 9.34565 53.9657 0
    endloop
  endfacet
  facet normal -0.743137 -0.669139 0
    outer loop
      vertex 9.34565 53.9657 5.5
      vertex 10.0451 53.1889 0
      vertex 10.0451 53.1889 5.5
    endloop
  endfacet
  facet normal 0.207888 0.978153 -0
    outer loop
      vertex 5.47736 45.2774 0
      vertex 4.45492 45.4947 5.5
      vertex 5.47736 45.2774 5.5
    endloop
  endfacet
  facet normal 0.207888 0.978153 0
    outer loop
      vertex 4.45492 45.4947 5.5
      vertex 5.47736 45.2774 0
      vertex 4.45492 45.4947 0
    endloop
  endfacet
  facet normal 0.40677 0.91353 -0
    outer loop
      vertex 4.45492 45.4947 0
      vertex 3.5 45.9199 5.5
      vertex 4.45492 45.4947 5.5
    endloop
  endfacet
  facet normal 0.40677 0.91353 0
    outer loop
      vertex 3.5 45.9199 5.5
      vertex 4.45492 45.4947 0
      vertex 3.5 45.9199 0
    endloop
  endfacet
  facet normal -0.207888 0.978153 0
    outer loop
      vertex 7.54508 45.4947 0
      vertex 6.52264 45.2774 5.5
      vertex 7.54508 45.4947 5.5
    endloop
  endfacet
  facet normal -0.207888 0.978153 0
    outer loop
      vertex 6.52264 45.2774 5.5
      vertex 7.54508 45.4947 0
      vertex 6.52264 45.2774 0
    endloop
  endfacet
  facet normal -0.40677 0.91353 0
    outer loop
      vertex 8.5 45.9199 0
      vertex 7.54508 45.4947 5.5
      vertex 8.5 45.9199 5.5
    endloop
  endfacet
  facet normal -0.40677 0.91353 0
    outer loop
      vertex 7.54508 45.4947 5.5
      vertex 8.5 45.9199 0
      vertex 7.54508 45.4947 0
    endloop
  endfacet
  facet normal -0.743137 0.669139 0
    outer loop
      vertex 9.34565 46.5343 0
      vertex 10.0451 47.3111 5.5
      vertex 10.0451 47.3111 0
    endloop
  endfacet
  facet normal -0.743137 0.669139 0
    outer loop
      vertex 10.0451 47.3111 5.5
      vertex 9.34565 46.5343 0
      vertex 9.34565 46.5343 5.5
    endloop
  endfacet
  facet normal 0 1 -0
    outer loop
      vertex 6.52264 45.2774 0
      vertex 5.47736 45.2774 5.5
      vertex 6.52264 45.2774 5.5
    endloop
  endfacet
  facet normal 0 1 0
    outer loop
      vertex 5.47736 45.2774 5.5
      vertex 6.52264 45.2774 0
      vertex 5.47736 45.2774 0
    endloop
  endfacet
  facet normal 0.587785 0.809017 -0
    outer loop
      vertex 3.5 45.9199 0
      vertex 2.65435 46.5343 5.5
      vertex 3.5 45.9199 5.5
    endloop
  endfacet
  facet normal 0.587785 0.809017 0
    outer loop
      vertex 2.65435 46.5343 5.5
      vertex 3.5 45.9199 0
      vertex 2.65435 46.5343 0
    endloop
  endfacet
  facet normal 0.406808 0.913513 -0
    outer loop
      vertex 5.38197 48.3479 5.5
      vertex 5 48.518 6.5
      vertex 5.38197 48.3479 6.5
    endloop
  endfacet
  facet normal 0.406808 0.913513 0
    outer loop
      vertex 5 48.518 6.5
      vertex 5.38197 48.3479 5.5
      vertex 5 48.518 5.5
    endloop
  endfacet
  facet normal -0.951064 -0.308994 0
    outer loop
      vertex 7.9563 50.6658 5.5
      vertex 7.82709 51.0635 6.5
      vertex 7.82709 51.0635 5.5
    endloop
  endfacet
  facet normal -0.951064 -0.308994 0
    outer loop
      vertex 7.82709 51.0635 6.5
      vertex 7.9563 50.6658 5.5
      vertex 7.9563 50.6658 6.5
    endloop
  endfacet
  facet normal -0.994522 -0.104523 0
    outer loop
      vertex 8 50.25 5.5
      vertex 7.9563 50.6658 6.5
      vertex 7.9563 50.6658 5.5
    endloop
  endfacet
  facet normal -0.994522 -0.104523 0
    outer loop
      vertex 7.9563 50.6658 6.5
      vertex 8 50.25 5.5
      vertex 8 50.25 6.5
    endloop
  endfacet
  facet normal -0.866024 -0.500003 0
    outer loop
      vertex 7.82709 51.0635 5.5
      vertex 7.61803 51.4256 6.5
      vertex 7.61803 51.4256 5.5
    endloop
  endfacet
  facet normal -0.866024 -0.500003 0
    outer loop
      vertex 7.61803 51.4256 6.5
      vertex 7.82709 51.0635 5.5
      vertex 7.82709 51.0635 6.5
    endloop
  endfacet
  facet normal 0.743128 0.66915 0
    outer loop
      vertex 4.66174 48.7637 6.5
      vertex 4.38197 49.0744 5.5
      vertex 4.38197 49.0744 6.5
    endloop
  endfacet
  facet normal 0.743128 0.66915 0
    outer loop
      vertex 4.38197 49.0744 5.5
      vertex 4.66174 48.7637 6.5
      vertex 4.66174 48.7637 5.5
    endloop
  endfacet
  facet normal -0.994522 0.104523 0
    outer loop
      vertex 7.9563 49.8342 5.5
      vertex 8 50.25 6.5
      vertex 8 50.25 5.5
    endloop
  endfacet
  facet normal -0.994522 0.104523 0
    outer loop
      vertex 8 50.25 6.5
      vertex 7.9563 49.8342 5.5
      vertex 7.9563 49.8342 6.5
    endloop
  endfacet
  facet normal -0.866024 0.500003 0
    outer loop
      vertex 7.61803 49.0744 5.5
      vertex 7.82709 49.4365 6.5
      vertex 7.82709 49.4365 5.5
    endloop
  endfacet
  facet normal -0.866024 0.500003 0
    outer loop
      vertex 7.82709 49.4365 6.5
      vertex 7.61803 49.0744 5.5
      vertex 7.61803 49.0744 6.5
    endloop
  endfacet
  facet normal -0.406808 -0.913513 0
    outer loop
      vertex 6.61803 52.1521 5.5
      vertex 7 51.982 6.5
      vertex 6.61803 52.1521 6.5
    endloop
  endfacet
  facet normal -0.406808 -0.913513 -0
    outer loop
      vertex 7 51.982 6.5
      vertex 6.61803 52.1521 5.5
      vertex 7 51.982 5.5
    endloop
  endfacet
  facet normal 0.951064 0.308994 0
    outer loop
      vertex 4.17291 49.4365 6.5
      vertex 4.0437 49.8342 5.5
      vertex 4.0437 49.8342 6.5
    endloop
  endfacet
  facet normal 0.951064 0.308994 0
    outer loop
      vertex 4.0437 49.8342 5.5
      vertex 4.17291 49.4365 6.5
      vertex 4.17291 49.4365 5.5
    endloop
  endfacet
  facet normal 0.587691 -0.809086 0
    outer loop
      vertex 4.66174 51.7363 5.5
      vertex 5 51.982 6.5
      vertex 4.66174 51.7363 6.5
    endloop
  endfacet
  facet normal 0.587691 -0.809086 0
    outer loop
      vertex 5 51.982 6.5
      vertex 4.66174 51.7363 5.5
      vertex 5 51.982 5.5
    endloop
  endfacet
  facet normal -0.587691 -0.809086 0
    outer loop
      vertex 7 51.982 5.5
      vertex 7.33826 51.7363 6.5
      vertex 7 51.982 6.5
    endloop
  endfacet
  facet normal -0.587691 -0.809086 -0
    outer loop
      vertex 7.33826 51.7363 6.5
      vertex 7 51.982 5.5
      vertex 7.33826 51.7363 5.5
    endloop
  endfacet
  facet normal 0.994522 -0.104523 0
    outer loop
      vertex 4 50.25 6.5
      vertex 4.0437 50.6658 5.5
      vertex 4.0437 50.6658 6.5
    endloop
  endfacet
  facet normal 0.994522 -0.104523 0
    outer loop
      vertex 4.0437 50.6658 5.5
      vertex 4 50.25 6.5
      vertex 4 50.25 5.5
    endloop
  endfacet
  facet normal -0.207845 0.978162 0
    outer loop
      vertex 6.61803 48.3479 5.5
      vertex 6.20906 48.261 6.5
      vertex 6.61803 48.3479 6.5
    endloop
  endfacet
  facet normal -0.207845 0.978162 0
    outer loop
      vertex 6.20906 48.261 6.5
      vertex 6.61803 48.3479 5.5
      vertex 6.20906 48.261 5.5
    endloop
  endfacet
  facet normal 0.994522 0.104523 0
    outer loop
      vertex 4.0437 49.8342 6.5
      vertex 4 50.25 5.5
      vertex 4 50.25 6.5
    endloop
  endfacet
  facet normal 0.994522 0.104523 0
    outer loop
      vertex 4 50.25 5.5
      vertex 4.0437 49.8342 6.5
      vertex 4.0437 49.8342 5.5
    endloop
  endfacet
  facet normal -0.743128 0.66915 0
    outer loop
      vertex 7.33826 48.7637 5.5
      vertex 7.61803 49.0744 6.5
      vertex 7.61803 49.0744 5.5
    endloop
  endfacet
  facet normal -0.743128 0.66915 0
    outer loop
      vertex 7.61803 49.0744 6.5
      vertex 7.33826 48.7637 5.5
      vertex 7.33826 48.7637 6.5
    endloop
  endfacet
  facet normal 0 1 -0
    outer loop
      vertex 6.20906 48.261 5.5
      vertex 5.79094 48.261 6.5
      vertex 6.20906 48.261 6.5
    endloop
  endfacet
  facet normal 0 1 0
    outer loop
      vertex 5.79094 48.261 6.5
      vertex 6.20906 48.261 5.5
      vertex 5.79094 48.261 5.5
    endloop
  endfacet
  facet normal 0.951064 -0.308994 0
    outer loop
      vertex 4.0437 50.6658 6.5
      vertex 4.17291 51.0635 5.5
      vertex 4.17291 51.0635 6.5
    endloop
  endfacet
  facet normal 0.951064 -0.308994 0
    outer loop
      vertex 4.17291 51.0635 5.5
      vertex 4.0437 50.6658 6.5
      vertex 4.0437 50.6658 5.5
    endloop
  endfacet
  facet normal 0.207845 -0.978162 0
    outer loop
      vertex 5.38197 52.1521 5.5
      vertex 5.79094 52.239 6.5
      vertex 5.38197 52.1521 6.5
    endloop
  endfacet
  facet normal 0.207845 -0.978162 0
    outer loop
      vertex 5.79094 52.239 6.5
      vertex 5.38197 52.1521 5.5
      vertex 5.79094 52.239 5.5
    endloop
  endfacet
  facet normal -0.207845 -0.978162 0
    outer loop
      vertex 6.20906 52.239 5.5
      vertex 6.61803 52.1521 6.5
      vertex 6.20906 52.239 6.5
    endloop
  endfacet
  facet normal -0.207845 -0.978162 -0
    outer loop
      vertex 6.61803 52.1521 6.5
      vertex 6.20906 52.239 5.5
      vertex 6.61803 52.1521 5.5
    endloop
  endfacet
  facet normal 0.406808 -0.913513 0
    outer loop
      vertex 5 51.982 5.5
      vertex 5.38197 52.1521 6.5
      vertex 5 51.982 6.5
    endloop
  endfacet
  facet normal 0.406808 -0.913513 0
    outer loop
      vertex 5.38197 52.1521 6.5
      vertex 5 51.982 5.5
      vertex 5.38197 52.1521 5.5
    endloop
  endfacet
  facet normal -0.406808 0.913513 0
    outer loop
      vertex 7 48.518 5.5
      vertex 6.61803 48.3479 6.5
      vertex 7 48.518 6.5
    endloop
  endfacet
  facet normal -0.406808 0.913513 0
    outer loop
      vertex 6.61803 48.3479 6.5
      vertex 7 48.518 5.5
      vertex 6.61803 48.3479 5.5
    endloop
  endfacet
  facet normal -0.951064 0.308994 0
    outer loop
      vertex 7.82709 49.4365 5.5
      vertex 7.9563 49.8342 6.5
      vertex 7.9563 49.8342 5.5
    endloop
  endfacet
  facet normal -0.951064 0.308994 0
    outer loop
      vertex 7.9563 49.8342 6.5
      vertex 7.82709 49.4365 5.5
      vertex 7.82709 49.4365 6.5
    endloop
  endfacet
  facet normal 0.743128 -0.66915 0
    outer loop
      vertex 4.38197 51.4256 6.5
      vertex 4.66174 51.7363 5.5
      vertex 4.66174 51.7363 6.5
    endloop
  endfacet
  facet normal 0.743128 -0.66915 0
    outer loop
      vertex 4.66174 51.7363 5.5
      vertex 4.38197 51.4256 6.5
      vertex 4.38197 51.4256 5.5
    endloop
  endfacet
  facet normal 0.207845 0.978162 -0
    outer loop
      vertex 5.79094 48.261 5.5
      vertex 5.38197 48.3479 6.5
      vertex 5.79094 48.261 6.5
    endloop
  endfacet
  facet normal 0.207845 0.978162 0
    outer loop
      vertex 5.38197 48.3479 6.5
      vertex 5.79094 48.261 5.5
      vertex 5.38197 48.3479 5.5
    endloop
  endfacet
  facet normal 0.866024 0.500003 0
    outer loop
      vertex 4.38197 49.0744 6.5
      vertex 4.17291 49.4365 5.5
      vertex 4.17291 49.4365 6.5
    endloop
  endfacet
  facet normal 0.866024 0.500003 0
    outer loop
      vertex 4.17291 49.4365 5.5
      vertex 4.38197 49.0744 6.5
      vertex 4.38197 49.0744 5.5
    endloop
  endfacet
  facet normal -0.743128 -0.66915 0
    outer loop
      vertex 7.61803 51.4256 5.5
      vertex 7.33826 51.7363 6.5
      vertex 7.33826 51.7363 5.5
    endloop
  endfacet
  facet normal -0.743128 -0.66915 0
    outer loop
      vertex 7.33826 51.7363 6.5
      vertex 7.61803 51.4256 5.5
      vertex 7.61803 51.4256 6.5
    endloop
  endfacet
  facet normal 0.866024 -0.500003 0
    outer loop
      vertex 4.17291 51.0635 6.5
      vertex 4.38197 51.4256 5.5
      vertex 4.38197 51.4256 6.5
    endloop
  endfacet
  facet normal 0.866024 -0.500003 0
    outer loop
      vertex 4.38197 51.4256 5.5
      vertex 4.17291 51.0635 6.5
      vertex 4.17291 51.0635 5.5
    endloop
  endfacet
  facet normal -0.587691 0.809086 0
    outer loop
      vertex 7.33826 48.7637 5.5
      vertex 7 48.518 6.5
      vertex 7.33826 48.7637 6.5
    endloop
  endfacet
  facet normal -0.587691 0.809086 0
    outer loop
      vertex 7 48.518 6.5
      vertex 7.33826 48.7637 5.5
      vertex 7 48.518 5.5
    endloop
  endfacet
  facet normal 0 -1 0
    outer loop
      vertex 5.79094 52.239 5.5
      vertex 6.20906 52.239 6.5
      vertex 5.79094 52.239 6.5
    endloop
  endfacet
  facet normal 0 -1 -0
    outer loop
      vertex 6.20906 52.239 6.5
      vertex 5.79094 52.239 5.5
      vertex 6.20906 52.239 5.5
    endloop
  endfacet
  facet normal 0.587691 0.809086 -0
    outer loop
      vertex 5 48.518 5.5
      vertex 4.66174 48.7637 6.5
      vertex 5 48.518 6.5
    endloop
  endfacet
  facet normal 0.587691 0.809086 0
    outer loop
      vertex 4.66174 48.7637 6.5
      vertex 5 48.518 5.5
      vertex 4.66174 48.7637 5.5
    endloop
  endfacet
  facet normal -0.743159 -0.669114 0
    outer loop
      vertex 1.98522 45.7911 2
      vertex 1.1459 46.7233 6.5
      vertex 1.1459 46.7233 2
    endloop
  endfacet
  facet normal -0.743159 -0.669114 0
    outer loop
      vertex 1.1459 46.7233 6.5
      vertex 1.98522 45.7911 2
      vertex 1.98522 45.7911 6.5
    endloop
  endfacet
  facet normal 0.951056 0.309019 0
    outer loop
      vertex 11.8689 51.4975 6.5
      vertex 11.4813 52.6904 0
      vertex 11.4813 52.6904 6.5
    endloop
  endfacet
  facet normal 0.951056 0.309019 0
    outer loop
      vertex 11.4813 52.6904 0
      vertex 11.8689 51.4975 6.5
      vertex 11.8689 51.4975 0
    endloop
  endfacet
  facet normal 0.994523 0.104515 0
    outer loop
      vertex 12 50.25 6.5
      vertex 11.8689 51.4975 0
      vertex 11.8689 51.4975 6.5
    endloop
  endfacet
  facet normal 0.994523 0.104515 0
    outer loop
      vertex 11.8689 51.4975 0
      vertex 12 50.25 6.5
      vertex 12 50.25 0
    endloop
  endfacet
  facet normal 0.866017 0.500015 0
    outer loop
      vertex 11.4813 52.6904 6.5
      vertex 10.8541 53.7767 0
      vertex 10.8541 53.7767 6.5
    endloop
  endfacet
  facet normal 0.866017 0.500015 0
    outer loop
      vertex 10.8541 53.7767 0
      vertex 11.4813 52.6904 6.5
      vertex 11.4813 52.6904 0
    endloop
  endfacet
  facet normal 0.951056 -0.309019 0
    outer loop
      vertex 11.4813 47.8096 6.5
      vertex 11.8689 49.0025 0
      vertex 11.8689 49.0025 6.5
    endloop
  endfacet
  facet normal 0.951056 -0.309019 0
    outer loop
      vertex 11.8689 49.0025 0
      vertex 11.4813 47.8096 6.5
      vertex 11.4813 47.8096 0
    endloop
  endfacet
  facet normal 0.587788 -0.809015 0
    outer loop
      vertex 9 45.0538 0
      vertex 10.0148 45.7911 6.5
      vertex 9 45.0538 6.5
    endloop
  endfacet
  facet normal 0.587788 -0.809015 0
    outer loop
      vertex 10.0148 45.7911 6.5
      vertex 9 45.0538 0
      vertex 10.0148 45.7911 0
    endloop
  endfacet
  facet normal 0.743167 -0.669106 0
    outer loop
      vertex 10.0148 45.7911 6.5
      vertex 10.8541 46.7233 0
      vertex 10.8541 46.7233 6.5
    endloop
  endfacet
  facet normal 0.743167 -0.669106 0
    outer loop
      vertex 10.8541 46.7233 0
      vertex 10.0148 45.7911 6.5
      vertex 10.0148 45.7911 0
    endloop
  endfacet
  facet normal 0.994523 -0.104515 0
    outer loop
      vertex 11.8689 49.0025 6.5
      vertex 12 50.25 0
      vertex 12 50.25 6.5
    endloop
  endfacet
  facet normal 0.994523 -0.104515 0
    outer loop
      vertex 12 50.25 0
      vertex 11.8689 49.0025 6.5
      vertex 11.8689 49.0025 0
    endloop
  endfacet
  facet normal -0.406678 -0.913571 0
    outer loop
      vertex 3 45.0538 0
      vertex 4.1459 44.5437 6.5
      vertex 3 45.0538 6.5
    endloop
  endfacet
  facet normal -0.406678 -0.913571 -0
    outer loop
      vertex 4.1459 44.5437 6.5
      vertex 3 45.0538 0
      vertex 4.1459 44.5437 0
    endloop
  endfacet
  facet normal 0.406678 0.913571 -0
    outer loop
      vertex 9 55.4462 2
      vertex 7.8541 55.9563 6.5
      vertex 9 55.4462 6.5
    endloop
  endfacet
  facet normal 0.406678 0.913571 0
    outer loop
      vertex 7.8541 55.9563 6.5
      vertex 9 55.4462 2
      vertex 7.8541 55.9563 2
    endloop
  endfacet
  facet normal 0.743183 0.669089 0
    outer loop
      vertex 10.0148 54.7089 6.5
      vertex 10.4329 54.2445 2
      vertex 10.0148 54.7089 2
    endloop
  endfacet
  facet normal 0.743167 0.669106 -3.20659e-06
    outer loop
      vertex 10.8541 53.7767 6.5
      vertex 10.4329 54.2445 2
      vertex 10.0148 54.7089 6.5
    endloop
  endfacet
  facet normal 0.743152 0.669123 -0
    outer loop
      vertex 10.8541 53.7767 0
      vertex 10.4329 54.2445 2
      vertex 10.8541 53.7767 6.5
    endloop
  endfacet
  facet normal 0.743152 0.669123 0
    outer loop
      vertex 10.4329 54.2445 2
      vertex 10.8541 53.7767 0
      vertex 10.4329 54.2445 0
    endloop
  endfacet
  facet normal -0.586411 -0.810014 0
    outer loop
      vertex 2 45.7804 2
      vertex 1.98522 45.7911 6.5
      vertex 1.98522 45.7911 2
    endloop
  endfacet
  facet normal -0.587795 -0.80901 -6.93552e-06
    outer loop
      vertex 1.98522 45.7911 6.5
      vertex 2 45.7804 2
      vertex 3 45.0538 6.5
    endloop
  endfacet
  facet normal -0.587816 -0.808995 0
    outer loop
      vertex 3 45.0538 0
      vertex 2 45.7804 2
      vertex 2 45.7804 0
    endloop
  endfacet
  facet normal -0.587816 -0.808995 0
    outer loop
      vertex 2 45.7804 2
      vertex 3 45.0538 0
      vertex 3 45.0538 6.5
    endloop
  endfacet
  facet normal -0.743159 0.669114 0
    outer loop
      vertex 1.1459 53.7767 2
      vertex 1.98522 54.7089 6.5
      vertex 1.98522 54.7089 2
    endloop
  endfacet
  facet normal -0.743159 0.669114 0
    outer loop
      vertex 1.98522 54.7089 6.5
      vertex 1.1459 53.7767 2
      vertex 1.1459 53.7767 6.5
    endloop
  endfacet
  facet normal 0 1 -0
    outer loop
      vertex 6.62717 56.2171 2
      vertex 5.37283 56.2171 6.5
      vertex 6.62717 56.2171 6.5
    endloop
  endfacet
  facet normal 0 1 0
    outer loop
      vertex 5.37283 56.2171 6.5
      vertex 6.62717 56.2171 2
      vertex 5.37283 56.2171 2
    endloop
  endfacet
  facet normal 0.406678 -0.913571 0
    outer loop
      vertex 7.8541 44.5437 0
      vertex 9 45.0538 6.5
      vertex 7.8541 44.5437 6.5
    endloop
  endfacet
  facet normal 0.406678 -0.913571 0
    outer loop
      vertex 9 45.0538 6.5
      vertex 7.8541 44.5437 0
      vertex 9 45.0538 0
    endloop
  endfacet
  facet normal 0.207918 -0.978146 0
    outer loop
      vertex 6.62717 44.2829 0
      vertex 7.8541 44.5437 6.5
      vertex 6.62717 44.2829 6.5
    endloop
  endfacet
  facet normal 0.207918 -0.978146 0
    outer loop
      vertex 7.8541 44.5437 6.5
      vertex 6.62717 44.2829 0
      vertex 7.8541 44.5437 0
    endloop
  endfacet
  facet normal -0.951053 0.309028 0
    outer loop
      vertex 0.131115 51.4975 2
      vertex 0.518727 52.6904 6.5
      vertex 0.518727 52.6904 2
    endloop
  endfacet
  facet normal -0.951053 0.309028 0
    outer loop
      vertex 0.518727 52.6904 6.5
      vertex 0.131115 51.4975 2
      vertex 0.131115 51.4975 6.5
    endloop
  endfacet
  facet normal -0.951053 -0.309028 0
    outer loop
      vertex 0.518727 47.8096 2
      vertex 0.131115 49.0025 6.5
      vertex 0.131115 49.0025 2
    endloop
  endfacet
  facet normal -0.951053 -0.309028 0
    outer loop
      vertex 0.131115 49.0025 6.5
      vertex 0.518727 47.8096 2
      vertex 0.518727 47.8096 6.5
    endloop
  endfacet
  facet normal -0.406678 0.913571 0
    outer loop
      vertex 4.1459 55.9563 2
      vertex 3 55.4462 6.5
      vertex 4.1459 55.9563 6.5
    endloop
  endfacet
  facet normal -0.406678 0.913571 0
    outer loop
      vertex 3 55.4462 6.5
      vertex 4.1459 55.9563 2
      vertex 3 55.4462 2
    endloop
  endfacet
  facet normal 0 0 1
    outer loop
      vertex 8 50.25 6.5
      vertex 12 50.25 6.5
      vertex 11.8689 51.4975 6.5
    endloop
  endfacet
  facet normal 0 0 1
    outer loop
      vertex 7.9563 50.6658 6.5
      vertex 11.8689 51.4975 6.5
      vertex 11.4813 52.6904 6.5
    endloop
  endfacet
  facet normal 0 0 1
    outer loop
      vertex 12 50.25 6.5
      vertex 8 50.25 6.5
      vertex 11.8689 49.0025 6.5
    endloop
  endfacet
  facet normal 0 0 1
    outer loop
      vertex 7.82709 51.0635 6.5
      vertex 11.4813 52.6904 6.5
      vertex 10.8541 53.7767 6.5
    endloop
  endfacet
  facet normal -0 0 1
    outer loop
      vertex 7.9563 49.8342 6.5
      vertex 11.8689 49.0025 6.5
      vertex 8 50.25 6.5
    endloop
  endfacet
  facet normal 0 0 1
    outer loop
      vertex 7.61803 51.4256 6.5
      vertex 10.8541 53.7767 6.5
      vertex 10.0148 54.7089 6.5
    endloop
  endfacet
  facet normal 0 0 1
    outer loop
      vertex 11.8689 49.0025 6.5
      vertex 7.9563 49.8342 6.5
      vertex 11.4813 47.8096 6.5
    endloop
  endfacet
  facet normal 0 0 1
    outer loop
      vertex 7.33826 51.7363 6.5
      vertex 10.0148 54.7089 6.5
      vertex 9 55.4462 6.5
    endloop
  endfacet
  facet normal -0 0 1
    outer loop
      vertex 7.82709 49.4365 6.5
      vertex 11.4813 47.8096 6.5
      vertex 7.9563 49.8342 6.5
    endloop
  endfacet
  facet normal 0 0 1
    outer loop
      vertex 11.4813 47.8096 6.5
      vertex 7.82709 49.4365 6.5
      vertex 10.8541 46.7233 6.5
    endloop
  endfacet
  facet normal 0 0 1
    outer loop
      vertex 11.8689 51.4975 6.5
      vertex 7.9563 50.6658 6.5
      vertex 8 50.25 6.5
    endloop
  endfacet
  facet normal 0 0 1
    outer loop
      vertex 7 51.982 6.5
      vertex 9 55.4462 6.5
      vertex 7.8541 55.9563 6.5
    endloop
  endfacet
  facet normal 0 0 1
    outer loop
      vertex 11.4813 52.6904 6.5
      vertex 7.82709 51.0635 6.5
      vertex 7.9563 50.6658 6.5
    endloop
  endfacet
  facet normal 0 0 1
    outer loop
      vertex 10.8541 53.7767 6.5
      vertex 7.61803 51.4256 6.5
      vertex 7.82709 51.0635 6.5
    endloop
  endfacet
  facet normal 0 0 1
    outer loop
      vertex 10.0148 54.7089 6.5
      vertex 7.33826 51.7363 6.5
      vertex 7.61803 51.4256 6.5
    endloop
  endfacet
  facet normal 0 0 1
    outer loop
      vertex 9 55.4462 6.5
      vertex 7 51.982 6.5
      vertex 7.33826 51.7363 6.5
    endloop
  endfacet
  facet normal 0 0 1
    outer loop
      vertex 6.61803 52.1521 6.5
      vertex 7.8541 55.9563 6.5
      vertex 6.62717 56.2171 6.5
    endloop
  endfacet
  facet normal 0 0 1
    outer loop
      vertex 7.8541 55.9563 6.5
      vertex 6.61803 52.1521 6.5
      vertex 7 51.982 6.5
    endloop
  endfacet
  facet normal 0 0 1
    outer loop
      vertex 6.62717 56.2171 6.5
      vertex 6.20906 52.239 6.5
      vertex 6.61803 52.1521 6.5
    endloop
  endfacet
  facet normal 0 0 1
    outer loop
      vertex 6.62717 56.2171 6.5
      vertex 5.79094 52.239 6.5
      vertex 6.20906 52.239 6.5
    endloop
  endfacet
  facet normal -0 0 1
    outer loop
      vertex 5.37283 56.2171 6.5
      vertex 5.79094 52.239 6.5
      vertex 6.62717 56.2171 6.5
    endloop
  endfacet
  facet normal 0 0 1
    outer loop
      vertex 5.79094 52.239 6.5
      vertex 5.37283 56.2171 6.5
      vertex 5.38197 52.1521 6.5
    endloop
  endfacet
  facet normal -0 0 1
    outer loop
      vertex 4.1459 55.9563 6.5
      vertex 5.38197 52.1521 6.5
      vertex 5.37283 56.2171 6.5
    endloop
  endfacet
  facet normal 0 0 1
    outer loop
      vertex 5.38197 52.1521 6.5
      vertex 4.1459 55.9563 6.5
      vertex 5 51.982 6.5
    endloop
  endfacet
  facet normal -0 0 1
    outer loop
      vertex 3 55.4462 6.5
      vertex 5 51.982 6.5
      vertex 4.1459 55.9563 6.5
    endloop
  endfacet
  facet normal 0 0 1
    outer loop
      vertex 5 51.982 6.5
      vertex 3 55.4462 6.5
      vertex 4.66174 51.7363 6.5
    endloop
  endfacet
  facet normal -0 0 1
    outer loop
      vertex 1.98522 54.7089 6.5
      vertex 4.66174 51.7363 6.5
      vertex 3 55.4462 6.5
    endloop
  endfacet
  facet normal 0 0 1
    outer loop
      vertex 4.66174 51.7363 6.5
      vertex 1.98522 54.7089 6.5
      vertex 4.38197 51.4256 6.5
    endloop
  endfacet
  facet normal -0 0 1
    outer loop
      vertex 1.1459 53.7767 6.5
      vertex 4.38197 51.4256 6.5
      vertex 1.98522 54.7089 6.5
    endloop
  endfacet
  facet normal 0 0 1
    outer loop
      vertex 4.38197 51.4256 6.5
      vertex 1.1459 53.7767 6.5
      vertex 4.17291 51.0635 6.5
    endloop
  endfacet
  facet normal -0 0 1
    outer loop
      vertex 7.61803 49.0744 6.5
      vertex 10.8541 46.7233 6.5
      vertex 7.82709 49.4365 6.5
    endloop
  endfacet
  facet normal 0 0 1
    outer loop
      vertex 10.8541 46.7233 6.5
      vertex 7.61803 49.0744 6.5
      vertex 10.0148 45.7911 6.5
    endloop
  endfacet
  facet normal -0 0 1
    outer loop
      vertex 7.33826 48.7637 6.5
      vertex 10.0148 45.7911 6.5
      vertex 7.61803 49.0744 6.5
    endloop
  endfacet
  facet normal 0 0 1
    outer loop
      vertex 10.0148 45.7911 6.5
      vertex 7.33826 48.7637 6.5
      vertex 9 45.0538 6.5
    endloop
  endfacet
  facet normal -0 0 1
    outer loop
      vertex 7 48.518 6.5
      vertex 9 45.0538 6.5
      vertex 7.33826 48.7637 6.5
    endloop
  endfacet
  facet normal 0 0 1
    outer loop
      vertex 9 45.0538 6.5
      vertex 7 48.518 6.5
      vertex 7.8541 44.5437 6.5
    endloop
  endfacet
  facet normal -0 0 1
    outer loop
      vertex 6.61803 48.3479 6.5
      vertex 7.8541 44.5437 6.5
      vertex 7 48.518 6.5
    endloop
  endfacet
  facet normal 0 0 1
    outer loop
      vertex 7.8541 44.5437 6.5
      vertex 6.61803 48.3479 6.5
      vertex 6.62717 44.2829 6.5
    endloop
  endfacet
  facet normal -0 0 1
    outer loop
      vertex 6.20906 48.261 6.5
      vertex 6.62717 44.2829 6.5
      vertex 6.61803 48.3479 6.5
    endloop
  endfacet
  facet normal -0 0 1
    outer loop
      vertex 5.79094 48.261 6.5
      vertex 6.62717 44.2829 6.5
      vertex 6.20906 48.261 6.5
    endloop
  endfacet
  facet normal 0 0 1
    outer loop
      vertex 5.37283 44.2829 6.5
      vertex 5.79094 48.261 6.5
      vertex 5.38197 48.3479 6.5
    endloop
  endfacet
  facet normal 0 0 1
    outer loop
      vertex 5.79094 48.261 6.5
      vertex 5.37283 44.2829 6.5
      vertex 6.62717 44.2829 6.5
    endloop
  endfacet
  facet normal 0 0 1
    outer loop
      vertex 4.1459 44.5437 6.5
      vertex 5.38197 48.3479 6.5
      vertex 5 48.518 6.5
    endloop
  endfacet
  facet normal 0 0 1
    outer loop
      vertex 3 45.0538 6.5
      vertex 5 48.518 6.5
      vertex 4.66174 48.7637 6.5
    endloop
  endfacet
  facet normal 0 0 1
    outer loop
      vertex 1.98522 45.7911 6.5
      vertex 4.66174 48.7637 6.5
      vertex 4.38197 49.0744 6.5
    endloop
  endfacet
  facet normal 0 0 1
    outer loop
      vertex 1.1459 46.7233 6.5
      vertex 4.38197 49.0744 6.5
      vertex 4.17291 49.4365 6.5
    endloop
  endfacet
  facet normal 0 0 1
    outer loop
      vertex 5.38197 48.3479 6.5
      vertex 4.1459 44.5437 6.5
      vertex 5.37283 44.2829 6.5
    endloop
  endfacet
  facet normal 0 0 1
    outer loop
      vertex 0.518727 47.8096 6.5
      vertex 4.17291 49.4365 6.5
      vertex 4.0437 49.8342 6.5
    endloop
  endfacet
  facet normal 0 0 1
    outer loop
      vertex 0.131115 49.0025 6.5
      vertex 4.0437 49.8342 6.5
      vertex 4 50.25 6.5
    endloop
  endfacet
  facet normal -0 0 1
    outer loop
      vertex 0.518727 52.6904 6.5
      vertex 4.17291 51.0635 6.5
      vertex 1.1459 53.7767 6.5
    endloop
  endfacet
  facet normal 0 0 1
    outer loop
      vertex 5 48.518 6.5
      vertex 3 45.0538 6.5
      vertex 4.1459 44.5437 6.5
    endloop
  endfacet
  facet normal 0 0 1
    outer loop
      vertex 4.17291 51.0635 6.5
      vertex 0.518727 52.6904 6.5
      vertex 4.0437 50.6658 6.5
    endloop
  endfacet
  facet normal 0 0 1
    outer loop
      vertex 4.66174 48.7637 6.5
      vertex 1.98522 45.7911 6.5
      vertex 3 45.0538 6.5
    endloop
  endfacet
  facet normal -0 0 1
    outer loop
      vertex 0.131115 51.4975 6.5
      vertex 4.0437 50.6658 6.5
      vertex 0.518727 52.6904 6.5
    endloop
  endfacet
  facet normal 0 0 1
    outer loop
      vertex 4.38197 49.0744 6.5
      vertex 1.1459 46.7233 6.5
      vertex 1.98522 45.7911 6.5
    endloop
  endfacet
  facet normal 0 0 1
    outer loop
      vertex 4.0437 50.6658 6.5
      vertex 0.131115 51.4975 6.5
      vertex 4 50.25 6.5
    endloop
  endfacet
  facet normal 0 0 1
    outer loop
      vertex 4.17291 49.4365 6.5
      vertex 0.518727 47.8096 6.5
      vertex 1.1459 46.7233 6.5
    endloop
  endfacet
  facet normal 0 0 1
    outer loop
      vertex 0 50.25 6.5
      vertex 4 50.25 6.5
      vertex 0.131115 51.4975 6.5
    endloop
  endfacet
  facet normal 0 0 1
    outer loop
      vertex 4.0437 49.8342 6.5
      vertex 0.131115 49.0025 6.5
      vertex 0.518727 47.8096 6.5
    endloop
  endfacet
  facet normal 0 0 1
    outer loop
      vertex 4 50.25 6.5
      vertex 0 50.25 6.5
      vertex 0.131115 49.0025 6.5
    endloop
  endfacet
  facet normal -0.207918 -0.978146 0
    outer loop
      vertex 4.1459 44.5437 0
      vertex 5.37283 44.2829 6.5
      vertex 4.1459 44.5437 6.5
    endloop
  endfacet
  facet normal -0.207918 -0.978146 -0
    outer loop
      vertex 5.37283 44.2829 6.5
      vertex 4.1459 44.5437 0
      vertex 5.37283 44.2829 0
    endloop
  endfacet
  facet normal 0.207918 0.978146 -0
    outer loop
      vertex 7.8541 55.9563 2
      vertex 6.62717 56.2171 6.5
      vertex 7.8541 55.9563 6.5
    endloop
  endfacet
  facet normal 0.207918 0.978146 0
    outer loop
      vertex 6.62717 56.2171 6.5
      vertex 7.8541 55.9563 2
      vertex 6.62717 56.2171 2
    endloop
  endfacet
  facet normal -0.994522 -0.104526 0
    outer loop
      vertex 0.131115 49.0025 2
      vertex 0 50.25 6.5
      vertex 0 50.25 2
    endloop
  endfacet
  facet normal -0.994522 -0.104526 0
    outer loop
      vertex 0 50.25 6.5
      vertex 0.131115 49.0025 2
      vertex 0.131115 49.0025 6.5
    endloop
  endfacet
  facet normal -0.866026 -0.499998 0
    outer loop
      vertex 1.1459 46.7233 2
      vertex 0.518727 47.8096 6.5
      vertex 0.518727 47.8096 2
    endloop
  endfacet
  facet normal -0.866026 -0.499998 0
    outer loop
      vertex 0.518727 47.8096 6.5
      vertex 1.1459 46.7233 2
      vertex 1.1459 46.7233 6.5
    endloop
  endfacet
  facet normal -0.866026 0.499998 0
    outer loop
      vertex 0.518727 52.6904 2
      vertex 1.1459 53.7767 6.5
      vertex 1.1459 53.7767 2
    endloop
  endfacet
  facet normal -0.866026 0.499998 0
    outer loop
      vertex 1.1459 53.7767 6.5
      vertex 0.518727 52.6904 2
      vertex 0.518727 52.6904 6.5
    endloop
  endfacet
  facet normal 0.866017 -0.500015 0
    outer loop
      vertex 10.8541 46.7233 6.5
      vertex 11.4813 47.8096 0
      vertex 11.4813 47.8096 6.5
    endloop
  endfacet
  facet normal 0.866017 -0.500015 0
    outer loop
      vertex 11.4813 47.8096 0
      vertex 10.8541 46.7233 6.5
      vertex 10.8541 46.7233 0
    endloop
  endfacet
  facet normal 0.587788 0.809015 -0
    outer loop
      vertex 10.0148 54.7089 2
      vertex 9 55.4462 6.5
      vertex 10.0148 54.7089 6.5
    endloop
  endfacet
  facet normal 0.587788 0.809015 0
    outer loop
      vertex 9 55.4462 6.5
      vertex 10.0148 54.7089 2
      vertex 9 55.4462 2
    endloop
  endfacet
  facet normal -0.587795 0.80901 0
    outer loop
      vertex 3 55.4462 2
      vertex 1.98522 54.7089 6.5
      vertex 3 55.4462 6.5
    endloop
  endfacet
  facet normal -0.587795 0.80901 0
    outer loop
      vertex 1.98522 54.7089 6.5
      vertex 3 55.4462 2
      vertex 1.98522 54.7089 2
    endloop
  endfacet
  facet normal -0.207918 0.978146 0
    outer loop
      vertex 5.37283 56.2171 2
      vertex 4.1459 55.9563 6.5
      vertex 5.37283 56.2171 6.5
    endloop
  endfacet
  facet normal -0.207918 0.978146 0
    outer loop
      vertex 4.1459 55.9563 6.5
      vertex 5.37283 56.2171 2
      vertex 4.1459 55.9563 2
    endloop
  endfacet
  facet normal 0 -1 0
    outer loop
      vertex 5.37283 44.2829 0
      vertex 6.62717 44.2829 6.5
      vertex 5.37283 44.2829 6.5
    endloop
  endfacet
  facet normal 0 -1 -0
    outer loop
      vertex 6.62717 44.2829 6.5
      vertex 5.37283 44.2829 0
      vertex 6.62717 44.2829 0
    endloop
  endfacet
  facet normal -0.994522 0.104526 0
    outer loop
      vertex 0 50.25 2
      vertex 0.131115 51.4975 6.5
      vertex 0.131115 51.4975 2
    endloop
  endfacet
  facet normal -0.994522 0.104526 0
    outer loop
      vertex 0.131115 51.4975 6.5
      vertex 0 50.25 2
      vertex 0 50.25 6.5
    endloop
  endfacet
endsolid OpenSCAD_Model
