solid OpenSCAD_Model
  facet normal -0.743018 0.669271 0
    outer loop
      vertex 0.190983 55.8378 0
      vertex 0.330869 55.9931 2
      vertex 0.330869 55.9931 0
    endloop
  endfacet
  facet normal -0.743018 0.669271 0
    outer loop
      vertex 0.330869 55.9931 2
      vertex 0.190983 55.8378 0
      vertex 0.190983 55.8378 2
    endloop
  endfacet
  facet normal 0 0 -1
    outer loop
      vertex 84.8188 0.00547791 0
      vertex 85.7143 1 0
      vertex 85.6924 0.792088 0
    endloop
  endfacet
  facet normal 0 0 -1
    outer loop
      vertex 85.7143 1 0
      vertex 83.7143 3 0
      vertex 85.7143 55.25 0
    endloop
  endfacet
  facet normal 0 0 -1
    outer loop
      vertex 84.8188 0.00547791 0
      vertex 85.6924 0.792088 0
      vertex 85.6278 0.593263 0
    endloop
  endfacet
  facet normal 0 0 -1
    outer loop
      vertex 83.7143 53.25 0
      vertex 85.7143 55.25 0
      vertex 83.7143 3 0
    endloop
  endfacet
  facet normal 0 0 -1
    outer loop
      vertex 84.8188 0.00547791 0
      vertex 85.6278 0.593263 0
      vertex 85.5233 0.412214 0
    endloop
  endfacet
  facet normal 0 0 -1
    outer loop
      vertex 83.6924 53.4579 0
      vertex 85.7143 55.25 0
      vertex 83.7143 53.25 0
    endloop
  endfacet
  facet normal 0 0 -1
    outer loop
      vertex 84.8188 0.00547791 0
      vertex 85.5233 0.412214 0
      vertex 85.3834 0.256855 0
    endloop
  endfacet
  facet normal 0 0 -1
    outer loop
      vertex 83.6278 53.6567 0
      vertex 85.7143 55.25 0
      vertex 83.6924 53.4579 0
    endloop
  endfacet
  facet normal 0 0 -1
    outer loop
      vertex 84.8188 0.00547791 0
      vertex 85.3834 0.256855 0
      vertex 85.2143 0.133974 0
    endloop
  endfacet
  facet normal 0 0 -1
    outer loop
      vertex 83.5233 53.8378 0
      vertex 85.7143 55.25 0
      vertex 83.6278 53.6567 0
    endloop
  endfacet
  facet normal 0 0 -1
    outer loop
      vertex 84.8188 0.00547791 0
      vertex 85.2143 0.133974 0
      vertex 85.0233 0.0489426 0
    endloop
  endfacet
  facet normal 0 0 -1
    outer loop
      vertex 83.3834 53.9931 0
      vertex 85.7143 55.25 0
      vertex 83.5233 53.8378 0
    endloop
  endfacet
  facet normal -0 0 -1
    outer loop
      vertex 85.7143 1 0
      vertex 84.8188 0.00547791 0
      vertex 83.3834 2.25686 0
    endloop
  endfacet
  facet normal 0 -0 -1
    outer loop
      vertex 84.8188 56.2445 0
      vertex 85.7143 55.25 0
      vertex 83.3834 53.9931 0
    endloop
  endfacet
  facet normal 0 0 -1
    outer loop
      vertex 85.7143 55.25 0
      vertex 84.8188 56.2445 0
      vertex 85.6924 55.4579 0
    endloop
  endfacet
  facet normal 0 0 -1
    outer loop
      vertex 85.7143 1 0
      vertex 83.6924 2.79209 0
      vertex 83.7143 3 0
    endloop
  endfacet
  facet normal 0 0 -1
    outer loop
      vertex 85.7143 1 0
      vertex 83.6278 2.59326 0
      vertex 83.6924 2.79209 0
    endloop
  endfacet
  facet normal 0 0 -1
    outer loop
      vertex 85.7143 1 0
      vertex 83.5233 2.41221 0
      vertex 83.6278 2.59326 0
    endloop
  endfacet
  facet normal 0 0 -1
    outer loop
      vertex 85.7143 1 0
      vertex 83.3834 2.25686 0
      vertex 83.5233 2.41221 0
    endloop
  endfacet
  facet normal 0 0 -1
    outer loop
      vertex 84.8188 0.00547791 0
      vertex 83.2143 2.13397 0
      vertex 83.3834 2.25686 0
    endloop
  endfacet
  facet normal 0 0 -1
    outer loop
      vertex 84.8188 0.00547791 0
      vertex 83.0233 2.04894 0
      vertex 83.2143 2.13397 0
    endloop
  endfacet
  facet normal 0 0 -1
    outer loop
      vertex 84.8188 0.00547791 0
      vertex 82.8188 2.00548 0
      vertex 83.0233 2.04894 0
    endloop
  endfacet
  facet normal 0 0 -1
    outer loop
      vertex 84.8188 0.00547791 0
      vertex 10.4329 2.00548 0
      vertex 82.8188 2.00548 0
    endloop
  endfacet
  facet normal 0 0 -1
    outer loop
      vertex 10.4329 2.00548 0
      vertex 9.34565 2.28428 0
      vertex 10.0451 3.06107 0
    endloop
  endfacet
  facet normal 0 0 -1
    outer loop
      vertex 10.4329 2.00548 0
      vertex 8.96192 2.00548 0
      vertex 9.34565 2.28428 0
    endloop
  endfacet
  facet normal 0 0 -1
    outer loop
      vertex 0.895471 0.00547791 0
      vertex 10.4329 2.00548 0
      vertex 84.8188 0.00547791 0
    endloop
  endfacet
  facet normal -0 0 -1
    outer loop
      vertex 10.4329 2.00548 0
      vertex 0.895471 0.00547791 0
      vertex 8.96192 2.00548 0
    endloop
  endfacet
  facet normal 0 0 -1
    outer loop
      vertex 0 1 0
      vertex 2 8.989 0
      vertex 2 3.011 0
    endloop
  endfacet
  facet normal -0 0 -1
    outer loop
      vertex 2 8.989 0
      vertex 0 1 0
      vertex 2 10.4696 0
    endloop
  endfacet
  facet normal -0 0 -1
    outer loop
      vertex 2.65435 2.28428 0
      vertex 0 1 0
      vertex 2 3.011 0
    endloop
  endfacet
  facet normal 0 0 -1
    outer loop
      vertex 0 1 0
      vertex 2.65435 2.28428 0
      vertex 0.895471 0.00547791 0
    endloop
  endfacet
  facet normal -0 0 -1
    outer loop
      vertex 3.03808 2.00548 0
      vertex 0.895471 0.00547791 0
      vertex 2.65435 2.28428 0
    endloop
  endfacet
  facet normal -0 0 -1
    outer loop
      vertex 8.96192 2.00548 0
      vertex 0.895471 0.00547791 0
      vertex 3.03808 2.00548 0
    endloop
  endfacet
  facet normal 0 0 -1
    outer loop
      vertex 85.6278 55.6567 0
      vertex 84.8188 56.2445 0
      vertex 85.5233 55.8378 0
    endloop
  endfacet
  facet normal 0 0 -1
    outer loop
      vertex 85.5233 55.8378 0
      vertex 84.8188 56.2445 0
      vertex 85.3834 55.9931 0
    endloop
  endfacet
  facet normal 0 0 -1
    outer loop
      vertex 85.3834 55.9931 0
      vertex 84.8188 56.2445 0
      vertex 85.2143 56.116 0
    endloop
  endfacet
  facet normal 0 0 -1
    outer loop
      vertex 85.2143 56.116 0
      vertex 84.8188 56.2445 0
      vertex 85.0233 56.2011 0
    endloop
  endfacet
  facet normal 0 0 -1
    outer loop
      vertex 85.6924 55.4579 0
      vertex 84.8188 56.2445 0
      vertex 85.6278 55.6567 0
    endloop
  endfacet
  facet normal 0 0 -1
    outer loop
      vertex 83.2143 54.116 0
      vertex 84.8188 56.2445 0
      vertex 83.3834 53.9931 0
    endloop
  endfacet
  facet normal 0 0 -1
    outer loop
      vertex 83.0233 54.2011 0
      vertex 84.8188 56.2445 0
      vertex 83.2143 54.116 0
    endloop
  endfacet
  facet normal 0 0 -1
    outer loop
      vertex 82.8188 54.2445 0
      vertex 84.8188 56.2445 0
      vertex 83.0233 54.2011 0
    endloop
  endfacet
  facet normal 0 0 -1
    outer loop
      vertex 2.89547 54.2445 0
      vertex 84.8188 56.2445 0
      vertex 82.8188 54.2445 0
    endloop
  endfacet
  facet normal 0 0 -1
    outer loop
      vertex 2.89547 54.2445 0
      vertex 0.895471 56.2445 0
      vertex 84.8188 56.2445 0
    endloop
  endfacet
  facet normal 0 0 -1
    outer loop
      vertex 2.69098 54.2011 0
      vertex 0.895471 56.2445 0
      vertex 2.89547 54.2445 0
    endloop
  endfacet
  facet normal 0 0 -1
    outer loop
      vertex 2.5 54.116 0
      vertex 0.895471 56.2445 0
      vertex 2.69098 54.2011 0
    endloop
  endfacet
  facet normal 0 0 -1
    outer loop
      vertex 2.33087 53.9931 0
      vertex 0.895471 56.2445 0
      vertex 2.5 54.116 0
    endloop
  endfacet
  facet normal 0 0 -1
    outer loop
      vertex 0 55.25 0
      vertex 2.33087 53.9931 0
      vertex 2.19098 53.8378 0
    endloop
  endfacet
  facet normal 0 0 -1
    outer loop
      vertex 0 55.25 0
      vertex 2.19098 53.8378 0
      vertex 2.08645 53.6567 0
    endloop
  endfacet
  facet normal 0 0 -1
    outer loop
      vertex 0 55.25 0
      vertex 2.08645 53.6567 0
      vertex 2.02185 53.4579 0
    endloop
  endfacet
  facet normal 0 0 -1
    outer loop
      vertex 0 55.25 0
      vertex 2.02185 53.4579 0
      vertex 2 53.25 0
    endloop
  endfacet
  facet normal 0 0 -1
    outer loop
      vertex 0 55.25 0
      vertex 2 10.4696 0
      vertex 0 1 0
    endloop
  endfacet
  facet normal 0 0 -1
    outer loop
      vertex 0 1 0
      vertex 0.895471 0.00547791 0
      vertex 0.690983 0.0489426 0
    endloop
  endfacet
  facet normal 0 0 -1
    outer loop
      vertex 2 10.4696 0
      vertex 0 55.25 0
      vertex 2 53.25 0
    endloop
  endfacet
  facet normal 0 0 -1
    outer loop
      vertex 0 1 0
      vertex 0.690983 0.0489426 0
      vertex 0.5 0.133974 0
    endloop
  endfacet
  facet normal 0 0 -1
    outer loop
      vertex 2.33087 53.9931 0
      vertex 0 55.25 0
      vertex 0.895471 56.2445 0
    endloop
  endfacet
  facet normal 0 0 -1
    outer loop
      vertex 0 1 0
      vertex 0.5 0.133974 0
      vertex 0.330869 0.256855 0
    endloop
  endfacet
  facet normal 0 0 -1
    outer loop
      vertex 0.895471 56.2445 0
      vertex 0 55.25 0
      vertex 0.690983 56.2011 0
    endloop
  endfacet
  facet normal 0 0 -1
    outer loop
      vertex 0 1 0
      vertex 0.330869 0.256855 0
      vertex 0.190983 0.412214 0
    endloop
  endfacet
  facet normal 0 0 -1
    outer loop
      vertex 0.690983 56.2011 0
      vertex 0 55.25 0
      vertex 0.5 56.116 0
    endloop
  endfacet
  facet normal 0 0 -1
    outer loop
      vertex 0 1 0
      vertex 0.190983 0.412214 0
      vertex 0.0864544 0.593263 0
    endloop
  endfacet
  facet normal 0 0 -1
    outer loop
      vertex 0.5 56.116 0
      vertex 0 55.25 0
      vertex 0.330869 55.9931 0
    endloop
  endfacet
  facet normal 0 0 -1
    outer loop
      vertex 0 1 0
      vertex 0.0864544 0.593263 0
      vertex 0.0218515 0.792088 0
    endloop
  endfacet
  facet normal 0 0 -1
    outer loop
      vertex 0.330869 55.9931 0
      vertex 0 55.25 0
      vertex 0.190983 55.8378 0
    endloop
  endfacet
  facet normal 0 0 -1
    outer loop
      vertex 0.190983 55.8378 0
      vertex 0 55.25 0
      vertex 0.0864544 55.6567 0
    endloop
  endfacet
  facet normal 0 0 -1
    outer loop
      vertex 0.0864544 55.6567 0
      vertex 0 55.25 0
      vertex 0.0218515 55.4579 0
    endloop
  endfacet
  facet normal 0 0 -1
    outer loop
      vertex 11 6 0
      vertex 12 6 0
      vertex 11.8689 4.75253 0
    endloop
  endfacet
  facet normal 0 0 -1
    outer loop
      vertex 10.8907 4.96044 0
      vertex 11.8689 4.75253 0
      vertex 11.4813 3.55958 0
    endloop
  endfacet
  facet normal 0 0 -1
    outer loop
      vertex 12 6 0
      vertex 11 6 0
      vertex 11.8689 7.24747 0
    endloop
  endfacet
  facet normal 0 0 -1
    outer loop
      vertex 10.8907 7.03956 0
      vertex 11.8689 7.24747 0
      vertex 11 6 0
    endloop
  endfacet
  facet normal 0 0 -1
    outer loop
      vertex 11.8689 4.75253 0
      vertex 10.8907 4.96044 0
      vertex 11 6 0
    endloop
  endfacet
  facet normal 0 0 -1
    outer loop
      vertex 10.5677 3.96632 0
      vertex 11.4813 3.55958 0
      vertex 10.8541 2.47329 0
    endloop
  endfacet
  facet normal 0 0 -1
    outer loop
      vertex 11.4813 3.55958 0
      vertex 10.5677 3.96632 0
      vertex 10.8907 4.96044 0
    endloop
  endfacet
  facet normal 0 0 -1
    outer loop
      vertex 10.0451 3.06107 0
      vertex 10.8541 2.47329 0
      vertex 10.4329 2.00548 0
    endloop
  endfacet
  facet normal 0 0 -1
    outer loop
      vertex 10.8541 2.47329 0
      vertex 10.0451 3.06107 0
      vertex 10.5677 3.96632 0
    endloop
  endfacet
  facet normal -0 0 -1
    outer loop
      vertex 11.8689 7.24747 0
      vertex 10.8907 7.03956 0
      vertex 11.4813 8.44042 0
    endloop
  endfacet
  facet normal 0 0 -1
    outer loop
      vertex 10.5677 8.03368 0
      vertex 11.4813 8.44042 0
      vertex 10.8907 7.03956 0
    endloop
  endfacet
  facet normal -0 0 -1
    outer loop
      vertex 11.4813 8.44042 0
      vertex 10.5677 8.03368 0
      vertex 10.8541 9.52671 0
    endloop
  endfacet
  facet normal 0 0 -1
    outer loop
      vertex 10.0451 8.93893 0
      vertex 10.8541 9.52671 0
      vertex 10.5677 8.03368 0
    endloop
  endfacet
  facet normal 0 0 -1
    outer loop
      vertex 10.0451 8.93893 0
      vertex 10.0148 10.4589 0
      vertex 10.8541 9.52671 0
    endloop
  endfacet
  facet normal 0 0 -1
    outer loop
      vertex 9.34565 9.71572 0
      vertex 10.0148 10.4589 0
      vertex 10.0451 8.93893 0
    endloop
  endfacet
  facet normal 0 0 -1
    outer loop
      vertex 9.34565 9.71572 0
      vertex 9 11.1962 0
      vertex 10.0148 10.4589 0
    endloop
  endfacet
  facet normal 0 0 -1
    outer loop
      vertex 8.5 10.3301 0
      vertex 9 11.1962 0
      vertex 9.34565 9.71572 0
    endloop
  endfacet
  facet normal 0 0 -1
    outer loop
      vertex 8.5 10.3301 0
      vertex 7.8541 11.7063 0
      vertex 9 11.1962 0
    endloop
  endfacet
  facet normal 0 0 -1
    outer loop
      vertex 7.54508 10.7553 0
      vertex 7.8541 11.7063 0
      vertex 8.5 10.3301 0
    endloop
  endfacet
  facet normal 0 0 -1
    outer loop
      vertex 7.54508 10.7553 0
      vertex 6.62717 11.9671 0
      vertex 7.8541 11.7063 0
    endloop
  endfacet
  facet normal 0 0 -1
    outer loop
      vertex 6.52264 10.9726 0
      vertex 6.62717 11.9671 0
      vertex 7.54508 10.7553 0
    endloop
  endfacet
  facet normal 0 0 -1
    outer loop
      vertex 5.47736 10.9726 0
      vertex 6.62717 11.9671 0
      vertex 6.52264 10.9726 0
    endloop
  endfacet
  facet normal 0 0 -1
    outer loop
      vertex 5.47736 10.9726 0
      vertex 5.37283 11.9671 0
      vertex 6.62717 11.9671 0
    endloop
  endfacet
  facet normal 0 0 -1
    outer loop
      vertex 4.45492 10.7553 0
      vertex 5.37283 11.9671 0
      vertex 5.47736 10.9726 0
    endloop
  endfacet
  facet normal 0 0 -1
    outer loop
      vertex 4.45492 10.7553 0
      vertex 4.1459 11.7063 0
      vertex 5.37283 11.9671 0
    endloop
  endfacet
  facet normal 0 0 -1
    outer loop
      vertex 3.5 10.3301 0
      vertex 4.1459 11.7063 0
      vertex 4.45492 10.7553 0
    endloop
  endfacet
  facet normal 0 0 -1
    outer loop
      vertex 3.5 10.3301 0
      vertex 3 11.1962 0
      vertex 4.1459 11.7063 0
    endloop
  endfacet
  facet normal 0 0 -1
    outer loop
      vertex 2 10.4696 0
      vertex 3.5 10.3301 0
      vertex 2.65435 9.71572 0
    endloop
  endfacet
  facet normal 0 0 -1
    outer loop
      vertex 2 10.4696 0
      vertex 2.65435 9.71572 0
      vertex 2 8.989 0
    endloop
  endfacet
  facet normal 0 0 -1
    outer loop
      vertex 3.5 10.3301 0
      vertex 2 10.4696 0
      vertex 3 11.1962 0
    endloop
  endfacet
  facet normal 0 -1 0
    outer loop
      vertex 0.895471 0.00547791 0
      vertex 84.8188 0.00547791 2
      vertex 0.895471 0.00547791 2
    endloop
  endfacet
  facet normal 0 -1 -0
    outer loop
      vertex 84.8188 0.00547791 2
      vertex 0.895471 0.00547791 0
      vertex 84.8188 0.00547791 0
    endloop
  endfacet
  facet normal 0.994498 0.104759 0
    outer loop
      vertex 85.7143 55.25 2
      vertex 85.6924 55.4579 0
      vertex 85.6924 55.4579 2
    endloop
  endfacet
  facet normal 0.994498 0.104759 0
    outer loop
      vertex 85.6924 55.4579 0
      vertex 85.7143 55.25 2
      vertex 85.7143 55.25 0
    endloop
  endfacet
  facet normal -0.951044 0.309055 0
    outer loop
      vertex 0.0218515 55.4579 0
      vertex 0.0864544 55.6567 2
      vertex 0.0864544 55.6567 0
    endloop
  endfacet
  facet normal -0.951044 0.309055 0
    outer loop
      vertex 0.0864544 55.6567 2
      vertex 0.0218515 55.4579 0
      vertex 0.0218515 55.4579 2
    endloop
  endfacet
  facet normal -0.207613 0.978211 0
    outer loop
      vertex 0.895471 56.2445 0
      vertex 0.690983 56.2011 2
      vertex 0.895471 56.2445 2
    endloop
  endfacet
  facet normal -0.207613 0.978211 0
    outer loop
      vertex 0.690983 56.2011 2
      vertex 0.895471 56.2445 0
      vertex 0.690983 56.2011 0
    endloop
  endfacet
  facet normal -0.994522 0.10453 0
    outer loop
      vertex 0 55.25 0
      vertex 0.0218515 55.4579 2
      vertex 0.0218515 55.4579 0
    endloop
  endfacet
  facet normal -0.994522 0.10453 0
    outer loop
      vertex 0.0218515 55.4579 2
      vertex 0 55.25 0
      vertex 0 55.25 2
    endloop
  endfacet
  facet normal -0.994522 -0.104524 0
    outer loop
      vertex 0.0218515 0.792088 0
      vertex 0 1 2
      vertex 0 1 0
    endloop
  endfacet
  facet normal -0.994522 -0.104524 0
    outer loop
      vertex 0 1 2
      vertex 0.0218515 0.792088 0
      vertex 0.0218515 0.792088 2
    endloop
  endfacet
  facet normal 0.994498 -0.104754 0
    outer loop
      vertex 85.6924 0.792088 2
      vertex 85.7143 1 0
      vertex 85.7143 1 2
    endloop
  endfacet
  facet normal 0.994498 -0.104754 0
    outer loop
      vertex 85.7143 1 0
      vertex 85.6924 0.792088 2
      vertex 85.6924 0.792088 0
    endloop
  endfacet
  facet normal -0.406738 -0.913545 0
    outer loop
      vertex 0.5 0.133974 0
      vertex 0.690983 0.0489426 2
      vertex 0.5 0.133974 2
    endloop
  endfacet
  facet normal -0.406738 -0.913545 -0
    outer loop
      vertex 0.690983 0.0489426 2
      vertex 0.5 0.133974 0
      vertex 0.690983 0.0489426 0
    endloop
  endfacet
  facet normal 1 -0 0
    outer loop
      vertex 85.7143 1 2
      vertex 85.7143 55.25 0
      vertex 85.7143 55.25 2
    endloop
  endfacet
  facet normal 1 0 0
    outer loop
      vertex 85.7143 55.25 0
      vertex 85.7143 1 2
      vertex 85.7143 1 0
    endloop
  endfacet
  facet normal 0.207897 -0.978151 0
    outer loop
      vertex 84.8188 0.00547791 0
      vertex 85.0233 0.0489426 2
      vertex 84.8188 0.00547791 2
    endloop
  endfacet
  facet normal 0.207897 -0.978151 0
    outer loop
      vertex 85.0233 0.0489426 2
      vertex 84.8188 0.00547791 0
      vertex 85.0233 0.0489426 0
    endloop
  endfacet
  facet normal -1 0 0
    outer loop
      vertex 0 55.25 0
      vertex 0 6 2
      vertex 0 55.25 2
    endloop
  endfacet
  facet normal -1 0 0
    outer loop
      vertex 0 1 0
      vertex 0 6 2
      vertex 0 55.25 0
    endloop
  endfacet
  facet normal -1 -0 0
    outer loop
      vertex 0 6 2
      vertex 0 1 0
      vertex 0 1 2
    endloop
  endfacet
  facet normal 0 1 -0
    outer loop
      vertex 84.8188 56.2445 0
      vertex 0.895471 56.2445 2
      vertex 84.8188 56.2445 2
    endloop
  endfacet
  facet normal 0 1 0
    outer loop
      vertex 0.895471 56.2445 2
      vertex 84.8188 56.2445 0
      vertex 0.895471 56.2445 0
    endloop
  endfacet
  facet normal 0.406708 -0.913558 0
    outer loop
      vertex 85.0233 0.0489426 0
      vertex 85.2143 0.133974 2
      vertex 85.0233 0.0489426 2
    endloop
  endfacet
  facet normal 0.406708 -0.913558 0
    outer loop
      vertex 85.2143 0.133974 2
      vertex 85.0233 0.0489426 0
      vertex 85.2143 0.133974 0
    endloop
  endfacet
  facet normal -0.866026 -0.5 0
    outer loop
      vertex 0.190983 0.412214 0
      vertex 0.0864544 0.593263 2
      vertex 0.0864544 0.593263 0
    endloop
  endfacet
  facet normal -0.866026 -0.5 0
    outer loop
      vertex 0.0864544 0.593263 2
      vertex 0.190983 0.412214 0
      vertex 0.190983 0.412214 2
    endloop
  endfacet
  facet normal 0.406981 0.913436 -0
    outer loop
      vertex 85.2143 56.116 0
      vertex 85.0233 56.2011 2
      vertex 85.2143 56.116 2
    endloop
  endfacet
  facet normal 0.406981 0.913436 0
    outer loop
      vertex 85.0233 56.2011 2
      vertex 85.2143 56.116 0
      vertex 85.0233 56.2011 0
    endloop
  endfacet
  facet normal 0.587916 0.808922 -0
    outer loop
      vertex 85.3834 55.9931 0
      vertex 85.2143 56.116 2
      vertex 85.3834 55.9931 2
    endloop
  endfacet
  facet normal 0.587916 0.808922 0
    outer loop
      vertex 85.2143 56.116 2
      vertex 85.3834 55.9931 0
      vertex 85.2143 56.116 0
    endloop
  endfacet
  facet normal 0.587856 -0.808965 0
    outer loop
      vertex 85.2143 0.133974 0
      vertex 85.3834 0.256855 2
      vertex 85.2143 0.133974 2
    endloop
  endfacet
  facet normal 0.587856 -0.808965 0
    outer loop
      vertex 85.3834 0.256855 2
      vertex 85.2143 0.133974 0
      vertex 85.3834 0.256855 0
    endloop
  endfacet
  facet normal 0.95106 -0.309008 0
    outer loop
      vertex 85.6278 0.593263 2
      vertex 85.6924 0.792088 0
      vertex 85.6924 0.792088 2
    endloop
  endfacet
  facet normal 0.95106 -0.309008 0
    outer loop
      vertex 85.6924 0.792088 0
      vertex 85.6278 0.593263 2
      vertex 85.6278 0.593263 0
    endloop
  endfacet
  facet normal -0.743145 -0.669131 0
    outer loop
      vertex 0.330869 0.256855 0
      vertex 0.190983 0.412214 2
      vertex 0.190983 0.412214 0
    endloop
  endfacet
  facet normal -0.743145 -0.669131 0
    outer loop
      vertex 0.190983 0.412214 2
      vertex 0.330869 0.256855 0
      vertex 0.330869 0.256855 2
    endloop
  endfacet
  facet normal 0.207601 0.978214 -0
    outer loop
      vertex 85.0233 56.2011 0
      vertex 84.8188 56.2445 2
      vertex 85.0233 56.2011 2
    endloop
  endfacet
  facet normal 0.207601 0.978214 0
    outer loop
      vertex 84.8188 56.2445 2
      vertex 85.0233 56.2011 0
      vertex 84.8188 56.2445 0
    endloop
  endfacet
  facet normal 0.866146 0.499791 0
    outer loop
      vertex 85.6278 55.6567 2
      vertex 85.5233 55.8378 0
      vertex 85.5233 55.8378 2
    endloop
  endfacet
  facet normal 0.866146 0.499791 0
    outer loop
      vertex 85.5233 55.8378 0
      vertex 85.6278 55.6567 2
      vertex 85.6278 55.6567 0
    endloop
  endfacet
  facet normal 0.742985 0.669308 0
    outer loop
      vertex 85.5233 55.8378 2
      vertex 85.3834 55.9931 0
      vertex 85.3834 55.9931 2
    endloop
  endfacet
  facet normal 0.742985 0.669308 0
    outer loop
      vertex 85.3834 55.9931 0
      vertex 85.5233 55.8378 2
      vertex 85.5233 55.8378 0
    endloop
  endfacet
  facet normal 0.743111 -0.669168 0
    outer loop
      vertex 85.3834 0.256855 2
      vertex 85.5233 0.412214 0
      vertex 85.5233 0.412214 2
    endloop
  endfacet
  facet normal 0.743111 -0.669168 0
    outer loop
      vertex 85.5233 0.412214 0
      vertex 85.3834 0.256855 2
      vertex 85.3834 0.256855 0
    endloop
  endfacet
  facet normal -0.951055 -0.30902 0
    outer loop
      vertex 0.0864544 0.593263 0
      vertex 0.0218515 0.792088 2
      vertex 0.0218515 0.792088 0
    endloop
  endfacet
  facet normal -0.951055 -0.30902 0
    outer loop
      vertex 0.0218515 0.792088 2
      vertex 0.0864544 0.593263 0
      vertex 0.0864544 0.593263 2
    endloop
  endfacet
  facet normal 0.866085 -0.499897 0
    outer loop
      vertex 85.5233 0.412214 2
      vertex 85.6278 0.593263 0
      vertex 85.6278 0.593263 2
    endloop
  endfacet
  facet normal 0.866085 -0.499897 0
    outer loop
      vertex 85.6278 0.593263 0
      vertex 85.5233 0.412214 2
      vertex 85.5233 0.412214 0
    endloop
  endfacet
  facet normal 0.951048 0.309043 0
    outer loop
      vertex 85.6924 55.4579 2
      vertex 85.6278 55.6567 0
      vertex 85.6278 55.6567 2
    endloop
  endfacet
  facet normal 0.951048 0.309043 0
    outer loop
      vertex 85.6278 55.6567 0
      vertex 85.6924 55.4579 2
      vertex 85.6924 55.4579 0
    endloop
  endfacet
  facet normal -0.587845 0.808973 0
    outer loop
      vertex 0.5 56.116 0
      vertex 0.330869 55.9931 2
      vertex 0.5 56.116 2
    endloop
  endfacet
  facet normal -0.587845 0.808973 0
    outer loop
      vertex 0.330869 55.9931 2
      vertex 0.5 56.116 0
      vertex 0.330869 55.9931 0
    endloop
  endfacet
  facet normal -0.866087 0.499894 0
    outer loop
      vertex 0.0864544 55.6567 0
      vertex 0.190983 55.8378 2
      vertex 0.190983 55.8378 0
    endloop
  endfacet
  facet normal -0.866087 0.499894 0
    outer loop
      vertex 0.190983 55.8378 2
      vertex 0.0864544 55.6567 0
      vertex 0.0864544 55.6567 2
    endloop
  endfacet
  facet normal -0.207909 -0.978148 0
    outer loop
      vertex 0.690983 0.0489426 0
      vertex 0.895471 0.00547791 2
      vertex 0.690983 0.0489426 2
    endloop
  endfacet
  facet normal -0.207909 -0.978148 -0
    outer loop
      vertex 0.895471 0.00547791 2
      vertex 0.690983 0.0489426 0
      vertex 0.895471 0.00547791 0
    endloop
  endfacet
  facet normal -0.587786 -0.809017 0
    outer loop
      vertex 0.330869 0.256855 0
      vertex 0.5 0.133974 2
      vertex 0.330869 0.256855 2
    endloop
  endfacet
  facet normal -0.587786 -0.809017 -0
    outer loop
      vertex 0.5 0.133974 2
      vertex 0.330869 0.256855 0
      vertex 0.5 0.133974 0
    endloop
  endfacet
  facet normal -0.407012 0.913423 0
    outer loop
      vertex 0.690983 56.2011 0
      vertex 0.5 56.116 2
      vertex 0.690983 56.2011 2
    endloop
  endfacet
  facet normal -0.407012 0.913423 0
    outer loop
      vertex 0.5 56.116 2
      vertex 0.690983 56.2011 0
      vertex 0.5 56.116 0
    endloop
  endfacet
  facet normal 0 0 1
    outer loop
      vertex 84.8188 56.2445 2
      vertex 85.7143 55.25 2
      vertex 85.6924 55.4579 2
    endloop
  endfacet
  facet normal 0 0 1
    outer loop
      vertex 85.7143 55.25 2
      vertex 83.7143 53.25 2
      vertex 85.7143 1 2
    endloop
  endfacet
  facet normal 0 0 1
    outer loop
      vertex 84.8188 56.2445 2
      vertex 85.6924 55.4579 2
      vertex 85.6278 55.6567 2
    endloop
  endfacet
  facet normal -0 0 1
    outer loop
      vertex 83.7143 3 2
      vertex 85.7143 1 2
      vertex 83.7143 53.25 2
    endloop
  endfacet
  facet normal 0 0 1
    outer loop
      vertex 84.8188 56.2445 2
      vertex 85.6278 55.6567 2
      vertex 85.5233 55.8378 2
    endloop
  endfacet
  facet normal -0 0 1
    outer loop
      vertex 83.6924 2.79209 2
      vertex 85.7143 1 2
      vertex 83.7143 3 2
    endloop
  endfacet
  facet normal 0 0 1
    outer loop
      vertex 84.8188 56.2445 2
      vertex 85.5233 55.8378 2
      vertex 85.3834 55.9931 2
    endloop
  endfacet
  facet normal -0 0 1
    outer loop
      vertex 83.6278 2.59326 2
      vertex 85.7143 1 2
      vertex 83.6924 2.79209 2
    endloop
  endfacet
  facet normal 0 0 1
    outer loop
      vertex 84.8188 56.2445 2
      vertex 85.3834 55.9931 2
      vertex 85.2143 56.116 2
    endloop
  endfacet
  facet normal -0 0 1
    outer loop
      vertex 83.5233 2.41221 2
      vertex 85.7143 1 2
      vertex 83.6278 2.59326 2
    endloop
  endfacet
  facet normal 0 0 1
    outer loop
      vertex 84.8188 56.2445 2
      vertex 85.2143 56.116 2
      vertex 85.0233 56.2011 2
    endloop
  endfacet
  facet normal -0 0 1
    outer loop
      vertex 83.3834 2.25686 2
      vertex 85.7143 1 2
      vertex 83.5233 2.41221 2
    endloop
  endfacet
  facet normal 0 0 1
    outer loop
      vertex 85.7143 55.25 2
      vertex 84.8188 56.2445 2
      vertex 83.3834 53.9931 2
    endloop
  endfacet
  facet normal 0 -0 1
    outer loop
      vertex 84.8188 0.00547791 2
      vertex 85.7143 1 2
      vertex 83.3834 2.25686 2
    endloop
  endfacet
  facet normal 0 0 1
    outer loop
      vertex 85.7143 1 2
      vertex 84.8188 0.00547791 2
      vertex 85.6924 0.792088 2
    endloop
  endfacet
  facet normal 0 0 1
    outer loop
      vertex 85.7143 55.25 2
      vertex 83.6924 53.4579 2
      vertex 83.7143 53.25 2
    endloop
  endfacet
  facet normal 0 0 1
    outer loop
      vertex 85.7143 55.25 2
      vertex 83.6278 53.6567 2
      vertex 83.6924 53.4579 2
    endloop
  endfacet
  facet normal 0 0 1
    outer loop
      vertex 85.7143 55.25 2
      vertex 83.5233 53.8378 2
      vertex 83.6278 53.6567 2
    endloop
  endfacet
  facet normal 0 0 1
    outer loop
      vertex 85.7143 55.25 2
      vertex 83.3834 53.9931 2
      vertex 83.5233 53.8378 2
    endloop
  endfacet
  facet normal 0 0 1
    outer loop
      vertex 84.8188 56.2445 2
      vertex 83.2143 54.116 2
      vertex 83.3834 53.9931 2
    endloop
  endfacet
  facet normal 0 0 1
    outer loop
      vertex 84.8188 56.2445 2
      vertex 83.0233 54.2011 2
      vertex 83.2143 54.116 2
    endloop
  endfacet
  facet normal 0 0 1
    outer loop
      vertex 84.8188 56.2445 2
      vertex 82.8188 54.2445 2
      vertex 83.0233 54.2011 2
    endloop
  endfacet
  facet normal 0 0 1
    outer loop
      vertex 84.8188 56.2445 2
      vertex 2.89547 54.2445 2
      vertex 82.8188 54.2445 2
    endloop
  endfacet
  facet normal 0 0 1
    outer loop
      vertex 2 53.25 2
      vertex 1.98522 10.4589 2
      vertex 2 10.4696 2
    endloop
  endfacet
  facet normal 0 0 1
    outer loop
      vertex 0 55.25 2
      vertex 1.98522 10.4589 2
      vertex 2 53.25 2
    endloop
  endfacet
  facet normal -0 0 1
    outer loop
      vertex 0.895471 56.2445 2
      vertex 2.89547 54.2445 2
      vertex 84.8188 56.2445 2
    endloop
  endfacet
  facet normal 0 0 1
    outer loop
      vertex 0.895471 56.2445 2
      vertex 2.69098 54.2011 2
      vertex 2.89547 54.2445 2
    endloop
  endfacet
  facet normal 0 0 1
    outer loop
      vertex 0.895471 56.2445 2
      vertex 2.5 54.116 2
      vertex 2.69098 54.2011 2
    endloop
  endfacet
  facet normal 0 0 1
    outer loop
      vertex 0.895471 56.2445 2
      vertex 2.33087 53.9931 2
      vertex 2.5 54.116 2
    endloop
  endfacet
  facet normal -0 0 1
    outer loop
      vertex 0 55.25 2
      vertex 2.33087 53.9931 2
      vertex 0.895471 56.2445 2
    endloop
  endfacet
  facet normal 0 0 1
    outer loop
      vertex 2.33087 53.9931 2
      vertex 0 55.25 2
      vertex 2.19098 53.8378 2
    endloop
  endfacet
  facet normal 0 0 1
    outer loop
      vertex 2.19098 53.8378 2
      vertex 0 55.25 2
      vertex 2.08645 53.6567 2
    endloop
  endfacet
  facet normal 0 0 1
    outer loop
      vertex 2.08645 53.6567 2
      vertex 0 55.25 2
      vertex 2.02185 53.4579 2
    endloop
  endfacet
  facet normal 0 0 1
    outer loop
      vertex 2.02185 53.4579 2
      vertex 0 55.25 2
      vertex 2 53.25 2
    endloop
  endfacet
  facet normal 0 0 1
    outer loop
      vertex 0 55.25 2
      vertex 0.895471 56.2445 2
      vertex 0.690983 56.2011 2
    endloop
  endfacet
  facet normal 0 0 1
    outer loop
      vertex 1.98522 10.4589 2
      vertex 0 55.25 2
      vertex 1.1459 9.52671 2
    endloop
  endfacet
  facet normal 0 0 1
    outer loop
      vertex 0 55.25 2
      vertex 0.690983 56.2011 2
      vertex 0.5 56.116 2
    endloop
  endfacet
  facet normal 0 0 1
    outer loop
      vertex 0 55.25 2
      vertex 0.5 56.116 2
      vertex 0.330869 55.9931 2
    endloop
  endfacet
  facet normal 0 0 1
    outer loop
      vertex 0 55.25 2
      vertex 0.330869 55.9931 2
      vertex 0.190983 55.8378 2
    endloop
  endfacet
  facet normal 0 0 1
    outer loop
      vertex 1.1459 9.52671 2
      vertex 0 55.25 2
      vertex 0.518727 8.44042 2
    endloop
  endfacet
  facet normal 0 0 1
    outer loop
      vertex 0 55.25 2
      vertex 0.190983 55.8378 2
      vertex 0.0864544 55.6567 2
    endloop
  endfacet
  facet normal 0 0 1
    outer loop
      vertex 0 55.25 2
      vertex 0.0864544 55.6567 2
      vertex 0.0218515 55.4579 2
    endloop
  endfacet
  facet normal 0 0 1
    outer loop
      vertex 0.518727 8.44042 2
      vertex 0 55.25 2
      vertex 0.131115 7.24747 2
    endloop
  endfacet
  facet normal 0 0 1
    outer loop
      vertex 0.131115 7.24747 2
      vertex 0 55.25 2
      vertex 0 6 2
    endloop
  endfacet
  facet normal 0 0 1
    outer loop
      vertex 85.6278 0.593263 2
      vertex 84.8188 0.00547791 2
      vertex 85.5233 0.412214 2
    endloop
  endfacet
  facet normal 0 0 1
    outer loop
      vertex 85.5233 0.412214 2
      vertex 84.8188 0.00547791 2
      vertex 85.3834 0.256855 2
    endloop
  endfacet
  facet normal 0 0 1
    outer loop
      vertex 85.3834 0.256855 2
      vertex 84.8188 0.00547791 2
      vertex 85.2143 0.133974 2
    endloop
  endfacet
  facet normal 0 0 1
    outer loop
      vertex 85.2143 0.133974 2
      vertex 84.8188 0.00547791 2
      vertex 85.0233 0.0489426 2
    endloop
  endfacet
  facet normal 0 0 1
    outer loop
      vertex 85.6924 0.792088 2
      vertex 84.8188 0.00547791 2
      vertex 85.6278 0.593263 2
    endloop
  endfacet
  facet normal -0 0 1
    outer loop
      vertex 83.2143 2.13397 2
      vertex 84.8188 0.00547791 2
      vertex 83.3834 2.25686 2
    endloop
  endfacet
  facet normal -0 0 1
    outer loop
      vertex 83.0233 2.04894 2
      vertex 84.8188 0.00547791 2
      vertex 83.2143 2.13397 2
    endloop
  endfacet
  facet normal -0 0 1
    outer loop
      vertex 82.8188 2.00548 2
      vertex 84.8188 0.00547791 2
      vertex 83.0233 2.04894 2
    endloop
  endfacet
  facet normal 0 0 1
    outer loop
      vertex 10.0148 1.54113 2
      vertex 82.8188 2.00548 2
      vertex 10.4329 2.00548 2
    endloop
  endfacet
  facet normal 0 0 1
    outer loop
      vertex 82.8188 2.00548 2
      vertex 10.0148 1.54113 2
      vertex 84.8188 0.00547791 2
    endloop
  endfacet
  facet normal -0 0 1
    outer loop
      vertex 9 0.803848 2
      vertex 84.8188 0.00547791 2
      vertex 10.0148 1.54113 2
    endloop
  endfacet
  facet normal -0 0 1
    outer loop
      vertex 7.8541 0.293661 2
      vertex 84.8188 0.00547791 2
      vertex 9 0.803848 2
    endloop
  endfacet
  facet normal -0 0 1
    outer loop
      vertex 6.62717 0.0328693 2
      vertex 84.8188 0.00547791 2
      vertex 7.8541 0.293661 2
    endloop
  endfacet
  facet normal -0 0 1
    outer loop
      vertex 5.37283 0.0328693 2
      vertex 84.8188 0.00547791 2
      vertex 6.62717 0.0328693 2
    endloop
  endfacet
  facet normal 0 0 1
    outer loop
      vertex 5.37283 0.0328693 2
      vertex 0.895471 0.00547791 2
      vertex 84.8188 0.00547791 2
    endloop
  endfacet
  facet normal 0 0 1
    outer loop
      vertex 4.1459 0.293661 2
      vertex 0.895471 0.00547791 2
      vertex 5.37283 0.0328693 2
    endloop
  endfacet
  facet normal 0 0 1
    outer loop
      vertex 3 0.803848 2
      vertex 0.895471 0.00547791 2
      vertex 4.1459 0.293661 2
    endloop
  endfacet
  facet normal 0 0 1
    outer loop
      vertex 1.98522 1.54113 2
      vertex 0.895471 0.00547791 2
      vertex 3 0.803848 2
    endloop
  endfacet
  facet normal 0 0 1
    outer loop
      vertex 0 1 2
      vertex 1.98522 1.54113 2
      vertex 1.1459 2.47329 2
    endloop
  endfacet
  facet normal 0 0 1
    outer loop
      vertex 1.98522 1.54113 2
      vertex 0 1 2
      vertex 0.895471 0.00547791 2
    endloop
  endfacet
  facet normal 0 0 1
    outer loop
      vertex 0 1 2
      vertex 1.1459 2.47329 2
      vertex 0.518727 3.55958 2
    endloop
  endfacet
  facet normal 0 0 1
    outer loop
      vertex 0.895471 0.00547791 2
      vertex 0 1 2
      vertex 0.690983 0.0489426 2
    endloop
  endfacet
  facet normal 0 0 1
    outer loop
      vertex 0.690983 0.0489426 2
      vertex 0 1 2
      vertex 0.5 0.133974 2
    endloop
  endfacet
  facet normal 0 0 1
    outer loop
      vertex 0.5 0.133974 2
      vertex 0 1 2
      vertex 0.330869 0.256855 2
    endloop
  endfacet
  facet normal 0 0 1
    outer loop
      vertex 0 1 2
      vertex 0.518727 3.55958 2
      vertex 0.131115 4.75253 2
    endloop
  endfacet
  facet normal 0 0 1
    outer loop
      vertex 0.330869 0.256855 2
      vertex 0 1 2
      vertex 0.190983 0.412214 2
    endloop
  endfacet
  facet normal 0 0 1
    outer loop
      vertex 0.190983 0.412214 2
      vertex 0 1 2
      vertex 0.0864544 0.593263 2
    endloop
  endfacet
  facet normal 0 0 1
    outer loop
      vertex 0 1 2
      vertex 0.131115 4.75253 2
      vertex 0 6 2
    endloop
  endfacet
  facet normal 0 0 1
    outer loop
      vertex 0.0864544 0.593263 2
      vertex 0 1 2
      vertex 0.0218515 0.792088 2
    endloop
  endfacet
  facet normal 0 0 1
    outer loop
      vertex 1.43227 8.03368 2
      vertex 2 8.989 2
      vertex 1.95492 8.93893 2
    endloop
  endfacet
  facet normal 0 0 1
    outer loop
      vertex 2 8.989 2
      vertex 1.43227 8.03368 2
      vertex 2 3.011 2
    endloop
  endfacet
  facet normal -0 0 1
    outer loop
      vertex 1.43227 3.96632 2
      vertex 2 3.011 2
      vertex 1.43227 8.03368 2
    endloop
  endfacet
  facet normal 0 0 1
    outer loop
      vertex 2 3.011 2
      vertex 1.43227 3.96632 2
      vertex 1.95492 3.06107 2
    endloop
  endfacet
  facet normal -0 0 1
    outer loop
      vertex 1.10926 7.03956 2
      vertex 1.43227 3.96632 2
      vertex 1.43227 8.03368 2
    endloop
  endfacet
  facet normal 0 0 1
    outer loop
      vertex 1.10926 7.03956 2
      vertex 1.10926 4.96044 2
      vertex 1.43227 3.96632 2
    endloop
  endfacet
  facet normal 0 -0 1
    outer loop
      vertex 1.10926 4.96044 2
      vertex 1.10926 7.03956 2
      vertex 1 6 2
    endloop
  endfacet
  facet normal 0 0 1
    outer loop
      vertex 8.96192 2.00548 2
      vertex 7.54508 1.24472 2
      vertex 8.5 1.66987 2
    endloop
  endfacet
  facet normal 0 0 1
    outer loop
      vertex 8.96192 2.00548 2
      vertex 6.52264 1.02739 2
      vertex 7.54508 1.24472 2
    endloop
  endfacet
  facet normal 0 0 1
    outer loop
      vertex 8.96192 2.00548 2
      vertex 5.47736 1.02739 2
      vertex 6.52264 1.02739 2
    endloop
  endfacet
  facet normal 0 0 1
    outer loop
      vertex 8.96192 2.00548 2
      vertex 4.45492 1.24472 2
      vertex 5.47736 1.02739 2
    endloop
  endfacet
  facet normal -0 0 1
    outer loop
      vertex 3.03808 2.00548 2
      vertex 4.45492 1.24472 2
      vertex 8.96192 2.00548 2
    endloop
  endfacet
  facet normal 0 0 1
    outer loop
      vertex 4.45492 1.24472 2
      vertex 3.03808 2.00548 2
      vertex 3.5 1.66987 2
    endloop
  endfacet
  facet normal 0.743009 -0.669282 0
    outer loop
      vertex 2.19098 53.8378 2
      vertex 2.33087 53.9931 0
      vertex 2.33087 53.9931 2
    endloop
  endfacet
  facet normal 0.743009 -0.669282 0
    outer loop
      vertex 2.33087 53.9931 0
      vertex 2.19098 53.8378 2
      vertex 2.19098 53.8378 0
    endloop
  endfacet
  facet normal 0 1 -0
    outer loop
      vertex 82.8188 2.00548 0
      vertex 10.4329 2.00548 2
      vertex 82.8188 2.00548 2
    endloop
  endfacet
  facet normal 0 1 0
    outer loop
      vertex 10.4329 2.00548 2
      vertex 82.8188 2.00548 0
      vertex 10.4329 2.00548 0
    endloop
  endfacet
  facet normal 0 1 -0
    outer loop
      vertex 8.96192 2.00548 0
      vertex 3.03808 2.00548 2
      vertex 8.96192 2.00548 2
    endloop
  endfacet
  facet normal 0 1 0
    outer loop
      vertex 3.03808 2.00548 2
      vertex 8.96192 2.00548 0
      vertex 3.03808 2.00548 0
    endloop
  endfacet
  facet normal -0.994498 -0.104759 0
    outer loop
      vertex 83.7143 53.25 0
      vertex 83.6924 53.4579 2
      vertex 83.6924 53.4579 0
    endloop
  endfacet
  facet normal -0.994498 -0.104759 0
    outer loop
      vertex 83.6924 53.4579 2
      vertex 83.7143 53.25 0
      vertex 83.7143 53.25 2
    endloop
  endfacet
  facet normal 0.951048 -0.309043 0
    outer loop
      vertex 2.02185 53.4579 2
      vertex 2.08645 53.6567 0
      vertex 2.08645 53.6567 2
    endloop
  endfacet
  facet normal 0.951048 -0.309043 0
    outer loop
      vertex 2.08645 53.6567 0
      vertex 2.02185 53.4579 2
      vertex 2.02185 53.4579 0
    endloop
  endfacet
  facet normal 0.207611 -0.978211 0
    outer loop
      vertex 2.69098 54.2011 0
      vertex 2.89547 54.2445 2
      vertex 2.69098 54.2011 2
    endloop
  endfacet
  facet normal 0.207611 -0.978211 0
    outer loop
      vertex 2.89547 54.2445 2
      vertex 2.69098 54.2011 0
      vertex 2.89547 54.2445 0
    endloop
  endfacet
  facet normal 0.994522 -0.104523 0
    outer loop
      vertex 2 53.25 2
      vertex 2.02185 53.4579 0
      vertex 2.02185 53.4579 2
    endloop
  endfacet
  facet normal 0.994522 -0.104523 0
    outer loop
      vertex 2.02185 53.4579 0
      vertex 2 53.25 2
      vertex 2 53.25 0
    endloop
  endfacet
  facet normal -0.994498 0.104755 0
    outer loop
      vertex 83.6924 2.79209 0
      vertex 83.7143 3 2
      vertex 83.7143 3 0
    endloop
  endfacet
  facet normal -0.994498 0.104755 0
    outer loop
      vertex 83.7143 3 2
      vertex 83.6924 2.79209 0
      vertex 83.6924 2.79209 2
    endloop
  endfacet
  facet normal -1 0 0
    outer loop
      vertex 83.7143 3 0
      vertex 83.7143 53.25 2
      vertex 83.7143 53.25 0
    endloop
  endfacet
  facet normal -1 -0 0
    outer loop
      vertex 83.7143 53.25 2
      vertex 83.7143 3 0
      vertex 83.7143 3 2
    endloop
  endfacet
  facet normal -0.207876 0.978155 0
    outer loop
      vertex 83.0233 2.04894 0
      vertex 82.8188 2.00548 2
      vertex 83.0233 2.04894 2
    endloop
  endfacet
  facet normal -0.207876 0.978155 0
    outer loop
      vertex 82.8188 2.00548 2
      vertex 83.0233 2.04894 0
      vertex 82.8188 2.00548 0
    endloop
  endfacet
  facet normal 1 -0 0
    outer loop
      vertex 2 10.4696 2
      vertex 2 53.25 0
      vertex 2 53.25 2
    endloop
  endfacet
  facet normal 1 0 0
    outer loop
      vertex 2 53.25 0
      vertex 2 10.4696 2
      vertex 2 10.4696 0
    endloop
  endfacet
  facet normal 1 -0 0
    outer loop
      vertex 2 3.011 2
      vertex 2 8.989 0
      vertex 2 8.989 2
    endloop
  endfacet
  facet normal 1 0 0
    outer loop
      vertex 2 8.989 0
      vertex 2 3.011 2
      vertex 2 3.011 0
    endloop
  endfacet
  facet normal 0 -1 0
    outer loop
      vertex 2.89547 54.2445 0
      vertex 82.8188 54.2445 2
      vertex 2.89547 54.2445 2
    endloop
  endfacet
  facet normal 0 -1 -0
    outer loop
      vertex 82.8188 54.2445 2
      vertex 2.89547 54.2445 0
      vertex 82.8188 54.2445 0
    endloop
  endfacet
  facet normal -0.406702 0.913561 0
    outer loop
      vertex 83.2143 2.13397 0
      vertex 83.0233 2.04894 2
      vertex 83.2143 2.13397 2
    endloop
  endfacet
  facet normal -0.406702 0.913561 0
    outer loop
      vertex 83.0233 2.04894 2
      vertex 83.2143 2.13397 0
      vertex 83.0233 2.04894 0
    endloop
  endfacet
  facet normal -0.406981 -0.913436 0
    outer loop
      vertex 83.0233 54.2011 0
      vertex 83.2143 54.116 2
      vertex 83.0233 54.2011 2
    endloop
  endfacet
  facet normal -0.406981 -0.913436 -0
    outer loop
      vertex 83.2143 54.116 2
      vertex 83.0233 54.2011 0
      vertex 83.2143 54.116 0
    endloop
  endfacet
  facet normal -0.587916 -0.808922 0
    outer loop
      vertex 83.2143 54.116 0
      vertex 83.3834 53.9931 2
      vertex 83.2143 54.116 2
    endloop
  endfacet
  facet normal -0.587916 -0.808922 -0
    outer loop
      vertex 83.3834 53.9931 2
      vertex 83.2143 54.116 0
      vertex 83.3834 53.9931 0
    endloop
  endfacet
  facet normal -0.587884 0.808945 0
    outer loop
      vertex 83.3834 2.25686 0
      vertex 83.2143 2.13397 2
      vertex 83.3834 2.25686 2
    endloop
  endfacet
  facet normal -0.587884 0.808945 0
    outer loop
      vertex 83.2143 2.13397 2
      vertex 83.3834 2.25686 0
      vertex 83.2143 2.13397 0
    endloop
  endfacet
  facet normal -0.951062 0.309001 0
    outer loop
      vertex 83.6278 2.59326 0
      vertex 83.6924 2.79209 2
      vertex 83.6924 2.79209 0
    endloop
  endfacet
  facet normal -0.951062 0.309001 0
    outer loop
      vertex 83.6924 2.79209 2
      vertex 83.6278 2.59326 0
      vertex 83.6278 2.59326 2
    endloop
  endfacet
  facet normal -0.207601 -0.978214 0
    outer loop
      vertex 82.8188 54.2445 0
      vertex 83.0233 54.2011 2
      vertex 82.8188 54.2445 2
    endloop
  endfacet
  facet normal -0.207601 -0.978214 -0
    outer loop
      vertex 83.0233 54.2011 2
      vertex 82.8188 54.2445 0
      vertex 83.0233 54.2011 0
    endloop
  endfacet
  facet normal -0.866146 -0.499791 0
    outer loop
      vertex 83.6278 53.6567 0
      vertex 83.5233 53.8378 2
      vertex 83.5233 53.8378 0
    endloop
  endfacet
  facet normal -0.866146 -0.499791 0
    outer loop
      vertex 83.5233 53.8378 2
      vertex 83.6278 53.6567 0
      vertex 83.6278 53.6567 2
    endloop
  endfacet
  facet normal -0.742985 -0.669308 0
    outer loop
      vertex 83.5233 53.8378 0
      vertex 83.3834 53.9931 2
      vertex 83.3834 53.9931 0
    endloop
  endfacet
  facet normal -0.742985 -0.669308 0
    outer loop
      vertex 83.3834 53.9931 2
      vertex 83.5233 53.8378 0
      vertex 83.5233 53.8378 2
    endloop
  endfacet
  facet normal -0.743092 0.669189 0
    outer loop
      vertex 83.3834 2.25686 0
      vertex 83.5233 2.41221 2
      vertex 83.5233 2.41221 0
    endloop
  endfacet
  facet normal -0.743092 0.669189 0
    outer loop
      vertex 83.5233 2.41221 2
      vertex 83.3834 2.25686 0
      vertex 83.3834 2.25686 2
    endloop
  endfacet
  facet normal -0.866086 0.499895 0
    outer loop
      vertex 83.5233 2.41221 0
      vertex 83.6278 2.59326 2
      vertex 83.6278 2.59326 0
    endloop
  endfacet
  facet normal -0.866086 0.499895 0
    outer loop
      vertex 83.6278 2.59326 2
      vertex 83.5233 2.41221 0
      vertex 83.5233 2.41221 2
    endloop
  endfacet
  facet normal -0.951048 -0.309043 0
    outer loop
      vertex 83.6924 53.4579 0
      vertex 83.6278 53.6567 2
      vertex 83.6278 53.6567 0
    endloop
  endfacet
  facet normal -0.951048 -0.309043 0
    outer loop
      vertex 83.6278 53.6567 2
      vertex 83.6924 53.4579 0
      vertex 83.6924 53.4579 2
    endloop
  endfacet
  facet normal 0.587847 -0.808972 0
    outer loop
      vertex 2.33087 53.9931 0
      vertex 2.5 54.116 2
      vertex 2.33087 53.9931 2
    endloop
  endfacet
  facet normal 0.587847 -0.808972 0
    outer loop
      vertex 2.5 54.116 2
      vertex 2.33087 53.9931 0
      vertex 2.5 54.116 0
    endloop
  endfacet
  facet normal 0.866084 -0.499899 0
    outer loop
      vertex 2.08645 53.6567 2
      vertex 2.19098 53.8378 0
      vertex 2.19098 53.8378 2
    endloop
  endfacet
  facet normal 0.866084 -0.499899 0
    outer loop
      vertex 2.19098 53.8378 0
      vertex 2.08645 53.6567 2
      vertex 2.08645 53.6567 0
    endloop
  endfacet
  facet normal 0.407017 -0.913421 0
    outer loop
      vertex 2.5 54.116 0
      vertex 2.69098 54.2011 2
      vertex 2.5 54.116 2
    endloop
  endfacet
  facet normal 0.407017 -0.913421 0
    outer loop
      vertex 2.69098 54.2011 2
      vertex 2.5 54.116 0
      vertex 2.69098 54.2011 0
    endloop
  endfacet
  facet normal -0.951059 -0.309009 0
    outer loop
      vertex 10.8907 7.03956 0
      vertex 10.5677 8.03368 5.5
      vertex 10.5677 8.03368 0
    endloop
  endfacet
  facet normal -0.951059 -0.309009 0
    outer loop
      vertex 10.5677 8.03368 5.5
      vertex 10.8907 7.03956 0
      vertex 10.8907 7.03956 5.5
    endloop
  endfacet
  facet normal -0.994518 -0.104564 0
    outer loop
      vertex 11 6 0
      vertex 10.8907 7.03956 5.5
      vertex 10.8907 7.03956 0
    endloop
  endfacet
  facet normal -0.994518 -0.104564 0
    outer loop
      vertex 10.8907 7.03956 5.5
      vertex 11 6 0
      vertex 11 6 5.5
    endloop
  endfacet
  facet normal -0.866045 -0.499967 0
    outer loop
      vertex 10.5677 8.03368 0
      vertex 10.0451 8.93893 5.5
      vertex 10.0451 8.93893 0
    endloop
  endfacet
  facet normal -0.866045 -0.499967 0
    outer loop
      vertex 10.0451 8.93893 5.5
      vertex 10.5677 8.03368 0
      vertex 10.5677 8.03368 5.5
    endloop
  endfacet
  facet normal 0 0 -1
    outer loop
      vertex 8 6 5.5
      vertex 11 6 5.5
      vertex 10.8907 4.96044 5.5
    endloop
  endfacet
  facet normal 0 0 -1
    outer loop
      vertex 7.9563 5.58418 5.5
      vertex 10.8907 4.96044 5.5
      vertex 10.5677 3.96632 5.5
    endloop
  endfacet
  facet normal 0 0 -1
    outer loop
      vertex 11 6 5.5
      vertex 8 6 5.5
      vertex 10.8907 7.03956 5.5
    endloop
  endfacet
  facet normal 0 0 -1
    outer loop
      vertex 7.82709 5.18653 5.5
      vertex 10.5677 3.96632 5.5
      vertex 10.0451 3.06107 5.5
    endloop
  endfacet
  facet normal 0 0 -1
    outer loop
      vertex 7.9563 6.41582 5.5
      vertex 10.8907 7.03956 5.5
      vertex 8 6 5.5
    endloop
  endfacet
  facet normal 0 0 -1
    outer loop
      vertex 7.61803 4.82443 5.5
      vertex 10.0451 3.06107 5.5
      vertex 9.34565 2.28428 5.5
    endloop
  endfacet
  facet normal -0 0 -1
    outer loop
      vertex 10.8907 7.03956 5.5
      vertex 7.9563 6.41582 5.5
      vertex 10.5677 8.03368 5.5
    endloop
  endfacet
  facet normal 0 0 -1
    outer loop
      vertex 7.33826 4.51371 5.5
      vertex 9.34565 2.28428 5.5
      vertex 8.5 1.66987 5.5
    endloop
  endfacet
  facet normal 0 0 -1
    outer loop
      vertex 7.82709 6.81347 5.5
      vertex 10.5677 8.03368 5.5
      vertex 7.9563 6.41582 5.5
    endloop
  endfacet
  facet normal -0 0 -1
    outer loop
      vertex 10.5677 8.03368 5.5
      vertex 7.82709 6.81347 5.5
      vertex 10.0451 8.93893 5.5
    endloop
  endfacet
  facet normal 0 0 -1
    outer loop
      vertex 10.8907 4.96044 5.5
      vertex 7.9563 5.58418 5.5
      vertex 8 6 5.5
    endloop
  endfacet
  facet normal 0 0 -1
    outer loop
      vertex 10.5677 3.96632 5.5
      vertex 7.82709 5.18653 5.5
      vertex 7.9563 5.58418 5.5
    endloop
  endfacet
  facet normal 0 0 -1
    outer loop
      vertex 10.0451 3.06107 5.5
      vertex 7.61803 4.82443 5.5
      vertex 7.82709 5.18653 5.5
    endloop
  endfacet
  facet normal 0 0 -1
    outer loop
      vertex 7 4.26795 5.5
      vertex 8.5 1.66987 5.5
      vertex 7.54508 1.24472 5.5
    endloop
  endfacet
  facet normal 0 0 -1
    outer loop
      vertex 9.34565 2.28428 5.5
      vertex 7.33826 4.51371 5.5
      vertex 7.61803 4.82443 5.5
    endloop
  endfacet
  facet normal 0 0 -1
    outer loop
      vertex 8.5 1.66987 5.5
      vertex 7 4.26795 5.5
      vertex 7.33826 4.51371 5.5
    endloop
  endfacet
  facet normal 0 0 -1
    outer loop
      vertex 7.54508 1.24472 5.5
      vertex 6.61803 4.09789 5.5
      vertex 7 4.26795 5.5
    endloop
  endfacet
  facet normal 0 0 -1
    outer loop
      vertex 6.52264 1.02739 5.5
      vertex 6.61803 4.09789 5.5
      vertex 7.54508 1.24472 5.5
    endloop
  endfacet
  facet normal 0 0 -1
    outer loop
      vertex 6.52264 1.02739 5.5
      vertex 6.20906 4.01096 5.5
      vertex 6.61803 4.09789 5.5
    endloop
  endfacet
  facet normal 0 0 -1
    outer loop
      vertex 6.52264 1.02739 5.5
      vertex 5.79094 4.01096 5.5
      vertex 6.20906 4.01096 5.5
    endloop
  endfacet
  facet normal 0 0 -1
    outer loop
      vertex 5.47736 1.02739 5.5
      vertex 5.79094 4.01096 5.5
      vertex 6.52264 1.02739 5.5
    endloop
  endfacet
  facet normal 0 0 -1
    outer loop
      vertex 5.47736 1.02739 5.5
      vertex 5.38197 4.09789 5.5
      vertex 5.79094 4.01096 5.5
    endloop
  endfacet
  facet normal 0 0 -1
    outer loop
      vertex 4.45492 1.24472 5.5
      vertex 5.38197 4.09789 5.5
      vertex 5.47736 1.02739 5.5
    endloop
  endfacet
  facet normal -0 0 -1
    outer loop
      vertex 5.38197 4.09789 5.5
      vertex 4.45492 1.24472 5.5
      vertex 5 4.26795 5.5
    endloop
  endfacet
  facet normal 0 0 -1
    outer loop
      vertex 3.5 1.66987 5.5
      vertex 5 4.26795 5.5
      vertex 4.45492 1.24472 5.5
    endloop
  endfacet
  facet normal -0 0 -1
    outer loop
      vertex 5 4.26795 5.5
      vertex 3.5 1.66987 5.5
      vertex 4.66174 4.51371 5.5
    endloop
  endfacet
  facet normal 0 0 -1
    outer loop
      vertex 2.65435 2.28428 5.5
      vertex 4.66174 4.51371 5.5
      vertex 3.5 1.66987 5.5
    endloop
  endfacet
  facet normal -0 0 -1
    outer loop
      vertex 4.66174 4.51371 5.5
      vertex 2.65435 2.28428 5.5
      vertex 4.38197 4.82443 5.5
    endloop
  endfacet
  facet normal 0 0 -1
    outer loop
      vertex 1.95492 3.06107 5.5
      vertex 4.38197 4.82443 5.5
      vertex 2.65435 2.28428 5.5
    endloop
  endfacet
  facet normal -0 0 -1
    outer loop
      vertex 4.38197 4.82443 5.5
      vertex 1.95492 3.06107 5.5
      vertex 4.17291 5.18653 5.5
    endloop
  endfacet
  facet normal 0 0 -1
    outer loop
      vertex 7.61803 7.17557 5.5
      vertex 10.0451 8.93893 5.5
      vertex 7.82709 6.81347 5.5
    endloop
  endfacet
  facet normal -0 0 -1
    outer loop
      vertex 10.0451 8.93893 5.5
      vertex 7.61803 7.17557 5.5
      vertex 9.34565 9.71572 5.5
    endloop
  endfacet
  facet normal 0 0 -1
    outer loop
      vertex 7.33826 7.48629 5.5
      vertex 9.34565 9.71572 5.5
      vertex 7.61803 7.17557 5.5
    endloop
  endfacet
  facet normal -0 0 -1
    outer loop
      vertex 9.34565 9.71572 5.5
      vertex 7.33826 7.48629 5.5
      vertex 8.5 10.3301 5.5
    endloop
  endfacet
  facet normal 0 0 -1
    outer loop
      vertex 7 7.73205 5.5
      vertex 8.5 10.3301 5.5
      vertex 7.33826 7.48629 5.5
    endloop
  endfacet
  facet normal -0 0 -1
    outer loop
      vertex 8.5 10.3301 5.5
      vertex 7 7.73205 5.5
      vertex 7.54508 10.7553 5.5
    endloop
  endfacet
  facet normal 0 0 -1
    outer loop
      vertex 6.61803 7.90211 5.5
      vertex 7.54508 10.7553 5.5
      vertex 7 7.73205 5.5
    endloop
  endfacet
  facet normal 0 0 -1
    outer loop
      vertex 6.61803 7.90211 5.5
      vertex 6.52264 10.9726 5.5
      vertex 7.54508 10.7553 5.5
    endloop
  endfacet
  facet normal 0 0 -1
    outer loop
      vertex 6.20906 7.98904 5.5
      vertex 6.52264 10.9726 5.5
      vertex 6.61803 7.90211 5.5
    endloop
  endfacet
  facet normal 0 0 -1
    outer loop
      vertex 5.79094 7.98904 5.5
      vertex 6.52264 10.9726 5.5
      vertex 6.20906 7.98904 5.5
    endloop
  endfacet
  facet normal 0 0 -1
    outer loop
      vertex 5.79094 7.98904 5.5
      vertex 5.47736 10.9726 5.5
      vertex 6.52264 10.9726 5.5
    endloop
  endfacet
  facet normal 0 0 -1
    outer loop
      vertex 5.38197 7.90211 5.5
      vertex 5.47736 10.9726 5.5
      vertex 5.79094 7.98904 5.5
    endloop
  endfacet
  facet normal 0 0 -1
    outer loop
      vertex 4.45492 10.7553 5.5
      vertex 5.38197 7.90211 5.5
      vertex 5 7.73205 5.5
    endloop
  endfacet
  facet normal 0 0 -1
    outer loop
      vertex 3.5 10.3301 5.5
      vertex 5 7.73205 5.5
      vertex 4.66174 7.48629 5.5
    endloop
  endfacet
  facet normal 0 0 -1
    outer loop
      vertex 5.38197 7.90211 5.5
      vertex 4.45492 10.7553 5.5
      vertex 5.47736 10.9726 5.5
    endloop
  endfacet
  facet normal 0 0 -1
    outer loop
      vertex 2.65435 9.71572 5.5
      vertex 4.66174 7.48629 5.5
      vertex 4.38197 7.17557 5.5
    endloop
  endfacet
  facet normal 0 0 -1
    outer loop
      vertex 1.95492 8.93893 5.5
      vertex 4.38197 7.17557 5.5
      vertex 4.17291 6.81347 5.5
    endloop
  endfacet
  facet normal 0 0 -1
    outer loop
      vertex 1.43227 8.03368 5.5
      vertex 4.17291 6.81347 5.5
      vertex 4.0437 6.41582 5.5
    endloop
  endfacet
  facet normal 0 0 -1
    outer loop
      vertex 1.10926 7.03956 5.5
      vertex 4.0437 6.41582 5.5
      vertex 4 6 5.5
    endloop
  endfacet
  facet normal 0 0 -1
    outer loop
      vertex 1.43227 3.96632 5.5
      vertex 4.17291 5.18653 5.5
      vertex 1.95492 3.06107 5.5
    endloop
  endfacet
  facet normal 0 0 -1
    outer loop
      vertex 5 7.73205 5.5
      vertex 3.5 10.3301 5.5
      vertex 4.45492 10.7553 5.5
    endloop
  endfacet
  facet normal -0 0 -1
    outer loop
      vertex 4.17291 5.18653 5.5
      vertex 1.43227 3.96632 5.5
      vertex 4.0437 5.58418 5.5
    endloop
  endfacet
  facet normal 0 0 -1
    outer loop
      vertex 4.66174 7.48629 5.5
      vertex 2.65435 9.71572 5.5
      vertex 3.5 10.3301 5.5
    endloop
  endfacet
  facet normal 0 0 -1
    outer loop
      vertex 1.10926 4.96044 5.5
      vertex 4.0437 5.58418 5.5
      vertex 1.43227 3.96632 5.5
    endloop
  endfacet
  facet normal 0 0 -1
    outer loop
      vertex 4.38197 7.17557 5.5
      vertex 1.95492 8.93893 5.5
      vertex 2.65435 9.71572 5.5
    endloop
  endfacet
  facet normal -0 0 -1
    outer loop
      vertex 4.0437 5.58418 5.5
      vertex 1.10926 4.96044 5.5
      vertex 4 6 5.5
    endloop
  endfacet
  facet normal 0 0 -1
    outer loop
      vertex 4.17291 6.81347 5.5
      vertex 1.43227 8.03368 5.5
      vertex 1.95492 8.93893 5.5
    endloop
  endfacet
  facet normal 0 0 -1
    outer loop
      vertex 1 6 5.5
      vertex 4 6 5.5
      vertex 1.10926 4.96044 5.5
    endloop
  endfacet
  facet normal 0 0 -1
    outer loop
      vertex 4.0437 6.41582 5.5
      vertex 1.10926 7.03956 5.5
      vertex 1.43227 8.03368 5.5
    endloop
  endfacet
  facet normal 0 0 -1
    outer loop
      vertex 4 6 5.5
      vertex 1 6 5.5
      vertex 1.10926 7.03956 5.5
    endloop
  endfacet
  facet normal 0.40677 -0.91353 0
    outer loop
      vertex 3.5 10.3301 0
      vertex 4.45492 10.7553 5.5
      vertex 3.5 10.3301 5.5
    endloop
  endfacet
  facet normal 0.40677 -0.91353 0
    outer loop
      vertex 4.45492 10.7553 5.5
      vertex 3.5 10.3301 0
      vertex 4.45492 10.7553 0
    endloop
  endfacet
  facet normal -0.951059 0.309009 0
    outer loop
      vertex 10.5677 3.96632 0
      vertex 10.8907 4.96044 5.5
      vertex 10.8907 4.96044 0
    endloop
  endfacet
  facet normal -0.951059 0.309009 0
    outer loop
      vertex 10.8907 4.96044 5.5
      vertex 10.5677 3.96632 0
      vertex 10.5677 3.96632 5.5
    endloop
  endfacet
  facet normal -0.994518 0.104564 0
    outer loop
      vertex 10.8907 4.96044 0
      vertex 11 6 5.5
      vertex 11 6 0
    endloop
  endfacet
  facet normal -0.994518 0.104564 0
    outer loop
      vertex 11 6 5.5
      vertex 10.8907 4.96044 0
      vertex 10.8907 4.96044 5.5
    endloop
  endfacet
  facet normal -0.40677 -0.91353 0
    outer loop
      vertex 7.54508 10.7553 0
      vertex 8.5 10.3301 5.5
      vertex 7.54508 10.7553 5.5
    endloop
  endfacet
  facet normal -0.40677 -0.91353 -0
    outer loop
      vertex 8.5 10.3301 5.5
      vertex 7.54508 10.7553 0
      vertex 8.5 10.3301 0
    endloop
  endfacet
  facet normal 0.743141 -0.669135 0
    outer loop
      vertex 2.65435 9.71572 5.5
      vertex 2 8.989 2
      vertex 2.65435 9.71572 0
    endloop
  endfacet
  facet normal 0.743142 -0.669133 -7.563e-07
    outer loop
      vertex 1.95492 8.93893 5.5
      vertex 2 8.989 2
      vertex 2.65435 9.71572 5.5
    endloop
  endfacet
  facet normal 0.743169 -0.669104 0
    outer loop
      vertex 2 8.989 2
      vertex 1.95492 8.93893 5.5
      vertex 1.95492 8.93893 2
    endloop
  endfacet
  facet normal 0.743141 -0.669135 0
    outer loop
      vertex 2.65435 9.71572 0
      vertex 2 8.989 2
      vertex 2 8.989 0
    endloop
  endfacet
  facet normal 0.866024 -0.500003 0
    outer loop
      vertex 1.43227 8.03368 5.5
      vertex 1.95492 8.93893 2
      vertex 1.95492 8.93893 5.5
    endloop
  endfacet
  facet normal 0.866024 -0.500003 0
    outer loop
      vertex 1.95492 8.93893 2
      vertex 1.43227 8.03368 5.5
      vertex 1.43227 8.03368 2
    endloop
  endfacet
  facet normal 0.587772 -0.809026 0
    outer loop
      vertex 2.65435 9.71572 0
      vertex 3.5 10.3301 5.5
      vertex 2.65435 9.71572 5.5
    endloop
  endfacet
  facet normal 0.587772 -0.809026 0
    outer loop
      vertex 3.5 10.3301 5.5
      vertex 2.65435 9.71572 0
      vertex 3.5 10.3301 0
    endloop
  endfacet
  facet normal -0.866045 0.499967 0
    outer loop
      vertex 10.0451 3.06107 0
      vertex 10.5677 3.96632 5.5
      vertex 10.5677 3.96632 0
    endloop
  endfacet
  facet normal -0.866045 0.499967 0
    outer loop
      vertex 10.5677 3.96632 5.5
      vertex 10.0451 3.06107 0
      vertex 10.0451 3.06107 5.5
    endloop
  endfacet
  facet normal 0 -1 0
    outer loop
      vertex 5.47736 10.9726 0
      vertex 6.52264 10.9726 5.5
      vertex 5.47736 10.9726 5.5
    endloop
  endfacet
  facet normal 0 -1 -0
    outer loop
      vertex 6.52264 10.9726 5.5
      vertex 5.47736 10.9726 0
      vertex 6.52264 10.9726 0
    endloop
  endfacet
  facet normal -0.587791 0.809013 9.00095e-08
    outer loop
      vertex 9.34565 2.28428 5.5
      vertex 8.96192 2.00548 2
      vertex 8.5 1.66987 5.5
    endloop
  endfacet
  facet normal -0.587791 0.809013 0
    outer loop
      vertex 9.34565 2.28428 0
      vertex 8.96192 2.00548 2
      vertex 9.34565 2.28428 5.5
    endloop
  endfacet
  facet normal -0.587791 0.809013 0
    outer loop
      vertex 8.96192 2.00548 2
      vertex 9.34565 2.28428 0
      vertex 8.96192 2.00548 0
    endloop
  endfacet
  facet normal -0.587792 0.809012 0
    outer loop
      vertex 8.5 1.66987 5.5
      vertex 8.96192 2.00548 2
      vertex 8.5 1.66987 2
    endloop
  endfacet
  facet normal -0.743133 -0.669144 0
    outer loop
      vertex 10.0451 8.93893 0
      vertex 9.34565 9.71572 5.5
      vertex 9.34565 9.71572 0
    endloop
  endfacet
  facet normal -0.743133 -0.669144 0
    outer loop
      vertex 9.34565 9.71572 5.5
      vertex 10.0451 8.93893 0
      vertex 10.0451 8.93893 5.5
    endloop
  endfacet
  facet normal 0.207915 0.978147 -0
    outer loop
      vertex 5.47736 1.02739 2
      vertex 4.45492 1.24472 5.5
      vertex 5.47736 1.02739 5.5
    endloop
  endfacet
  facet normal 0.207915 0.978147 0
    outer loop
      vertex 4.45492 1.24472 5.5
      vertex 5.47736 1.02739 2
      vertex 4.45492 1.24472 2
    endloop
  endfacet
  facet normal 0 1 -0
    outer loop
      vertex 6.52264 1.02739 2
      vertex 5.47736 1.02739 5.5
      vertex 6.52264 1.02739 5.5
    endloop
  endfacet
  facet normal 0 1 0
    outer loop
      vertex 5.47736 1.02739 5.5
      vertex 6.52264 1.02739 2
      vertex 5.47736 1.02739 2
    endloop
  endfacet
  facet normal 0.951056 -0.309018 0
    outer loop
      vertex 1.10926 7.03956 5.5
      vertex 1.43227 8.03368 2
      vertex 1.43227 8.03368 5.5
    endloop
  endfacet
  facet normal 0.951056 -0.309018 0
    outer loop
      vertex 1.43227 8.03368 2
      vertex 1.10926 7.03956 5.5
      vertex 1.10926 7.03956 2
    endloop
  endfacet
  facet normal 0.207888 -0.978153 0
    outer loop
      vertex 4.45492 10.7553 0
      vertex 5.47736 10.9726 5.5
      vertex 4.45492 10.7553 5.5
    endloop
  endfacet
  facet normal 0.207888 -0.978153 0
    outer loop
      vertex 5.47736 10.9726 5.5
      vertex 4.45492 10.7553 0
      vertex 5.47736 10.9726 0
    endloop
  endfacet
  facet normal -0.207915 0.978147 0
    outer loop
      vertex 7.54508 1.24472 2
      vertex 6.52264 1.02739 5.5
      vertex 7.54508 1.24472 5.5
    endloop
  endfacet
  facet normal -0.207915 0.978147 0
    outer loop
      vertex 6.52264 1.02739 5.5
      vertex 7.54508 1.24472 2
      vertex 6.52264 1.02739 2
    endloop
  endfacet
  facet normal 0.866024 0.500003 0
    outer loop
      vertex 1.95492 3.06107 5.5
      vertex 1.43227 3.96632 2
      vertex 1.43227 3.96632 5.5
    endloop
  endfacet
  facet normal 0.866024 0.500003 0
    outer loop
      vertex 1.43227 3.96632 2
      vertex 1.95492 3.06107 5.5
      vertex 1.95492 3.06107 2
    endloop
  endfacet
  facet normal -0.40673 0.913548 0
    outer loop
      vertex 8.5 1.66987 2
      vertex 7.54508 1.24472 5.5
      vertex 8.5 1.66987 5.5
    endloop
  endfacet
  facet normal -0.40673 0.913548 0
    outer loop
      vertex 7.54508 1.24472 5.5
      vertex 8.5 1.66987 2
      vertex 7.54508 1.24472 2
    endloop
  endfacet
  facet normal 0.994522 -0.104526 0
    outer loop
      vertex 1 6 5.5
      vertex 1.10926 7.03956 2
      vertex 1.10926 7.03956 5.5
    endloop
  endfacet
  facet normal 0.994522 -0.104526 0
    outer loop
      vertex 1.10926 7.03956 2
      vertex 1 6 5.5
      vertex 1 6 2
    endloop
  endfacet
  facet normal -0.587772 -0.809026 0
    outer loop
      vertex 8.5 10.3301 0
      vertex 9.34565 9.71572 5.5
      vertex 8.5 10.3301 5.5
    endloop
  endfacet
  facet normal -0.587772 -0.809026 -0
    outer loop
      vertex 9.34565 9.71572 5.5
      vertex 8.5 10.3301 0
      vertex 9.34565 9.71572 0
    endloop
  endfacet
  facet normal -0.207888 -0.978153 0
    outer loop
      vertex 6.52264 10.9726 0
      vertex 7.54508 10.7553 5.5
      vertex 6.52264 10.9726 5.5
    endloop
  endfacet
  facet normal -0.207888 -0.978153 -0
    outer loop
      vertex 7.54508 10.7553 5.5
      vertex 6.52264 10.9726 0
      vertex 7.54508 10.7553 0
    endloop
  endfacet
  facet normal -0.743133 0.669144 0
    outer loop
      vertex 9.34565 2.28428 0
      vertex 10.0451 3.06107 5.5
      vertex 10.0451 3.06107 0
    endloop
  endfacet
  facet normal -0.743133 0.669144 0
    outer loop
      vertex 10.0451 3.06107 5.5
      vertex 9.34565 2.28428 0
      vertex 9.34565 2.28428 5.5
    endloop
  endfacet
  facet normal 0.994522 0.104526 0
    outer loop
      vertex 1.10926 4.96044 5.5
      vertex 1 6 2
      vertex 1 6 5.5
    endloop
  endfacet
  facet normal 0.994522 0.104526 0
    outer loop
      vertex 1 6 2
      vertex 1.10926 4.96044 5.5
      vertex 1.10926 4.96044 2
    endloop
  endfacet
  facet normal 0.951056 0.309018 0
    outer loop
      vertex 1.43227 3.96632 5.5
      vertex 1.10926 4.96044 2
      vertex 1.10926 4.96044 5.5
    endloop
  endfacet
  facet normal 0.951056 0.309018 0
    outer loop
      vertex 1.10926 4.96044 2
      vertex 1.43227 3.96632 5.5
      vertex 1.43227 3.96632 2
    endloop
  endfacet
  facet normal 0.587792 0.809012 0
    outer loop
      vertex 3.03808 2.00548 2
      vertex 3.5 1.66987 5.5
      vertex 3.5 1.66987 2
    endloop
  endfacet
  facet normal 0.587791 0.809013 9.00095e-08
    outer loop
      vertex 3.5 1.66987 5.5
      vertex 3.03808 2.00548 2
      vertex 2.65435 2.28428 5.5
    endloop
  endfacet
  facet normal 0.587791 0.809013 0
    outer loop
      vertex 2.65435 2.28428 0
      vertex 3.03808 2.00548 2
      vertex 3.03808 2.00548 0
    endloop
  endfacet
  facet normal 0.587791 0.809013 0
    outer loop
      vertex 3.03808 2.00548 2
      vertex 2.65435 2.28428 0
      vertex 2.65435 2.28428 5.5
    endloop
  endfacet
  facet normal 0.743169 0.669104 0
    outer loop
      vertex 1.95492 3.06107 5.5
      vertex 2 3.011 2
      vertex 1.95492 3.06107 2
    endloop
  endfacet
  facet normal 0.743142 0.669133 -7.563e-07
    outer loop
      vertex 2.65435 2.28428 5.5
      vertex 2 3.011 2
      vertex 1.95492 3.06107 5.5
    endloop
  endfacet
  facet normal 0.743141 0.669135 -0
    outer loop
      vertex 2.65435 2.28428 0
      vertex 2 3.011 2
      vertex 2.65435 2.28428 5.5
    endloop
  endfacet
  facet normal 0.743141 0.669135 0
    outer loop
      vertex 2 3.011 2
      vertex 2.65435 2.28428 0
      vertex 2 3.011 0
    endloop
  endfacet
  facet normal 0.40673 0.913548 -0
    outer loop
      vertex 4.45492 1.24472 2
      vertex 3.5 1.66987 5.5
      vertex 4.45492 1.24472 5.5
    endloop
  endfacet
  facet normal 0.40673 0.913548 0
    outer loop
      vertex 3.5 1.66987 5.5
      vertex 4.45492 1.24472 2
      vertex 3.5 1.66987 2
    endloop
  endfacet
  facet normal 0.406729 0.913549 -0
    outer loop
      vertex 5.38197 4.09789 5.5
      vertex 5 4.26795 6.5
      vertex 5.38197 4.09789 6.5
    endloop
  endfacet
  facet normal 0.406729 0.913549 0
    outer loop
      vertex 5 4.26795 6.5
      vertex 5.38197 4.09789 5.5
      vertex 5 4.26795 5.5
    endloop
  endfacet
  facet normal -0.951053 -0.309029 0
    outer loop
      vertex 7.9563 6.41582 5.5
      vertex 7.82709 6.81347 6.5
      vertex 7.82709 6.81347 5.5
    endloop
  endfacet
  facet normal -0.951053 -0.309029 0
    outer loop
      vertex 7.82709 6.81347 6.5
      vertex 7.9563 6.41582 5.5
      vertex 7.9563 6.41582 6.5
    endloop
  endfacet
  facet normal -0.994523 -0.104518 0
    outer loop
      vertex 8 6 5.5
      vertex 7.9563 6.41582 6.5
      vertex 7.9563 6.41582 5.5
    endloop
  endfacet
  facet normal -0.994523 -0.104518 0
    outer loop
      vertex 7.9563 6.41582 6.5
      vertex 8 6 5.5
      vertex 8 6 6.5
    endloop
  endfacet
  facet normal -0.866024 -0.500003 0
    outer loop
      vertex 7.82709 6.81347 5.5
      vertex 7.61803 7.17557 6.5
      vertex 7.61803 7.17557 5.5
    endloop
  endfacet
  facet normal -0.866024 -0.500003 0
    outer loop
      vertex 7.61803 7.17557 6.5
      vertex 7.82709 6.81347 5.5
      vertex 7.82709 6.81347 6.5
    endloop
  endfacet
  facet normal 0.743149 0.669126 0
    outer loop
      vertex 4.66174 4.51371 6.5
      vertex 4.38197 4.82443 5.5
      vertex 4.38197 4.82443 6.5
    endloop
  endfacet
  facet normal 0.743149 0.669126 0
    outer loop
      vertex 4.38197 4.82443 5.5
      vertex 4.66174 4.51371 6.5
      vertex 4.66174 4.51371 5.5
    endloop
  endfacet
  facet normal -0.994523 0.104518 0
    outer loop
      vertex 7.9563 5.58418 5.5
      vertex 8 6 6.5
      vertex 8 6 5.5
    endloop
  endfacet
  facet normal -0.994523 0.104518 0
    outer loop
      vertex 8 6 6.5
      vertex 7.9563 5.58418 5.5
      vertex 7.9563 5.58418 6.5
    endloop
  endfacet
  facet normal -0.866024 0.500003 0
    outer loop
      vertex 7.61803 4.82443 5.5
      vertex 7.82709 5.18653 6.5
      vertex 7.82709 5.18653 5.5
    endloop
  endfacet
  facet normal -0.866024 0.500003 0
    outer loop
      vertex 7.82709 5.18653 6.5
      vertex 7.61803 4.82443 5.5
      vertex 7.61803 4.82443 6.5
    endloop
  endfacet
  facet normal -0.406729 -0.913549 0
    outer loop
      vertex 6.61803 7.90211 5.5
      vertex 7 7.73205 6.5
      vertex 6.61803 7.90211 6.5
    endloop
  endfacet
  facet normal -0.406729 -0.913549 -0
    outer loop
      vertex 7 7.73205 6.5
      vertex 6.61803 7.90211 5.5
      vertex 7 7.73205 5.5
    endloop
  endfacet
  facet normal 0.951053 0.309029 0
    outer loop
      vertex 4.17291 5.18653 6.5
      vertex 4.0437 5.58418 5.5
      vertex 4.0437 5.58418 6.5
    endloop
  endfacet
  facet normal 0.951053 0.309029 0
    outer loop
      vertex 4.0437 5.58418 5.5
      vertex 4.17291 5.18653 6.5
      vertex 4.17291 5.18653 5.5
    endloop
  endfacet
  facet normal 0.587785 -0.809017 0
    outer loop
      vertex 4.66174 7.48629 5.5
      vertex 5 7.73205 6.5
      vertex 4.66174 7.48629 6.5
    endloop
  endfacet
  facet normal 0.587785 -0.809017 0
    outer loop
      vertex 5 7.73205 6.5
      vertex 4.66174 7.48629 5.5
      vertex 5 7.73205 5.5
    endloop
  endfacet
  facet normal -0.587785 -0.809017 0
    outer loop
      vertex 7 7.73205 5.5
      vertex 7.33826 7.48629 6.5
      vertex 7 7.73205 6.5
    endloop
  endfacet
  facet normal -0.587785 -0.809017 -0
    outer loop
      vertex 7.33826 7.48629 6.5
      vertex 7 7.73205 5.5
      vertex 7.33826 7.48629 5.5
    endloop
  endfacet
  facet normal 0.994523 -0.104518 0
    outer loop
      vertex 4 6 6.5
      vertex 4.0437 6.41582 5.5
      vertex 4.0437 6.41582 6.5
    endloop
  endfacet
  facet normal 0.994523 -0.104518 0
    outer loop
      vertex 4.0437 6.41582 5.5
      vertex 4 6 6.5
      vertex 4 6 5.5
    endloop
  endfacet
  facet normal -0.207913 0.978147 0
    outer loop
      vertex 6.61803 4.09789 5.5
      vertex 6.20906 4.01096 6.5
      vertex 6.61803 4.09789 6.5
    endloop
  endfacet
  facet normal -0.207913 0.978147 0
    outer loop
      vertex 6.20906 4.01096 6.5
      vertex 6.61803 4.09789 5.5
      vertex 6.20906 4.01096 5.5
    endloop
  endfacet
  facet normal 0.994523 0.104518 0
    outer loop
      vertex 4.0437 5.58418 6.5
      vertex 4 6 5.5
      vertex 4 6 6.5
    endloop
  endfacet
  facet normal 0.994523 0.104518 0
    outer loop
      vertex 4 6 5.5
      vertex 4.0437 5.58418 6.5
      vertex 4.0437 5.58418 5.5
    endloop
  endfacet
  facet normal -0.743149 0.669126 0
    outer loop
      vertex 7.33826 4.51371 5.5
      vertex 7.61803 4.82443 6.5
      vertex 7.61803 4.82443 5.5
    endloop
  endfacet
  facet normal -0.743149 0.669126 0
    outer loop
      vertex 7.61803 4.82443 6.5
      vertex 7.33826 4.51371 5.5
      vertex 7.33826 4.51371 6.5
    endloop
  endfacet
  facet normal 0 1 -0
    outer loop
      vertex 6.20906 4.01096 5.5
      vertex 5.79094 4.01096 6.5
      vertex 6.20906 4.01096 6.5
    endloop
  endfacet
  facet normal 0 1 0
    outer loop
      vertex 5.79094 4.01096 6.5
      vertex 6.20906 4.01096 5.5
      vertex 5.79094 4.01096 5.5
    endloop
  endfacet
  facet normal 0.951053 -0.309029 0
    outer loop
      vertex 4.0437 6.41582 6.5
      vertex 4.17291 6.81347 5.5
      vertex 4.17291 6.81347 6.5
    endloop
  endfacet
  facet normal 0.951053 -0.309029 0
    outer loop
      vertex 4.17291 6.81347 5.5
      vertex 4.0437 6.41582 6.5
      vertex 4.0437 6.41582 5.5
    endloop
  endfacet
  facet normal 0.207913 -0.978147 0
    outer loop
      vertex 5.38197 7.90211 5.5
      vertex 5.79094 7.98904 6.5
      vertex 5.38197 7.90211 6.5
    endloop
  endfacet
  facet normal 0.207913 -0.978147 0
    outer loop
      vertex 5.79094 7.98904 6.5
      vertex 5.38197 7.90211 5.5
      vertex 5.79094 7.98904 5.5
    endloop
  endfacet
  facet normal -0.207913 -0.978147 0
    outer loop
      vertex 6.20906 7.98904 5.5
      vertex 6.61803 7.90211 6.5
      vertex 6.20906 7.98904 6.5
    endloop
  endfacet
  facet normal -0.207913 -0.978147 -0
    outer loop
      vertex 6.61803 7.90211 6.5
      vertex 6.20906 7.98904 5.5
      vertex 6.61803 7.90211 5.5
    endloop
  endfacet
  facet normal 0.406729 -0.913549 0
    outer loop
      vertex 5 7.73205 5.5
      vertex 5.38197 7.90211 6.5
      vertex 5 7.73205 6.5
    endloop
  endfacet
  facet normal 0.406729 -0.913549 0
    outer loop
      vertex 5.38197 7.90211 6.5
      vertex 5 7.73205 5.5
      vertex 5.38197 7.90211 5.5
    endloop
  endfacet
  facet normal -0.406729 0.913549 0
    outer loop
      vertex 7 4.26795 5.5
      vertex 6.61803 4.09789 6.5
      vertex 7 4.26795 6.5
    endloop
  endfacet
  facet normal -0.406729 0.913549 0
    outer loop
      vertex 6.61803 4.09789 6.5
      vertex 7 4.26795 5.5
      vertex 6.61803 4.09789 5.5
    endloop
  endfacet
  facet normal -0.951053 0.309029 0
    outer loop
      vertex 7.82709 5.18653 5.5
      vertex 7.9563 5.58418 6.5
      vertex 7.9563 5.58418 5.5
    endloop
  endfacet
  facet normal -0.951053 0.309029 0
    outer loop
      vertex 7.9563 5.58418 6.5
      vertex 7.82709 5.18653 5.5
      vertex 7.82709 5.18653 6.5
    endloop
  endfacet
  facet normal 0.743149 -0.669126 0
    outer loop
      vertex 4.38197 7.17557 6.5
      vertex 4.66174 7.48629 5.5
      vertex 4.66174 7.48629 6.5
    endloop
  endfacet
  facet normal 0.743149 -0.669126 0
    outer loop
      vertex 4.66174 7.48629 5.5
      vertex 4.38197 7.17557 6.5
      vertex 4.38197 7.17557 5.5
    endloop
  endfacet
  facet normal 0.207913 0.978147 -0
    outer loop
      vertex 5.79094 4.01096 5.5
      vertex 5.38197 4.09789 6.5
      vertex 5.79094 4.01096 6.5
    endloop
  endfacet
  facet normal 0.207913 0.978147 0
    outer loop
      vertex 5.38197 4.09789 6.5
      vertex 5.79094 4.01096 5.5
      vertex 5.38197 4.09789 5.5
    endloop
  endfacet
  facet normal 0.866024 0.500003 0
    outer loop
      vertex 4.38197 4.82443 6.5
      vertex 4.17291 5.18653 5.5
      vertex 4.17291 5.18653 6.5
    endloop
  endfacet
  facet normal 0.866024 0.500003 0
    outer loop
      vertex 4.17291 5.18653 5.5
      vertex 4.38197 4.82443 6.5
      vertex 4.38197 4.82443 5.5
    endloop
  endfacet
  facet normal -0.743149 -0.669126 0
    outer loop
      vertex 7.61803 7.17557 5.5
      vertex 7.33826 7.48629 6.5
      vertex 7.33826 7.48629 5.5
    endloop
  endfacet
  facet normal -0.743149 -0.669126 0
    outer loop
      vertex 7.33826 7.48629 6.5
      vertex 7.61803 7.17557 5.5
      vertex 7.61803 7.17557 6.5
    endloop
  endfacet
  facet normal 0.866024 -0.500003 0
    outer loop
      vertex 4.17291 6.81347 6.5
      vertex 4.38197 7.17557 5.5
      vertex 4.38197 7.17557 6.5
    endloop
  endfacet
  facet normal 0.866024 -0.500003 0
    outer loop
      vertex 4.38197 7.17557 5.5
      vertex 4.17291 6.81347 6.5
      vertex 4.17291 6.81347 5.5
    endloop
  endfacet
  facet normal -0.587785 0.809017 0
    outer loop
      vertex 7.33826 4.51371 5.5
      vertex 7 4.26795 6.5
      vertex 7.33826 4.51371 6.5
    endloop
  endfacet
  facet normal -0.587785 0.809017 0
    outer loop
      vertex 7 4.26795 6.5
      vertex 7.33826 4.51371 5.5
      vertex 7 4.26795 5.5
    endloop
  endfacet
  facet normal 0 -1 0
    outer loop
      vertex 5.79094 7.98904 5.5
      vertex 6.20906 7.98904 6.5
      vertex 5.79094 7.98904 6.5
    endloop
  endfacet
  facet normal 0 -1 -0
    outer loop
      vertex 6.20906 7.98904 6.5
      vertex 5.79094 7.98904 5.5
      vertex 6.20906 7.98904 5.5
    endloop
  endfacet
  facet normal 0.587785 0.809017 -0
    outer loop
      vertex 5 4.26795 5.5
      vertex 4.66174 4.51371 6.5
      vertex 5 4.26795 6.5
    endloop
  endfacet
  facet normal 0.587785 0.809017 0
    outer loop
      vertex 4.66174 4.51371 6.5
      vertex 5 4.26795 5.5
      vertex 4.66174 4.51371 5.5
    endloop
  endfacet
  facet normal -0.743145 -0.66913 0
    outer loop
      vertex 1.98522 1.54113 2
      vertex 1.1459 2.47329 6.5
      vertex 1.1459 2.47329 2
    endloop
  endfacet
  facet normal -0.743145 -0.66913 0
    outer loop
      vertex 1.1459 2.47329 6.5
      vertex 1.98522 1.54113 2
      vertex 1.98522 1.54113 6.5
    endloop
  endfacet
  facet normal 0.95106 0.309008 0
    outer loop
      vertex 11.8689 7.24747 6.5
      vertex 11.4813 8.44042 0
      vertex 11.4813 8.44042 6.5
    endloop
  endfacet
  facet normal 0.95106 0.309008 0
    outer loop
      vertex 11.4813 8.44042 0
      vertex 11.8689 7.24747 6.5
      vertex 11.8689 7.24747 0
    endloop
  endfacet
  facet normal 0.994523 0.104517 0
    outer loop
      vertex 12 6 6.5
      vertex 11.8689 7.24747 0
      vertex 11.8689 7.24747 6.5
    endloop
  endfacet
  facet normal 0.994523 0.104517 0
    outer loop
      vertex 11.8689 7.24747 0
      vertex 12 6 6.5
      vertex 12 6 0
    endloop
  endfacet
  facet normal 0.866015 0.500018 0
    outer loop
      vertex 11.4813 8.44042 6.5
      vertex 10.8541 9.52671 0
      vertex 10.8541 9.52671 6.5
    endloop
  endfacet
  facet normal 0.866015 0.500018 0
    outer loop
      vertex 10.8541 9.52671 0
      vertex 11.4813 8.44042 6.5
      vertex 11.4813 8.44042 0
    endloop
  endfacet
  facet normal 0.95106 -0.309008 0
    outer loop
      vertex 11.4813 3.55958 6.5
      vertex 11.8689 4.75253 0
      vertex 11.8689 4.75253 6.5
    endloop
  endfacet
  facet normal 0.95106 -0.309008 0
    outer loop
      vertex 11.8689 4.75253 0
      vertex 11.4813 3.55958 6.5
      vertex 11.4813 3.55958 0
    endloop
  endfacet
  facet normal -0.587795 0.80901 -6.93552e-06
    outer loop
      vertex 3 11.1962 6.5
      vertex 2 10.4696 2
      vertex 1.98522 10.4589 6.5
    endloop
  endfacet
  facet normal -0.587816 0.808995 0
    outer loop
      vertex 3 11.1962 0
      vertex 2 10.4696 2
      vertex 3 11.1962 6.5
    endloop
  endfacet
  facet normal -0.587816 0.808995 0
    outer loop
      vertex 2 10.4696 2
      vertex 3 11.1962 0
      vertex 2 10.4696 0
    endloop
  endfacet
  facet normal -0.586411 0.810014 0
    outer loop
      vertex 1.98522 10.4589 6.5
      vertex 2 10.4696 2
      vertex 1.98522 10.4589 2
    endloop
  endfacet
  facet normal 0.587778 -0.809022 0
    outer loop
      vertex 9 0.803848 2
      vertex 10.0148 1.54113 6.5
      vertex 9 0.803848 6.5
    endloop
  endfacet
  facet normal 0.587778 -0.809022 0
    outer loop
      vertex 10.0148 1.54113 6.5
      vertex 9 0.803848 2
      vertex 10.0148 1.54113 2
    endloop
  endfacet
  facet normal 0.743159 -0.669115 0
    outer loop
      vertex 10.8541 2.47329 6.5
      vertex 10.4329 2.00548 2
      vertex 10.8541 2.47329 0
    endloop
  endfacet
  facet normal 0.743153 -0.669122 1.26513e-06
    outer loop
      vertex 10.0148 1.54113 6.5
      vertex 10.4329 2.00548 2
      vertex 10.8541 2.47329 6.5
    endloop
  endfacet
  facet normal 0.743147 -0.669128 0
    outer loop
      vertex 10.4329 2.00548 2
      vertex 10.0148 1.54113 6.5
      vertex 10.0148 1.54113 2
    endloop
  endfacet
  facet normal 0.743159 -0.669115 0
    outer loop
      vertex 10.8541 2.47329 0
      vertex 10.4329 2.00548 2
      vertex 10.4329 2.00548 0
    endloop
  endfacet
  facet normal 0.994523 -0.104517 0
    outer loop
      vertex 11.8689 4.75253 6.5
      vertex 12 6 0
      vertex 12 6 6.5
    endloop
  endfacet
  facet normal 0.994523 -0.104517 0
    outer loop
      vertex 12 6 0
      vertex 11.8689 4.75253 6.5
      vertex 11.8689 4.75253 0
    endloop
  endfacet
  facet normal -0.406736 -0.913546 0
    outer loop
      vertex 3 0.803848 2
      vertex 4.1459 0.293661 6.5
      vertex 3 0.803848 6.5
    endloop
  endfacet
  facet normal -0.406736 -0.913546 -0
    outer loop
      vertex 4.1459 0.293661 6.5
      vertex 3 0.803848 2
      vertex 4.1459 0.293661 2
    endloop
  endfacet
  facet normal 0.406678 0.913571 -0
    outer loop
      vertex 9 11.1962 0
      vertex 7.8541 11.7063 6.5
      vertex 9 11.1962 6.5
    endloop
  endfacet
  facet normal 0.406678 0.913571 0
    outer loop
      vertex 7.8541 11.7063 6.5
      vertex 9 11.1962 0
      vertex 7.8541 11.7063 0
    endloop
  endfacet
  facet normal 0.743164 0.66911 0
    outer loop
      vertex 10.8541 9.52671 6.5
      vertex 10.0148 10.4589 0
      vertex 10.0148 10.4589 6.5
    endloop
  endfacet
  facet normal 0.743164 0.66911 0
    outer loop
      vertex 10.0148 10.4589 0
      vertex 10.8541 9.52671 6.5
      vertex 10.8541 9.52671 0
    endloop
  endfacet
  facet normal -0.587786 -0.809017 0
    outer loop
      vertex 1.98522 1.54113 2
      vertex 3 0.803848 6.5
      vertex 1.98522 1.54113 6.5
    endloop
  endfacet
  facet normal -0.587786 -0.809017 -0
    outer loop
      vertex 3 0.803848 6.5
      vertex 1.98522 1.54113 2
      vertex 3 0.803848 2
    endloop
  endfacet
  facet normal -0.743156 0.669118 0
    outer loop
      vertex 1.1459 9.52671 2
      vertex 1.98522 10.4589 6.5
      vertex 1.98522 10.4589 2
    endloop
  endfacet
  facet normal -0.743156 0.669118 0
    outer loop
      vertex 1.98522 10.4589 6.5
      vertex 1.1459 9.52671 2
      vertex 1.1459 9.52671 6.5
    endloop
  endfacet
  facet normal 0 1 -0
    outer loop
      vertex 6.62717 11.9671 0
      vertex 5.37283 11.9671 6.5
      vertex 6.62717 11.9671 6.5
    endloop
  endfacet
  facet normal 0 1 0
    outer loop
      vertex 5.37283 11.9671 6.5
      vertex 6.62717 11.9671 0
      vertex 5.37283 11.9671 0
    endloop
  endfacet
  facet normal 0.406736 -0.913546 0
    outer loop
      vertex 7.8541 0.293661 2
      vertex 9 0.803848 6.5
      vertex 7.8541 0.293661 6.5
    endloop
  endfacet
  facet normal 0.406736 -0.913546 0
    outer loop
      vertex 9 0.803848 6.5
      vertex 7.8541 0.293661 2
      vertex 9 0.803848 2
    endloop
  endfacet
  facet normal 0.207911 -0.978148 0
    outer loop
      vertex 6.62717 0.0328693 2
      vertex 7.8541 0.293661 6.5
      vertex 6.62717 0.0328693 6.5
    endloop
  endfacet
  facet normal 0.207911 -0.978148 0
    outer loop
      vertex 7.8541 0.293661 6.5
      vertex 6.62717 0.0328693 2
      vertex 7.8541 0.293661 2
    endloop
  endfacet
  facet normal -0.951057 0.309016 0
    outer loop
      vertex 0.131115 7.24747 2
      vertex 0.518727 8.44042 6.5
      vertex 0.518727 8.44042 2
    endloop
  endfacet
  facet normal -0.951057 0.309016 0
    outer loop
      vertex 0.518727 8.44042 6.5
      vertex 0.131115 7.24747 2
      vertex 0.131115 7.24747 6.5
    endloop
  endfacet
  facet normal -0.951057 -0.309016 0
    outer loop
      vertex 0.518727 3.55958 2
      vertex 0.131115 4.75253 6.5
      vertex 0.131115 4.75253 2
    endloop
  endfacet
  facet normal -0.951057 -0.309016 0
    outer loop
      vertex 0.131115 4.75253 6.5
      vertex 0.518727 3.55958 2
      vertex 0.518727 3.55958 6.5
    endloop
  endfacet
  facet normal -0.406678 0.913571 0
    outer loop
      vertex 4.1459 11.7063 0
      vertex 3 11.1962 6.5
      vertex 4.1459 11.7063 6.5
    endloop
  endfacet
  facet normal -0.406678 0.913571 0
    outer loop
      vertex 3 11.1962 6.5
      vertex 4.1459 11.7063 0
      vertex 3 11.1962 0
    endloop
  endfacet
  facet normal 0 0 1
    outer loop
      vertex 8 6 6.5
      vertex 12 6 6.5
      vertex 11.8689 7.24747 6.5
    endloop
  endfacet
  facet normal 0 0 1
    outer loop
      vertex 7.9563 6.41582 6.5
      vertex 11.8689 7.24747 6.5
      vertex 11.4813 8.44042 6.5
    endloop
  endfacet
  facet normal 0 0 1
    outer loop
      vertex 12 6 6.5
      vertex 8 6 6.5
      vertex 11.8689 4.75253 6.5
    endloop
  endfacet
  facet normal 0 0 1
    outer loop
      vertex 7.82709 6.81347 6.5
      vertex 11.4813 8.44042 6.5
      vertex 10.8541 9.52671 6.5
    endloop
  endfacet
  facet normal -0 0 1
    outer loop
      vertex 7.9563 5.58418 6.5
      vertex 11.8689 4.75253 6.5
      vertex 8 6 6.5
    endloop
  endfacet
  facet normal 0 0 1
    outer loop
      vertex 7.61803 7.17557 6.5
      vertex 10.8541 9.52671 6.5
      vertex 10.0148 10.4589 6.5
    endloop
  endfacet
  facet normal 0 0 1
    outer loop
      vertex 11.8689 4.75253 6.5
      vertex 7.9563 5.58418 6.5
      vertex 11.4813 3.55958 6.5
    endloop
  endfacet
  facet normal 0 0 1
    outer loop
      vertex 7.33826 7.48629 6.5
      vertex 10.0148 10.4589 6.5
      vertex 9 11.1962 6.5
    endloop
  endfacet
  facet normal -0 0 1
    outer loop
      vertex 7.82709 5.18653 6.5
      vertex 11.4813 3.55958 6.5
      vertex 7.9563 5.58418 6.5
    endloop
  endfacet
  facet normal 0 0 1
    outer loop
      vertex 11.4813 3.55958 6.5
      vertex 7.82709 5.18653 6.5
      vertex 10.8541 2.47329 6.5
    endloop
  endfacet
  facet normal 0 0 1
    outer loop
      vertex 11.8689 7.24747 6.5
      vertex 7.9563 6.41582 6.5
      vertex 8 6 6.5
    endloop
  endfacet
  facet normal 0 0 1
    outer loop
      vertex 7 7.73205 6.5
      vertex 9 11.1962 6.5
      vertex 7.8541 11.7063 6.5
    endloop
  endfacet
  facet normal 0 0 1
    outer loop
      vertex 11.4813 8.44042 6.5
      vertex 7.82709 6.81347 6.5
      vertex 7.9563 6.41582 6.5
    endloop
  endfacet
  facet normal 0 0 1
    outer loop
      vertex 10.8541 9.52671 6.5
      vertex 7.61803 7.17557 6.5
      vertex 7.82709 6.81347 6.5
    endloop
  endfacet
  facet normal 0 0 1
    outer loop
      vertex 10.0148 10.4589 6.5
      vertex 7.33826 7.48629 6.5
      vertex 7.61803 7.17557 6.5
    endloop
  endfacet
  facet normal 0 0 1
    outer loop
      vertex 9 11.1962 6.5
      vertex 7 7.73205 6.5
      vertex 7.33826 7.48629 6.5
    endloop
  endfacet
  facet normal 0 0 1
    outer loop
      vertex 6.61803 7.90211 6.5
      vertex 7.8541 11.7063 6.5
      vertex 6.62717 11.9671 6.5
    endloop
  endfacet
  facet normal 0 0 1
    outer loop
      vertex 7.8541 11.7063 6.5
      vertex 6.61803 7.90211 6.5
      vertex 7 7.73205 6.5
    endloop
  endfacet
  facet normal 0 0 1
    outer loop
      vertex 6.62717 11.9671 6.5
      vertex 6.20906 7.98904 6.5
      vertex 6.61803 7.90211 6.5
    endloop
  endfacet
  facet normal 0 0 1
    outer loop
      vertex 6.62717 11.9671 6.5
      vertex 5.79094 7.98904 6.5
      vertex 6.20906 7.98904 6.5
    endloop
  endfacet
  facet normal -0 0 1
    outer loop
      vertex 5.37283 11.9671 6.5
      vertex 5.79094 7.98904 6.5
      vertex 6.62717 11.9671 6.5
    endloop
  endfacet
  facet normal 0 0 1
    outer loop
      vertex 5.79094 7.98904 6.5
      vertex 5.37283 11.9671 6.5
      vertex 5.38197 7.90211 6.5
    endloop
  endfacet
  facet normal -0 0 1
    outer loop
      vertex 4.1459 11.7063 6.5
      vertex 5.38197 7.90211 6.5
      vertex 5.37283 11.9671 6.5
    endloop
  endfacet
  facet normal 0 0 1
    outer loop
      vertex 5.38197 7.90211 6.5
      vertex 4.1459 11.7063 6.5
      vertex 5 7.73205 6.5
    endloop
  endfacet
  facet normal -0 0 1
    outer loop
      vertex 3 11.1962 6.5
      vertex 5 7.73205 6.5
      vertex 4.1459 11.7063 6.5
    endloop
  endfacet
  facet normal 0 0 1
    outer loop
      vertex 5 7.73205 6.5
      vertex 3 11.1962 6.5
      vertex 4.66174 7.48629 6.5
    endloop
  endfacet
  facet normal -0 0 1
    outer loop
      vertex 1.98522 10.4589 6.5
      vertex 4.66174 7.48629 6.5
      vertex 3 11.1962 6.5
    endloop
  endfacet
  facet normal 0 0 1
    outer loop
      vertex 4.66174 7.48629 6.5
      vertex 1.98522 10.4589 6.5
      vertex 4.38197 7.17557 6.5
    endloop
  endfacet
  facet normal -0 0 1
    outer loop
      vertex 1.1459 9.52671 6.5
      vertex 4.38197 7.17557 6.5
      vertex 1.98522 10.4589 6.5
    endloop
  endfacet
  facet normal 0 0 1
    outer loop
      vertex 4.38197 7.17557 6.5
      vertex 1.1459 9.52671 6.5
      vertex 4.17291 6.81347 6.5
    endloop
  endfacet
  facet normal -0 0 1
    outer loop
      vertex 7.61803 4.82443 6.5
      vertex 10.8541 2.47329 6.5
      vertex 7.82709 5.18653 6.5
    endloop
  endfacet
  facet normal 0 0 1
    outer loop
      vertex 10.8541 2.47329 6.5
      vertex 7.61803 4.82443 6.5
      vertex 10.0148 1.54113 6.5
    endloop
  endfacet
  facet normal -0 0 1
    outer loop
      vertex 7.33826 4.51371 6.5
      vertex 10.0148 1.54113 6.5
      vertex 7.61803 4.82443 6.5
    endloop
  endfacet
  facet normal 0 0 1
    outer loop
      vertex 10.0148 1.54113 6.5
      vertex 7.33826 4.51371 6.5
      vertex 9 0.803848 6.5
    endloop
  endfacet
  facet normal -0 0 1
    outer loop
      vertex 7 4.26795 6.5
      vertex 9 0.803848 6.5
      vertex 7.33826 4.51371 6.5
    endloop
  endfacet
  facet normal 0 0 1
    outer loop
      vertex 9 0.803848 6.5
      vertex 7 4.26795 6.5
      vertex 7.8541 0.293661 6.5
    endloop
  endfacet
  facet normal -0 0 1
    outer loop
      vertex 6.61803 4.09789 6.5
      vertex 7.8541 0.293661 6.5
      vertex 7 4.26795 6.5
    endloop
  endfacet
  facet normal 0 0 1
    outer loop
      vertex 7.8541 0.293661 6.5
      vertex 6.61803 4.09789 6.5
      vertex 6.62717 0.0328693 6.5
    endloop
  endfacet
  facet normal -0 0 1
    outer loop
      vertex 6.20906 4.01096 6.5
      vertex 6.62717 0.0328693 6.5
      vertex 6.61803 4.09789 6.5
    endloop
  endfacet
  facet normal -0 0 1
    outer loop
      vertex 5.79094 4.01096 6.5
      vertex 6.62717 0.0328693 6.5
      vertex 6.20906 4.01096 6.5
    endloop
  endfacet
  facet normal 0 0 1
    outer loop
      vertex 5.37283 0.0328693 6.5
      vertex 5.79094 4.01096 6.5
      vertex 5.38197 4.09789 6.5
    endloop
  endfacet
  facet normal 0 0 1
    outer loop
      vertex 5.79094 4.01096 6.5
      vertex 5.37283 0.0328693 6.5
      vertex 6.62717 0.0328693 6.5
    endloop
  endfacet
  facet normal 0 0 1
    outer loop
      vertex 4.1459 0.293661 6.5
      vertex 5.38197 4.09789 6.5
      vertex 5 4.26795 6.5
    endloop
  endfacet
  facet normal 0 0 1
    outer loop
      vertex 3 0.803848 6.5
      vertex 5 4.26795 6.5
      vertex 4.66174 4.51371 6.5
    endloop
  endfacet
  facet normal 0 0 1
    outer loop
      vertex 1.98522 1.54113 6.5
      vertex 4.66174 4.51371 6.5
      vertex 4.38197 4.82443 6.5
    endloop
  endfacet
  facet normal 0 0 1
    outer loop
      vertex 1.1459 2.47329 6.5
      vertex 4.38197 4.82443 6.5
      vertex 4.17291 5.18653 6.5
    endloop
  endfacet
  facet normal 0 0 1
    outer loop
      vertex 5.38197 4.09789 6.5
      vertex 4.1459 0.293661 6.5
      vertex 5.37283 0.0328693 6.5
    endloop
  endfacet
  facet normal 0 0 1
    outer loop
      vertex 0.518727 3.55958 6.5
      vertex 4.17291 5.18653 6.5
      vertex 4.0437 5.58418 6.5
    endloop
  endfacet
  facet normal 0 0 1
    outer loop
      vertex 0.131115 4.75253 6.5
      vertex 4.0437 5.58418 6.5
      vertex 4 6 6.5
    endloop
  endfacet
  facet normal -0 0 1
    outer loop
      vertex 0.518727 8.44042 6.5
      vertex 4.17291 6.81347 6.5
      vertex 1.1459 9.52671 6.5
    endloop
  endfacet
  facet normal 0 0 1
    outer loop
      vertex 5 4.26795 6.5
      vertex 3 0.803848 6.5
      vertex 4.1459 0.293661 6.5
    endloop
  endfacet
  facet normal 0 0 1
    outer loop
      vertex 4.17291 6.81347 6.5
      vertex 0.518727 8.44042 6.5
      vertex 4.0437 6.41582 6.5
    endloop
  endfacet
  facet normal 0 0 1
    outer loop
      vertex 4.66174 4.51371 6.5
      vertex 1.98522 1.54113 6.5
      vertex 3 0.803848 6.5
    endloop
  endfacet
  facet normal -0 0 1
    outer loop
      vertex 0.131115 7.24747 6.5
      vertex 4.0437 6.41582 6.5
      vertex 0.518727 8.44042 6.5
    endloop
  endfacet
  facet normal 0 0 1
    outer loop
      vertex 4.38197 4.82443 6.5
      vertex 1.1459 2.47329 6.5
      vertex 1.98522 1.54113 6.5
    endloop
  endfacet
  facet normal 0 0 1
    outer loop
      vertex 4.0437 6.41582 6.5
      vertex 0.131115 7.24747 6.5
      vertex 4 6 6.5
    endloop
  endfacet
  facet normal 0 0 1
    outer loop
      vertex 4.17291 5.18653 6.5
      vertex 0.518727 3.55958 6.5
      vertex 1.1459 2.47329 6.5
    endloop
  endfacet
  facet normal 0 0 1
    outer loop
      vertex 0 6 6.5
      vertex 4 6 6.5
      vertex 0.131115 7.24747 6.5
    endloop
  endfacet
  facet normal 0 0 1
    outer loop
      vertex 4.0437 5.58418 6.5
      vertex 0.131115 4.75253 6.5
      vertex 0.518727 3.55958 6.5
    endloop
  endfacet
  facet normal 0 0 1
    outer loop
      vertex 4 6 6.5
      vertex 0 6 6.5
      vertex 0.131115 4.75253 6.5
    endloop
  endfacet
  facet normal -0.207911 -0.978148 0
    outer loop
      vertex 4.1459 0.293661 2
      vertex 5.37283 0.0328693 6.5
      vertex 4.1459 0.293661 6.5
    endloop
  endfacet
  facet normal -0.207911 -0.978148 -0
    outer loop
      vertex 5.37283 0.0328693 6.5
      vertex 4.1459 0.293661 2
      vertex 5.37283 0.0328693 2
    endloop
  endfacet
  facet normal 0.207918 0.978146 -0
    outer loop
      vertex 7.8541 11.7063 0
      vertex 6.62717 11.9671 6.5
      vertex 7.8541 11.7063 6.5
    endloop
  endfacet
  facet normal 0.207918 0.978146 0
    outer loop
      vertex 6.62717 11.9671 6.5
      vertex 7.8541 11.7063 0
      vertex 6.62717 11.9671 0
    endloop
  endfacet
  facet normal -0.994522 -0.104529 0
    outer loop
      vertex 0.131115 4.75253 2
      vertex 0 6 6.5
      vertex 0 6 2
    endloop
  endfacet
  facet normal -0.994522 -0.104529 0
    outer loop
      vertex 0 6 6.5
      vertex 0.131115 4.75253 2
      vertex 0.131115 4.75253 6.5
    endloop
  endfacet
  facet normal -0.866024 -0.500002 0
    outer loop
      vertex 1.1459 2.47329 2
      vertex 0.518727 3.55958 6.5
      vertex 0.518727 3.55958 2
    endloop
  endfacet
  facet normal -0.866024 -0.500002 0
    outer loop
      vertex 0.518727 3.55958 6.5
      vertex 1.1459 2.47329 2
      vertex 1.1459 2.47329 6.5
    endloop
  endfacet
  facet normal -0.866024 0.500002 0
    outer loop
      vertex 0.518727 8.44042 2
      vertex 1.1459 9.52671 6.5
      vertex 1.1459 9.52671 2
    endloop
  endfacet
  facet normal -0.866024 0.500002 0
    outer loop
      vertex 1.1459 9.52671 6.5
      vertex 0.518727 8.44042 2
      vertex 0.518727 8.44042 6.5
    endloop
  endfacet
  facet normal 0.866015 -0.500018 0
    outer loop
      vertex 10.8541 2.47329 6.5
      vertex 11.4813 3.55958 0
      vertex 11.4813 3.55958 6.5
    endloop
  endfacet
  facet normal 0.866015 -0.500018 0
    outer loop
      vertex 11.4813 3.55958 0
      vertex 10.8541 2.47329 6.5
      vertex 10.8541 2.47329 0
    endloop
  endfacet
  facet normal 0.587788 0.809015 -0
    outer loop
      vertex 10.0148 10.4589 0
      vertex 9 11.1962 6.5
      vertex 10.0148 10.4589 6.5
    endloop
  endfacet
  facet normal 0.587788 0.809015 0
    outer loop
      vertex 9 11.1962 6.5
      vertex 10.0148 10.4589 0
      vertex 9 11.1962 0
    endloop
  endfacet
  facet normal -0.207918 0.978146 0
    outer loop
      vertex 5.37283 11.9671 0
      vertex 4.1459 11.7063 6.5
      vertex 5.37283 11.9671 6.5
    endloop
  endfacet
  facet normal -0.207918 0.978146 0
    outer loop
      vertex 4.1459 11.7063 6.5
      vertex 5.37283 11.9671 0
      vertex 4.1459 11.7063 0
    endloop
  endfacet
  facet normal 0 -1 0
    outer loop
      vertex 5.37283 0.0328693 2
      vertex 6.62717 0.0328693 6.5
      vertex 5.37283 0.0328693 6.5
    endloop
  endfacet
  facet normal 0 -1 -0
    outer loop
      vertex 6.62717 0.0328693 6.5
      vertex 5.37283 0.0328693 2
      vertex 6.62717 0.0328693 2
    endloop
  endfacet
  facet normal -0.994522 0.104529 0
    outer loop
      vertex 0 6 2
      vertex 0.131115 7.24747 6.5
      vertex 0.131115 7.24747 2
    endloop
  endfacet
  facet normal -0.994522 0.104529 0
    outer loop
      vertex 0.131115 7.24747 6.5
      vertex 0 6 2
      vertex 0 6 6.5
    endloop
  endfacet
endsolid OpenSCAD_Model
