solid OpenSCAD_Model
  facet normal 0.86602 -0.50001 0
    outer loop
      vertex 18.4267 -6.304 12.5
      vertex 19.5478 -4.36225 2.5
      vertex 19.5478 -4.36225 12.5
    endloop
  endfacet
  facet normal 0.86602 -0.50001 0
    outer loop
      vertex 19.5478 -4.36225 2.5
      vertex 18.4267 -6.304 12.5
      vertex 18.4267 -6.304 2.5
    endloop
  endfacet
  facet normal -0.86602 -0.50001 0
    outer loop
      vertex -18.4267 -6.304 2.5
      vertex -19.5478 -4.36225 12.5
      vertex -19.5478 -4.36225 2.5
    endloop
  endfacet
  facet normal -0.86602 -0.50001 0
    outer loop
      vertex -19.5478 -4.36225 12.5
      vertex -18.4267 -6.304 2.5
      vertex -18.4267 -6.304 12.5
    endloop
  endfacet
  facet normal 0.406743 0.913542 -0
    outer loop
      vertex 15.1125 9.28812 0
      vertex 13.0642 10.2001 12.5
      vertex 15.1125 9.28812 12.5
    endloop
  endfacet
  facet normal 0.406743 0.913542 0
    outer loop
      vertex 13.0642 10.2001 12.5
      vertex 15.1125 9.28812 0
      vertex 13.0642 10.2001 0
    endloop
  endfacet
  facet normal 0.86602 0.50001 -0
    outer loop
      vertex 19.5478 4.36225 2.5
      vertex 18.4267 6.304 12.5
      vertex 19.5478 4.36225 12.5
    endloop
  endfacet
  facet normal 0.86602 0.50001 0
    outer loop
      vertex 18.4267 6.304 12.5
      vertex 19.5478 4.36225 2.5
      vertex 18.4267 6.304 0
    endloop
  endfacet
  facet normal 0.86602 0.50001 0
    outer loop
      vertex 18.4267 6.304 0
      vertex 19.5478 4.36225 2.5
      vertex 19.5478 4.36225 0
    endloop
  endfacet
  facet normal -0.207887 0.978153 0
    outer loop
      vertex -10.8711 10.6662 0
      vertex -13.0642 10.2001 12.5
      vertex -10.8711 10.6662 12.5
    endloop
  endfacet
  facet normal -0.207887 0.978153 0
    outer loop
      vertex -13.0642 10.2001 12.5
      vertex -10.8711 10.6662 0
      vertex -13.0642 10.2001 0
    endloop
  endfacet
  facet normal -0.587789 0.809014 0
    outer loop
      vertex -15.1125 9.28812 0
      vertex -16.9264 7.97023 12.5
      vertex -15.1125 9.28812 12.5
    endloop
  endfacet
  facet normal -0.587789 0.809014 0
    outer loop
      vertex -16.9264 7.97023 12.5
      vertex -15.1125 9.28812 0
      vertex -16.9264 7.97023 0
    endloop
  endfacet
  facet normal 0.74314 -0.669135 0
    outer loop
      vertex 16.9264 -7.97023 12.5
      vertex 18.4267 -6.304 2.5
      vertex 18.4267 -6.304 12.5
    endloop
  endfacet
  facet normal 0.74314 -0.669135 0
    outer loop
      vertex 18.4267 -6.304 2.5
      vertex 16.9264 -7.97023 12.5
      vertex 16.9264 -7.97023 2.5
    endloop
  endfacet
  facet normal 0.587789 -0.809014 0
    outer loop
      vertex 15.1125 -9.28812 2.5
      vertex 16.9264 -7.97023 12.5
      vertex 15.1125 -9.28812 12.5
    endloop
  endfacet
  facet normal 0.587789 -0.809014 0
    outer loop
      vertex 16.9264 -7.97023 12.5
      vertex 15.1125 -9.28812 2.5
      vertex 16.9264 -7.97023 2.5
    endloop
  endfacet
  facet normal -0.74314 0.669135 0
    outer loop
      vertex -18.4267 6.304 0
      vertex -16.9264 7.97023 12.5
      vertex -16.9264 7.97023 0
    endloop
  endfacet
  facet normal -0.74314 0.669135 0
    outer loop
      vertex -16.9264 7.97023 12.5
      vertex -18.4267 6.304 0
      vertex -18.4267 6.304 12.5
    endloop
  endfacet
  facet normal -0.406743 0.913542 0
    outer loop
      vertex -13.0642 10.2001 0
      vertex -15.1125 9.28812 12.5
      vertex -13.0642 10.2001 12.5
    endloop
  endfacet
  facet normal -0.406743 0.913542 0
    outer loop
      vertex -15.1125 9.28812 12.5
      vertex -13.0642 10.2001 0
      vertex -15.1125 9.28812 0
    endloop
  endfacet
  facet normal -0.951064 0.308993 0
    outer loop
      vertex -20.2406 2.22985 2.5
      vertex -19.5478 4.36225 12.5
      vertex -19.5478 4.36225 2.5
    endloop
  endfacet
  facet normal -0.951064 0.308993 0
    outer loop
      vertex -19.5478 4.36225 12.5
      vertex -20.2406 2.22985 2.5
      vertex -20.2406 2.22985 12.5
    endloop
  endfacet
  facet normal -0.99452 -0.104543 0
    outer loop
      vertex -20.2406 -2.22985 2.5
      vertex -20.475 0 12.5
      vertex -20.475 0 2.5
    endloop
  endfacet
  facet normal -0.99452 -0.104543 0
    outer loop
      vertex -20.475 0 12.5
      vertex -20.2406 -2.22985 2.5
      vertex -20.2406 -2.22985 12.5
    endloop
  endfacet
  facet normal 0.406743 -0.913542 0
    outer loop
      vertex 13.0642 -10.2001 2.5
      vertex 15.1125 -9.28812 12.5
      vertex 13.0642 -10.2001 12.5
    endloop
  endfacet
  facet normal 0.406743 -0.913542 0
    outer loop
      vertex 15.1125 -9.28812 12.5
      vertex 13.0642 -10.2001 2.5
      vertex 15.1125 -9.28812 2.5
    endloop
  endfacet
  facet normal -0.99452 0.104543 0
    outer loop
      vertex -20.475 0 2.5
      vertex -20.2406 2.22985 12.5
      vertex -20.2406 2.22985 2.5
    endloop
  endfacet
  facet normal -0.99452 0.104543 0
    outer loop
      vertex -20.2406 2.22985 12.5
      vertex -20.475 0 2.5
      vertex -20.475 0 12.5
    endloop
  endfacet
  facet normal 0.951064 0.308993 0
    outer loop
      vertex 20.2406 2.22985 12.5
      vertex 19.5478 4.36225 2.5
      vertex 19.5478 4.36225 12.5
    endloop
  endfacet
  facet normal 0.951064 0.308993 0
    outer loop
      vertex 19.5478 4.36225 2.5
      vertex 20.2406 2.22985 12.5
      vertex 20.2406 2.22985 2.5
    endloop
  endfacet
  facet normal -0.86602 0.50001 0
    outer loop
      vertex -19.5478 4.36225 2.5
      vertex -18.4267 6.304 0
      vertex -19.5478 4.36225 0
    endloop
  endfacet
  facet normal -0.86602 0.50001 0
    outer loop
      vertex -18.4267 6.304 0
      vertex -19.5478 4.36225 2.5
      vertex -18.4267 6.304 12.5
    endloop
  endfacet
  facet normal -0.86602 0.50001 0
    outer loop
      vertex -18.4267 6.304 12.5
      vertex -19.5478 4.36225 2.5
      vertex -19.5478 4.36225 12.5
    endloop
  endfacet
  facet normal 0 1 -0
    outer loop
      vertex 10.8711 10.6662 0
      vertex -10.8711 10.6662 12.5
      vertex 10.8711 10.6662 12.5
    endloop
  endfacet
  facet normal 0 1 0
    outer loop
      vertex -10.8711 10.6662 12.5
      vertex 10.8711 10.6662 0
      vertex -10.8711 10.6662 0
    endloop
  endfacet
  facet normal 0.99452 0.104543 0
    outer loop
      vertex 20.475 0 12.5
      vertex 20.2406 2.22985 2.5
      vertex 20.2406 2.22985 12.5
    endloop
  endfacet
  facet normal 0.99452 0.104543 0
    outer loop
      vertex 20.2406 2.22985 2.5
      vertex 20.475 0 12.5
      vertex 20.475 0 2.5
    endloop
  endfacet
  facet normal 0 -1 0
    outer loop
      vertex -10.8711 -10.6662 2.5
      vertex 10.8711 -10.6662 12.5
      vertex -10.8711 -10.6662 12.5
    endloop
  endfacet
  facet normal 0 -1 -0
    outer loop
      vertex 10.8711 -10.6662 12.5
      vertex -10.8711 -10.6662 2.5
      vertex 10.8711 -10.6662 2.5
    endloop
  endfacet
  facet normal 0.207887 -0.978153 0
    outer loop
      vertex 10.8711 -10.6662 2.5
      vertex 13.0642 -10.2001 12.5
      vertex 10.8711 -10.6662 12.5
    endloop
  endfacet
  facet normal 0.207887 -0.978153 0
    outer loop
      vertex 13.0642 -10.2001 12.5
      vertex 10.8711 -10.6662 2.5
      vertex 13.0642 -10.2001 2.5
    endloop
  endfacet
  facet normal -0.587789 -0.809014 0
    outer loop
      vertex -16.9264 -7.97023 2.5
      vertex -15.1125 -9.28812 12.5
      vertex -16.9264 -7.97023 12.5
    endloop
  endfacet
  facet normal -0.587789 -0.809014 -0
    outer loop
      vertex -15.1125 -9.28812 12.5
      vertex -16.9264 -7.97023 2.5
      vertex -15.1125 -9.28812 2.5
    endloop
  endfacet
  facet normal 0.951064 -0.308993 0
    outer loop
      vertex 19.5478 -4.36225 12.5
      vertex 20.2406 -2.22985 2.5
      vertex 20.2406 -2.22985 12.5
    endloop
  endfacet
  facet normal 0.951064 -0.308993 0
    outer loop
      vertex 20.2406 -2.22985 2.5
      vertex 19.5478 -4.36225 12.5
      vertex 19.5478 -4.36225 2.5
    endloop
  endfacet
  facet normal -0.951064 -0.308993 0
    outer loop
      vertex -19.5478 -4.36225 2.5
      vertex -20.2406 -2.22985 12.5
      vertex -20.2406 -2.22985 2.5
    endloop
  endfacet
  facet normal -0.951064 -0.308993 0
    outer loop
      vertex -20.2406 -2.22985 12.5
      vertex -19.5478 -4.36225 2.5
      vertex -19.5478 -4.36225 12.5
    endloop
  endfacet
  facet normal 0.587789 0.809014 -0
    outer loop
      vertex 16.9264 7.97023 0
      vertex 15.1125 9.28812 12.5
      vertex 16.9264 7.97023 12.5
    endloop
  endfacet
  facet normal 0.587789 0.809014 0
    outer loop
      vertex 15.1125 9.28812 12.5
      vertex 16.9264 7.97023 0
      vertex 15.1125 9.28812 0
    endloop
  endfacet
  facet normal -0.74314 -0.669135 0
    outer loop
      vertex -16.9264 -7.97023 2.5
      vertex -18.4267 -6.304 12.5
      vertex -18.4267 -6.304 2.5
    endloop
  endfacet
  facet normal -0.74314 -0.669135 0
    outer loop
      vertex -18.4267 -6.304 12.5
      vertex -16.9264 -7.97023 2.5
      vertex -16.9264 -7.97023 12.5
    endloop
  endfacet
  facet normal 0.74314 0.669135 0
    outer loop
      vertex 18.4267 6.304 12.5
      vertex 16.9264 7.97023 0
      vertex 16.9264 7.97023 12.5
    endloop
  endfacet
  facet normal 0.74314 0.669135 0
    outer loop
      vertex 16.9264 7.97023 0
      vertex 18.4267 6.304 12.5
      vertex 18.4267 6.304 0
    endloop
  endfacet
  facet normal -0.207887 -0.978153 0
    outer loop
      vertex -13.0642 -10.2001 2.5
      vertex -10.8711 -10.6662 12.5
      vertex -13.0642 -10.2001 12.5
    endloop
  endfacet
  facet normal -0.207887 -0.978153 -0
    outer loop
      vertex -10.8711 -10.6662 12.5
      vertex -13.0642 -10.2001 2.5
      vertex -10.8711 -10.6662 2.5
    endloop
  endfacet
  facet normal 0.99452 -0.104543 0
    outer loop
      vertex 20.2406 -2.22985 12.5
      vertex 20.475 0 2.5
      vertex 20.475 0 12.5
    endloop
  endfacet
  facet normal 0.99452 -0.104543 0
    outer loop
      vertex 20.475 0 2.5
      vertex 20.2406 -2.22985 12.5
      vertex 20.2406 -2.22985 2.5
    endloop
  endfacet
  facet normal 0 0 1
    outer loop
      vertex 33.5 -50 2.5
      vertex 43.5 -50 2.5
      vertex 43.2378 -47.5051 2.5
    endloop
  endfacet
  facet normal 0 0 1
    outer loop
      vertex 33.5 -50 2.5
      vertex 43.2378 -47.5051 2.5
      vertex 42.4625 -45.1192 2.5
    endloop
  endfacet
  facet normal 0 0 1
    outer loop
      vertex 43.5 -50 2.5
      vertex 33.5 -50 2.5
      vertex 43.2378 -52.4949 2.5
    endloop
  endfacet
  facet normal 0 0 1
    outer loop
      vertex 43.2378 -52.4949 2.5
      vertex 33.5 -50 2.5
      vertex 42.4625 -54.8808 2.5
    endloop
  endfacet
  facet normal -0 0 1
    outer loop
      vertex 32.747 -51.5637 2.5
      vertex 42.4625 -54.8808 2.5
      vertex 33.5 -50 2.5
    endloop
  endfacet
  facet normal 0 0 1
    outer loop
      vertex 42.4625 -54.8808 2.5
      vertex 32.747 -51.5637 2.5
      vertex 41.2082 -57.0534 2.5
    endloop
  endfacet
  facet normal 0 0 1
    outer loop
      vertex 41.2082 -57.0534 2.5
      vertex 32.747 -51.5637 2.5
      vertex 39.5296 -58.9177 2.5
    endloop
  endfacet
  facet normal 0 0 1
    outer loop
      vertex 39.5296 -58.9177 2.5
      vertex 32.747 -51.5637 2.5
      vertex 37.5 -60.3923 2.5
    endloop
  endfacet
  facet normal 0 0 1
    outer loop
      vertex 42.4625 -45.1192 2.5
      vertex 32.747 -48.4363 2.5
      vertex 33.5 -50 2.5
    endloop
  endfacet
  facet normal 0 0 1
    outer loop
      vertex 42.4625 -45.1192 2.5
      vertex 31.055 -48.0501 2.5
      vertex 32.747 -48.4363 2.5
    endloop
  endfacet
  facet normal -0 0 1
    outer loop
      vertex 18.4267 -6.304 2.5
      vertex 42.4625 -45.1192 2.5
      vertex 19.5478 -4.36225 2.5
    endloop
  endfacet
  facet normal -0 0 1
    outer loop
      vertex 19.5478 -4.36225 2.5
      vertex 42.4625 -45.1192 2.5
      vertex 20.2406 -2.22985 2.5
    endloop
  endfacet
  facet normal -0 0 1
    outer loop
      vertex 20.2406 -2.22985 2.5
      vertex 42.4625 -45.1192 2.5
      vertex 20.475 0 2.5
    endloop
  endfacet
  facet normal 0 0 1
    outer loop
      vertex 42.4625 -45.1192 2.5
      vertex 20.2406 2.22985 2.5
      vertex 20.475 0 2.5
    endloop
  endfacet
  facet normal -0 -0 1
    outer loop
      vertex 20.2406 2.22985 2.5
      vertex 42.4625 -45.1192 2.5
      vertex 19.5478 4.36225 2.5
    endloop
  endfacet
  facet normal 0 0 1
    outer loop
      vertex 37.5 -60.3923 2.5
      vertex 32.747 -51.5637 2.5
      vertex 35.2082 -61.4127 2.5
    endloop
  endfacet
  facet normal -0 0 1
    outer loop
      vertex 31.055 -51.9499 2.5
      vertex 35.2082 -61.4127 2.5
      vertex 32.747 -51.5637 2.5
    endloop
  endfacet
  facet normal 0 0 1
    outer loop
      vertex 35.2082 -61.4127 2.5
      vertex 31.055 -51.9499 2.5
      vertex 32.7543 -61.9343 2.5
    endloop
  endfacet
  facet normal 0 0 1
    outer loop
      vertex 29.6981 -50.8678 2.5
      vertex 32.7543 -61.9343 2.5
      vertex 31.055 -51.9499 2.5
    endloop
  endfacet
  facet normal -0 0 1
    outer loop
      vertex 16.9264 -7.97023 2.5
      vertex 42.4625 -45.1192 2.5
      vertex 18.4267 -6.304 2.5
    endloop
  endfacet
  facet normal 0 0 1
    outer loop
      vertex 42.4625 -45.1192 2.5
      vertex 16.9264 -7.97023 2.5
      vertex 31.055 -48.0501 2.5
    endloop
  endfacet
  facet normal -0 0 1
    outer loop
      vertex 15.1125 -9.28812 2.5
      vertex 31.055 -48.0501 2.5
      vertex 16.9264 -7.97023 2.5
    endloop
  endfacet
  facet normal -0 0 1
    outer loop
      vertex 13.0642 -10.2001 2.5
      vertex 31.055 -48.0501 2.5
      vertex 15.1125 -9.28812 2.5
    endloop
  endfacet
  facet normal 0 0 1
    outer loop
      vertex 31.055 -48.0501 2.5
      vertex 13.0642 -10.2001 2.5
      vertex 29.6981 -49.1322 2.5
    endloop
  endfacet
  facet normal -0 0 1
    outer loop
      vertex 10.8711 -10.6662 2.5
      vertex 29.6981 -49.1322 2.5
      vertex 13.0642 -10.2001 2.5
    endloop
  endfacet
  facet normal 0 0 1
    outer loop
      vertex -29.5 -50 2.5
      vertex 29.6981 -49.1322 2.5
      vertex 10.8711 -10.6662 2.5
    endloop
  endfacet
  facet normal 0 0 1
    outer loop
      vertex 29.6981 -49.1322 2.5
      vertex -29.5 -50 2.5
      vertex 29.6981 -50.8678 2.5
    endloop
  endfacet
  facet normal 0 0 1
    outer loop
      vertex -29.5 -50 2.5
      vertex 10.8711 -10.6662 2.5
      vertex -10.8711 -10.6662 2.5
    endloop
  endfacet
  facet normal 0 0 1
    outer loop
      vertex -30.253 -48.4363 2.5
      vertex -10.8711 -10.6662 2.5
      vertex -13.0642 -10.2001 2.5
    endloop
  endfacet
  facet normal 0 0 1
    outer loop
      vertex -30.253 -48.4363 2.5
      vertex -13.0642 -10.2001 2.5
      vertex -15.1125 -9.28812 2.5
    endloop
  endfacet
  facet normal 0 0 1
    outer loop
      vertex -30.253 -48.4363 2.5
      vertex -15.1125 -9.28812 2.5
      vertex -16.9264 -7.97023 2.5
    endloop
  endfacet
  facet normal 0 0 1
    outer loop
      vertex -42.4625 -45.1192 2.5
      vertex -20.2406 -2.22985 2.5
      vertex -20.475 0 2.5
    endloop
  endfacet
  facet normal 0 0 1
    outer loop
      vertex -30.253 -48.4363 2.5
      vertex -19.5478 -4.36225 2.5
      vertex -20.2406 -2.22985 2.5
    endloop
  endfacet
  facet normal 0 0 1
    outer loop
      vertex -30.253 -48.4363 2.5
      vertex -18.4267 -6.304 2.5
      vertex -19.5478 -4.36225 2.5
    endloop
  endfacet
  facet normal 0 0 1
    outer loop
      vertex -30.253 -48.4363 2.5
      vertex -16.9264 -7.97023 2.5
      vertex -18.4267 -6.304 2.5
    endloop
  endfacet
  facet normal 0 0 1
    outer loop
      vertex -32.7543 -61.9343 2.5
      vertex 29.6981 -50.8678 2.5
      vertex -29.5 -50 2.5
    endloop
  endfacet
  facet normal 0 0 1
    outer loop
      vertex -32.7543 -61.9343 2.5
      vertex -29.5 -50 2.5
      vertex -30.253 -51.5637 2.5
    endloop
  endfacet
  facet normal 0 0 1
    outer loop
      vertex -32.7543 -61.9343 2.5
      vertex -30.253 -51.5637 2.5
      vertex -31.945 -51.9499 2.5
    endloop
  endfacet
  facet normal 0 0 1
    outer loop
      vertex 29.6981 -50.8678 2.5
      vertex -32.7543 -61.9343 2.5
      vertex 32.7543 -61.9343 2.5
    endloop
  endfacet
  facet normal 0 0 1
    outer loop
      vertex -39.5296 -58.9177 2.5
      vertex -31.945 -51.9499 2.5
      vertex -33.3019 -50.8678 2.5
    endloop
  endfacet
  facet normal 0 0 1
    outer loop
      vertex -31.945 -51.9499 2.5
      vertex -35.2082 -61.4127 2.5
      vertex -32.7543 -61.9343 2.5
    endloop
  endfacet
  facet normal 0 0 1
    outer loop
      vertex -42.4625 -45.1192 2.5
      vertex -20.475 0 2.5
      vertex -20.2406 2.22985 2.5
    endloop
  endfacet
  facet normal 0 0 1
    outer loop
      vertex -10.8711 -10.6662 2.5
      vertex -30.253 -48.4363 2.5
      vertex -29.5 -50 2.5
    endloop
  endfacet
  facet normal 0 0 1
    outer loop
      vertex -20.2406 -2.22985 2.5
      vertex -31.945 -48.0501 2.5
      vertex -30.253 -48.4363 2.5
    endloop
  endfacet
  facet normal 0 0 1
    outer loop
      vertex -20.2406 -2.22985 2.5
      vertex -42.4625 -45.1192 2.5
      vertex -31.945 -48.0501 2.5
    endloop
  endfacet
  facet normal -0 0 1
    outer loop
      vertex -43.5 -50 2.5
      vertex -33.3019 -50.8678 2.5
      vertex -33.3019 -49.1322 2.5
    endloop
  endfacet
  facet normal 0 0 1
    outer loop
      vertex -31.945 -51.9499 2.5
      vertex -37.5 -60.3923 2.5
      vertex -35.2082 -61.4127 2.5
    endloop
  endfacet
  facet normal 0 0 1
    outer loop
      vertex -31.945 -48.0501 2.5
      vertex -42.4625 -45.1192 2.5
      vertex -33.3019 -49.1322 2.5
    endloop
  endfacet
  facet normal -0 0 1
    outer loop
      vertex -43.2378 -47.5051 2.5
      vertex -33.3019 -49.1322 2.5
      vertex -42.4625 -45.1192 2.5
    endloop
  endfacet
  facet normal 0 0 1
    outer loop
      vertex -31.945 -51.9499 2.5
      vertex -39.5296 -58.9177 2.5
      vertex -37.5 -60.3923 2.5
    endloop
  endfacet
  facet normal 0 0 1
    outer loop
      vertex -42.4625 -45.1192 2.5
      vertex -20.2406 2.22985 2.5
      vertex -19.5478 4.36225 2.5
    endloop
  endfacet
  facet normal 0 0 1
    outer loop
      vertex -33.3019 -50.8678 2.5
      vertex -41.2082 -57.0534 2.5
      vertex -39.5296 -58.9177 2.5
    endloop
  endfacet
  facet normal 0 0 1
    outer loop
      vertex -33.3019 -50.8678 2.5
      vertex -42.4625 -54.8808 2.5
      vertex -41.2082 -57.0534 2.5
    endloop
  endfacet
  facet normal 0 0 1
    outer loop
      vertex -43.5 -50 2.5
      vertex -33.3019 -49.1322 2.5
      vertex -43.2378 -47.5051 2.5
    endloop
  endfacet
  facet normal 0 0 1
    outer loop
      vertex -33.3019 -50.8678 2.5
      vertex -43.2378 -52.4949 2.5
      vertex -42.4625 -54.8808 2.5
    endloop
  endfacet
  facet normal 0 0 1
    outer loop
      vertex -33.3019 -50.8678 2.5
      vertex -43.5 -50 2.5
      vertex -43.2378 -52.4949 2.5
    endloop
  endfacet
  facet normal 0.207887 0.978153 -0
    outer loop
      vertex 13.0642 10.2001 0
      vertex 10.8711 10.6662 12.5
      vertex 13.0642 10.2001 12.5
    endloop
  endfacet
  facet normal 0.207887 0.978153 0
    outer loop
      vertex 10.8711 10.6662 12.5
      vertex 13.0642 10.2001 0
      vertex 10.8711 10.6662 0
    endloop
  endfacet
  facet normal 0 0 1
    outer loop
      vertex 18.5 0 12.5
      vertex 20.475 0 12.5
      vertex 20.2406 2.22985 12.5
    endloop
  endfacet
  facet normal 0 0 1
    outer loop
      vertex 18.2869 2.02714 12.5
      vertex 20.2406 2.22985 12.5
      vertex 19.5478 4.36225 12.5
    endloop
  endfacet
  facet normal 0 0 1
    outer loop
      vertex 20.475 0 12.5
      vertex 18.5 0 12.5
      vertex 20.2406 -2.22985 12.5
    endloop
  endfacet
  facet normal -0 0 1
    outer loop
      vertex 18.2869 -2.02714 12.5
      vertex 20.2406 -2.22985 12.5
      vertex 18.5 0 12.5
    endloop
  endfacet
  facet normal 0 0 1
    outer loop
      vertex 17.6571 3.96568 12.5
      vertex 19.5478 4.36225 12.5
      vertex 18.4267 6.304 12.5
    endloop
  endfacet
  facet normal 0 0 1
    outer loop
      vertex 20.2406 2.22985 12.5
      vertex 18.2869 2.02714 12.5
      vertex 18.5 0 12.5
    endloop
  endfacet
  facet normal 0 0 1
    outer loop
      vertex 19.5478 4.36225 12.5
      vertex 17.6571 3.96568 12.5
      vertex 18.2869 2.02714 12.5
    endloop
  endfacet
  facet normal 0 0 1
    outer loop
      vertex 16.6379 5.73091 12.5
      vertex 18.4267 6.304 12.5
      vertex 16.9264 7.97023 12.5
    endloop
  endfacet
  facet normal 0 0 1
    outer loop
      vertex 18.4267 6.304 12.5
      vertex 16.6379 5.73091 12.5
      vertex 17.6571 3.96568 12.5
    endloop
  endfacet
  facet normal 0 0 1
    outer loop
      vertex 16.9264 7.97023 12.5
      vertex 15.274 7.24566 12.5
      vertex 16.6379 5.73091 12.5
    endloop
  endfacet
  facet normal 0 0 1
    outer loop
      vertex 15.1125 9.28812 12.5
      vertex 15.274 7.24566 12.5
      vertex 16.9264 7.97023 12.5
    endloop
  endfacet
  facet normal 0 0 1
    outer loop
      vertex 15.1125 9.28812 12.5
      vertex 13.625 8.44375 12.5
      vertex 15.274 7.24566 12.5
    endloop
  endfacet
  facet normal 0 0 1
    outer loop
      vertex 13.0642 10.2001 12.5
      vertex 13.625 8.44375 12.5
      vertex 15.1125 9.28812 12.5
    endloop
  endfacet
  facet normal 0 0 1
    outer loop
      vertex 13.0642 10.2001 12.5
      vertex 11.7629 9.2728 12.5
      vertex 13.625 8.44375 12.5
    endloop
  endfacet
  facet normal 0 0 1
    outer loop
      vertex 10.8711 10.6662 12.5
      vertex 11.7629 9.2728 12.5
      vertex 13.0642 10.2001 12.5
    endloop
  endfacet
  facet normal 0 0 1
    outer loop
      vertex 10.8711 10.6662 12.5
      vertex 9.76915 9.69659 12.5
      vertex 11.7629 9.2728 12.5
    endloop
  endfacet
  facet normal 0 0 1
    outer loop
      vertex 10.8711 10.6662 12.5
      vertex -9.76915 9.69659 12.5
      vertex 9.76915 9.69659 12.5
    endloop
  endfacet
  facet normal -0 0 1
    outer loop
      vertex -10.8711 10.6662 12.5
      vertex -9.76915 9.69659 12.5
      vertex 10.8711 10.6662 12.5
    endloop
  endfacet
  facet normal 0 0 1
    outer loop
      vertex -10.8711 10.6662 12.5
      vertex -11.7629 9.2728 12.5
      vertex -9.76915 9.69659 12.5
    endloop
  endfacet
  facet normal -0 0 1
    outer loop
      vertex -13.0642 10.2001 12.5
      vertex -11.7629 9.2728 12.5
      vertex -10.8711 10.6662 12.5
    endloop
  endfacet
  facet normal 0 0 1
    outer loop
      vertex -13.0642 10.2001 12.5
      vertex -13.625 8.44375 12.5
      vertex -11.7629 9.2728 12.5
    endloop
  endfacet
  facet normal -0 0 1
    outer loop
      vertex -15.1125 9.28812 12.5
      vertex -13.625 8.44375 12.5
      vertex -13.0642 10.2001 12.5
    endloop
  endfacet
  facet normal 0 0 1
    outer loop
      vertex -15.1125 9.28812 12.5
      vertex -15.274 7.24566 12.5
      vertex -13.625 8.44375 12.5
    endloop
  endfacet
  facet normal -0 0 1
    outer loop
      vertex -16.9264 7.97023 12.5
      vertex -15.274 7.24566 12.5
      vertex -15.1125 9.28812 12.5
    endloop
  endfacet
  facet normal 0 0 1
    outer loop
      vertex -15.274 7.24566 12.5
      vertex -16.9264 7.97023 12.5
      vertex -16.6379 5.73091 12.5
    endloop
  endfacet
  facet normal -0 0 1
    outer loop
      vertex -18.4267 6.304 12.5
      vertex -16.6379 5.73091 12.5
      vertex -16.9264 7.97023 12.5
    endloop
  endfacet
  facet normal 0 0 1
    outer loop
      vertex -16.6379 5.73091 12.5
      vertex -18.4267 6.304 12.5
      vertex -17.6571 3.96568 12.5
    endloop
  endfacet
  facet normal -0 0 1
    outer loop
      vertex -19.5478 4.36225 12.5
      vertex -17.6571 3.96568 12.5
      vertex -18.4267 6.304 12.5
    endloop
  endfacet
  facet normal 0 0 1
    outer loop
      vertex -17.6571 3.96568 12.5
      vertex -19.5478 4.36225 12.5
      vertex -18.2869 2.02714 12.5
    endloop
  endfacet
  facet normal -0 0 1
    outer loop
      vertex -20.2406 2.22985 12.5
      vertex -18.2869 2.02714 12.5
      vertex -19.5478 4.36225 12.5
    endloop
  endfacet
  facet normal 0 0 1
    outer loop
      vertex 20.2406 -2.22985 12.5
      vertex 18.2869 -2.02714 12.5
      vertex 19.5478 -4.36225 12.5
    endloop
  endfacet
  facet normal -0 0 1
    outer loop
      vertex 17.6571 -3.96568 12.5
      vertex 19.5478 -4.36225 12.5
      vertex 18.2869 -2.02714 12.5
    endloop
  endfacet
  facet normal 0 0 1
    outer loop
      vertex 19.5478 -4.36225 12.5
      vertex 17.6571 -3.96568 12.5
      vertex 18.4267 -6.304 12.5
    endloop
  endfacet
  facet normal -0 0 1
    outer loop
      vertex 16.6379 -5.73091 12.5
      vertex 18.4267 -6.304 12.5
      vertex 17.6571 -3.96568 12.5
    endloop
  endfacet
  facet normal 0 0 1
    outer loop
      vertex 18.4267 -6.304 12.5
      vertex 16.6379 -5.73091 12.5
      vertex 16.9264 -7.97023 12.5
    endloop
  endfacet
  facet normal -0 0 1
    outer loop
      vertex 15.274 -7.24566 12.5
      vertex 16.9264 -7.97023 12.5
      vertex 16.6379 -5.73091 12.5
    endloop
  endfacet
  facet normal 0 0 1
    outer loop
      vertex 15.274 -7.24566 12.5
      vertex 15.1125 -9.28812 12.5
      vertex 16.9264 -7.97023 12.5
    endloop
  endfacet
  facet normal -0 0 1
    outer loop
      vertex 13.625 -8.44375 12.5
      vertex 15.1125 -9.28812 12.5
      vertex 15.274 -7.24566 12.5
    endloop
  endfacet
  facet normal 0 0 1
    outer loop
      vertex 13.625 -8.44375 12.5
      vertex 13.0642 -10.2001 12.5
      vertex 15.1125 -9.28812 12.5
    endloop
  endfacet
  facet normal -0 0 1
    outer loop
      vertex 11.7629 -9.2728 12.5
      vertex 13.0642 -10.2001 12.5
      vertex 13.625 -8.44375 12.5
    endloop
  endfacet
  facet normal 0 0 1
    outer loop
      vertex 11.7629 -9.2728 12.5
      vertex 10.8711 -10.6662 12.5
      vertex 13.0642 -10.2001 12.5
    endloop
  endfacet
  facet normal -0 0 1
    outer loop
      vertex 9.76915 -9.69659 12.5
      vertex 10.8711 -10.6662 12.5
      vertex 11.7629 -9.2728 12.5
    endloop
  endfacet
  facet normal -0 0 1
    outer loop
      vertex -9.76915 -9.69659 12.5
      vertex 10.8711 -10.6662 12.5
      vertex 9.76915 -9.69659 12.5
    endloop
  endfacet
  facet normal 0 0 1
    outer loop
      vertex -9.76915 -9.69659 12.5
      vertex -10.8711 -10.6662 12.5
      vertex 10.8711 -10.6662 12.5
    endloop
  endfacet
  facet normal 0 0 1
    outer loop
      vertex -11.7629 -9.2728 12.5
      vertex -10.8711 -10.6662 12.5
      vertex -9.76915 -9.69659 12.5
    endloop
  endfacet
  facet normal 0 0 1
    outer loop
      vertex -11.7629 -9.2728 12.5
      vertex -13.0642 -10.2001 12.5
      vertex -10.8711 -10.6662 12.5
    endloop
  endfacet
  facet normal 0 0 1
    outer loop
      vertex -13.625 -8.44375 12.5
      vertex -13.0642 -10.2001 12.5
      vertex -11.7629 -9.2728 12.5
    endloop
  endfacet
  facet normal 0 0 1
    outer loop
      vertex -13.625 -8.44375 12.5
      vertex -15.1125 -9.28812 12.5
      vertex -13.0642 -10.2001 12.5
    endloop
  endfacet
  facet normal 0 0 1
    outer loop
      vertex -15.274 -7.24566 12.5
      vertex -15.1125 -9.28812 12.5
      vertex -13.625 -8.44375 12.5
    endloop
  endfacet
  facet normal 0 0 1
    outer loop
      vertex -16.9264 -7.97023 12.5
      vertex -15.274 -7.24566 12.5
      vertex -16.6379 -5.73091 12.5
    endloop
  endfacet
  facet normal 0 0 1
    outer loop
      vertex -15.274 -7.24566 12.5
      vertex -16.9264 -7.97023 12.5
      vertex -15.1125 -9.28812 12.5
    endloop
  endfacet
  facet normal 0 0 1
    outer loop
      vertex -18.4267 -6.304 12.5
      vertex -16.6379 -5.73091 12.5
      vertex -17.6571 -3.96568 12.5
    endloop
  endfacet
  facet normal 0 0 1
    outer loop
      vertex -19.5478 -4.36225 12.5
      vertex -17.6571 -3.96568 12.5
      vertex -18.2869 -2.02714 12.5
    endloop
  endfacet
  facet normal 0 0 1
    outer loop
      vertex -16.6379 -5.73091 12.5
      vertex -18.4267 -6.304 12.5
      vertex -16.9264 -7.97023 12.5
    endloop
  endfacet
  facet normal 0 0 1
    outer loop
      vertex -20.2406 -2.22985 12.5
      vertex -18.2869 -2.02714 12.5
      vertex -18.5 0 12.5
    endloop
  endfacet
  facet normal 0 0 1
    outer loop
      vertex -18.2869 2.02714 12.5
      vertex -20.2406 2.22985 12.5
      vertex -18.5 0 12.5
    endloop
  endfacet
  facet normal 0 0 1
    outer loop
      vertex -17.6571 -3.96568 12.5
      vertex -19.5478 -4.36225 12.5
      vertex -18.4267 -6.304 12.5
    endloop
  endfacet
  facet normal 0 0 1
    outer loop
      vertex -20.475 0 12.5
      vertex -18.5 0 12.5
      vertex -20.2406 2.22985 12.5
    endloop
  endfacet
  facet normal 0 0 1
    outer loop
      vertex -18.2869 -2.02714 12.5
      vertex -20.2406 -2.22985 12.5
      vertex -19.5478 -4.36225 12.5
    endloop
  endfacet
  facet normal 0 0 1
    outer loop
      vertex -18.5 0 12.5
      vertex -20.475 0 12.5
      vertex -20.2406 -2.22985 12.5
    endloop
  endfacet
  facet normal -0.406743 -0.913542 0
    outer loop
      vertex -15.1125 -9.28812 2.5
      vertex -13.0642 -10.2001 12.5
      vertex -15.1125 -9.28812 12.5
    endloop
  endfacet
  facet normal -0.406743 -0.913542 -0
    outer loop
      vertex -13.0642 -10.2001 12.5
      vertex -15.1125 -9.28812 2.5
      vertex -13.0642 -10.2001 2.5
    endloop
  endfacet
  facet normal 0.907421 0.420224 0
    outer loop
      vertex 42.4625 -45.1192 2.5
      vertex 19.5478 4.36225 0
      vertex 19.5478 4.36225 2.5
    endloop
  endfacet
  facet normal 0.907421 0.420224 0
    outer loop
      vertex 19.5478 4.36225 0
      vertex 42.4625 -45.1192 2.5
      vertex 42.4625 -45.1192 0
    endloop
  endfacet
  facet normal -0.994523 0.104519 0
    outer loop
      vertex -43.5 -50 0
      vertex -43.2378 -47.5051 2.5
      vertex -43.2378 -47.5051 0
    endloop
  endfacet
  facet normal -0.994523 0.104519 0
    outer loop
      vertex -43.2378 -47.5051 2.5
      vertex -43.5 -50 0
      vertex -43.5 -50 2.5
    endloop
  endfacet
  facet normal 0 -1 0
    outer loop
      vertex -32.7543 -61.9343 0
      vertex 32.7543 -61.9343 2.5
      vertex -32.7543 -61.9343 2.5
    endloop
  endfacet
  facet normal 0 -1 -0
    outer loop
      vertex 32.7543 -61.9343 2.5
      vertex -32.7543 -61.9343 0
      vertex 32.7543 -61.9343 0
    endloop
  endfacet
  facet normal -0.866034 -0.499985 0
    outer loop
      vertex -41.2082 -57.0534 0
      vertex -42.4625 -54.8808 2.5
      vertex -42.4625 -54.8808 0
    endloop
  endfacet
  facet normal -0.866034 -0.499985 0
    outer loop
      vertex -42.4625 -54.8808 2.5
      vertex -41.2082 -57.0534 0
      vertex -41.2082 -57.0534 2.5
    endloop
  endfacet
  facet normal 0.994523 -0.104519 0
    outer loop
      vertex 43.2378 -52.4949 2.5
      vertex 43.5 -50 0
      vertex 43.5 -50 2.5
    endloop
  endfacet
  facet normal 0.994523 -0.104519 0
    outer loop
      vertex 43.5 -50 0
      vertex 43.2378 -52.4949 2.5
      vertex 43.2378 -52.4949 0
    endloop
  endfacet
  facet normal -0.951048 -0.309044 0
    outer loop
      vertex -42.4625 -54.8808 0
      vertex -43.2378 -52.4949 2.5
      vertex -43.2378 -52.4949 0
    endloop
  endfacet
  facet normal -0.951048 -0.309044 0
    outer loop
      vertex -43.2378 -52.4949 2.5
      vertex -42.4625 -54.8808 0
      vertex -42.4625 -54.8808 2.5
    endloop
  endfacet
  facet normal 0.406745 -0.913542 0
    outer loop
      vertex 35.2082 -61.4127 0
      vertex 37.5 -60.3923 2.5
      vertex 35.2082 -61.4127 2.5
    endloop
  endfacet
  facet normal 0.406745 -0.913542 0
    outer loop
      vertex 37.5 -60.3923 2.5
      vertex 35.2082 -61.4127 0
      vertex 37.5 -60.3923 0
    endloop
  endfacet
  facet normal -0.951048 0.309044 0
    outer loop
      vertex -43.2378 -47.5051 0
      vertex -42.4625 -45.1192 2.5
      vertex -42.4625 -45.1192 0
    endloop
  endfacet
  facet normal -0.951048 0.309044 0
    outer loop
      vertex -42.4625 -45.1192 2.5
      vertex -43.2378 -47.5051 0
      vertex -43.2378 -47.5051 2.5
    endloop
  endfacet
  facet normal -0.587788 -0.809015 0
    outer loop
      vertex -39.5296 -58.9177 0
      vertex -37.5 -60.3923 2.5
      vertex -39.5296 -58.9177 2.5
    endloop
  endfacet
  facet normal -0.587788 -0.809015 -0
    outer loop
      vertex -37.5 -60.3923 2.5
      vertex -39.5296 -58.9177 0
      vertex -37.5 -60.3923 0
    endloop
  endfacet
  facet normal 0.951048 -0.309044 0
    outer loop
      vertex 42.4625 -54.8808 2.5
      vertex 43.2378 -52.4949 0
      vertex 43.2378 -52.4949 2.5
    endloop
  endfacet
  facet normal 0.951048 -0.309044 0
    outer loop
      vertex 43.2378 -52.4949 0
      vertex 42.4625 -54.8808 2.5
      vertex 42.4625 -54.8808 0
    endloop
  endfacet
  facet normal 0.587788 -0.809015 0
    outer loop
      vertex 37.5 -60.3923 0
      vertex 39.5296 -58.9177 2.5
      vertex 37.5 -60.3923 2.5
    endloop
  endfacet
  facet normal 0.587788 -0.809015 0
    outer loop
      vertex 39.5296 -58.9177 2.5
      vertex 37.5 -60.3923 0
      vertex 39.5296 -58.9177 0
    endloop
  endfacet
  facet normal 0.866034 -0.499985 0
    outer loop
      vertex 41.2082 -57.0534 2.5
      vertex 42.4625 -54.8808 0
      vertex 42.4625 -54.8808 2.5
    endloop
  endfacet
  facet normal 0.866034 -0.499985 0
    outer loop
      vertex 42.4625 -54.8808 0
      vertex 41.2082 -57.0534 2.5
      vertex 41.2082 -57.0534 0
    endloop
  endfacet
  facet normal -0.907421 0.420224 0
    outer loop
      vertex -42.4625 -45.1192 0
      vertex -19.5478 4.36225 2.5
      vertex -19.5478 4.36225 0
    endloop
  endfacet
  facet normal -0.907421 0.420224 0
    outer loop
      vertex -19.5478 4.36225 2.5
      vertex -42.4625 -45.1192 0
      vertex -42.4625 -45.1192 2.5
    endloop
  endfacet
  facet normal 0.994523 0.104519 0
    outer loop
      vertex 43.5 -50 2.5
      vertex 43.2378 -47.5051 0
      vertex 43.2378 -47.5051 2.5
    endloop
  endfacet
  facet normal 0.994523 0.104519 0
    outer loop
      vertex 43.2378 -47.5051 0
      vertex 43.5 -50 2.5
      vertex 43.5 -50 0
    endloop
  endfacet
  facet normal 0 0 -1
    outer loop
      vertex 31.055 -51.9499 0
      vertex 35.2082 -61.4127 0
      vertex 32.7543 -61.9343 0
    endloop
  endfacet
  facet normal 0 0 -1
    outer loop
      vertex 35.2082 -61.4127 0
      vertex 32.747 -51.5637 0
      vertex 33.5 -50 0
    endloop
  endfacet
  facet normal 0 0 -1
    outer loop
      vertex 35.2082 -61.4127 0
      vertex 31.055 -51.9499 0
      vertex 32.747 -51.5637 0
    endloop
  endfacet
  facet normal 0 0 -1
    outer loop
      vertex 32.7543 -61.9343 0
      vertex 29.6981 -50.8678 0
      vertex 31.055 -51.9499 0
    endloop
  endfacet
  facet normal 0 0 -1
    outer loop
      vertex -29.5 -50 0
      vertex 29.6981 -49.1322 0
      vertex 29.6981 -50.8678 0
    endloop
  endfacet
  facet normal 0 0 -1
    outer loop
      vertex 29.6981 -49.1322 0
      vertex -30.253 -48.4363 0
      vertex 19.5478 4.36225 0
    endloop
  endfacet
  facet normal 0 -0 -1
    outer loop
      vertex 10.8711 10.6662 0
      vertex 19.5478 4.36225 0
      vertex -19.5478 4.36225 0
    endloop
  endfacet
  facet normal 0 0 -1
    outer loop
      vertex 19.5478 4.36225 0
      vertex 10.8711 10.6662 0
      vertex 18.4267 6.304 0
    endloop
  endfacet
  facet normal 0 0 -1
    outer loop
      vertex 18.4267 6.304 0
      vertex 10.8711 10.6662 0
      vertex 16.9264 7.97023 0
    endloop
  endfacet
  facet normal 0 0 -1
    outer loop
      vertex 15.1125 9.28812 0
      vertex 10.8711 10.6662 0
      vertex 13.0642 10.2001 0
    endloop
  endfacet
  facet normal 0 0 -1
    outer loop
      vertex -32.7543 -61.9343 0
      vertex 29.6981 -50.8678 0
      vertex 32.7543 -61.9343 0
    endloop
  endfacet
  facet normal -0 0 -1
    outer loop
      vertex 19.5478 4.36225 0
      vertex -30.253 -48.4363 0
      vertex -19.5478 4.36225 0
    endloop
  endfacet
  facet normal -0 0 -1
    outer loop
      vertex 10.8711 10.6662 0
      vertex -19.5478 4.36225 0
      vertex -10.8711 10.6662 0
    endloop
  endfacet
  facet normal 0 0 -1
    outer loop
      vertex -10.8711 10.6662 0
      vertex -19.5478 4.36225 0
      vertex -13.0642 10.2001 0
    endloop
  endfacet
  facet normal 0 0 -1
    outer loop
      vertex -13.0642 10.2001 0
      vertex -19.5478 4.36225 0
      vertex -15.1125 9.28812 0
    endloop
  endfacet
  facet normal 0 0 -1
    outer loop
      vertex -15.1125 9.28812 0
      vertex -19.5478 4.36225 0
      vertex -16.9264 7.97023 0
    endloop
  endfacet
  facet normal 0 0 -1
    outer loop
      vertex -16.9264 7.97023 0
      vertex -19.5478 4.36225 0
      vertex -18.4267 6.304 0
    endloop
  endfacet
  facet normal -0 0 -1
    outer loop
      vertex 29.6981 -49.1322 0
      vertex -29.5 -50 0
      vertex -30.253 -48.4363 0
    endloop
  endfacet
  facet normal -0 0 -1
    outer loop
      vertex 29.6981 -50.8678 0
      vertex -32.7543 -61.9343 0
      vertex -29.5 -50 0
    endloop
  endfacet
  facet normal 0 0 -1
    outer loop
      vertex -29.5 -50 0
      vertex -32.7543 -61.9343 0
      vertex -30.253 -51.5637 0
    endloop
  endfacet
  facet normal 0 0 -1
    outer loop
      vertex -30.253 -51.5637 0
      vertex -32.7543 -61.9343 0
      vertex -31.945 -51.9499 0
    endloop
  endfacet
  facet normal 0 0 -1
    outer loop
      vertex -35.2082 -61.4127 0
      vertex -31.945 -51.9499 0
      vertex -32.7543 -61.9343 0
    endloop
  endfacet
  facet normal 0 0 -1
    outer loop
      vertex -39.5296 -58.9177 0
      vertex -31.945 -51.9499 0
      vertex -37.5 -60.3923 0
    endloop
  endfacet
  facet normal 0 0 -1
    outer loop
      vertex -37.5 -60.3923 0
      vertex -31.945 -51.9499 0
      vertex -35.2082 -61.4127 0
    endloop
  endfacet
  facet normal 0 0 -1
    outer loop
      vertex 33.5 -50 0
      vertex 43.5 -50 0
      vertex 43.2378 -52.4949 0
    endloop
  endfacet
  facet normal 0 0 -1
    outer loop
      vertex 33.5 -50 0
      vertex 43.2378 -52.4949 0
      vertex 42.4625 -54.8808 0
    endloop
  endfacet
  facet normal 0 0 -1
    outer loop
      vertex 43.5 -50 0
      vertex 33.5 -50 0
      vertex 43.2378 -47.5051 0
    endloop
  endfacet
  facet normal 0 0 -1
    outer loop
      vertex 33.5 -50 0
      vertex 42.4625 -54.8808 0
      vertex 41.2082 -57.0534 0
    endloop
  endfacet
  facet normal 0 0 -1
    outer loop
      vertex 33.5 -50 0
      vertex 41.2082 -57.0534 0
      vertex 39.5296 -58.9177 0
    endloop
  endfacet
  facet normal 0 0 -1
    outer loop
      vertex 33.5 -50 0
      vertex 39.5296 -58.9177 0
      vertex 37.5 -60.3923 0
    endloop
  endfacet
  facet normal 0 0 -1
    outer loop
      vertex 33.5 -50 0
      vertex 37.5 -60.3923 0
      vertex 35.2082 -61.4127 0
    endloop
  endfacet
  facet normal -0 0 -1
    outer loop
      vertex 43.2378 -47.5051 0
      vertex 33.5 -50 0
      vertex 42.4625 -45.1192 0
    endloop
  endfacet
  facet normal 0 0 -1
    outer loop
      vertex 32.747 -48.4363 0
      vertex 42.4625 -45.1192 0
      vertex 33.5 -50 0
    endloop
  endfacet
  facet normal 0 0 -1
    outer loop
      vertex 31.055 -48.0501 0
      vertex 42.4625 -45.1192 0
      vertex 32.747 -48.4363 0
    endloop
  endfacet
  facet normal 0 0 -1
    outer loop
      vertex 31.055 -48.0501 0
      vertex 19.5478 4.36225 0
      vertex 42.4625 -45.1192 0
    endloop
  endfacet
  facet normal 0 0 -1
    outer loop
      vertex 19.5478 4.36225 0
      vertex 31.055 -48.0501 0
      vertex 29.6981 -49.1322 0
    endloop
  endfacet
  facet normal 0 0 -1
    outer loop
      vertex 16.9264 7.97023 0
      vertex 10.8711 10.6662 0
      vertex 15.1125 9.28812 0
    endloop
  endfacet
  facet normal 0 0 -1
    outer loop
      vertex -31.945 -48.0501 0
      vertex -19.5478 4.36225 0
      vertex -30.253 -48.4363 0
    endloop
  endfacet
  facet normal 0 0 -1
    outer loop
      vertex -42.4625 -45.1192 0
      vertex -31.945 -48.0501 0
      vertex -33.3019 -49.1322 0
    endloop
  endfacet
  facet normal -0 0 -1
    outer loop
      vertex -31.945 -51.9499 0
      vertex -39.5296 -58.9177 0
      vertex -33.3019 -50.8678 0
    endloop
  endfacet
  facet normal 0 0 -1
    outer loop
      vertex -41.2082 -57.0534 0
      vertex -33.3019 -50.8678 0
      vertex -39.5296 -58.9177 0
    endloop
  endfacet
  facet normal 0 0 -1
    outer loop
      vertex -42.4625 -54.8808 0
      vertex -33.3019 -50.8678 0
      vertex -41.2082 -57.0534 0
    endloop
  endfacet
  facet normal 0 0 -1
    outer loop
      vertex -43.2378 -52.4949 0
      vertex -33.3019 -50.8678 0
      vertex -42.4625 -54.8808 0
    endloop
  endfacet
  facet normal 0 0 -1
    outer loop
      vertex -43.5 -50 0
      vertex -33.3019 -50.8678 0
      vertex -43.2378 -52.4949 0
    endloop
  endfacet
  facet normal 0 0 -1
    outer loop
      vertex -31.945 -48.0501 0
      vertex -42.4625 -45.1192 0
      vertex -19.5478 4.36225 0
    endloop
  endfacet
  facet normal 0 0 -1
    outer loop
      vertex -33.3019 -50.8678 0
      vertex -43.5 -50 0
      vertex -33.3019 -49.1322 0
    endloop
  endfacet
  facet normal 0 0 -1
    outer loop
      vertex -33.3019 -49.1322 0
      vertex -43.2378 -47.5051 0
      vertex -42.4625 -45.1192 0
    endloop
  endfacet
  facet normal -0 0 -1
    outer loop
      vertex -33.3019 -49.1322 0
      vertex -43.5 -50 0
      vertex -43.2378 -47.5051 0
    endloop
  endfacet
  facet normal -0.207915 -0.978147 0
    outer loop
      vertex -35.2082 -61.4127 0
      vertex -32.7543 -61.9343 2.5
      vertex -35.2082 -61.4127 2.5
    endloop
  endfacet
  facet normal -0.207915 -0.978147 -0
    outer loop
      vertex -32.7543 -61.9343 2.5
      vertex -35.2082 -61.4127 0
      vertex -32.7543 -61.9343 0
    endloop
  endfacet
  facet normal -0.743149 -0.669125 0
    outer loop
      vertex -39.5296 -58.9177 0
      vertex -41.2082 -57.0534 2.5
      vertex -41.2082 -57.0534 0
    endloop
  endfacet
  facet normal -0.743149 -0.669125 0
    outer loop
      vertex -41.2082 -57.0534 2.5
      vertex -39.5296 -58.9177 0
      vertex -39.5296 -58.9177 2.5
    endloop
  endfacet
  facet normal 0.743149 -0.669125 0
    outer loop
      vertex 39.5296 -58.9177 2.5
      vertex 41.2082 -57.0534 0
      vertex 41.2082 -57.0534 2.5
    endloop
  endfacet
  facet normal 0.743149 -0.669125 0
    outer loop
      vertex 41.2082 -57.0534 0
      vertex 39.5296 -58.9177 2.5
      vertex 39.5296 -58.9177 0
    endloop
  endfacet
  facet normal -0.406745 -0.913542 0
    outer loop
      vertex -37.5 -60.3923 0
      vertex -35.2082 -61.4127 2.5
      vertex -37.5 -60.3923 2.5
    endloop
  endfacet
  facet normal -0.406745 -0.913542 -0
    outer loop
      vertex -35.2082 -61.4127 2.5
      vertex -37.5 -60.3923 0
      vertex -35.2082 -61.4127 0
    endloop
  endfacet
  facet normal 0.207915 -0.978147 0
    outer loop
      vertex 32.7543 -61.9343 0
      vertex 35.2082 -61.4127 2.5
      vertex 32.7543 -61.9343 2.5
    endloop
  endfacet
  facet normal 0.207915 -0.978147 0
    outer loop
      vertex 35.2082 -61.4127 2.5
      vertex 32.7543 -61.9343 0
      vertex 35.2082 -61.4127 0
    endloop
  endfacet
  facet normal -0.994523 -0.104519 0
    outer loop
      vertex -43.2378 -52.4949 0
      vertex -43.5 -50 2.5
      vertex -43.5 -50 0
    endloop
  endfacet
  facet normal -0.994523 -0.104519 0
    outer loop
      vertex -43.5 -50 2.5
      vertex -43.2378 -52.4949 0
      vertex -43.2378 -52.4949 2.5
    endloop
  endfacet
  facet normal 0.951048 0.309044 0
    outer loop
      vertex 43.2378 -47.5051 2.5
      vertex 42.4625 -45.1192 0
      vertex 42.4625 -45.1192 2.5
    endloop
  endfacet
  facet normal 0.951048 0.309044 0
    outer loop
      vertex 42.4625 -45.1192 0
      vertex 43.2378 -47.5051 2.5
      vertex 43.2378 -47.5051 0
    endloop
  endfacet
  facet normal 0.866016 0.500016 0
    outer loop
      vertex -16.6379 -5.73091 12.5
      vertex -17.6571 -3.96568 3.5
      vertex -17.6571 -3.96568 12.5
    endloop
  endfacet
  facet normal 0.866016 0.500016 0
    outer loop
      vertex -17.6571 -3.96568 3.5
      vertex -16.6379 -5.73091 12.5
      vertex -16.6379 -5.73091 3.5
    endloop
  endfacet
  facet normal 0.951067 -0.308986 0
    outer loop
      vertex -18.2869 2.02714 12.5
      vertex -17.6571 3.96568 3.5
      vertex -17.6571 3.96568 12.5
    endloop
  endfacet
  facet normal 0.951067 -0.308986 0
    outer loop
      vertex -17.6571 3.96568 3.5
      vertex -18.2869 2.02714 12.5
      vertex -18.2869 2.02714 3.5
    endloop
  endfacet
  facet normal -0.207914 -0.978147 0
    outer loop
      vertex 9.76915 9.69659 3.5
      vertex 11.7629 9.2728 12.5
      vertex 9.76915 9.69659 12.5
    endloop
  endfacet
  facet normal -0.207914 -0.978147 -0
    outer loop
      vertex 11.7629 9.2728 12.5
      vertex 9.76915 9.69659 3.5
      vertex 11.7629 9.2728 3.5
    endloop
  endfacet
  facet normal 0.207914 -0.978147 0
    outer loop
      vertex -11.7629 9.2728 3.5
      vertex -9.76915 9.69659 12.5
      vertex -11.7629 9.2728 12.5
    endloop
  endfacet
  facet normal 0.207914 -0.978147 0
    outer loop
      vertex -9.76915 9.69659 12.5
      vertex -11.7629 9.2728 3.5
      vertex -9.76915 9.69659 3.5
    endloop
  endfacet
  facet normal -0.207914 0.978147 0
    outer loop
      vertex 11.7629 -9.2728 3.5
      vertex 9.76915 -9.69659 12.5
      vertex 11.7629 -9.2728 12.5
    endloop
  endfacet
  facet normal -0.207914 0.978147 0
    outer loop
      vertex 9.76915 -9.69659 12.5
      vertex 11.7629 -9.2728 3.5
      vertex 9.76915 -9.69659 3.5
    endloop
  endfacet
  facet normal 0.99452 0.104547 0
    outer loop
      vertex -18.2869 -2.02714 12.5
      vertex -18.5 0 3.5
      vertex -18.5 0 12.5
    endloop
  endfacet
  facet normal 0.99452 0.104547 0
    outer loop
      vertex -18.5 0 3.5
      vertex -18.2869 -2.02714 12.5
      vertex -18.2869 -2.02714 3.5
    endloop
  endfacet
  facet normal 0 -1 0
    outer loop
      vertex -9.76915 9.69659 3.5
      vertex 9.76915 9.69659 12.5
      vertex -9.76915 9.69659 12.5
    endloop
  endfacet
  facet normal 0 -1 -0
    outer loop
      vertex 9.76915 9.69659 12.5
      vertex -9.76915 9.69659 3.5
      vertex 9.76915 9.69659 3.5
    endloop
  endfacet
  facet normal 0.743142 -0.669134 0
    outer loop
      vertex -16.6379 5.73091 12.5
      vertex -15.274 7.24566 3.5
      vertex -15.274 7.24566 12.5
    endloop
  endfacet
  facet normal 0.743142 -0.669134 0
    outer loop
      vertex -15.274 7.24566 3.5
      vertex -16.6379 5.73091 12.5
      vertex -16.6379 5.73091 3.5
    endloop
  endfacet
  facet normal 0 1 -0
    outer loop
      vertex 9.76915 -9.69659 3.5
      vertex -9.76915 -9.69659 12.5
      vertex 9.76915 -9.69659 12.5
    endloop
  endfacet
  facet normal 0 1 0
    outer loop
      vertex -9.76915 -9.69659 12.5
      vertex 9.76915 -9.69659 3.5
      vertex -9.76915 -9.69659 3.5
    endloop
  endfacet
  facet normal 0.207914 0.978147 -0
    outer loop
      vertex -9.76915 -9.69659 3.5
      vertex -11.7629 -9.2728 12.5
      vertex -9.76915 -9.69659 12.5
    endloop
  endfacet
  facet normal 0.207914 0.978147 0
    outer loop
      vertex -11.7629 -9.2728 12.5
      vertex -9.76915 -9.69659 3.5
      vertex -11.7629 -9.2728 3.5
    endloop
  endfacet
  facet normal 0.99452 -0.104547 0
    outer loop
      vertex -18.5 0 12.5
      vertex -18.2869 2.02714 3.5
      vertex -18.2869 2.02714 12.5
    endloop
  endfacet
  facet normal 0.99452 -0.104547 0
    outer loop
      vertex -18.2869 2.02714 3.5
      vertex -18.5 0 12.5
      vertex -18.5 0 3.5
    endloop
  endfacet
  facet normal -0.951067 -0.308986 0
    outer loop
      vertex 18.2869 2.02714 3.5
      vertex 17.6571 3.96568 12.5
      vertex 17.6571 3.96568 3.5
    endloop
  endfacet
  facet normal -0.951067 -0.308986 0
    outer loop
      vertex 17.6571 3.96568 12.5
      vertex 18.2869 2.02714 3.5
      vertex 18.2869 2.02714 12.5
    endloop
  endfacet
  facet normal -0.99452 0.104547 0
    outer loop
      vertex 18.2869 -2.02714 3.5
      vertex 18.5 0 12.5
      vertex 18.5 0 3.5
    endloop
  endfacet
  facet normal -0.99452 0.104547 0
    outer loop
      vertex 18.5 0 12.5
      vertex 18.2869 -2.02714 3.5
      vertex 18.2869 -2.02714 12.5
    endloop
  endfacet
  facet normal 0.951067 0.308986 0
    outer loop
      vertex -17.6571 -3.96568 12.5
      vertex -18.2869 -2.02714 3.5
      vertex -18.2869 -2.02714 12.5
    endloop
  endfacet
  facet normal 0.951067 0.308986 0
    outer loop
      vertex -18.2869 -2.02714 3.5
      vertex -17.6571 -3.96568 12.5
      vertex -17.6571 -3.96568 3.5
    endloop
  endfacet
  facet normal -0.99452 -0.104547 0
    outer loop
      vertex 18.5 0 3.5
      vertex 18.2869 2.02714 12.5
      vertex 18.2869 2.02714 3.5
    endloop
  endfacet
  facet normal -0.99452 -0.104547 0
    outer loop
      vertex 18.2869 2.02714 12.5
      vertex 18.5 0 3.5
      vertex 18.5 0 12.5
    endloop
  endfacet
  facet normal 0 0 1
    outer loop
      vertex 18.2869 2.02714 3.5
      vertex 18.2869 -2.02714 3.5
      vertex 18.5 0 3.5
    endloop
  endfacet
  facet normal 0 0 1
    outer loop
      vertex 17.6571 3.96568 3.5
      vertex 18.2869 -2.02714 3.5
      vertex 18.2869 2.02714 3.5
    endloop
  endfacet
  facet normal 0 0 1
    outer loop
      vertex 17.6571 3.96568 3.5
      vertex 17.6571 -3.96568 3.5
      vertex 18.2869 -2.02714 3.5
    endloop
  endfacet
  facet normal 0 0 1
    outer loop
      vertex 16.6379 5.73091 3.5
      vertex 17.6571 -3.96568 3.5
      vertex 17.6571 3.96568 3.5
    endloop
  endfacet
  facet normal 0 0 1
    outer loop
      vertex 16.6379 5.73091 3.5
      vertex 16.6379 -5.73091 3.5
      vertex 17.6571 -3.96568 3.5
    endloop
  endfacet
  facet normal 0 0 1
    outer loop
      vertex 15.274 7.24566 3.5
      vertex 16.6379 -5.73091 3.5
      vertex 16.6379 5.73091 3.5
    endloop
  endfacet
  facet normal 0 0 1
    outer loop
      vertex 15.274 7.24566 3.5
      vertex 15.274 -7.24566 3.5
      vertex 16.6379 -5.73091 3.5
    endloop
  endfacet
  facet normal 0 0 1
    outer loop
      vertex 13.625 8.44375 3.5
      vertex 15.274 -7.24566 3.5
      vertex 15.274 7.24566 3.5
    endloop
  endfacet
  facet normal 0 0 1
    outer loop
      vertex 13.625 8.44375 3.5
      vertex 13.625 -8.44375 3.5
      vertex 15.274 -7.24566 3.5
    endloop
  endfacet
  facet normal 0 0 1
    outer loop
      vertex 11.7629 9.2728 3.5
      vertex 13.625 -8.44375 3.5
      vertex 13.625 8.44375 3.5
    endloop
  endfacet
  facet normal 0 0 1
    outer loop
      vertex 11.7629 9.2728 3.5
      vertex 11.7629 -9.2728 3.5
      vertex 13.625 -8.44375 3.5
    endloop
  endfacet
  facet normal 0 0 1
    outer loop
      vertex 9.76915 9.69659 3.5
      vertex 11.7629 -9.2728 3.5
      vertex 11.7629 9.2728 3.5
    endloop
  endfacet
  facet normal 0 0 1
    outer loop
      vertex 9.76915 9.69659 3.5
      vertex 9.76915 -9.69659 3.5
      vertex 11.7629 -9.2728 3.5
    endloop
  endfacet
  facet normal -0 0 1
    outer loop
      vertex -9.76915 9.69659 3.5
      vertex 9.76915 -9.69659 3.5
      vertex 9.76915 9.69659 3.5
    endloop
  endfacet
  facet normal 0 0 1
    outer loop
      vertex -9.76915 9.69659 3.5
      vertex -9.76915 -9.69659 3.5
      vertex 9.76915 -9.69659 3.5
    endloop
  endfacet
  facet normal -0 0 1
    outer loop
      vertex -11.7629 9.2728 3.5
      vertex -9.76915 -9.69659 3.5
      vertex -9.76915 9.69659 3.5
    endloop
  endfacet
  facet normal 0 0 1
    outer loop
      vertex -11.7629 9.2728 3.5
      vertex -11.7629 -9.2728 3.5
      vertex -9.76915 -9.69659 3.5
    endloop
  endfacet
  facet normal -0 0 1
    outer loop
      vertex -13.625 8.44375 3.5
      vertex -11.7629 -9.2728 3.5
      vertex -11.7629 9.2728 3.5
    endloop
  endfacet
  facet normal 0 0 1
    outer loop
      vertex -13.625 8.44375 3.5
      vertex -13.625 -8.44375 3.5
      vertex -11.7629 -9.2728 3.5
    endloop
  endfacet
  facet normal -0 0 1
    outer loop
      vertex -15.274 7.24566 3.5
      vertex -13.625 -8.44375 3.5
      vertex -13.625 8.44375 3.5
    endloop
  endfacet
  facet normal 0 0 1
    outer loop
      vertex -15.274 7.24566 3.5
      vertex -15.274 -7.24566 3.5
      vertex -13.625 -8.44375 3.5
    endloop
  endfacet
  facet normal -0 0 1
    outer loop
      vertex -16.6379 5.73091 3.5
      vertex -15.274 -7.24566 3.5
      vertex -15.274 7.24566 3.5
    endloop
  endfacet
  facet normal 0 0 1
    outer loop
      vertex -16.6379 5.73091 3.5
      vertex -16.6379 -5.73091 3.5
      vertex -15.274 -7.24566 3.5
    endloop
  endfacet
  facet normal -0 0 1
    outer loop
      vertex -17.6571 3.96568 3.5
      vertex -16.6379 -5.73091 3.5
      vertex -16.6379 5.73091 3.5
    endloop
  endfacet
  facet normal 0 0 1
    outer loop
      vertex -17.6571 3.96568 3.5
      vertex -17.6571 -3.96568 3.5
      vertex -16.6379 -5.73091 3.5
    endloop
  endfacet
  facet normal -0 0 1
    outer loop
      vertex -18.2869 2.02714 3.5
      vertex -17.6571 -3.96568 3.5
      vertex -17.6571 3.96568 3.5
    endloop
  endfacet
  facet normal 0 0 1
    outer loop
      vertex -18.2869 2.02714 3.5
      vertex -18.2869 -2.02714 3.5
      vertex -17.6571 -3.96568 3.5
    endloop
  endfacet
  facet normal 0 -0 1
    outer loop
      vertex -18.2869 -2.02714 3.5
      vertex -18.2869 2.02714 3.5
      vertex -18.5 0 3.5
    endloop
  endfacet
  facet normal -0.743142 -0.669134 0
    outer loop
      vertex 16.6379 5.73091 3.5
      vertex 15.274 7.24566 12.5
      vertex 15.274 7.24566 3.5
    endloop
  endfacet
  facet normal -0.743142 -0.669134 0
    outer loop
      vertex 15.274 7.24566 12.5
      vertex 16.6379 5.73091 3.5
      vertex 16.6379 5.73091 12.5
    endloop
  endfacet
  facet normal 0.587792 -0.809012 0
    outer loop
      vertex -15.274 7.24566 3.5
      vertex -13.625 8.44375 12.5
      vertex -15.274 7.24566 12.5
    endloop
  endfacet
  facet normal 0.587792 -0.809012 0
    outer loop
      vertex -13.625 8.44375 12.5
      vertex -15.274 7.24566 3.5
      vertex -13.625 8.44375 3.5
    endloop
  endfacet
  facet normal 0.406732 0.913547 -0
    outer loop
      vertex -11.7629 -9.2728 3.5
      vertex -13.625 -8.44375 12.5
      vertex -11.7629 -9.2728 12.5
    endloop
  endfacet
  facet normal 0.406732 0.913547 0
    outer loop
      vertex -13.625 -8.44375 12.5
      vertex -11.7629 -9.2728 3.5
      vertex -13.625 -8.44375 3.5
    endloop
  endfacet
  facet normal 0.743142 0.669134 0
    outer loop
      vertex -15.274 -7.24566 12.5
      vertex -16.6379 -5.73091 3.5
      vertex -16.6379 -5.73091 12.5
    endloop
  endfacet
  facet normal 0.743142 0.669134 0
    outer loop
      vertex -16.6379 -5.73091 3.5
      vertex -15.274 -7.24566 12.5
      vertex -15.274 -7.24566 3.5
    endloop
  endfacet
  facet normal 0.587792 0.809012 -0
    outer loop
      vertex -13.625 -8.44375 3.5
      vertex -15.274 -7.24566 12.5
      vertex -13.625 -8.44375 12.5
    endloop
  endfacet
  facet normal 0.587792 0.809012 0
    outer loop
      vertex -15.274 -7.24566 12.5
      vertex -13.625 -8.44375 3.5
      vertex -15.274 -7.24566 3.5
    endloop
  endfacet
  facet normal -0.866016 0.500016 0
    outer loop
      vertex 16.6379 -5.73091 3.5
      vertex 17.6571 -3.96568 12.5
      vertex 17.6571 -3.96568 3.5
    endloop
  endfacet
  facet normal -0.866016 0.500016 0
    outer loop
      vertex 17.6571 -3.96568 12.5
      vertex 16.6379 -5.73091 3.5
      vertex 16.6379 -5.73091 12.5
    endloop
  endfacet
  facet normal -0.951067 0.308986 0
    outer loop
      vertex 17.6571 -3.96568 3.5
      vertex 18.2869 -2.02714 12.5
      vertex 18.2869 -2.02714 3.5
    endloop
  endfacet
  facet normal -0.951067 0.308986 0
    outer loop
      vertex 18.2869 -2.02714 12.5
      vertex 17.6571 -3.96568 3.5
      vertex 17.6571 -3.96568 12.5
    endloop
  endfacet
  facet normal 0.866016 -0.500016 0
    outer loop
      vertex -17.6571 3.96568 12.5
      vertex -16.6379 5.73091 3.5
      vertex -16.6379 5.73091 12.5
    endloop
  endfacet
  facet normal 0.866016 -0.500016 0
    outer loop
      vertex -16.6379 5.73091 3.5
      vertex -17.6571 3.96568 12.5
      vertex -17.6571 3.96568 3.5
    endloop
  endfacet
  facet normal 0.406732 -0.913547 0
    outer loop
      vertex -13.625 8.44375 3.5
      vertex -11.7629 9.2728 12.5
      vertex -13.625 8.44375 12.5
    endloop
  endfacet
  facet normal 0.406732 -0.913547 0
    outer loop
      vertex -11.7629 9.2728 12.5
      vertex -13.625 8.44375 3.5
      vertex -11.7629 9.2728 3.5
    endloop
  endfacet
  facet normal -0.587792 0.809012 0
    outer loop
      vertex 15.274 -7.24566 3.5
      vertex 13.625 -8.44375 12.5
      vertex 15.274 -7.24566 12.5
    endloop
  endfacet
  facet normal -0.587792 0.809012 0
    outer loop
      vertex 13.625 -8.44375 12.5
      vertex 15.274 -7.24566 3.5
      vertex 13.625 -8.44375 3.5
    endloop
  endfacet
  facet normal -0.743142 0.669134 0
    outer loop
      vertex 15.274 -7.24566 3.5
      vertex 16.6379 -5.73091 12.5
      vertex 16.6379 -5.73091 3.5
    endloop
  endfacet
  facet normal -0.743142 0.669134 0
    outer loop
      vertex 16.6379 -5.73091 12.5
      vertex 15.274 -7.24566 3.5
      vertex 15.274 -7.24566 12.5
    endloop
  endfacet
  facet normal -0.406732 -0.913547 0
    outer loop
      vertex 11.7629 9.2728 3.5
      vertex 13.625 8.44375 12.5
      vertex 11.7629 9.2728 12.5
    endloop
  endfacet
  facet normal -0.406732 -0.913547 -0
    outer loop
      vertex 13.625 8.44375 12.5
      vertex 11.7629 9.2728 3.5
      vertex 13.625 8.44375 3.5
    endloop
  endfacet
  facet normal -0.587792 -0.809012 0
    outer loop
      vertex 13.625 8.44375 3.5
      vertex 15.274 7.24566 12.5
      vertex 13.625 8.44375 12.5
    endloop
  endfacet
  facet normal -0.587792 -0.809012 -0
    outer loop
      vertex 15.274 7.24566 12.5
      vertex 13.625 8.44375 3.5
      vertex 15.274 7.24566 3.5
    endloop
  endfacet
  facet normal -0.866016 -0.500016 0
    outer loop
      vertex 17.6571 3.96568 3.5
      vertex 16.6379 5.73091 12.5
      vertex 16.6379 5.73091 3.5
    endloop
  endfacet
  facet normal -0.866016 -0.500016 0
    outer loop
      vertex 16.6379 5.73091 12.5
      vertex 17.6571 3.96568 3.5
      vertex 17.6571 3.96568 12.5
    endloop
  endfacet
  facet normal -0.406732 0.913547 0
    outer loop
      vertex 13.625 -8.44375 3.5
      vertex 11.7629 -9.2728 12.5
      vertex 13.625 -8.44375 12.5
    endloop
  endfacet
  facet normal -0.406732 0.913547 0
    outer loop
      vertex 11.7629 -9.2728 12.5
      vertex 13.625 -8.44375 3.5
      vertex 11.7629 -9.2728 3.5
    endloop
  endfacet
  facet normal -0.222528 -0.974926 0
    outer loop
      vertex -31.945 -48.0501 0
      vertex -30.253 -48.4363 2.5
      vertex -31.945 -48.0501 2.5
    endloop
  endfacet
  facet normal -0.222528 -0.974926 -0
    outer loop
      vertex -30.253 -48.4363 2.5
      vertex -31.945 -48.0501 0
      vertex -30.253 -48.4363 0
    endloop
  endfacet
  facet normal -0.900977 -0.433866 0
    outer loop
      vertex -29.5 -50 0
      vertex -30.253 -48.4363 2.5
      vertex -30.253 -48.4363 0
    endloop
  endfacet
  facet normal -0.900977 -0.433866 0
    outer loop
      vertex -30.253 -48.4363 2.5
      vertex -29.5 -50 0
      vertex -29.5 -50 2.5
    endloop
  endfacet
  facet normal -0.900977 0.433866 0
    outer loop
      vertex -30.253 -51.5637 0
      vertex -29.5 -50 2.5
      vertex -29.5 -50 0
    endloop
  endfacet
  facet normal -0.900977 0.433866 0
    outer loop
      vertex -29.5 -50 2.5
      vertex -30.253 -51.5637 0
      vertex -30.253 -51.5637 2.5
    endloop
  endfacet
  facet normal 0.623493 0.781829 -0
    outer loop
      vertex -31.945 -51.9499 0
      vertex -33.3019 -50.8678 2.5
      vertex -31.945 -51.9499 2.5
    endloop
  endfacet
  facet normal 0.623493 0.781829 0
    outer loop
      vertex -33.3019 -50.8678 2.5
      vertex -31.945 -51.9499 0
      vertex -33.3019 -50.8678 0
    endloop
  endfacet
  facet normal -0.222528 0.974926 0
    outer loop
      vertex -30.253 -51.5637 0
      vertex -31.945 -51.9499 2.5
      vertex -30.253 -51.5637 2.5
    endloop
  endfacet
  facet normal -0.222528 0.974926 0
    outer loop
      vertex -31.945 -51.9499 2.5
      vertex -30.253 -51.5637 0
      vertex -31.945 -51.9499 0
    endloop
  endfacet
  facet normal 1 -0 0
    outer loop
      vertex -33.3019 -50.8678 2.5
      vertex -33.3019 -49.1322 0
      vertex -33.3019 -49.1322 2.5
    endloop
  endfacet
  facet normal 1 0 0
    outer loop
      vertex -33.3019 -49.1322 0
      vertex -33.3019 -50.8678 2.5
      vertex -33.3019 -50.8678 0
    endloop
  endfacet
  facet normal 0.623493 -0.781829 0
    outer loop
      vertex -33.3019 -49.1322 0
      vertex -31.945 -48.0501 2.5
      vertex -33.3019 -49.1322 2.5
    endloop
  endfacet
  facet normal 0.623493 -0.781829 0
    outer loop
      vertex -31.945 -48.0501 2.5
      vertex -33.3019 -49.1322 0
      vertex -31.945 -48.0501 0
    endloop
  endfacet
  facet normal -0.222528 -0.974926 0
    outer loop
      vertex 31.055 -48.0501 0
      vertex 32.747 -48.4363 2.5
      vertex 31.055 -48.0501 2.5
    endloop
  endfacet
  facet normal -0.222528 -0.974926 -0
    outer loop
      vertex 32.747 -48.4363 2.5
      vertex 31.055 -48.0501 0
      vertex 32.747 -48.4363 0
    endloop
  endfacet
  facet normal -0.900977 -0.433866 0
    outer loop
      vertex 33.5 -50 0
      vertex 32.747 -48.4363 2.5
      vertex 32.747 -48.4363 0
    endloop
  endfacet
  facet normal -0.900977 -0.433866 0
    outer loop
      vertex 32.747 -48.4363 2.5
      vertex 33.5 -50 0
      vertex 33.5 -50 2.5
    endloop
  endfacet
  facet normal -0.900977 0.433866 0
    outer loop
      vertex 32.747 -51.5637 0
      vertex 33.5 -50 2.5
      vertex 33.5 -50 0
    endloop
  endfacet
  facet normal -0.900977 0.433866 0
    outer loop
      vertex 33.5 -50 2.5
      vertex 32.747 -51.5637 0
      vertex 32.747 -51.5637 2.5
    endloop
  endfacet
  facet normal 0.623493 0.781829 -0
    outer loop
      vertex 31.055 -51.9499 0
      vertex 29.6981 -50.8678 2.5
      vertex 31.055 -51.9499 2.5
    endloop
  endfacet
  facet normal 0.623493 0.781829 0
    outer loop
      vertex 29.6981 -50.8678 2.5
      vertex 31.055 -51.9499 0
      vertex 29.6981 -50.8678 0
    endloop
  endfacet
  facet normal -0.222528 0.974926 0
    outer loop
      vertex 32.747 -51.5637 0
      vertex 31.055 -51.9499 2.5
      vertex 32.747 -51.5637 2.5
    endloop
  endfacet
  facet normal -0.222528 0.974926 0
    outer loop
      vertex 31.055 -51.9499 2.5
      vertex 32.747 -51.5637 0
      vertex 31.055 -51.9499 0
    endloop
  endfacet
  facet normal 1 -0 0
    outer loop
      vertex 29.6981 -50.8678 2.5
      vertex 29.6981 -49.1322 0
      vertex 29.6981 -49.1322 2.5
    endloop
  endfacet
  facet normal 1 0 0
    outer loop
      vertex 29.6981 -49.1322 0
      vertex 29.6981 -50.8678 2.5
      vertex 29.6981 -50.8678 0
    endloop
  endfacet
  facet normal 0.623493 -0.781829 0
    outer loop
      vertex 29.6981 -49.1322 0
      vertex 31.055 -48.0501 2.5
      vertex 29.6981 -49.1322 2.5
    endloop
  endfacet
  facet normal 0.623493 -0.781829 0
    outer loop
      vertex 31.055 -48.0501 2.5
      vertex 29.6981 -49.1322 0
      vertex 31.055 -48.0501 0
    endloop
  endfacet
endsolid OpenSCAD_Model
