solid OpenSCAD_Model
  facet normal 1 0 0
    outer loop
      vertex 4.75 3.875 0
      vertex 4.75 5.54167 2.75
      vertex 4.75 3.875 2.75
    endloop
  endfacet
  facet normal 1 0 0
    outer loop
      vertex 4.75 5.54167 2.75
      vertex 4.75 3.875 0
      vertex 4.75 5.54167 -1.66667
    endloop
  endfacet
  facet normal 1 0 0
    outer loop
      vertex 4.75 3.04167 -1.66667
      vertex 4.75 3.875 0
      vertex 4.75 3.04167 0
    endloop
  endfacet
  facet normal 1 0 0
    outer loop
      vertex 4.75 3.875 0
      vertex 4.75 3.04167 -1.66667
      vertex 4.75 5.54167 -1.66667
    endloop
  endfacet
  facet normal 0 0 -1
    outer loop
      vertex 0 10.2917 2.75
      vertex 2.5 15 2.75
      vertex 2.5 10.2917 2.75
    endloop
  endfacet
  facet normal -0 0 -1
    outer loop
      vertex 2.5 15 2.75
      vertex 0 10.2917 2.75
      vertex 0 15 2.75
    endloop
  endfacet
  facet normal 0 0 -1
    outer loop
      vertex 0 0 2.75
      vertex 2.5 3.875 2.75
      vertex 2.5 0 2.75
    endloop
  endfacet
  facet normal -0 0 -1
    outer loop
      vertex 2.5 3.875 2.75
      vertex 0 0 2.75
      vertex 0 3.875 2.75
    endloop
  endfacet
  facet normal -0 0 1
    outer loop
      vertex 2.5 10.2917 2.75
      vertex 4.75 8.625 2.75
      vertex 4.75 10.2917 2.75
    endloop
  endfacet
  facet normal 0 0 1
    outer loop
      vertex 4.75 8.625 2.75
      vertex 2.5 10.2917 2.75
      vertex 2.5 8.625 2.75
    endloop
  endfacet
  facet normal 0 0 -1
    outer loop
      vertex 0 5.54167 2.75
      vertex 2.5 8.625 2.75
      vertex 2.5 5.54167 2.75
    endloop
  endfacet
  facet normal -0 0 -1
    outer loop
      vertex 2.5 8.625 2.75
      vertex 0 5.54167 2.75
      vertex 0 8.625 2.75
    endloop
  endfacet
  facet normal -0 0 1
    outer loop
      vertex 2.5 5.54167 2.75
      vertex 4.75 3.875 2.75
      vertex 4.75 5.54167 2.75
    endloop
  endfacet
  facet normal 0 0 1
    outer loop
      vertex 4.75 3.875 2.75
      vertex 2.5 5.54167 2.75
      vertex 2.5 3.875 2.75
    endloop
  endfacet
  facet normal -0 0 1
    outer loop
      vertex 0 3.875 0
      vertex 4.75 3.04167 0
      vertex 4.75 3.875 0
    endloop
  endfacet
  facet normal 0 0 1
    outer loop
      vertex 4.75 3.04167 0
      vertex 0 3.875 0
      vertex 0 3.04167 0
    endloop
  endfacet
  facet normal -1 0 0
    outer loop
      vertex 0 5.54167 -1.66667
      vertex 0 3.875 0
      vertex 0 5.54167 2.75
    endloop
  endfacet
  facet normal -1 0 0
    outer loop
      vertex 0 3.04167 -1.66667
      vertex 0 3.875 0
      vertex 0 5.54167 -1.66667
    endloop
  endfacet
  facet normal -1 -0 0
    outer loop
      vertex 0 3.875 0
      vertex 0 3.04167 -1.66667
      vertex 0 3.04167 0
    endloop
  endfacet
  facet normal -1 0 0
    outer loop
      vertex 0 11.125 -1.66667
      vertex 0 10.2917 0
      vertex 0 11.125 0
    endloop
  endfacet
  facet normal -1 0 0
    outer loop
      vertex 0 8.625 2.75
      vertex 0 10.2917 0
      vertex 0 8.625 -1.66667
    endloop
  endfacet
  facet normal -1 0 0
    outer loop
      vertex 0 8.625 -1.66667
      vertex 0 10.2917 0
      vertex 0 11.125 -1.66667
    endloop
  endfacet
  facet normal -1 0 0
    outer loop
      vertex 0 10.2917 2.75
      vertex 0 15 17.25
      vertex 0 15 2.75
    endloop
  endfacet
  facet normal -1 0 0
    outer loop
      vertex 0 10.2917 0
      vertex 0 8.625 2.75
      vertex 0 10.2917 2.75
    endloop
  endfacet
  facet normal -1 0 0
    outer loop
      vertex 0 10.2917 2.75
      vertex 0 8.625 2.75
      vertex 0 15 17.25
    endloop
  endfacet
  facet normal -1 0 0
    outer loop
      vertex 0 0 17.25
      vertex 0 8.625 2.75
      vertex 0 5.54167 2.75
    endloop
  endfacet
  facet normal -1 0 0
    outer loop
      vertex 0 3.875 2.75
      vertex 0 5.54167 2.75
      vertex 0 3.875 0
    endloop
  endfacet
  facet normal -1 0 0
    outer loop
      vertex 0 0 17.25
      vertex 0 5.54167 2.75
      vertex 0 3.875 2.75
    endloop
  endfacet
  facet normal -1 0 0
    outer loop
      vertex 0 0 17.25
      vertex 0 3.875 2.75
      vertex 0 0 2.75
    endloop
  endfacet
  facet normal -1 0 0
    outer loop
      vertex 0 8.625 2.75
      vertex 0 0 17.25
      vertex 0 15 17.25
    endloop
  endfacet
  facet normal 0 1 -0
    outer loop
      vertex 4.75 5.54167 -1.66667
      vertex 2.5 5.54167 2.75
      vertex 4.75 5.54167 2.75
    endloop
  endfacet
  facet normal 0 1 0
    outer loop
      vertex 0 5.54167 -1.66667
      vertex 2.5 5.54167 2.75
      vertex 4.75 5.54167 -1.66667
    endloop
  endfacet
  facet normal 0 1 0
    outer loop
      vertex 2.5 5.54167 2.75
      vertex 0 5.54167 -1.66667
      vertex 0 5.54167 2.75
    endloop
  endfacet
  facet normal 0 -1 0
    outer loop
      vertex 0 3.875 0
      vertex 2.5 3.875 2.75
      vertex 0 3.875 2.75
    endloop
  endfacet
  facet normal 0 -1 0
    outer loop
      vertex 4.75 3.875 0
      vertex 2.5 3.875 2.75
      vertex 0 3.875 0
    endloop
  endfacet
  facet normal 0 -1 0
    outer loop
      vertex 2.5 3.875 2.75
      vertex 4.75 3.875 0
      vertex 4.75 3.875 2.75
    endloop
  endfacet
  facet normal 0 0 -1
    outer loop
      vertex 0 3.04167 -1.66667
      vertex 4.75 5.54167 -1.66667
      vertex 4.75 3.04167 -1.66667
    endloop
  endfacet
  facet normal -0 0 -1
    outer loop
      vertex 4.75 5.54167 -1.66667
      vertex 0 3.04167 -1.66667
      vertex 0 5.54167 -1.66667
    endloop
  endfacet
  facet normal 0 -1 0
    outer loop
      vertex 0 3.04167 -1.66667
      vertex 4.75 3.04167 0
      vertex 0 3.04167 0
    endloop
  endfacet
  facet normal 0 -1 -0
    outer loop
      vertex 4.75 3.04167 0
      vertex 0 3.04167 -1.66667
      vertex 4.75 3.04167 -1.66667
    endloop
  endfacet
  facet normal 1 0 0
    outer loop
      vertex 4.75 10.2917 2.75
      vertex 4.75 8.625 2.75
      vertex 4.75 10.2917 0
    endloop
  endfacet
  facet normal 1 -0 0
    outer loop
      vertex 4.75 10.2917 0
      vertex 4.75 11.125 -1.66667
      vertex 4.75 11.125 0
    endloop
  endfacet
  facet normal 1 0 0
    outer loop
      vertex 4.75 8.625 -1.66667
      vertex 4.75 10.2917 0
      vertex 4.75 8.625 2.75
    endloop
  endfacet
  facet normal 1 0 0
    outer loop
      vertex 4.75 10.2917 0
      vertex 4.75 8.625 -1.66667
      vertex 4.75 11.125 -1.66667
    endloop
  endfacet
  facet normal -0 0 1
    outer loop
      vertex 0 11.125 0
      vertex 4.75 10.2917 0
      vertex 4.75 11.125 0
    endloop
  endfacet
  facet normal 0 0 1
    outer loop
      vertex 4.75 10.2917 0
      vertex 0 11.125 0
      vertex 0 10.2917 0
    endloop
  endfacet
  facet normal 0 1 -0
    outer loop
      vertex 4.75 10.2917 0
      vertex 2.5 10.2917 2.75
      vertex 4.75 10.2917 2.75
    endloop
  endfacet
  facet normal 0 1 0
    outer loop
      vertex 0 10.2917 0
      vertex 2.5 10.2917 2.75
      vertex 4.75 10.2917 0
    endloop
  endfacet
  facet normal 0 1 0
    outer loop
      vertex 2.5 10.2917 2.75
      vertex 0 10.2917 0
      vertex 0 10.2917 2.75
    endloop
  endfacet
  facet normal 0 -1 0
    outer loop
      vertex 0 8.625 -1.66667
      vertex 2.5 8.625 2.75
      vertex 0 8.625 2.75
    endloop
  endfacet
  facet normal 0 -1 0
    outer loop
      vertex 4.75 8.625 -1.66667
      vertex 2.5 8.625 2.75
      vertex 0 8.625 -1.66667
    endloop
  endfacet
  facet normal 0 -1 0
    outer loop
      vertex 2.5 8.625 2.75
      vertex 4.75 8.625 -1.66667
      vertex 4.75 8.625 2.75
    endloop
  endfacet
  facet normal 0 0 -1
    outer loop
      vertex 0 8.625 -1.66667
      vertex 4.75 11.125 -1.66667
      vertex 4.75 8.625 -1.66667
    endloop
  endfacet
  facet normal -0 0 -1
    outer loop
      vertex 4.75 11.125 -1.66667
      vertex 0 8.625 -1.66667
      vertex 0 11.125 -1.66667
    endloop
  endfacet
  facet normal 0 1 -0
    outer loop
      vertex 4.75 11.125 -1.66667
      vertex 0 11.125 0
      vertex 4.75 11.125 0
    endloop
  endfacet
  facet normal 0 1 0
    outer loop
      vertex 0 11.125 0
      vertex 4.75 11.125 -1.66667
      vertex 0 11.125 -1.66667
    endloop
  endfacet
  facet normal 1 0 0
    outer loop
      vertex 2.5 15 14.75
      vertex 2.5 10.2917 2.75
      vertex 2.5 15 2.75
    endloop
  endfacet
  facet normal 1 0 0
    outer loop
      vertex 2.5 15 14.75
      vertex 2.5 8.625 2.75
      vertex 2.5 10.2917 2.75
    endloop
  endfacet
  facet normal 1 -0 0
    outer loop
      vertex 2.5 0 14.75
      vertex 2.5 8.625 2.75
      vertex 2.5 15 14.75
    endloop
  endfacet
  facet normal 1 0 0
    outer loop
      vertex 2.5 8.625 2.75
      vertex 2.5 0 14.75
      vertex 2.5 5.54167 2.75
    endloop
  endfacet
  facet normal 1 0 0
    outer loop
      vertex 2.5 5.54167 2.75
      vertex 2.5 0 14.75
      vertex 2.5 3.875 2.75
    endloop
  endfacet
  facet normal 1 0 0
    outer loop
      vertex 2.5 3.875 2.75
      vertex 2.5 0 14.75
      vertex 2.5 0 2.75
    endloop
  endfacet
  facet normal -0 0 1
    outer loop
      vertex 0 15 17.25
      vertex 10 0 17.25
      vertex 10 15 17.25
    endloop
  endfacet
  facet normal 0 0 1
    outer loop
      vertex 10 0 17.25
      vertex 0 15 17.25
      vertex 0 0 17.25
    endloop
  endfacet
  facet normal 0 1 0
    outer loop
      vertex 2.5 15 14.75
      vertex 10 15 17.25
      vertex 10 15 14.75
    endloop
  endfacet
  facet normal 0 1 0
    outer loop
      vertex 10 15 17.25
      vertex 2.5 15 14.75
      vertex 0 15 17.25
    endloop
  endfacet
  facet normal 0 1 0
    outer loop
      vertex 0 15 2.75
      vertex 2.5 15 14.75
      vertex 2.5 15 2.75
    endloop
  endfacet
  facet normal 0 1 0
    outer loop
      vertex 2.5 15 14.75
      vertex 0 15 2.75
      vertex 0 15 17.25
    endloop
  endfacet
  facet normal 0 -1 0
    outer loop
      vertex 0 0 17.25
      vertex 2.5 0 14.75
      vertex 10 0 17.25
    endloop
  endfacet
  facet normal 0 -1 0
    outer loop
      vertex 0 0 2.75
      vertex 2.5 0 14.75
      vertex 0 0 17.25
    endloop
  endfacet
  facet normal 0 -1 -0
    outer loop
      vertex 2.5 0 14.75
      vertex 0 0 2.75
      vertex 2.5 0 2.75
    endloop
  endfacet
  facet normal 0 -1 -0
    outer loop
      vertex 10 0 17.25
      vertex 2.5 0 14.75
      vertex 10 0 14.75
    endloop
  endfacet
  facet normal 1 -0 0
    outer loop
      vertex 10 0 17.25
      vertex 10 15 14.75
      vertex 10 15 17.25
    endloop
  endfacet
  facet normal 1 0 0
    outer loop
      vertex 10 15 14.75
      vertex 10 0 17.25
      vertex 10 0 14.75
    endloop
  endfacet
  facet normal 0 0 -1
    outer loop
      vertex 2.5 0 14.75
      vertex 10 15 14.75
      vertex 10 0 14.75
    endloop
  endfacet
  facet normal -0 0 -1
    outer loop
      vertex 10 15 14.75
      vertex 2.5 0 14.75
      vertex 2.5 15 14.75
    endloop
  endfacet
endsolid OpenSCAD_Model
