solid OpenSCAD_Model
  facet normal -0.951056 0.30902 0
    outer loop
      vertex 2.47243 16.257 -10.5
      vertex 3.79516 20.3279 2.5
      vertex 3.79516 20.3279 -10.5
    endloop
  endfacet
  facet normal -0.951056 0.30902 0
    outer loop
      vertex 3.79516 20.3279 2.5
      vertex 2.47243 16.257 -10.5
      vertex 2.47243 16.257 2.5
    endloop
  endfacet
  facet normal 0.207911 -0.978148 0
    outer loop
      vertex 24.6402 -8.36283 -10.5
      vertex 28.8271 -7.47288 2.5
      vertex 24.6402 -8.36283 2.5
    endloop
  endfacet
  facet normal 0.207911 -0.978148 0
    outer loop
      vertex 28.8271 -7.47288 2.5
      vertex 24.6402 -8.36283 -10.5
      vertex 28.8271 -7.47288 -10.5
    endloop
  endfacet
  facet normal -0.994522 0.104529 0
    outer loop
      vertex 2.025 12 -10.5
      vertex 2.47243 16.257 2.5
      vertex 2.47243 16.257 -10.5
    endloop
  endfacet
  facet normal -0.994522 0.104529 0
    outer loop
      vertex 2.47243 16.257 2.5
      vertex 2.025 12 -10.5
      vertex 2.025 12 2.5
    endloop
  endfacet
  facet normal 0 -1 0
    outer loop
      vertex 20.3598 -8.36283 -10.5
      vertex 24.6402 -8.36283 2.5
      vertex 20.3598 -8.36283 2.5
    endloop
  endfacet
  facet normal 0 -1 -0
    outer loop
      vertex 24.6402 -8.36283 2.5
      vertex 20.3598 -8.36283 -10.5
      vertex 24.6402 -8.36283 -10.5
    endloop
  endfacet
  facet normal 0.406747 0.913541 -1.92089e-06
    outer loop
      vertex 29.4822 31.1812 -10.5
      vertex 28.8271 31.4729 0
      vertex 30.4853 30.7346 0
    endloop
  endfacet
  facet normal 0.406772 0.91353 0
    outer loop
      vertex 28.8271 31.4729 0
      vertex 29.4822 31.1812 -10.5
      vertex 28.8271 31.4729 -10.5
    endloop
  endfacet
  facet normal 0.994523 -0.104522 0
    outer loop
      vertex 42.5276 7.74301 0
      vertex 42.975 12 -10.5
      vertex 42.975 12 0
    endloop
  endfacet
  facet normal 0.994523 -0.104522 0
    outer loop
      vertex 42.975 12 -10.5
      vertex 42.5276 7.74301 0
      vertex 42.5276 7.74301 -10.5
    endloop
  endfacet
  facet normal 0.86601 -0.500027 0
    outer loop
      vertex 39.375 0.502687 2.5
      vertex 39.0646 -0.0349026 2.5
      vertex 39.375 0.502687 0
    endloop
  endfacet
  facet normal 0.866031 -0.499991 0
    outer loop
      vertex 39.375 0.502687 0
      vertex 41.2048 3.67207 -10.5
      vertex 41.2048 3.67207 0
    endloop
  endfacet
  facet normal 0.866028 -0.499996 -2.11445e-06
    outer loop
      vertex 39.375 0.502687 0
      vertex 39.0646 -0.0349026 -10.5
      vertex 41.2048 3.67207 -10.5
    endloop
  endfacet
  facet normal 0.86601 -0.500027 0
    outer loop
      vertex 39.0646 -0.0349026 -10.5
      vertex 39.375 0.502687 0
      vertex 39.0646 -0.0349026 2.5
    endloop
  endfacet
  facet normal -0.207911 -0.978148 0
    outer loop
      vertex 16.1729 -7.47288 -10.5
      vertex 20.3598 -8.36283 2.5
      vertex 16.1729 -7.47288 2.5
    endloop
  endfacet
  facet normal -0.207911 -0.978148 -0
    outer loop
      vertex 20.3598 -8.36283 2.5
      vertex 16.1729 -7.47288 -10.5
      vertex 20.3598 -8.36283 -10.5
    endloop
  endfacet
  facet normal 0.994523 0.104522 0
    outer loop
      vertex 42.975 12 0
      vertex 42.5276 16.257 -9.87292
      vertex 42.5276 16.257 0
    endloop
  endfacet
  facet normal 0.994523 0.104522 -0
    outer loop
      vertex 42.975 12 -10.5
      vertex 42.5276 16.257 -9.87292
      vertex 42.975 12 0
    endloop
  endfacet
  facet normal 0.994521 0.104534 -8.4326e-05
    outer loop
      vertex 42.5276 16.257 -9.87292
      vertex 42.975 12 -10.5
      vertex 42.5344 16.1918 -10.5
    endloop
  endfacet
  facet normal -0.866027 0.499997 0
    outer loop
      vertex 3.79516 20.3279 -10.5
      vertex 5.93538 24.0349 2.5
      vertex 5.93538 24.0349 -10.5
    endloop
  endfacet
  facet normal -0.866027 0.499997 0
    outer loop
      vertex 5.93538 24.0349 2.5
      vertex 3.79516 20.3279 -10.5
      vertex 3.79516 20.3279 2.5
    endloop
  endfacet
  facet normal 0.2079 0.97815 -0
    outer loop
      vertex 28.8271 31.4729 -10.5
      vertex 24.6402 32.3628 0
      vertex 28.8271 31.4729 0
    endloop
  endfacet
  facet normal 0.2079 0.97815 0
    outer loop
      vertex 24.6402 32.3628 0
      vertex 28.8271 31.4729 -10.5
      vertex 24.6402 32.3628 -10.5
    endloop
  endfacet
  facet normal -0.951056 -0.309017 0
    outer loop
      vertex 3.79516 3.67207 -10.5
      vertex 2.47243 7.74301 2.5
      vertex 2.47243 7.74301 -10.5
    endloop
  endfacet
  facet normal -0.951056 -0.309017 0
    outer loop
      vertex 2.47243 7.74301 2.5
      vertex 3.79516 3.67207 -10.5
      vertex 3.79516 3.67207 2.5
    endloop
  endfacet
  facet normal -0.587788 0.809015 0
    outer loop
      vertex 12.2625 29.7319 -10.5
      vertex 8.79955 27.2159 2.5
      vertex 12.2625 29.7319 2.5
    endloop
  endfacet
  facet normal -0.587788 0.809015 0
    outer loop
      vertex 8.79955 27.2159 2.5
      vertex 12.2625 29.7319 -10.5
      vertex 8.79955 27.2159 -10.5
    endloop
  endfacet
  facet normal 0.951038 0.309073 -1.29183e-07
    outer loop
      vertex 42.5276 16.257 0
      vertex 42.5016 16.337 -9.03125
      vertex 42.2097 17.2352 0
    endloop
  endfacet
  facet normal 0.951034 0.309086 0
    outer loop
      vertex 42.5016 16.337 -9.03125
      vertex 42.5276 16.257 0
      vertex 42.5276 16.257 -9.87292
    endloop
  endfacet
  facet normal 0.406734 -0.913547 0
    outer loop
      vertex 28.8271 -7.47288 -10.5
      vertex 32.7375 -5.73187 2.5
      vertex 28.8271 -7.47288 2.5
    endloop
  endfacet
  facet normal 0.406734 -0.913547 0
    outer loop
      vertex 32.7375 -5.73187 2.5
      vertex 28.8271 -7.47288 -10.5
      vertex 32.7375 -5.73187 -10.5
    endloop
  endfacet
  facet normal -0.406734 -0.913547 0
    outer loop
      vertex 12.2625 -5.73187 -10.5
      vertex 16.1729 -7.47288 2.5
      vertex 12.2625 -5.73187 2.5
    endloop
  endfacet
  facet normal -0.406734 -0.913547 -0
    outer loop
      vertex 16.1729 -7.47288 2.5
      vertex 12.2625 -5.73187 -10.5
      vertex 16.1729 -7.47288 -10.5
    endloop
  endfacet
  facet normal -0.743147 0.669129 0
    outer loop
      vertex 5.93538 24.0349 -10.5
      vertex 8.79955 27.2159 2.5
      vertex 8.79955 27.2159 -10.5
    endloop
  endfacet
  facet normal -0.743147 0.669129 0
    outer loop
      vertex 8.79955 27.2159 2.5
      vertex 5.93538 24.0349 -10.5
      vertex 5.93538 24.0349 2.5
    endloop
  endfacet
  facet normal -0.2079 0.97815 0
    outer loop
      vertex 20.3598 32.3628 -10.5
      vertex 16.1729 31.4729 0
      vertex 20.3598 32.3628 0
    endloop
  endfacet
  facet normal -0.2079 0.97815 0
    outer loop
      vertex 16.1729 31.4729 0
      vertex 20.3598 32.3628 -10.5
      vertex 16.1729 31.4729 -10.5
    endloop
  endfacet
  facet normal 0.587791 -0.809013 0
    outer loop
      vertex 32.7375 -5.73187 -10.5
      vertex 36.2004 -3.21589 2.5
      vertex 32.7375 -5.73187 2.5
    endloop
  endfacet
  facet normal 0.587791 -0.809013 0
    outer loop
      vertex 36.2004 -3.21589 2.5
      vertex 32.7375 -5.73187 -10.5
      vertex 36.2004 -3.21589 -10.5
    endloop
  endfacet
  facet normal -0.587785 -0.809017 0
    outer loop
      vertex 8.79955 -3.21589 -10.5
      vertex 12.2625 -5.73187 2.5
      vertex 8.79955 -3.21589 2.5
    endloop
  endfacet
  facet normal -0.587785 -0.809017 -0
    outer loop
      vertex 12.2625 -5.73187 2.5
      vertex 8.79955 -3.21589 -10.5
      vertex 12.2625 -5.73187 -10.5
    endloop
  endfacet
  facet normal 0 1 -0
    outer loop
      vertex 24.6402 32.3628 -10.5
      vertex 20.3598 32.3628 0
      vertex 24.6402 32.3628 0
    endloop
  endfacet
  facet normal 0 1 0
    outer loop
      vertex 20.3598 32.3628 0
      vertex 24.6402 32.3628 -10.5
      vertex 20.3598 32.3628 -10.5
    endloop
  endfacet
  facet normal 0.743142 -0.669134 0
    outer loop
      vertex 36.2004 -3.21589 2.5
      vertex 39.0646 -0.0349026 -10.5
      vertex 39.0646 -0.0349026 2.5
    endloop
  endfacet
  facet normal 0.743142 -0.669134 0
    outer loop
      vertex 39.0646 -0.0349026 -10.5
      vertex 36.2004 -3.21589 2.5
      vertex 36.2004 -3.21589 -10.5
    endloop
  endfacet
  facet normal 0 0 1
    outer loop
      vertex 39.3862 16.4028 2.5
      vertex 37.9058 15.2746 2.5
      vertex 38.25 12 2.5
    endloop
  endfacet
  facet normal 0 -0 1
    outer loop
      vertex 37.9058 15.2746 2.5
      vertex 38.4251 16.1985 2.5
      vertex 37.6056 16.1985 2.5
    endloop
  endfacet
  facet normal 0 0 1
    outer loop
      vertex 41.925 17.3357 2.5
      vertex 37.9058 8.72539 2.5
      vertex 54.375 0 2.5
    endloop
  endfacet
  facet normal 0 0 1
    outer loop
      vertex 37.9058 15.2746 2.5
      vertex 39.3862 16.4028 2.5
      vertex 38.4251 16.1985 2.5
    endloop
  endfacet
  facet normal 0 0 1
    outer loop
      vertex 54.375 0 2.5
      vertex 37.9058 8.72539 2.5
      vertex 39.375 0.502687 2.5
    endloop
  endfacet
  facet normal -0 0 1
    outer loop
      vertex 36.8883 5.5939 2.5
      vertex 39.375 0.502687 2.5
      vertex 37.9058 8.72539 2.5
    endloop
  endfacet
  facet normal -0 0 1
    outer loop
      vertex 35.242 2.74238 2.5
      vertex 39.375 0.502687 2.5
      vertex 36.8883 5.5939 2.5
    endloop
  endfacet
  facet normal 0 0 1
    outer loop
      vertex 39.375 0.502687 2.5
      vertex 35.242 2.74238 2.5
      vertex 39.0646 -0.0349026 2.5
    endloop
  endfacet
  facet normal 0 0 1
    outer loop
      vertex 39.0646 -0.0349026 2.5
      vertex 35.242 2.74238 2.5
      vertex 36.2004 -3.21589 2.5
    endloop
  endfacet
  facet normal -0 0 1
    outer loop
      vertex 33.0388 0.295469 2.5
      vertex 36.2004 -3.21589 2.5
      vertex 35.242 2.74238 2.5
    endloop
  endfacet
  facet normal 0 0 1
    outer loop
      vertex 33.0388 0.295469 2.5
      vertex 32.7375 -5.73187 2.5
      vertex 36.2004 -3.21589 2.5
    endloop
  endfacet
  facet normal -0 0 1
    outer loop
      vertex 30.375 -1.6399 2.5
      vertex 32.7375 -5.73187 2.5
      vertex 33.0388 0.295469 2.5
    endloop
  endfacet
  facet normal 0 0 1
    outer loop
      vertex 30.375 -1.6399 2.5
      vertex 28.8271 -7.47288 2.5
      vertex 32.7375 -5.73187 2.5
    endloop
  endfacet
  facet normal -0 0 1
    outer loop
      vertex 27.367 -2.97914 2.5
      vertex 28.8271 -7.47288 2.5
      vertex 30.375 -1.6399 2.5
    endloop
  endfacet
  facet normal 0 0 1
    outer loop
      vertex 27.367 -2.97914 2.5
      vertex 24.6402 -8.36283 2.5
      vertex 28.8271 -7.47288 2.5
    endloop
  endfacet
  facet normal -0 0 1
    outer loop
      vertex 24.1463 -3.66372 2.5
      vertex 24.6402 -8.36283 2.5
      vertex 27.367 -2.97914 2.5
    endloop
  endfacet
  facet normal -0 0 1
    outer loop
      vertex 20.8537 -3.66372 2.5
      vertex 24.6402 -8.36283 2.5
      vertex 24.1463 -3.66372 2.5
    endloop
  endfacet
  facet normal 0 0 1
    outer loop
      vertex 20.8537 -3.66372 2.5
      vertex 20.3598 -8.36283 2.5
      vertex 24.6402 -8.36283 2.5
    endloop
  endfacet
  facet normal 0 0 1
    outer loop
      vertex 17.633 -2.97914 2.5
      vertex 20.3598 -8.36283 2.5
      vertex 20.8537 -3.66372 2.5
    endloop
  endfacet
  facet normal 0 0 1
    outer loop
      vertex 17.633 -2.97914 2.5
      vertex 16.1729 -7.47288 2.5
      vertex 20.3598 -8.36283 2.5
    endloop
  endfacet
  facet normal 0 0 1
    outer loop
      vertex 14.625 -1.6399 2.5
      vertex 16.1729 -7.47288 2.5
      vertex 17.633 -2.97914 2.5
    endloop
  endfacet
  facet normal 0 0 1
    outer loop
      vertex 14.625 -1.6399 2.5
      vertex 12.2625 -5.73187 2.5
      vertex 16.1729 -7.47288 2.5
    endloop
  endfacet
  facet normal 0 0 1
    outer loop
      vertex 11.9612 0.295469 2.5
      vertex 12.2625 -5.73187 2.5
      vertex 14.625 -1.6399 2.5
    endloop
  endfacet
  facet normal 0 0 1
    outer loop
      vertex 8.79955 -3.21589 2.5
      vertex 11.9612 0.295469 2.5
      vertex 9.75798 2.74238 2.5
    endloop
  endfacet
  facet normal 0 0 1
    outer loop
      vertex 11.9612 0.295469 2.5
      vertex 8.79955 -3.21589 2.5
      vertex 12.2625 -5.73187 2.5
    endloop
  endfacet
  facet normal 0 0 1
    outer loop
      vertex 5.93538 -0.0349026 2.5
      vertex 9.75798 2.74238 2.5
      vertex 8.11166 5.5939 2.5
    endloop
  endfacet
  facet normal 0 0 1
    outer loop
      vertex 3.79516 3.67207 2.5
      vertex 8.11166 5.5939 2.5
      vertex 7.09418 8.72539 2.5
    endloop
  endfacet
  facet normal 0 0 1
    outer loop
      vertex 9.75798 2.74238 2.5
      vertex 5.93538 -0.0349026 2.5
      vertex 8.79955 -3.21589 2.5
    endloop
  endfacet
  facet normal 0 0 1
    outer loop
      vertex 2.47243 7.74301 2.5
      vertex 7.09418 8.72539 2.5
      vertex 6.75 12 2.5
    endloop
  endfacet
  facet normal -0 0 1
    outer loop
      vertex 2.47243 16.257 2.5
      vertex 7.09418 15.2746 2.5
      vertex 3.79516 20.3279 2.5
    endloop
  endfacet
  facet normal 0 0 1
    outer loop
      vertex 7.09418 15.2746 2.5
      vertex 2.47243 16.257 2.5
      vertex 6.75 12 2.5
    endloop
  endfacet
  facet normal 0 0 1
    outer loop
      vertex 8.11166 5.5939 2.5
      vertex 3.79516 3.67207 2.5
      vertex 5.93538 -0.0349026 2.5
    endloop
  endfacet
  facet normal 0 0 1
    outer loop
      vertex 2.025 12 2.5
      vertex 6.75 12 2.5
      vertex 2.47243 16.257 2.5
    endloop
  endfacet
  facet normal 0 0 1
    outer loop
      vertex 7.09418 8.72539 2.5
      vertex 2.47243 7.74301 2.5
      vertex 3.79516 3.67207 2.5
    endloop
  endfacet
  facet normal 0 0 1
    outer loop
      vertex 6.75 12 2.5
      vertex 2.025 12 2.5
      vertex 2.47243 7.74301 2.5
    endloop
  endfacet
  facet normal 0 0 1
    outer loop
      vertex 74 44.925 2.5
      vertex 54.375 29.925 2.5
      vertex 74 29.925 2.5
    endloop
  endfacet
  facet normal 0 0 1
    outer loop
      vertex 46.2473 24.0228 2.5
      vertex 54.375 29.925 2.5
      vertex 46.35 25 2.5
    endloop
  endfacet
  facet normal -0 0 1
    outer loop
      vertex 41.925 32.6643 2.5
      vertex 54.375 29.925 2.5
      vertex 74 44.925 2.5
    endloop
  endfacet
  facet normal 0 0 1
    outer loop
      vertex 54.375 29.925 2.5
      vertex 46.2473 25.9772 2.5
      vertex 46.35 25 2.5
    endloop
  endfacet
  facet normal 0 0 1
    outer loop
      vertex 54.375 29.925 2.5
      vertex 46.1566 26.84 2.5
      vertex 46.2473 25.9772 2.5
    endloop
  endfacet
  facet normal 0 0 1
    outer loop
      vertex 54.375 29.925 2.5
      vertex 45.5849 28.5996 2.5
      vertex 46.1566 26.84 2.5
    endloop
  endfacet
  facet normal 0 0 1
    outer loop
      vertex 54.375 29.925 2.5
      vertex 44.6598 30.2019 2.5
      vertex 45.5849 28.5996 2.5
    endloop
  endfacet
  facet normal 0 0 1
    outer loop
      vertex 54.375 29.925 2.5
      vertex 43.4218 31.5768 2.5
      vertex 44.6598 30.2019 2.5
    endloop
  endfacet
  facet normal 0 0 1
    outer loop
      vertex 54.375 29.925 2.5
      vertex 42.7199 32.0868 2.5
      vertex 43.4218 31.5768 2.5
    endloop
  endfacet
  facet normal 0 0 1
    outer loop
      vertex 54.375 29.925 2.5
      vertex 41.925 32.6643 2.5
      vertex 42.7199 32.0868 2.5
    endloop
  endfacet
  facet normal 0 0 1
    outer loop
      vertex 74 44.925 2.5
      vertex 41.0274 33.064 2.5
      vertex 41.925 32.6643 2.5
    endloop
  endfacet
  facet normal 0 0 1
    outer loop
      vertex 74 44.925 2.5
      vertex 40.2348 33.4169 2.5
      vertex 41.0274 33.064 2.5
    endloop
  endfacet
  facet normal 0 0 1
    outer loop
      vertex 74 44.925 2.5
      vertex 39.3862 33.5972 2.5
      vertex 40.2348 33.4169 2.5
    endloop
  endfacet
  facet normal 0 0 1
    outer loop
      vertex 74 44.925 2.5
      vertex 38.4251 33.8015 2.5
      vertex 39.3862 33.5972 2.5
    endloop
  endfacet
  facet normal 0 0 1
    outer loop
      vertex 74 44.925 2.5
      vertex 36.5749 33.8015 2.5
      vertex 38.4251 33.8015 2.5
    endloop
  endfacet
  facet normal -0 0 1
    outer loop
      vertex 0 44.925 2.5
      vertex 36.5749 33.8015 2.5
      vertex 74 44.925 2.5
    endloop
  endfacet
  facet normal 0 0 1
    outer loop
      vertex 36.5749 33.8015 2.5
      vertex 0 44.925 2.5
      vertex 35.6138 33.5972 2.5
    endloop
  endfacet
  facet normal 0 0 1
    outer loop
      vertex 12.6963 29.925 2.5
      vertex 32.2801 32.0868 2.5
      vertex 33.075 32.6643 2.5
    endloop
  endfacet
  facet normal 0 0 1
    outer loop
      vertex 28.8434 26.84 2.5
      vertex 27.367 26.9791 2.5
      vertex 28.7914 26.345 2.5
    endloop
  endfacet
  facet normal 0 0 1
    outer loop
      vertex 29.4151 28.5996 2.5
      vertex 27.367 26.9791 2.5
      vertex 28.8434 26.84 2.5
    endloop
  endfacet
  facet normal 0 0 1
    outer loop
      vertex 24.1463 27.6637 2.5
      vertex 29.4151 28.5996 2.5
      vertex 30.3402 30.2019 2.5
    endloop
  endfacet
  facet normal 0 0 1
    outer loop
      vertex 24.1463 27.6637 2.5
      vertex 30.3402 30.2019 2.5
      vertex 31.5782 31.5768 2.5
    endloop
  endfacet
  facet normal 0 0 1
    outer loop
      vertex 29.4151 28.5996 2.5
      vertex 24.1463 27.6637 2.5
      vertex 27.367 26.9791 2.5
    endloop
  endfacet
  facet normal 0 0 1
    outer loop
      vertex 32.2801 32.0868 2.5
      vertex 12.6963 29.925 2.5
      vertex 31.5782 31.5768 2.5
    endloop
  endfacet
  facet normal 0 0 1
    outer loop
      vertex 31.5782 31.5768 2.5
      vertex 20.8537 27.6637 2.5
      vertex 24.1463 27.6637 2.5
    endloop
  endfacet
  facet normal 0 0 1
    outer loop
      vertex 0 44.925 2.5
      vertex 33.075 32.6643 2.5
      vertex 33.9726 33.064 2.5
    endloop
  endfacet
  facet normal 0 0 1
    outer loop
      vertex 0 44.925 2.5
      vertex 33.9726 33.064 2.5
      vertex 34.7652 33.4169 2.5
    endloop
  endfacet
  facet normal 0 0 1
    outer loop
      vertex 31.5782 31.5768 2.5
      vertex 12.6963 29.925 2.5
      vertex 20.8537 27.6637 2.5
    endloop
  endfacet
  facet normal 0 0 1
    outer loop
      vertex 17.633 26.9791 2.5
      vertex 12.6963 29.925 2.5
      vertex 14.625 25.6399 2.5
    endloop
  endfacet
  facet normal 0 0 1
    outer loop
      vertex 20.8537 27.6637 2.5
      vertex 12.6963 29.925 2.5
      vertex 17.633 26.9791 2.5
    endloop
  endfacet
  facet normal 0 0 1
    outer loop
      vertex 35.6138 33.5972 2.5
      vertex 0 44.925 2.5
      vertex 34.7652 33.4169 2.5
    endloop
  endfacet
  facet normal 0 0 1
    outer loop
      vertex 33.075 32.6643 2.5
      vertex 0 44.925 2.5
      vertex 12.6963 29.925 2.5
    endloop
  endfacet
  facet normal 0 0 1
    outer loop
      vertex 12.6963 29.925 2.5
      vertex 0 44.925 2.5
      vertex 0 29.925 2.5
    endloop
  endfacet
  facet normal 0 0 1
    outer loop
      vertex 46.1566 23.16 2.5
      vertex 54.375 29.925 2.5
      vertex 46.2473 24.0228 2.5
    endloop
  endfacet
  facet normal 0 0 1
    outer loop
      vertex 45.5849 21.4004 2.5
      vertex 54.375 29.925 2.5
      vertex 46.1566 23.16 2.5
    endloop
  endfacet
  facet normal 0 0 1
    outer loop
      vertex 54.375 29.925 2.5
      vertex 45.5849 21.4004 2.5
      vertex 54.375 0 2.5
    endloop
  endfacet
  facet normal -0 0 1
    outer loop
      vertex 44.6598 19.7981 2.5
      vertex 54.375 0 2.5
      vertex 45.5849 21.4004 2.5
    endloop
  endfacet
  facet normal -0 0 1
    outer loop
      vertex 43.4218 18.4232 2.5
      vertex 54.375 0 2.5
      vertex 44.6598 19.7981 2.5
    endloop
  endfacet
  facet normal -0 0 1
    outer loop
      vertex 42.7199 17.9132 2.5
      vertex 54.375 0 2.5
      vertex 43.4218 18.4232 2.5
    endloop
  endfacet
  facet normal -0 0 1
    outer loop
      vertex 41.925 17.3357 2.5
      vertex 54.375 0 2.5
      vertex 42.7199 17.9132 2.5
    endloop
  endfacet
  facet normal 0 0 1
    outer loop
      vertex 38.25 12 2.5
      vertex 41.925 17.3357 2.5
      vertex 41.0274 16.936 2.5
    endloop
  endfacet
  facet normal 0 0 1
    outer loop
      vertex 38.25 12 2.5
      vertex 41.0274 16.936 2.5
      vertex 40.2348 16.5831 2.5
    endloop
  endfacet
  facet normal 0 0 1
    outer loop
      vertex 38.25 12 2.5
      vertex 40.2348 16.5831 2.5
      vertex 39.3862 16.4028 2.5
    endloop
  endfacet
  facet normal 0 0 1
    outer loop
      vertex 37.9058 8.72539 2.5
      vertex 41.925 17.3357 2.5
      vertex 38.25 12 2.5
    endloop
  endfacet
  facet normal 0 0 1
    outer loop
      vertex 54.375 0 2.5
      vertex 39.375 0.502687 2.5
      vertex 39.375 0 2.5
    endloop
  endfacet
  facet normal -0 0 1
    outer loop
      vertex 12.2625 29.7319 2.5
      vertex 14.625 25.6399 2.5
      vertex 12.6963 29.925 2.5
    endloop
  endfacet
  facet normal 0 0 1
    outer loop
      vertex 12.2625 29.7319 2.5
      vertex 11.9612 23.7045 2.5
      vertex 14.625 25.6399 2.5
    endloop
  endfacet
  facet normal -0 0 1
    outer loop
      vertex 8.79955 27.2159 2.5
      vertex 11.9612 23.7045 2.5
      vertex 12.2625 29.7319 2.5
    endloop
  endfacet
  facet normal 0 0 1
    outer loop
      vertex 11.9612 23.7045 2.5
      vertex 8.79955 27.2159 2.5
      vertex 9.75798 21.2576 2.5
    endloop
  endfacet
  facet normal -0 0 1
    outer loop
      vertex 5.93538 24.0349 2.5
      vertex 9.75798 21.2576 2.5
      vertex 8.79955 27.2159 2.5
    endloop
  endfacet
  facet normal 0 0 1
    outer loop
      vertex 9.75798 21.2576 2.5
      vertex 5.93538 24.0349 2.5
      vertex 8.11166 18.4061 2.5
    endloop
  endfacet
  facet normal 0 0 1
    outer loop
      vertex 8.11166 18.4061 2.5
      vertex 3.79516 20.3279 2.5
      vertex 7.09418 15.2746 2.5
    endloop
  endfacet
  facet normal -0 0 1
    outer loop
      vertex 3.79516 20.3279 2.5
      vertex 8.11166 18.4061 2.5
      vertex 5.93538 24.0349 2.5
    endloop
  endfacet
  facet normal -0.406741 0.913544 0
    outer loop
      vertex 16.1729 31.4729 0
      vertex 16.1729 31.4729 -10.5
      vertex 12.6963 29.925 0
    endloop
  endfacet
  facet normal -0.406666 0.913577 0
    outer loop
      vertex 12.6963 29.925 0
      vertex 12.2625 29.7319 2.5
      vertex 12.6963 29.925 2.5
    endloop
  endfacet
  facet normal -0.406666 0.913577 0
    outer loop
      vertex 12.6963 29.925 0
      vertex 12.2625 29.7319 -10.5
      vertex 12.2625 29.7319 2.5
    endloop
  endfacet
  facet normal -0.406732 0.913547 3.28314e-06
    outer loop
      vertex 12.2625 29.7319 -10.5
      vertex 12.6963 29.925 0
      vertex 16.1729 31.4729 -10.5
    endloop
  endfacet
  facet normal 0 0 -1
    outer loop
      vertex 38.25 12 -10.5
      vertex 42.975 12 -10.5
      vertex 42.5276 7.74301 -10.5
    endloop
  endfacet
  facet normal 0 0 -1
    outer loop
      vertex 37.9058 8.72539 -10.5
      vertex 42.5276 7.74301 -10.5
      vertex 41.2048 3.67207 -10.5
    endloop
  endfacet
  facet normal 0 -0 -1
    outer loop
      vertex 40.0537 15.2229 -10.5
      vertex 42.975 12 -10.5
      vertex 38.25 12 -10.5
    endloop
  endfacet
  facet normal 0 0 -1
    outer loop
      vertex 42.975 12 -10.5
      vertex 41.1808 15.5891 -10.5
      vertex 42.5344 16.1918 -10.5
    endloop
  endfacet
  facet normal 0 0 -1
    outer loop
      vertex 42.975 12 -10.5
      vertex 40.6365 15.3468 -10.5
      vertex 41.1808 15.5891 -10.5
    endloop
  endfacet
  facet normal 0 0 -1
    outer loop
      vertex 36.8883 5.5939 -10.5
      vertex 41.2048 3.67207 -10.5
      vertex 39.0646 -0.0349026 -10.5
    endloop
  endfacet
  facet normal 0 0 -1
    outer loop
      vertex 42.5276 7.74301 -10.5
      vertex 37.9058 8.72539 -10.5
      vertex 38.25 12 -10.5
    endloop
  endfacet
  facet normal 0 0 -1
    outer loop
      vertex 40.0537 15.2229 -10.5
      vertex 38.25 12 -10.5
      vertex 38.561 14.9056 -10.5
    endloop
  endfacet
  facet normal 0 0 -1
    outer loop
      vertex 42.975 12 -10.5
      vertex 40.0537 15.2229 -10.5
      vertex 40.6365 15.3468 -10.5
    endloop
  endfacet
  facet normal 0 0 -1
    outer loop
      vertex 41.2048 3.67207 -10.5
      vertex 36.8883 5.5939 -10.5
      vertex 37.9058 8.72539 -10.5
    endloop
  endfacet
  facet normal 0 0 -1
    outer loop
      vertex 35.242 2.74238 -10.5
      vertex 39.0646 -0.0349026 -10.5
      vertex 36.2004 -3.21589 -10.5
    endloop
  endfacet
  facet normal 0 0 -1
    outer loop
      vertex 39.0646 -0.0349026 -10.5
      vertex 35.242 2.74238 -10.5
      vertex 36.8883 5.5939 -10.5
    endloop
  endfacet
  facet normal 0 0 -1
    outer loop
      vertex 36.2004 -3.21589 -10.5
      vertex 33.0388 0.295469 -10.5
      vertex 35.242 2.74238 -10.5
    endloop
  endfacet
  facet normal 0 0 -1
    outer loop
      vertex 32.7375 -5.73187 -10.5
      vertex 33.0388 0.295469 -10.5
      vertex 36.2004 -3.21589 -10.5
    endloop
  endfacet
  facet normal 0 0 -1
    outer loop
      vertex 32.7375 -5.73187 -10.5
      vertex 30.375 -1.6399 -10.5
      vertex 33.0388 0.295469 -10.5
    endloop
  endfacet
  facet normal 0 0 -1
    outer loop
      vertex 28.8271 -7.47288 -10.5
      vertex 30.375 -1.6399 -10.5
      vertex 32.7375 -5.73187 -10.5
    endloop
  endfacet
  facet normal 0 0 -1
    outer loop
      vertex 28.8271 -7.47288 -10.5
      vertex 27.367 -2.97914 -10.5
      vertex 30.375 -1.6399 -10.5
    endloop
  endfacet
  facet normal 0 0 -1
    outer loop
      vertex 24.6402 -8.36283 -10.5
      vertex 27.367 -2.97914 -10.5
      vertex 28.8271 -7.47288 -10.5
    endloop
  endfacet
  facet normal 0 0 -1
    outer loop
      vertex 24.6402 -8.36283 -10.5
      vertex 24.1463 -3.66372 -10.5
      vertex 27.367 -2.97914 -10.5
    endloop
  endfacet
  facet normal 0 0 -1
    outer loop
      vertex 24.6402 -8.36283 -10.5
      vertex 20.8537 -3.66372 -10.5
      vertex 24.1463 -3.66372 -10.5
    endloop
  endfacet
  facet normal 0 0 -1
    outer loop
      vertex 20.3598 -8.36283 -10.5
      vertex 20.8537 -3.66372 -10.5
      vertex 24.6402 -8.36283 -10.5
    endloop
  endfacet
  facet normal 0 0 -1
    outer loop
      vertex 20.3598 -8.36283 -10.5
      vertex 17.633 -2.97914 -10.5
      vertex 20.8537 -3.66372 -10.5
    endloop
  endfacet
  facet normal 0 0 -1
    outer loop
      vertex 16.1729 -7.47288 -10.5
      vertex 17.633 -2.97914 -10.5
      vertex 20.3598 -8.36283 -10.5
    endloop
  endfacet
  facet normal 0 0 -1
    outer loop
      vertex 16.1729 -7.47288 -10.5
      vertex 14.625 -1.6399 -10.5
      vertex 17.633 -2.97914 -10.5
    endloop
  endfacet
  facet normal 0 0 -1
    outer loop
      vertex 12.2625 -5.73187 -10.5
      vertex 14.625 -1.6399 -10.5
      vertex 16.1729 -7.47288 -10.5
    endloop
  endfacet
  facet normal 0 0 -1
    outer loop
      vertex 12.2625 -5.73187 -10.5
      vertex 11.9612 0.295469 -10.5
      vertex 14.625 -1.6399 -10.5
    endloop
  endfacet
  facet normal 0 0 -1
    outer loop
      vertex 8.79955 -3.21589 -10.5
      vertex 11.9612 0.295469 -10.5
      vertex 12.2625 -5.73187 -10.5
    endloop
  endfacet
  facet normal -0 0 -1
    outer loop
      vertex 11.9612 0.295469 -10.5
      vertex 8.79955 -3.21589 -10.5
      vertex 9.75798 2.74238 -10.5
    endloop
  endfacet
  facet normal 0 0 -1
    outer loop
      vertex 5.93538 -0.0349026 -10.5
      vertex 9.75798 2.74238 -10.5
      vertex 8.79955 -3.21589 -10.5
    endloop
  endfacet
  facet normal -0 0 -1
    outer loop
      vertex 9.75798 2.74238 -10.5
      vertex 5.93538 -0.0349026 -10.5
      vertex 8.11166 5.5939 -10.5
    endloop
  endfacet
  facet normal -0 0 -1
    outer loop
      vertex 8.11166 5.5939 -10.5
      vertex 3.79516 3.67207 -10.5
      vertex 7.09418 8.72539 -10.5
    endloop
  endfacet
  facet normal 0 0 -1
    outer loop
      vertex 3.79516 3.67207 -10.5
      vertex 8.11166 5.5939 -10.5
      vertex 5.93538 -0.0349026 -10.5
    endloop
  endfacet
  facet normal -0 0 -1
    outer loop
      vertex 38.561 14.9056 -10.5
      vertex 38.25 12 -10.5
      vertex 37.9446 14.9056 -10.5
    endloop
  endfacet
  facet normal 0 0 -1
    outer loop
      vertex 29.2885 30.966 -10.5
      vertex 28.8271 31.4729 -10.5
      vertex 29.4822 31.1812 -10.5
    endloop
  endfacet
  facet normal 0 0 -1
    outer loop
      vertex 28.2275 29.1284 -10.5
      vertex 28.8271 31.4729 -10.5
      vertex 29.2885 30.966 -10.5
    endloop
  endfacet
  facet normal 0 0 -1
    outer loop
      vertex 27.367 26.9791 -10.5
      vertex 28.2275 29.1284 -10.5
      vertex 27.5718 27.1103 -10.5
    endloop
  endfacet
  facet normal 0 0 -1
    outer loop
      vertex 27.367 26.9791 -10.5
      vertex 27.5718 27.1103 -10.5
      vertex 27.5495 26.8979 -10.5
    endloop
  endfacet
  facet normal 0 0 -1
    outer loop
      vertex 28.2275 29.1284 -10.5
      vertex 27.367 26.9791 -10.5
      vertex 24.1463 27.6637 -10.5
    endloop
  endfacet
  facet normal 0 0 -1
    outer loop
      vertex 28.2275 29.1284 -10.5
      vertex 24.6402 32.3628 -10.5
      vertex 28.8271 31.4729 -10.5
    endloop
  endfacet
  facet normal -0 0 -1
    outer loop
      vertex 28.2275 29.1284 -10.5
      vertex 24.1463 27.6637 -10.5
      vertex 24.6402 32.3628 -10.5
    endloop
  endfacet
  facet normal 0 0 -1
    outer loop
      vertex 20.8537 27.6637 -10.5
      vertex 24.6402 32.3628 -10.5
      vertex 24.1463 27.6637 -10.5
    endloop
  endfacet
  facet normal 0 0 -1
    outer loop
      vertex 20.8537 27.6637 -10.5
      vertex 20.3598 32.3628 -10.5
      vertex 24.6402 32.3628 -10.5
    endloop
  endfacet
  facet normal 0 0 -1
    outer loop
      vertex 17.633 26.9791 -10.5
      vertex 20.3598 32.3628 -10.5
      vertex 20.8537 27.6637 -10.5
    endloop
  endfacet
  facet normal 0 0 -1
    outer loop
      vertex 17.633 26.9791 -10.5
      vertex 16.1729 31.4729 -10.5
      vertex 20.3598 32.3628 -10.5
    endloop
  endfacet
  facet normal 0 0 -1
    outer loop
      vertex 14.625 25.6399 -10.5
      vertex 16.1729 31.4729 -10.5
      vertex 17.633 26.9791 -10.5
    endloop
  endfacet
  facet normal 0 0 -1
    outer loop
      vertex 14.625 25.6399 -10.5
      vertex 12.2625 29.7319 -10.5
      vertex 16.1729 31.4729 -10.5
    endloop
  endfacet
  facet normal 0 0 -1
    outer loop
      vertex 11.9612 23.7045 -10.5
      vertex 12.2625 29.7319 -10.5
      vertex 14.625 25.6399 -10.5
    endloop
  endfacet
  facet normal 0 0 -1
    outer loop
      vertex 8.79955 27.2159 -10.5
      vertex 11.9612 23.7045 -10.5
      vertex 9.75798 21.2576 -10.5
    endloop
  endfacet
  facet normal 0 0 -1
    outer loop
      vertex 11.9612 23.7045 -10.5
      vertex 8.79955 27.2159 -10.5
      vertex 12.2625 29.7319 -10.5
    endloop
  endfacet
  facet normal 0 0 -1
    outer loop
      vertex 5.93538 24.0349 -10.5
      vertex 9.75798 21.2576 -10.5
      vertex 8.11166 18.4061 -10.5
    endloop
  endfacet
  facet normal 0 0 -1
    outer loop
      vertex 3.79516 20.3279 -10.5
      vertex 8.11166 18.4061 -10.5
      vertex 7.09418 15.2746 -10.5
    endloop
  endfacet
  facet normal 0 0 -1
    outer loop
      vertex 9.75798 21.2576 -10.5
      vertex 5.93538 24.0349 -10.5
      vertex 8.79955 27.2159 -10.5
    endloop
  endfacet
  facet normal 0 0 -1
    outer loop
      vertex 2.47243 16.257 -10.5
      vertex 7.09418 15.2746 -10.5
      vertex 6.75 12 -10.5
    endloop
  endfacet
  facet normal 0 0 -1
    outer loop
      vertex 2.47243 7.74301 -10.5
      vertex 7.09418 8.72539 -10.5
      vertex 3.79516 3.67207 -10.5
    endloop
  endfacet
  facet normal -0 0 -1
    outer loop
      vertex 7.09418 8.72539 -10.5
      vertex 2.47243 7.74301 -10.5
      vertex 6.75 12 -10.5
    endloop
  endfacet
  facet normal 0 0 -1
    outer loop
      vertex 8.11166 18.4061 -10.5
      vertex 3.79516 20.3279 -10.5
      vertex 5.93538 24.0349 -10.5
    endloop
  endfacet
  facet normal 0 0 -1
    outer loop
      vertex 2.025 12 -10.5
      vertex 6.75 12 -10.5
      vertex 2.47243 7.74301 -10.5
    endloop
  endfacet
  facet normal 0 0 -1
    outer loop
      vertex 7.09418 15.2746 -10.5
      vertex 2.47243 16.257 -10.5
      vertex 3.79516 20.3279 -10.5
    endloop
  endfacet
  facet normal 0 0 -1
    outer loop
      vertex 6.75 12 -10.5
      vertex 2.025 12 -10.5
      vertex 2.47243 16.257 -10.5
    endloop
  endfacet
  facet normal -0.866026 -0.5 0
    outer loop
      vertex 5.93538 -0.0349026 -10.5
      vertex 3.79516 3.67207 2.5
      vertex 3.79516 3.67207 -10.5
    endloop
  endfacet
  facet normal -0.866026 -0.5 0
    outer loop
      vertex 3.79516 3.67207 2.5
      vertex 5.93538 -0.0349026 -10.5
      vertex 5.93538 -0.0349026 2.5
    endloop
  endfacet
  facet normal -0.743145 -0.66913 0
    outer loop
      vertex 8.79955 -3.21589 -10.5
      vertex 5.93538 -0.0349026 2.5
      vertex 5.93538 -0.0349026 -10.5
    endloop
  endfacet
  facet normal -0.743145 -0.66913 0
    outer loop
      vertex 5.93538 -0.0349026 2.5
      vertex 8.79955 -3.21589 -10.5
      vertex 8.79955 -3.21589 2.5
    endloop
  endfacet
  facet normal 0.951052 -0.309032 0
    outer loop
      vertex 41.2048 3.67207 0
      vertex 42.5276 7.74301 -10.5
      vertex 42.5276 7.74301 0
    endloop
  endfacet
  facet normal 0.951052 -0.309032 0
    outer loop
      vertex 42.5276 7.74301 -10.5
      vertex 41.2048 3.67207 0
      vertex 41.2048 3.67207 -10.5
    endloop
  endfacet
  facet normal -0.994522 -0.104529 0
    outer loop
      vertex 2.47243 7.74301 -10.5
      vertex 2.025 12 2.5
      vertex 2.025 12 -10.5
    endloop
  endfacet
  facet normal -0.994522 -0.104529 0
    outer loop
      vertex 2.025 12 2.5
      vertex 2.47243 7.74301 -10.5
      vertex 2.47243 7.74301 2.5
    endloop
  endfacet
  facet normal -0.951054 -0.309023 0
    outer loop
      vertex 37.9058 15.2746 -6.78961
      vertex 37.9058 15.2746 2.5
      vertex 37.6056 16.1985 2.5
    endloop
  endfacet
  facet normal -0.994522 -0.104532 -4.12166e-06
    outer loop
      vertex 38.25 12 -10.5
      vertex 37.9058 15.2746 -6.78961
      vertex 37.9446 14.9056 -10.5
    endloop
  endfacet
  facet normal -0.994521 -0.104536 0
    outer loop
      vertex 37.9058 15.2746 -6.78961
      vertex 38.25 12 -10.5
      vertex 38.25 12 2.5
    endloop
  endfacet
  facet normal -0.994521 -0.104536 0
    outer loop
      vertex 37.9058 15.2746 -6.78961
      vertex 38.25 12 2.5
      vertex 37.9058 15.2746 2.5
    endloop
  endfacet
  facet normal -0.951055 0.309022 0
    outer loop
      vertex 36.8883 5.5939 -10.5
      vertex 37.9058 8.72539 2.5
      vertex 37.9058 8.72539 -10.5
    endloop
  endfacet
  facet normal -0.951055 0.309022 0
    outer loop
      vertex 37.9058 8.72539 2.5
      vertex 36.8883 5.5939 -10.5
      vertex 36.8883 5.5939 2.5
    endloop
  endfacet
  facet normal -0.40651 -0.913646 0
    outer loop
      vertex 27.5495 26.8979 -10.5
      vertex 27.367 26.9791 2.5
      vertex 27.367 26.9791 -10.5
    endloop
  endfacet
  facet normal -0.406692 -0.913565 -3.05735e-06
    outer loop
      vertex 27.367 26.9791 2.5
      vertex 27.5495 26.8979 -10.5
      vertex 28.7914 26.345 2.5
    endloop
  endfacet
  facet normal 0.587792 -0.809012 0
    outer loop
      vertex 11.9612 23.7045 -10.5
      vertex 14.625 25.6399 2.5
      vertex 11.9612 23.7045 2.5
    endloop
  endfacet
  facet normal 0.587792 -0.809012 0
    outer loop
      vertex 14.625 25.6399 2.5
      vertex 11.9612 23.7045 -10.5
      vertex 14.625 25.6399 -10.5
    endloop
  endfacet
  facet normal 0.406725 -0.913551 0
    outer loop
      vertex 14.625 25.6399 -10.5
      vertex 17.633 26.9791 2.5
      vertex 14.625 25.6399 2.5
    endloop
  endfacet
  facet normal 0.406725 -0.913551 0
    outer loop
      vertex 17.633 26.9791 2.5
      vertex 14.625 25.6399 -10.5
      vertex 17.633 26.9791 -10.5
    endloop
  endfacet
  facet normal -0.587786 0.809016 0
    outer loop
      vertex 33.0388 0.295469 -10.5
      vertex 30.375 -1.6399 2.5
      vertex 33.0388 0.295469 2.5
    endloop
  endfacet
  facet normal -0.587786 0.809016 0
    outer loop
      vertex 30.375 -1.6399 2.5
      vertex 33.0388 0.295469 -10.5
      vertex 30.375 -1.6399 -10.5
    endloop
  endfacet
  facet normal 0.866026 0.499999 0
    outer loop
      vertex 9.75798 2.74238 2.5
      vertex 8.11166 5.5939 -10.5
      vertex 8.11166 5.5939 2.5
    endloop
  endfacet
  facet normal 0.866026 0.499999 0
    outer loop
      vertex 8.11166 5.5939 -10.5
      vertex 9.75798 2.74238 2.5
      vertex 9.75798 2.74238 -10.5
    endloop
  endfacet
  facet normal -0.406735 0.913546 0
    outer loop
      vertex 30.375 -1.6399 -10.5
      vertex 27.367 -2.97914 2.5
      vertex 30.375 -1.6399 2.5
    endloop
  endfacet
  facet normal -0.406735 0.913546 0
    outer loop
      vertex 27.367 -2.97914 2.5
      vertex 30.375 -1.6399 -10.5
      vertex 27.367 -2.97914 -10.5
    endloop
  endfacet
  facet normal -0.207911 0.978148 0
    outer loop
      vertex 27.367 -2.97914 -10.5
      vertex 24.1463 -3.66372 2.5
      vertex 27.367 -2.97914 2.5
    endloop
  endfacet
  facet normal -0.207911 0.978148 0
    outer loop
      vertex 24.1463 -3.66372 2.5
      vertex 27.367 -2.97914 -10.5
      vertex 24.1463 -3.66372 -10.5
    endloop
  endfacet
  facet normal 0.951057 -0.309015 0
    outer loop
      vertex 7.09418 15.2746 2.5
      vertex 8.11166 18.4061 -10.5
      vertex 8.11166 18.4061 2.5
    endloop
  endfacet
  facet normal 0.951057 -0.309015 0
    outer loop
      vertex 8.11166 18.4061 -10.5
      vertex 7.09418 15.2746 2.5
      vertex 7.09418 15.2746 -10.5
    endloop
  endfacet
  facet normal -0.994521 0.104536 0
    outer loop
      vertex 37.9058 8.72539 -10.5
      vertex 38.25 12 2.5
      vertex 38.25 12 -10.5
    endloop
  endfacet
  facet normal -0.994521 0.104536 0
    outer loop
      vertex 38.25 12 2.5
      vertex 37.9058 8.72539 -10.5
      vertex 37.9058 8.72539 2.5
    endloop
  endfacet
  facet normal 0.743142 -0.669134 0
    outer loop
      vertex 9.75798 21.2576 2.5
      vertex 11.9612 23.7045 -10.5
      vertex 11.9612 23.7045 2.5
    endloop
  endfacet
  facet normal 0.743142 -0.669134 0
    outer loop
      vertex 11.9612 23.7045 -10.5
      vertex 9.75798 21.2576 2.5
      vertex 9.75798 21.2576 -10.5
    endloop
  endfacet
  facet normal 0 -1 0
    outer loop
      vertex 20.8537 27.6637 -10.5
      vertex 24.1463 27.6637 2.5
      vertex 20.8537 27.6637 2.5
    endloop
  endfacet
  facet normal 0 -1 -0
    outer loop
      vertex 24.1463 27.6637 2.5
      vertex 20.8537 27.6637 -10.5
      vertex 24.1463 27.6637 -10.5
    endloop
  endfacet
  facet normal -0.866029 0.499994 0
    outer loop
      vertex 35.242 2.74238 -10.5
      vertex 36.8883 5.5939 2.5
      vertex 36.8883 5.5939 -10.5
    endloop
  endfacet
  facet normal -0.866029 0.499994 0
    outer loop
      vertex 36.8883 5.5939 2.5
      vertex 35.242 2.74238 -10.5
      vertex 35.242 2.74238 2.5
    endloop
  endfacet
  facet normal 0.207917 -0.978146 0
    outer loop
      vertex 17.633 26.9791 -10.5
      vertex 20.8537 27.6637 2.5
      vertex 17.633 26.9791 2.5
    endloop
  endfacet
  facet normal 0.207917 -0.978146 0
    outer loop
      vertex 20.8537 27.6637 2.5
      vertex 17.633 26.9791 -10.5
      vertex 20.8537 27.6637 -10.5
    endloop
  endfacet
  facet normal -0.743146 0.669129 0
    outer loop
      vertex 33.0388 0.295469 -10.5
      vertex 35.242 2.74238 2.5
      vertex 35.242 2.74238 -10.5
    endloop
  endfacet
  facet normal -0.743146 0.669129 0
    outer loop
      vertex 35.242 2.74238 2.5
      vertex 33.0388 0.295469 -10.5
      vertex 33.0388 0.295469 2.5
    endloop
  endfacet
  facet normal 0.406735 0.913546 -0
    outer loop
      vertex 17.633 -2.97914 -10.5
      vertex 14.625 -1.6399 2.5
      vertex 17.633 -2.97914 2.5
    endloop
  endfacet
  facet normal 0.406735 0.913546 0
    outer loop
      vertex 14.625 -1.6399 2.5
      vertex 17.633 -2.97914 -10.5
      vertex 14.625 -1.6399 -10.5
    endloop
  endfacet
  facet normal 0.587786 0.809016 -0
    outer loop
      vertex 14.625 -1.6399 -10.5
      vertex 11.9612 0.295469 2.5
      vertex 14.625 -1.6399 2.5
    endloop
  endfacet
  facet normal 0.587786 0.809016 0
    outer loop
      vertex 11.9612 0.295469 2.5
      vertex 14.625 -1.6399 -10.5
      vertex 11.9612 0.295469 -10.5
    endloop
  endfacet
  facet normal 0.994522 -0.10453 0
    outer loop
      vertex 6.75 12 2.5
      vertex 7.09418 15.2746 -10.5
      vertex 7.09418 15.2746 2.5
    endloop
  endfacet
  facet normal 0.994522 -0.10453 0
    outer loop
      vertex 7.09418 15.2746 -10.5
      vertex 6.75 12 2.5
      vertex 6.75 12 -10.5
    endloop
  endfacet
  facet normal 0.207911 0.978148 -0
    outer loop
      vertex 20.8537 -3.66372 -10.5
      vertex 17.633 -2.97914 2.5
      vertex 20.8537 -3.66372 2.5
    endloop
  endfacet
  facet normal 0.207911 0.978148 0
    outer loop
      vertex 17.633 -2.97914 2.5
      vertex 20.8537 -3.66372 -10.5
      vertex 17.633 -2.97914 -10.5
    endloop
  endfacet
  facet normal 0 1 -0
    outer loop
      vertex 24.1463 -3.66372 -10.5
      vertex 20.8537 -3.66372 2.5
      vertex 24.1463 -3.66372 2.5
    endloop
  endfacet
  facet normal 0 1 0
    outer loop
      vertex 20.8537 -3.66372 2.5
      vertex 24.1463 -3.66372 -10.5
      vertex 20.8537 -3.66372 -10.5
    endloop
  endfacet
  facet normal 0.951057 0.309016 0
    outer loop
      vertex 8.11166 5.5939 2.5
      vertex 7.09418 8.72539 -10.5
      vertex 7.09418 8.72539 2.5
    endloop
  endfacet
  facet normal 0.951057 0.309016 0
    outer loop
      vertex 7.09418 8.72539 -10.5
      vertex 8.11166 5.5939 2.5
      vertex 8.11166 5.5939 -10.5
    endloop
  endfacet
  facet normal 0.743143 0.669133 0
    outer loop
      vertex 11.9612 0.295469 2.5
      vertex 9.75798 2.74238 -10.5
      vertex 9.75798 2.74238 2.5
    endloop
  endfacet
  facet normal 0.743143 0.669133 0
    outer loop
      vertex 9.75798 2.74238 -10.5
      vertex 11.9612 0.295469 2.5
      vertex 11.9612 0.295469 -10.5
    endloop
  endfacet
  facet normal -0.207917 -0.978146 0
    outer loop
      vertex 24.1463 27.6637 -10.5
      vertex 27.367 26.9791 2.5
      vertex 24.1463 27.6637 2.5
    endloop
  endfacet
  facet normal -0.207917 -0.978146 -0
    outer loop
      vertex 27.367 26.9791 2.5
      vertex 24.1463 27.6637 -10.5
      vertex 27.367 26.9791 -10.5
    endloop
  endfacet
  facet normal 0.994522 0.10453 0
    outer loop
      vertex 7.09418 8.72539 2.5
      vertex 6.75 12 -10.5
      vertex 6.75 12 2.5
    endloop
  endfacet
  facet normal 0.994522 0.10453 0
    outer loop
      vertex 6.75 12 -10.5
      vertex 7.09418 8.72539 2.5
      vertex 7.09418 8.72539 -10.5
    endloop
  endfacet
  facet normal 0.866025 -0.500001 0
    outer loop
      vertex 8.11166 18.4061 2.5
      vertex 9.75798 21.2576 -10.5
      vertex 9.75798 21.2576 2.5
    endloop
  endfacet
  facet normal 0.866025 -0.500001 0
    outer loop
      vertex 9.75798 21.2576 -10.5
      vertex 8.11166 18.4061 2.5
      vertex 8.11166 18.4061 -10.5
    endloop
  endfacet
  facet normal 1 -0 0
    outer loop
      vertex 0 29.925 14.75
      vertex 0 44.925 2.5
      vertex 0 44.925 14.75
    endloop
  endfacet
  facet normal 1 0 0
    outer loop
      vertex 0 44.925 2.5
      vertex 0 29.925 14.75
      vertex 0 29.925 2.5
    endloop
  endfacet
  facet normal 0 0 0
    outer loop
      vertex 0 44.925 14.75
      vertex 0 44.925 2.5
      vertex 0 44.925 0
    endloop
  endfacet
  facet normal 0 0 -1
    outer loop
      vertex 45.8133 21.2987 0
      vertex 54.375 29.925 0
      vertex 54.375 -2.5 0
    endloop
  endfacet
  facet normal 0 0 -1
    outer loop
      vertex 54.375 29.925 0
      vertex 46.4864 23.9189 0
      vertex 46.6 25 0
    endloop
  endfacet
  facet normal 0 0 -1
    outer loop
      vertex 54.375 29.925 0
      vertex 46.4011 23.108 0
      vertex 46.4864 23.9189 0
    endloop
  endfacet
  facet normal 0 0 -1
    outer loop
      vertex 54.375 29.925 0
      vertex 45.8133 21.2987 0
      vertex 46.4011 23.108 0
    endloop
  endfacet
  facet normal 0 0 -1
    outer loop
      vertex 54.375 -2.5 0
      vertex 44.8621 19.6512 0
      vertex 45.8133 21.2987 0
    endloop
  endfacet
  facet normal 0 0 -1
    outer loop
      vertex 42.975 12 0
      vertex 44.8621 19.6512 0
      vertex 54.375 -2.5 0
    endloop
  endfacet
  facet normal 0 0 -1
    outer loop
      vertex 44.8621 19.6512 0
      vertex 42.975 12 0
      vertex 43.5891 18.2374 0
    endloop
  endfacet
  facet normal 0 0 -1
    outer loop
      vertex 54.375 -2.5 0
      vertex 42.5276 7.74301 0
      vertex 42.975 12 0
    endloop
  endfacet
  facet normal 0 0 -1
    outer loop
      vertex 54.375 -2.5 0
      vertex 41.2048 3.67207 0
      vertex 42.5276 7.74301 0
    endloop
  endfacet
  facet normal 0 0 -1
    outer loop
      vertex 39.375 -2.5 0
      vertex 41.2048 3.67207 0
      vertex 54.375 -2.5 0
    endloop
  endfacet
  facet normal 0 0 -1
    outer loop
      vertex 41.2048 3.67207 0
      vertex 39.375 -2.5 0
      vertex 39.375 0.502687 0
    endloop
  endfacet
  facet normal 0 0 -1
    outer loop
      vertex 74 29.925 0
      vertex 76.5 44.925 0
      vertex 76.5 29.925 0
    endloop
  endfacet
  facet normal 0 0 -1
    outer loop
      vertex 74 29.925 0
      vertex 74 44.925 0
      vertex 76.5 44.925 0
    endloop
  endfacet
  facet normal 0 0 -1
    outer loop
      vertex 54.375 29.925 0
      vertex 74 44.925 0
      vertex 74 29.925 0
    endloop
  endfacet
  facet normal 0 0 -1
    outer loop
      vertex 46.4864 26.0811 0
      vertex 54.375 29.925 0
      vertex 46.6 25 0
    endloop
  endfacet
  facet normal 0 0 -1
    outer loop
      vertex 46.4011 26.892 0
      vertex 54.375 29.925 0
      vertex 46.4864 26.0811 0
    endloop
  endfacet
  facet normal 0 0 -1
    outer loop
      vertex 45.8133 28.7013 0
      vertex 54.375 29.925 0
      vertex 46.4011 26.892 0
    endloop
  endfacet
  facet normal 0 0 -1
    outer loop
      vertex 44.8621 30.3488 0
      vertex 54.375 29.925 0
      vertex 45.8133 28.7013 0
    endloop
  endfacet
  facet normal 0 0 -1
    outer loop
      vertex 43.5891 31.7626 0
      vertex 54.375 29.925 0
      vertex 44.8621 30.3488 0
    endloop
  endfacet
  facet normal 0 0 -1
    outer loop
      vertex 42.9295 32.2419 0
      vertex 54.375 29.925 0
      vertex 43.5891 31.7626 0
    endloop
  endfacet
  facet normal 0 0 -1
    outer loop
      vertex 42.05 32.8808 0
      vertex 54.375 29.925 0
      vertex 42.9295 32.2419 0
    endloop
  endfacet
  facet normal 0 0 -1
    outer loop
      vertex 54.375 29.925 0
      vertex 42.05 32.8808 0
      vertex 74 44.925 0
    endloop
  endfacet
  facet normal 0 0 -1
    outer loop
      vertex 41.0569 33.323 0
      vertex 74 44.925 0
      vertex 42.05 32.8808 0
    endloop
  endfacet
  facet normal 0 0 -1
    outer loop
      vertex 40.3121 33.6546 0
      vertex 74 44.925 0
      vertex 41.0569 33.323 0
    endloop
  endfacet
  facet normal 0 0 -1
    outer loop
      vertex 39.5145 33.8241 0
      vertex 74 44.925 0
      vertex 40.3121 33.6546 0
    endloop
  endfacet
  facet normal 0 0 -1
    outer loop
      vertex 38.4512 34.0501 0
      vertex 74 44.925 0
      vertex 39.5145 33.8241 0
    endloop
  endfacet
  facet normal 0 0 -1
    outer loop
      vertex 36.5488 34.0501 0
      vertex 74 44.925 0
      vertex 38.4512 34.0501 0
    endloop
  endfacet
  facet normal 0 0 -1
    outer loop
      vertex 0 44.925 0
      vertex 36.5488 34.0501 0
      vertex 35.4855 33.8241 0
    endloop
  endfacet
  facet normal 0 0 -1
    outer loop
      vertex 0 44.925 0
      vertex 35.4855 33.8241 0
      vertex 34.6879 33.6546 0
    endloop
  endfacet
  facet normal 0 0 -1
    outer loop
      vertex 28.8271 31.4729 0
      vertex 31.4109 31.7626 0
      vertex 30.4853 30.7346 0
    endloop
  endfacet
  facet normal 0 0 -1
    outer loop
      vertex 28.8271 31.4729 0
      vertex 32.0705 32.2419 0
      vertex 31.4109 31.7626 0
    endloop
  endfacet
  facet normal 0 0 -1
    outer loop
      vertex 28.8271 31.4729 0
      vertex 32.95 32.8808 0
      vertex 32.0705 32.2419 0
    endloop
  endfacet
  facet normal 0 0 -1
    outer loop
      vertex 24.6402 32.3628 0
      vertex 32.95 32.8808 0
      vertex 28.8271 31.4729 0
    endloop
  endfacet
  facet normal -0 0 -1
    outer loop
      vertex 32.95 32.8808 0
      vertex 24.6402 32.3628 0
      vertex 33.9431 33.323 0
    endloop
  endfacet
  facet normal -0 0 -1
    outer loop
      vertex 33.9431 33.323 0
      vertex 24.6402 32.3628 0
      vertex 34.6879 33.6546 0
    endloop
  endfacet
  facet normal 0 0 -1
    outer loop
      vertex 0 44.925 0
      vertex 34.6879 33.6546 0
      vertex 24.6402 32.3628 0
    endloop
  endfacet
  facet normal 0 0 -1
    outer loop
      vertex 0 44.925 0
      vertex 24.6402 32.3628 0
      vertex 20.3598 32.3628 0
    endloop
  endfacet
  facet normal 0 0 -1
    outer loop
      vertex 0 44.925 0
      vertex 20.3598 32.3628 0
      vertex 16.1729 31.4729 0
    endloop
  endfacet
  facet normal 0 0 -1
    outer loop
      vertex 0 44.925 0
      vertex 12.6963 29.925 0
      vertex 0 29.925 0
    endloop
  endfacet
  facet normal 0 0 -1
    outer loop
      vertex 12.6963 29.925 0
      vertex 0 44.925 0
      vertex 16.1729 31.4729 0
    endloop
  endfacet
  facet normal 0 0 -1
    outer loop
      vertex 36.5488 34.0501 0
      vertex 0 44.925 0
      vertex 74 44.925 0
    endloop
  endfacet
  facet normal 0 0 -1
    outer loop
      vertex -2.5 29.925 0
      vertex 0 44.925 0
      vertex 0 29.925 0
    endloop
  endfacet
  facet normal -0 0 -1
    outer loop
      vertex 0 44.925 0
      vertex -2.5 29.925 0
      vertex -2.5 44.925 0
    endloop
  endfacet
  facet normal 0 0 -1
    outer loop
      vertex 42.5276 16.257 0
      vertex 43.5891 18.2374 0
      vertex 42.975 12 0
    endloop
  endfacet
  facet normal 0 0 -1
    outer loop
      vertex 43.5891 18.2374 0
      vertex 42.5276 16.257 0
      vertex 42.9295 17.7581 0
    endloop
  endfacet
  facet normal 0 0 -1
    outer loop
      vertex 42.9295 17.7581 0
      vertex 42.5276 16.257 0
      vertex 42.2097 17.2352 0
    endloop
  endfacet
  facet normal -1 0 0
    outer loop
      vertex -2.5 29.925 0
      vertex -2.5 44.925 17.25
      vertex -2.5 44.925 0
    endloop
  endfacet
  facet normal -1 -0 0
    outer loop
      vertex -2.5 44.925 17.25
      vertex -2.5 29.925 0
      vertex -2.5 29.925 17.25
    endloop
  endfacet
  facet normal 0 1 0
    outer loop
      vertex 0 44.925 14.75
      vertex 7.5 44.925 17.25
      vertex 7.5 44.925 14.75
    endloop
  endfacet
  facet normal 0 1 0
    outer loop
      vertex 7.5 44.925 17.25
      vertex 0 44.925 14.75
      vertex -2.5 44.925 17.25
    endloop
  endfacet
  facet normal 0 1 0
    outer loop
      vertex -2.5 44.925 0
      vertex 0 44.925 14.75
      vertex 0 44.925 0
    endloop
  endfacet
  facet normal 0 1 0
    outer loop
      vertex 0 44.925 14.75
      vertex -2.5 44.925 0
      vertex -2.5 44.925 17.25
    endloop
  endfacet
  facet normal 0 -1 0
    outer loop
      vertex -2.5 29.925 17.25
      vertex 0 29.925 14.75
      vertex 7.5 29.925 17.25
    endloop
  endfacet
  facet normal 0 -1 0
    outer loop
      vertex -2.5 29.925 17.25
      vertex 0 29.925 2.5
      vertex 0 29.925 14.75
    endloop
  endfacet
  facet normal 0 -1 0
    outer loop
      vertex -2.5 29.925 0
      vertex 0 29.925 2.5
      vertex -2.5 29.925 17.25
    endloop
  endfacet
  facet normal 0 -1 -0
    outer loop
      vertex 0 29.925 2.5
      vertex -2.5 29.925 0
      vertex 0 29.925 0
    endloop
  endfacet
  facet normal 0 -1 -0
    outer loop
      vertex 7.5 29.925 17.25
      vertex 0 29.925 14.75
      vertex 7.5 29.925 14.75
    endloop
  endfacet
  facet normal 1 -0 0
    outer loop
      vertex 7.5 29.925 17.25
      vertex 7.5 44.925 14.75
      vertex 7.5 44.925 17.25
    endloop
  endfacet
  facet normal 1 0 0
    outer loop
      vertex 7.5 44.925 14.75
      vertex 7.5 29.925 17.25
      vertex 7.5 29.925 14.75
    endloop
  endfacet
  facet normal -0 0 1
    outer loop
      vertex -2.5 44.925 17.25
      vertex 7.5 29.925 17.25
      vertex 7.5 44.925 17.25
    endloop
  endfacet
  facet normal 0 0 1
    outer loop
      vertex 7.5 29.925 17.25
      vertex -2.5 44.925 17.25
      vertex -2.5 29.925 17.25
    endloop
  endfacet
  facet normal 0 0 -1
    outer loop
      vertex 0 29.925 14.75
      vertex 7.5 44.925 14.75
      vertex 7.5 29.925 14.75
    endloop
  endfacet
  facet normal -0 0 -1
    outer loop
      vertex 7.5 44.925 14.75
      vertex 0 29.925 14.75
      vertex 0 44.925 14.75
    endloop
  endfacet
  facet normal -1 0 0
    outer loop
      vertex 74 29.925 2.5
      vertex 74 44.925 14.75
      vertex 74 44.925 2.5
    endloop
  endfacet
  facet normal -1 -0 0
    outer loop
      vertex 74 44.925 14.75
      vertex 74 29.925 2.5
      vertex 74 29.925 14.75
    endloop
  endfacet
  facet normal -0 0 0
    outer loop
      vertex 74 44.925 2.5
      vertex 74 44.925 14.75
      vertex 74 44.925 0
    endloop
  endfacet
  facet normal 1 -0 0
    outer loop
      vertex 76.5 29.925 17.25
      vertex 76.5 44.925 0
      vertex 76.5 44.925 17.25
    endloop
  endfacet
  facet normal 1 0 0
    outer loop
      vertex 76.5 44.925 0
      vertex 76.5 29.925 17.25
      vertex 76.5 29.925 0
    endloop
  endfacet
  facet normal 0 1 0
    outer loop
      vertex 76.5 44.925 17.25
      vertex 74 44.925 14.75
      vertex 66.5 44.925 17.25
    endloop
  endfacet
  facet normal 0 1 -0
    outer loop
      vertex 76.5 44.925 0
      vertex 74 44.925 14.75
      vertex 76.5 44.925 17.25
    endloop
  endfacet
  facet normal 0 1 0
    outer loop
      vertex 74 44.925 14.75
      vertex 76.5 44.925 0
      vertex 74 44.925 0
    endloop
  endfacet
  facet normal 0 1 0
    outer loop
      vertex 66.5 44.925 17.25
      vertex 74 44.925 14.75
      vertex 66.5 44.925 14.75
    endloop
  endfacet
  facet normal 0 -1 0
    outer loop
      vertex 74 29.925 14.75
      vertex 66.5 29.925 17.25
      vertex 66.5 29.925 14.75
    endloop
  endfacet
  facet normal 0 -1 0
    outer loop
      vertex 66.5 29.925 17.25
      vertex 74 29.925 14.75
      vertex 76.5 29.925 17.25
    endloop
  endfacet
  facet normal 0 -1 0
    outer loop
      vertex 74 29.925 2.5
      vertex 76.5 29.925 17.25
      vertex 74 29.925 14.75
    endloop
  endfacet
  facet normal 0 -1 0
    outer loop
      vertex 76.5 29.925 0
      vertex 74 29.925 2.5
      vertex 74 29.925 0
    endloop
  endfacet
  facet normal 0 -1 0
    outer loop
      vertex 74 29.925 2.5
      vertex 76.5 29.925 0
      vertex 76.5 29.925 17.25
    endloop
  endfacet
  facet normal -1 0 0
    outer loop
      vertex 66.5 29.925 14.75
      vertex 66.5 44.925 17.25
      vertex 66.5 44.925 14.75
    endloop
  endfacet
  facet normal -1 -0 0
    outer loop
      vertex 66.5 44.925 17.25
      vertex 66.5 29.925 14.75
      vertex 66.5 29.925 17.25
    endloop
  endfacet
  facet normal -0 0 1
    outer loop
      vertex 66.5 44.925 17.25
      vertex 76.5 29.925 17.25
      vertex 76.5 44.925 17.25
    endloop
  endfacet
  facet normal 0 0 1
    outer loop
      vertex 76.5 29.925 17.25
      vertex 66.5 44.925 17.25
      vertex 66.5 29.925 17.25
    endloop
  endfacet
  facet normal 0 0 -1
    outer loop
      vertex 66.5 29.925 14.75
      vertex 74 44.925 14.75
      vertex 74 29.925 14.75
    endloop
  endfacet
  facet normal -0 0 -1
    outer loop
      vertex 74 44.925 14.75
      vertex 66.5 29.925 14.75
      vertex 66.5 44.925 14.75
    endloop
  endfacet
  facet normal 0 1 -0
    outer loop
      vertex 54.375 0 2.5
      vertex 39.375 0 14.75
      vertex 54.375 0 14.75
    endloop
  endfacet
  facet normal 0 1 0
    outer loop
      vertex 39.375 0 14.75
      vertex 54.375 0 2.5
      vertex 39.375 0 2.5
    endloop
  endfacet
  facet normal 0 -1 0
    outer loop
      vertex 39.375 -2.5 0
      vertex 54.375 -2.5 17.25
      vertex 39.375 -2.5 17.25
    endloop
  endfacet
  facet normal 0 -1 -0
    outer loop
      vertex 54.375 -2.5 17.25
      vertex 39.375 -2.5 0
      vertex 54.375 -2.5 0
    endloop
  endfacet
  facet normal -1 0 0
    outer loop
      vertex 39.375 0.502687 0
      vertex 39.375 0 2.5
      vertex 39.375 0.502687 2.5
    endloop
  endfacet
  facet normal -1 -0 0
    outer loop
      vertex 39.375 0 2.5
      vertex 39.375 -2.5 0
      vertex 39.375 0 14.75
    endloop
  endfacet
  facet normal -1 0 0
    outer loop
      vertex 39.375 -2.5 0
      vertex 39.375 0 2.5
      vertex 39.375 0.502687 0
    endloop
  endfacet
  facet normal -1 0 0
    outer loop
      vertex 39.375 0 14.75
      vertex 39.375 7.5 17.25
      vertex 39.375 7.5 14.75
    endloop
  endfacet
  facet normal -1 0 0
    outer loop
      vertex 39.375 0 14.75
      vertex 39.375 -2.5 17.25
      vertex 39.375 7.5 17.25
    endloop
  endfacet
  facet normal -1 0 0
    outer loop
      vertex 39.375 -2.5 17.25
      vertex 39.375 0 14.75
      vertex 39.375 -2.5 0
    endloop
  endfacet
  facet normal 1 0 0
    outer loop
      vertex 54.375 7.5 17.25
      vertex 54.375 0 14.75
      vertex 54.375 7.5 14.75
    endloop
  endfacet
  facet normal 1 0 0
    outer loop
      vertex 54.375 0 14.75
      vertex 54.375 -2.5 17.25
      vertex 54.375 0 2.5
    endloop
  endfacet
  facet normal 1 -0 0
    outer loop
      vertex 54.375 -2.5 17.25
      vertex 54.375 0 14.75
      vertex 54.375 7.5 17.25
    endloop
  endfacet
  facet normal 1 -0 0
    outer loop
      vertex 54.375 0 2.5
      vertex 54.375 29.925 0
      vertex 54.375 29.925 2.5
    endloop
  endfacet
  facet normal 1 0 0
    outer loop
      vertex 54.375 0 2.5
      vertex 54.375 -2.5 0
      vertex 54.375 29.925 0
    endloop
  endfacet
  facet normal 1 0 0
    outer loop
      vertex 54.375 -2.5 0
      vertex 54.375 0 2.5
      vertex 54.375 -2.5 17.25
    endloop
  endfacet
  facet normal 0 1 -0
    outer loop
      vertex 54.375 7.5 14.75
      vertex 39.375 7.5 17.25
      vertex 54.375 7.5 17.25
    endloop
  endfacet
  facet normal 0 1 0
    outer loop
      vertex 39.375 7.5 17.25
      vertex 54.375 7.5 14.75
      vertex 39.375 7.5 14.75
    endloop
  endfacet
  facet normal -0 0 1
    outer loop
      vertex 39.375 7.5 17.25
      vertex 54.375 -2.5 17.25
      vertex 54.375 7.5 17.25
    endloop
  endfacet
  facet normal 0 0 1
    outer loop
      vertex 54.375 -2.5 17.25
      vertex 39.375 7.5 17.25
      vertex 39.375 -2.5 17.25
    endloop
  endfacet
  facet normal 0 0 -1
    outer loop
      vertex 39.375 0 14.75
      vertex 54.375 7.5 14.75
      vertex 54.375 0 14.75
    endloop
  endfacet
  facet normal -0 0 -1
    outer loop
      vertex 54.375 7.5 14.75
      vertex 39.375 0 14.75
      vertex 39.375 7.5 14.75
    endloop
  endfacet
  facet normal 0 1 -0
    outer loop
      vertex 74 44.925 0
      vertex 0 44.925 2.5
      vertex 74 44.925 2.5
    endloop
  endfacet
  facet normal 0 1 0
    outer loop
      vertex 0 44.925 2.5
      vertex 74 44.925 0
      vertex 0 44.925 0
    endloop
  endfacet
  facet normal 0 -1 0
    outer loop
      vertex 0 29.925 0
      vertex 12.6963 29.925 2.5
      vertex 0 29.925 2.5
    endloop
  endfacet
  facet normal 0 -1 -0
    outer loop
      vertex 12.6963 29.925 2.5
      vertex 0 29.925 0
      vertex 12.6963 29.925 0
    endloop
  endfacet
  facet normal 0 -1 0
    outer loop
      vertex 54.375 29.925 0
      vertex 74 29.925 2.5
      vertex 54.375 29.925 2.5
    endloop
  endfacet
  facet normal 0 -1 -0
    outer loop
      vertex 74 29.925 2.5
      vertex 54.375 29.925 0
      vertex 74 29.925 0
    endloop
  endfacet
  facet normal -0.989642 -0.10399 -0.0989712
    outer loop
      vertex 46.6 25 0
      vertex 46.2473 25.9772 2.5
      vertex 46.4864 26.0811 0
    endloop
  endfacet
  facet normal -0.989641 -0.104007 -0.0989641
    outer loop
      vertex 46.2473 25.9772 2.5
      vertex 46.6 25 0
      vertex 46.35 25 2.5
    endloop
  endfacet
  facet normal -0.584851 0.805079 -0.098981
    outer loop
      vertex 42.2097 17.2352 0
      vertex 42.7199 17.9132 2.5
      vertex 42.9295 17.7581 0
    endloop
  endfacet
  facet normal -0.584881 0.805059 -0.0989696
    outer loop
      vertex 42.7199 17.9132 2.5
      vertex 42.2097 17.2352 0
      vertex 41.925 17.3357 2.5
    endloop
  endfacet
  facet normal -0.584891 0.805051 -0.0989704
    outer loop
      vertex 41.925 17.3357 2.5
      vertex 42.2097 17.2352 0
      vertex 42.5016 16.337 -9.03125
    endloop
  endfacet
  facet normal -0.584881 -0.805059 -0.0989622
    outer loop
      vertex 42.05 32.8808 0
      vertex 42.7199 32.0868 2.5
      vertex 41.925 32.6643 2.5
    endloop
  endfacet
  facet normal -0.584842 -0.805085 -0.0989807
    outer loop
      vertex 42.7199 32.0868 2.5
      vertex 42.05 32.8808 0
      vertex 42.9295 32.2419 0
    endloop
  endfacet
  facet normal 0.584842 -0.805085 -0.0989807
    outer loop
      vertex 32.95 32.8808 0
      vertex 32.2801 32.0868 2.5
      vertex 32.0705 32.2419 0
    endloop
  endfacet
  facet normal 0.584881 -0.805059 -0.0989622
    outer loop
      vertex 32.2801 32.0868 2.5
      vertex 32.95 32.8808 0
      vertex 33.075 32.6643 2.5
    endloop
  endfacet
  facet normal -0.989641 0.104007 -0.0989641
    outer loop
      vertex 46.6 25 0
      vertex 46.2473 24.0228 2.5
      vertex 46.35 25 2.5
    endloop
  endfacet
  facet normal -0.989642 0.10399 -0.0989712
    outer loop
      vertex 46.2473 24.0228 2.5
      vertex 46.6 25 0
      vertex 46.4864 23.9189 0
    endloop
  endfacet
  facet normal -0.946399 -0.307463 -0.0989706
    outer loop
      vertex 46.4011 26.892 0
      vertex 45.5849 28.5996 2.5
      vertex 45.8133 28.7013 0
    endloop
  endfacet
  facet normal -0.946393 -0.307486 -0.098953
    outer loop
      vertex 45.5849 28.5996 2.5
      vertex 46.4011 26.892 0
      vertex 46.1566 26.84 2.5
    endloop
  endfacet
  facet normal 0.861762 -0.497567 -0.098962
    outer loop
      vertex 30.3402 30.2019 2.5
      vertex 28.2275 29.1284 -10.5
      vertex 29.2885 30.966 -10.5
    endloop
  endfacet
  facet normal 0.861771 -0.49755 -0.0989649
    outer loop
      vertex 28.2275 29.1284 -10.5
      vertex 30.3402 30.2019 2.5
      vertex 29.4151 28.5996 2.5
    endloop
  endfacet
  facet normal -0.739494 -0.665848 -0.0989727
    outer loop
      vertex 44.8621 30.3488 0
      vertex 43.4218 31.5768 2.5
      vertex 43.5891 31.7626 0
    endloop
  endfacet
  facet normal -0.739487 -0.665856 -0.098965
    outer loop
      vertex 43.4218 31.5768 2.5
      vertex 44.8621 30.3488 0
      vertex 44.6598 30.2019 2.5
    endloop
  endfacet
  facet normal -0.206903 -0.973345 -0.0989495
    outer loop
      vertex 38.4512 34.0501 0
      vertex 39.3862 33.5972 2.5
      vertex 38.4251 33.8015 2.5
    endloop
  endfacet
  facet normal -0.206881 -0.973349 -0.0989583
    outer loop
      vertex 39.3862 33.5972 2.5
      vertex 38.4512 34.0501 0
      vertex 39.5145 33.8241 0
    endloop
  endfacet
  facet normal -0.206902 0.973343 -0.0989657
    outer loop
      vertex 38.561 14.9056 -10.5
      vertex 39.3862 16.4028 2.5
      vertex 40.0537 15.2229 -10.5
    endloop
  endfacet
  facet normal -0.206903 0.973343 -0.0989657
    outer loop
      vertex 39.3862 16.4028 2.5
      vertex 38.561 14.9056 -10.5
      vertex 38.4251 16.1985 2.5
    endloop
  endfacet
  facet normal -0.584929 -0.805022 -0.098984
    outer loop
      vertex 42.9295 32.2419 0
      vertex 43.4218 31.5768 2.5
      vertex 42.7199 32.0868 2.5
    endloop
  endfacet
  facet normal -0.584957 -0.805003 -0.0989731
    outer loop
      vertex 43.4218 31.5768 2.5
      vertex 42.9295 32.2419 0
      vertex 43.5891 31.7626 0
    endloop
  endfacet
  facet normal -0.86177 -0.497551 -0.0989705
    outer loop
      vertex 45.8133 28.7013 0
      vertex 44.6598 30.2019 2.5
      vertex 44.8621 30.3488 0
    endloop
  endfacet
  facet normal -0.861771 -0.49755 -0.0989717
    outer loop
      vertex 44.6598 30.2019 2.5
      vertex 45.8133 28.7013 0
      vertex 45.5849 28.5996 2.5
    endloop
  endfacet
  facet normal -0.206926 0.973339 -0.0989586
    outer loop
      vertex 40.0537 15.2229 -10.5
      vertex 40.2348 16.5831 2.5
      vertex 40.6365 15.3468 -10.5
    endloop
  endfacet
  facet normal -0.206808 0.973364 -0.0989628
    outer loop
      vertex 40.2348 16.5831 2.5
      vertex 40.0537 15.2229 -10.5
      vertex 39.3862 16.4028 2.5
    endloop
  endfacet
  facet normal 0.404734 -0.909065 -0.0989549
    outer loop
      vertex 34.6879 33.6546 0
      vertex 33.9726 33.064 2.5
      vertex 33.9431 33.323 0
    endloop
  endfacet
  facet normal 0.404752 -0.909057 -0.0989481
    outer loop
      vertex 33.9726 33.064 2.5
      vertex 34.6879 33.6546 0
      vertex 34.7652 33.4169 2.5
    endloop
  endfacet
  facet normal 0 0.995091 -0.0989669
    outer loop
      vertex 38.4251 16.1985 2.5
      vertex 37.9058 15.2746 -6.78961
      vertex 37.6056 16.1985 2.5
    endloop
  endfacet
  facet normal -2.02699e-05 0.995091 -0.0989658
    outer loop
      vertex 38.561 14.9056 -10.5
      vertex 37.9058 15.2746 -6.78961
      vertex 38.4251 16.1985 2.5
    endloop
  endfacet
  facet normal 0 0.995091 -0.0989623
    outer loop
      vertex 37.9058 15.2746 -6.78961
      vertex 38.561 14.9056 -10.5
      vertex 37.9446 14.9056 -10.5
    endloop
  endfacet
  facet normal -0.739487 0.665856 -0.098965
    outer loop
      vertex 44.8621 19.6512 0
      vertex 43.4218 18.4232 2.5
      vertex 44.6598 19.7981 2.5
    endloop
  endfacet
  facet normal -0.739494 0.665848 -0.0989727
    outer loop
      vertex 43.4218 18.4232 2.5
      vertex 44.8621 19.6512 0
      vertex 43.5891 18.2374 0
    endloop
  endfacet
  facet normal -0.404793 -0.909038 -0.0989529
    outer loop
      vertex 41.0569 33.323 0
      vertex 41.925 32.6643 2.5
      vertex 41.0274 33.064 2.5
    endloop
  endfacet
  facet normal -0.404773 -0.909046 -0.0989621
    outer loop
      vertex 41.925 32.6643 2.5
      vertex 41.0569 33.323 0
      vertex 42.05 32.8808 0
    endloop
  endfacet
  facet normal 0 -0.995092 -0.098952
    outer loop
      vertex 36.5488 34.0501 0
      vertex 38.4251 33.8015 2.5
      vertex 36.5749 33.8015 2.5
    endloop
  endfacet
  facet normal 0 -0.995092 -0.098952
    outer loop
      vertex 38.4251 33.8015 2.5
      vertex 36.5488 34.0501 0
      vertex 38.4512 34.0501 0
    endloop
  endfacet
  facet normal 0.404773 -0.909046 -0.0989621
    outer loop
      vertex 33.9431 33.323 0
      vertex 33.075 32.6643 2.5
      vertex 32.95 32.8808 0
    endloop
  endfacet
  facet normal 0.404793 -0.909038 -0.0989529
    outer loop
      vertex 33.075 32.6643 2.5
      vertex 33.9431 33.323 0
      vertex 33.9726 33.064 2.5
    endloop
  endfacet
  facet normal -0.404793 0.909037 -0.0989709
    outer loop
      vertex 42.5016 16.337 -9.03125
      vertex 41.0274 16.936 2.5
      vertex 41.925 17.3357 2.5
    endloop
  endfacet
  facet normal -0.404763 0.909057 -0.0989086
    outer loop
      vertex 41.1808 15.5891 -10.5
      vertex 42.5016 16.337 -9.03125
      vertex 42.5276 16.257 -9.87292
    endloop
  endfacet
  facet normal -0.404764 0.909056 -0.0989074
    outer loop
      vertex 41.1808 15.5891 -10.5
      vertex 42.5276 16.257 -9.87292
      vertex 42.5344 16.1918 -10.5
    endloop
  endfacet
  facet normal -0.404713 0.909073 -0.0989626
    outer loop
      vertex 42.5016 16.337 -9.03125
      vertex 41.1808 15.5891 -10.5
      vertex 41.0274 16.936 2.5
    endloop
  endfacet
  facet normal -0.861771 0.49755 -0.0989717
    outer loop
      vertex 45.8133 21.2987 0
      vertex 44.6598 19.7981 2.5
      vertex 45.5849 21.4004 2.5
    endloop
  endfacet
  facet normal -0.86177 0.497551 -0.0989705
    outer loop
      vertex 44.6598 19.7981 2.5
      vertex 45.8133 21.2987 0
      vertex 44.8621 19.6512 0
    endloop
  endfacet
  facet normal 0.206881 -0.973349 -0.0989583
    outer loop
      vertex 36.5488 34.0501 0
      vertex 35.6138 33.5972 2.5
      vertex 35.4855 33.8241 0
    endloop
  endfacet
  facet normal 0.206903 -0.973345 -0.0989495
    outer loop
      vertex 35.6138 33.5972 2.5
      vertex 36.5488 34.0501 0
      vertex 36.5749 33.8015 2.5
    endloop
  endfacet
  facet normal -0.946393 0.307486 -0.098953
    outer loop
      vertex 46.4011 23.108 0
      vertex 45.5849 21.4004 2.5
      vertex 46.1566 23.16 2.5
    endloop
  endfacet
  facet normal -0.946399 0.307463 -0.0989706
    outer loop
      vertex 45.5849 21.4004 2.5
      vertex 46.4011 23.108 0
      vertex 45.8133 21.2987 0
    endloop
  endfacet
  facet normal 0.946391 -0.307491 -0.0989642
    outer loop
      vertex 29.4151 28.5996 2.5
      vertex 27.5718 27.1103 -10.5
      vertex 28.2275 29.1284 -10.5
    endloop
  endfacet
  facet normal 0.946392 -0.307486 -0.0989651
    outer loop
      vertex 27.5718 27.1103 -10.5
      vertex 29.4151 28.5996 2.5
      vertex 28.8434 26.84 2.5
    endloop
  endfacet
  facet normal -0.404687 0.909084 -0.0989635
    outer loop
      vertex 40.6365 15.3468 -10.5
      vertex 41.0274 16.936 2.5
      vertex 41.1808 15.5891 -10.5
    endloop
  endfacet
  facet normal -0.404751 0.909056 -0.0989581
    outer loop
      vertex 41.0274 16.936 2.5
      vertex 40.6365 15.3468 -10.5
      vertex 40.2348 16.5831 2.5
    endloop
  endfacet
  facet normal 0.20685 -0.973357 -0.0989426
    outer loop
      vertex 35.4855 33.8241 0
      vertex 34.7652 33.4169 2.5
      vertex 34.6879 33.6546 0
    endloop
  endfacet
  facet normal 0.206808 -0.973364 -0.0989559
    outer loop
      vertex 34.7652 33.4169 2.5
      vertex 35.4855 33.8241 0
      vertex 35.6138 33.5972 2.5
    endloop
  endfacet
  facet normal -0.989637 0.104033 -0.0989725
    outer loop
      vertex 46.4864 23.9189 0
      vertex 46.1566 23.16 2.5
      vertex 46.2473 24.0228 2.5
    endloop
  endfacet
  facet normal -0.989632 0.104101 -0.0989513
    outer loop
      vertex 46.1566 23.16 2.5
      vertex 46.4864 23.9189 0
      vertex 46.4011 23.108 0
    endloop
  endfacet
  facet normal 0.739502 -0.665839 -0.0989726
    outer loop
      vertex 31.5782 31.5768 2.5
      vertex 30.4853 30.7346 0
      vertex 31.4109 31.7626 0
    endloop
  endfacet
  facet normal 0.739488 -0.665856 -0.0989608
    outer loop
      vertex 30.4853 30.7346 0
      vertex 31.5782 31.5768 2.5
      vertex 30.3402 30.2019 2.5
    endloop
  endfacet
  facet normal 0.739611 -0.665718 -0.0989727
    outer loop
      vertex 30.4853 30.7346 0
      vertex 29.2885 30.966 -10.5
      vertex 29.4822 31.1812 -10.5
    endloop
  endfacet
  facet normal 0.739485 -0.665859 -0.0989615
    outer loop
      vertex 29.2885 30.966 -10.5
      vertex 30.4853 30.7346 0
      vertex 30.3402 30.2019 2.5
    endloop
  endfacet
  facet normal -0.404752 -0.909057 -0.0989481
    outer loop
      vertex 40.3121 33.6546 0
      vertex 41.0274 33.064 2.5
      vertex 40.2348 33.4169 2.5
    endloop
  endfacet
  facet normal -0.404734 -0.909065 -0.0989549
    outer loop
      vertex 41.0274 33.064 2.5
      vertex 40.3121 33.6546 0
      vertex 41.0569 33.323 0
    endloop
  endfacet
  facet normal -0.206808 -0.973364 -0.0989559
    outer loop
      vertex 39.5145 33.8241 0
      vertex 40.2348 33.4169 2.5
      vertex 39.3862 33.5972 2.5
    endloop
  endfacet
  facet normal -0.20685 -0.973357 -0.0989426
    outer loop
      vertex 40.2348 33.4169 2.5
      vertex 39.5145 33.8241 0
      vertex 40.3121 33.6546 0
    endloop
  endfacet
  facet normal 0.584957 -0.805003 -0.0989731
    outer loop
      vertex 32.0705 32.2419 0
      vertex 31.5782 31.5768 2.5
      vertex 31.4109 31.7626 0
    endloop
  endfacet
  facet normal 0.584929 -0.805022 -0.098984
    outer loop
      vertex 31.5782 31.5768 2.5
      vertex 32.0705 32.2419 0
      vertex 32.2801 32.0868 2.5
    endloop
  endfacet
  facet normal 0.989652 -0.103904 -0.0989636
    outer loop
      vertex 28.8434 26.84 2.5
      vertex 27.5495 26.8979 -10.5
      vertex 27.5718 27.1103 -10.5
    endloop
  endfacet
  facet normal 0.989645 -0.103963 -0.0989632
    outer loop
      vertex 27.5495 26.8979 -10.5
      vertex 28.8434 26.84 2.5
      vertex 28.7914 26.345 2.5
    endloop
  endfacet
  facet normal -0.989632 -0.104101 -0.0989513
    outer loop
      vertex 46.4864 26.0811 0
      vertex 46.1566 26.84 2.5
      vertex 46.4011 26.892 0
    endloop
  endfacet
  facet normal -0.989637 -0.104033 -0.0989725
    outer loop
      vertex 46.1566 26.84 2.5
      vertex 46.4864 26.0811 0
      vertex 46.2473 25.9772 2.5
    endloop
  endfacet
  facet normal -0.584957 0.805003 -0.0989731
    outer loop
      vertex 42.9295 17.7581 0
      vertex 43.4218 18.4232 2.5
      vertex 43.5891 18.2374 0
    endloop
  endfacet
  facet normal -0.584929 0.805022 -0.098984
    outer loop
      vertex 43.4218 18.4232 2.5
      vertex 42.9295 17.7581 0
      vertex 42.7199 17.9132 2.5
    endloop
  endfacet
endsolid OpenSCAD_Model
