solid OpenSCAD_Model
  facet normal 0.951058 0.309012 -3.58504e-06
    outer loop
      vertex 42.5276 16.257 0
      vertex 42.2885 16.9928 -7.5
      vertex 41.8947 18.2049 0
    endloop
  endfacet
  facet normal 0.951047 0.309045 0
    outer loop
      vertex 42.2885 16.9928 -7.5
      vertex 42.5276 16.257 0
      vertex 42.5276 16.257 -7.5
    endloop
  endfacet
  facet normal 0.994523 0.104522 0
    outer loop
      vertex 42.975 12 0
      vertex 42.5276 16.257 -7.5
      vertex 42.5276 16.257 0
    endloop
  endfacet
  facet normal 0.994523 0.104522 0
    outer loop
      vertex 42.5276 16.257 -7.5
      vertex 42.975 12 0
      vertex 42.975 12 -7.5
    endloop
  endfacet
  facet normal 0.951052 -0.309032 0
    outer loop
      vertex 41.2048 3.67207 0
      vertex 42.5276 7.74301 -7.5
      vertex 42.5276 7.74301 0
    endloop
  endfacet
  facet normal 0.951052 -0.309032 0
    outer loop
      vertex 42.5276 7.74301 -7.5
      vertex 41.2048 3.67207 0
      vertex 41.2048 3.67207 -7.5
    endloop
  endfacet
  facet normal 0.994523 -0.104522 0
    outer loop
      vertex 42.5276 7.74301 0
      vertex 42.975 12 -7.5
      vertex 42.975 12 0
    endloop
  endfacet
  facet normal 0.994523 -0.104522 0
    outer loop
      vertex 42.975 12 -7.5
      vertex 42.5276 7.74301 0
      vertex 42.5276 7.74301 -7.5
    endloop
  endfacet
  facet normal -0.951056 -0.309017 0
    outer loop
      vertex 3.79516 3.67207 -7.5
      vertex 2.47243 7.74301 2.5
      vertex 2.47243 7.74301 -7.5
    endloop
  endfacet
  facet normal -0.951056 -0.309017 0
    outer loop
      vertex 2.47243 7.74301 2.5
      vertex 3.79516 3.67207 -7.5
      vertex 3.79516 3.67207 2.5
    endloop
  endfacet
  facet normal -0.951056 0.30902 0
    outer loop
      vertex 2.47243 16.257 -7.5
      vertex 3.79516 20.3279 2.5
      vertex 3.79516 20.3279 -7.5
    endloop
  endfacet
  facet normal -0.951056 0.30902 0
    outer loop
      vertex 3.79516 20.3279 2.5
      vertex 2.47243 16.257 -7.5
      vertex 2.47243 16.257 2.5
    endloop
  endfacet
  facet normal 0.587791 -0.809013 0
    outer loop
      vertex 32.7375 -5.73187 -7.5
      vertex 36.2004 -3.21589 2.5
      vertex 32.7375 -5.73187 2.5
    endloop
  endfacet
  facet normal 0.587791 -0.809013 0
    outer loop
      vertex 36.2004 -3.21589 2.5
      vertex 32.7375 -5.73187 -7.5
      vertex 36.2004 -3.21589 -7.5
    endloop
  endfacet
  facet normal -0.587788 0.809015 0
    outer loop
      vertex 12.2625 29.7319 -7.5
      vertex 8.79955 27.2159 2.5
      vertex 12.2625 29.7319 2.5
    endloop
  endfacet
  facet normal -0.587788 0.809015 0
    outer loop
      vertex 8.79955 27.2159 2.5
      vertex 12.2625 29.7319 -7.5
      vertex 8.79955 27.2159 -7.5
    endloop
  endfacet
  facet normal -0 0 1
    outer loop
      vertex 1.25 33.675 2.5
      vertex 12.6963 29.925 2.5
      vertex 1.25 41.175 2.5
    endloop
  endfacet
  facet normal 0 0 1
    outer loop
      vertex -5 29.925 2.5
      vertex 1.25 33.675 2.5
      vertex -3.75 33.675 2.5
    endloop
  endfacet
  facet normal 0 0 1
    outer loop
      vertex 1.25 33.675 2.5
      vertex -5 29.925 2.5
      vertex 12.6963 29.925 2.5
    endloop
  endfacet
  facet normal 0 0 1
    outer loop
      vertex -5 29.925 2.5
      vertex -3.75 33.675 2.5
      vertex -5 44.925 2.5
    endloop
  endfacet
  facet normal 0 0 1
    outer loop
      vertex 39.8852 17.659 2.5
      vertex 37.9058 15.2746 2.5
      vertex 38.25 12 2.5
    endloop
  endfacet
  facet normal 0 -0 1
    outer loop
      vertex 37.9058 15.2746 2.5
      vertex 38.3068 17.3235 2.5
      vertex 37.2401 17.3235 2.5
    endloop
  endfacet
  facet normal -0 0 1
    outer loop
      vertex 37.9058 8.72539 2.5
      vertex 43.125 1.25 2.5
      vertex 38.25 12 2.5
    endloop
  endfacet
  facet normal 0 0 1
    outer loop
      vertex 37.9058 15.2746 2.5
      vertex 39.8852 17.659 2.5
      vertex 38.8053 17.4295 2.5
    endloop
  endfacet
  facet normal 0 0 1
    outer loop
      vertex 37.9058 15.2746 2.5
      vertex 38.8053 17.4295 2.5
      vertex 38.3068 17.3235 2.5
    endloop
  endfacet
  facet normal -0 0 1
    outer loop
      vertex 36.8883 5.5939 2.5
      vertex 43.125 1.25 2.5
      vertex 37.9058 8.72539 2.5
    endloop
  endfacet
  facet normal 0 0 1
    outer loop
      vertex 43.125 1.25 2.5
      vertex 36.8883 5.5939 2.5
      vertex 39.375 0.502687 2.5
    endloop
  endfacet
  facet normal -0 0 1
    outer loop
      vertex 35.242 2.74238 2.5
      vertex 39.375 0.502687 2.5
      vertex 36.8883 5.5939 2.5
    endloop
  endfacet
  facet normal 0 0 1
    outer loop
      vertex 39.375 0.502687 2.5
      vertex 35.242 2.74238 2.5
      vertex 39.0646 -0.0349026 2.5
    endloop
  endfacet
  facet normal 0 0 1
    outer loop
      vertex 39.0646 -0.0349026 2.5
      vertex 35.242 2.74238 2.5
      vertex 36.2004 -3.21589 2.5
    endloop
  endfacet
  facet normal -0 0 1
    outer loop
      vertex 33.0388 0.295469 2.5
      vertex 36.2004 -3.21589 2.5
      vertex 35.242 2.74238 2.5
    endloop
  endfacet
  facet normal 0 0 1
    outer loop
      vertex 33.0388 0.295469 2.5
      vertex 32.7375 -5.73187 2.5
      vertex 36.2004 -3.21589 2.5
    endloop
  endfacet
  facet normal -0 0 1
    outer loop
      vertex 30.375 -1.6399 2.5
      vertex 32.7375 -5.73187 2.5
      vertex 33.0388 0.295469 2.5
    endloop
  endfacet
  facet normal 0 0 1
    outer loop
      vertex 30.375 -1.6399 2.5
      vertex 28.8271 -7.47288 2.5
      vertex 32.7375 -5.73187 2.5
    endloop
  endfacet
  facet normal -0 0 1
    outer loop
      vertex 27.367 -2.97914 2.5
      vertex 28.8271 -7.47288 2.5
      vertex 30.375 -1.6399 2.5
    endloop
  endfacet
  facet normal 0 0 1
    outer loop
      vertex 27.367 -2.97914 2.5
      vertex 24.6402 -8.36283 2.5
      vertex 28.8271 -7.47288 2.5
    endloop
  endfacet
  facet normal -0 0 1
    outer loop
      vertex 24.1463 -3.66372 2.5
      vertex 24.6402 -8.36283 2.5
      vertex 27.367 -2.97914 2.5
    endloop
  endfacet
  facet normal -0 0 1
    outer loop
      vertex 20.8537 -3.66372 2.5
      vertex 24.6402 -8.36283 2.5
      vertex 24.1463 -3.66372 2.5
    endloop
  endfacet
  facet normal 0 0 1
    outer loop
      vertex 20.8537 -3.66372 2.5
      vertex 20.3598 -8.36283 2.5
      vertex 24.6402 -8.36283 2.5
    endloop
  endfacet
  facet normal 0 0 1
    outer loop
      vertex 17.633 -2.97914 2.5
      vertex 20.3598 -8.36283 2.5
      vertex 20.8537 -3.66372 2.5
    endloop
  endfacet
  facet normal 0 0 1
    outer loop
      vertex 17.633 -2.97914 2.5
      vertex 16.1729 -7.47288 2.5
      vertex 20.3598 -8.36283 2.5
    endloop
  endfacet
  facet normal 0 0 1
    outer loop
      vertex 14.625 -1.6399 2.5
      vertex 16.1729 -7.47288 2.5
      vertex 17.633 -2.97914 2.5
    endloop
  endfacet
  facet normal 0 0 1
    outer loop
      vertex 14.625 -1.6399 2.5
      vertex 12.2625 -5.73187 2.5
      vertex 16.1729 -7.47288 2.5
    endloop
  endfacet
  facet normal 0 0 1
    outer loop
      vertex 11.9612 0.295469 2.5
      vertex 12.2625 -5.73187 2.5
      vertex 14.625 -1.6399 2.5
    endloop
  endfacet
  facet normal 0 0 1
    outer loop
      vertex 8.79955 -3.21589 2.5
      vertex 11.9612 0.295469 2.5
      vertex 9.75798 2.74238 2.5
    endloop
  endfacet
  facet normal 0 0 1
    outer loop
      vertex 11.9612 0.295469 2.5
      vertex 8.79955 -3.21589 2.5
      vertex 12.2625 -5.73187 2.5
    endloop
  endfacet
  facet normal 0 0 1
    outer loop
      vertex 5.93538 -0.0349026 2.5
      vertex 9.75798 2.74238 2.5
      vertex 8.11166 5.5939 2.5
    endloop
  endfacet
  facet normal 0 0 1
    outer loop
      vertex 3.79516 3.67207 2.5
      vertex 8.11166 5.5939 2.5
      vertex 7.09418 8.72539 2.5
    endloop
  endfacet
  facet normal 0 0 1
    outer loop
      vertex 9.75798 2.74238 2.5
      vertex 5.93538 -0.0349026 2.5
      vertex 8.79955 -3.21589 2.5
    endloop
  endfacet
  facet normal 0 0 1
    outer loop
      vertex 2.47243 7.74301 2.5
      vertex 7.09418 8.72539 2.5
      vertex 6.75 12 2.5
    endloop
  endfacet
  facet normal -0 0 1
    outer loop
      vertex 2.47243 16.257 2.5
      vertex 7.09418 15.2746 2.5
      vertex 3.79516 20.3279 2.5
    endloop
  endfacet
  facet normal 0 0 1
    outer loop
      vertex 7.09418 15.2746 2.5
      vertex 2.47243 16.257 2.5
      vertex 6.75 12 2.5
    endloop
  endfacet
  facet normal 0 0 1
    outer loop
      vertex 8.11166 5.5939 2.5
      vertex 3.79516 3.67207 2.5
      vertex 5.93538 -0.0349026 2.5
    endloop
  endfacet
  facet normal 0 0 1
    outer loop
      vertex 2.025 12 2.5
      vertex 6.75 12 2.5
      vertex 2.47243 16.257 2.5
    endloop
  endfacet
  facet normal 0 0 1
    outer loop
      vertex 7.09418 8.72539 2.5
      vertex 2.47243 7.74301 2.5
      vertex 3.79516 3.67207 2.5
    endloop
  endfacet
  facet normal 0 0 1
    outer loop
      vertex 6.75 12 2.5
      vertex 2.025 12 2.5
      vertex 2.47243 7.74301 2.5
    endloop
  endfacet
  facet normal -0 0 1
    outer loop
      vertex 12.2625 29.7319 2.5
      vertex 14.625 25.6399 2.5
      vertex 12.6963 29.925 2.5
    endloop
  endfacet
  facet normal 0 0 1
    outer loop
      vertex 12.2625 29.7319 2.5
      vertex 11.9612 23.7045 2.5
      vertex 14.625 25.6399 2.5
    endloop
  endfacet
  facet normal -0 0 1
    outer loop
      vertex 8.79955 27.2159 2.5
      vertex 11.9612 23.7045 2.5
      vertex 12.2625 29.7319 2.5
    endloop
  endfacet
  facet normal 0 0 1
    outer loop
      vertex 11.9612 23.7045 2.5
      vertex 8.79955 27.2159 2.5
      vertex 9.75798 21.2576 2.5
    endloop
  endfacet
  facet normal -0 0 1
    outer loop
      vertex 5.93538 24.0349 2.5
      vertex 9.75798 21.2576 2.5
      vertex 8.79955 27.2159 2.5
    endloop
  endfacet
  facet normal 0 0 1
    outer loop
      vertex 9.75798 21.2576 2.5
      vertex 5.93538 24.0349 2.5
      vertex 8.11166 18.4061 2.5
    endloop
  endfacet
  facet normal 0 0 1
    outer loop
      vertex 8.11166 18.4061 2.5
      vertex 3.79516 20.3279 2.5
      vertex 7.09418 15.2746 2.5
    endloop
  endfacet
  facet normal -0 0 1
    outer loop
      vertex 3.79516 20.3279 2.5
      vertex 8.11166 18.4061 2.5
      vertex 5.93538 24.0349 2.5
    endloop
  endfacet
  facet normal 0 0 1
    outer loop
      vertex 45.1655 24.4932 2.5
      vertex 54.375 29.925 2.5
      vertex 45.2188 25 2.5
    endloop
  endfacet
  facet normal 0 0 1
    outer loop
      vertex 54.375 44.925 2.5
      vertex 45.1655 25.5068 2.5
      vertex 45.2188 25 2.5
    endloop
  endfacet
  facet normal 0 0 1
    outer loop
      vertex 54.375 44.925 2.5
      vertex 45.0501 26.6048 2.5
      vertex 45.1655 25.5068 2.5
    endloop
  endfacet
  facet normal 0 0 1
    outer loop
      vertex 54.375 44.925 2.5
      vertex 44.5514 28.1395 2.5
      vertex 45.0501 26.6048 2.5
    endloop
  endfacet
  facet normal 0 -0 1
    outer loop
      vertex 41.3594 31.6846 2.5
      vertex 54.375 44.925 2.5
      vertex 39.375 44.925 2.5
    endloop
  endfacet
  facet normal 0 0 1
    outer loop
      vertex 39.375 44.925 2.5
      vertex 50.625 163.75 2.5
      vertex 43.125 163.75 2.5
    endloop
  endfacet
  facet normal 0 0 1
    outer loop
      vertex 54.375 44.925 2.5
      vertex 43.7446 29.537 2.5
      vertex 44.5514 28.1395 2.5
    endloop
  endfacet
  facet normal -0 0 1
    outer loop
      vertex 50.625 163.75 2.5
      vertex 54.375 44.925 2.5
      vertex 54.375 170 2.5
    endloop
  endfacet
  facet normal 0 0 1
    outer loop
      vertex 39.375 44.925 2.5
      vertex 54.375 44.925 2.5
      vertex 50.625 163.75 2.5
    endloop
  endfacet
  facet normal 0 0 1
    outer loop
      vertex 50.625 163.75 2.5
      vertex 54.375 170 2.5
      vertex 50.625 168.75 2.5
    endloop
  endfacet
  facet normal 0 0 1
    outer loop
      vertex 54.375 170 2.5
      vertex 43.125 168.75 2.5
      vertex 50.625 168.75 2.5
    endloop
  endfacet
  facet normal 0 0 1
    outer loop
      vertex 39.375 170 2.5
      vertex 43.125 163.75 2.5
      vertex 43.125 168.75 2.5
    endloop
  endfacet
  facet normal 0 0 1
    outer loop
      vertex 54.375 44.925 2.5
      vertex 42.6649 30.7361 2.5
      vertex 43.7446 29.537 2.5
    endloop
  endfacet
  facet normal 0 0 1
    outer loop
      vertex 54.375 44.925 2.5
      vertex 41.7716 31.3851 2.5
      vertex 42.6649 30.7361 2.5
    endloop
  endfacet
  facet normal 0 0 1
    outer loop
      vertex 54.375 44.925 2.5
      vertex 41.3594 31.6846 2.5
      vertex 41.7716 31.3851 2.5
    endloop
  endfacet
  facet normal 0 0 1
    outer loop
      vertex 41.3594 31.6846 2.5
      vertex 39.375 44.925 2.5
      vertex 40.8939 31.8919 2.5
    endloop
  endfacet
  facet normal -0 0 1
    outer loop
      vertex 39.375 170 2.5
      vertex 43.125 168.75 2.5
      vertex 54.375 170 2.5
    endloop
  endfacet
  facet normal 0 0 1
    outer loop
      vertex 43.125 163.75 2.5
      vertex 39.375 170 2.5
      vertex 39.375 44.925 2.5
    endloop
  endfacet
  facet normal 0 0 1
    outer loop
      vertex 40.8939 31.8919 2.5
      vertex 39.375 44.925 2.5
      vertex 39.8852 32.341 2.5
    endloop
  endfacet
  facet normal 0 0 1
    outer loop
      vertex 39.375 44.925 2.5
      vertex 38.8053 32.5705 2.5
      vertex 39.8852 32.341 2.5
    endloop
  endfacet
  facet normal 0 0 1
    outer loop
      vertex 39.375 44.925 2.5
      vertex 38.3068 32.6765 2.5
      vertex 38.8053 32.5705 2.5
    endloop
  endfacet
  facet normal 0 0 1
    outer loop
      vertex 39.375 44.925 2.5
      vertex 36.6932 32.6765 2.5
      vertex 38.3068 32.6765 2.5
    endloop
  endfacet
  facet normal 0 0 1
    outer loop
      vertex 39.375 44.925 2.5
      vertex 36.1947 32.5705 2.5
      vertex 36.6932 32.6765 2.5
    endloop
  endfacet
  facet normal 0 0 1
    outer loop
      vertex 39.375 44.925 2.5
      vertex 35.1148 32.341 2.5
      vertex 36.1947 32.5705 2.5
    endloop
  endfacet
  facet normal 0 0 1
    outer loop
      vertex 39.375 44.925 2.5
      vertex 34.1061 31.8919 2.5
      vertex 35.1148 32.341 2.5
    endloop
  endfacet
  facet normal 0 0 1
    outer loop
      vertex 39.375 44.925 2.5
      vertex 33.6406 31.6846 2.5
      vertex 34.1061 31.8919 2.5
    endloop
  endfacet
  facet normal 0 0 1
    outer loop
      vertex 39.375 44.925 2.5
      vertex 33.2284 31.3851 2.5
      vertex 33.6406 31.6846 2.5
    endloop
  endfacet
  facet normal 0 0 1
    outer loop
      vertex 39.375 44.925 2.5
      vertex 32.3351 30.7361 2.5
      vertex 33.2284 31.3851 2.5
    endloop
  endfacet
  facet normal 0 0 1
    outer loop
      vertex 24.1463 27.6637 2.5
      vertex 32.3351 30.7361 2.5
      vertex 39.375 44.925 2.5
    endloop
  endfacet
  facet normal 0 0 1
    outer loop
      vertex 32.3351 30.7361 2.5
      vertex 24.1463 27.6637 2.5
      vertex 31.2554 29.537 2.5
    endloop
  endfacet
  facet normal 0 0 1
    outer loop
      vertex 29.9499 26.6048 2.5
      vertex 27.367 26.9791 2.5
      vertex 29.872 25.8638 2.5
    endloop
  endfacet
  facet normal 0 0 1
    outer loop
      vertex 30.4486 28.1395 2.5
      vertex 27.367 26.9791 2.5
      vertex 29.9499 26.6048 2.5
    endloop
  endfacet
  facet normal 0 -0 1
    outer loop
      vertex 27.367 26.9791 2.5
      vertex 31.2554 29.537 2.5
      vertex 24.1463 27.6637 2.5
    endloop
  endfacet
  facet normal 0 0 1
    outer loop
      vertex 31.2554 29.537 2.5
      vertex 27.367 26.9791 2.5
      vertex 30.4486 28.1395 2.5
    endloop
  endfacet
  facet normal 0 0 1
    outer loop
      vertex 39.375 44.925 2.5
      vertex 20.8537 27.6637 2.5
      vertex 24.1463 27.6637 2.5
    endloop
  endfacet
  facet normal -0 0 1
    outer loop
      vertex 12.6963 29.925 2.5
      vertex 20.8537 27.6637 2.5
      vertex 39.375 44.925 2.5
    endloop
  endfacet
  facet normal 0 0 1
    outer loop
      vertex 20.8537 27.6637 2.5
      vertex 12.6963 29.925 2.5
      vertex 17.633 26.9791 2.5
    endloop
  endfacet
  facet normal 0 0 1
    outer loop
      vertex 17.633 26.9791 2.5
      vertex 12.6963 29.925 2.5
      vertex 14.625 25.6399 2.5
    endloop
  endfacet
  facet normal 0 0 1
    outer loop
      vertex 39.375 44.925 2.5
      vertex 1.25 41.175 2.5
      vertex 12.6963 29.925 2.5
    endloop
  endfacet
  facet normal -0 0 1
    outer loop
      vertex -5 44.925 2.5
      vertex 1.25 41.175 2.5
      vertex 39.375 44.925 2.5
    endloop
  endfacet
  facet normal 0 0 1
    outer loop
      vertex -3.75 41.175 2.5
      vertex -5 44.925 2.5
      vertex -3.75 33.675 2.5
    endloop
  endfacet
  facet normal 0 0 1
    outer loop
      vertex 1.25 41.175 2.5
      vertex -5 44.925 2.5
      vertex -3.75 41.175 2.5
    endloop
  endfacet
  facet normal 0 0 1
    outer loop
      vertex 45.2188 25 2.5
      vertex 54.375 29.925 2.5
      vertex 54.375 44.925 2.5
    endloop
  endfacet
  facet normal 0 0 1
    outer loop
      vertex 54.375 29.925 2.5
      vertex 50.625 1.25 2.5
      vertex 54.375 -5 2.5
    endloop
  endfacet
  facet normal -0 0 1
    outer loop
      vertex 50.625 -3.75 2.5
      vertex 54.375 -5 2.5
      vertex 50.625 1.25 2.5
    endloop
  endfacet
  facet normal -0 0 1
    outer loop
      vertex 43.125 -3.75 2.5
      vertex 54.375 -5 2.5
      vertex 50.625 -3.75 2.5
    endloop
  endfacet
  facet normal 0 0 1
    outer loop
      vertex 42.6649 19.2639 2.5
      vertex 38.25 12 2.5
      vertex 50.625 1.25 2.5
    endloop
  endfacet
  facet normal 0 0 1
    outer loop
      vertex 38.25 12 2.5
      vertex 41.3594 18.3154 2.5
      vertex 40.8939 18.1081 2.5
    endloop
  endfacet
  facet normal 0 0 1
    outer loop
      vertex 38.25 12 2.5
      vertex 40.8939 18.1081 2.5
      vertex 39.8852 17.659 2.5
    endloop
  endfacet
  facet normal 0 0 1
    outer loop
      vertex 50.625 1.25 2.5
      vertex 38.25 12 2.5
      vertex 43.125 1.25 2.5
    endloop
  endfacet
  facet normal 0 0 1
    outer loop
      vertex 43.125 1.25 2.5
      vertex 39.375 0.502687 2.5
      vertex 43.125 -3.75 2.5
    endloop
  endfacet
  facet normal 0 0 1
    outer loop
      vertex 43.125 -3.75 2.5
      vertex 39.375 -5 2.5
      vertex 54.375 -5 2.5
    endloop
  endfacet
  facet normal 0 0 1
    outer loop
      vertex 39.375 -5 2.5
      vertex 43.125 -3.75 2.5
      vertex 39.375 0.502687 2.5
    endloop
  endfacet
  facet normal 0 0 1
    outer loop
      vertex 45.0501 23.3952 2.5
      vertex 54.375 29.925 2.5
      vertex 45.1655 24.4932 2.5
    endloop
  endfacet
  facet normal 0 0 1
    outer loop
      vertex 44.5514 21.8605 2.5
      vertex 54.375 29.925 2.5
      vertex 45.0501 23.3952 2.5
    endloop
  endfacet
  facet normal 0 0 1
    outer loop
      vertex 54.375 29.925 2.5
      vertex 44.5514 21.8605 2.5
      vertex 50.625 1.25 2.5
    endloop
  endfacet
  facet normal -0 0 1
    outer loop
      vertex 43.7446 20.463 2.5
      vertex 50.625 1.25 2.5
      vertex 44.5514 21.8605 2.5
    endloop
  endfacet
  facet normal -0 0 1
    outer loop
      vertex 42.6649 19.2639 2.5
      vertex 50.625 1.25 2.5
      vertex 43.7446 20.463 2.5
    endloop
  endfacet
  facet normal 0 0 1
    outer loop
      vertex 38.25 12 2.5
      vertex 41.7716 18.6149 2.5
      vertex 41.3594 18.3154 2.5
    endloop
  endfacet
  facet normal 0 0 1
    outer loop
      vertex 38.25 12 2.5
      vertex 42.6649 19.2639 2.5
      vertex 41.7716 18.6149 2.5
    endloop
  endfacet
  facet normal 0 0 1
    outer loop
      vertex 80 44.925 2.5
      vertex 78.75 41.175 2.5
      vertex 80 29.925 2.5
    endloop
  endfacet
  facet normal 0 0 1
    outer loop
      vertex 80 44.925 2.5
      vertex 73.75 41.175 2.5
      vertex 78.75 41.175 2.5
    endloop
  endfacet
  facet normal 0 0 1
    outer loop
      vertex 73.75 41.175 2.5
      vertex 54.375 44.925 2.5
      vertex 73.75 33.675 2.5
    endloop
  endfacet
  facet normal -0 0 1
    outer loop
      vertex 54.375 44.925 2.5
      vertex 73.75 41.175 2.5
      vertex 80 44.925 2.5
    endloop
  endfacet
  facet normal -0 0 1
    outer loop
      vertex 78.75 33.675 2.5
      vertex 80 29.925 2.5
      vertex 78.75 41.175 2.5
    endloop
  endfacet
  facet normal -0 0 1
    outer loop
      vertex 73.75 33.675 2.5
      vertex 80 29.925 2.5
      vertex 78.75 33.675 2.5
    endloop
  endfacet
  facet normal 0 0 1
    outer loop
      vertex 54.375 29.925 2.5
      vertex 73.75 33.675 2.5
      vertex 54.375 44.925 2.5
    endloop
  endfacet
  facet normal 0 0 1
    outer loop
      vertex 73.75 33.675 2.5
      vertex 54.375 29.925 2.5
      vertex 80 29.925 2.5
    endloop
  endfacet
  facet normal -0.866027 0.499997 0
    outer loop
      vertex 3.79516 20.3279 -7.5
      vertex 5.93538 24.0349 2.5
      vertex 5.93538 24.0349 -7.5
    endloop
  endfacet
  facet normal -0.866027 0.499997 0
    outer loop
      vertex 5.93538 24.0349 2.5
      vertex 3.79516 20.3279 -7.5
      vertex 3.79516 20.3279 2.5
    endloop
  endfacet
  facet normal 0.86601 -0.500027 0
    outer loop
      vertex 39.375 0.502687 2.5
      vertex 39.0646 -0.0349026 2.5
      vertex 39.375 0.502687 0
    endloop
  endfacet
  facet normal 0.866031 -0.499991 0
    outer loop
      vertex 39.375 0.502687 0
      vertex 41.2048 3.67207 -7.5
      vertex 41.2048 3.67207 0
    endloop
  endfacet
  facet normal 0.866028 -0.499996 -2.96023e-06
    outer loop
      vertex 39.375 0.502687 0
      vertex 39.0646 -0.0349026 -7.5
      vertex 41.2048 3.67207 -7.5
    endloop
  endfacet
  facet normal 0.86601 -0.500027 0
    outer loop
      vertex 39.0646 -0.0349026 -7.5
      vertex 39.375 0.502687 0
      vertex 39.0646 -0.0349026 2.5
    endloop
  endfacet
  facet normal 0 1 -0
    outer loop
      vertex 24.6402 32.3628 -7.5
      vertex 20.3598 32.3628 0
      vertex 24.6402 32.3628 0
    endloop
  endfacet
  facet normal 0 1 0
    outer loop
      vertex 20.3598 32.3628 0
      vertex 24.6402 32.3628 -7.5
      vertex 20.3598 32.3628 -7.5
    endloop
  endfacet
  facet normal -0.406741 0.913544 0
    outer loop
      vertex 16.1729 31.4729 0
      vertex 16.1729 31.4729 -7.5
      vertex 12.6963 29.925 0
    endloop
  endfacet
  facet normal -0.406666 0.913577 0
    outer loop
      vertex 12.6963 29.925 0
      vertex 12.2625 29.7319 2.5
      vertex 12.6963 29.925 2.5
    endloop
  endfacet
  facet normal -0.406666 0.913577 0
    outer loop
      vertex 12.6963 29.925 0
      vertex 12.2625 29.7319 -7.5
      vertex 12.2625 29.7319 2.5
    endloop
  endfacet
  facet normal -0.406732 0.913547 4.59639e-06
    outer loop
      vertex 12.2625 29.7319 -7.5
      vertex 12.6963 29.925 0
      vertex 16.1729 31.4729 -7.5
    endloop
  endfacet
  facet normal -0.207911 -0.978148 0
    outer loop
      vertex 16.1729 -7.47288 -7.5
      vertex 20.3598 -8.36283 2.5
      vertex 16.1729 -7.47288 2.5
    endloop
  endfacet
  facet normal -0.207911 -0.978148 -0
    outer loop
      vertex 20.3598 -8.36283 2.5
      vertex 16.1729 -7.47288 -7.5
      vertex 20.3598 -8.36283 -7.5
    endloop
  endfacet
  facet normal 0 -1 0
    outer loop
      vertex 20.3598 -8.36283 -7.5
      vertex 24.6402 -8.36283 2.5
      vertex 20.3598 -8.36283 2.5
    endloop
  endfacet
  facet normal 0 -1 -0
    outer loop
      vertex 24.6402 -8.36283 2.5
      vertex 20.3598 -8.36283 -7.5
      vertex 24.6402 -8.36283 -7.5
    endloop
  endfacet
  facet normal -0.2079 0.97815 0
    outer loop
      vertex 20.3598 32.3628 -7.5
      vertex 16.1729 31.4729 0
      vertex 20.3598 32.3628 0
    endloop
  endfacet
  facet normal -0.2079 0.97815 0
    outer loop
      vertex 16.1729 31.4729 0
      vertex 20.3598 32.3628 -7.5
      vertex 16.1729 31.4729 -7.5
    endloop
  endfacet
  facet normal 0.207911 -0.978148 0
    outer loop
      vertex 24.6402 -8.36283 -7.5
      vertex 28.8271 -7.47288 2.5
      vertex 24.6402 -8.36283 2.5
    endloop
  endfacet
  facet normal 0.207911 -0.978148 0
    outer loop
      vertex 28.8271 -7.47288 2.5
      vertex 24.6402 -8.36283 -7.5
      vertex 28.8271 -7.47288 -7.5
    endloop
  endfacet
  facet normal 0.743142 -0.669134 0
    outer loop
      vertex 36.2004 -3.21589 2.5
      vertex 39.0646 -0.0349026 -7.5
      vertex 39.0646 -0.0349026 2.5
    endloop
  endfacet
  facet normal 0.743142 -0.669134 0
    outer loop
      vertex 39.0646 -0.0349026 -7.5
      vertex 36.2004 -3.21589 2.5
      vertex 36.2004 -3.21589 -7.5
    endloop
  endfacet
  facet normal 0.406734 -0.913547 0
    outer loop
      vertex 28.8271 -7.47288 -7.5
      vertex 32.7375 -5.73187 2.5
      vertex 28.8271 -7.47288 2.5
    endloop
  endfacet
  facet normal 0.406734 -0.913547 0
    outer loop
      vertex 32.7375 -5.73187 2.5
      vertex 28.8271 -7.47288 -7.5
      vertex 32.7375 -5.73187 -7.5
    endloop
  endfacet
  facet normal -0.587785 -0.809017 0
    outer loop
      vertex 8.79955 -3.21589 -7.5
      vertex 12.2625 -5.73187 2.5
      vertex 8.79955 -3.21589 2.5
    endloop
  endfacet
  facet normal -0.587785 -0.809017 -0
    outer loop
      vertex 12.2625 -5.73187 2.5
      vertex 8.79955 -3.21589 -7.5
      vertex 12.2625 -5.73187 -7.5
    endloop
  endfacet
  facet normal -0.994522 0.104529 0
    outer loop
      vertex 2.025 12 -7.5
      vertex 2.47243 16.257 2.5
      vertex 2.47243 16.257 -7.5
    endloop
  endfacet
  facet normal -0.994522 0.104529 0
    outer loop
      vertex 2.47243 16.257 2.5
      vertex 2.025 12 -7.5
      vertex 2.025 12 2.5
    endloop
  endfacet
  facet normal 0.2079 0.97815 -0
    outer loop
      vertex 28.8271 31.4729 -7.5
      vertex 24.6402 32.3628 0
      vertex 28.8271 31.4729 0
    endloop
  endfacet
  facet normal 0.2079 0.97815 0
    outer loop
      vertex 24.6402 32.3628 0
      vertex 28.8271 31.4729 -7.5
      vertex 24.6402 32.3628 -7.5
    endloop
  endfacet
  facet normal -0.866026 -0.5 0
    outer loop
      vertex 5.93538 -0.0349026 -7.5
      vertex 3.79516 3.67207 2.5
      vertex 3.79516 3.67207 -7.5
    endloop
  endfacet
  facet normal -0.866026 -0.5 0
    outer loop
      vertex 3.79516 3.67207 2.5
      vertex 5.93538 -0.0349026 -7.5
      vertex 5.93538 -0.0349026 2.5
    endloop
  endfacet
  facet normal 0.406747 0.913541 5.05171e-07
    outer loop
      vertex 30.2524 30.8383 -7.5
      vertex 28.8271 31.4729 0
      vertex 31.4167 30.3199 0
    endloop
  endfacet
  facet normal 0.406745 0.913542 0
    outer loop
      vertex 28.8271 31.4729 0
      vertex 30.2524 30.8383 -7.5
      vertex 28.8271 31.4729 -7.5
    endloop
  endfacet
  facet normal -0.994522 -0.104529 0
    outer loop
      vertex 2.47243 7.74301 -7.5
      vertex 2.025 12 2.5
      vertex 2.025 12 -7.5
    endloop
  endfacet
  facet normal -0.994522 -0.104529 0
    outer loop
      vertex 2.025 12 2.5
      vertex 2.47243 7.74301 -7.5
      vertex 2.47243 7.74301 2.5
    endloop
  endfacet
  facet normal -0.743145 -0.66913 0
    outer loop
      vertex 8.79955 -3.21589 -7.5
      vertex 5.93538 -0.0349026 2.5
      vertex 5.93538 -0.0349026 -7.5
    endloop
  endfacet
  facet normal -0.743145 -0.66913 0
    outer loop
      vertex 5.93538 -0.0349026 2.5
      vertex 8.79955 -3.21589 -7.5
      vertex 8.79955 -3.21589 2.5
    endloop
  endfacet
  facet normal 0 0 -1
    outer loop
      vertex 38.25 12 -7.5
      vertex 42.975 12 -7.5
      vertex 42.5276 7.74301 -7.5
    endloop
  endfacet
  facet normal 0 -0 -1
    outer loop
      vertex 40.3874 16.1136 -7.5
      vertex 42.975 12 -7.5
      vertex 38.25 12 -7.5
    endloop
  endfacet
  facet normal 0 0 -1
    outer loop
      vertex 42.5276 16.257 -7.5
      vertex 42.1719 16.9081 -7.5
      vertex 42.2885 16.9928 -7.5
    endloop
  endfacet
  facet normal 0 0 -1
    outer loop
      vertex 37.9058 8.72539 -7.5
      vertex 42.5276 7.74301 -7.5
      vertex 41.2048 3.67207 -7.5
    endloop
  endfacet
  facet normal 0 0 -1
    outer loop
      vertex 42.975 12 -7.5
      vertex 40.3874 16.1136 -7.5
      vertex 42.5276 16.257 -7.5
    endloop
  endfacet
  facet normal 0 0 -1
    outer loop
      vertex 42.5276 16.257 -7.5
      vertex 41.0857 16.4245 -7.5
      vertex 42.1719 16.9081 -7.5
    endloop
  endfacet
  facet normal -0 0 -1
    outer loop
      vertex 42.5276 16.257 -7.5
      vertex 40.3874 16.1136 -7.5
      vertex 41.0857 16.4245 -7.5
    endloop
  endfacet
  facet normal 0 0 -1
    outer loop
      vertex 36.8883 5.5939 -7.5
      vertex 41.2048 3.67207 -7.5
      vertex 39.0646 -0.0349026 -7.5
    endloop
  endfacet
  facet normal 0 0 -1
    outer loop
      vertex 42.5276 7.74301 -7.5
      vertex 37.9058 8.72539 -7.5
      vertex 38.25 12 -7.5
    endloop
  endfacet
  facet normal 0 0 -1
    outer loop
      vertex 39.6397 15.9546 -7.5
      vertex 38.25 12 -7.5
      vertex 38.4767 15.7074 -7.5
    endloop
  endfacet
  facet normal 0 0 -1
    outer loop
      vertex 40.3874 16.1136 -7.5
      vertex 38.25 12 -7.5
      vertex 39.6397 15.9546 -7.5
    endloop
  endfacet
  facet normal 0 0 -1
    outer loop
      vertex 41.2048 3.67207 -7.5
      vertex 36.8883 5.5939 -7.5
      vertex 37.9058 8.72539 -7.5
    endloop
  endfacet
  facet normal 0 0 -1
    outer loop
      vertex 35.242 2.74238 -7.5
      vertex 39.0646 -0.0349026 -7.5
      vertex 36.2004 -3.21589 -7.5
    endloop
  endfacet
  facet normal 0 0 -1
    outer loop
      vertex 39.0646 -0.0349026 -7.5
      vertex 35.242 2.74238 -7.5
      vertex 36.8883 5.5939 -7.5
    endloop
  endfacet
  facet normal 0 0 -1
    outer loop
      vertex 36.2004 -3.21589 -7.5
      vertex 33.0388 0.295469 -7.5
      vertex 35.242 2.74238 -7.5
    endloop
  endfacet
  facet normal 0 0 -1
    outer loop
      vertex 32.7375 -5.73187 -7.5
      vertex 33.0388 0.295469 -7.5
      vertex 36.2004 -3.21589 -7.5
    endloop
  endfacet
  facet normal 0 0 -1
    outer loop
      vertex 32.7375 -5.73187 -7.5
      vertex 30.375 -1.6399 -7.5
      vertex 33.0388 0.295469 -7.5
    endloop
  endfacet
  facet normal 0 0 -1
    outer loop
      vertex 28.8271 -7.47288 -7.5
      vertex 30.375 -1.6399 -7.5
      vertex 32.7375 -5.73187 -7.5
    endloop
  endfacet
  facet normal 0 0 -1
    outer loop
      vertex 28.8271 -7.47288 -7.5
      vertex 27.367 -2.97914 -7.5
      vertex 30.375 -1.6399 -7.5
    endloop
  endfacet
  facet normal 0 0 -1
    outer loop
      vertex 24.6402 -8.36283 -7.5
      vertex 27.367 -2.97914 -7.5
      vertex 28.8271 -7.47288 -7.5
    endloop
  endfacet
  facet normal 0 0 -1
    outer loop
      vertex 24.6402 -8.36283 -7.5
      vertex 24.1463 -3.66372 -7.5
      vertex 27.367 -2.97914 -7.5
    endloop
  endfacet
  facet normal 0 0 -1
    outer loop
      vertex 24.6402 -8.36283 -7.5
      vertex 20.8537 -3.66372 -7.5
      vertex 24.1463 -3.66372 -7.5
    endloop
  endfacet
  facet normal 0 0 -1
    outer loop
      vertex 20.3598 -8.36283 -7.5
      vertex 20.8537 -3.66372 -7.5
      vertex 24.6402 -8.36283 -7.5
    endloop
  endfacet
  facet normal 0 0 -1
    outer loop
      vertex 20.3598 -8.36283 -7.5
      vertex 17.633 -2.97914 -7.5
      vertex 20.8537 -3.66372 -7.5
    endloop
  endfacet
  facet normal 0 0 -1
    outer loop
      vertex 16.1729 -7.47288 -7.5
      vertex 17.633 -2.97914 -7.5
      vertex 20.3598 -8.36283 -7.5
    endloop
  endfacet
  facet normal 0 0 -1
    outer loop
      vertex 16.1729 -7.47288 -7.5
      vertex 14.625 -1.6399 -7.5
      vertex 17.633 -2.97914 -7.5
    endloop
  endfacet
  facet normal 0 0 -1
    outer loop
      vertex 12.2625 -5.73187 -7.5
      vertex 14.625 -1.6399 -7.5
      vertex 16.1729 -7.47288 -7.5
    endloop
  endfacet
  facet normal 0 0 -1
    outer loop
      vertex 12.2625 -5.73187 -7.5
      vertex 11.9612 0.295469 -7.5
      vertex 14.625 -1.6399 -7.5
    endloop
  endfacet
  facet normal 0 0 -1
    outer loop
      vertex 8.79955 -3.21589 -7.5
      vertex 11.9612 0.295469 -7.5
      vertex 12.2625 -5.73187 -7.5
    endloop
  endfacet
  facet normal -0 0 -1
    outer loop
      vertex 11.9612 0.295469 -7.5
      vertex 8.79955 -3.21589 -7.5
      vertex 9.75798 2.74238 -7.5
    endloop
  endfacet
  facet normal 0 0 -1
    outer loop
      vertex 5.93538 -0.0349026 -7.5
      vertex 9.75798 2.74238 -7.5
      vertex 8.79955 -3.21589 -7.5
    endloop
  endfacet
  facet normal -0 0 -1
    outer loop
      vertex 9.75798 2.74238 -7.5
      vertex 5.93538 -0.0349026 -7.5
      vertex 8.11166 5.5939 -7.5
    endloop
  endfacet
  facet normal -0 0 -1
    outer loop
      vertex 8.11166 5.5939 -7.5
      vertex 3.79516 3.67207 -7.5
      vertex 7.09418 8.72539 -7.5
    endloop
  endfacet
  facet normal 0 0 -1
    outer loop
      vertex 3.79516 3.67207 -7.5
      vertex 8.11166 5.5939 -7.5
      vertex 5.93538 -0.0349026 -7.5
    endloop
  endfacet
  facet normal 0 0 -1
    outer loop
      vertex 37.9058 15.2746 -7.5
      vertex 38.4767 15.7074 -7.5
      vertex 38.25 12 -7.5
    endloop
  endfacet
  facet normal -0 0 -1
    outer loop
      vertex 38.4767 15.7074 -7.5
      vertex 37.9058 15.2746 -7.5
      vertex 37.7652 15.7074 -7.5
    endloop
  endfacet
  facet normal 0 0 -1
    outer loop
      vertex 29.9407 30.4921 -7.5
      vertex 28.8271 31.4729 -7.5
      vertex 30.2524 30.8383 -7.5
    endloop
  endfacet
  facet normal 0 0 -1
    outer loop
      vertex 28.9641 28.8004 -7.5
      vertex 28.8271 31.4729 -7.5
      vertex 29.9407 30.4921 -7.5
    endloop
  endfacet
  facet normal 0 0 -1
    outer loop
      vertex 27.367 26.9791 -7.5
      vertex 28.9641 28.8004 -7.5
      vertex 28.3604 26.9427 -7.5
    endloop
  endfacet
  facet normal 0 0 -1
    outer loop
      vertex 27.367 26.9791 -7.5
      vertex 28.3604 26.9427 -7.5
      vertex 28.3197 26.555 -7.5
    endloop
  endfacet
  facet normal 0 0 -1
    outer loop
      vertex 24.1463 27.6637 -7.5
      vertex 28.9641 28.8004 -7.5
      vertex 27.367 26.9791 -7.5
    endloop
  endfacet
  facet normal 0 0 -1
    outer loop
      vertex 28.9641 28.8004 -7.5
      vertex 24.6402 32.3628 -7.5
      vertex 28.8271 31.4729 -7.5
    endloop
  endfacet
  facet normal -0 0 -1
    outer loop
      vertex 28.9641 28.8004 -7.5
      vertex 24.1463 27.6637 -7.5
      vertex 24.6402 32.3628 -7.5
    endloop
  endfacet
  facet normal 0 0 -1
    outer loop
      vertex 20.8537 27.6637 -7.5
      vertex 24.6402 32.3628 -7.5
      vertex 24.1463 27.6637 -7.5
    endloop
  endfacet
  facet normal 0 0 -1
    outer loop
      vertex 20.8537 27.6637 -7.5
      vertex 20.3598 32.3628 -7.5
      vertex 24.6402 32.3628 -7.5
    endloop
  endfacet
  facet normal 0 0 -1
    outer loop
      vertex 17.633 26.9791 -7.5
      vertex 20.3598 32.3628 -7.5
      vertex 20.8537 27.6637 -7.5
    endloop
  endfacet
  facet normal 0 0 -1
    outer loop
      vertex 17.633 26.9791 -7.5
      vertex 16.1729 31.4729 -7.5
      vertex 20.3598 32.3628 -7.5
    endloop
  endfacet
  facet normal 0 0 -1
    outer loop
      vertex 14.625 25.6399 -7.5
      vertex 16.1729 31.4729 -7.5
      vertex 17.633 26.9791 -7.5
    endloop
  endfacet
  facet normal 0 0 -1
    outer loop
      vertex 14.625 25.6399 -7.5
      vertex 12.2625 29.7319 -7.5
      vertex 16.1729 31.4729 -7.5
    endloop
  endfacet
  facet normal 0 0 -1
    outer loop
      vertex 11.9612 23.7045 -7.5
      vertex 12.2625 29.7319 -7.5
      vertex 14.625 25.6399 -7.5
    endloop
  endfacet
  facet normal 0 0 -1
    outer loop
      vertex 8.79955 27.2159 -7.5
      vertex 11.9612 23.7045 -7.5
      vertex 9.75798 21.2576 -7.5
    endloop
  endfacet
  facet normal 0 0 -1
    outer loop
      vertex 11.9612 23.7045 -7.5
      vertex 8.79955 27.2159 -7.5
      vertex 12.2625 29.7319 -7.5
    endloop
  endfacet
  facet normal 0 0 -1
    outer loop
      vertex 5.93538 24.0349 -7.5
      vertex 9.75798 21.2576 -7.5
      vertex 8.11166 18.4061 -7.5
    endloop
  endfacet
  facet normal 0 0 -1
    outer loop
      vertex 3.79516 20.3279 -7.5
      vertex 8.11166 18.4061 -7.5
      vertex 7.09418 15.2746 -7.5
    endloop
  endfacet
  facet normal 0 0 -1
    outer loop
      vertex 9.75798 21.2576 -7.5
      vertex 5.93538 24.0349 -7.5
      vertex 8.79955 27.2159 -7.5
    endloop
  endfacet
  facet normal 0 0 -1
    outer loop
      vertex 2.47243 16.257 -7.5
      vertex 7.09418 15.2746 -7.5
      vertex 6.75 12 -7.5
    endloop
  endfacet
  facet normal 0 0 -1
    outer loop
      vertex 2.47243 7.74301 -7.5
      vertex 7.09418 8.72539 -7.5
      vertex 3.79516 3.67207 -7.5
    endloop
  endfacet
  facet normal -0 0 -1
    outer loop
      vertex 7.09418 8.72539 -7.5
      vertex 2.47243 7.74301 -7.5
      vertex 6.75 12 -7.5
    endloop
  endfacet
  facet normal 0 0 -1
    outer loop
      vertex 8.11166 18.4061 -7.5
      vertex 3.79516 20.3279 -7.5
      vertex 5.93538 24.0349 -7.5
    endloop
  endfacet
  facet normal 0 0 -1
    outer loop
      vertex 2.025 12 -7.5
      vertex 6.75 12 -7.5
      vertex 2.47243 7.74301 -7.5
    endloop
  endfacet
  facet normal 0 0 -1
    outer loop
      vertex 7.09418 15.2746 -7.5
      vertex 2.47243 16.257 -7.5
      vertex 3.79516 20.3279 -7.5
    endloop
  endfacet
  facet normal 0 0 -1
    outer loop
      vertex 6.75 12 -7.5
      vertex 2.025 12 -7.5
      vertex 2.47243 16.257 -7.5
    endloop
  endfacet
  facet normal -0.406734 -0.913547 0
    outer loop
      vertex 12.2625 -5.73187 -7.5
      vertex 16.1729 -7.47288 2.5
      vertex 12.2625 -5.73187 2.5
    endloop
  endfacet
  facet normal -0.406734 -0.913547 -0
    outer loop
      vertex 16.1729 -7.47288 2.5
      vertex 12.2625 -5.73187 -7.5
      vertex 16.1729 -7.47288 -7.5
    endloop
  endfacet
  facet normal -0.743147 0.669129 0
    outer loop
      vertex 5.93538 24.0349 -7.5
      vertex 8.79955 27.2159 2.5
      vertex 8.79955 27.2159 -7.5
    endloop
  endfacet
  facet normal -0.743147 0.669129 0
    outer loop
      vertex 8.79955 27.2159 2.5
      vertex 5.93538 24.0349 -7.5
      vertex 5.93538 24.0349 2.5
    endloop
  endfacet
  facet normal -0.951073 -0.308967 -0
    outer loop
      vertex 37.9058 15.2746 2.5
      vertex 37.7652 15.7074 -7.5
      vertex 37.9058 15.2746 -7.5
    endloop
  endfacet
  facet normal -0.95106 -0.309005 -1.83908e-06
    outer loop
      vertex 37.7652 15.7074 -7.5
      vertex 37.9058 15.2746 2.5
      vertex 37.2401 17.3235 2.5
    endloop
  endfacet
  facet normal -0.994521 -0.104536 0
    outer loop
      vertex 38.25 12 -7.5
      vertex 37.9058 15.2746 2.5
      vertex 37.9058 15.2746 -7.5
    endloop
  endfacet
  facet normal -0.994521 -0.104536 0
    outer loop
      vertex 37.9058 15.2746 2.5
      vertex 38.25 12 -7.5
      vertex 38.25 12 2.5
    endloop
  endfacet
  facet normal -0.951055 0.309022 0
    outer loop
      vertex 36.8883 5.5939 -7.5
      vertex 37.9058 8.72539 2.5
      vertex 37.9058 8.72539 -7.5
    endloop
  endfacet
  facet normal -0.951055 0.309022 0
    outer loop
      vertex 37.9058 8.72539 2.5
      vertex 36.8883 5.5939 -7.5
      vertex 36.8883 5.5939 2.5
    endloop
  endfacet
  facet normal -0.406681 -0.91357 0
    outer loop
      vertex 28.3197 26.555 -7.5
      vertex 27.367 26.9791 2.5
      vertex 27.367 26.9791 -7.5
    endloop
  endfacet
  facet normal -0.406737 -0.913545 -6.41159e-06
    outer loop
      vertex 27.367 26.9791 2.5
      vertex 28.3197 26.555 -7.5
      vertex 29.872 25.8638 2.5
    endloop
  endfacet
  facet normal 0.587792 -0.809012 0
    outer loop
      vertex 11.9612 23.7045 -7.5
      vertex 14.625 25.6399 2.5
      vertex 11.9612 23.7045 2.5
    endloop
  endfacet
  facet normal 0.587792 -0.809012 0
    outer loop
      vertex 14.625 25.6399 2.5
      vertex 11.9612 23.7045 -7.5
      vertex 14.625 25.6399 -7.5
    endloop
  endfacet
  facet normal 0.406725 -0.913551 0
    outer loop
      vertex 14.625 25.6399 -7.5
      vertex 17.633 26.9791 2.5
      vertex 14.625 25.6399 2.5
    endloop
  endfacet
  facet normal 0.406725 -0.913551 0
    outer loop
      vertex 17.633 26.9791 2.5
      vertex 14.625 25.6399 -7.5
      vertex 17.633 26.9791 -7.5
    endloop
  endfacet
  facet normal -0.587786 0.809016 0
    outer loop
      vertex 33.0388 0.295469 -7.5
      vertex 30.375 -1.6399 2.5
      vertex 33.0388 0.295469 2.5
    endloop
  endfacet
  facet normal -0.587786 0.809016 0
    outer loop
      vertex 30.375 -1.6399 2.5
      vertex 33.0388 0.295469 -7.5
      vertex 30.375 -1.6399 -7.5
    endloop
  endfacet
  facet normal 0.866026 0.499999 0
    outer loop
      vertex 9.75798 2.74238 2.5
      vertex 8.11166 5.5939 -7.5
      vertex 8.11166 5.5939 2.5
    endloop
  endfacet
  facet normal 0.866026 0.499999 0
    outer loop
      vertex 8.11166 5.5939 -7.5
      vertex 9.75798 2.74238 2.5
      vertex 9.75798 2.74238 -7.5
    endloop
  endfacet
  facet normal -0.406735 0.913546 0
    outer loop
      vertex 30.375 -1.6399 -7.5
      vertex 27.367 -2.97914 2.5
      vertex 30.375 -1.6399 2.5
    endloop
  endfacet
  facet normal -0.406735 0.913546 0
    outer loop
      vertex 27.367 -2.97914 2.5
      vertex 30.375 -1.6399 -7.5
      vertex 27.367 -2.97914 -7.5
    endloop
  endfacet
  facet normal -0.207911 0.978148 0
    outer loop
      vertex 27.367 -2.97914 -7.5
      vertex 24.1463 -3.66372 2.5
      vertex 27.367 -2.97914 2.5
    endloop
  endfacet
  facet normal -0.207911 0.978148 0
    outer loop
      vertex 24.1463 -3.66372 2.5
      vertex 27.367 -2.97914 -7.5
      vertex 24.1463 -3.66372 -7.5
    endloop
  endfacet
  facet normal 0.951057 -0.309015 0
    outer loop
      vertex 7.09418 15.2746 2.5
      vertex 8.11166 18.4061 -7.5
      vertex 8.11166 18.4061 2.5
    endloop
  endfacet
  facet normal 0.951057 -0.309015 0
    outer loop
      vertex 8.11166 18.4061 -7.5
      vertex 7.09418 15.2746 2.5
      vertex 7.09418 15.2746 -7.5
    endloop
  endfacet
  facet normal -0.994521 0.104536 0
    outer loop
      vertex 37.9058 8.72539 -7.5
      vertex 38.25 12 2.5
      vertex 38.25 12 -7.5
    endloop
  endfacet
  facet normal -0.994521 0.104536 0
    outer loop
      vertex 38.25 12 2.5
      vertex 37.9058 8.72539 -7.5
      vertex 37.9058 8.72539 2.5
    endloop
  endfacet
  facet normal 0.743142 -0.669134 0
    outer loop
      vertex 9.75798 21.2576 2.5
      vertex 11.9612 23.7045 -7.5
      vertex 11.9612 23.7045 2.5
    endloop
  endfacet
  facet normal 0.743142 -0.669134 0
    outer loop
      vertex 11.9612 23.7045 -7.5
      vertex 9.75798 21.2576 2.5
      vertex 9.75798 21.2576 -7.5
    endloop
  endfacet
  facet normal 0 -1 0
    outer loop
      vertex 20.8537 27.6637 -7.5
      vertex 24.1463 27.6637 2.5
      vertex 20.8537 27.6637 2.5
    endloop
  endfacet
  facet normal 0 -1 -0
    outer loop
      vertex 24.1463 27.6637 2.5
      vertex 20.8537 27.6637 -7.5
      vertex 24.1463 27.6637 -7.5
    endloop
  endfacet
  facet normal -0.866029 0.499994 0
    outer loop
      vertex 35.242 2.74238 -7.5
      vertex 36.8883 5.5939 2.5
      vertex 36.8883 5.5939 -7.5
    endloop
  endfacet
  facet normal -0.866029 0.499994 0
    outer loop
      vertex 36.8883 5.5939 2.5
      vertex 35.242 2.74238 -7.5
      vertex 35.242 2.74238 2.5
    endloop
  endfacet
  facet normal 0.207917 -0.978146 0
    outer loop
      vertex 17.633 26.9791 -7.5
      vertex 20.8537 27.6637 2.5
      vertex 17.633 26.9791 2.5
    endloop
  endfacet
  facet normal 0.207917 -0.978146 0
    outer loop
      vertex 20.8537 27.6637 2.5
      vertex 17.633 26.9791 -7.5
      vertex 20.8537 27.6637 -7.5
    endloop
  endfacet
  facet normal -0.743146 0.669129 0
    outer loop
      vertex 33.0388 0.295469 -7.5
      vertex 35.242 2.74238 2.5
      vertex 35.242 2.74238 -7.5
    endloop
  endfacet
  facet normal -0.743146 0.669129 0
    outer loop
      vertex 35.242 2.74238 2.5
      vertex 33.0388 0.295469 -7.5
      vertex 33.0388 0.295469 2.5
    endloop
  endfacet
  facet normal 0.406735 0.913546 -0
    outer loop
      vertex 17.633 -2.97914 -7.5
      vertex 14.625 -1.6399 2.5
      vertex 17.633 -2.97914 2.5
    endloop
  endfacet
  facet normal 0.406735 0.913546 0
    outer loop
      vertex 14.625 -1.6399 2.5
      vertex 17.633 -2.97914 -7.5
      vertex 14.625 -1.6399 -7.5
    endloop
  endfacet
  facet normal 0.587786 0.809016 -0
    outer loop
      vertex 14.625 -1.6399 -7.5
      vertex 11.9612 0.295469 2.5
      vertex 14.625 -1.6399 2.5
    endloop
  endfacet
  facet normal 0.587786 0.809016 0
    outer loop
      vertex 11.9612 0.295469 2.5
      vertex 14.625 -1.6399 -7.5
      vertex 11.9612 0.295469 -7.5
    endloop
  endfacet
  facet normal 0.994522 -0.10453 0
    outer loop
      vertex 6.75 12 2.5
      vertex 7.09418 15.2746 -7.5
      vertex 7.09418 15.2746 2.5
    endloop
  endfacet
  facet normal 0.994522 -0.10453 0
    outer loop
      vertex 7.09418 15.2746 -7.5
      vertex 6.75 12 2.5
      vertex 6.75 12 -7.5
    endloop
  endfacet
  facet normal 0 1 -0
    outer loop
      vertex 24.1463 -3.66372 -7.5
      vertex 20.8537 -3.66372 2.5
      vertex 24.1463 -3.66372 2.5
    endloop
  endfacet
  facet normal 0 1 0
    outer loop
      vertex 20.8537 -3.66372 2.5
      vertex 24.1463 -3.66372 -7.5
      vertex 20.8537 -3.66372 -7.5
    endloop
  endfacet
  facet normal 0.207911 0.978148 -0
    outer loop
      vertex 20.8537 -3.66372 -7.5
      vertex 17.633 -2.97914 2.5
      vertex 20.8537 -3.66372 2.5
    endloop
  endfacet
  facet normal 0.207911 0.978148 0
    outer loop
      vertex 17.633 -2.97914 2.5
      vertex 20.8537 -3.66372 -7.5
      vertex 17.633 -2.97914 -7.5
    endloop
  endfacet
  facet normal 0.951057 0.309016 0
    outer loop
      vertex 8.11166 5.5939 2.5
      vertex 7.09418 8.72539 -7.5
      vertex 7.09418 8.72539 2.5
    endloop
  endfacet
  facet normal 0.951057 0.309016 0
    outer loop
      vertex 7.09418 8.72539 -7.5
      vertex 8.11166 5.5939 2.5
      vertex 8.11166 5.5939 -7.5
    endloop
  endfacet
  facet normal 0.743143 0.669133 0
    outer loop
      vertex 11.9612 0.295469 2.5
      vertex 9.75798 2.74238 -7.5
      vertex 9.75798 2.74238 2.5
    endloop
  endfacet
  facet normal 0.743143 0.669133 0
    outer loop
      vertex 9.75798 2.74238 -7.5
      vertex 11.9612 0.295469 2.5
      vertex 11.9612 0.295469 -7.5
    endloop
  endfacet
  facet normal -0.207917 -0.978146 0
    outer loop
      vertex 24.1463 27.6637 -7.5
      vertex 27.367 26.9791 2.5
      vertex 24.1463 27.6637 2.5
    endloop
  endfacet
  facet normal -0.207917 -0.978146 -0
    outer loop
      vertex 27.367 26.9791 2.5
      vertex 24.1463 27.6637 -7.5
      vertex 27.367 26.9791 -7.5
    endloop
  endfacet
  facet normal 0.994522 0.10453 0
    outer loop
      vertex 7.09418 8.72539 2.5
      vertex 6.75 12 -7.5
      vertex 6.75 12 2.5
    endloop
  endfacet
  facet normal 0.994522 0.10453 0
    outer loop
      vertex 6.75 12 -7.5
      vertex 7.09418 8.72539 2.5
      vertex 7.09418 8.72539 -7.5
    endloop
  endfacet
  facet normal 0.866025 -0.500001 0
    outer loop
      vertex 8.11166 18.4061 2.5
      vertex 9.75798 21.2576 -7.5
      vertex 9.75798 21.2576 2.5
    endloop
  endfacet
  facet normal 0.866025 -0.500001 0
    outer loop
      vertex 9.75798 21.2576 -7.5
      vertex 8.11166 18.4061 2.5
      vertex 8.11166 18.4061 -7.5
    endloop
  endfacet
  facet normal 1 -0 0
    outer loop
      vertex 54.375 44.925 2.5
      vertex 54.375 170 0
      vertex 54.375 170 2.5
    endloop
  endfacet
  facet normal 1 0 0
    outer loop
      vertex 54.375 170 0
      vertex 54.375 44.925 2.5
      vertex 54.375 44.925 0
    endloop
  endfacet
  facet normal 1 -0 0
    outer loop
      vertex 54.375 -5 2.5
      vertex 54.375 29.925 0
      vertex 54.375 29.925 2.5
    endloop
  endfacet
  facet normal 1 0 0
    outer loop
      vertex 54.375 29.925 0
      vertex 54.375 -5 2.5
      vertex 54.375 -5 0
    endloop
  endfacet
  facet normal 0 0 -1
    outer loop
      vertex -5 29.925 0
      vertex 1.25 33.675 0
      vertex 12.6963 29.925 0
    endloop
  endfacet
  facet normal -0 0 -1
    outer loop
      vertex -3.75 33.675 0
      vertex -5 29.925 0
      vertex -3.75 41.175 0
    endloop
  endfacet
  facet normal -0 0 -1
    outer loop
      vertex 1.25 33.675 0
      vertex -5 29.925 0
      vertex -3.75 33.675 0
    endloop
  endfacet
  facet normal 0 0 -1
    outer loop
      vertex 39.0139 32.9392 0
      vertex 39.375 44.925 0
      vertex 40.0108 32.7273 0
    endloop
  endfacet
  facet normal 0 0 -1
    outer loop
      vertex 38.3493 33.0805 0
      vertex 39.375 44.925 0
      vertex 39.0139 32.9392 0
    endloop
  endfacet
  facet normal 0 0 -1
    outer loop
      vertex 36.6507 33.0805 0
      vertex 39.375 44.925 0
      vertex 38.3493 33.0805 0
    endloop
  endfacet
  facet normal 0 0 -1
    outer loop
      vertex 35.9861 32.9392 0
      vertex 39.375 44.925 0
      vertex 36.6507 33.0805 0
    endloop
  endfacet
  facet normal 0 0 -1
    outer loop
      vertex 34.9892 32.7273 0
      vertex 39.375 44.925 0
      vertex 35.9861 32.9392 0
    endloop
  endfacet
  facet normal 0 0 -1
    outer loop
      vertex 34.0582 32.3128 0
      vertex 39.375 44.925 0
      vertex 34.9892 32.7273 0
    endloop
  endfacet
  facet normal 0 0 -1
    outer loop
      vertex 28.8271 31.4729 0
      vertex 34.0582 32.3128 0
      vertex 33.4375 32.0365 0
    endloop
  endfacet
  facet normal 0 0 -1
    outer loop
      vertex 28.8271 31.4729 0
      vertex 33.4375 32.0365 0
      vertex 32.8878 31.6371 0
    endloop
  endfacet
  facet normal 0 0 -1
    outer loop
      vertex 28.8271 31.4729 0
      vertex 32.8878 31.6371 0
      vertex 32.0633 31.0381 0
    endloop
  endfacet
  facet normal 0 0 -1
    outer loop
      vertex 28.8271 31.4729 0
      vertex 32.0633 31.0381 0
      vertex 31.4167 30.3199 0
    endloop
  endfacet
  facet normal -0 0 -1
    outer loop
      vertex 34.0582 32.3128 0
      vertex 28.8271 31.4729 0
      vertex 39.375 44.925 0
    endloop
  endfacet
  facet normal 0 0 -1
    outer loop
      vertex 24.6402 32.3628 0
      vertex 39.375 44.925 0
      vertex 28.8271 31.4729 0
    endloop
  endfacet
  facet normal 0 0 -1
    outer loop
      vertex 20.3598 32.3628 0
      vertex 39.375 44.925 0
      vertex 24.6402 32.3628 0
    endloop
  endfacet
  facet normal 0 0 -1
    outer loop
      vertex 1.25 41.175 0
      vertex 20.3598 32.3628 0
      vertex 16.1729 31.4729 0
    endloop
  endfacet
  facet normal 0 0 -1
    outer loop
      vertex 1.25 41.175 0
      vertex 16.1729 31.4729 0
      vertex 12.6963 29.925 0
    endloop
  endfacet
  facet normal 0 0 -1
    outer loop
      vertex 1.25 41.175 0
      vertex 12.6963 29.925 0
      vertex 1.25 33.675 0
    endloop
  endfacet
  facet normal 0 0 -1
    outer loop
      vertex 20.3598 32.3628 0
      vertex 1.25 41.175 0
      vertex 39.375 44.925 0
    endloop
  endfacet
  facet normal 0 0 -1
    outer loop
      vertex -5 44.925 0
      vertex 1.25 41.175 0
      vertex -3.75 41.175 0
    endloop
  endfacet
  facet normal 0 0 -1
    outer loop
      vertex 1.25 41.175 0
      vertex -5 44.925 0
      vertex 39.375 44.925 0
    endloop
  endfacet
  facet normal 0 0 -1
    outer loop
      vertex -5 44.925 0
      vertex -3.75 41.175 0
      vertex -5 29.925 0
    endloop
  endfacet
  facet normal 0 0 -1
    outer loop
      vertex 45.4474 26.6893 0
      vertex 54.375 29.925 0
      vertex 45.554 25.6757 0
    endloop
  endfacet
  facet normal 0 0 -1
    outer loop
      vertex 54.375 29.925 0
      vertex 45.554 24.3243 0
      vertex 45.625 25 0
    endloop
  endfacet
  facet normal 0 0 -1
    outer loop
      vertex 54.375 29.925 0
      vertex 45.4474 23.3107 0
      vertex 45.554 24.3243 0
    endloop
  endfacet
  facet normal 0 0 -1
    outer loop
      vertex 54.375 29.925 0
      vertex 44.9226 21.6953 0
      vertex 45.4474 23.3107 0
    endloop
  endfacet
  facet normal 0 0 -1
    outer loop
      vertex 42.975 12 0
      vertex 44.9226 21.6953 0
      vertex 50.625 1.25 0
    endloop
  endfacet
  facet normal 0 0 -1
    outer loop
      vertex 42.5276 7.74301 0
      vertex 50.625 1.25 0
      vertex 43.125 1.25 0
    endloop
  endfacet
  facet normal 0 0 -1
    outer loop
      vertex 44.9226 21.6953 0
      vertex 42.975 12 0
      vertex 44.0733 20.2242 0
    endloop
  endfacet
  facet normal 0 0 -1
    outer loop
      vertex 42.5276 16.257 0
      vertex 44.0733 20.2242 0
      vertex 42.975 12 0
    endloop
  endfacet
  facet normal 0 0 -1
    outer loop
      vertex 44.0733 20.2242 0
      vertex 42.5276 16.257 0
      vertex 42.9367 18.9619 0
    endloop
  endfacet
  facet normal 0 0 -1
    outer loop
      vertex 42.5276 16.257 0
      vertex 42.1122 18.3629 0
      vertex 42.9367 18.9619 0
    endloop
  endfacet
  facet normal 0 -0 -1
    outer loop
      vertex 42.1122 18.3629 0
      vertex 42.5276 16.257 0
      vertex 41.8947 18.2049 0
    endloop
  endfacet
  facet normal 0 0 -1
    outer loop
      vertex 50.625 1.25 0
      vertex 54.375 29.925 0
      vertex 54.375 -5 0
    endloop
  endfacet
  facet normal 0 0 -1
    outer loop
      vertex 44.9226 21.6953 0
      vertex 54.375 29.925 0
      vertex 50.625 1.25 0
    endloop
  endfacet
  facet normal 0 0 -1
    outer loop
      vertex 50.625 1.25 0
      vertex 54.375 -5 0
      vertex 50.625 -3.75 0
    endloop
  endfacet
  facet normal 0 0 -1
    outer loop
      vertex 54.375 -5 0
      vertex 43.125 -3.75 0
      vertex 50.625 -3.75 0
    endloop
  endfacet
  facet normal 0 0 -1
    outer loop
      vertex 39.375 0.502687 0
      vertex 43.125 1.25 0
      vertex 43.125 -3.75 0
    endloop
  endfacet
  facet normal 0 0 -1
    outer loop
      vertex 50.625 1.25 0
      vertex 42.5276 7.74301 0
      vertex 42.975 12 0
    endloop
  endfacet
  facet normal 0 0 -1
    outer loop
      vertex 43.125 1.25 0
      vertex 41.2048 3.67207 0
      vertex 42.5276 7.74301 0
    endloop
  endfacet
  facet normal 0 0 -1
    outer loop
      vertex 39.375 -5 0
      vertex 43.125 -3.75 0
      vertex 54.375 -5 0
    endloop
  endfacet
  facet normal 0 0 -1
    outer loop
      vertex 39.375 0.502687 0
      vertex 43.125 -3.75 0
      vertex 39.375 -5 0
    endloop
  endfacet
  facet normal -0 0 -1
    outer loop
      vertex 43.125 1.25 0
      vertex 39.375 0.502687 0
      vertex 41.2048 3.67207 0
    endloop
  endfacet
  facet normal 0 0 -1
    outer loop
      vertex 45.554 25.6757 0
      vertex 54.375 29.925 0
      vertex 45.625 25 0
    endloop
  endfacet
  facet normal 0 0 -1
    outer loop
      vertex 54.375 44.925 0
      vertex 50.625 163.75 0
      vertex 54.375 170 0
    endloop
  endfacet
  facet normal 0 0 -1
    outer loop
      vertex 50.625 168.75 0
      vertex 54.375 170 0
      vertex 50.625 163.75 0
    endloop
  endfacet
  facet normal 0 0 -1
    outer loop
      vertex 43.125 168.75 0
      vertex 54.375 170 0
      vertex 50.625 168.75 0
    endloop
  endfacet
  facet normal -0 0 -1
    outer loop
      vertex 50.625 163.75 0
      vertex 39.375 44.925 0
      vertex 43.125 163.75 0
    endloop
  endfacet
  facet normal -0 0 -1
    outer loop
      vertex 54.375 44.925 0
      vertex 41.5625 32.0365 0
      vertex 39.375 44.925 0
    endloop
  endfacet
  facet normal 0 0 -1
    outer loop
      vertex 39.375 44.925 0
      vertex 41.5625 32.0365 0
      vertex 40.9418 32.3128 0
    endloop
  endfacet
  facet normal 0 0 -1
    outer loop
      vertex 39.375 44.925 0
      vertex 40.9418 32.3128 0
      vertex 40.0108 32.7273 0
    endloop
  endfacet
  facet normal 0 0 -1
    outer loop
      vertex 39.375 170 0
      vertex 43.125 163.75 0
      vertex 39.375 44.925 0
    endloop
  endfacet
  facet normal 0 0 -1
    outer loop
      vertex 43.125 168.75 0
      vertex 39.375 170 0
      vertex 54.375 170 0
    endloop
  endfacet
  facet normal 0 0 -1
    outer loop
      vertex 43.125 163.75 0
      vertex 39.375 170 0
      vertex 43.125 168.75 0
    endloop
  endfacet
  facet normal 0 0 -1
    outer loop
      vertex 44.9226 28.3047 0
      vertex 54.375 29.925 0
      vertex 45.4474 26.6893 0
    endloop
  endfacet
  facet normal 0 0 -1
    outer loop
      vertex 44.0733 29.7758 0
      vertex 54.375 29.925 0
      vertex 44.9226 28.3047 0
    endloop
  endfacet
  facet normal 0 0 -1
    outer loop
      vertex 42.9367 31.0381 0
      vertex 54.375 29.925 0
      vertex 44.0733 29.7758 0
    endloop
  endfacet
  facet normal 0 0 -1
    outer loop
      vertex 54.375 29.925 0
      vertex 42.9367 31.0381 0
      vertex 54.375 44.925 0
    endloop
  endfacet
  facet normal 0 0 -1
    outer loop
      vertex 42.1122 31.6371 0
      vertex 54.375 44.925 0
      vertex 42.9367 31.0381 0
    endloop
  endfacet
  facet normal 0 0 -1
    outer loop
      vertex 54.375 44.925 0
      vertex 39.375 44.925 0
      vertex 50.625 163.75 0
    endloop
  endfacet
  facet normal 0 0 -1
    outer loop
      vertex 41.5625 32.0365 0
      vertex 54.375 44.925 0
      vertex 42.1122 31.6371 0
    endloop
  endfacet
  facet normal 0 0 -1
    outer loop
      vertex 80 29.925 0
      vertex 78.75 33.675 0
      vertex 80 44.925 0
    endloop
  endfacet
  facet normal 0 0 -1
    outer loop
      vertex 80 29.925 0
      vertex 73.75 33.675 0
      vertex 78.75 33.675 0
    endloop
  endfacet
  facet normal -0 0 -1
    outer loop
      vertex 73.75 33.675 0
      vertex 54.375 29.925 0
      vertex 73.75 41.175 0
    endloop
  endfacet
  facet normal 0 0 -1
    outer loop
      vertex 54.375 29.925 0
      vertex 73.75 33.675 0
      vertex 80 29.925 0
    endloop
  endfacet
  facet normal 0 0 -1
    outer loop
      vertex 78.75 41.175 0
      vertex 80 44.925 0
      vertex 78.75 33.675 0
    endloop
  endfacet
  facet normal 0 0 -1
    outer loop
      vertex 73.75 41.175 0
      vertex 80 44.925 0
      vertex 78.75 41.175 0
    endloop
  endfacet
  facet normal 0 0 -1
    outer loop
      vertex 54.375 44.925 0
      vertex 73.75 41.175 0
      vertex 54.375 29.925 0
    endloop
  endfacet
  facet normal 0 0 -1
    outer loop
      vertex 73.75 41.175 0
      vertex 54.375 44.925 0
      vertex 80 44.925 0
    endloop
  endfacet
  facet normal -1 0 0
    outer loop
      vertex 39.375 44.925 0
      vertex 39.375 170 2.5
      vertex 39.375 170 0
    endloop
  endfacet
  facet normal -1 -0 0
    outer loop
      vertex 39.375 170 2.5
      vertex 39.375 44.925 0
      vertex 39.375 44.925 2.5
    endloop
  endfacet
  facet normal -1 0 0
    outer loop
      vertex 39.375 -5 0
      vertex 39.375 0.502687 2.5
      vertex 39.375 0.502687 0
    endloop
  endfacet
  facet normal -1 -0 0
    outer loop
      vertex 39.375 0.502687 2.5
      vertex 39.375 -5 0
      vertex 39.375 -5 2.5
    endloop
  endfacet
  facet normal 0 1 -0
    outer loop
      vertex 54.375 170 0
      vertex 39.375 170 2.5
      vertex 54.375 170 2.5
    endloop
  endfacet
  facet normal 0 1 0
    outer loop
      vertex 39.375 170 2.5
      vertex 54.375 170 0
      vertex 39.375 170 0
    endloop
  endfacet
  facet normal 0 -1 0
    outer loop
      vertex 39.375 -5 0
      vertex 54.375 -5 2.5
      vertex 39.375 -5 2.5
    endloop
  endfacet
  facet normal 0 -1 -0
    outer loop
      vertex 54.375 -5 2.5
      vertex 39.375 -5 0
      vertex 54.375 -5 0
    endloop
  endfacet
  facet normal 1 -0 0
    outer loop
      vertex 80 29.925 2.5
      vertex 80 44.925 0
      vertex 80 44.925 2.5
    endloop
  endfacet
  facet normal 1 0 0
    outer loop
      vertex 80 44.925 0
      vertex 80 29.925 2.5
      vertex 80 29.925 0
    endloop
  endfacet
  facet normal -1 0 0
    outer loop
      vertex -5 29.925 0
      vertex -5 44.925 2.5
      vertex -5 44.925 0
    endloop
  endfacet
  facet normal -1 -0 0
    outer loop
      vertex -5 44.925 2.5
      vertex -5 29.925 0
      vertex -5 29.925 2.5
    endloop
  endfacet
  facet normal 0 1 -0
    outer loop
      vertex 39.375 44.925 0
      vertex -5 44.925 2.5
      vertex 39.375 44.925 2.5
    endloop
  endfacet
  facet normal 0 1 0
    outer loop
      vertex -5 44.925 2.5
      vertex 39.375 44.925 0
      vertex -5 44.925 0
    endloop
  endfacet
  facet normal 0 1 -0
    outer loop
      vertex 80 44.925 0
      vertex 54.375 44.925 2.5
      vertex 80 44.925 2.5
    endloop
  endfacet
  facet normal 0 1 0
    outer loop
      vertex 54.375 44.925 2.5
      vertex 80 44.925 0
      vertex 54.375 44.925 0
    endloop
  endfacet
  facet normal 0 -1 0
    outer loop
      vertex -5 29.925 0
      vertex 12.6963 29.925 2.5
      vertex -5 29.925 2.5
    endloop
  endfacet
  facet normal 0 -1 -0
    outer loop
      vertex 12.6963 29.925 2.5
      vertex -5 29.925 0
      vertex 12.6963 29.925 0
    endloop
  endfacet
  facet normal 0 -1 0
    outer loop
      vertex 54.375 29.925 0
      vertex 80 29.925 2.5
      vertex 54.375 29.925 2.5
    endloop
  endfacet
  facet normal 0 -1 -0
    outer loop
      vertex 80 29.925 2.5
      vertex 54.375 29.925 0
      vertex 80 29.925 0
    endloop
  endfacet
  facet normal -1 0 0
    outer loop
      vertex 50.625 -3.75 0
      vertex 50.625 1.25 2.5
      vertex 50.625 1.25 0
    endloop
  endfacet
  facet normal -1 -0 0
    outer loop
      vertex 50.625 1.25 2.5
      vertex 50.625 -3.75 0
      vertex 50.625 -3.75 2.5
    endloop
  endfacet
  facet normal 1 -0 0
    outer loop
      vertex 43.125 -3.75 2.5
      vertex 43.125 1.25 0
      vertex 43.125 1.25 2.5
    endloop
  endfacet
  facet normal 1 0 0
    outer loop
      vertex 43.125 1.25 0
      vertex 43.125 -3.75 2.5
      vertex 43.125 -3.75 0
    endloop
  endfacet
  facet normal 0 -1 0
    outer loop
      vertex 43.125 1.25 0
      vertex 50.625 1.25 2.5
      vertex 43.125 1.25 2.5
    endloop
  endfacet
  facet normal 0 -1 -0
    outer loop
      vertex 50.625 1.25 2.5
      vertex 43.125 1.25 0
      vertex 50.625 1.25 0
    endloop
  endfacet
  facet normal 0 1 -0
    outer loop
      vertex 50.625 -3.75 0
      vertex 43.125 -3.75 2.5
      vertex 50.625 -3.75 2.5
    endloop
  endfacet
  facet normal 0 1 0
    outer loop
      vertex 43.125 -3.75 2.5
      vertex 50.625 -3.75 0
      vertex 43.125 -3.75 0
    endloop
  endfacet
  facet normal -1 0 0
    outer loop
      vertex 50.625 163.75 0
      vertex 50.625 168.75 2.5
      vertex 50.625 168.75 0
    endloop
  endfacet
  facet normal -1 -0 0
    outer loop
      vertex 50.625 168.75 2.5
      vertex 50.625 163.75 0
      vertex 50.625 163.75 2.5
    endloop
  endfacet
  facet normal 1 -0 0
    outer loop
      vertex 43.125 163.75 2.5
      vertex 43.125 168.75 0
      vertex 43.125 168.75 2.5
    endloop
  endfacet
  facet normal 1 0 0
    outer loop
      vertex 43.125 168.75 0
      vertex 43.125 163.75 2.5
      vertex 43.125 163.75 0
    endloop
  endfacet
  facet normal 0 -1 0
    outer loop
      vertex 43.125 168.75 0
      vertex 50.625 168.75 2.5
      vertex 43.125 168.75 2.5
    endloop
  endfacet
  facet normal 0 -1 -0
    outer loop
      vertex 50.625 168.75 2.5
      vertex 43.125 168.75 0
      vertex 50.625 168.75 0
    endloop
  endfacet
  facet normal 0 1 -0
    outer loop
      vertex 50.625 163.75 0
      vertex 43.125 163.75 2.5
      vertex 50.625 163.75 2.5
    endloop
  endfacet
  facet normal 0 1 0
    outer loop
      vertex 43.125 163.75 2.5
      vertex 50.625 163.75 0
      vertex 43.125 163.75 0
    endloop
  endfacet
  facet normal -1 0 0
    outer loop
      vertex 1.25 33.675 0
      vertex 1.25 41.175 2.5
      vertex 1.25 41.175 0
    endloop
  endfacet
  facet normal -1 -0 0
    outer loop
      vertex 1.25 41.175 2.5
      vertex 1.25 33.675 0
      vertex 1.25 33.675 2.5
    endloop
  endfacet
  facet normal 1 -0 0
    outer loop
      vertex -3.75 33.675 2.5
      vertex -3.75 41.175 0
      vertex -3.75 41.175 2.5
    endloop
  endfacet
  facet normal 1 0 0
    outer loop
      vertex -3.75 41.175 0
      vertex -3.75 33.675 2.5
      vertex -3.75 33.675 0
    endloop
  endfacet
  facet normal 0 -1 0
    outer loop
      vertex -3.75 41.175 0
      vertex 1.25 41.175 2.5
      vertex -3.75 41.175 2.5
    endloop
  endfacet
  facet normal 0 -1 -0
    outer loop
      vertex 1.25 41.175 2.5
      vertex -3.75 41.175 0
      vertex 1.25 41.175 0
    endloop
  endfacet
  facet normal 0 1 -0
    outer loop
      vertex 1.25 33.675 0
      vertex -3.75 33.675 2.5
      vertex 1.25 33.675 2.5
    endloop
  endfacet
  facet normal 0 1 0
    outer loop
      vertex -3.75 33.675 2.5
      vertex 1.25 33.675 0
      vertex -3.75 33.675 0
    endloop
  endfacet
  facet normal -1 0 0
    outer loop
      vertex 78.75 33.675 0
      vertex 78.75 41.175 2.5
      vertex 78.75 41.175 0
    endloop
  endfacet
  facet normal -1 -0 0
    outer loop
      vertex 78.75 41.175 2.5
      vertex 78.75 33.675 0
      vertex 78.75 33.675 2.5
    endloop
  endfacet
  facet normal 1 -0 0
    outer loop
      vertex 73.75 33.675 2.5
      vertex 73.75 41.175 0
      vertex 73.75 41.175 2.5
    endloop
  endfacet
  facet normal 1 0 0
    outer loop
      vertex 73.75 41.175 0
      vertex 73.75 33.675 2.5
      vertex 73.75 33.675 0
    endloop
  endfacet
  facet normal 0 -1 0
    outer loop
      vertex 73.75 41.175 0
      vertex 78.75 41.175 2.5
      vertex 73.75 41.175 2.5
    endloop
  endfacet
  facet normal 0 -1 -0
    outer loop
      vertex 78.75 41.175 2.5
      vertex 73.75 41.175 0
      vertex 78.75 41.175 0
    endloop
  endfacet
  facet normal 0 1 -0
    outer loop
      vertex 78.75 33.675 0
      vertex 73.75 33.675 2.5
      vertex 78.75 33.675 2.5
    endloop
  endfacet
  facet normal 0 1 0
    outer loop
      vertex 73.75 33.675 2.5
      vertex 78.75 33.675 0
      vertex 73.75 33.675 0
    endloop
  endfacet
  facet normal -0.981787 -0.103162 -0.159539
    outer loop
      vertex 45.625 25 0
      vertex 45.1655 25.5068 2.5
      vertex 45.554 25.6757 0
    endloop
  endfacet
  facet normal -0.98178 -0.103254 -0.15952
    outer loop
      vertex 45.1655 25.5068 2.5
      vertex 45.625 25 0
      vertex 45.2188 25 2.5
    endloop
  endfacet
  facet normal -0.5802 0.798693 -0.159555
    outer loop
      vertex 41.8947 18.2049 0
      vertex 41.7716 18.6149 2.5
      vertex 42.1122 18.3629 0
    endloop
  endfacet
  facet normal -0.58028 0.798636 -0.159549
    outer loop
      vertex 41.7716 18.6149 2.5
      vertex 41.8947 18.2049 0
      vertex 41.3594 18.3154 2.5
    endloop
  endfacet
  facet normal -0.58019 0.798702 -0.159545
    outer loop
      vertex 42.1719 16.9081 -7.5
      vertex 41.8947 18.2049 0
      vertex 42.2885 16.9928 -7.5
    endloop
  endfacet
  facet normal -0.580234 0.798671 -0.159541
    outer loop
      vertex 41.8947 18.2049 0
      vertex 42.1719 16.9081 -7.5
      vertex 41.3594 18.3154 2.5
    endloop
  endfacet
  facet normal -0.580279 -0.798635 -0.159558
    outer loop
      vertex 41.5625 32.0365 0
      vertex 41.7716 31.3851 2.5
      vertex 41.3594 31.6846 2.5
    endloop
  endfacet
  facet normal -0.580273 -0.798639 -0.159559
    outer loop
      vertex 41.7716 31.3851 2.5
      vertex 41.5625 32.0365 0
      vertex 42.1122 31.6371 0
    endloop
  endfacet
  facet normal 0.580273 -0.798639 -0.159559
    outer loop
      vertex 33.4375 32.0365 0
      vertex 33.2284 31.3851 2.5
      vertex 32.8878 31.6371 0
    endloop
  endfacet
  facet normal 0.580279 -0.798635 -0.159558
    outer loop
      vertex 33.2284 31.3851 2.5
      vertex 33.4375 32.0365 0
      vertex 33.6406 31.6846 2.5
    endloop
  endfacet
  facet normal -0.98178 0.103254 -0.15952
    outer loop
      vertex 45.625 25 0
      vertex 45.1655 24.4932 2.5
      vertex 45.2188 25 2.5
    endloop
  endfacet
  facet normal -0.981787 0.103162 -0.159539
    outer loop
      vertex 45.1655 24.4932 2.5
      vertex 45.625 25 0
      vertex 45.554 24.3243 0
    endloop
  endfacet
  facet normal -0.938884 -0.305018 -0.159561
    outer loop
      vertex 45.4474 26.6893 0
      vertex 44.5514 28.1395 2.5
      vertex 44.9226 28.3047 0
    endloop
  endfacet
  facet normal -0.93887 -0.305085 -0.159517
    outer loop
      vertex 44.5514 28.1395 2.5
      vertex 45.4474 26.6893 0
      vertex 45.0501 26.6048 2.5
    endloop
  endfacet
  facet normal 0.854955 -0.493556 -0.159541
    outer loop
      vertex 31.2554 29.537 2.5
      vertex 28.9641 28.8004 -7.5
      vertex 29.9407 30.4921 -7.5
    endloop
  endfacet
  facet normal 0.854946 -0.493574 -0.159537
    outer loop
      vertex 28.9641 28.8004 -7.5
      vertex 31.2554 29.537 2.5
      vertex 30.4486 28.1395 2.5
    endloop
  endfacet
  facet normal -0.733619 -0.660565 -0.159555
    outer loop
      vertex 44.0733 29.7758 0
      vertex 42.6649 30.7361 2.5
      vertex 42.9367 31.0381 0
    endloop
  endfacet
  facet normal -0.733617 -0.660567 -0.159553
    outer loop
      vertex 42.6649 30.7361 2.5
      vertex 44.0733 29.7758 0
      vertex 43.7446 29.537 2.5
    endloop
  endfacet
  facet normal -0.205324 -0.965604 -0.159532
    outer loop
      vertex 38.3493 33.0805 0
      vertex 38.8053 32.5705 2.5
      vertex 38.3068 32.6765 2.5
    endloop
  endfacet
  facet normal -0.205297 -0.965609 -0.159538
    outer loop
      vertex 38.8053 32.5705 2.5
      vertex 38.3493 33.0805 0
      vertex 39.0139 32.9392 0
    endloop
  endfacet
  facet normal -0.205246 0.965619 -0.159545
    outer loop
      vertex 38.4767 15.7074 -7.5
      vertex 38.8053 17.4295 2.5
      vertex 39.6397 15.9546 -7.5
    endloop
  endfacet
  facet normal -0.205324 0.965603 -0.15954
    outer loop
      vertex 38.8053 17.4295 2.5
      vertex 38.4767 15.7074 -7.5
      vertex 38.3068 17.3235 2.5
    endloop
  endfacet
  facet normal -0.580243 -0.798661 -0.159557
    outer loop
      vertex 42.1122 31.6371 0
      vertex 42.6649 30.7361 2.5
      vertex 41.7716 31.3851 2.5
    endloop
  endfacet
  facet normal -0.580233 -0.798668 -0.159562
    outer loop
      vertex 42.6649 30.7361 2.5
      vertex 42.1122 31.6371 0
      vertex 42.9367 31.0381 0
    endloop
  endfacet
  facet normal -0.854941 -0.493577 -0.159554
    outer loop
      vertex 44.9226 28.3047 0
      vertex 43.7446 29.537 2.5
      vertex 44.0733 29.7758 0
    endloop
  endfacet
  facet normal -0.854943 -0.493573 -0.159557
    outer loop
      vertex 43.7446 29.537 2.5
      vertex 44.9226 28.3047 0
      vertex 44.5514 28.1395 2.5
    endloop
  endfacet
  facet normal -0.205337 0.965601 -0.159536
    outer loop
      vertex 39.6397 15.9546 -7.5
      vertex 39.8852 17.659 2.5
      vertex 40.3874 16.1136 -7.5
    endloop
  endfacet
  facet normal -0.205214 0.965626 -0.159543
    outer loop
      vertex 39.8852 17.659 2.5
      vertex 39.6397 15.9546 -7.5
      vertex 38.8053 17.4295 2.5
    endloop
  endfacet
  facet normal 0.401521 -0.901849 -0.159528
    outer loop
      vertex 34.9892 32.7273 0
      vertex 34.1061 31.8919 2.5
      vertex 34.0582 32.3128 0
    endloop
  endfacet
  facet normal 0.401526 -0.901847 -0.159526
    outer loop
      vertex 34.1061 31.8919 2.5
      vertex 34.9892 32.7273 0
      vertex 35.1148 32.341 2.5
    endloop
  endfacet
  facet normal 0 0.987191 -0.15954
    outer loop
      vertex 37.7652 15.7074 -7.5
      vertex 38.3068 17.3235 2.5
      vertex 38.4767 15.7074 -7.5
    endloop
  endfacet
  facet normal 0 0.987191 -0.15954
    outer loop
      vertex 38.3068 17.3235 2.5
      vertex 37.7652 15.7074 -7.5
      vertex 37.2401 17.3235 2.5
    endloop
  endfacet
  facet normal -0.733617 0.660567 -0.159553
    outer loop
      vertex 44.0733 20.2242 0
      vertex 42.6649 19.2639 2.5
      vertex 43.7446 20.463 2.5
    endloop
  endfacet
  facet normal -0.733619 0.660565 -0.159555
    outer loop
      vertex 42.6649 19.2639 2.5
      vertex 44.0733 20.2242 0
      vertex 42.9367 18.9619 0
    endloop
  endfacet
  facet normal -0.401602 -0.901813 -0.159524
    outer loop
      vertex 40.9418 32.3128 0
      vertex 41.3594 31.6846 2.5
      vertex 40.8939 31.8919 2.5
    endloop
  endfacet
  facet normal -0.401461 -0.90187 -0.159562
    outer loop
      vertex 41.3594 31.6846 2.5
      vertex 40.9418 32.3128 0
      vertex 41.5625 32.0365 0
    endloop
  endfacet
  facet normal 0 -0.987193 -0.15953
    outer loop
      vertex 36.6507 33.0805 0
      vertex 38.3068 32.6765 2.5
      vertex 36.6932 32.6765 2.5
    endloop
  endfacet
  facet normal 0 -0.987193 -0.15953
    outer loop
      vertex 38.3068 32.6765 2.5
      vertex 36.6507 33.0805 0
      vertex 38.3493 33.0805 0
    endloop
  endfacet
  facet normal 0.401461 -0.90187 -0.159562
    outer loop
      vertex 34.0582 32.3128 0
      vertex 33.6406 31.6846 2.5
      vertex 33.4375 32.0365 0
    endloop
  endfacet
  facet normal 0.401602 -0.901813 -0.159524
    outer loop
      vertex 33.6406 31.6846 2.5
      vertex 34.0582 32.3128 0
      vertex 34.1061 31.8919 2.5
    endloop
  endfacet
  facet normal -0.401522 0.901846 -0.159541
    outer loop
      vertex 41.0857 16.4245 -7.5
      vertex 41.3594 18.3154 2.5
      vertex 42.1719 16.9081 -7.5
    endloop
  endfacet
  facet normal -0.401602 0.901812 -0.159532
    outer loop
      vertex 41.3594 18.3154 2.5
      vertex 41.0857 16.4245 -7.5
      vertex 40.8939 18.1081 2.5
    endloop
  endfacet
  facet normal -0.854943 0.493573 -0.159557
    outer loop
      vertex 44.9226 21.6953 0
      vertex 43.7446 20.463 2.5
      vertex 44.5514 21.8605 2.5
    endloop
  endfacet
  facet normal -0.854941 0.493577 -0.159554
    outer loop
      vertex 43.7446 20.463 2.5
      vertex 44.9226 21.6953 0
      vertex 44.0733 20.2242 0
    endloop
  endfacet
  facet normal 0.205297 -0.965609 -0.159538
    outer loop
      vertex 36.6507 33.0805 0
      vertex 36.1947 32.5705 2.5
      vertex 35.9861 32.9392 0
    endloop
  endfacet
  facet normal 0.205324 -0.965604 -0.159532
    outer loop
      vertex 36.1947 32.5705 2.5
      vertex 36.6507 33.0805 0
      vertex 36.6932 32.6765 2.5
    endloop
  endfacet
  facet normal -0.93887 0.305085 -0.159517
    outer loop
      vertex 45.4474 23.3107 0
      vertex 44.5514 21.8605 2.5
      vertex 45.0501 23.3952 2.5
    endloop
  endfacet
  facet normal -0.938884 0.305018 -0.159561
    outer loop
      vertex 44.5514 21.8605 2.5
      vertex 45.4474 23.3107 0
      vertex 44.9226 21.6953 0
    endloop
  endfacet
  facet normal 0.938861 -0.305103 -0.159538
    outer loop
      vertex 30.4486 28.1395 2.5
      vertex 28.3604 26.9427 -7.5
      vertex 28.9641 28.8004 -7.5
    endloop
  endfacet
  facet normal 0.938866 -0.305084 -0.159542
    outer loop
      vertex 28.3604 26.9427 -7.5
      vertex 30.4486 28.1395 2.5
      vertex 29.9499 26.6048 2.5
    endloop
  endfacet
  facet normal -0.401524 0.901846 -0.159536
    outer loop
      vertex 40.3874 16.1136 -7.5
      vertex 40.8939 18.1081 2.5
      vertex 41.0857 16.4245 -7.5
    endloop
  endfacet
  facet normal -0.401526 0.901846 -0.159536
    outer loop
      vertex 40.8939 18.1081 2.5
      vertex 40.3874 16.1136 -7.5
      vertex 39.8852 17.659 2.5
    endloop
  endfacet
  facet normal 0.205252 -0.965622 -0.15952
    outer loop
      vertex 35.9861 32.9392 0
      vertex 35.1148 32.341 2.5
      vertex 34.9892 32.7273 0
    endloop
  endfacet
  facet normal 0.205215 -0.965627 -0.159534
    outer loop
      vertex 35.1148 32.341 2.5
      vertex 35.9861 32.9392 0
      vertex 36.1947 32.5705 2.5
    endloop
  endfacet
  facet normal -0.981784 0.103186 -0.15954
    outer loop
      vertex 45.554 24.3243 0
      vertex 45.0501 23.3952 2.5
      vertex 45.1655 24.4932 2.5
    endloop
  endfacet
  facet normal -0.981781 0.103254 -0.159515
    outer loop
      vertex 45.0501 23.3952 2.5
      vertex 45.554 24.3243 0
      vertex 45.4474 23.3107 0
    endloop
  endfacet
  facet normal 0.73366 -0.660519 -0.159554
    outer loop
      vertex 32.3351 30.7361 2.5
      vertex 31.4167 30.3199 0
      vertex 32.0633 31.0381 0
    endloop
  endfacet
  facet normal 0.73362 -0.66057 -0.159531
    outer loop
      vertex 31.4167 30.3199 0
      vertex 32.3351 30.7361 2.5
      vertex 31.2554 29.537 2.5
    endloop
  endfacet
  facet normal 0.733646 -0.660536 -0.159547
    outer loop
      vertex 31.4167 30.3199 0
      vertex 29.9407 30.4921 -7.5
      vertex 30.2524 30.8383 -7.5
    endloop
  endfacet
  facet normal 0.733598 -0.660592 -0.159539
    outer loop
      vertex 29.9407 30.4921 -7.5
      vertex 31.4167 30.3199 0
      vertex 31.2554 29.537 2.5
    endloop
  endfacet
  facet normal -0.401526 -0.901847 -0.159526
    outer loop
      vertex 40.0108 32.7273 0
      vertex 40.8939 31.8919 2.5
      vertex 39.8852 32.341 2.5
    endloop
  endfacet
  facet normal -0.401521 -0.901849 -0.159528
    outer loop
      vertex 40.8939 31.8919 2.5
      vertex 40.0108 32.7273 0
      vertex 40.9418 32.3128 0
    endloop
  endfacet
  facet normal -0.205215 -0.965627 -0.159534
    outer loop
      vertex 39.0139 32.9392 0
      vertex 39.8852 32.341 2.5
      vertex 38.8053 32.5705 2.5
    endloop
  endfacet
  facet normal -0.205252 -0.965622 -0.15952
    outer loop
      vertex 39.8852 32.341 2.5
      vertex 39.0139 32.9392 0
      vertex 40.0108 32.7273 0
    endloop
  endfacet
  facet normal 0.580233 -0.798668 -0.159562
    outer loop
      vertex 32.8878 31.6371 0
      vertex 32.3351 30.7361 2.5
      vertex 32.0633 31.0381 0
    endloop
  endfacet
  facet normal 0.580243 -0.798661 -0.159557
    outer loop
      vertex 32.3351 30.7361 2.5
      vertex 32.8878 31.6371 0
      vertex 33.2284 31.3851 2.5
    endloop
  endfacet
  facet normal 0.981797 -0.103067 -0.159539
    outer loop
      vertex 29.9499 26.6048 2.5
      vertex 28.3197 26.555 -7.5
      vertex 28.3604 26.9427 -7.5
    endloop
  endfacet
  facet normal 0.981782 -0.103213 -0.159536
    outer loop
      vertex 28.3197 26.555 -7.5
      vertex 29.9499 26.6048 2.5
      vertex 29.872 25.8638 2.5
    endloop
  endfacet
  facet normal -0.981781 -0.103254 -0.159515
    outer loop
      vertex 45.554 25.6757 0
      vertex 45.0501 26.6048 2.5
      vertex 45.4474 26.6893 0
    endloop
  endfacet
  facet normal -0.981784 -0.103186 -0.15954
    outer loop
      vertex 45.0501 26.6048 2.5
      vertex 45.554 25.6757 0
      vertex 45.1655 25.5068 2.5
    endloop
  endfacet
  facet normal -0.580233 0.798668 -0.159562
    outer loop
      vertex 42.1122 18.3629 0
      vertex 42.6649 19.2639 2.5
      vertex 42.9367 18.9619 0
    endloop
  endfacet
  facet normal -0.580243 0.798661 -0.159557
    outer loop
      vertex 42.6649 19.2639 2.5
      vertex 42.1122 18.3629 0
      vertex 41.7716 18.6149 2.5
    endloop
  endfacet
endsolid OpenSCAD_Model
