solid OpenSCAD_Model
  facet normal 0.587794 0.809011 -0
    outer loop
      vertex 36.2004 27.2159 0
      vertex 32.7375 29.7319 10
      vertex 36.2004 27.2159 10
    endloop
  endfacet
  facet normal 0.587794 0.809011 0
    outer loop
      vertex 32.7375 29.7319 10
      vertex 36.2004 27.2159 0
      vertex 32.7375 29.7319 0
    endloop
  endfacet
  facet normal -0.951056 0.30902 0
    outer loop
      vertex 2.47243 16.257 0
      vertex 3.79516 20.3279 10
      vertex 3.79516 20.3279 0
    endloop
  endfacet
  facet normal -0.951056 0.30902 0
    outer loop
      vertex 3.79516 20.3279 10
      vertex 2.47243 16.257 0
      vertex 2.47243 16.257 10
    endloop
  endfacet
  facet normal 0.207911 -0.978148 0
    outer loop
      vertex 24.6402 -8.36283 0
      vertex 28.8271 -7.47288 10
      vertex 24.6402 -8.36283 10
    endloop
  endfacet
  facet normal 0.207911 -0.978148 0
    outer loop
      vertex 28.8271 -7.47288 10
      vertex 24.6402 -8.36283 0
      vertex 28.8271 -7.47288 0
    endloop
  endfacet
  facet normal -0.994522 0.104529 0
    outer loop
      vertex 2.025 12 0
      vertex 2.47243 16.257 10
      vertex 2.47243 16.257 0
    endloop
  endfacet
  facet normal -0.994522 0.104529 0
    outer loop
      vertex 2.47243 16.257 10
      vertex 2.025 12 0
      vertex 2.025 12 10
    endloop
  endfacet
  facet normal 0 -1 0
    outer loop
      vertex 20.3598 -8.36283 0
      vertex 24.6402 -8.36283 10
      vertex 20.3598 -8.36283 10
    endloop
  endfacet
  facet normal 0 -1 -0
    outer loop
      vertex 24.6402 -8.36283 10
      vertex 20.3598 -8.36283 0
      vertex 24.6402 -8.36283 0
    endloop
  endfacet
  facet normal 0.406732 0.913547 -5.74549e-06
    outer loop
      vertex 32.7375 29.7319 10
      vertex 32.3037 29.925 4
      vertex 28.8271 31.4729 10
    endloop
  endfacet
  facet normal 0.406666 0.913577 -0
    outer loop
      vertex 32.7375 29.7319 0
      vertex 32.3037 29.925 4
      vertex 32.7375 29.7319 10
    endloop
  endfacet
  facet normal 0.406666 0.913577 0
    outer loop
      vertex 32.3037 29.925 4
      vertex 32.7375 29.7319 0
      vertex 32.3037 29.925 0
    endloop
  endfacet
  facet normal 0.406741 0.913544 0
    outer loop
      vertex 28.8271 31.4729 10
      vertex 32.3037 29.925 4
      vertex 28.8271 31.4729 4
    endloop
  endfacet
  facet normal 0.994523 -0.104522 0
    outer loop
      vertex 42.5276 7.74301 10
      vertex 42.975 12 4
      vertex 42.975 12 10
    endloop
  endfacet
  facet normal 0.994523 -0.104522 0
    outer loop
      vertex 42.975 12 4
      vertex 42.5276 7.74301 10
      vertex 42.5276 7.74301 4
    endloop
  endfacet
  facet normal 0.866014 0.50002 0
    outer loop
      vertex 39.0646 24.0349 10
      vertex 39.375 23.4973 4
      vertex 39.0646 24.0349 0
    endloop
  endfacet
  facet normal 0.866029 0.499993 3.16477e-06
    outer loop
      vertex 41.2048 20.3279 10
      vertex 39.375 23.4973 4
      vertex 39.0646 24.0349 10
    endloop
  endfacet
  facet normal 0.866032 0.499989 0
    outer loop
      vertex 39.375 23.4973 4
      vertex 41.2048 20.3279 10
      vertex 41.2048 20.3279 4
    endloop
  endfacet
  facet normal 0.866014 0.50002 0
    outer loop
      vertex 39.0646 24.0349 0
      vertex 39.375 23.4973 4
      vertex 39.375 23.4973 0
    endloop
  endfacet
  facet normal 0.866031 -0.499991 0
    outer loop
      vertex 41.2048 3.67207 10
      vertex 39.375 0.502687 4
      vertex 41.2048 3.67207 4
    endloop
  endfacet
  facet normal 0.866028 -0.499996 3.70029e-06
    outer loop
      vertex 39.0646 -0.0349026 10
      vertex 39.375 0.502687 4
      vertex 41.2048 3.67207 10
    endloop
  endfacet
  facet normal 0.86601 -0.500027 0
    outer loop
      vertex 39.0646 -0.0349026 0
      vertex 39.375 0.502687 4
      vertex 39.0646 -0.0349026 10
    endloop
  endfacet
  facet normal 0.86601 -0.500027 0
    outer loop
      vertex 39.375 0.502687 4
      vertex 39.0646 -0.0349026 0
      vertex 39.375 0.502687 0
    endloop
  endfacet
  facet normal -0.207911 -0.978148 0
    outer loop
      vertex 16.1729 -7.47288 0
      vertex 20.3598 -8.36283 10
      vertex 16.1729 -7.47288 10
    endloop
  endfacet
  facet normal -0.207911 -0.978148 -0
    outer loop
      vertex 20.3598 -8.36283 10
      vertex 16.1729 -7.47288 0
      vertex 20.3598 -8.36283 0
    endloop
  endfacet
  facet normal 0.743143 0.669133 0
    outer loop
      vertex 39.0646 24.0349 10
      vertex 36.2004 27.2159 0
      vertex 36.2004 27.2159 10
    endloop
  endfacet
  facet normal 0.743143 0.669133 0
    outer loop
      vertex 36.2004 27.2159 0
      vertex 39.0646 24.0349 10
      vertex 39.0646 24.0349 0
    endloop
  endfacet
  facet normal 0.994523 0.104522 0
    outer loop
      vertex 42.975 12 10
      vertex 42.5276 16.257 4
      vertex 42.5276 16.257 10
    endloop
  endfacet
  facet normal 0.994523 0.104522 0
    outer loop
      vertex 42.5276 16.257 4
      vertex 42.975 12 10
      vertex 42.975 12 4
    endloop
  endfacet
  facet normal -0.866027 0.499997 0
    outer loop
      vertex 3.79516 20.3279 0
      vertex 5.93538 24.0349 10
      vertex 5.93538 24.0349 0
    endloop
  endfacet
  facet normal -0.866027 0.499997 0
    outer loop
      vertex 5.93538 24.0349 10
      vertex 3.79516 20.3279 0
      vertex 3.79516 20.3279 10
    endloop
  endfacet
  facet normal 0.2079 0.97815 -0
    outer loop
      vertex 28.8271 31.4729 4
      vertex 24.6402 32.3628 10
      vertex 28.8271 31.4729 10
    endloop
  endfacet
  facet normal 0.2079 0.97815 0
    outer loop
      vertex 24.6402 32.3628 10
      vertex 28.8271 31.4729 4
      vertex 24.6402 32.3628 4
    endloop
  endfacet
  facet normal -0.951056 -0.309017 0
    outer loop
      vertex 3.79516 3.67207 0
      vertex 2.47243 7.74301 10
      vertex 2.47243 7.74301 0
    endloop
  endfacet
  facet normal -0.951056 -0.309017 0
    outer loop
      vertex 2.47243 7.74301 10
      vertex 3.79516 3.67207 0
      vertex 3.79516 3.67207 10
    endloop
  endfacet
  facet normal -0.587788 0.809015 0
    outer loop
      vertex 12.2625 29.7319 0
      vertex 8.79955 27.2159 10
      vertex 12.2625 29.7319 10
    endloop
  endfacet
  facet normal -0.587788 0.809015 0
    outer loop
      vertex 8.79955 27.2159 10
      vertex 12.2625 29.7319 0
      vertex 8.79955 27.2159 0
    endloop
  endfacet
  facet normal 0.951051 0.309035 0
    outer loop
      vertex 42.5276 16.257 10
      vertex 41.2048 20.3279 4
      vertex 41.2048 20.3279 10
    endloop
  endfacet
  facet normal 0.951051 0.309035 0
    outer loop
      vertex 41.2048 20.3279 4
      vertex 42.5276 16.257 10
      vertex 42.5276 16.257 4
    endloop
  endfacet
  facet normal 0.406734 -0.913547 0
    outer loop
      vertex 28.8271 -7.47288 0
      vertex 32.7375 -5.73187 10
      vertex 28.8271 -7.47288 10
    endloop
  endfacet
  facet normal 0.406734 -0.913547 0
    outer loop
      vertex 32.7375 -5.73187 10
      vertex 28.8271 -7.47288 0
      vertex 32.7375 -5.73187 0
    endloop
  endfacet
  facet normal -0.406734 -0.913547 0
    outer loop
      vertex 12.2625 -5.73187 0
      vertex 16.1729 -7.47288 10
      vertex 12.2625 -5.73187 10
    endloop
  endfacet
  facet normal -0.406734 -0.913547 -0
    outer loop
      vertex 16.1729 -7.47288 10
      vertex 12.2625 -5.73187 0
      vertex 16.1729 -7.47288 0
    endloop
  endfacet
  facet normal -0.743147 0.669129 0
    outer loop
      vertex 5.93538 24.0349 0
      vertex 8.79955 27.2159 10
      vertex 8.79955 27.2159 0
    endloop
  endfacet
  facet normal -0.743147 0.669129 0
    outer loop
      vertex 8.79955 27.2159 10
      vertex 5.93538 24.0349 0
      vertex 5.93538 24.0349 10
    endloop
  endfacet
  facet normal -0.2079 0.97815 0
    outer loop
      vertex 20.3598 32.3628 4
      vertex 16.1729 31.4729 10
      vertex 20.3598 32.3628 10
    endloop
  endfacet
  facet normal -0.2079 0.97815 0
    outer loop
      vertex 16.1729 31.4729 10
      vertex 20.3598 32.3628 4
      vertex 16.1729 31.4729 4
    endloop
  endfacet
  facet normal 0.587791 -0.809013 0
    outer loop
      vertex 32.7375 -5.73187 0
      vertex 36.2004 -3.21589 10
      vertex 32.7375 -5.73187 10
    endloop
  endfacet
  facet normal 0.587791 -0.809013 0
    outer loop
      vertex 36.2004 -3.21589 10
      vertex 32.7375 -5.73187 0
      vertex 36.2004 -3.21589 0
    endloop
  endfacet
  facet normal -0.587785 -0.809017 0
    outer loop
      vertex 8.79955 -3.21589 0
      vertex 12.2625 -5.73187 10
      vertex 8.79955 -3.21589 10
    endloop
  endfacet
  facet normal -0.587785 -0.809017 -0
    outer loop
      vertex 12.2625 -5.73187 10
      vertex 8.79955 -3.21589 0
      vertex 12.2625 -5.73187 0
    endloop
  endfacet
  facet normal 0 1 -0
    outer loop
      vertex 24.6402 32.3628 4
      vertex 20.3598 32.3628 10
      vertex 24.6402 32.3628 10
    endloop
  endfacet
  facet normal 0 1 0
    outer loop
      vertex 20.3598 32.3628 10
      vertex 24.6402 32.3628 4
      vertex 20.3598 32.3628 4
    endloop
  endfacet
  facet normal 0.743142 -0.669134 0
    outer loop
      vertex 36.2004 -3.21589 10
      vertex 39.0646 -0.0349026 0
      vertex 39.0646 -0.0349026 10
    endloop
  endfacet
  facet normal 0.743142 -0.669134 0
    outer loop
      vertex 39.0646 -0.0349026 0
      vertex 36.2004 -3.21589 10
      vertex 36.2004 -3.21589 0
    endloop
  endfacet
  facet normal 0 0 1
    outer loop
      vertex 38.25 12 10
      vertex 42.975 12 10
      vertex 42.5276 16.257 10
    endloop
  endfacet
  facet normal 0 0 1
    outer loop
      vertex 37.9058 15.2746 10
      vertex 42.5276 16.257 10
      vertex 41.2048 20.3279 10
    endloop
  endfacet
  facet normal 0 0 1
    outer loop
      vertex 42.975 12 10
      vertex 38.25 12 10
      vertex 42.5276 7.74301 10
    endloop
  endfacet
  facet normal 0 0 1
    outer loop
      vertex 36.8883 18.4061 10
      vertex 41.2048 20.3279 10
      vertex 39.0646 24.0349 10
    endloop
  endfacet
  facet normal -0 0 1
    outer loop
      vertex 37.9058 8.72539 10
      vertex 42.5276 7.74301 10
      vertex 38.25 12 10
    endloop
  endfacet
  facet normal 0 0 1
    outer loop
      vertex 42.5276 7.74301 10
      vertex 37.9058 8.72539 10
      vertex 41.2048 3.67207 10
    endloop
  endfacet
  facet normal 0 0 1
    outer loop
      vertex 42.5276 16.257 10
      vertex 37.9058 15.2746 10
      vertex 38.25 12 10
    endloop
  endfacet
  facet normal 0 0 1
    outer loop
      vertex 41.2048 20.3279 10
      vertex 36.8883 18.4061 10
      vertex 37.9058 15.2746 10
    endloop
  endfacet
  facet normal 0 0 1
    outer loop
      vertex 35.242 21.2576 10
      vertex 39.0646 24.0349 10
      vertex 36.2004 27.2159 10
    endloop
  endfacet
  facet normal 0 0 1
    outer loop
      vertex 39.0646 24.0349 10
      vertex 35.242 21.2576 10
      vertex 36.8883 18.4061 10
    endloop
  endfacet
  facet normal 0 0 1
    outer loop
      vertex 36.2004 27.2159 10
      vertex 33.0388 23.7045 10
      vertex 35.242 21.2576 10
    endloop
  endfacet
  facet normal 0 0 1
    outer loop
      vertex 32.7375 29.7319 10
      vertex 33.0388 23.7045 10
      vertex 36.2004 27.2159 10
    endloop
  endfacet
  facet normal 0 0 1
    outer loop
      vertex 32.7375 29.7319 10
      vertex 30.375 25.6399 10
      vertex 33.0388 23.7045 10
    endloop
  endfacet
  facet normal 0 0 1
    outer loop
      vertex 28.8271 31.4729 10
      vertex 30.375 25.6399 10
      vertex 32.7375 29.7319 10
    endloop
  endfacet
  facet normal 0 0 1
    outer loop
      vertex 28.8271 31.4729 10
      vertex 27.367 26.9791 10
      vertex 30.375 25.6399 10
    endloop
  endfacet
  facet normal 0 0 1
    outer loop
      vertex 24.6402 32.3628 10
      vertex 27.367 26.9791 10
      vertex 28.8271 31.4729 10
    endloop
  endfacet
  facet normal 0 0 1
    outer loop
      vertex 24.6402 32.3628 10
      vertex 24.1463 27.6637 10
      vertex 27.367 26.9791 10
    endloop
  endfacet
  facet normal 0 0 1
    outer loop
      vertex 24.6402 32.3628 10
      vertex 20.8537 27.6637 10
      vertex 24.1463 27.6637 10
    endloop
  endfacet
  facet normal -0 0 1
    outer loop
      vertex 20.3598 32.3628 10
      vertex 20.8537 27.6637 10
      vertex 24.6402 32.3628 10
    endloop
  endfacet
  facet normal 0 0 1
    outer loop
      vertex 20.3598 32.3628 10
      vertex 17.633 26.9791 10
      vertex 20.8537 27.6637 10
    endloop
  endfacet
  facet normal -0 0 1
    outer loop
      vertex 16.1729 31.4729 10
      vertex 17.633 26.9791 10
      vertex 20.3598 32.3628 10
    endloop
  endfacet
  facet normal 0 0 1
    outer loop
      vertex 16.1729 31.4729 10
      vertex 14.625 25.6399 10
      vertex 17.633 26.9791 10
    endloop
  endfacet
  facet normal -0 0 1
    outer loop
      vertex 12.2625 29.7319 10
      vertex 14.625 25.6399 10
      vertex 16.1729 31.4729 10
    endloop
  endfacet
  facet normal 0 0 1
    outer loop
      vertex 12.2625 29.7319 10
      vertex 11.9612 23.7045 10
      vertex 14.625 25.6399 10
    endloop
  endfacet
  facet normal -0 0 1
    outer loop
      vertex 8.79955 27.2159 10
      vertex 11.9612 23.7045 10
      vertex 12.2625 29.7319 10
    endloop
  endfacet
  facet normal 0 0 1
    outer loop
      vertex 11.9612 23.7045 10
      vertex 8.79955 27.2159 10
      vertex 9.75798 21.2576 10
    endloop
  endfacet
  facet normal -0 0 1
    outer loop
      vertex 5.93538 24.0349 10
      vertex 9.75798 21.2576 10
      vertex 8.79955 27.2159 10
    endloop
  endfacet
  facet normal 0 0 1
    outer loop
      vertex 9.75798 21.2576 10
      vertex 5.93538 24.0349 10
      vertex 8.11166 18.4061 10
    endloop
  endfacet
  facet normal 0 0 1
    outer loop
      vertex 8.11166 18.4061 10
      vertex 3.79516 20.3279 10
      vertex 7.09418 15.2746 10
    endloop
  endfacet
  facet normal -0 0 1
    outer loop
      vertex 3.79516 20.3279 10
      vertex 8.11166 18.4061 10
      vertex 5.93538 24.0349 10
    endloop
  endfacet
  facet normal -0 0 1
    outer loop
      vertex 36.8883 5.5939 10
      vertex 41.2048 3.67207 10
      vertex 37.9058 8.72539 10
    endloop
  endfacet
  facet normal 0 0 1
    outer loop
      vertex 41.2048 3.67207 10
      vertex 36.8883 5.5939 10
      vertex 39.0646 -0.0349026 10
    endloop
  endfacet
  facet normal -0 0 1
    outer loop
      vertex 35.242 2.74238 10
      vertex 39.0646 -0.0349026 10
      vertex 36.8883 5.5939 10
    endloop
  endfacet
  facet normal 0 0 1
    outer loop
      vertex 39.0646 -0.0349026 10
      vertex 35.242 2.74238 10
      vertex 36.2004 -3.21589 10
    endloop
  endfacet
  facet normal -0 0 1
    outer loop
      vertex 33.0388 0.295469 10
      vertex 36.2004 -3.21589 10
      vertex 35.242 2.74238 10
    endloop
  endfacet
  facet normal 0 0 1
    outer loop
      vertex 33.0388 0.295469 10
      vertex 32.7375 -5.73187 10
      vertex 36.2004 -3.21589 10
    endloop
  endfacet
  facet normal -0 0 1
    outer loop
      vertex 30.375 -1.6399 10
      vertex 32.7375 -5.73187 10
      vertex 33.0388 0.295469 10
    endloop
  endfacet
  facet normal 0 0 1
    outer loop
      vertex 30.375 -1.6399 10
      vertex 28.8271 -7.47288 10
      vertex 32.7375 -5.73187 10
    endloop
  endfacet
  facet normal -0 0 1
    outer loop
      vertex 27.367 -2.97914 10
      vertex 28.8271 -7.47288 10
      vertex 30.375 -1.6399 10
    endloop
  endfacet
  facet normal 0 0 1
    outer loop
      vertex 27.367 -2.97914 10
      vertex 24.6402 -8.36283 10
      vertex 28.8271 -7.47288 10
    endloop
  endfacet
  facet normal -0 0 1
    outer loop
      vertex 24.1463 -3.66372 10
      vertex 24.6402 -8.36283 10
      vertex 27.367 -2.97914 10
    endloop
  endfacet
  facet normal -0 0 1
    outer loop
      vertex 20.8537 -3.66372 10
      vertex 24.6402 -8.36283 10
      vertex 24.1463 -3.66372 10
    endloop
  endfacet
  facet normal 0 0 1
    outer loop
      vertex 20.8537 -3.66372 10
      vertex 20.3598 -8.36283 10
      vertex 24.6402 -8.36283 10
    endloop
  endfacet
  facet normal 0 0 1
    outer loop
      vertex 17.633 -2.97914 10
      vertex 20.3598 -8.36283 10
      vertex 20.8537 -3.66372 10
    endloop
  endfacet
  facet normal 0 0 1
    outer loop
      vertex 17.633 -2.97914 10
      vertex 16.1729 -7.47288 10
      vertex 20.3598 -8.36283 10
    endloop
  endfacet
  facet normal 0 0 1
    outer loop
      vertex 14.625 -1.6399 10
      vertex 16.1729 -7.47288 10
      vertex 17.633 -2.97914 10
    endloop
  endfacet
  facet normal 0 0 1
    outer loop
      vertex 14.625 -1.6399 10
      vertex 12.2625 -5.73187 10
      vertex 16.1729 -7.47288 10
    endloop
  endfacet
  facet normal 0 0 1
    outer loop
      vertex 11.9612 0.295469 10
      vertex 12.2625 -5.73187 10
      vertex 14.625 -1.6399 10
    endloop
  endfacet
  facet normal 0 0 1
    outer loop
      vertex 8.79955 -3.21589 10
      vertex 11.9612 0.295469 10
      vertex 9.75798 2.74238 10
    endloop
  endfacet
  facet normal 0 0 1
    outer loop
      vertex 11.9612 0.295469 10
      vertex 8.79955 -3.21589 10
      vertex 12.2625 -5.73187 10
    endloop
  endfacet
  facet normal 0 0 1
    outer loop
      vertex 5.93538 -0.0349026 10
      vertex 9.75798 2.74238 10
      vertex 8.11166 5.5939 10
    endloop
  endfacet
  facet normal 0 0 1
    outer loop
      vertex 3.79516 3.67207 10
      vertex 8.11166 5.5939 10
      vertex 7.09418 8.72539 10
    endloop
  endfacet
  facet normal 0 0 1
    outer loop
      vertex 9.75798 2.74238 10
      vertex 5.93538 -0.0349026 10
      vertex 8.79955 -3.21589 10
    endloop
  endfacet
  facet normal 0 0 1
    outer loop
      vertex 2.47243 7.74301 10
      vertex 7.09418 8.72539 10
      vertex 6.75 12 10
    endloop
  endfacet
  facet normal -0 0 1
    outer loop
      vertex 2.47243 16.257 10
      vertex 7.09418 15.2746 10
      vertex 3.79516 20.3279 10
    endloop
  endfacet
  facet normal 0 0 1
    outer loop
      vertex 7.09418 15.2746 10
      vertex 2.47243 16.257 10
      vertex 6.75 12 10
    endloop
  endfacet
  facet normal 0 0 1
    outer loop
      vertex 8.11166 5.5939 10
      vertex 3.79516 3.67207 10
      vertex 5.93538 -0.0349026 10
    endloop
  endfacet
  facet normal 0 0 1
    outer loop
      vertex 2.025 12 10
      vertex 6.75 12 10
      vertex 2.47243 16.257 10
    endloop
  endfacet
  facet normal 0 0 1
    outer loop
      vertex 7.09418 8.72539 10
      vertex 2.47243 7.74301 10
      vertex 3.79516 3.67207 10
    endloop
  endfacet
  facet normal 0 0 1
    outer loop
      vertex 6.75 12 10
      vertex 2.025 12 10
      vertex 2.47243 7.74301 10
    endloop
  endfacet
  facet normal -0.406741 0.913544 0
    outer loop
      vertex 12.6963 29.925 4
      vertex 16.1729 31.4729 10
      vertex 16.1729 31.4729 4
    endloop
  endfacet
  facet normal -0.406732 0.913547 -5.74549e-06
    outer loop
      vertex 16.1729 31.4729 10
      vertex 12.6963 29.925 4
      vertex 12.2625 29.7319 10
    endloop
  endfacet
  facet normal -0.406666 0.913577 0
    outer loop
      vertex 12.2625 29.7319 0
      vertex 12.6963 29.925 4
      vertex 12.6963 29.925 0
    endloop
  endfacet
  facet normal -0.406666 0.913577 0
    outer loop
      vertex 12.6963 29.925 4
      vertex 12.2625 29.7319 0
      vertex 12.2625 29.7319 10
    endloop
  endfacet
  facet normal 0 0 -1
    outer loop
      vertex -5 29.925 0
      vertex 2.5 33.675 0
      vertex 12.6963 29.925 0
    endloop
  endfacet
  facet normal -0 0 -1
    outer loop
      vertex -2.5 33.675 0
      vertex -5 29.925 0
      vertex -2.5 41.175 0
    endloop
  endfacet
  facet normal -0 0 -1
    outer loop
      vertex 2.5 33.675 0
      vertex -5 29.925 0
      vertex -2.5 33.675 0
    endloop
  endfacet
  facet normal 0 0 -1
    outer loop
      vertex 14.625 25.6399 0
      vertex 12.2625 29.7319 0
      vertex 12.6963 29.925 0
    endloop
  endfacet
  facet normal 0 0 -1
    outer loop
      vertex 11.9612 23.7045 0
      vertex 12.2625 29.7319 0
      vertex 14.625 25.6399 0
    endloop
  endfacet
  facet normal 0 0 -1
    outer loop
      vertex 8.79955 27.2159 0
      vertex 11.9612 23.7045 0
      vertex 9.75798 21.2576 0
    endloop
  endfacet
  facet normal 0 0 -1
    outer loop
      vertex 11.9612 23.7045 0
      vertex 8.79955 27.2159 0
      vertex 12.2625 29.7319 0
    endloop
  endfacet
  facet normal 0 0 -1
    outer loop
      vertex 5.93538 24.0349 0
      vertex 9.75798 21.2576 0
      vertex 8.11166 18.4061 0
    endloop
  endfacet
  facet normal 0 0 -1
    outer loop
      vertex 3.79516 20.3279 0
      vertex 8.11166 18.4061 0
      vertex 7.09418 15.2746 0
    endloop
  endfacet
  facet normal 0 0 -1
    outer loop
      vertex 9.75798 21.2576 0
      vertex 5.93538 24.0349 0
      vertex 8.79955 27.2159 0
    endloop
  endfacet
  facet normal 0 0 -1
    outer loop
      vertex 2.47243 16.257 0
      vertex 7.09418 15.2746 0
      vertex 6.75 12 0
    endloop
  endfacet
  facet normal 0 0 -1
    outer loop
      vertex 2.47243 7.74301 0
      vertex 7.09418 8.72539 0
      vertex 3.79516 3.67207 0
    endloop
  endfacet
  facet normal -0 0 -1
    outer loop
      vertex 7.09418 8.72539 0
      vertex 2.47243 7.74301 0
      vertex 6.75 12 0
    endloop
  endfacet
  facet normal 0 0 -1
    outer loop
      vertex 8.11166 18.4061 0
      vertex 3.79516 20.3279 0
      vertex 5.93538 24.0349 0
    endloop
  endfacet
  facet normal 0 0 -1
    outer loop
      vertex 2.025 12 0
      vertex 6.75 12 0
      vertex 2.47243 7.74301 0
    endloop
  endfacet
  facet normal 0 0 -1
    outer loop
      vertex 7.09418 15.2746 0
      vertex 2.47243 16.257 0
      vertex 3.79516 20.3279 0
    endloop
  endfacet
  facet normal 0 0 -1
    outer loop
      vertex 6.75 12 0
      vertex 2.025 12 0
      vertex 2.47243 16.257 0
    endloop
  endfacet
  facet normal 0 0 -1
    outer loop
      vertex 32.3037 29.925 0
      vertex 39.375 44.925 0
      vertex 39.375 29.925 0
    endloop
  endfacet
  facet normal 0 0 -1
    outer loop
      vertex 27.367 26.9791 0
      vertex 32.3037 29.925 0
      vertex 30.375 25.6399 0
    endloop
  endfacet
  facet normal 0 0 -1
    outer loop
      vertex 24.1463 27.6637 0
      vertex 32.3037 29.925 0
      vertex 27.367 26.9791 0
    endloop
  endfacet
  facet normal -0 0 -1
    outer loop
      vertex 32.3037 29.925 0
      vertex 24.1463 27.6637 0
      vertex 39.375 44.925 0
    endloop
  endfacet
  facet normal 0 0 -1
    outer loop
      vertex 20.8537 27.6637 0
      vertex 39.375 44.925 0
      vertex 24.1463 27.6637 0
    endloop
  endfacet
  facet normal 0 0 -1
    outer loop
      vertex 12.6963 29.925 0
      vertex 20.8537 27.6637 0
      vertex 17.633 26.9791 0
    endloop
  endfacet
  facet normal 0 0 -1
    outer loop
      vertex 12.6963 29.925 0
      vertex 17.633 26.9791 0
      vertex 14.625 25.6399 0
    endloop
  endfacet
  facet normal 0 0 -1
    outer loop
      vertex 20.8537 27.6637 0
      vertex 12.6963 29.925 0
      vertex 39.375 44.925 0
    endloop
  endfacet
  facet normal 0 0 -1
    outer loop
      vertex 2.5 41.175 0
      vertex 12.6963 29.925 0
      vertex 2.5 33.675 0
    endloop
  endfacet
  facet normal 0 0 -1
    outer loop
      vertex 12.6963 29.925 0
      vertex 2.5 41.175 0
      vertex 39.375 44.925 0
    endloop
  endfacet
  facet normal 0 0 -1
    outer loop
      vertex -5 44.925 0
      vertex 2.5 41.175 0
      vertex -2.5 41.175 0
    endloop
  endfacet
  facet normal 0 0 -1
    outer loop
      vertex 2.5 41.175 0
      vertex -5 44.925 0
      vertex 39.375 44.925 0
    endloop
  endfacet
  facet normal 0 0 -1
    outer loop
      vertex -5 44.925 0
      vertex -2.5 41.175 0
      vertex -5 29.925 0
    endloop
  endfacet
  facet normal 0 0 -1
    outer loop
      vertex 35.242 2.74238 0
      vertex 39.375 0.502687 0
      vertex 39.0646 -0.0349026 0
    endloop
  endfacet
  facet normal 0 0 -1
    outer loop
      vertex 39.375 0.502687 0
      vertex 38.25 12 0
      vertex 39.375 23.4973 0
    endloop
  endfacet
  facet normal 0 0 -1
    outer loop
      vertex 37.9058 15.2746 0
      vertex 39.375 23.4973 0
      vertex 38.25 12 0
    endloop
  endfacet
  facet normal 0 0 -1
    outer loop
      vertex 39.375 0.502687 0
      vertex 37.9058 8.72539 0
      vertex 38.25 12 0
    endloop
  endfacet
  facet normal 0 0 -1
    outer loop
      vertex 39.375 0.502687 0
      vertex 36.8883 5.5939 0
      vertex 37.9058 8.72539 0
    endloop
  endfacet
  facet normal 0 0 -1
    outer loop
      vertex 35.242 2.74238 0
      vertex 39.0646 -0.0349026 0
      vertex 36.2004 -3.21589 0
    endloop
  endfacet
  facet normal 0 0 -1
    outer loop
      vertex 39.375 0.502687 0
      vertex 35.242 2.74238 0
      vertex 36.8883 5.5939 0
    endloop
  endfacet
  facet normal 0 0 -1
    outer loop
      vertex 36.2004 -3.21589 0
      vertex 33.0388 0.295469 0
      vertex 35.242 2.74238 0
    endloop
  endfacet
  facet normal 0 0 -1
    outer loop
      vertex 32.7375 -5.73187 0
      vertex 33.0388 0.295469 0
      vertex 36.2004 -3.21589 0
    endloop
  endfacet
  facet normal 0 0 -1
    outer loop
      vertex 32.7375 -5.73187 0
      vertex 30.375 -1.6399 0
      vertex 33.0388 0.295469 0
    endloop
  endfacet
  facet normal 0 0 -1
    outer loop
      vertex 28.8271 -7.47288 0
      vertex 30.375 -1.6399 0
      vertex 32.7375 -5.73187 0
    endloop
  endfacet
  facet normal 0 0 -1
    outer loop
      vertex 28.8271 -7.47288 0
      vertex 27.367 -2.97914 0
      vertex 30.375 -1.6399 0
    endloop
  endfacet
  facet normal 0 0 -1
    outer loop
      vertex 24.6402 -8.36283 0
      vertex 27.367 -2.97914 0
      vertex 28.8271 -7.47288 0
    endloop
  endfacet
  facet normal 0 0 -1
    outer loop
      vertex 24.6402 -8.36283 0
      vertex 24.1463 -3.66372 0
      vertex 27.367 -2.97914 0
    endloop
  endfacet
  facet normal 0 0 -1
    outer loop
      vertex 24.6402 -8.36283 0
      vertex 20.8537 -3.66372 0
      vertex 24.1463 -3.66372 0
    endloop
  endfacet
  facet normal 0 0 -1
    outer loop
      vertex 20.3598 -8.36283 0
      vertex 20.8537 -3.66372 0
      vertex 24.6402 -8.36283 0
    endloop
  endfacet
  facet normal 0 0 -1
    outer loop
      vertex 20.3598 -8.36283 0
      vertex 17.633 -2.97914 0
      vertex 20.8537 -3.66372 0
    endloop
  endfacet
  facet normal 0 0 -1
    outer loop
      vertex 16.1729 -7.47288 0
      vertex 17.633 -2.97914 0
      vertex 20.3598 -8.36283 0
    endloop
  endfacet
  facet normal 0 0 -1
    outer loop
      vertex 16.1729 -7.47288 0
      vertex 14.625 -1.6399 0
      vertex 17.633 -2.97914 0
    endloop
  endfacet
  facet normal 0 0 -1
    outer loop
      vertex 12.2625 -5.73187 0
      vertex 14.625 -1.6399 0
      vertex 16.1729 -7.47288 0
    endloop
  endfacet
  facet normal 0 0 -1
    outer loop
      vertex 12.2625 -5.73187 0
      vertex 11.9612 0.295469 0
      vertex 14.625 -1.6399 0
    endloop
  endfacet
  facet normal 0 0 -1
    outer loop
      vertex 8.79955 -3.21589 0
      vertex 11.9612 0.295469 0
      vertex 12.2625 -5.73187 0
    endloop
  endfacet
  facet normal -0 0 -1
    outer loop
      vertex 11.9612 0.295469 0
      vertex 8.79955 -3.21589 0
      vertex 9.75798 2.74238 0
    endloop
  endfacet
  facet normal 0 0 -1
    outer loop
      vertex 5.93538 -0.0349026 0
      vertex 9.75798 2.74238 0
      vertex 8.79955 -3.21589 0
    endloop
  endfacet
  facet normal -0 0 -1
    outer loop
      vertex 9.75798 2.74238 0
      vertex 5.93538 -0.0349026 0
      vertex 8.11166 5.5939 0
    endloop
  endfacet
  facet normal -0 0 -1
    outer loop
      vertex 8.11166 5.5939 0
      vertex 3.79516 3.67207 0
      vertex 7.09418 8.72539 0
    endloop
  endfacet
  facet normal 0 0 -1
    outer loop
      vertex 3.79516 3.67207 0
      vertex 8.11166 5.5939 0
      vertex 5.93538 -0.0349026 0
    endloop
  endfacet
  facet normal 0 0 -1
    outer loop
      vertex 36.8883 18.4061 0
      vertex 39.375 23.4973 0
      vertex 37.9058 15.2746 0
    endloop
  endfacet
  facet normal 0 0 -1
    outer loop
      vertex 35.242 21.2576 0
      vertex 39.375 23.4973 0
      vertex 36.8883 18.4061 0
    endloop
  endfacet
  facet normal -0 0 -1
    outer loop
      vertex 39.375 23.4973 0
      vertex 35.242 21.2576 0
      vertex 39.0646 24.0349 0
    endloop
  endfacet
  facet normal -0 0 -1
    outer loop
      vertex 39.0646 24.0349 0
      vertex 35.242 21.2576 0
      vertex 36.2004 27.2159 0
    endloop
  endfacet
  facet normal 0 0 -1
    outer loop
      vertex 33.0388 23.7045 0
      vertex 36.2004 27.2159 0
      vertex 35.242 21.2576 0
    endloop
  endfacet
  facet normal 0 0 -1
    outer loop
      vertex 33.0388 23.7045 0
      vertex 32.7375 29.7319 0
      vertex 36.2004 27.2159 0
    endloop
  endfacet
  facet normal 0 0 -1
    outer loop
      vertex 30.375 25.6399 0
      vertex 32.7375 29.7319 0
      vertex 33.0388 23.7045 0
    endloop
  endfacet
  facet normal -0 0 -1
    outer loop
      vertex 32.7375 29.7319 0
      vertex 30.375 25.6399 0
      vertex 32.3037 29.925 0
    endloop
  endfacet
  facet normal 0 0 -1
    outer loop
      vertex 39.375 29.925 0
      vertex 54.375 29.925 0
      vertex 39.375 23.4973 0
    endloop
  endfacet
  facet normal 0 0 -1
    outer loop
      vertex 54.375 44.925 0
      vertex 39.375 44.925 0
      vertex 50.625 162.5 0
    endloop
  endfacet
  facet normal 0 0 -1
    outer loop
      vertex 50.625 2.5 0
      vertex 54.375 29.925 0
      vertex 54.375 -5 0
    endloop
  endfacet
  facet normal 0 0 -1
    outer loop
      vertex 39.375 23.4973 0
      vertex 50.625 2.5 0
      vertex 43.125 2.5 0
    endloop
  endfacet
  facet normal 0 0 -1
    outer loop
      vertex 50.625 2.5 0
      vertex 54.375 -5 0
      vertex 50.625 -2.5 0
    endloop
  endfacet
  facet normal 0 0 -1
    outer loop
      vertex 54.375 -5 0
      vertex 43.125 -2.5 0
      vertex 50.625 -2.5 0
    endloop
  endfacet
  facet normal 0 0 -1
    outer loop
      vertex 39.375 0.502687 0
      vertex 43.125 2.5 0
      vertex 43.125 -2.5 0
    endloop
  endfacet
  facet normal -0 0 -1
    outer loop
      vertex 50.625 162.5 0
      vertex 39.375 44.925 0
      vertex 43.125 162.5 0
    endloop
  endfacet
  facet normal 0 0 -1
    outer loop
      vertex 39.375 0.502687 0
      vertex 43.125 -2.5 0
      vertex 39.375 -5 0
    endloop
  endfacet
  facet normal 0 0 -1
    outer loop
      vertex 39.375 -5 0
      vertex 43.125 -2.5 0
      vertex 54.375 -5 0
    endloop
  endfacet
  facet normal 0 0 -1
    outer loop
      vertex 50.625 2.5 0
      vertex 39.375 23.4973 0
      vertex 54.375 29.925 0
    endloop
  endfacet
  facet normal 0 0 -1
    outer loop
      vertex 54.375 44.925 0
      vertex 50.625 162.5 0
      vertex 54.375 170 0
    endloop
  endfacet
  facet normal 0 0 -1
    outer loop
      vertex 50.625 167.5 0
      vertex 54.375 170 0
      vertex 50.625 162.5 0
    endloop
  endfacet
  facet normal 0 0 -1
    outer loop
      vertex 43.125 167.5 0
      vertex 54.375 170 0
      vertex 50.625 167.5 0
    endloop
  endfacet
  facet normal -0 0 -1
    outer loop
      vertex 43.125 2.5 0
      vertex 39.375 0.502687 0
      vertex 39.375 23.4973 0
    endloop
  endfacet
  facet normal 0 0 -1
    outer loop
      vertex 54.375 29.925 0
      vertex 39.375 29.925 0
      vertex 54.375 44.925 0
    endloop
  endfacet
  facet normal -0 0 -1
    outer loop
      vertex 54.375 44.925 0
      vertex 39.375 29.925 0
      vertex 39.375 44.925 0
    endloop
  endfacet
  facet normal 0 0 -1
    outer loop
      vertex 39.375 170 0
      vertex 43.125 162.5 0
      vertex 39.375 44.925 0
    endloop
  endfacet
  facet normal 0 0 -1
    outer loop
      vertex 43.125 167.5 0
      vertex 39.375 170 0
      vertex 54.375 170 0
    endloop
  endfacet
  facet normal 0 0 -1
    outer loop
      vertex 43.125 162.5 0
      vertex 39.375 170 0
      vertex 43.125 167.5 0
    endloop
  endfacet
  facet normal 0 0 -1
    outer loop
      vertex 80 29.925 0
      vertex 77.5 33.675 0
      vertex 80 44.925 0
    endloop
  endfacet
  facet normal 0 0 -1
    outer loop
      vertex 80 29.925 0
      vertex 72.5 33.675 0
      vertex 77.5 33.675 0
    endloop
  endfacet
  facet normal -0 0 -1
    outer loop
      vertex 72.5 33.675 0
      vertex 54.375 29.925 0
      vertex 72.5 41.175 0
    endloop
  endfacet
  facet normal 0 0 -1
    outer loop
      vertex 54.375 29.925 0
      vertex 72.5 33.675 0
      vertex 80 29.925 0
    endloop
  endfacet
  facet normal 0 0 -1
    outer loop
      vertex 77.5 41.175 0
      vertex 80 44.925 0
      vertex 77.5 33.675 0
    endloop
  endfacet
  facet normal 0 0 -1
    outer loop
      vertex 72.5 41.175 0
      vertex 80 44.925 0
      vertex 77.5 41.175 0
    endloop
  endfacet
  facet normal 0 0 -1
    outer loop
      vertex 72.5 41.175 0
      vertex 54.375 44.925 0
      vertex 80 44.925 0
    endloop
  endfacet
  facet normal 0 0 -1
    outer loop
      vertex 54.375 44.925 0
      vertex 72.5 41.175 0
      vertex 54.375 29.925 0
    endloop
  endfacet
  facet normal -0.866026 -0.5 0
    outer loop
      vertex 5.93538 -0.0349026 0
      vertex 3.79516 3.67207 10
      vertex 3.79516 3.67207 0
    endloop
  endfacet
  facet normal -0.866026 -0.5 0
    outer loop
      vertex 3.79516 3.67207 10
      vertex 5.93538 -0.0349026 0
      vertex 5.93538 -0.0349026 10
    endloop
  endfacet
  facet normal -0.743145 -0.66913 0
    outer loop
      vertex 8.79955 -3.21589 0
      vertex 5.93538 -0.0349026 10
      vertex 5.93538 -0.0349026 0
    endloop
  endfacet
  facet normal -0.743145 -0.66913 0
    outer loop
      vertex 5.93538 -0.0349026 10
      vertex 8.79955 -3.21589 0
      vertex 8.79955 -3.21589 10
    endloop
  endfacet
  facet normal 0.951052 -0.309032 0
    outer loop
      vertex 41.2048 3.67207 10
      vertex 42.5276 7.74301 4
      vertex 42.5276 7.74301 10
    endloop
  endfacet
  facet normal 0.951052 -0.309032 0
    outer loop
      vertex 42.5276 7.74301 4
      vertex 41.2048 3.67207 10
      vertex 41.2048 3.67207 4
    endloop
  endfacet
  facet normal -0.994522 -0.104529 0
    outer loop
      vertex 2.47243 7.74301 0
      vertex 2.025 12 10
      vertex 2.025 12 0
    endloop
  endfacet
  facet normal -0.994522 -0.104529 0
    outer loop
      vertex 2.025 12 10
      vertex 2.47243 7.74301 0
      vertex 2.47243 7.74301 10
    endloop
  endfacet
  facet normal -0.951055 -0.309021 0
    outer loop
      vertex 37.9058 15.2746 0
      vertex 36.8883 18.4061 10
      vertex 36.8883 18.4061 0
    endloop
  endfacet
  facet normal -0.951055 -0.309021 0
    outer loop
      vertex 36.8883 18.4061 10
      vertex 37.9058 15.2746 0
      vertex 37.9058 15.2746 10
    endloop
  endfacet
  facet normal -0.994521 -0.104536 0
    outer loop
      vertex 38.25 12 0
      vertex 37.9058 15.2746 10
      vertex 37.9058 15.2746 0
    endloop
  endfacet
  facet normal -0.994521 -0.104536 0
    outer loop
      vertex 37.9058 15.2746 10
      vertex 38.25 12 0
      vertex 38.25 12 10
    endloop
  endfacet
  facet normal -0.951055 0.309022 0
    outer loop
      vertex 36.8883 5.5939 0
      vertex 37.9058 8.72539 10
      vertex 37.9058 8.72539 0
    endloop
  endfacet
  facet normal -0.951055 0.309022 0
    outer loop
      vertex 37.9058 8.72539 10
      vertex 36.8883 5.5939 0
      vertex 36.8883 5.5939 10
    endloop
  endfacet
  facet normal -0.406725 -0.913551 0
    outer loop
      vertex 27.367 26.9791 0
      vertex 30.375 25.6399 10
      vertex 27.367 26.9791 10
    endloop
  endfacet
  facet normal -0.406725 -0.913551 -0
    outer loop
      vertex 30.375 25.6399 10
      vertex 27.367 26.9791 0
      vertex 30.375 25.6399 0
    endloop
  endfacet
  facet normal 0.587792 -0.809012 0
    outer loop
      vertex 11.9612 23.7045 0
      vertex 14.625 25.6399 10
      vertex 11.9612 23.7045 10
    endloop
  endfacet
  facet normal 0.587792 -0.809012 0
    outer loop
      vertex 14.625 25.6399 10
      vertex 11.9612 23.7045 0
      vertex 14.625 25.6399 0
    endloop
  endfacet
  facet normal 0.406725 -0.913551 0
    outer loop
      vertex 14.625 25.6399 0
      vertex 17.633 26.9791 10
      vertex 14.625 25.6399 10
    endloop
  endfacet
  facet normal 0.406725 -0.913551 0
    outer loop
      vertex 17.633 26.9791 10
      vertex 14.625 25.6399 0
      vertex 17.633 26.9791 0
    endloop
  endfacet
  facet normal -0.743146 0.669129 0
    outer loop
      vertex 33.0388 0.295469 0
      vertex 35.242 2.74238 10
      vertex 35.242 2.74238 0
    endloop
  endfacet
  facet normal -0.743146 0.669129 0
    outer loop
      vertex 35.242 2.74238 10
      vertex 33.0388 0.295469 0
      vertex 33.0388 0.295469 10
    endloop
  endfacet
  facet normal -0.587786 0.809016 0
    outer loop
      vertex 33.0388 0.295469 0
      vertex 30.375 -1.6399 10
      vertex 33.0388 0.295469 10
    endloop
  endfacet
  facet normal -0.587786 0.809016 0
    outer loop
      vertex 30.375 -1.6399 10
      vertex 33.0388 0.295469 0
      vertex 30.375 -1.6399 0
    endloop
  endfacet
  facet normal 0.866026 0.499999 0
    outer loop
      vertex 9.75798 2.74238 10
      vertex 8.11166 5.5939 0
      vertex 8.11166 5.5939 10
    endloop
  endfacet
  facet normal 0.866026 0.499999 0
    outer loop
      vertex 8.11166 5.5939 0
      vertex 9.75798 2.74238 10
      vertex 9.75798 2.74238 0
    endloop
  endfacet
  facet normal -0.406735 0.913546 0
    outer loop
      vertex 30.375 -1.6399 0
      vertex 27.367 -2.97914 10
      vertex 30.375 -1.6399 10
    endloop
  endfacet
  facet normal -0.406735 0.913546 0
    outer loop
      vertex 27.367 -2.97914 10
      vertex 30.375 -1.6399 0
      vertex 27.367 -2.97914 0
    endloop
  endfacet
  facet normal -0.207911 0.978148 0
    outer loop
      vertex 27.367 -2.97914 0
      vertex 24.1463 -3.66372 10
      vertex 27.367 -2.97914 10
    endloop
  endfacet
  facet normal -0.207911 0.978148 0
    outer loop
      vertex 24.1463 -3.66372 10
      vertex 27.367 -2.97914 0
      vertex 24.1463 -3.66372 0
    endloop
  endfacet
  facet normal -0.587792 -0.809012 0
    outer loop
      vertex 30.375 25.6399 0
      vertex 33.0388 23.7045 10
      vertex 30.375 25.6399 10
    endloop
  endfacet
  facet normal -0.587792 -0.809012 -0
    outer loop
      vertex 33.0388 23.7045 10
      vertex 30.375 25.6399 0
      vertex 33.0388 23.7045 0
    endloop
  endfacet
  facet normal 0.951057 -0.309015 0
    outer loop
      vertex 7.09418 15.2746 10
      vertex 8.11166 18.4061 0
      vertex 8.11166 18.4061 10
    endloop
  endfacet
  facet normal 0.951057 -0.309015 0
    outer loop
      vertex 8.11166 18.4061 0
      vertex 7.09418 15.2746 10
      vertex 7.09418 15.2746 0
    endloop
  endfacet
  facet normal -0.994521 0.104536 0
    outer loop
      vertex 37.9058 8.72539 0
      vertex 38.25 12 10
      vertex 38.25 12 0
    endloop
  endfacet
  facet normal -0.994521 0.104536 0
    outer loop
      vertex 38.25 12 10
      vertex 37.9058 8.72539 0
      vertex 37.9058 8.72539 10
    endloop
  endfacet
  facet normal 0.743142 -0.669134 0
    outer loop
      vertex 9.75798 21.2576 10
      vertex 11.9612 23.7045 0
      vertex 11.9612 23.7045 10
    endloop
  endfacet
  facet normal 0.743142 -0.669134 0
    outer loop
      vertex 11.9612 23.7045 0
      vertex 9.75798 21.2576 10
      vertex 9.75798 21.2576 0
    endloop
  endfacet
  facet normal 0 -1 0
    outer loop
      vertex 20.8537 27.6637 0
      vertex 24.1463 27.6637 10
      vertex 20.8537 27.6637 10
    endloop
  endfacet
  facet normal 0 -1 -0
    outer loop
      vertex 24.1463 27.6637 10
      vertex 20.8537 27.6637 0
      vertex 24.1463 27.6637 0
    endloop
  endfacet
  facet normal -0.866029 0.499994 0
    outer loop
      vertex 35.242 2.74238 0
      vertex 36.8883 5.5939 10
      vertex 36.8883 5.5939 0
    endloop
  endfacet
  facet normal -0.866029 0.499994 0
    outer loop
      vertex 36.8883 5.5939 10
      vertex 35.242 2.74238 0
      vertex 35.242 2.74238 10
    endloop
  endfacet
  facet normal 0.207917 -0.978146 0
    outer loop
      vertex 17.633 26.9791 0
      vertex 20.8537 27.6637 10
      vertex 17.633 26.9791 10
    endloop
  endfacet
  facet normal 0.207917 -0.978146 0
    outer loop
      vertex 20.8537 27.6637 10
      vertex 17.633 26.9791 0
      vertex 20.8537 27.6637 0
    endloop
  endfacet
  facet normal 0.406735 0.913546 -0
    outer loop
      vertex 17.633 -2.97914 0
      vertex 14.625 -1.6399 10
      vertex 17.633 -2.97914 10
    endloop
  endfacet
  facet normal 0.406735 0.913546 0
    outer loop
      vertex 14.625 -1.6399 10
      vertex 17.633 -2.97914 0
      vertex 14.625 -1.6399 0
    endloop
  endfacet
  facet normal 0.587786 0.809016 -0
    outer loop
      vertex 14.625 -1.6399 0
      vertex 11.9612 0.295469 10
      vertex 14.625 -1.6399 10
    endloop
  endfacet
  facet normal 0.587786 0.809016 0
    outer loop
      vertex 11.9612 0.295469 10
      vertex 14.625 -1.6399 0
      vertex 11.9612 0.295469 0
    endloop
  endfacet
  facet normal -0.743145 -0.669131 0
    outer loop
      vertex 35.242 21.2576 0
      vertex 33.0388 23.7045 10
      vertex 33.0388 23.7045 0
    endloop
  endfacet
  facet normal -0.743145 -0.669131 0
    outer loop
      vertex 33.0388 23.7045 10
      vertex 35.242 21.2576 0
      vertex 35.242 21.2576 10
    endloop
  endfacet
  facet normal 0.994522 -0.10453 0
    outer loop
      vertex 6.75 12 10
      vertex 7.09418 15.2746 0
      vertex 7.09418 15.2746 10
    endloop
  endfacet
  facet normal 0.994522 -0.10453 0
    outer loop
      vertex 7.09418 15.2746 0
      vertex 6.75 12 10
      vertex 6.75 12 0
    endloop
  endfacet
  facet normal -0.866027 -0.499997 0
    outer loop
      vertex 36.8883 18.4061 0
      vertex 35.242 21.2576 10
      vertex 35.242 21.2576 0
    endloop
  endfacet
  facet normal -0.866027 -0.499997 0
    outer loop
      vertex 35.242 21.2576 10
      vertex 36.8883 18.4061 0
      vertex 36.8883 18.4061 10
    endloop
  endfacet
  facet normal 0.207911 0.978148 -0
    outer loop
      vertex 20.8537 -3.66372 0
      vertex 17.633 -2.97914 10
      vertex 20.8537 -3.66372 10
    endloop
  endfacet
  facet normal 0.207911 0.978148 0
    outer loop
      vertex 17.633 -2.97914 10
      vertex 20.8537 -3.66372 0
      vertex 17.633 -2.97914 0
    endloop
  endfacet
  facet normal 0 1 -0
    outer loop
      vertex 24.1463 -3.66372 0
      vertex 20.8537 -3.66372 10
      vertex 24.1463 -3.66372 10
    endloop
  endfacet
  facet normal 0 1 0
    outer loop
      vertex 20.8537 -3.66372 10
      vertex 24.1463 -3.66372 0
      vertex 20.8537 -3.66372 0
    endloop
  endfacet
  facet normal 0.951057 0.309016 0
    outer loop
      vertex 8.11166 5.5939 10
      vertex 7.09418 8.72539 0
      vertex 7.09418 8.72539 10
    endloop
  endfacet
  facet normal 0.951057 0.309016 0
    outer loop
      vertex 7.09418 8.72539 0
      vertex 8.11166 5.5939 10
      vertex 8.11166 5.5939 0
    endloop
  endfacet
  facet normal 0.743143 0.669133 0
    outer loop
      vertex 11.9612 0.295469 10
      vertex 9.75798 2.74238 0
      vertex 9.75798 2.74238 10
    endloop
  endfacet
  facet normal 0.743143 0.669133 0
    outer loop
      vertex 9.75798 2.74238 0
      vertex 11.9612 0.295469 10
      vertex 11.9612 0.295469 0
    endloop
  endfacet
  facet normal -0.207917 -0.978146 0
    outer loop
      vertex 24.1463 27.6637 0
      vertex 27.367 26.9791 10
      vertex 24.1463 27.6637 10
    endloop
  endfacet
  facet normal -0.207917 -0.978146 -0
    outer loop
      vertex 27.367 26.9791 10
      vertex 24.1463 27.6637 0
      vertex 27.367 26.9791 0
    endloop
  endfacet
  facet normal 0.994522 0.10453 0
    outer loop
      vertex 7.09418 8.72539 10
      vertex 6.75 12 0
      vertex 6.75 12 10
    endloop
  endfacet
  facet normal 0.994522 0.10453 0
    outer loop
      vertex 6.75 12 0
      vertex 7.09418 8.72539 10
      vertex 7.09418 8.72539 0
    endloop
  endfacet
  facet normal 0.866025 -0.500001 0
    outer loop
      vertex 8.11166 18.4061 10
      vertex 9.75798 21.2576 0
      vertex 9.75798 21.2576 10
    endloop
  endfacet
  facet normal 0.866025 -0.500001 0
    outer loop
      vertex 9.75798 21.2576 0
      vertex 8.11166 18.4061 10
      vertex 8.11166 18.4061 0
    endloop
  endfacet
  facet normal 1 -0 0
    outer loop
      vertex 54.375 44.925 4
      vertex 54.375 170 0
      vertex 54.375 170 4
    endloop
  endfacet
  facet normal 1 0 0
    outer loop
      vertex 54.375 170 0
      vertex 54.375 44.925 4
      vertex 54.375 44.925 0
    endloop
  endfacet
  facet normal 1 -0 0
    outer loop
      vertex 54.375 -5 4
      vertex 54.375 29.925 0
      vertex 54.375 29.925 4
    endloop
  endfacet
  facet normal 1 0 0
    outer loop
      vertex 54.375 29.925 0
      vertex 54.375 -5 4
      vertex 54.375 -5 0
    endloop
  endfacet
  facet normal 0 0 1
    outer loop
      vertex 39.375 44.925 4
      vertex 32.3037 29.925 4
      vertex 39.375 29.925 4
    endloop
  endfacet
  facet normal 0 0 1
    outer loop
      vertex 39.375 44.925 4
      vertex 28.8271 31.4729 4
      vertex 32.3037 29.925 4
    endloop
  endfacet
  facet normal 0 0 1
    outer loop
      vertex 39.375 44.925 4
      vertex 24.6402 32.3628 4
      vertex 28.8271 31.4729 4
    endloop
  endfacet
  facet normal 0 0 1
    outer loop
      vertex 39.375 44.925 4
      vertex 20.3598 32.3628 4
      vertex 24.6402 32.3628 4
    endloop
  endfacet
  facet normal -0 0 1
    outer loop
      vertex 2.5 41.175 4
      vertex 20.3598 32.3628 4
      vertex 39.375 44.925 4
    endloop
  endfacet
  facet normal 0 0 1
    outer loop
      vertex 20.3598 32.3628 4
      vertex 2.5 41.175 4
      vertex 16.1729 31.4729 4
    endloop
  endfacet
  facet normal 0 0 1
    outer loop
      vertex 16.1729 31.4729 4
      vertex 2.5 41.175 4
      vertex 12.6963 29.925 4
    endloop
  endfacet
  facet normal -0 0 1
    outer loop
      vertex -5 44.925 4
      vertex 2.5 41.175 4
      vertex 39.375 44.925 4
    endloop
  endfacet
  facet normal 0 0 1
    outer loop
      vertex -2.5 41.175 4
      vertex -5 44.925 4
      vertex -2.5 33.675 4
    endloop
  endfacet
  facet normal 0 0 1
    outer loop
      vertex 2.5 41.175 4
      vertex -5 44.925 4
      vertex -2.5 41.175 4
    endloop
  endfacet
  facet normal 0 0 1
    outer loop
      vertex 39.375 44.925 4
      vertex 54.375 44.925 4
      vertex 43.125 162.5 4
    endloop
  endfacet
  facet normal 0 0 1
    outer loop
      vertex 39.375 29.925 4
      vertex 54.375 44.925 4
      vertex 39.375 44.925 4
    endloop
  endfacet
  facet normal -0 0 1
    outer loop
      vertex 50.625 162.5 4
      vertex 54.375 44.925 4
      vertex 54.375 170 4
    endloop
  endfacet
  facet normal -0 0 1
    outer loop
      vertex 43.125 162.5 4
      vertex 54.375 44.925 4
      vertex 50.625 162.5 4
    endloop
  endfacet
  facet normal 0 0 1
    outer loop
      vertex 50.625 162.5 4
      vertex 54.375 170 4
      vertex 50.625 167.5 4
    endloop
  endfacet
  facet normal 0 0 1
    outer loop
      vertex 54.375 170 4
      vertex 43.125 167.5 4
      vertex 50.625 167.5 4
    endloop
  endfacet
  facet normal 0 0 1
    outer loop
      vertex 39.375 170 4
      vertex 43.125 162.5 4
      vertex 43.125 167.5 4
    endloop
  endfacet
  facet normal -0 0 1
    outer loop
      vertex 42.5276 7.74301 4
      vertex 50.625 2.5 4
      vertex 42.975 12 4
    endloop
  endfacet
  facet normal 0 0 1
    outer loop
      vertex 50.625 2.5 4
      vertex 42.5276 7.74301 4
      vertex 43.125 2.5 4
    endloop
  endfacet
  facet normal 0 0 1
    outer loop
      vertex 50.625 2.5 4
      vertex 42.5276 16.257 4
      vertex 42.975 12 4
    endloop
  endfacet
  facet normal 0 -0 1
    outer loop
      vertex 41.2048 20.3279 4
      vertex 54.375 44.925 4
      vertex 39.375 29.925 4
    endloop
  endfacet
  facet normal -0 0 1
    outer loop
      vertex 39.375 170 4
      vertex 43.125 167.5 4
      vertex 54.375 170 4
    endloop
  endfacet
  facet normal 0 0 1
    outer loop
      vertex 43.125 162.5 4
      vertex 39.375 170 4
      vertex 39.375 44.925 4
    endloop
  endfacet
  facet normal 0 -0 1
    outer loop
      vertex 42.5276 16.257 4
      vertex 54.375 44.925 4
      vertex 41.2048 20.3279 4
    endloop
  endfacet
  facet normal 0 0 1
    outer loop
      vertex 54.375 44.925 4
      vertex 42.5276 16.257 4
      vertex 50.625 2.5 4
    endloop
  endfacet
  facet normal 0 0 1
    outer loop
      vertex 41.2048 20.3279 4
      vertex 39.375 29.925 4
      vertex 39.375 23.4973 4
    endloop
  endfacet
  facet normal 0 0 1
    outer loop
      vertex 54.375 44.925 4
      vertex 50.625 2.5 4
      vertex 54.375 29.925 4
    endloop
  endfacet
  facet normal 0 0 1
    outer loop
      vertex 54.375 29.925 4
      vertex 50.625 2.5 4
      vertex 54.375 -5 4
    endloop
  endfacet
  facet normal -0 0 1
    outer loop
      vertex 50.625 -2.5 4
      vertex 54.375 -5 4
      vertex 50.625 2.5 4
    endloop
  endfacet
  facet normal -0 0 1
    outer loop
      vertex 43.125 -2.5 4
      vertex 54.375 -5 4
      vertex 50.625 -2.5 4
    endloop
  endfacet
  facet normal -0 0 1
    outer loop
      vertex 41.2048 3.67207 4
      vertex 43.125 2.5 4
      vertex 42.5276 7.74301 4
    endloop
  endfacet
  facet normal 0 0 1
    outer loop
      vertex 39.375 0.502687 4
      vertex 43.125 2.5 4
      vertex 41.2048 3.67207 4
    endloop
  endfacet
  facet normal 0 0 1
    outer loop
      vertex 43.125 2.5 4
      vertex 39.375 0.502687 4
      vertex 43.125 -2.5 4
    endloop
  endfacet
  facet normal 0 0 1
    outer loop
      vertex 43.125 -2.5 4
      vertex 39.375 -5 4
      vertex 54.375 -5 4
    endloop
  endfacet
  facet normal 0 0 1
    outer loop
      vertex 39.375 -5 4
      vertex 43.125 -2.5 4
      vertex 39.375 0.502687 4
    endloop
  endfacet
  facet normal -0 0 1
    outer loop
      vertex 2.5 33.675 4
      vertex 12.6963 29.925 4
      vertex 2.5 41.175 4
    endloop
  endfacet
  facet normal 0 0 1
    outer loop
      vertex -5 29.925 4
      vertex 2.5 33.675 4
      vertex -2.5 33.675 4
    endloop
  endfacet
  facet normal 0 0 1
    outer loop
      vertex 2.5 33.675 4
      vertex -5 29.925 4
      vertex 12.6963 29.925 4
    endloop
  endfacet
  facet normal 0 0 1
    outer loop
      vertex -5 29.925 4
      vertex -2.5 33.675 4
      vertex -5 44.925 4
    endloop
  endfacet
  facet normal 0 0 1
    outer loop
      vertex 80 44.925 4
      vertex 77.5 41.175 4
      vertex 80 29.925 4
    endloop
  endfacet
  facet normal 0 0 1
    outer loop
      vertex 80 44.925 4
      vertex 72.5 41.175 4
      vertex 77.5 41.175 4
    endloop
  endfacet
  facet normal 0 0 1
    outer loop
      vertex 72.5 41.175 4
      vertex 54.375 44.925 4
      vertex 72.5 33.675 4
    endloop
  endfacet
  facet normal -0 0 1
    outer loop
      vertex 54.375 44.925 4
      vertex 72.5 41.175 4
      vertex 80 44.925 4
    endloop
  endfacet
  facet normal -0 0 1
    outer loop
      vertex 77.5 33.675 4
      vertex 80 29.925 4
      vertex 77.5 41.175 4
    endloop
  endfacet
  facet normal -0 0 1
    outer loop
      vertex 72.5 33.675 4
      vertex 80 29.925 4
      vertex 77.5 33.675 4
    endloop
  endfacet
  facet normal 0 0 1
    outer loop
      vertex 72.5 33.675 4
      vertex 54.375 29.925 4
      vertex 80 29.925 4
    endloop
  endfacet
  facet normal 0 0 1
    outer loop
      vertex 54.375 29.925 4
      vertex 72.5 33.675 4
      vertex 54.375 44.925 4
    endloop
  endfacet
  facet normal -1 0 0
    outer loop
      vertex 39.375 44.925 0
      vertex 39.375 170 4
      vertex 39.375 170 0
    endloop
  endfacet
  facet normal -1 -0 0
    outer loop
      vertex 39.375 170 4
      vertex 39.375 44.925 0
      vertex 39.375 44.925 4
    endloop
  endfacet
  facet normal -1 0 0
    outer loop
      vertex 39.375 -5 0
      vertex 39.375 0.502687 4
      vertex 39.375 0.502687 0
    endloop
  endfacet
  facet normal -1 -0 0
    outer loop
      vertex 39.375 0.502687 4
      vertex 39.375 -5 0
      vertex 39.375 -5 4
    endloop
  endfacet
  facet normal -1 0 0
    outer loop
      vertex 39.375 23.4973 0
      vertex 39.375 29.925 4
      vertex 39.375 29.925 0
    endloop
  endfacet
  facet normal -1 -0 0
    outer loop
      vertex 39.375 29.925 4
      vertex 39.375 23.4973 0
      vertex 39.375 23.4973 4
    endloop
  endfacet
  facet normal 0 1 -0
    outer loop
      vertex 54.375 170 0
      vertex 39.375 170 4
      vertex 54.375 170 4
    endloop
  endfacet
  facet normal 0 1 0
    outer loop
      vertex 39.375 170 4
      vertex 54.375 170 0
      vertex 39.375 170 0
    endloop
  endfacet
  facet normal 0 -1 0
    outer loop
      vertex 39.375 -5 0
      vertex 54.375 -5 4
      vertex 39.375 -5 4
    endloop
  endfacet
  facet normal 0 -1 -0
    outer loop
      vertex 54.375 -5 4
      vertex 39.375 -5 0
      vertex 54.375 -5 0
    endloop
  endfacet
  facet normal 1 -0 0
    outer loop
      vertex 80 29.925 4
      vertex 80 44.925 0
      vertex 80 44.925 4
    endloop
  endfacet
  facet normal 1 0 0
    outer loop
      vertex 80 44.925 0
      vertex 80 29.925 4
      vertex 80 29.925 0
    endloop
  endfacet
  facet normal -1 0 0
    outer loop
      vertex -5 29.925 0
      vertex -5 44.925 4
      vertex -5 44.925 0
    endloop
  endfacet
  facet normal -1 -0 0
    outer loop
      vertex -5 44.925 4
      vertex -5 29.925 0
      vertex -5 29.925 4
    endloop
  endfacet
  facet normal 0 1 -0
    outer loop
      vertex 39.375 44.925 0
      vertex -5 44.925 4
      vertex 39.375 44.925 4
    endloop
  endfacet
  facet normal 0 1 0
    outer loop
      vertex -5 44.925 4
      vertex 39.375 44.925 0
      vertex -5 44.925 0
    endloop
  endfacet
  facet normal 0 1 -0
    outer loop
      vertex 80 44.925 0
      vertex 54.375 44.925 4
      vertex 80 44.925 4
    endloop
  endfacet
  facet normal 0 1 0
    outer loop
      vertex 54.375 44.925 4
      vertex 80 44.925 0
      vertex 54.375 44.925 0
    endloop
  endfacet
  facet normal 0 -1 0
    outer loop
      vertex -5 29.925 0
      vertex 12.6963 29.925 4
      vertex -5 29.925 4
    endloop
  endfacet
  facet normal 0 -1 -0
    outer loop
      vertex 12.6963 29.925 4
      vertex -5 29.925 0
      vertex 12.6963 29.925 0
    endloop
  endfacet
  facet normal 0 -1 0
    outer loop
      vertex 54.375 29.925 0
      vertex 80 29.925 4
      vertex 54.375 29.925 4
    endloop
  endfacet
  facet normal 0 -1 -0
    outer loop
      vertex 80 29.925 4
      vertex 54.375 29.925 0
      vertex 80 29.925 0
    endloop
  endfacet
  facet normal 0 -1 0
    outer loop
      vertex 32.3037 29.925 0
      vertex 39.375 29.925 4
      vertex 32.3037 29.925 4
    endloop
  endfacet
  facet normal 0 -1 -0
    outer loop
      vertex 39.375 29.925 4
      vertex 32.3037 29.925 0
      vertex 39.375 29.925 0
    endloop
  endfacet
  facet normal -1 0 0
    outer loop
      vertex 50.625 -2.5 0
      vertex 50.625 2.5 4
      vertex 50.625 2.5 0
    endloop
  endfacet
  facet normal -1 -0 0
    outer loop
      vertex 50.625 2.5 4
      vertex 50.625 -2.5 0
      vertex 50.625 -2.5 4
    endloop
  endfacet
  facet normal 1 -0 0
    outer loop
      vertex 43.125 -2.5 4
      vertex 43.125 2.5 0
      vertex 43.125 2.5 4
    endloop
  endfacet
  facet normal 1 0 0
    outer loop
      vertex 43.125 2.5 0
      vertex 43.125 -2.5 4
      vertex 43.125 -2.5 0
    endloop
  endfacet
  facet normal 0 -1 0
    outer loop
      vertex 43.125 2.5 0
      vertex 50.625 2.5 4
      vertex 43.125 2.5 4
    endloop
  endfacet
  facet normal 0 -1 -0
    outer loop
      vertex 50.625 2.5 4
      vertex 43.125 2.5 0
      vertex 50.625 2.5 0
    endloop
  endfacet
  facet normal 0 1 -0
    outer loop
      vertex 50.625 -2.5 0
      vertex 43.125 -2.5 4
      vertex 50.625 -2.5 4
    endloop
  endfacet
  facet normal 0 1 0
    outer loop
      vertex 43.125 -2.5 4
      vertex 50.625 -2.5 0
      vertex 43.125 -2.5 0
    endloop
  endfacet
  facet normal -1 0 0
    outer loop
      vertex 50.625 162.5 0
      vertex 50.625 167.5 4
      vertex 50.625 167.5 0
    endloop
  endfacet
  facet normal -1 -0 0
    outer loop
      vertex 50.625 167.5 4
      vertex 50.625 162.5 0
      vertex 50.625 162.5 4
    endloop
  endfacet
  facet normal 1 -0 0
    outer loop
      vertex 43.125 162.5 4
      vertex 43.125 167.5 0
      vertex 43.125 167.5 4
    endloop
  endfacet
  facet normal 1 0 0
    outer loop
      vertex 43.125 167.5 0
      vertex 43.125 162.5 4
      vertex 43.125 162.5 0
    endloop
  endfacet
  facet normal 0 -1 0
    outer loop
      vertex 43.125 167.5 0
      vertex 50.625 167.5 4
      vertex 43.125 167.5 4
    endloop
  endfacet
  facet normal 0 -1 -0
    outer loop
      vertex 50.625 167.5 4
      vertex 43.125 167.5 0
      vertex 50.625 167.5 0
    endloop
  endfacet
  facet normal 0 1 -0
    outer loop
      vertex 50.625 162.5 0
      vertex 43.125 162.5 4
      vertex 50.625 162.5 4
    endloop
  endfacet
  facet normal 0 1 0
    outer loop
      vertex 43.125 162.5 4
      vertex 50.625 162.5 0
      vertex 43.125 162.5 0
    endloop
  endfacet
  facet normal -1 0 0
    outer loop
      vertex 2.5 33.675 0
      vertex 2.5 41.175 4
      vertex 2.5 41.175 0
    endloop
  endfacet
  facet normal -1 -0 0
    outer loop
      vertex 2.5 41.175 4
      vertex 2.5 33.675 0
      vertex 2.5 33.675 4
    endloop
  endfacet
  facet normal 1 -0 0
    outer loop
      vertex -2.5 33.675 4
      vertex -2.5 41.175 0
      vertex -2.5 41.175 4
    endloop
  endfacet
  facet normal 1 0 0
    outer loop
      vertex -2.5 41.175 0
      vertex -2.5 33.675 4
      vertex -2.5 33.675 0
    endloop
  endfacet
  facet normal 0 -1 0
    outer loop
      vertex -2.5 41.175 0
      vertex 2.5 41.175 4
      vertex -2.5 41.175 4
    endloop
  endfacet
  facet normal 0 -1 -0
    outer loop
      vertex 2.5 41.175 4
      vertex -2.5 41.175 0
      vertex 2.5 41.175 0
    endloop
  endfacet
  facet normal 0 1 -0
    outer loop
      vertex 2.5 33.675 0
      vertex -2.5 33.675 4
      vertex 2.5 33.675 4
    endloop
  endfacet
  facet normal 0 1 0
    outer loop
      vertex -2.5 33.675 4
      vertex 2.5 33.675 0
      vertex -2.5 33.675 0
    endloop
  endfacet
  facet normal -1 0 0
    outer loop
      vertex 77.5 33.675 0
      vertex 77.5 41.175 4
      vertex 77.5 41.175 0
    endloop
  endfacet
  facet normal -1 -0 0
    outer loop
      vertex 77.5 41.175 4
      vertex 77.5 33.675 0
      vertex 77.5 33.675 4
    endloop
  endfacet
  facet normal 1 -0 0
    outer loop
      vertex 72.5 33.675 4
      vertex 72.5 41.175 0
      vertex 72.5 41.175 4
    endloop
  endfacet
  facet normal 1 0 0
    outer loop
      vertex 72.5 41.175 0
      vertex 72.5 33.675 4
      vertex 72.5 33.675 0
    endloop
  endfacet
  facet normal 0 -1 0
    outer loop
      vertex 72.5 41.175 0
      vertex 77.5 41.175 4
      vertex 72.5 41.175 4
    endloop
  endfacet
  facet normal 0 -1 -0
    outer loop
      vertex 77.5 41.175 4
      vertex 72.5 41.175 0
      vertex 77.5 41.175 0
    endloop
  endfacet
  facet normal 0 1 -0
    outer loop
      vertex 77.5 33.675 0
      vertex 72.5 33.675 4
      vertex 77.5 33.675 4
    endloop
  endfacet
  facet normal 0 1 0
    outer loop
      vertex 72.5 33.675 4
      vertex 77.5 33.675 0
      vertex 72.5 33.675 0
    endloop
  endfacet
endsolid OpenSCAD_Model
