<?xml version="1.0" encoding="UTF-8" standalone="no"?>
<!-- Created with Inkscape (http://www.inkscape.org/) -->

<svg
   xmlns:dc="http://purl.org/dc/elements/1.1/"
   xmlns:cc="http://creativecommons.org/ns#"
   xmlns:rdf="http://www.w3.org/1999/02/22-rdf-syntax-ns#"
   xmlns:svg="http://www.w3.org/2000/svg"
   xmlns="http://www.w3.org/2000/svg"
   xmlns:sodipodi="http://sodipodi.sourceforge.net/DTD/sodipodi-0.dtd"
   xmlns:inkscape="http://www.inkscape.org/namespaces/inkscape"
   width="210mm"
   height="297mm"
   viewBox="0 0 210 297"
   version="1.1"
   id="svg8"
   inkscape:version="0.92.5 (2060ec1f9f, 2020-04-08)"
   sodipodi:docname="cat.svg">
  <defs
     id="defs2" />
  <sodipodi:namedview
     id="base"
     pagecolor="#ffffff"
     bordercolor="#666666"
     borderopacity="1.0"
     inkscape:pageopacity="0.0"
     inkscape:pageshadow="2"
     inkscape:zoom="0.5"
     inkscape:cx="363.62656"
     inkscape:cy="675.68467"
     inkscape:document-units="mm"
     inkscape:current-layer="layer1"
     showgrid="false"
     inkscape:window-width="1208"
     inkscape:window-height="656"
     inkscape:window-x="72"
     inkscape:window-y="27"
     inkscape:window-maximized="1" />
  <metadata
     id="metadata5">
    <rdf:RDF>
      <cc:Work
         rdf:about="">
        <dc:format>image/svg+xml</dc:format>
        <dc:type
           rdf:resource="http://purl.org/dc/dcmitype/StillImage" />
        <dc:title></dc:title>
      </cc:Work>
    </rdf:RDF>
  </metadata>
  <g
     inkscape:label="Layer 1"
     inkscape:groupmode="layer"
     id="layer1">
    <path
       style="stroke-width:1.11199605"
       d="M 797.44336 217.88672 C 679.17159 235.50026 617.96071 296.28158 566.21875 328.23438 C 540.20781 328.32933 475.43433 330.8313 450.12695 335.69141 C 325.46638 263.82752 332.33913 265.38597 169.75195 237.04297 C 158.94765 404.34932 195.45066 409.25195 205.91016 497.76758 C 211.70508 508.60912 186.71822 581.23306 186.42578 603.94727 C 186.42541 756.22044 339.06422 879.66241 527.35547 879.66211 C 715.64575 879.66132 868.28553 756.21965 868.28516 603.94727 C 868.13586 552.58247 850.24622 502.2727 816.63477 458.68945 C 825.52433 348.78715 826.47569 344.8179 797.44336 217.88672 z M 397.33203 438.33984 C 416.0772 449.89034 428.05044 474.5502 428.07812 501.66211 C 428.05551 528.76824 416.08918 553.42658 397.35156 564.98438 C 378.60734 553.43297 366.63474 528.7733 366.60742 501.66211 C 366.63123 474.5567 378.5954 449.89858 397.33203 438.33984 z M 619.9082 438.33984 C 638.65334 449.89034 650.62652 474.5502 650.6543 501.66211 C 650.63162 528.76824 638.66535 553.42658 619.92773 564.98438 C 601.18351 553.43297 589.21092 528.7733 589.18359 501.66211 C 589.20627 474.5567 601.17154 449.89858 619.9082 438.33984 z M 788.44922 535.74023 L 792.47656 550.76562 L 692.75586 577.48633 L 688.73047 562.45898 L 788.44922 535.74023 z M 237.11719 543.74023 L 336.83789 570.45898 L 332.81055 585.48633 L 233.0918 558.76562 L 237.11719 543.74023 z M 520.5918 595.60742 C 539.54813 595.67583 558.18794 599.82209 595.19727 607.8418 C 596.4069 666.53763 597.06072 666.98733 519.64258 701.22656 C 447.0631 666.00904 446.5072 666.53763 444.08789 607.8418 C 482.36211 599.548 501.63546 595.53901 520.5918 595.60742 z M 690.39844 596.23828 L 793.63672 596.23828 L 793.63672 611.79297 L 690.39844 611.79297 L 690.39844 596.23828 z M 231.93164 604.23828 L 335.16797 604.23828 L 335.16797 619.79297 L 231.93164 619.79297 L 231.93164 604.23828 z M 689.95703 627.39258 L 789.67773 654.11133 L 785.65039 669.13867 L 685.93164 642.41797 L 689.95703 627.39258 z M 335.60938 635.39258 L 339.63672 650.41797 L 239.91602 677.13867 L 235.89062 662.11133 L 335.60938 635.39258 z M 686.10547 663.68359 A 170.79298 122.94195 0 0 1 686.49219 671.54883 A 170.79298 122.94195 0 0 1 515.69922 794.49023 A 170.79298 122.94195 0 0 1 344.90625 671.54883 A 170.79298 122.94195 0 0 1 345.29297 665.97461 A 170.79298 122.94195 0 0 0 515.69922 781.05469 A 170.79298 122.94195 0 0 0 686.10547 663.68359 z "
       transform="scale(0.26458333)"
       id="path3713" />
  </g>
</svg>
