solid OpenSCAD_Model
  facet normal 1 -0 0
    outer loop
      vertex 32 182 10
      vertex 32 262 0
      vertex 32 262 10
    endloop
  endfacet
  facet normal 1 0 0
    outer loop
      vertex 32 262 0
      vertex 32 182 10
      vertex 32 182 0
    endloop
  endfacet
  facet normal 1 -0 0
    outer loop
      vertex 32 0 10
      vertex 32 150 0
      vertex 32 150 10
    endloop
  endfacet
  facet normal 1 0 0
    outer loop
      vertex 32 150 0
      vertex 32 0 10
      vertex 32 0 0
    endloop
  endfacet
  facet normal -0 0 1
    outer loop
      vertex -89 182 10
      vertex 0 150 10
      vertex 0 182 10
    endloop
  endfacet
  facet normal 0 0 1
    outer loop
      vertex 0 150 10
      vertex -89 182 10
      vertex -89 150 10
    endloop
  endfacet
  facet normal 0 0 1
    outer loop
      vertex 0 182 10
      vertex 32 182 10
      vertex 32 262 10
    endloop
  endfacet
  facet normal 0 0 1
    outer loop
      vertex 32 182 10
      vertex 0 182 10
      vertex 32 150 10
    endloop
  endfacet
  facet normal 0 0 1
    outer loop
      vertex 0 182 10
      vertex 32 262 10
      vertex 0 262 10
    endloop
  endfacet
  facet normal 0 0 1
    outer loop
      vertex 32 150 10
      vertex 0 182 10
      vertex 0 150 10
    endloop
  endfacet
  facet normal 0 0 1
    outer loop
      vertex 32 150 10
      vertex 0 150 10
      vertex 32 0 10
    endloop
  endfacet
  facet normal 0 0 1
    outer loop
      vertex 32 0 10
      vertex 0 150 10
      vertex 0 0 10
    endloop
  endfacet
  facet normal -0 0 1
    outer loop
      vertex 32 182 10
      vertex 121 150 10
      vertex 121 182 10
    endloop
  endfacet
  facet normal 0 0 1
    outer loop
      vertex 121 150 10
      vertex 32 182 10
      vertex 32 150 10
    endloop
  endfacet
  facet normal 0 0 -1
    outer loop
      vertex 0 150 0
      vertex -69.5359 164 0
      vertex 0 182 0
    endloop
  endfacet
  facet normal 0 0 -1
    outer loop
      vertex 0 150 0
      vertex -73 162 0
      vertex -69.5359 164 0
    endloop
  endfacet
  facet normal -0 0 -1
    outer loop
      vertex -76.4641 164 0
      vertex -89 150 0
      vertex -76.4641 168 0
    endloop
  endfacet
  facet normal -0 0 -1
    outer loop
      vertex -73 162 0
      vertex -89 150 0
      vertex -76.4641 164 0
    endloop
  endfacet
  facet normal 0 0 -1
    outer loop
      vertex -89 150 0
      vertex -73 162 0
      vertex 0 150 0
    endloop
  endfacet
  facet normal 0 0 -1
    outer loop
      vertex -69.5359 168 0
      vertex 0 182 0
      vertex -69.5359 164 0
    endloop
  endfacet
  facet normal 0 0 -1
    outer loop
      vertex -73 170 0
      vertex 0 182 0
      vertex -69.5359 168 0
    endloop
  endfacet
  facet normal 0 0 -1
    outer loop
      vertex -73 170 0
      vertex -89 182 0
      vertex 0 182 0
    endloop
  endfacet
  facet normal 0 0 -1
    outer loop
      vertex -76.4641 168 0
      vertex -89 182 0
      vertex -73 170 0
    endloop
  endfacet
  facet normal 0 0 -1
    outer loop
      vertex -89 182 0
      vertex -76.4641 168 0
      vertex -89 150 0
    endloop
  endfacet
  facet normal 0 0 -1
    outer loop
      vertex 0 150 0
      vertex 32 150 0
      vertex 16 20 0
    endloop
  endfacet
  facet normal 0 0 -1
    outer loop
      vertex 0 182 0
      vertex 32 150 0
      vertex 0 150 0
    endloop
  endfacet
  facet normal 0 0 -1
    outer loop
      vertex 0 150 0
      vertex 16 20 0
      vertex 12.5359 18 0
    endloop
  endfacet
  facet normal 0 0 -1
    outer loop
      vertex 32 150 0
      vertex 0 182 0
      vertex 19.4641 244 0
    endloop
  endfacet
  facet normal 0 0 -1
    outer loop
      vertex 19.4641 18 0
      vertex 32 150 0
      vertex 32 0 0
    endloop
  endfacet
  facet normal 0 0 -1
    outer loop
      vertex 16 20 0
      vertex 32 150 0
      vertex 19.4641 18 0
    endloop
  endfacet
  facet normal 0 0 -1
    outer loop
      vertex 19.4641 18 0
      vertex 32 0 0
      vertex 19.4641 14 0
    endloop
  endfacet
  facet normal 0 0 -1
    outer loop
      vertex 32 0 0
      vertex 16 12 0
      vertex 19.4641 14 0
    endloop
  endfacet
  facet normal 0 0 -1
    outer loop
      vertex 0 0 0
      vertex 16 12 0
      vertex 32 0 0
    endloop
  endfacet
  facet normal 0 0 -1
    outer loop
      vertex 0 0 0
      vertex 12.5359 18 0
      vertex 12.5359 14 0
    endloop
  endfacet
  facet normal 0 0 -1
    outer loop
      vertex 19.4641 244 0
      vertex 0 182 0
      vertex 16 242 0
    endloop
  endfacet
  facet normal -0 0 -1
    outer loop
      vertex 12.5359 18 0
      vertex 0 0 0
      vertex 0 150 0
    endloop
  endfacet
  facet normal -0 0 -1
    outer loop
      vertex 16 12 0
      vertex 0 0 0
      vertex 12.5359 14 0
    endloop
  endfacet
  facet normal 0 0 -1
    outer loop
      vertex 32 150 0
      vertex 19.4641 244 0
      vertex 32 182 0
    endloop
  endfacet
  facet normal 0 0 -1
    outer loop
      vertex 32 182 0
      vertex 19.4641 244 0
      vertex 32 262 0
    endloop
  endfacet
  facet normal 0 0 -1
    outer loop
      vertex 19.4641 248 0
      vertex 32 262 0
      vertex 19.4641 244 0
    endloop
  endfacet
  facet normal 0 0 -1
    outer loop
      vertex 16 250 0
      vertex 32 262 0
      vertex 19.4641 248 0
    endloop
  endfacet
  facet normal 0 0 -1
    outer loop
      vertex 0 262 0
      vertex 16 250 0
      vertex 12.5359 248 0
    endloop
  endfacet
  facet normal -0 0 -1
    outer loop
      vertex 16 242 0
      vertex 0 182 0
      vertex 12.5359 244 0
    endloop
  endfacet
  facet normal 0 0 -1
    outer loop
      vertex 0 262 0
      vertex 12.5359 244 0
      vertex 0 182 0
    endloop
  endfacet
  facet normal 0 0 -1
    outer loop
      vertex 16 250 0
      vertex 0 262 0
      vertex 32 262 0
    endloop
  endfacet
  facet normal 0 0 -1
    outer loop
      vertex 12.5359 244 0
      vertex 0 262 0
      vertex 12.5359 248 0
    endloop
  endfacet
  facet normal 0 0 -1
    outer loop
      vertex 121 150 0
      vertex 108.464 164 0
      vertex 121 182 0
    endloop
  endfacet
  facet normal 0 0 -1
    outer loop
      vertex 121 150 0
      vertex 105 162 0
      vertex 108.464 164 0
    endloop
  endfacet
  facet normal 0 0 -1
    outer loop
      vertex 32 150 0
      vertex 105 162 0
      vertex 121 150 0
    endloop
  endfacet
  facet normal -0 0 -1
    outer loop
      vertex 101.536 164 0
      vertex 32 150 0
      vertex 101.536 168 0
    endloop
  endfacet
  facet normal -0 0 -1
    outer loop
      vertex 105 162 0
      vertex 32 150 0
      vertex 101.536 164 0
    endloop
  endfacet
  facet normal 0 0 -1
    outer loop
      vertex 108.464 168 0
      vertex 121 182 0
      vertex 108.464 164 0
    endloop
  endfacet
  facet normal 0 0 -1
    outer loop
      vertex 105 170 0
      vertex 121 182 0
      vertex 108.464 168 0
    endloop
  endfacet
  facet normal 0 0 -1
    outer loop
      vertex 32 182 0
      vertex 105 170 0
      vertex 101.536 168 0
    endloop
  endfacet
  facet normal 0 0 -1
    outer loop
      vertex 32 182 0
      vertex 101.536 168 0
      vertex 32 150 0
    endloop
  endfacet
  facet normal 0 0 -1
    outer loop
      vertex 105 170 0
      vertex 32 182 0
      vertex 121 182 0
    endloop
  endfacet
  facet normal -1 0 0
    outer loop
      vertex 0 182 0
      vertex 0 262 10
      vertex 0 262 0
    endloop
  endfacet
  facet normal -1 -0 0
    outer loop
      vertex 0 262 10
      vertex 0 182 0
      vertex 0 182 10
    endloop
  endfacet
  facet normal -1 0 0
    outer loop
      vertex 0 0 0
      vertex 0 150 10
      vertex 0 150 0
    endloop
  endfacet
  facet normal -1 -0 0
    outer loop
      vertex 0 150 10
      vertex 0 0 0
      vertex 0 0 10
    endloop
  endfacet
  facet normal 0 1 -0
    outer loop
      vertex 32 262 0
      vertex 0 262 10
      vertex 32 262 10
    endloop
  endfacet
  facet normal 0 1 0
    outer loop
      vertex 0 262 10
      vertex 32 262 0
      vertex 0 262 0
    endloop
  endfacet
  facet normal 0 -1 0
    outer loop
      vertex 0 0 0
      vertex 32 0 10
      vertex 0 0 10
    endloop
  endfacet
  facet normal 0 -1 -0
    outer loop
      vertex 32 0 10
      vertex 0 0 0
      vertex 32 0 0
    endloop
  endfacet
  facet normal 1 -0 0
    outer loop
      vertex 121 150 10
      vertex 121 182 0
      vertex 121 182 10
    endloop
  endfacet
  facet normal 1 0 0
    outer loop
      vertex 121 182 0
      vertex 121 150 10
      vertex 121 150 0
    endloop
  endfacet
  facet normal -1 0 0
    outer loop
      vertex -89 150 0
      vertex -89 182 10
      vertex -89 182 0
    endloop
  endfacet
  facet normal -1 -0 0
    outer loop
      vertex -89 182 10
      vertex -89 150 0
      vertex -89 150 10
    endloop
  endfacet
  facet normal 0 1 -0
    outer loop
      vertex 0 182 0
      vertex -89 182 10
      vertex 0 182 10
    endloop
  endfacet
  facet normal 0 1 0
    outer loop
      vertex -89 182 10
      vertex 0 182 0
      vertex -89 182 0
    endloop
  endfacet
  facet normal 0 1 -0
    outer loop
      vertex 121 182 0
      vertex 32 182 10
      vertex 121 182 10
    endloop
  endfacet
  facet normal 0 1 0
    outer loop
      vertex 32 182 10
      vertex 121 182 0
      vertex 32 182 0
    endloop
  endfacet
  facet normal 0 -1 0
    outer loop
      vertex -89 150 0
      vertex 0 150 10
      vertex -89 150 10
    endloop
  endfacet
  facet normal 0 -1 -0
    outer loop
      vertex 0 150 10
      vertex -89 150 0
      vertex 0 150 0
    endloop
  endfacet
  facet normal 0 -1 0
    outer loop
      vertex 32 150 0
      vertex 121 150 10
      vertex 32 150 10
    endloop
  endfacet
  facet normal 0 -1 -0
    outer loop
      vertex 121 150 10
      vertex 32 150 0
      vertex 121 150 0
    endloop
  endfacet
  facet normal -0.5 -0.866025 0
    outer loop
      vertex 16 20 0
      vertex 19.4641 18 6.4
      vertex 16 20 6.4
    endloop
  endfacet
  facet normal -0.5 -0.866025 -0
    outer loop
      vertex 19.4641 18 6.4
      vertex 16 20 0
      vertex 19.4641 18 0
    endloop
  endfacet
  facet normal -0.5 0.866025 0
    outer loop
      vertex 19.4641 14 0
      vertex 16 12 6.4
      vertex 19.4641 14 6.4
    endloop
  endfacet
  facet normal -0.5 0.866025 0
    outer loop
      vertex 16 12 6.4
      vertex 19.4641 14 0
      vertex 16 12 0
    endloop
  endfacet
  facet normal 0.5 -0.866025 0
    outer loop
      vertex 12.5359 18 0
      vertex 16 20 6.4
      vertex 12.5359 18 6.4
    endloop
  endfacet
  facet normal 0.5 -0.866025 0
    outer loop
      vertex 16 20 6.4
      vertex 12.5359 18 0
      vertex 16 20 0
    endloop
  endfacet
  facet normal 0 0 -1
    outer loop
      vertex 16 12 6.4
      vertex 19.4641 18 6.4
      vertex 19.4641 14 6.4
    endloop
  endfacet
  facet normal 0 0 -1
    outer loop
      vertex 16 12 6.4
      vertex 16 20 6.4
      vertex 19.4641 18 6.4
    endloop
  endfacet
  facet normal 0 0 -1
    outer loop
      vertex 12.5359 14 6.4
      vertex 16 20 6.4
      vertex 16 12 6.4
    endloop
  endfacet
  facet normal 0 0 -1
    outer loop
      vertex 16 20 6.4
      vertex 12.5359 14 6.4
      vertex 12.5359 18 6.4
    endloop
  endfacet
  facet normal 1 -0 0
    outer loop
      vertex 12.5359 14 6.4
      vertex 12.5359 18 0
      vertex 12.5359 18 6.4
    endloop
  endfacet
  facet normal 1 0 0
    outer loop
      vertex 12.5359 18 0
      vertex 12.5359 14 6.4
      vertex 12.5359 14 0
    endloop
  endfacet
  facet normal 0.5 0.866025 -0
    outer loop
      vertex 16 12 0
      vertex 12.5359 14 6.4
      vertex 16 12 6.4
    endloop
  endfacet
  facet normal 0.5 0.866025 0
    outer loop
      vertex 12.5359 14 6.4
      vertex 16 12 0
      vertex 12.5359 14 0
    endloop
  endfacet
  facet normal -1 0 0
    outer loop
      vertex 19.4641 14 0
      vertex 19.4641 18 6.4
      vertex 19.4641 18 0
    endloop
  endfacet
  facet normal -1 -0 0
    outer loop
      vertex 19.4641 18 6.4
      vertex 19.4641 14 0
      vertex 19.4641 14 6.4
    endloop
  endfacet
  facet normal -0.5 -0.866025 0
    outer loop
      vertex 16 250 0
      vertex 19.4641 248 6.4
      vertex 16 250 6.4
    endloop
  endfacet
  facet normal -0.5 -0.866025 -0
    outer loop
      vertex 19.4641 248 6.4
      vertex 16 250 0
      vertex 19.4641 248 0
    endloop
  endfacet
  facet normal 0 0 -1
    outer loop
      vertex 16 242 6.4
      vertex 19.4641 248 6.4
      vertex 19.4641 244 6.4
    endloop
  endfacet
  facet normal 0 0 -1
    outer loop
      vertex 16 242 6.4
      vertex 16 250 6.4
      vertex 19.4641 248 6.4
    endloop
  endfacet
  facet normal 0 0 -1
    outer loop
      vertex 12.5359 244 6.4
      vertex 16 250 6.4
      vertex 16 242 6.4
    endloop
  endfacet
  facet normal 0 0 -1
    outer loop
      vertex 16 250 6.4
      vertex 12.5359 244 6.4
      vertex 12.5359 248 6.4
    endloop
  endfacet
  facet normal 0.5 -0.866025 0
    outer loop
      vertex 12.5359 248 0
      vertex 16 250 6.4
      vertex 12.5359 248 6.4
    endloop
  endfacet
  facet normal 0.5 -0.866025 0
    outer loop
      vertex 16 250 6.4
      vertex 12.5359 248 0
      vertex 16 250 0
    endloop
  endfacet
  facet normal 1 -0 0
    outer loop
      vertex 12.5359 244 6.4
      vertex 12.5359 248 0
      vertex 12.5359 248 6.4
    endloop
  endfacet
  facet normal 1 0 0
    outer loop
      vertex 12.5359 248 0
      vertex 12.5359 244 6.4
      vertex 12.5359 244 0
    endloop
  endfacet
  facet normal 0.5 0.866025 -0
    outer loop
      vertex 16 242 0
      vertex 12.5359 244 6.4
      vertex 16 242 6.4
    endloop
  endfacet
  facet normal 0.5 0.866025 0
    outer loop
      vertex 12.5359 244 6.4
      vertex 16 242 0
      vertex 12.5359 244 0
    endloop
  endfacet
  facet normal -0.5 0.866025 0
    outer loop
      vertex 19.4641 244 0
      vertex 16 242 6.4
      vertex 19.4641 244 6.4
    endloop
  endfacet
  facet normal -0.5 0.866025 0
    outer loop
      vertex 16 242 6.4
      vertex 19.4641 244 0
      vertex 16 242 0
    endloop
  endfacet
  facet normal -1 0 0
    outer loop
      vertex 19.4641 244 0
      vertex 19.4641 248 6.4
      vertex 19.4641 248 0
    endloop
  endfacet
  facet normal -1 -0 0
    outer loop
      vertex 19.4641 248 6.4
      vertex 19.4641 244 0
      vertex 19.4641 244 6.4
    endloop
  endfacet
  facet normal -0.5 -0.866025 0
    outer loop
      vertex -73 170 0
      vertex -69.5359 168 6.4
      vertex -73 170 6.4
    endloop
  endfacet
  facet normal -0.5 -0.866025 -0
    outer loop
      vertex -69.5359 168 6.4
      vertex -73 170 0
      vertex -69.5359 168 0
    endloop
  endfacet
  facet normal 0.5 -0.866025 0
    outer loop
      vertex -76.4641 168 0
      vertex -73 170 6.4
      vertex -76.4641 168 6.4
    endloop
  endfacet
  facet normal 0.5 -0.866025 0
    outer loop
      vertex -73 170 6.4
      vertex -76.4641 168 0
      vertex -73 170 0
    endloop
  endfacet
  facet normal 1 -0 0
    outer loop
      vertex -76.4641 164 6.4
      vertex -76.4641 168 0
      vertex -76.4641 168 6.4
    endloop
  endfacet
  facet normal 1 0 0
    outer loop
      vertex -76.4641 168 0
      vertex -76.4641 164 6.4
      vertex -76.4641 164 0
    endloop
  endfacet
  facet normal 0.5 0.866025 -0
    outer loop
      vertex -73 162 0
      vertex -76.4641 164 6.4
      vertex -73 162 6.4
    endloop
  endfacet
  facet normal 0.5 0.866025 0
    outer loop
      vertex -76.4641 164 6.4
      vertex -73 162 0
      vertex -76.4641 164 0
    endloop
  endfacet
  facet normal -0.5 0.866025 0
    outer loop
      vertex -69.5359 164 0
      vertex -73 162 6.4
      vertex -69.5359 164 6.4
    endloop
  endfacet
  facet normal -0.5 0.866025 0
    outer loop
      vertex -73 162 6.4
      vertex -69.5359 164 0
      vertex -73 162 0
    endloop
  endfacet
  facet normal -1 0 0
    outer loop
      vertex -69.5359 164 0
      vertex -69.5359 168 6.4
      vertex -69.5359 168 0
    endloop
  endfacet
  facet normal -1 -0 0
    outer loop
      vertex -69.5359 168 6.4
      vertex -69.5359 164 0
      vertex -69.5359 164 6.4
    endloop
  endfacet
  facet normal 0 0 -1
    outer loop
      vertex -73 162 6.4
      vertex -69.5359 168 6.4
      vertex -69.5359 164 6.4
    endloop
  endfacet
  facet normal 0 0 -1
    outer loop
      vertex -73 162 6.4
      vertex -73 170 6.4
      vertex -69.5359 168 6.4
    endloop
  endfacet
  facet normal 0 0 -1
    outer loop
      vertex -76.4641 164 6.4
      vertex -73 170 6.4
      vertex -73 162 6.4
    endloop
  endfacet
  facet normal 0 0 -1
    outer loop
      vertex -73 170 6.4
      vertex -76.4641 164 6.4
      vertex -76.4641 168 6.4
    endloop
  endfacet
  facet normal -0.500011 -0.866019 0
    outer loop
      vertex 105 170 0
      vertex 108.464 168 6.4
      vertex 105 170 6.4
    endloop
  endfacet
  facet normal -0.500011 -0.866019 -0
    outer loop
      vertex 108.464 168 6.4
      vertex 105 170 0
      vertex 108.464 168 0
    endloop
  endfacet
  facet normal -0.500011 0.866019 0
    outer loop
      vertex 108.464 164 0
      vertex 105 162 6.4
      vertex 108.464 164 6.4
    endloop
  endfacet
  facet normal -0.500011 0.866019 0
    outer loop
      vertex 105 162 6.4
      vertex 108.464 164 0
      vertex 105 162 0
    endloop
  endfacet
  facet normal 0 0 -1
    outer loop
      vertex 105 162 6.4
      vertex 108.464 168 6.4
      vertex 108.464 164 6.4
    endloop
  endfacet
  facet normal 0 0 -1
    outer loop
      vertex 105 162 6.4
      vertex 105 170 6.4
      vertex 108.464 168 6.4
    endloop
  endfacet
  facet normal 0 0 -1
    outer loop
      vertex 101.536 164 6.4
      vertex 105 170 6.4
      vertex 105 162 6.4
    endloop
  endfacet
  facet normal 0 0 -1
    outer loop
      vertex 105 170 6.4
      vertex 101.536 164 6.4
      vertex 101.536 168 6.4
    endloop
  endfacet
  facet normal 0.500011 -0.866019 0
    outer loop
      vertex 101.536 168 0
      vertex 105 170 6.4
      vertex 101.536 168 6.4
    endloop
  endfacet
  facet normal 0.500011 -0.866019 0
    outer loop
      vertex 105 170 6.4
      vertex 101.536 168 0
      vertex 105 170 0
    endloop
  endfacet
  facet normal 1 -0 0
    outer loop
      vertex 101.536 164 6.4
      vertex 101.536 168 0
      vertex 101.536 168 6.4
    endloop
  endfacet
  facet normal 1 0 0
    outer loop
      vertex 101.536 168 0
      vertex 101.536 164 6.4
      vertex 101.536 164 0
    endloop
  endfacet
  facet normal 0.500011 0.866019 -0
    outer loop
      vertex 105 162 0
      vertex 101.536 164 6.4
      vertex 105 162 6.4
    endloop
  endfacet
  facet normal 0.500011 0.866019 0
    outer loop
      vertex 101.536 164 6.4
      vertex 105 162 0
      vertex 101.536 164 0
    endloop
  endfacet
  facet normal -1 0 0
    outer loop
      vertex 108.464 164 0
      vertex 108.464 168 6.4
      vertex 108.464 168 0
    endloop
  endfacet
  facet normal -1 -0 0
    outer loop
      vertex 108.464 168 6.4
      vertex 108.464 164 0
      vertex 108.464 164 6.4
    endloop
  endfacet
endsolid OpenSCAD_Model
