solid OpenSCAD_Model
  facet normal 1 -0 0
    outer loop
      vertex 32 0 10
      vertex 32 207 0
      vertex 32 207 10
    endloop
  endfacet
  facet normal 1 0 0
    outer loop
      vertex 32 207 0
      vertex 32 0 10
      vertex 32 0 0
    endloop
  endfacet
  facet normal -0 0 1
    outer loop
      vertex 0 207 10
      vertex 32 0 10
      vertex 32 207 10
    endloop
  endfacet
  facet normal 0 0 1
    outer loop
      vertex 32 0 10
      vertex 0 207 10
      vertex 0 0 10
    endloop
  endfacet
  facet normal 0 0 -1
    outer loop
      vertex 16 20 0
      vertex 19.4641 189 0
      vertex 19.4641 18 0
    endloop
  endfacet
  facet normal 0 0 -1
    outer loop
      vertex 16 20 0
      vertex 16 187 0
      vertex 19.4641 189 0
    endloop
  endfacet
  facet normal 0 0 -1
    outer loop
      vertex 12.5359 18 0
      vertex 16 187 0
      vertex 16 20 0
    endloop
  endfacet
  facet normal -0 0 -1
    outer loop
      vertex 16 187 0
      vertex 12.5359 18 0
      vertex 12.5359 189 0
    endloop
  endfacet
  facet normal 0 0 -1
    outer loop
      vertex 19.4641 18 0
      vertex 32 0 0
      vertex 19.4641 14 0
    endloop
  endfacet
  facet normal 0 0 -1
    outer loop
      vertex 32 0 0
      vertex 16 12 0
      vertex 19.4641 14 0
    endloop
  endfacet
  facet normal 0 0 -1
    outer loop
      vertex 0 0 0
      vertex 16 12 0
      vertex 32 0 0
    endloop
  endfacet
  facet normal 0 0 -1
    outer loop
      vertex 0 0 0
      vertex 12.5359 18 0
      vertex 12.5359 14 0
    endloop
  endfacet
  facet normal -0 0 -1
    outer loop
      vertex 12.5359 18 0
      vertex 0 0 0
      vertex 12.5359 189 0
    endloop
  endfacet
  facet normal 0 0 -1
    outer loop
      vertex 0 207 0
      vertex 12.5359 189 0
      vertex 0 0 0
    endloop
  endfacet
  facet normal -0 0 -1
    outer loop
      vertex 16 12 0
      vertex 0 0 0
      vertex 12.5359 14 0
    endloop
  endfacet
  facet normal 0 0 -1
    outer loop
      vertex 32 0 0
      vertex 19.4641 18 0
      vertex 32 207 0
    endloop
  endfacet
  facet normal 0 0 -1
    outer loop
      vertex 19.4641 189 0
      vertex 32 207 0
      vertex 19.4641 18 0
    endloop
  endfacet
  facet normal 0 0 -1
    outer loop
      vertex 19.4641 193 0
      vertex 32 207 0
      vertex 19.4641 189 0
    endloop
  endfacet
  facet normal 0 0 -1
    outer loop
      vertex 16 195 0
      vertex 32 207 0
      vertex 19.4641 193 0
    endloop
  endfacet
  facet normal 0 0 -1
    outer loop
      vertex 0 207 0
      vertex 16 195 0
      vertex 12.5359 193 0
    endloop
  endfacet
  facet normal 0 0 -1
    outer loop
      vertex 16 195 0
      vertex 0 207 0
      vertex 32 207 0
    endloop
  endfacet
  facet normal 0 0 -1
    outer loop
      vertex 12.5359 189 0
      vertex 0 207 0
      vertex 12.5359 193 0
    endloop
  endfacet
  facet normal -1 0 0
    outer loop
      vertex 0 0 0
      vertex 0 207 10
      vertex 0 207 0
    endloop
  endfacet
  facet normal -1 -0 0
    outer loop
      vertex 0 207 10
      vertex 0 0 0
      vertex 0 0 10
    endloop
  endfacet
  facet normal 0 1 -0
    outer loop
      vertex 32 207 0
      vertex 0 207 10
      vertex 32 207 10
    endloop
  endfacet
  facet normal 0 1 0
    outer loop
      vertex 0 207 10
      vertex 32 207 0
      vertex 0 207 0
    endloop
  endfacet
  facet normal 0 -1 0
    outer loop
      vertex 0 0 0
      vertex 32 0 10
      vertex 0 0 10
    endloop
  endfacet
  facet normal 0 -1 -0
    outer loop
      vertex 32 0 10
      vertex 0 0 0
      vertex 32 0 0
    endloop
  endfacet
  facet normal -0.5 -0.866025 0
    outer loop
      vertex 16 20 0
      vertex 19.4641 18 6.4
      vertex 16 20 6.4
    endloop
  endfacet
  facet normal -0.5 -0.866025 -0
    outer loop
      vertex 19.4641 18 6.4
      vertex 16 20 0
      vertex 19.4641 18 0
    endloop
  endfacet
  facet normal 0 0 -1
    outer loop
      vertex 16 12 6.4
      vertex 19.4641 18 6.4
      vertex 19.4641 14 6.4
    endloop
  endfacet
  facet normal 0 0 -1
    outer loop
      vertex 16 12 6.4
      vertex 16 20 6.4
      vertex 19.4641 18 6.4
    endloop
  endfacet
  facet normal 0 0 -1
    outer loop
      vertex 12.5359 14 6.4
      vertex 16 20 6.4
      vertex 16 12 6.4
    endloop
  endfacet
  facet normal 0 0 -1
    outer loop
      vertex 16 20 6.4
      vertex 12.5359 14 6.4
      vertex 12.5359 18 6.4
    endloop
  endfacet
  facet normal 0.5 -0.866025 0
    outer loop
      vertex 12.5359 18 0
      vertex 16 20 6.4
      vertex 12.5359 18 6.4
    endloop
  endfacet
  facet normal 0.5 -0.866025 0
    outer loop
      vertex 16 20 6.4
      vertex 12.5359 18 0
      vertex 16 20 0
    endloop
  endfacet
  facet normal 1 -0 0
    outer loop
      vertex 12.5359 14 6.4
      vertex 12.5359 18 0
      vertex 12.5359 18 6.4
    endloop
  endfacet
  facet normal 1 0 0
    outer loop
      vertex 12.5359 18 0
      vertex 12.5359 14 6.4
      vertex 12.5359 14 0
    endloop
  endfacet
  facet normal 0.5 0.866025 -0
    outer loop
      vertex 16 12 0
      vertex 12.5359 14 6.4
      vertex 16 12 6.4
    endloop
  endfacet
  facet normal 0.5 0.866025 0
    outer loop
      vertex 12.5359 14 6.4
      vertex 16 12 0
      vertex 12.5359 14 0
    endloop
  endfacet
  facet normal -0.5 0.866025 0
    outer loop
      vertex 19.4641 14 0
      vertex 16 12 6.4
      vertex 19.4641 14 6.4
    endloop
  endfacet
  facet normal -0.5 0.866025 0
    outer loop
      vertex 16 12 6.4
      vertex 19.4641 14 0
      vertex 16 12 0
    endloop
  endfacet
  facet normal -1 0 0
    outer loop
      vertex 19.4641 14 0
      vertex 19.4641 18 6.4
      vertex 19.4641 18 0
    endloop
  endfacet
  facet normal -1 -0 0
    outer loop
      vertex 19.4641 18 6.4
      vertex 19.4641 14 0
      vertex 19.4641 14 6.4
    endloop
  endfacet
  facet normal -0.5 -0.866025 0
    outer loop
      vertex 16 195 0
      vertex 19.4641 193 6.4
      vertex 16 195 6.4
    endloop
  endfacet
  facet normal -0.5 -0.866025 -0
    outer loop
      vertex 19.4641 193 6.4
      vertex 16 195 0
      vertex 19.4641 193 0
    endloop
  endfacet
  facet normal -0.5 0.866025 0
    outer loop
      vertex 19.4641 189 0
      vertex 16 187 6.4
      vertex 19.4641 189 6.4
    endloop
  endfacet
  facet normal -0.5 0.866025 0
    outer loop
      vertex 16 187 6.4
      vertex 19.4641 189 0
      vertex 16 187 0
    endloop
  endfacet
  facet normal 0.5 -0.866025 0
    outer loop
      vertex 12.5359 193 0
      vertex 16 195 6.4
      vertex 12.5359 193 6.4
    endloop
  endfacet
  facet normal 0.5 -0.866025 0
    outer loop
      vertex 16 195 6.4
      vertex 12.5359 193 0
      vertex 16 195 0
    endloop
  endfacet
  facet normal 1 -0 0
    outer loop
      vertex 12.5359 189 6.4
      vertex 12.5359 193 0
      vertex 12.5359 193 6.4
    endloop
  endfacet
  facet normal 1 0 0
    outer loop
      vertex 12.5359 193 0
      vertex 12.5359 189 6.4
      vertex 12.5359 189 0
    endloop
  endfacet
  facet normal 0.5 0.866025 -0
    outer loop
      vertex 16 187 0
      vertex 12.5359 189 6.4
      vertex 16 187 6.4
    endloop
  endfacet
  facet normal 0.5 0.866025 0
    outer loop
      vertex 12.5359 189 6.4
      vertex 16 187 0
      vertex 12.5359 189 0
    endloop
  endfacet
  facet normal -1 0 0
    outer loop
      vertex 19.4641 189 0
      vertex 19.4641 193 6.4
      vertex 19.4641 193 0
    endloop
  endfacet
  facet normal -1 -0 0
    outer loop
      vertex 19.4641 193 6.4
      vertex 19.4641 189 0
      vertex 19.4641 189 6.4
    endloop
  endfacet
  facet normal 0 0 -1
    outer loop
      vertex 16 187 6.4
      vertex 19.4641 193 6.4
      vertex 19.4641 189 6.4
    endloop
  endfacet
  facet normal 0 0 -1
    outer loop
      vertex 16 187 6.4
      vertex 16 195 6.4
      vertex 19.4641 193 6.4
    endloop
  endfacet
  facet normal 0 0 -1
    outer loop
      vertex 12.5359 189 6.4
      vertex 16 195 6.4
      vertex 16 187 6.4
    endloop
  endfacet
  facet normal 0 0 -1
    outer loop
      vertex 16 195 6.4
      vertex 12.5359 189 6.4
      vertex 12.5359 193 6.4
    endloop
  endfacet
endsolid OpenSCAD_Model
