solid OpenSCAD_Model
  facet normal 0.866025 0.5 0
    outer loop
      vertex 80 0 8
      vertex 40 69.282 0
      vertex 40 69.282 8
    endloop
  endfacet
  facet normal 0.866025 0.5 0
    outer loop
      vertex 40 69.282 0
      vertex 80 0 8
      vertex 80 0 0
    endloop
  endfacet
  facet normal -0.866025 0.5 0
    outer loop
      vertex -80 0 0
      vertex -40 69.282 8
      vertex -40 69.282 0
    endloop
  endfacet
  facet normal -0.866025 0.5 0
    outer loop
      vertex -40 69.282 8
      vertex -80 0 0
      vertex -80 0 8
    endloop
  endfacet
  facet normal 0 -1 0
    outer loop
      vertex 58.4226 0 0
      vertex 80 0 8
      vertex 58.4226 0 8
    endloop
  endfacet
  facet normal 0 -1 -0
    outer loop
      vertex 80 0 8
      vertex 58.4226 0 0
      vertex 80 0 0
    endloop
  endfacet
  facet normal 0 -1 0
    outer loop
      vertex -80 0 0
      vertex -60.4226 0 8
      vertex -80 0 8
    endloop
  endfacet
  facet normal 0 -1 -0
    outer loop
      vertex -60.4226 0 8
      vertex -80 0 0
      vertex -60.4226 0 0
    endloop
  endfacet
  facet normal 0 0 1
    outer loop
      vertex 40 69.282 8
      vertex 58.4226 0 8
      vertex 80 0 8
    endloop
  endfacet
  facet normal 0 0 1
    outer loop
      vertex 40 69.282 8
      vertex 29 50.9615 8
      vertex 58.4226 0 8
    endloop
  endfacet
  facet normal -0 0 1
    outer loop
      vertex -40 69.282 8
      vertex 29 50.9615 8
      vertex 40 69.282 8
    endloop
  endfacet
  facet normal 0 0 1
    outer loop
      vertex 29 50.9615 8
      vertex -40 69.282 8
      vertex -31 50.9615 8
    endloop
  endfacet
  facet normal 0 0 1
    outer loop
      vertex -80 0 8
      vertex -31 50.9615 8
      vertex -40 69.282 8
    endloop
  endfacet
  facet normal 0 0 1
    outer loop
      vertex -31 50.9615 8
      vertex -80 0 8
      vertex -60.4226 0 8
    endloop
  endfacet
  facet normal 0 1 -0
    outer loop
      vertex 40 69.282 0
      vertex -40 69.282 8
      vertex 40 69.282 8
    endloop
  endfacet
  facet normal 0 1 0
    outer loop
      vertex -40 69.282 8
      vertex 40 69.282 0
      vertex -40 69.282 0
    endloop
  endfacet
  facet normal 0 0 -1
    outer loop
      vertex 58.4226 0 0
      vertex 40 69.282 0
      vertex 80 0 0
    endloop
  endfacet
  facet normal 0 0 -1
    outer loop
      vertex 29 50.9615 0
      vertex 40 69.282 0
      vertex 58.4226 0 0
    endloop
  endfacet
  facet normal 0 0 -1
    outer loop
      vertex -40 69.282 0
      vertex 29 50.9615 0
      vertex -31 50.9615 0
    endloop
  endfacet
  facet normal 0 0 -1
    outer loop
      vertex 29 50.9615 0
      vertex -40 69.282 0
      vertex 40 69.282 0
    endloop
  endfacet
  facet normal 0 0 -1
    outer loop
      vertex -80 0 0
      vertex -31 50.9615 0
      vertex -60.4226 0 0
    endloop
  endfacet
  facet normal -0 0 -1
    outer loop
      vertex -31 50.9615 0
      vertex -80 0 0
      vertex -40 69.282 0
    endloop
  endfacet
  facet normal -0.866026 -0.5 0
    outer loop
      vertex 58.4226 0 0
      vertex 29 50.9615 8
      vertex 29 50.9615 0
    endloop
  endfacet
  facet normal -0.866026 -0.5 0
    outer loop
      vertex 29 50.9615 8
      vertex 58.4226 0 0
      vertex 58.4226 0 8
    endloop
  endfacet
  facet normal 0.866026 -0.5 0
    outer loop
      vertex -60.4226 0 8
      vertex -31 50.9615 0
      vertex -31 50.9615 8
    endloop
  endfacet
  facet normal 0.866026 -0.5 0
    outer loop
      vertex -31 50.9615 0
      vertex -60.4226 0 8
      vertex -60.4226 0 0
    endloop
  endfacet
  facet normal 0 -1 0
    outer loop
      vertex -31 50.9615 0
      vertex 29 50.9615 8
      vertex -31 50.9615 8
    endloop
  endfacet
  facet normal 0 -1 -0
    outer loop
      vertex 29 50.9615 8
      vertex -31 50.9615 0
      vertex 29 50.9615 0
    endloop
  endfacet
endsolid OpenSCAD_Model
