solid OpenSCAD_Model
  facet normal -1 0 0
    outer loop
      vertex 11.25 4.6599 0
      vertex 11.25 11.25 18
      vertex 11.25 11.25 0
    endloop
  endfacet
  facet normal -1 -0 0
    outer loop
      vertex 11.25 11.25 18
      vertex 11.25 4.6599 0
      vertex 11.25 4.6599 18
    endloop
  endfacet
  facet normal -1 0 0
    outer loop
      vertex 11.25 -11.25 0
      vertex 11.25 -4.6599 18
      vertex 11.25 -4.6599 0
    endloop
  endfacet
  facet normal -1 -0 0
    outer loop
      vertex 11.25 -4.6599 18
      vertex 11.25 -11.25 0
      vertex 11.25 -11.25 18
    endloop
  endfacet
  facet normal 0 0 -1
    outer loop
      vertex 11.25 -11.25 18
      vertex 4.6599 -11.25 18
      vertex 11.25 -4.6599 18
    endloop
  endfacet
  facet normal 0 0 -1
    outer loop
      vertex 0 -2.5 18
      vertex 11.25 -4.6599 18
      vertex 4.6599 -11.25 18
    endloop
  endfacet
  facet normal 0 0 -1
    outer loop
      vertex -4.6599 -11.25 18
      vertex 4.6599 -11.25 18
      vertex 0 -15.9099 18
    endloop
  endfacet
  facet normal 0 0 -1
    outer loop
      vertex 11.25 -4.6599 18
      vertex 0 -2.5 18
      vertex 13.4099 -2.5 18
    endloop
  endfacet
  facet normal 0 0 -1
    outer loop
      vertex 4.6599 -11.25 18
      vertex -4.6599 -11.25 18
      vertex 0 -2.5 18
    endloop
  endfacet
  facet normal 0 0 -1
    outer loop
      vertex -11.25 -4.6599 18
      vertex 0 -2.5 18
      vertex -4.6599 -11.25 18
    endloop
  endfacet
  facet normal -0 0 -1
    outer loop
      vertex 0 -2.5 18
      vertex -11.25 -4.6599 18
      vertex 0 0 18
    endloop
  endfacet
  facet normal 0 0 -1
    outer loop
      vertex 0 0 18
      vertex -4.6599 11.25 18
      vertex 0 15.9099 18
    endloop
  endfacet
  facet normal 0 0 -1
    outer loop
      vertex -11.25 -4.6599 18
      vertex -4.6599 -11.25 18
      vertex -11.25 -11.25 18
    endloop
  endfacet
  facet normal 0 0 -1
    outer loop
      vertex -11.25 4.6599 18
      vertex 0 0 18
      vertex -11.25 -4.6599 18
    endloop
  endfacet
  facet normal 0 0 -1
    outer loop
      vertex 0 0 18
      vertex -11.25 4.6599 18
      vertex -4.6599 11.25 18
    endloop
  endfacet
  facet normal -0 0 -1
    outer loop
      vertex -4.6599 11.25 18
      vertex -11.25 4.6599 18
      vertex -11.25 11.25 18
    endloop
  endfacet
  facet normal 0 0 -1
    outer loop
      vertex -11.25 -4.6599 18
      vertex -15.9099 0 18
      vertex -11.25 4.6599 18
    endloop
  endfacet
  facet normal 0 0 -1
    outer loop
      vertex 11.25 4.6599 18
      vertex 4.6599 11.25 18
      vertex 11.25 11.25 18
    endloop
  endfacet
  facet normal 0 0 -1
    outer loop
      vertex 0 0 18
      vertex 11.25 4.6599 18
      vertex 15.9099 0 18
    endloop
  endfacet
  facet normal -0 0 -1
    outer loop
      vertex 11.25 4.6599 18
      vertex 0 0 18
      vertex 4.6599 11.25 18
    endloop
  endfacet
  facet normal -0 0 -1
    outer loop
      vertex 4.6599 11.25 18
      vertex 0 0 18
      vertex 0 15.9099 18
    endloop
  endfacet
  facet normal 1 -0 0
    outer loop
      vertex -11.25 4.6599 18
      vertex -11.25 11.25 0
      vertex -11.25 11.25 18
    endloop
  endfacet
  facet normal 1 0 0
    outer loop
      vertex -11.25 11.25 0
      vertex -11.25 4.6599 18
      vertex -11.25 4.6599 0
    endloop
  endfacet
  facet normal 1 -0 0
    outer loop
      vertex -11.25 -11.25 18
      vertex -11.25 -4.6599 0
      vertex -11.25 -4.6599 18
    endloop
  endfacet
  facet normal 1 0 0
    outer loop
      vertex -11.25 -4.6599 0
      vertex -11.25 -11.25 18
      vertex -11.25 -11.25 0
    endloop
  endfacet
  facet normal 0 -1 0
    outer loop
      vertex -11.25 11.25 0
      vertex -4.6599 11.25 18
      vertex -11.25 11.25 18
    endloop
  endfacet
  facet normal 0 -1 -0
    outer loop
      vertex -4.6599 11.25 18
      vertex -11.25 11.25 0
      vertex -4.6599 11.25 0
    endloop
  endfacet
  facet normal 0 -1 0
    outer loop
      vertex 4.6599 11.25 0
      vertex 11.25 11.25 18
      vertex 4.6599 11.25 18
    endloop
  endfacet
  facet normal 0 -1 -0
    outer loop
      vertex 11.25 11.25 18
      vertex 4.6599 11.25 0
      vertex 11.25 11.25 0
    endloop
  endfacet
  facet normal 0 1 -0
    outer loop
      vertex -4.6599 -11.25 0
      vertex -11.25 -11.25 18
      vertex -4.6599 -11.25 18
    endloop
  endfacet
  facet normal 0 1 0
    outer loop
      vertex -11.25 -11.25 18
      vertex -4.6599 -11.25 0
      vertex -11.25 -11.25 0
    endloop
  endfacet
  facet normal 0 1 -0
    outer loop
      vertex 11.25 -11.25 0
      vertex 4.6599 -11.25 18
      vertex 11.25 -11.25 18
    endloop
  endfacet
  facet normal 0 1 0
    outer loop
      vertex 4.6599 -11.25 18
      vertex 11.25 -11.25 0
      vertex 4.6599 -11.25 0
    endloop
  endfacet
  facet normal 0.707107 0.707107 0
    outer loop
      vertex -11.25 -4.6599 18
      vertex -15.9099 0 0
      vertex -15.9099 0 18
    endloop
  endfacet
  facet normal 0.707107 0.707107 0
    outer loop
      vertex -15.9099 0 0
      vertex -11.25 -4.6599 18
      vertex -11.25 -4.6599 0
    endloop
  endfacet
  facet normal 0.707107 0.707107 0
    outer loop
      vertex 0 -15.9099 18
      vertex -4.6599 -11.25 0
      vertex -4.6599 -11.25 18
    endloop
  endfacet
  facet normal 0.707107 0.707107 0
    outer loop
      vertex -4.6599 -11.25 0
      vertex 0 -15.9099 18
      vertex 0 -15.9099 0
    endloop
  endfacet
  facet normal 0.707107 -0.707107 0
    outer loop
      vertex -4.6599 11.25 18
      vertex 0 15.9099 0
      vertex 0 15.9099 18
    endloop
  endfacet
  facet normal 0.707107 -0.707107 0
    outer loop
      vertex 0 15.9099 0
      vertex -4.6599 11.25 18
      vertex -4.6599 11.25 0
    endloop
  endfacet
  facet normal 0.707107 -0.707107 0
    outer loop
      vertex -15.9099 0 18
      vertex -11.25 4.6599 0
      vertex -11.25 4.6599 18
    endloop
  endfacet
  facet normal 0.707107 -0.707107 0
    outer loop
      vertex -11.25 4.6599 0
      vertex -15.9099 0 18
      vertex -15.9099 0 0
    endloop
  endfacet
  facet normal -0.707107 0.707107 0
    outer loop
      vertex 11.25 -4.6599 0
      vertex 13.4099 -2.5 18
      vertex 13.4099 -2.5 0
    endloop
  endfacet
  facet normal -0.707107 0.707107 0
    outer loop
      vertex 13.4099 -2.5 18
      vertex 11.25 -4.6599 0
      vertex 11.25 -4.6599 18
    endloop
  endfacet
  facet normal -0.707107 0.707107 0
    outer loop
      vertex 0 -15.9099 0
      vertex 4.6599 -11.25 18
      vertex 4.6599 -11.25 0
    endloop
  endfacet
  facet normal -0.707107 0.707107 0
    outer loop
      vertex 4.6599 -11.25 18
      vertex 0 -15.9099 0
      vertex 0 -15.9099 18
    endloop
  endfacet
  facet normal -0.707107 -0.707107 0
    outer loop
      vertex 4.6599 11.25 0
      vertex 0 15.9099 18
      vertex 0 15.9099 0
    endloop
  endfacet
  facet normal -0.707107 -0.707107 0
    outer loop
      vertex 0 15.9099 18
      vertex 4.6599 11.25 0
      vertex 4.6599 11.25 18
    endloop
  endfacet
  facet normal -0.707107 -0.707107 0
    outer loop
      vertex 15.9099 0 0
      vertex 11.25 4.6599 18
      vertex 11.25 4.6599 0
    endloop
  endfacet
  facet normal -0.707107 -0.707107 0
    outer loop
      vertex 11.25 4.6599 18
      vertex 15.9099 0 0
      vertex 15.9099 0 18
    endloop
  endfacet
  facet normal 0.951058 0.309013 0
    outer loop
      vertex 18.7071 3.97631 22.5
      vertex 17.4716 7.77884 0
      vertex 17.4716 7.77884 22.5
    endloop
  endfacet
  facet normal 0.951058 0.309013 0
    outer loop
      vertex 17.4716 7.77884 0
      vertex 18.7071 3.97631 22.5
      vertex 18.7071 3.97631 0
    endloop
  endfacet
  facet normal 0.994527 0.104484 0
    outer loop
      vertex 18.8622 2.5 22.5
      vertex 18.7071 3.97631 0
      vertex 18.7071 3.97631 22.5
    endloop
  endfacet
  facet normal 0.994527 0.104484 0
    outer loop
      vertex 18.7071 3.97631 0
      vertex 18.8622 2.5 22.5
      vertex 18.8622 2.5 0
    endloop
  endfacet
  facet normal 0.866016 0.500017 0
    outer loop
      vertex 17.4716 7.77884 22.5
      vertex 15.4724 11.2414 0
      vertex 15.4724 11.2414 22.5
    endloop
  endfacet
  facet normal 0.866016 0.500017 0
    outer loop
      vertex 15.4724 11.2414 0
      vertex 17.4716 7.77884 22.5
      vertex 17.4716 7.77884 0
    endloop
  endfacet
  facet normal -0.406753 0.913538 0
    outer loop
      vertex -5.90995 18.189 0
      vertex -9.5625 16.5627 22.5
      vertex -5.90995 18.189 22.5
    endloop
  endfacet
  facet normal -0.406753 0.913538 0
    outer loop
      vertex -9.5625 16.5627 22.5
      vertex -5.90995 18.189 0
      vertex -9.5625 16.5627 0
    endloop
  endfacet
  facet normal 0.406753 0.913538 -0
    outer loop
      vertex 9.5625 16.5627 0
      vertex 5.90995 18.189 22.5
      vertex 9.5625 16.5627 22.5
    endloop
  endfacet
  facet normal 0.406753 0.913538 0
    outer loop
      vertex 5.90995 18.189 22.5
      vertex 9.5625 16.5627 0
      vertex 5.90995 18.189 0
    endloop
  endfacet
  facet normal 0.994527 -0.104484 0
    outer loop
      vertex 18.7071 -3.97631 22.5
      vertex 18.8622 -2.5 0
      vertex 18.8622 -2.5 22.5
    endloop
  endfacet
  facet normal 0.994527 -0.104484 0
    outer loop
      vertex 18.8622 -2.5 0
      vertex 18.7071 -3.97631 22.5
      vertex 18.7071 -3.97631 0
    endloop
  endfacet
  facet normal -0.743142 0.669133 0
    outer loop
      vertex -15.4724 11.2414 0
      vertex -12.7971 14.2126 22.5
      vertex -12.7971 14.2126 0
    endloop
  endfacet
  facet normal -0.743142 0.669133 0
    outer loop
      vertex -12.7971 14.2126 22.5
      vertex -15.4724 11.2414 0
      vertex -15.4724 11.2414 22.5
    endloop
  endfacet
  facet normal -0.587789 0.809014 0
    outer loop
      vertex -9.5625 16.5627 0
      vertex -12.7971 14.2126 22.5
      vertex -9.5625 16.5627 22.5
    endloop
  endfacet
  facet normal -0.587789 0.809014 0
    outer loop
      vertex -12.7971 14.2126 22.5
      vertex -9.5625 16.5627 0
      vertex -12.7971 14.2126 0
    endloop
  endfacet
  facet normal 0.743142 0.669133 0
    outer loop
      vertex 15.4724 11.2414 22.5
      vertex 12.7971 14.2126 0
      vertex 12.7971 14.2126 22.5
    endloop
  endfacet
  facet normal 0.743142 0.669133 0
    outer loop
      vertex 12.7971 14.2126 0
      vertex 15.4724 11.2414 22.5
      vertex 15.4724 11.2414 0
    endloop
  endfacet
  facet normal 0.951058 -0.309013 0
    outer loop
      vertex 17.4716 -7.77884 22.5
      vertex 18.7071 -3.97631 0
      vertex 18.7071 -3.97631 22.5
    endloop
  endfacet
  facet normal 0.951058 -0.309013 0
    outer loop
      vertex 18.7071 -3.97631 0
      vertex 17.4716 -7.77884 22.5
      vertex 17.4716 -7.77884 0
    endloop
  endfacet
  facet normal -0.406753 -0.913538 0
    outer loop
      vertex -9.5625 -16.5627 0
      vertex -5.90995 -18.189 22.5
      vertex -9.5625 -16.5627 22.5
    endloop
  endfacet
  facet normal -0.406753 -0.913538 -0
    outer loop
      vertex -5.90995 -18.189 22.5
      vertex -9.5625 -16.5627 0
      vertex -5.90995 -18.189 0
    endloop
  endfacet
  facet normal -0.866016 -0.500017 0
    outer loop
      vertex -15.4724 -11.2414 0
      vertex -17.4716 -7.77884 22.5
      vertex -17.4716 -7.77884 0
    endloop
  endfacet
  facet normal -0.866016 -0.500017 0
    outer loop
      vertex -17.4716 -7.77884 22.5
      vertex -15.4724 -11.2414 0
      vertex -15.4724 -11.2414 22.5
    endloop
  endfacet
  facet normal -0.951058 0.309013 0
    outer loop
      vertex -18.7071 3.97631 0
      vertex -17.4716 7.77884 22.5
      vertex -17.4716 7.77884 0
    endloop
  endfacet
  facet normal -0.951058 0.309013 0
    outer loop
      vertex -17.4716 7.77884 22.5
      vertex -18.7071 3.97631 0
      vertex -18.7071 3.97631 22.5
    endloop
  endfacet
  facet normal -0.207894 -0.978151 0
    outer loop
      vertex -5.90995 -18.189 0
      vertex -1.99911 -19.0202 22.5
      vertex -5.90995 -18.189 22.5
    endloop
  endfacet
  facet normal -0.207894 -0.978151 -0
    outer loop
      vertex -1.99911 -19.0202 22.5
      vertex -5.90995 -18.189 0
      vertex -1.99911 -19.0202 0
    endloop
  endfacet
  facet normal -0.951058 -0.309013 0
    outer loop
      vertex -17.4716 -7.77884 0
      vertex -18.7071 -3.97631 22.5
      vertex -18.7071 -3.97631 0
    endloop
  endfacet
  facet normal -0.951058 -0.309013 0
    outer loop
      vertex -18.7071 -3.97631 22.5
      vertex -17.4716 -7.77884 0
      vertex -17.4716 -7.77884 22.5
    endloop
  endfacet
  facet normal -0.994523 0.104522 0
    outer loop
      vertex -19.125 0 0
      vertex -18.7071 3.97631 22.5
      vertex -18.7071 3.97631 0
    endloop
  endfacet
  facet normal -0.994523 0.104522 0
    outer loop
      vertex -18.7071 3.97631 22.5
      vertex -19.125 0 0
      vertex -19.125 0 22.5
    endloop
  endfacet
  facet normal 0 1 -0
    outer loop
      vertex 1.99911 19.0202 0
      vertex -1.99911 19.0202 22.5
      vertex 1.99911 19.0202 22.5
    endloop
  endfacet
  facet normal 0 1 0
    outer loop
      vertex -1.99911 19.0202 22.5
      vertex 1.99911 19.0202 0
      vertex -1.99911 19.0202 0
    endloop
  endfacet
  facet normal 0.743142 -0.669133 0
    outer loop
      vertex 12.7971 -14.2126 22.5
      vertex 15.4724 -11.2414 0
      vertex 15.4724 -11.2414 22.5
    endloop
  endfacet
  facet normal 0.743142 -0.669133 0
    outer loop
      vertex 15.4724 -11.2414 0
      vertex 12.7971 -14.2126 22.5
      vertex 12.7971 -14.2126 0
    endloop
  endfacet
  facet normal 0.207894 -0.978151 0
    outer loop
      vertex 1.99911 -19.0202 0
      vertex 5.90995 -18.189 22.5
      vertex 1.99911 -19.0202 22.5
    endloop
  endfacet
  facet normal 0.207894 -0.978151 0
    outer loop
      vertex 5.90995 -18.189 22.5
      vertex 1.99911 -19.0202 0
      vertex 5.90995 -18.189 0
    endloop
  endfacet
  facet normal 0.866016 -0.500017 0
    outer loop
      vertex 15.4724 -11.2414 22.5
      vertex 17.4716 -7.77884 0
      vertex 17.4716 -7.77884 22.5
    endloop
  endfacet
  facet normal 0.866016 -0.500017 0
    outer loop
      vertex 17.4716 -7.77884 0
      vertex 15.4724 -11.2414 22.5
      vertex 15.4724 -11.2414 0
    endloop
  endfacet
  facet normal 0.207894 0.978151 -0
    outer loop
      vertex 5.90995 18.189 0
      vertex 1.99911 19.0202 22.5
      vertex 5.90995 18.189 22.5
    endloop
  endfacet
  facet normal 0.207894 0.978151 0
    outer loop
      vertex 1.99911 19.0202 22.5
      vertex 5.90995 18.189 0
      vertex 1.99911 19.0202 0
    endloop
  endfacet
  facet normal 0.587789 -0.809014 0
    outer loop
      vertex 9.5625 -16.5627 0
      vertex 12.7971 -14.2126 22.5
      vertex 9.5625 -16.5627 22.5
    endloop
  endfacet
  facet normal 0.587789 -0.809014 0
    outer loop
      vertex 12.7971 -14.2126 22.5
      vertex 9.5625 -16.5627 0
      vertex 12.7971 -14.2126 0
    endloop
  endfacet
  facet normal 0.587789 0.809014 -0
    outer loop
      vertex 12.7971 14.2126 0
      vertex 9.5625 16.5627 22.5
      vertex 12.7971 14.2126 22.5
    endloop
  endfacet
  facet normal 0.587789 0.809014 0
    outer loop
      vertex 9.5625 16.5627 22.5
      vertex 12.7971 14.2126 0
      vertex 9.5625 16.5627 0
    endloop
  endfacet
  facet normal -0.207894 0.978151 0
    outer loop
      vertex -1.99911 19.0202 0
      vertex -5.90995 18.189 22.5
      vertex -1.99911 19.0202 22.5
    endloop
  endfacet
  facet normal -0.207894 0.978151 0
    outer loop
      vertex -5.90995 18.189 22.5
      vertex -1.99911 19.0202 0
      vertex -5.90995 18.189 0
    endloop
  endfacet
  facet normal 0 -1 0
    outer loop
      vertex -1.99911 -19.0202 0
      vertex 1.99911 -19.0202 22.5
      vertex -1.99911 -19.0202 22.5
    endloop
  endfacet
  facet normal 0 -1 -0
    outer loop
      vertex 1.99911 -19.0202 22.5
      vertex -1.99911 -19.0202 0
      vertex 1.99911 -19.0202 0
    endloop
  endfacet
  facet normal -0.994523 -0.104522 0
    outer loop
      vertex -18.7071 -3.97631 0
      vertex -19.125 0 22.5
      vertex -19.125 0 0
    endloop
  endfacet
  facet normal -0.994523 -0.104522 0
    outer loop
      vertex -19.125 0 22.5
      vertex -18.7071 -3.97631 0
      vertex -18.7071 -3.97631 22.5
    endloop
  endfacet
  facet normal 0 0 -1
    outer loop
      vertex 9.5625 -16.5627 0
      vertex 11.25 -11.25 0
      vertex 12.7971 -14.2126 0
    endloop
  endfacet
  facet normal 0 0 -1
    outer loop
      vertex 4.6599 -11.25 0
      vertex 9.5625 -16.5627 0
      vertex 5.90995 -18.189 0
    endloop
  endfacet
  facet normal 0 0 -1
    outer loop
      vertex 9.5625 -16.5627 0
      vertex 4.6599 -11.25 0
      vertex 11.25 -11.25 0
    endloop
  endfacet
  facet normal 0 0 -1
    outer loop
      vertex 0 -15.9099 0
      vertex 5.90995 -18.189 0
      vertex 1.99911 -19.0202 0
    endloop
  endfacet
  facet normal 0 0 -1
    outer loop
      vertex 5.90995 -18.189 0
      vertex 0 -15.9099 0
      vertex 4.6599 -11.25 0
    endloop
  endfacet
  facet normal 0 0 -1
    outer loop
      vertex -1.99911 -19.0202 0
      vertex 0 -15.9099 0
      vertex 1.99911 -19.0202 0
    endloop
  endfacet
  facet normal 0 0 -1
    outer loop
      vertex -5.90995 -18.189 0
      vertex 0 -15.9099 0
      vertex -1.99911 -19.0202 0
    endloop
  endfacet
  facet normal -0 0 -1
    outer loop
      vertex 0 -15.9099 0
      vertex -5.90995 -18.189 0
      vertex -4.6599 -11.25 0
    endloop
  endfacet
  facet normal 0 0 -1
    outer loop
      vertex -9.5625 -16.5627 0
      vertex -4.6599 -11.25 0
      vertex -5.90995 -18.189 0
    endloop
  endfacet
  facet normal 0 0 -1
    outer loop
      vertex -9.5625 -16.5627 0
      vertex -11.25 -11.25 0
      vertex -4.6599 -11.25 0
    endloop
  endfacet
  facet normal 0 0 -1
    outer loop
      vertex -12.7971 -14.2126 0
      vertex -11.25 -11.25 0
      vertex -9.5625 -16.5627 0
    endloop
  endfacet
  facet normal 0 0 -1
    outer loop
      vertex -15.4724 -11.2414 0
      vertex -11.25 -11.25 0
      vertex -12.7971 -14.2126 0
    endloop
  endfacet
  facet normal 0 0 -1
    outer loop
      vertex -11.25 -11.25 0
      vertex -15.4724 -11.2414 0
      vertex -11.25 -4.6599 0
    endloop
  endfacet
  facet normal 0 0 -1
    outer loop
      vertex -17.4716 -7.77884 0
      vertex -11.25 -4.6599 0
      vertex -15.4724 -11.2414 0
    endloop
  endfacet
  facet normal 0 0 -1
    outer loop
      vertex -18.7071 -3.97631 0
      vertex -11.25 -4.6599 0
      vertex -17.4716 -7.77884 0
    endloop
  endfacet
  facet normal 0 0 -1
    outer loop
      vertex 13.4099 -2.5 0
      vertex 18.7071 -3.97631 0
      vertex 17.4716 -7.77884 0
    endloop
  endfacet
  facet normal 0 0 -1
    outer loop
      vertex 11.25 -4.6599 0
      vertex 17.4716 -7.77884 0
      vertex 15.4724 -11.2414 0
    endloop
  endfacet
  facet normal 0 0 -1
    outer loop
      vertex 18.7071 -3.97631 0
      vertex 13.4099 -2.5 0
      vertex 18.8622 -2.5 0
    endloop
  endfacet
  facet normal 0 0 -1
    outer loop
      vertex 11.25 -11.25 0
      vertex 15.4724 -11.2414 0
      vertex 12.7971 -14.2126 0
    endloop
  endfacet
  facet normal 0 0 -1
    outer loop
      vertex 11.25 -4.6599 0
      vertex 15.4724 -11.2414 0
      vertex 11.25 -11.25 0
    endloop
  endfacet
  facet normal 0 0 -1
    outer loop
      vertex 17.4716 -7.77884 0
      vertex 11.25 -4.6599 0
      vertex 13.4099 -2.5 0
    endloop
  endfacet
  facet normal 0 0 -1
    outer loop
      vertex -15.4724 11.2414 0
      vertex -11.25 11.25 0
      vertex -11.25 4.6599 0
    endloop
  endfacet
  facet normal -0 0 -1
    outer loop
      vertex -11.25 11.25 0
      vertex -15.4724 11.2414 0
      vertex -12.7971 14.2126 0
    endloop
  endfacet
  facet normal 0 0 -1
    outer loop
      vertex -18.7071 3.97631 0
      vertex -11.25 4.6599 0
      vertex -15.9099 0 0
    endloop
  endfacet
  facet normal 0 0 -1
    outer loop
      vertex -11.25 -4.6599 0
      vertex -18.7071 -3.97631 0
      vertex -15.9099 0 0
    endloop
  endfacet
  facet normal 0 0 -1
    outer loop
      vertex -11.25 4.6599 0
      vertex -17.4716 7.77884 0
      vertex -15.4724 11.2414 0
    endloop
  endfacet
  facet normal 0 0 -1
    outer loop
      vertex -19.125 0 0
      vertex -15.9099 0 0
      vertex -18.7071 -3.97631 0
    endloop
  endfacet
  facet normal -0 0 -1
    outer loop
      vertex -11.25 4.6599 0
      vertex -18.7071 3.97631 0
      vertex -17.4716 7.77884 0
    endloop
  endfacet
  facet normal 0 0 -1
    outer loop
      vertex -15.9099 0 0
      vertex -19.125 0 0
      vertex -18.7071 3.97631 0
    endloop
  endfacet
  facet normal 0 0 -1
    outer loop
      vertex 47.2125 0 0
      vertex 18.8622 2.5 0
      vertex 47.2125 2.5 0
    endloop
  endfacet
  facet normal 0 0 -1
    outer loop
      vertex 15.9099 0 0
      vertex 18.7071 3.97631 0
      vertex 18.8622 2.5 0
    endloop
  endfacet
  facet normal 0 0 -1
    outer loop
      vertex 17.2125 0 0
      vertex 18.8622 2.5 0
      vertex 47.2125 0 0
    endloop
  endfacet
  facet normal 0 0 -1
    outer loop
      vertex 15.9099 0 0
      vertex 18.8622 2.5 0
      vertex 17.2125 0 0
    endloop
  endfacet
  facet normal -0 0 -1
    outer loop
      vertex 18.7071 3.97631 0
      vertex 15.9099 0 0
      vertex 11.25 4.6599 0
    endloop
  endfacet
  facet normal 0 0 -1
    outer loop
      vertex 18.7071 3.97631 0
      vertex 11.25 4.6599 0
      vertex 17.4716 7.77884 0
    endloop
  endfacet
  facet normal -0 0 -1
    outer loop
      vertex 17.4716 7.77884 0
      vertex 11.25 4.6599 0
      vertex 15.4724 11.2414 0
    endloop
  endfacet
  facet normal -0 0 -1
    outer loop
      vertex 15.4724 11.2414 0
      vertex 11.25 4.6599 0
      vertex 11.25 11.25 0
    endloop
  endfacet
  facet normal 0 0 -1
    outer loop
      vertex 15.4724 11.2414 0
      vertex 11.25 11.25 0
      vertex 12.7971 14.2126 0
    endloop
  endfacet
  facet normal 0 0 -1
    outer loop
      vertex 11.25 11.25 0
      vertex 9.5625 16.5627 0
      vertex 12.7971 14.2126 0
    endloop
  endfacet
  facet normal 0 0 -1
    outer loop
      vertex 4.6599 11.25 0
      vertex 9.5625 16.5627 0
      vertex 11.25 11.25 0
    endloop
  endfacet
  facet normal -0 0 -1
    outer loop
      vertex 9.5625 16.5627 0
      vertex 4.6599 11.25 0
      vertex 5.90995 18.189 0
    endloop
  endfacet
  facet normal 0 0 -1
    outer loop
      vertex 0 15.9099 0
      vertex 5.90995 18.189 0
      vertex 4.6599 11.25 0
    endloop
  endfacet
  facet normal -0 0 -1
    outer loop
      vertex 5.90995 18.189 0
      vertex 0 15.9099 0
      vertex 1.99911 19.0202 0
    endloop
  endfacet
  facet normal 0 0 -1
    outer loop
      vertex 0 15.9099 0
      vertex -1.99911 19.0202 0
      vertex 1.99911 19.0202 0
    endloop
  endfacet
  facet normal 0 0 -1
    outer loop
      vertex -5.90995 18.189 0
      vertex 0 15.9099 0
      vertex -4.6599 11.25 0
    endloop
  endfacet
  facet normal 0 0 -1
    outer loop
      vertex 0 15.9099 0
      vertex -5.90995 18.189 0
      vertex -1.99911 19.0202 0
    endloop
  endfacet
  facet normal 0 0 -1
    outer loop
      vertex -4.6599 11.25 0
      vertex -9.5625 16.5627 0
      vertex -5.90995 18.189 0
    endloop
  endfacet
  facet normal 0 0 -1
    outer loop
      vertex -11.25 11.25 0
      vertex -9.5625 16.5627 0
      vertex -4.6599 11.25 0
    endloop
  endfacet
  facet normal 0 0 -1
    outer loop
      vertex -9.5625 16.5627 0
      vertex -11.25 11.25 0
      vertex -12.7971 14.2126 0
    endloop
  endfacet
  facet normal 0 0 1
    outer loop
      vertex 17.2125 2.5 22.5
      vertex 18.7071 3.97631 22.5
      vertex 17.4716 7.77884 22.5
    endloop
  endfacet
  facet normal 0 0 1
    outer loop
      vertex 18.7071 3.97631 22.5
      vertex 17.2125 2.5 22.5
      vertex 18.8622 2.5 22.5
    endloop
  endfacet
  facet normal 0 0 1
    outer loop
      vertex 15.4724 11.2414 22.5
      vertex 17.2125 2.5 22.5
      vertex 17.4716 7.77884 22.5
    endloop
  endfacet
  facet normal 0 0 1
    outer loop
      vertex 0 0 22.5
      vertex 17.2125 2.5 22.5
      vertex 15.4724 11.2414 22.5
    endloop
  endfacet
  facet normal 0 0 1
    outer loop
      vertex 0 0 22.5
      vertex 15.4724 11.2414 22.5
      vertex 12.7971 14.2126 22.5
    endloop
  endfacet
  facet normal 0 0 1
    outer loop
      vertex 0 0 22.5
      vertex 12.7971 14.2126 22.5
      vertex 9.5625 16.5627 22.5
    endloop
  endfacet
  facet normal 0 0 1
    outer loop
      vertex 0 0 22.5
      vertex 9.5625 16.5627 22.5
      vertex 5.90995 18.189 22.5
    endloop
  endfacet
  facet normal 0 0 1
    outer loop
      vertex 0 0 22.5
      vertex 5.90995 18.189 22.5
      vertex 1.99911 19.0202 22.5
    endloop
  endfacet
  facet normal 0 0 1
    outer loop
      vertex 17.2125 2.5 22.5
      vertex 0 0 22.5
      vertex 17.2125 0 22.5
    endloop
  endfacet
  facet normal -0 0 1
    outer loop
      vertex -5.90995 18.189 22.5
      vertex 0 0 22.5
      vertex -1.99911 19.0202 22.5
    endloop
  endfacet
  facet normal -0 0 1
    outer loop
      vertex -1.99911 19.0202 22.5
      vertex 0 0 22.5
      vertex 1.99911 19.0202 22.5
    endloop
  endfacet
  facet normal -0 0 1
    outer loop
      vertex 0 -2.5 22.5
      vertex 18.7071 -3.97631 22.5
      vertex 18.8622 -2.5 22.5
    endloop
  endfacet
  facet normal 0 0 1
    outer loop
      vertex 18.7071 -3.97631 22.5
      vertex 0 -2.5 22.5
      vertex 17.4716 -7.77884 22.5
    endloop
  endfacet
  facet normal 0 0 1
    outer loop
      vertex 17.4716 -7.77884 22.5
      vertex 0 -2.5 22.5
      vertex 15.4724 -11.2414 22.5
    endloop
  endfacet
  facet normal 0 0 1
    outer loop
      vertex 15.4724 -11.2414 22.5
      vertex 0 -2.5 22.5
      vertex 12.7971 -14.2126 22.5
    endloop
  endfacet
  facet normal 0 0 1
    outer loop
      vertex 12.7971 -14.2126 22.5
      vertex 0 -2.5 22.5
      vertex 9.5625 -16.5627 22.5
    endloop
  endfacet
  facet normal 0 0 1
    outer loop
      vertex 9.5625 -16.5627 22.5
      vertex 0 -2.5 22.5
      vertex 5.90995 -18.189 22.5
    endloop
  endfacet
  facet normal 0 0 1
    outer loop
      vertex 5.90995 -18.189 22.5
      vertex 0 -2.5 22.5
      vertex 1.99911 -19.0202 22.5
    endloop
  endfacet
  facet normal 0 0 1
    outer loop
      vertex 0 -2.5 22.5
      vertex -1.99911 -19.0202 22.5
      vertex 1.99911 -19.0202 22.5
    endloop
  endfacet
  facet normal -0 0 1
    outer loop
      vertex -9.5625 16.5627 22.5
      vertex 0 0 22.5
      vertex -5.90995 18.189 22.5
    endloop
  endfacet
  facet normal -0 0 1
    outer loop
      vertex -12.7971 14.2126 22.5
      vertex 0 0 22.5
      vertex -9.5625 16.5627 22.5
    endloop
  endfacet
  facet normal 0 0 1
    outer loop
      vertex 0 -2.5 22.5
      vertex -5.90995 -18.189 22.5
      vertex -1.99911 -19.0202 22.5
    endloop
  endfacet
  facet normal -0 0 1
    outer loop
      vertex -15.4724 11.2414 22.5
      vertex 0 0 22.5
      vertex -12.7971 14.2126 22.5
    endloop
  endfacet
  facet normal 0 0 1
    outer loop
      vertex 0 -2.5 22.5
      vertex -9.5625 -16.5627 22.5
      vertex -5.90995 -18.189 22.5
    endloop
  endfacet
  facet normal -0 0 1
    outer loop
      vertex -17.4716 7.77884 22.5
      vertex 0 0 22.5
      vertex -15.4724 11.2414 22.5
    endloop
  endfacet
  facet normal 0 0 1
    outer loop
      vertex 0 -2.5 22.5
      vertex -12.7971 -14.2126 22.5
      vertex -9.5625 -16.5627 22.5
    endloop
  endfacet
  facet normal -0 0 1
    outer loop
      vertex -18.7071 3.97631 22.5
      vertex 0 0 22.5
      vertex -17.4716 7.77884 22.5
    endloop
  endfacet
  facet normal 0 0 1
    outer loop
      vertex 0 -2.5 22.5
      vertex -15.4724 -11.2414 22.5
      vertex -12.7971 -14.2126 22.5
    endloop
  endfacet
  facet normal 0 0 1
    outer loop
      vertex -19.125 0 22.5
      vertex 0 0 22.5
      vertex -18.7071 3.97631 22.5
    endloop
  endfacet
  facet normal 0 0 1
    outer loop
      vertex 0 -2.5 22.5
      vertex -17.4716 -7.77884 22.5
      vertex -15.4724 -11.2414 22.5
    endloop
  endfacet
  facet normal 0 -0 1
    outer loop
      vertex -18.7071 -3.97631 22.5
      vertex 0 0 22.5
      vertex -19.125 0 22.5
    endloop
  endfacet
  facet normal 0 0 1
    outer loop
      vertex 0 -2.5 22.5
      vertex -18.7071 -3.97631 22.5
      vertex -17.4716 -7.77884 22.5
    endloop
  endfacet
  facet normal 0 0 1
    outer loop
      vertex 0 0 22.5
      vertex -18.7071 -3.97631 22.5
      vertex 0 -2.5 22.5
    endloop
  endfacet
  facet normal 0.406753 -0.913538 0
    outer loop
      vertex 5.90995 -18.189 0
      vertex 9.5625 -16.5627 22.5
      vertex 5.90995 -18.189 22.5
    endloop
  endfacet
  facet normal 0.406753 -0.913538 0
    outer loop
      vertex 9.5625 -16.5627 22.5
      vertex 5.90995 -18.189 0
      vertex 9.5625 -16.5627 0
    endloop
  endfacet
  facet normal -0.743142 -0.669133 0
    outer loop
      vertex -12.7971 -14.2126 0
      vertex -15.4724 -11.2414 22.5
      vertex -15.4724 -11.2414 0
    endloop
  endfacet
  facet normal -0.743142 -0.669133 0
    outer loop
      vertex -15.4724 -11.2414 22.5
      vertex -12.7971 -14.2126 0
      vertex -12.7971 -14.2126 22.5
    endloop
  endfacet
  facet normal -0.587789 -0.809014 0
    outer loop
      vertex -12.7971 -14.2126 0
      vertex -9.5625 -16.5627 22.5
      vertex -12.7971 -14.2126 22.5
    endloop
  endfacet
  facet normal -0.587789 -0.809014 -0
    outer loop
      vertex -9.5625 -16.5627 22.5
      vertex -12.7971 -14.2126 0
      vertex -9.5625 -16.5627 0
    endloop
  endfacet
  facet normal -0.866016 0.500017 0
    outer loop
      vertex -17.4716 7.77884 0
      vertex -15.4724 11.2414 22.5
      vertex -15.4724 11.2414 0
    endloop
  endfacet
  facet normal -0.866016 0.500017 0
    outer loop
      vertex -15.4724 11.2414 22.5
      vertex -17.4716 7.77884 0
      vertex -17.4716 7.77884 22.5
    endloop
  endfacet
  facet normal 1 -0 0
    outer loop
      vertex 0 -2.5 22.5
      vertex 0 0 18
      vertex 0 0 22.5
    endloop
  endfacet
  facet normal 1 0 0
    outer loop
      vertex 0 0 18
      vertex 0 -2.5 22.5
      vertex 0 -2.5 18
    endloop
  endfacet
  facet normal 0 -1 0
    outer loop
      vertex 15.9099 0 18
      vertex 0 0 22.5
      vertex 0 0 18
    endloop
  endfacet
  facet normal 0 -1 0
    outer loop
      vertex 0 0 22.5
      vertex 15.9099 0 18
      vertex 17.2125 0 22.5
    endloop
  endfacet
  facet normal 0 -1 0
    outer loop
      vertex 17.2125 0 0
      vertex 15.9099 0 18
      vertex 15.9099 0 0
    endloop
  endfacet
  facet normal 0 -1 0
    outer loop
      vertex 15.9099 0 18
      vertex 17.2125 0 0
      vertex 17.2125 0 22.5
    endloop
  endfacet
  facet normal 0 -1 0
    outer loop
      vertex 33.1636 0 2.30902
      vertex 45.2125 0 3
      vertex 32.2125 0 3
    endloop
  endfacet
  facet normal 0 -1 0
    outer loop
      vertex 33.1636 0 2.30902
      vertex 44.2614 0 2.30902
      vertex 45.2125 0 3
    endloop
  endfacet
  facet normal 0 -1 0
    outer loop
      vertex 32.8003 0 1.19098
      vertex 44.2614 0 2.30902
      vertex 33.1636 0 2.30902
    endloop
  endfacet
  facet normal 0 -1 -0
    outer loop
      vertex 44.2614 0 2.30902
      vertex 32.8003 0 1.19098
      vertex 44.6247 0 1.19098
    endloop
  endfacet
  facet normal 0 -1 0
    outer loop
      vertex 33.1636 0 23.309
      vertex 45.2125 0 24
      vertex 32.2125 0 24
    endloop
  endfacet
  facet normal 0 -1 0
    outer loop
      vertex 33.1636 0 23.309
      vertex 44.2614 0 23.309
      vertex 45.2125 0 24
    endloop
  endfacet
  facet normal 0 -1 0
    outer loop
      vertex 32.8003 0 22.191
      vertex 44.2614 0 23.309
      vertex 33.1636 0 23.309
    endloop
  endfacet
  facet normal 0 -1 -0
    outer loop
      vertex 44.2614 0 23.309
      vertex 32.8003 0 22.191
      vertex 44.6247 0 22.191
    endloop
  endfacet
  facet normal 0 -1 0
    outer loop
      vertex 17.2125 0 25
      vertex 32.2125 0 24
      vertex 47.2125 0 25
    endloop
  endfacet
  facet normal 0 -1 0
    outer loop
      vertex 17.2125 0 25
      vertex 31.2614 0 23.309
      vertex 32.2125 0 24
    endloop
  endfacet
  facet normal 0 -1 0
    outer loop
      vertex 17.2125 0 22.5
      vertex 31.2614 0 23.309
      vertex 17.2125 0 25
    endloop
  endfacet
  facet normal 0 -1 0
    outer loop
      vertex 17.2125 0 22.5
      vertex 31.6247 0 22.191
      vertex 31.2614 0 23.309
    endloop
  endfacet
  facet normal 0 -1 0
    outer loop
      vertex 32.2125 0 3
      vertex 32.8003 0 22.191
      vertex 31.6247 0 22.191
    endloop
  endfacet
  facet normal 0 -1 -0
    outer loop
      vertex 32.8003 0 22.191
      vertex 32.2125 0 3
      vertex 44.6247 0 22.191
    endloop
  endfacet
  facet normal 0 -1 0
    outer loop
      vertex 45.2125 0 3
      vertex 44.6247 0 22.191
      vertex 32.2125 0 3
    endloop
  endfacet
  facet normal 0 -1 0
    outer loop
      vertex 31.2614 0 2.30902
      vertex 31.6247 0 22.191
      vertex 17.2125 0 22.5
    endloop
  endfacet
  facet normal 0 -1 -0
    outer loop
      vertex 31.6247 0 22.191
      vertex 31.2614 0 2.30902
      vertex 32.2125 0 3
    endloop
  endfacet
  facet normal 0 -1 0
    outer loop
      vertex 17.2125 0 0
      vertex 31.2614 0 2.30902
      vertex 17.2125 0 22.5
    endloop
  endfacet
  facet normal 0 -1 0
    outer loop
      vertex 47.2125 0 0
      vertex 32.8003 0 1.19098
      vertex 31.6247 0 1.19098
    endloop
  endfacet
  facet normal 0 -1 0
    outer loop
      vertex 32.8003 0 1.19098
      vertex 47.2125 0 0
      vertex 44.6247 0 1.19098
    endloop
  endfacet
  facet normal 0 -1 0
    outer loop
      vertex 47.2125 0 0
      vertex 31.6247 0 1.19098
      vertex 17.2125 0 0
    endloop
  endfacet
  facet normal 0 -1 -0
    outer loop
      vertex 31.2614 0 2.30902
      vertex 17.2125 0 0
      vertex 31.6247 0 1.19098
    endloop
  endfacet
  facet normal 0 -1 0
    outer loop
      vertex 45.2125 0 24
      vertex 47.2125 0 25
      vertex 32.2125 0 24
    endloop
  endfacet
  facet normal 0 -1 0
    outer loop
      vertex 46.1636 0 23.309
      vertex 47.2125 0 25
      vertex 45.2125 0 24
    endloop
  endfacet
  facet normal 0 -1 0
    outer loop
      vertex 45.8003 0 22.191
      vertex 47.2125 0 25
      vertex 46.1636 0 23.309
    endloop
  endfacet
  facet normal 0 -1 0
    outer loop
      vertex 44.6247 0 22.191
      vertex 45.2125 0 3
      vertex 45.8003 0 22.191
    endloop
  endfacet
  facet normal 0 -1 0
    outer loop
      vertex 46.1636 0 2.30902
      vertex 45.8003 0 22.191
      vertex 45.2125 0 3
    endloop
  endfacet
  facet normal 0 -1 0
    outer loop
      vertex 45.8003 0 22.191
      vertex 46.1636 0 2.30902
      vertex 47.2125 0 25
    endloop
  endfacet
  facet normal 0 -1 0
    outer loop
      vertex 46.1636 0 2.30902
      vertex 47.2125 0 0
      vertex 47.2125 0 25
    endloop
  endfacet
  facet normal 0 -1 0
    outer loop
      vertex 45.8003 0 1.19098
      vertex 47.2125 0 0
      vertex 46.1636 0 2.30902
    endloop
  endfacet
  facet normal 0 -1 0
    outer loop
      vertex 44.6247 0 1.19098
      vertex 47.2125 0 0
      vertex 45.8003 0 1.19098
    endloop
  endfacet
  facet normal 0 1 0
    outer loop
      vertex 18.8622 -2.5 22.5
      vertex 13.4099 -2.5 18
      vertex 0 -2.5 22.5
    endloop
  endfacet
  facet normal 0 1 -0
    outer loop
      vertex 18.8622 -2.5 0
      vertex 13.4099 -2.5 18
      vertex 18.8622 -2.5 22.5
    endloop
  endfacet
  facet normal 0 1 0
    outer loop
      vertex 13.4099 -2.5 18
      vertex 18.8622 -2.5 0
      vertex 13.4099 -2.5 0
    endloop
  endfacet
  facet normal 0 1 0
    outer loop
      vertex 0 -2.5 22.5
      vertex 13.4099 -2.5 18
      vertex 0 -2.5 18
    endloop
  endfacet
  facet normal -0 0 1
    outer loop
      vertex 17.2125 2.5 25
      vertex 47.2125 0 25
      vertex 47.2125 2.5 25
    endloop
  endfacet
  facet normal 0 0 1
    outer loop
      vertex 47.2125 0 25
      vertex 17.2125 2.5 25
      vertex 17.2125 0 25
    endloop
  endfacet
  facet normal -1 0 0
    outer loop
      vertex 17.2125 0 22.5
      vertex 17.2125 2.5 25
      vertex 17.2125 2.5 22.5
    endloop
  endfacet
  facet normal -1 -0 0
    outer loop
      vertex 17.2125 2.5 25
      vertex 17.2125 0 22.5
      vertex 17.2125 0 25
    endloop
  endfacet
  facet normal 1 -0 0
    outer loop
      vertex 47.2125 0 25
      vertex 47.2125 2.5 0
      vertex 47.2125 2.5 25
    endloop
  endfacet
  facet normal 1 0 0
    outer loop
      vertex 47.2125 2.5 0
      vertex 47.2125 0 25
      vertex 47.2125 0 0
    endloop
  endfacet
  facet normal 0 1 -0
    outer loop
      vertex 44.2614 2.5 2.30902
      vertex 32.2125 2.5 3
      vertex 45.2125 2.5 3
    endloop
  endfacet
  facet normal 0 1 0
    outer loop
      vertex 44.2614 2.5 2.30902
      vertex 33.1636 2.5 2.30902
      vertex 32.2125 2.5 3
    endloop
  endfacet
  facet normal 0 1 0
    outer loop
      vertex 44.6247 2.5 1.19098
      vertex 33.1636 2.5 2.30902
      vertex 44.2614 2.5 2.30902
    endloop
  endfacet
  facet normal 0 1 0
    outer loop
      vertex 33.1636 2.5 2.30902
      vertex 44.6247 2.5 1.19098
      vertex 32.8003 2.5 1.19098
    endloop
  endfacet
  facet normal 0 1 0
    outer loop
      vertex 31.6247 2.5 22.191
      vertex 18.8622 2.5 22.5
      vertex 31.2614 2.5 23.309
    endloop
  endfacet
  facet normal 0 1 0
    outer loop
      vertex 32.8003 2.5 22.191
      vertex 32.2125 2.5 3
      vertex 31.6247 2.5 22.191
    endloop
  endfacet
  facet normal 0 1 0
    outer loop
      vertex 31.6247 2.5 22.191
      vertex 32.2125 2.5 3
      vertex 18.8622 2.5 22.5
    endloop
  endfacet
  facet normal 0 1 -0
    outer loop
      vertex 31.2614 2.5 2.30902
      vertex 18.8622 2.5 22.5
      vertex 32.2125 2.5 3
    endloop
  endfacet
  facet normal 0 1 0
    outer loop
      vertex 18.8622 2.5 0
      vertex 31.2614 2.5 2.30902
      vertex 31.6247 2.5 1.19098
    endloop
  endfacet
  facet normal 0 1 0
    outer loop
      vertex 31.2614 2.5 2.30902
      vertex 18.8622 2.5 0
      vertex 18.8622 2.5 22.5
    endloop
  endfacet
  facet normal 0 1 0
    outer loop
      vertex 32.8003 2.5 1.19098
      vertex 18.8622 2.5 0
      vertex 31.6247 2.5 1.19098
    endloop
  endfacet
  facet normal 0 1 -0
    outer loop
      vertex 44.2614 2.5 23.309
      vertex 32.2125 2.5 24
      vertex 45.2125 2.5 24
    endloop
  endfacet
  facet normal 0 1 0
    outer loop
      vertex 44.2614 2.5 23.309
      vertex 33.1636 2.5 23.309
      vertex 32.2125 2.5 24
    endloop
  endfacet
  facet normal 0 1 0
    outer loop
      vertex 44.6247 2.5 22.191
      vertex 33.1636 2.5 23.309
      vertex 44.2614 2.5 23.309
    endloop
  endfacet
  facet normal 0 1 0
    outer loop
      vertex 33.1636 2.5 23.309
      vertex 44.6247 2.5 22.191
      vertex 32.8003 2.5 22.191
    endloop
  endfacet
  facet normal 0 1 0
    outer loop
      vertex 32.2125 2.5 24
      vertex 47.2125 2.5 25
      vertex 45.2125 2.5 24
    endloop
  endfacet
  facet normal 0 1 0
    outer loop
      vertex 47.2125 2.5 25
      vertex 46.1636 2.5 23.309
      vertex 45.2125 2.5 24
    endloop
  endfacet
  facet normal 0 1 0
    outer loop
      vertex 47.2125 2.5 25
      vertex 45.8003 2.5 22.191
      vertex 46.1636 2.5 23.309
    endloop
  endfacet
  facet normal 0 1 -0
    outer loop
      vertex 45.2125 2.5 3
      vertex 44.6247 2.5 22.191
      vertex 45.8003 2.5 22.191
    endloop
  endfacet
  facet normal 0 1 0
    outer loop
      vertex 44.6247 2.5 22.191
      vertex 45.2125 2.5 3
      vertex 32.8003 2.5 22.191
    endloop
  endfacet
  facet normal 0 1 0
    outer loop
      vertex 32.2125 2.5 3
      vertex 32.8003 2.5 22.191
      vertex 45.2125 2.5 3
    endloop
  endfacet
  facet normal 0 1 -0
    outer loop
      vertex 46.1636 2.5 2.30902
      vertex 45.8003 2.5 22.191
      vertex 47.2125 2.5 25
    endloop
  endfacet
  facet normal 0 1 0
    outer loop
      vertex 45.8003 2.5 22.191
      vertex 46.1636 2.5 2.30902
      vertex 45.2125 2.5 3
    endloop
  endfacet
  facet normal 0 1 0
    outer loop
      vertex 47.2125 2.5 0
      vertex 44.6247 2.5 1.19098
      vertex 45.8003 2.5 1.19098
    endloop
  endfacet
  facet normal 0 1 0
    outer loop
      vertex 44.6247 2.5 1.19098
      vertex 47.2125 2.5 0
      vertex 32.8003 2.5 1.19098
    endloop
  endfacet
  facet normal 0 1 0
    outer loop
      vertex 18.8622 2.5 0
      vertex 32.8003 2.5 1.19098
      vertex 47.2125 2.5 0
    endloop
  endfacet
  facet normal 0 1 0
    outer loop
      vertex 46.1636 2.5 2.30902
      vertex 47.2125 2.5 0
      vertex 45.8003 2.5 1.19098
    endloop
  endfacet
  facet normal 0 1 -0
    outer loop
      vertex 47.2125 2.5 0
      vertex 46.1636 2.5 2.30902
      vertex 47.2125 2.5 25
    endloop
  endfacet
  facet normal 0 1 0
    outer loop
      vertex 47.2125 2.5 25
      vertex 32.2125 2.5 24
      vertex 17.2125 2.5 25
    endloop
  endfacet
  facet normal 0 1 -0
    outer loop
      vertex 31.2614 2.5 23.309
      vertex 17.2125 2.5 25
      vertex 32.2125 2.5 24
    endloop
  endfacet
  facet normal 0 1 -0
    outer loop
      vertex 18.8622 2.5 22.5
      vertex 17.2125 2.5 25
      vertex 31.2614 2.5 23.309
    endloop
  endfacet
  facet normal 0 1 0
    outer loop
      vertex 17.2125 2.5 25
      vertex 18.8622 2.5 22.5
      vertex 17.2125 2.5 22.5
    endloop
  endfacet
  facet normal -0.95105 0 0.309038
    outer loop
      vertex 45.8003 0 1.19098
      vertex 46.1636 2.5 2.30902
      vertex 45.8003 2.5 1.19098
    endloop
  endfacet
  facet normal -0.95105 0 0.309038
    outer loop
      vertex 46.1636 2.5 2.30902
      vertex 45.8003 0 1.19098
      vertex 46.1636 0 2.30902
    endloop
  endfacet
  facet normal 0.95105 -0 0.309038
    outer loop
      vertex 44.2614 0 2.30902
      vertex 44.6247 2.5 1.19098
      vertex 44.2614 2.5 2.30902
    endloop
  endfacet
  facet normal 0.95105 0 0.309038
    outer loop
      vertex 44.6247 2.5 1.19098
      vertex 44.2614 0 2.30902
      vertex 44.6247 0 1.19098
    endloop
  endfacet
  facet normal 0.587766 0 -0.809031
    outer loop
      vertex 44.2614 0 2.30902
      vertex 45.2125 2.5 3
      vertex 45.2125 0 3
    endloop
  endfacet
  facet normal 0.587766 0 -0.809031
    outer loop
      vertex 45.2125 2.5 3
      vertex 44.2614 0 2.30902
      vertex 44.2614 2.5 2.30902
    endloop
  endfacet
  facet normal -0 0 1
    outer loop
      vertex 44.6247 2.5 1.19098
      vertex 45.8003 0 1.19098
      vertex 45.8003 2.5 1.19098
    endloop
  endfacet
  facet normal 0 0 1
    outer loop
      vertex 45.8003 0 1.19098
      vertex 44.6247 2.5 1.19098
      vertex 44.6247 0 1.19098
    endloop
  endfacet
  facet normal -0.587766 0 -0.809031
    outer loop
      vertex 45.2125 0 3
      vertex 46.1636 2.5 2.30902
      vertex 46.1636 0 2.30902
    endloop
  endfacet
  facet normal -0.587766 0 -0.809031
    outer loop
      vertex 46.1636 2.5 2.30902
      vertex 45.2125 0 3
      vertex 45.2125 2.5 3
    endloop
  endfacet
  facet normal -0.951047 0 0.309048
    outer loop
      vertex 45.8003 0 22.191
      vertex 46.1636 2.5 23.309
      vertex 45.8003 2.5 22.191
    endloop
  endfacet
  facet normal -0.951047 0 0.309048
    outer loop
      vertex 46.1636 2.5 23.309
      vertex 45.8003 0 22.191
      vertex 46.1636 0 23.309
    endloop
  endfacet
  facet normal 0.951047 -0 0.309048
    outer loop
      vertex 44.2614 0 23.309
      vertex 44.6247 2.5 22.191
      vertex 44.2614 2.5 23.309
    endloop
  endfacet
  facet normal 0.951047 0 0.309048
    outer loop
      vertex 44.6247 2.5 22.191
      vertex 44.2614 0 23.309
      vertex 44.6247 0 22.191
    endloop
  endfacet
  facet normal 0.587777 0 -0.809023
    outer loop
      vertex 44.2614 0 23.309
      vertex 45.2125 2.5 24
      vertex 45.2125 0 24
    endloop
  endfacet
  facet normal 0.587777 0 -0.809023
    outer loop
      vertex 45.2125 2.5 24
      vertex 44.2614 0 23.309
      vertex 44.2614 2.5 23.309
    endloop
  endfacet
  facet normal -0 0 1
    outer loop
      vertex 44.6247 2.5 22.191
      vertex 45.8003 0 22.191
      vertex 45.8003 2.5 22.191
    endloop
  endfacet
  facet normal 0 0 1
    outer loop
      vertex 45.8003 0 22.191
      vertex 44.6247 2.5 22.191
      vertex 44.6247 0 22.191
    endloop
  endfacet
  facet normal -0.587777 0 -0.809023
    outer loop
      vertex 45.2125 0 24
      vertex 46.1636 2.5 23.309
      vertex 46.1636 0 23.309
    endloop
  endfacet
  facet normal -0.587777 0 -0.809023
    outer loop
      vertex 46.1636 2.5 23.309
      vertex 45.2125 0 24
      vertex 45.2125 2.5 24
    endloop
  endfacet
  facet normal -0.95105 0 0.309038
    outer loop
      vertex 32.8003 0 1.19098
      vertex 33.1636 2.5 2.30902
      vertex 32.8003 2.5 1.19098
    endloop
  endfacet
  facet normal -0.95105 0 0.309038
    outer loop
      vertex 33.1636 2.5 2.30902
      vertex 32.8003 0 1.19098
      vertex 33.1636 0 2.30902
    endloop
  endfacet
  facet normal 0.587766 0 -0.809031
    outer loop
      vertex 31.2614 0 2.30902
      vertex 32.2125 2.5 3
      vertex 32.2125 0 3
    endloop
  endfacet
  facet normal 0.587766 0 -0.809031
    outer loop
      vertex 32.2125 2.5 3
      vertex 31.2614 0 2.30902
      vertex 31.2614 2.5 2.30902
    endloop
  endfacet
  facet normal -0 0 1
    outer loop
      vertex 31.6247 2.5 1.19098
      vertex 32.8003 0 1.19098
      vertex 32.8003 2.5 1.19098
    endloop
  endfacet
  facet normal 0 0 1
    outer loop
      vertex 32.8003 0 1.19098
      vertex 31.6247 2.5 1.19098
      vertex 31.6247 0 1.19098
    endloop
  endfacet
  facet normal 0.95105 -0 0.309038
    outer loop
      vertex 31.2614 0 2.30902
      vertex 31.6247 2.5 1.19098
      vertex 31.2614 2.5 2.30902
    endloop
  endfacet
  facet normal 0.95105 0 0.309038
    outer loop
      vertex 31.6247 2.5 1.19098
      vertex 31.2614 0 2.30902
      vertex 31.6247 0 1.19098
    endloop
  endfacet
  facet normal -0.587766 0 -0.809031
    outer loop
      vertex 32.2125 0 3
      vertex 33.1636 2.5 2.30902
      vertex 33.1636 0 2.30902
    endloop
  endfacet
  facet normal -0.587766 0 -0.809031
    outer loop
      vertex 33.1636 2.5 2.30902
      vertex 32.2125 0 3
      vertex 32.2125 2.5 3
    endloop
  endfacet
  facet normal -0.951047 0 0.309048
    outer loop
      vertex 32.8003 0 22.191
      vertex 33.1636 2.5 23.309
      vertex 32.8003 2.5 22.191
    endloop
  endfacet
  facet normal -0.951047 0 0.309048
    outer loop
      vertex 33.1636 2.5 23.309
      vertex 32.8003 0 22.191
      vertex 33.1636 0 23.309
    endloop
  endfacet
  facet normal 0.587777 0 -0.809023
    outer loop
      vertex 31.2614 0 23.309
      vertex 32.2125 2.5 24
      vertex 32.2125 0 24
    endloop
  endfacet
  facet normal 0.587777 0 -0.809023
    outer loop
      vertex 32.2125 2.5 24
      vertex 31.2614 0 23.309
      vertex 31.2614 2.5 23.309
    endloop
  endfacet
  facet normal -0 0 1
    outer loop
      vertex 31.6247 2.5 22.191
      vertex 32.8003 0 22.191
      vertex 32.8003 2.5 22.191
    endloop
  endfacet
  facet normal 0 0 1
    outer loop
      vertex 32.8003 0 22.191
      vertex 31.6247 2.5 22.191
      vertex 31.6247 0 22.191
    endloop
  endfacet
  facet normal -0.587777 0 -0.809023
    outer loop
      vertex 32.2125 0 24
      vertex 33.1636 2.5 23.309
      vertex 33.1636 0 23.309
    endloop
  endfacet
  facet normal -0.587777 0 -0.809023
    outer loop
      vertex 33.1636 2.5 23.309
      vertex 32.2125 0 24
      vertex 32.2125 2.5 24
    endloop
  endfacet
  facet normal 0.951047 -0 0.309048
    outer loop
      vertex 31.2614 0 23.309
      vertex 31.6247 2.5 22.191
      vertex 31.2614 2.5 23.309
    endloop
  endfacet
  facet normal 0.951047 0 0.309048
    outer loop
      vertex 31.6247 2.5 22.191
      vertex 31.2614 0 23.309
      vertex 31.6247 0 22.191
    endloop
  endfacet
endsolid OpenSCAD_Model
