solid OpenSCAD_Model
  facet normal -1 0 0
    outer loop
      vertex -8 -43.3812 0
      vertex -8 -40 12.8
      vertex -8 -40 0
    endloop
  endfacet
  facet normal -1 -0 0
    outer loop
      vertex -8 -40 12.8
      vertex -8 -43.3812 0
      vertex -8 -43.3812 12.8
    endloop
  endfacet
  facet normal -1 0 0
    outer loop
      vertex -8 -56 0
      vertex -8 -52.6188 12.8
      vertex -8 -52.6188 0
    endloop
  endfacet
  facet normal -1 -0 0
    outer loop
      vertex -8 -52.6188 12.8
      vertex -8 -56 0
      vertex -8 -56 12.8
    endloop
  endfacet
  facet normal 0 0 -1
    outer loop
      vertex -11.3812 -56 12.8
      vertex -8 -52.6188 12.8
      vertex -8 -56 12.8
    endloop
  endfacet
  facet normal 0 0 -1
    outer loop
      vertex -16 -57.2376 12.8
      vertex -9.2 -50.5 12.8
      vertex -11.3812 -56 12.8
    endloop
  endfacet
  facet normal -0 0 -1
    outer loop
      vertex -8 -52.6188 12.8
      vertex -11.3812 -56 12.8
      vertex -9.2 -50.5 12.8
    endloop
  endfacet
  facet normal 0 0 -1
    outer loop
      vertex -8 -52.6188 12.8
      vertex -5.31902 -50.5 12.8
      vertex -5.0718 -50.9282 12.8
    endloop
  endfacet
  facet normal -0 0 -1
    outer loop
      vertex -5.31902 -50.5 12.8
      vertex -8 -52.6188 12.8
      vertex -9.2 -50.5 12.8
    endloop
  endfacet
  facet normal 0 0 -1
    outer loop
      vertex -6.7624 -48 12.8
      vertex -8 -43.3812 12.8
      vertex -5.0718 -45.0718 12.8
    endloop
  endfacet
  facet normal 0 0 -1
    outer loop
      vertex -9.2 -48 12.8
      vertex -8 -43.3812 12.8
      vertex -6.7624 -48 12.8
    endloop
  endfacet
  facet normal 0 0 -1
    outer loop
      vertex -11.3812 -40 12.8
      vertex -8 -43.3812 12.8
      vertex -9.2 -48 12.8
    endloop
  endfacet
  facet normal 0 0 -1
    outer loop
      vertex -20.6188 -56 12.8
      vertex -9.2 -50.5 12.8
      vertex -16 -57.2376 12.8
    endloop
  endfacet
  facet normal 0 0 -1
    outer loop
      vertex -8 -43.3812 12.8
      vertex -11.3812 -40 12.8
      vertex -8 -40 12.8
    endloop
  endfacet
  facet normal 0 0 -1
    outer loop
      vertex -16 -57.2376 12.8
      vertex -11.3812 -56 12.8
      vertex -13.0718 -58.9282 12.8
    endloop
  endfacet
  facet normal -0 0 -1
    outer loop
      vertex -9.2 -50.5 12.8
      vertex -20.6188 -56 12.8
      vertex -9.2 -48 12.8
    endloop
  endfacet
  facet normal 0 0 -1
    outer loop
      vertex -9.2 -48 12.8
      vertex -16 -38.7624 12.8
      vertex -11.3812 -40 12.8
    endloop
  endfacet
  facet normal 0 0 -1
    outer loop
      vertex -11.3812 -40 12.8
      vertex -16 -38.7624 12.8
      vertex -13.0718 -37.0718 12.8
    endloop
  endfacet
  facet normal 0 0 -1
    outer loop
      vertex -20.6188 -56 12.8
      vertex -16 -57.2376 12.8
      vertex -18.9282 -58.9282 12.8
    endloop
  endfacet
  facet normal 0 0 -1
    outer loop
      vertex -24 -52.6188 12.8
      vertex -9.2 -48 12.8
      vertex -20.6188 -56 12.8
    endloop
  endfacet
  facet normal 0 0 -1
    outer loop
      vertex -9.2 -48 12.8
      vertex -20.6188 -40 12.8
      vertex -16 -38.7624 12.8
    endloop
  endfacet
  facet normal -0 0 -1
    outer loop
      vertex -16 -38.7624 12.8
      vertex -20.6188 -40 12.8
      vertex -18.9282 -37.0718 12.8
    endloop
  endfacet
  facet normal 0 0 -1
    outer loop
      vertex -24 -52.6188 12.8
      vertex -20.6188 -56 12.8
      vertex -24 -56 12.8
    endloop
  endfacet
  facet normal 0 0 -1
    outer loop
      vertex -25.2376 -48 12.8
      vertex -9.2 -48 12.8
      vertex -24 -52.6188 12.8
    endloop
  endfacet
  facet normal 0 0 -1
    outer loop
      vertex -9.2 -48 12.8
      vertex -24 -43.3812 12.8
      vertex -20.6188 -40 12.8
    endloop
  endfacet
  facet normal -0 0 -1
    outer loop
      vertex -20.6188 -40 12.8
      vertex -24 -43.3812 12.8
      vertex -24 -40 12.8
    endloop
  endfacet
  facet normal 0 0 -1
    outer loop
      vertex -9.2 -48 12.8
      vertex -25.2376 -48 12.8
      vertex -24 -43.3812 12.8
    endloop
  endfacet
  facet normal 0 -0 -1
    outer loop
      vertex -25.2376 -48 12.8
      vertex -24 -52.6188 12.8
      vertex -26.9282 -50.9282 12.8
    endloop
  endfacet
  facet normal 0 0 -1
    outer loop
      vertex -24 -43.3812 12.8
      vertex -25.2376 -48 12.8
      vertex -26.9282 -45.0718 12.8
    endloop
  endfacet
  facet normal 1 -0 0
    outer loop
      vertex -24 -43.3812 12.8
      vertex -24 -40 0
      vertex -24 -40 12.8
    endloop
  endfacet
  facet normal 1 0 0
    outer loop
      vertex -24 -40 0
      vertex -24 -43.3812 12.8
      vertex -24 -43.3812 0
    endloop
  endfacet
  facet normal 1 -0 0
    outer loop
      vertex -24 -56 12.8
      vertex -24 -52.6188 0
      vertex -24 -52.6188 12.8
    endloop
  endfacet
  facet normal 1 0 0
    outer loop
      vertex -24 -52.6188 0
      vertex -24 -56 12.8
      vertex -24 -56 0
    endloop
  endfacet
  facet normal 0 -1 0
    outer loop
      vertex -24 -40 0
      vertex -20.6188 -40 12.8
      vertex -24 -40 12.8
    endloop
  endfacet
  facet normal 0 -1 -0
    outer loop
      vertex -20.6188 -40 12.8
      vertex -24 -40 0
      vertex -20.6188 -40 0
    endloop
  endfacet
  facet normal 0 -1 0
    outer loop
      vertex -11.3812 -40 0
      vertex -8 -40 12.8
      vertex -11.3812 -40 12.8
    endloop
  endfacet
  facet normal 0 -1 -0
    outer loop
      vertex -8 -40 12.8
      vertex -11.3812 -40 0
      vertex -8 -40 0
    endloop
  endfacet
  facet normal 0 1 -0
    outer loop
      vertex -20.6188 -56 0
      vertex -24 -56 12.8
      vertex -20.6188 -56 12.8
    endloop
  endfacet
  facet normal 0 1 0
    outer loop
      vertex -24 -56 12.8
      vertex -20.6188 -56 0
      vertex -24 -56 0
    endloop
  endfacet
  facet normal 0 1 -0
    outer loop
      vertex -8 -56 0
      vertex -11.3812 -56 12.8
      vertex -8 -56 12.8
    endloop
  endfacet
  facet normal 0 1 0
    outer loop
      vertex -11.3812 -56 12.8
      vertex -8 -56 0
      vertex -11.3812 -56 0
    endloop
  endfacet
  facet normal 0.866025 0.500001 0
    outer loop
      vertex -25.2376 -48 12.8
      vertex -26.9282 -45.0718 0
      vertex -26.9282 -45.0718 12.8
    endloop
  endfacet
  facet normal 0.866025 0.500001 0
    outer loop
      vertex -26.9282 -45.0718 0
      vertex -25.2376 -48 12.8
      vertex -25.2376 -48 0
    endloop
  endfacet
  facet normal 0.866025 0.500001 0
    outer loop
      vertex -18.9282 -58.9282 12.8
      vertex -20.6188 -56 0
      vertex -20.6188 -56 12.8
    endloop
  endfacet
  facet normal 0.866025 0.500001 0
    outer loop
      vertex -20.6188 -56 0
      vertex -18.9282 -58.9282 12.8
      vertex -18.9282 -58.9282 0
    endloop
  endfacet
  facet normal 0.500001 -0.866025 0
    outer loop
      vertex -16 -38.7624 0
      vertex -13.0718 -37.0718 12.8
      vertex -16 -38.7624 12.8
    endloop
  endfacet
  facet normal 0.500001 -0.866025 0
    outer loop
      vertex -13.0718 -37.0718 12.8
      vertex -16 -38.7624 0
      vertex -13.0718 -37.0718 0
    endloop
  endfacet
  facet normal 0.500001 -0.866025 0
    outer loop
      vertex -26.9282 -45.0718 0
      vertex -24 -43.3812 12.8
      vertex -26.9282 -45.0718 12.8
    endloop
  endfacet
  facet normal 0.500001 -0.866025 0
    outer loop
      vertex -24 -43.3812 12.8
      vertex -26.9282 -45.0718 0
      vertex -24 -43.3812 0
    endloop
  endfacet
  facet normal -0.500001 0.866025 0
    outer loop
      vertex -5.0718 -50.9282 0
      vertex -8 -52.6188 12.8
      vertex -5.0718 -50.9282 12.8
    endloop
  endfacet
  facet normal -0.500001 0.866025 0
    outer loop
      vertex -8 -52.6188 12.8
      vertex -5.0718 -50.9282 0
      vertex -8 -52.6188 0
    endloop
  endfacet
  facet normal -0.500001 0.866025 0
    outer loop
      vertex -16 -57.2376 0
      vertex -18.9282 -58.9282 12.8
      vertex -16 -57.2376 12.8
    endloop
  endfacet
  facet normal -0.500001 0.866025 0
    outer loop
      vertex -18.9282 -58.9282 12.8
      vertex -16 -57.2376 0
      vertex -18.9282 -58.9282 0
    endloop
  endfacet
  facet normal -0.866025 -0.500001 0
    outer loop
      vertex -11.3812 -40 0
      vertex -13.0718 -37.0718 12.8
      vertex -13.0718 -37.0718 0
    endloop
  endfacet
  facet normal -0.866025 -0.500001 0
    outer loop
      vertex -13.0718 -37.0718 12.8
      vertex -11.3812 -40 0
      vertex -11.3812 -40 12.8
    endloop
  endfacet
  facet normal -0.866027 -0.499998 0
    outer loop
      vertex -5.0718 -50.9282 0
      vertex -5.31902 -50.5 12.8
      vertex -5.31902 -50.5 0
    endloop
  endfacet
  facet normal -0.866027 -0.499998 0
    outer loop
      vertex -5.31902 -50.5 12.8
      vertex -5.0718 -50.9282 0
      vertex -5.0718 -50.9282 12.8
    endloop
  endfacet
  facet normal 0.500001 0.866025 -0
    outer loop
      vertex -24 -52.6188 0
      vertex -26.9282 -50.9282 12.8
      vertex -24 -52.6188 12.8
    endloop
  endfacet
  facet normal 0.500001 0.866025 0
    outer loop
      vertex -26.9282 -50.9282 12.8
      vertex -24 -52.6188 0
      vertex -26.9282 -50.9282 0
    endloop
  endfacet
  facet normal 0.500001 0.866025 -0
    outer loop
      vertex -13.0718 -58.9282 0
      vertex -16 -57.2376 12.8
      vertex -13.0718 -58.9282 12.8
    endloop
  endfacet
  facet normal 0.500001 0.866025 0
    outer loop
      vertex -16 -57.2376 12.8
      vertex -13.0718 -58.9282 0
      vertex -16 -57.2376 0
    endloop
  endfacet
  facet normal 0.866025 -0.500001 0
    outer loop
      vertex -20.6188 -40 12.8
      vertex -18.9282 -37.0718 0
      vertex -18.9282 -37.0718 12.8
    endloop
  endfacet
  facet normal 0.866025 -0.500001 0
    outer loop
      vertex -18.9282 -37.0718 0
      vertex -20.6188 -40 12.8
      vertex -20.6188 -40 0
    endloop
  endfacet
  facet normal 0.866025 -0.500001 0
    outer loop
      vertex -26.9282 -50.9282 12.8
      vertex -25.2376 -48 0
      vertex -25.2376 -48 12.8
    endloop
  endfacet
  facet normal 0.866025 -0.500001 0
    outer loop
      vertex -25.2376 -48 0
      vertex -26.9282 -50.9282 12.8
      vertex -26.9282 -50.9282 0
    endloop
  endfacet
  facet normal -0.866025 0.500001 0
    outer loop
      vertex -6.7624 -48 0
      vertex -5.0718 -45.0718 12.8
      vertex -5.0718 -45.0718 0
    endloop
  endfacet
  facet normal -0.866025 0.500001 0
    outer loop
      vertex -5.0718 -45.0718 12.8
      vertex -6.7624 -48 0
      vertex -6.7624 -48 12.8
    endloop
  endfacet
  facet normal -0.866025 0.500001 0
    outer loop
      vertex -13.0718 -58.9282 0
      vertex -11.3812 -56 12.8
      vertex -11.3812 -56 0
    endloop
  endfacet
  facet normal -0.866025 0.500001 0
    outer loop
      vertex -11.3812 -56 12.8
      vertex -13.0718 -58.9282 0
      vertex -13.0718 -58.9282 12.8
    endloop
  endfacet
  facet normal -0.500001 -0.866025 0
    outer loop
      vertex -18.9282 -37.0718 0
      vertex -16 -38.7624 12.8
      vertex -18.9282 -37.0718 12.8
    endloop
  endfacet
  facet normal -0.500001 -0.866025 -0
    outer loop
      vertex -16 -38.7624 12.8
      vertex -18.9282 -37.0718 0
      vertex -16 -38.7624 0
    endloop
  endfacet
  facet normal -0.500001 -0.866025 0
    outer loop
      vertex -8 -43.3812 0
      vertex -5.0718 -45.0718 12.8
      vertex -8 -43.3812 12.8
    endloop
  endfacet
  facet normal -0.500001 -0.866025 -0
    outer loop
      vertex -5.0718 -45.0718 12.8
      vertex -8 -43.3812 0
      vertex -5.0718 -45.0718 0
    endloop
  endfacet
  facet normal 0.951056 0.309019 0
    outer loop
      vertex -2.69719 -45.1724 16
      vertex -3.57578 -42.4684 0
      vertex -3.57578 -42.4684 16
    endloop
  endfacet
  facet normal 0.951056 0.309019 0
    outer loop
      vertex -3.57578 -42.4684 0
      vertex -2.69719 -45.1724 16
      vertex -2.69719 -45.1724 0
    endloop
  endfacet
  facet normal 0.994523 0.104522 0
    outer loop
      vertex -2.66276 -45.5 16
      vertex -2.69719 -45.1724 0
      vertex -2.69719 -45.1724 16
    endloop
  endfacet
  facet normal 0.994523 0.104522 0
    outer loop
      vertex -2.69719 -45.1724 0
      vertex -2.66276 -45.5 16
      vertex -2.66276 -45.5 0
    endloop
  endfacet
  facet normal 0.951056 -0.309019 0
    outer loop
      vertex -3.57578 -53.5316 16
      vertex -2.69719 -50.8276 0
      vertex -2.69719 -50.8276 16
    endloop
  endfacet
  facet normal 0.951056 -0.309019 0
    outer loop
      vertex -2.69719 -50.8276 0
      vertex -3.57578 -53.5316 16
      vertex -3.57578 -53.5316 0
    endloop
  endfacet
  facet normal -0.587764 -0.809033 0
    outer loop
      vertex -25.1002 -58.1068 0
      vertex -22.8 -59.7779 16
      vertex -25.1002 -58.1068 16
    endloop
  endfacet
  facet normal -0.587764 -0.809033 -0
    outer loop
      vertex -22.8 -59.7779 16
      vertex -25.1002 -58.1068 0
      vertex -22.8 -59.7779 0
    endloop
  endfacet
  facet normal 0.207905 -0.978149 0
    outer loop
      vertex -14.5784 -61.5255 0
      vertex -11.7974 -60.9344 16
      vertex -14.5784 -61.5255 16
    endloop
  endfacet
  facet normal 0.207905 -0.978149 0
    outer loop
      vertex -11.7974 -60.9344 16
      vertex -14.5784 -61.5255 0
      vertex -11.7974 -60.9344 0
    endloop
  endfacet
  facet normal -0.866027 -0.499997 0
    outer loop
      vertex -27.0026 -55.9939 0
      vertex -28.4242 -53.5316 16
      vertex -28.4242 -53.5316 0
    endloop
  endfacet
  facet normal -0.866027 -0.499997 0
    outer loop
      vertex -28.4242 -53.5316 16
      vertex -27.0026 -55.9939 0
      vertex -27.0026 -55.9939 16
    endloop
  endfacet
  facet normal 0.207905 0.978149 -0
    outer loop
      vertex -11.7974 -35.0656 0
      vertex -14.5784 -34.4745 16
      vertex -11.7974 -35.0656 16
    endloop
  endfacet
  facet normal 0.207905 0.978149 0
    outer loop
      vertex -14.5784 -34.4745 16
      vertex -11.7974 -35.0656 0
      vertex -14.5784 -34.4745 0
    endloop
  endfacet
  facet normal -0.207905 -0.978149 0
    outer loop
      vertex -20.2026 -60.9344 0
      vertex -17.4216 -61.5255 16
      vertex -20.2026 -60.9344 16
    endloop
  endfacet
  facet normal -0.207905 -0.978149 -0
    outer loop
      vertex -17.4216 -61.5255 16
      vertex -20.2026 -60.9344 0
      vertex -17.4216 -61.5255 0
    endloop
  endfacet
  facet normal 0.587767 0.80903 -0
    outer loop
      vertex -6.89982 -37.8932 0
      vertex -9.2 -36.2221 16
      vertex -6.89982 -37.8932 16
    endloop
  endfacet
  facet normal 0.587767 0.80903 0
    outer loop
      vertex -9.2 -36.2221 16
      vertex -6.89982 -37.8932 0
      vertex -9.2 -36.2221 0
    endloop
  endfacet
  facet normal 0.406755 0.913537 -0
    outer loop
      vertex -9.2 -36.2221 0
      vertex -11.7974 -35.0656 16
      vertex -9.2 -36.2221 16
    endloop
  endfacet
  facet normal 0.406755 0.913537 0
    outer loop
      vertex -11.7974 -35.0656 16
      vertex -9.2 -36.2221 0
      vertex -11.7974 -35.0656 0
    endloop
  endfacet
  facet normal -0.951055 0.309022 0
    outer loop
      vertex -29.3028 -45.1724 0
      vertex -28.4242 -42.4684 16
      vertex -28.4242 -42.4684 0
    endloop
  endfacet
  facet normal -0.951055 0.309022 0
    outer loop
      vertex -28.4242 -42.4684 16
      vertex -29.3028 -45.1724 0
      vertex -29.3028 -45.1724 16
    endloop
  endfacet
  facet normal -0.406755 -0.913537 0
    outer loop
      vertex -22.8 -59.7779 0
      vertex -20.2026 -60.9344 16
      vertex -22.8 -59.7779 16
    endloop
  endfacet
  facet normal -0.406755 -0.913537 -0
    outer loop
      vertex -20.2026 -60.9344 16
      vertex -22.8 -59.7779 0
      vertex -20.2026 -60.9344 0
    endloop
  endfacet
  facet normal -0.866027 0.499997 0
    outer loop
      vertex -28.4242 -42.4684 0
      vertex -27.0026 -40.0061 16
      vertex -27.0026 -40.0061 0
    endloop
  endfacet
  facet normal -0.866027 0.499997 0
    outer loop
      vertex -27.0026 -40.0061 16
      vertex -28.4242 -42.4684 0
      vertex -28.4242 -42.4684 16
    endloop
  endfacet
  facet normal 0.587767 -0.80903 0
    outer loop
      vertex -9.2 -59.7779 0
      vertex -6.89982 -58.1068 16
      vertex -9.2 -59.7779 16
    endloop
  endfacet
  facet normal 0.587767 -0.80903 0
    outer loop
      vertex -6.89982 -58.1068 16
      vertex -9.2 -59.7779 0
      vertex -6.89982 -58.1068 0
    endloop
  endfacet
  facet normal -0.207905 0.978149 0
    outer loop
      vertex -17.4216 -34.4745 0
      vertex -20.2026 -35.0656 16
      vertex -17.4216 -34.4745 16
    endloop
  endfacet
  facet normal -0.207905 0.978149 0
    outer loop
      vertex -20.2026 -35.0656 16
      vertex -17.4216 -34.4745 0
      vertex -20.2026 -35.0656 0
    endloop
  endfacet
  facet normal 0.994523 -0.104522 0
    outer loop
      vertex -2.69719 -50.8276 16
      vertex -2.66276 -50.5 0
      vertex -2.66276 -50.5 16
    endloop
  endfacet
  facet normal 0.994523 -0.104522 0
    outer loop
      vertex -2.66276 -50.5 0
      vertex -2.69719 -50.8276 16
      vertex -2.69719 -50.8276 0
    endloop
  endfacet
  facet normal 0 1 -0
    outer loop
      vertex -14.5784 -34.4745 0
      vertex -17.4216 -34.4745 16
      vertex -14.5784 -34.4745 16
    endloop
  endfacet
  facet normal 0 1 0
    outer loop
      vertex -17.4216 -34.4745 16
      vertex -14.5784 -34.4745 0
      vertex -17.4216 -34.4745 0
    endloop
  endfacet
  facet normal 0.866028 -0.499995 0
    outer loop
      vertex -4.99737 -55.9939 16
      vertex -3.57578 -53.5316 0
      vertex -3.57578 -53.5316 16
    endloop
  endfacet
  facet normal 0.866028 -0.499995 0
    outer loop
      vertex -3.57578 -53.5316 0
      vertex -4.99737 -55.9939 16
      vertex -4.99737 -55.9939 0
    endloop
  endfacet
  facet normal -0.587764 0.809033 0
    outer loop
      vertex -22.8 -36.2221 0
      vertex -25.1002 -37.8932 16
      vertex -22.8 -36.2221 16
    endloop
  endfacet
  facet normal -0.587764 0.809033 0
    outer loop
      vertex -25.1002 -37.8932 16
      vertex -22.8 -36.2221 0
      vertex -25.1002 -37.8932 0
    endloop
  endfacet
  facet normal 0.406755 -0.913537 0
    outer loop
      vertex -11.7974 -60.9344 0
      vertex -9.2 -59.7779 16
      vertex -11.7974 -60.9344 16
    endloop
  endfacet
  facet normal 0.406755 -0.913537 0
    outer loop
      vertex -9.2 -59.7779 16
      vertex -11.7974 -60.9344 0
      vertex -9.2 -59.7779 0
    endloop
  endfacet
  facet normal -0.406755 0.913537 0
    outer loop
      vertex -20.2026 -35.0656 0
      vertex -22.8 -36.2221 16
      vertex -20.2026 -35.0656 16
    endloop
  endfacet
  facet normal -0.406755 0.913537 0
    outer loop
      vertex -22.8 -36.2221 16
      vertex -20.2026 -35.0656 0
      vertex -22.8 -36.2221 0
    endloop
  endfacet
  facet normal 0.743147 -0.669128 0
    outer loop
      vertex -6.89982 -58.1068 16
      vertex -4.99737 -55.9939 0
      vertex -4.99737 -55.9939 16
    endloop
  endfacet
  facet normal 0.743147 -0.669128 0
    outer loop
      vertex -4.99737 -55.9939 0
      vertex -6.89982 -58.1068 16
      vertex -6.89982 -58.1068 0
    endloop
  endfacet
  facet normal 0.743147 0.669128 0
    outer loop
      vertex -4.99737 -40.0061 16
      vertex -6.89982 -37.8932 0
      vertex -6.89982 -37.8932 16
    endloop
  endfacet
  facet normal 0.743147 0.669128 0
    outer loop
      vertex -6.89982 -37.8932 0
      vertex -4.99737 -40.0061 16
      vertex -4.99737 -40.0061 0
    endloop
  endfacet
  facet normal -0.994522 0.104531 0
    outer loop
      vertex -29.6 -48 0
      vertex -29.3028 -45.1724 16
      vertex -29.3028 -45.1724 0
    endloop
  endfacet
  facet normal -0.994522 0.104531 0
    outer loop
      vertex -29.3028 -45.1724 16
      vertex -29.6 -48 0
      vertex -29.6 -48 16
    endloop
  endfacet
  facet normal 0.866028 0.499995 0
    outer loop
      vertex -3.57578 -42.4684 16
      vertex -4.99737 -40.0061 0
      vertex -4.99737 -40.0061 16
    endloop
  endfacet
  facet normal 0.866028 0.499995 0
    outer loop
      vertex -4.99737 -40.0061 0
      vertex -3.57578 -42.4684 16
      vertex -3.57578 -42.4684 0
    endloop
  endfacet
  facet normal -0.743156 0.669118 0
    outer loop
      vertex -27.0026 -40.0061 0
      vertex -25.1002 -37.8932 16
      vertex -25.1002 -37.8932 0
    endloop
  endfacet
  facet normal -0.743156 0.669118 0
    outer loop
      vertex -25.1002 -37.8932 16
      vertex -27.0026 -40.0061 0
      vertex -27.0026 -40.0061 16
    endloop
  endfacet
  facet normal 0 0 1
    outer loop
      vertex -3.76 -45.5 16
      vertex -2.69719 -45.1724 16
      vertex -3.57578 -42.4684 16
    endloop
  endfacet
  facet normal 0 0 1
    outer loop
      vertex -2.69719 -45.1724 16
      vertex -3.76 -45.5 16
      vertex -2.66276 -45.5 16
    endloop
  endfacet
  facet normal 0 0 1
    outer loop
      vertex -9.2 -48 16
      vertex -3.57578 -42.4684 16
      vertex -4.99737 -40.0061 16
    endloop
  endfacet
  facet normal 0 0 1
    outer loop
      vertex -3.57578 -42.4684 16
      vertex -9.2 -48 16
      vertex -3.76 -45.5 16
    endloop
  endfacet
  facet normal 0 0 1
    outer loop
      vertex -9.2 -48 16
      vertex -4.99737 -40.0061 16
      vertex -6.89982 -37.8932 16
    endloop
  endfacet
  facet normal 0 0 1
    outer loop
      vertex -9.2 -48 16
      vertex -6.89982 -37.8932 16
      vertex -9.2 -36.2221 16
    endloop
  endfacet
  facet normal 0 0 1
    outer loop
      vertex -3.76 -45.5 16
      vertex -9.2 -48 16
      vertex -3.76 -48 16
    endloop
  endfacet
  facet normal 0 0 1
    outer loop
      vertex -11.7974 -35.0656 16
      vertex -9.2 -48 16
      vertex -9.2 -36.2221 16
    endloop
  endfacet
  facet normal 0 0 1
    outer loop
      vertex -14.5784 -34.4745 16
      vertex -9.2 -48 16
      vertex -11.7974 -35.0656 16
    endloop
  endfacet
  facet normal -0 0 1
    outer loop
      vertex -17.4216 -34.4745 16
      vertex -9.2 -48 16
      vertex -14.5784 -34.4745 16
    endloop
  endfacet
  facet normal 0 0 1
    outer loop
      vertex -9.2 -50.5 16
      vertex -11.7974 -60.9344 16
      vertex -9.2 -59.7779 16
    endloop
  endfacet
  facet normal -0 0 1
    outer loop
      vertex -20.2026 -35.0656 16
      vertex -9.2 -48 16
      vertex -17.4216 -34.4745 16
    endloop
  endfacet
  facet normal 0 0 1
    outer loop
      vertex -9.2 -50.5 16
      vertex -14.5784 -61.5255 16
      vertex -11.7974 -60.9344 16
    endloop
  endfacet
  facet normal -0 0 1
    outer loop
      vertex -22.8 -36.2221 16
      vertex -9.2 -48 16
      vertex -20.2026 -35.0656 16
    endloop
  endfacet
  facet normal 0 0 1
    outer loop
      vertex -9.2 -50.5 16
      vertex -17.4216 -61.5255 16
      vertex -14.5784 -61.5255 16
    endloop
  endfacet
  facet normal -0 0 1
    outer loop
      vertex -25.1002 -37.8932 16
      vertex -9.2 -48 16
      vertex -22.8 -36.2221 16
    endloop
  endfacet
  facet normal 0 0 1
    outer loop
      vertex -9.2 -50.5 16
      vertex -20.2026 -60.9344 16
      vertex -17.4216 -61.5255 16
    endloop
  endfacet
  facet normal -0 0 1
    outer loop
      vertex -27.0026 -40.0061 16
      vertex -9.2 -48 16
      vertex -25.1002 -37.8932 16
    endloop
  endfacet
  facet normal 0 0 1
    outer loop
      vertex -9.2 -50.5 16
      vertex -22.8 -59.7779 16
      vertex -20.2026 -60.9344 16
    endloop
  endfacet
  facet normal -0 0 1
    outer loop
      vertex -28.4242 -42.4684 16
      vertex -9.2 -48 16
      vertex -27.0026 -40.0061 16
    endloop
  endfacet
  facet normal 0 0 1
    outer loop
      vertex -9.2 -50.5 16
      vertex -25.1002 -58.1068 16
      vertex -22.8 -59.7779 16
    endloop
  endfacet
  facet normal -0 0 1
    outer loop
      vertex -29.3028 -45.1724 16
      vertex -9.2 -48 16
      vertex -28.4242 -42.4684 16
    endloop
  endfacet
  facet normal 0 0 1
    outer loop
      vertex -9.2 -50.5 16
      vertex -27.0026 -55.9939 16
      vertex -25.1002 -58.1068 16
    endloop
  endfacet
  facet normal 0 0 1
    outer loop
      vertex -29.6 -48 16
      vertex -9.2 -48 16
      vertex -29.3028 -45.1724 16
    endloop
  endfacet
  facet normal 0 0 1
    outer loop
      vertex -9.2 -50.5 16
      vertex -28.4242 -53.5316 16
      vertex -27.0026 -55.9939 16
    endloop
  endfacet
  facet normal 0 -0 1
    outer loop
      vertex -29.3028 -50.8276 16
      vertex -9.2 -48 16
      vertex -29.6 -48 16
    endloop
  endfacet
  facet normal 0 0 1
    outer loop
      vertex -9.2 -48 16
      vertex -28.4242 -53.5316 16
      vertex -9.2 -50.5 16
    endloop
  endfacet
  facet normal 0 -0 1
    outer loop
      vertex -28.4242 -53.5316 16
      vertex -9.2 -48 16
      vertex -29.3028 -50.8276 16
    endloop
  endfacet
  facet normal -0 0 1
    outer loop
      vertex -9.2 -50.5 16
      vertex -2.69719 -50.8276 16
      vertex -2.66276 -50.5 16
    endloop
  endfacet
  facet normal 0 0 1
    outer loop
      vertex -2.69719 -50.8276 16
      vertex -9.2 -50.5 16
      vertex -3.57578 -53.5316 16
    endloop
  endfacet
  facet normal 0 0 1
    outer loop
      vertex -3.57578 -53.5316 16
      vertex -9.2 -50.5 16
      vertex -4.99737 -55.9939 16
    endloop
  endfacet
  facet normal 0 0 1
    outer loop
      vertex -4.99737 -55.9939 16
      vertex -9.2 -50.5 16
      vertex -6.89982 -58.1068 16
    endloop
  endfacet
  facet normal 0 0 1
    outer loop
      vertex -6.89982 -58.1068 16
      vertex -9.2 -50.5 16
      vertex -9.2 -59.7779 16
    endloop
  endfacet
  facet normal 0 -1 0
    outer loop
      vertex -17.4216 -61.5255 0
      vertex -14.5784 -61.5255 16
      vertex -17.4216 -61.5255 16
    endloop
  endfacet
  facet normal 0 -1 -0
    outer loop
      vertex -14.5784 -61.5255 16
      vertex -17.4216 -61.5255 0
      vertex -14.5784 -61.5255 0
    endloop
  endfacet
  facet normal -0.951055 -0.309022 0
    outer loop
      vertex -28.4242 -53.5316 0
      vertex -29.3028 -50.8276 16
      vertex -29.3028 -50.8276 0
    endloop
  endfacet
  facet normal -0.951055 -0.309022 0
    outer loop
      vertex -29.3028 -50.8276 16
      vertex -28.4242 -53.5316 0
      vertex -28.4242 -53.5316 16
    endloop
  endfacet
  facet normal -0.743156 -0.669118 0
    outer loop
      vertex -25.1002 -58.1068 0
      vertex -27.0026 -55.9939 16
      vertex -27.0026 -55.9939 0
    endloop
  endfacet
  facet normal -0.743156 -0.669118 0
    outer loop
      vertex -27.0026 -55.9939 16
      vertex -25.1002 -58.1068 0
      vertex -25.1002 -58.1068 16
    endloop
  endfacet
  facet normal 0 0 -1
    outer loop
      vertex -9.2 -59.7779 0
      vertex -8 -56 0
      vertex -6.89982 -58.1068 0
    endloop
  endfacet
  facet normal 0 0 -1
    outer loop
      vertex -9.2 -59.7779 0
      vertex -11.3812 -56 0
      vertex -8 -56 0
    endloop
  endfacet
  facet normal 0 0 -1
    outer loop
      vertex -13.0718 -58.9282 0
      vertex -9.2 -59.7779 0
      vertex -11.7974 -60.9344 0
    endloop
  endfacet
  facet normal 0 0 -1
    outer loop
      vertex -9.2 -59.7779 0
      vertex -13.0718 -58.9282 0
      vertex -11.3812 -56 0
    endloop
  endfacet
  facet normal 0 0 -1
    outer loop
      vertex -14.5784 -61.5255 0
      vertex -13.0718 -58.9282 0
      vertex -11.7974 -60.9344 0
    endloop
  endfacet
  facet normal 0 0 -1
    outer loop
      vertex -14.5784 -61.5255 0
      vertex -16 -57.2376 0
      vertex -13.0718 -58.9282 0
    endloop
  endfacet
  facet normal 0 0 -1
    outer loop
      vertex -17.4216 -61.5255 0
      vertex -16 -57.2376 0
      vertex -14.5784 -61.5255 0
    endloop
  endfacet
  facet normal 0 0 -1
    outer loop
      vertex -17.4216 -61.5255 0
      vertex -18.9282 -58.9282 0
      vertex -16 -57.2376 0
    endloop
  endfacet
  facet normal 0 0 -1
    outer loop
      vertex -20.2026 -60.9344 0
      vertex -18.9282 -58.9282 0
      vertex -17.4216 -61.5255 0
    endloop
  endfacet
  facet normal 0 0 -1
    outer loop
      vertex -22.8 -59.7779 0
      vertex -18.9282 -58.9282 0
      vertex -20.2026 -60.9344 0
    endloop
  endfacet
  facet normal -0 0 -1
    outer loop
      vertex -18.9282 -58.9282 0
      vertex -22.8 -59.7779 0
      vertex -20.6188 -56 0
    endloop
  endfacet
  facet normal 0 0 -1
    outer loop
      vertex -22.8 -59.7779 0
      vertex -24 -56 0
      vertex -20.6188 -56 0
    endloop
  endfacet
  facet normal 0 0 -1
    outer loop
      vertex -25.1002 -58.1068 0
      vertex -24 -56 0
      vertex -22.8 -59.7779 0
    endloop
  endfacet
  facet normal 0 0 -1
    outer loop
      vertex -27.0026 -55.9939 0
      vertex -24 -56 0
      vertex -25.1002 -58.1068 0
    endloop
  endfacet
  facet normal 0 0 -1
    outer loop
      vertex -24 -56 0
      vertex -27.0026 -55.9939 0
      vertex -24 -52.6188 0
    endloop
  endfacet
  facet normal -0 0 -1
    outer loop
      vertex -24 -52.6188 0
      vertex -28.4242 -53.5316 0
      vertex -26.9282 -50.9282 0
    endloop
  endfacet
  facet normal 0 0 -1
    outer loop
      vertex -28.4242 -53.5316 0
      vertex -24 -52.6188 0
      vertex -27.0026 -55.9939 0
    endloop
  endfacet
  facet normal 0 0 -1
    outer loop
      vertex -8 -56 0
      vertex -4.99737 -55.9939 0
      vertex -6.89982 -58.1068 0
    endloop
  endfacet
  facet normal 0 0 -1
    outer loop
      vertex -8 -52.6188 0
      vertex -4.99737 -55.9939 0
      vertex -8 -56 0
    endloop
  endfacet
  facet normal 0 0 -1
    outer loop
      vertex -4.99737 -55.9939 0
      vertex -8 -52.6188 0
      vertex -5.0718 -50.9282 0
    endloop
  endfacet
  facet normal 0 0 -1
    outer loop
      vertex -5.0718 -50.9282 0
      vertex -2.69719 -50.8276 0
      vertex -3.57578 -53.5316 0
    endloop
  endfacet
  facet normal 0 0 -1
    outer loop
      vertex -5.0718 -50.9282 0
      vertex -3.57578 -53.5316 0
      vertex -4.99737 -55.9939 0
    endloop
  endfacet
  facet normal -0 0 -1
    outer loop
      vertex -2.69719 -50.8276 0
      vertex -5.0718 -50.9282 0
      vertex -2.66276 -50.5 0
    endloop
  endfacet
  facet normal -0 0 -1
    outer loop
      vertex -2.66276 -50.5 0
      vertex -5.0718 -50.9282 0
      vertex -5.31902 -50.5 0
    endloop
  endfacet
  facet normal -0 0 -1
    outer loop
      vertex -25.2376 -48 0
      vertex -26.9282 -50.9282 0
      vertex -26.9282 -45.0718 0
    endloop
  endfacet
  facet normal 0 0 -1
    outer loop
      vertex -27.0026 -40.0061 0
      vertex -24 -40 0
      vertex -24 -43.3812 0
    endloop
  endfacet
  facet normal 0 0 -1
    outer loop
      vertex -28.4242 -42.4684 0
      vertex -24 -43.3812 0
      vertex -26.9282 -45.0718 0
    endloop
  endfacet
  facet normal -0 0 -1
    outer loop
      vertex -24 -40 0
      vertex -27.0026 -40.0061 0
      vertex -25.1002 -37.8932 0
    endloop
  endfacet
  facet normal 0 0 -1
    outer loop
      vertex -29.3028 -50.8276 0
      vertex -26.9282 -50.9282 0
      vertex -28.4242 -53.5316 0
    endloop
  endfacet
  facet normal 0 0 -1
    outer loop
      vertex -29.6 -48 0
      vertex -26.9282 -50.9282 0
      vertex -29.3028 -50.8276 0
    endloop
  endfacet
  facet normal 0 0 -1
    outer loop
      vertex -24 -43.3812 0
      vertex -28.4242 -42.4684 0
      vertex -27.0026 -40.0061 0
    endloop
  endfacet
  facet normal 0 0 -1
    outer loop
      vertex -26.9282 -50.9282 0
      vertex -29.6 -48 0
      vertex -26.9282 -45.0718 0
    endloop
  endfacet
  facet normal -0 0 -1
    outer loop
      vertex -26.9282 -45.0718 0
      vertex -29.3028 -45.1724 0
      vertex -28.4242 -42.4684 0
    endloop
  endfacet
  facet normal 0 0 -1
    outer loop
      vertex -26.9282 -45.0718 0
      vertex -29.6 -48 0
      vertex -29.3028 -45.1724 0
    endloop
  endfacet
  facet normal 0 0 -1
    outer loop
      vertex 21.24 -48 0
      vertex -2.66276 -45.5 0
      vertex 21.24 -45.5 0
    endloop
  endfacet
  facet normal 0 0 -1
    outer loop
      vertex -5.0718 -45.0718 0
      vertex -2.69719 -45.1724 0
      vertex -2.66276 -45.5 0
    endloop
  endfacet
  facet normal 0 0 -1
    outer loop
      vertex -3.76 -48 0
      vertex -2.66276 -45.5 0
      vertex 21.24 -48 0
    endloop
  endfacet
  facet normal 0 0 -1
    outer loop
      vertex -5.0718 -45.0718 0
      vertex -2.66276 -45.5 0
      vertex -3.76 -48 0
    endloop
  endfacet
  facet normal 0 0 -1
    outer loop
      vertex -2.69719 -45.1724 0
      vertex -5.0718 -45.0718 0
      vertex -3.57578 -42.4684 0
    endloop
  endfacet
  facet normal 0 0 -1
    outer loop
      vertex -8 -43.3812 0
      vertex -3.57578 -42.4684 0
      vertex -5.0718 -45.0718 0
    endloop
  endfacet
  facet normal 0 -0 -1
    outer loop
      vertex -5.0718 -45.0718 0
      vertex -3.76 -48 0
      vertex -6.7624 -48 0
    endloop
  endfacet
  facet normal -0 0 -1
    outer loop
      vertex -3.57578 -42.4684 0
      vertex -8 -43.3812 0
      vertex -4.99737 -40.0061 0
    endloop
  endfacet
  facet normal -0 0 -1
    outer loop
      vertex -4.99737 -40.0061 0
      vertex -8 -43.3812 0
      vertex -8 -40 0
    endloop
  endfacet
  facet normal 0 0 -1
    outer loop
      vertex -4.99737 -40.0061 0
      vertex -8 -40 0
      vertex -6.89982 -37.8932 0
    endloop
  endfacet
  facet normal 0 0 -1
    outer loop
      vertex -8 -40 0
      vertex -9.2 -36.2221 0
      vertex -6.89982 -37.8932 0
    endloop
  endfacet
  facet normal 0 0 -1
    outer loop
      vertex -11.3812 -40 0
      vertex -9.2 -36.2221 0
      vertex -8 -40 0
    endloop
  endfacet
  facet normal 0 0 -1
    outer loop
      vertex -13.0718 -37.0718 0
      vertex -9.2 -36.2221 0
      vertex -11.3812 -40 0
    endloop
  endfacet
  facet normal -0 0 -1
    outer loop
      vertex -9.2 -36.2221 0
      vertex -13.0718 -37.0718 0
      vertex -11.7974 -35.0656 0
    endloop
  endfacet
  facet normal 0 0 -1
    outer loop
      vertex -13.0718 -37.0718 0
      vertex -14.5784 -34.4745 0
      vertex -11.7974 -35.0656 0
    endloop
  endfacet
  facet normal 0 0 -1
    outer loop
      vertex -16 -38.7624 0
      vertex -14.5784 -34.4745 0
      vertex -13.0718 -37.0718 0
    endloop
  endfacet
  facet normal 0 0 -1
    outer loop
      vertex -16 -38.7624 0
      vertex -17.4216 -34.4745 0
      vertex -14.5784 -34.4745 0
    endloop
  endfacet
  facet normal 0 0 -1
    outer loop
      vertex -18.9282 -37.0718 0
      vertex -17.4216 -34.4745 0
      vertex -16 -38.7624 0
    endloop
  endfacet
  facet normal 0 0 -1
    outer loop
      vertex -18.9282 -37.0718 0
      vertex -20.2026 -35.0656 0
      vertex -17.4216 -34.4745 0
    endloop
  endfacet
  facet normal 0 0 -1
    outer loop
      vertex -22.8 -36.2221 0
      vertex -18.9282 -37.0718 0
      vertex -20.6188 -40 0
    endloop
  endfacet
  facet normal 0 0 -1
    outer loop
      vertex -18.9282 -37.0718 0
      vertex -22.8 -36.2221 0
      vertex -20.2026 -35.0656 0
    endloop
  endfacet
  facet normal 0 0 -1
    outer loop
      vertex -24 -40 0
      vertex -22.8 -36.2221 0
      vertex -20.6188 -40 0
    endloop
  endfacet
  facet normal 0 0 -1
    outer loop
      vertex -22.8 -36.2221 0
      vertex -24 -40 0
      vertex -25.1002 -37.8932 0
    endloop
  endfacet
  facet normal -0.994522 -0.104531 0
    outer loop
      vertex -29.3028 -50.8276 0
      vertex -29.6 -48 16
      vertex -29.6 -48 0
    endloop
  endfacet
  facet normal -0.994522 -0.104531 0
    outer loop
      vertex -29.6 -48 16
      vertex -29.3028 -50.8276 0
      vertex -29.3028 -50.8276 16
    endloop
  endfacet
  facet normal 1 -0 0
    outer loop
      vertex -9.2 -50.5 16
      vertex -9.2 -48 12.8
      vertex -9.2 -48 16
    endloop
  endfacet
  facet normal 1 0 0
    outer loop
      vertex -9.2 -48 12.8
      vertex -9.2 -50.5 16
      vertex -9.2 -50.5 12.8
    endloop
  endfacet
  facet normal 0 -1 0
    outer loop
      vertex -3.76 -48 16
      vertex 21.24 -48 25
      vertex -3.76 -48 25
    endloop
  endfacet
  facet normal 0 -1 0
    outer loop
      vertex 21.24 -48 0
      vertex -3.76 -48 16
      vertex -3.76 -48 0
    endloop
  endfacet
  facet normal 0 -1 0
    outer loop
      vertex -3.76 -48 16
      vertex 21.24 -48 0
      vertex 21.24 -48 25
    endloop
  endfacet
  facet normal 0 -1 0
    outer loop
      vertex -6.7624 -48 12.8
      vertex -9.2 -48 16
      vertex -9.2 -48 12.8
    endloop
  endfacet
  facet normal 0 -1 0
    outer loop
      vertex -9.2 -48 16
      vertex -6.7624 -48 12.8
      vertex -3.76 -48 16
    endloop
  endfacet
  facet normal 0 -1 0
    outer loop
      vertex -3.76 -48 0
      vertex -6.7624 -48 12.8
      vertex -6.7624 -48 0
    endloop
  endfacet
  facet normal 0 -1 0
    outer loop
      vertex -6.7624 -48 12.8
      vertex -3.76 -48 0
      vertex -3.76 -48 16
    endloop
  endfacet
  facet normal 0 1 0
    outer loop
      vertex -2.66276 -50.5 16
      vertex -5.31902 -50.5 12.8
      vertex -9.2 -50.5 16
    endloop
  endfacet
  facet normal 0 1 -0
    outer loop
      vertex -2.66276 -50.5 0
      vertex -5.31902 -50.5 12.8
      vertex -2.66276 -50.5 16
    endloop
  endfacet
  facet normal 0 1 0
    outer loop
      vertex -5.31902 -50.5 12.8
      vertex -2.66276 -50.5 0
      vertex -5.31902 -50.5 0
    endloop
  endfacet
  facet normal 0 1 0
    outer loop
      vertex -9.2 -50.5 16
      vertex -5.31902 -50.5 12.8
      vertex -9.2 -50.5 12.8
    endloop
  endfacet
  facet normal 1 -0 0
    outer loop
      vertex 21.24 -48 25
      vertex 21.24 -45.5 0
      vertex 21.24 -45.5 25
    endloop
  endfacet
  facet normal 1 0 0
    outer loop
      vertex 21.24 -45.5 0
      vertex 21.24 -48 25
      vertex 21.24 -48 0
    endloop
  endfacet
  facet normal -0 0 1
    outer loop
      vertex -3.76 -45.5 25
      vertex 21.24 -48 25
      vertex 21.24 -45.5 25
    endloop
  endfacet
  facet normal 0 0 1
    outer loop
      vertex 21.24 -48 25
      vertex -3.76 -45.5 25
      vertex -3.76 -48 25
    endloop
  endfacet
  facet normal -1 0 0
    outer loop
      vertex -3.76 -48 16
      vertex -3.76 -45.5 25
      vertex -3.76 -45.5 16
    endloop
  endfacet
  facet normal -1 -0 0
    outer loop
      vertex -3.76 -45.5 25
      vertex -3.76 -48 16
      vertex -3.76 -48 25
    endloop
  endfacet
  facet normal 0 1 0
    outer loop
      vertex 21.24 -45.5 25
      vertex -2.66276 -45.5 16
      vertex -3.76 -45.5 25
    endloop
  endfacet
  facet normal 0 1 -0
    outer loop
      vertex 21.24 -45.5 0
      vertex -2.66276 -45.5 16
      vertex 21.24 -45.5 25
    endloop
  endfacet
  facet normal 0 1 0
    outer loop
      vertex -2.66276 -45.5 16
      vertex 21.24 -45.5 0
      vertex -2.66276 -45.5 0
    endloop
  endfacet
  facet normal 0 1 0
    outer loop
      vertex -3.76 -45.5 25
      vertex -2.66276 -45.5 16
      vertex -3.76 -45.5 16
    endloop
  endfacet
  facet normal -1 0 0
    outer loop
      vertex -8 -11.3812 0
      vertex -8 -8 12.8
      vertex -8 -8 0
    endloop
  endfacet
  facet normal -1 -0 0
    outer loop
      vertex -8 -8 12.8
      vertex -8 -11.3812 0
      vertex -8 -11.3812 12.8
    endloop
  endfacet
  facet normal -1 0 0
    outer loop
      vertex -8 -24 0
      vertex -8 -20.6188 12.8
      vertex -8 -20.6188 0
    endloop
  endfacet
  facet normal -1 -0 0
    outer loop
      vertex -8 -20.6188 12.8
      vertex -8 -24 0
      vertex -8 -24 12.8
    endloop
  endfacet
  facet normal 0 0 -1
    outer loop
      vertex -8.23247 -17.9145 12.8
      vertex -5.0718 -18.9282 12.8
      vertex -8 -20.6188 12.8
    endloop
  endfacet
  facet normal 0 0 -1
    outer loop
      vertex -5.0718 -18.9282 12.8
      vertex -8.23247 -17.9145 12.8
      vertex -6.7624 -16 12.8
    endloop
  endfacet
  facet normal 0 0 -1
    outer loop
      vertex -8.23247 -14.0855 12.8
      vertex -6.7624 -16 12.8
      vertex -8 -16 12.8
    endloop
  endfacet
  facet normal 0 0 -1
    outer loop
      vertex -6.7624 -16 12.8
      vertex -8.23247 -14.0855 12.8
      vertex -5.0718 -13.0718 12.8
    endloop
  endfacet
  facet normal -0 0 -1
    outer loop
      vertex -5.0718 -13.0718 12.8
      vertex -8.23247 -14.0855 12.8
      vertex -8 -11.3812 12.8
    endloop
  endfacet
  facet normal 0 0 -1
    outer loop
      vertex -8.91635 -12.2822 12.8
      vertex -8 -11.3812 12.8
      vertex -8.23247 -14.0855 12.8
    endloop
  endfacet
  facet normal 0 0 -1
    outer loop
      vertex -10.0119 -10.695 12.8
      vertex -8 -11.3812 12.8
      vertex -8.91635 -12.2822 12.8
    endloop
  endfacet
  facet normal 0 0 -1
    outer loop
      vertex -8 -11.3812 12.8
      vertex -10.0119 -10.695 12.8
      vertex -8 -8 12.8
    endloop
  endfacet
  facet normal 0 0 -1
    outer loop
      vertex -11.4555 -9.41613 12.8
      vertex -8 -8 12.8
      vertex -10.0119 -10.695 12.8
    endloop
  endfacet
  facet normal -0 0 -1
    outer loop
      vertex -8 -8 12.8
      vertex -11.4555 -9.41613 12.8
      vertex -11.3812 -8 12.8
    endloop
  endfacet
  facet normal 0 0 -1
    outer loop
      vertex -13.1632 -8.51987 12.8
      vertex -11.3812 -8 12.8
      vertex -11.4555 -9.41613 12.8
    endloop
  endfacet
  facet normal -0 0 -1
    outer loop
      vertex -11.3812 -8 12.8
      vertex -13.1632 -8.51987 12.8
      vertex -13.0718 -5.0718 12.8
    endloop
  endfacet
  facet normal 0 0 -1
    outer loop
      vertex -15.0357 -8.05833 12.8
      vertex -13.0718 -5.0718 12.8
      vertex -13.1632 -8.51987 12.8
    endloop
  endfacet
  facet normal 0 0 -1
    outer loop
      vertex -15.0357 -8.05833 12.8
      vertex -16 -6.7624 12.8
      vertex -13.0718 -5.0718 12.8
    endloop
  endfacet
  facet normal 0 0 -1
    outer loop
      vertex -16.9643 -8.05833 12.8
      vertex -16 -6.7624 12.8
      vertex -15.0357 -8.05833 12.8
    endloop
  endfacet
  facet normal 0 0 -1
    outer loop
      vertex -18.9282 -5.0718 12.8
      vertex -16.9643 -8.05833 12.8
      vertex -18.8368 -8.51987 12.8
    endloop
  endfacet
  facet normal 0 0 -1
    outer loop
      vertex -16.9643 -8.05833 12.8
      vertex -18.9282 -5.0718 12.8
      vertex -16 -6.7624 12.8
    endloop
  endfacet
  facet normal 0 0 -1
    outer loop
      vertex -20.6188 -8 12.8
      vertex -18.8368 -8.51987 12.8
      vertex -20.5445 -9.41613 12.8
    endloop
  endfacet
  facet normal 0 0 -1
    outer loop
      vertex -18.8368 -8.51987 12.8
      vertex -20.6188 -8 12.8
      vertex -18.9282 -5.0718 12.8
    endloop
  endfacet
  facet normal 0 0 -1
    outer loop
      vertex -24 -8 12.8
      vertex -20.5445 -9.41613 12.8
      vertex -21.9881 -10.695 12.8
    endloop
  endfacet
  facet normal 0 0 -1
    outer loop
      vertex -24 -11.3812 12.8
      vertex -21.9881 -10.695 12.8
      vertex -23.0836 -12.2822 12.8
    endloop
  endfacet
  facet normal 0 0 -1
    outer loop
      vertex -25.2376 -16 12.8
      vertex -23.7675 -14.0855 12.8
      vertex -24 -16 12.8
    endloop
  endfacet
  facet normal 0 0 -1
    outer loop
      vertex -24 -11.3812 12.8
      vertex -23.0836 -12.2822 12.8
      vertex -23.7675 -14.0855 12.8
    endloop
  endfacet
  facet normal 0 0 -1
    outer loop
      vertex -24 -8 12.8
      vertex -21.9881 -10.695 12.8
      vertex -24 -11.3812 12.8
    endloop
  endfacet
  facet normal 0 0 -1
    outer loop
      vertex -20.5445 -9.41613 12.8
      vertex -24 -8 12.8
      vertex -20.6188 -8 12.8
    endloop
  endfacet
  facet normal 0 0 -1
    outer loop
      vertex -23.7675 -14.0855 12.8
      vertex -26.9282 -13.0718 12.8
      vertex -24 -11.3812 12.8
    endloop
  endfacet
  facet normal 0 0 -1
    outer loop
      vertex -10.0119 -21.305 12.8
      vertex -8 -20.6188 12.8
      vertex -8 -24 12.8
    endloop
  endfacet
  facet normal -0 0 -1
    outer loop
      vertex -6.7624 -16 12.8
      vertex -8.23247 -17.9145 12.8
      vertex -8 -16 12.8
    endloop
  endfacet
  facet normal 0 0 -1
    outer loop
      vertex -8 -20.6188 12.8
      vertex -8.91635 -19.7178 12.8
      vertex -8.23247 -17.9145 12.8
    endloop
  endfacet
  facet normal -0 0 -1
    outer loop
      vertex -8 -20.6188 12.8
      vertex -10.0119 -21.305 12.8
      vertex -8.91635 -19.7178 12.8
    endloop
  endfacet
  facet normal 0 0 -1
    outer loop
      vertex -11.4555 -22.5839 12.8
      vertex -8 -24 12.8
      vertex -11.3812 -24 12.8
    endloop
  endfacet
  facet normal 0 0 -1
    outer loop
      vertex -8 -24 12.8
      vertex -11.4555 -22.5839 12.8
      vertex -10.0119 -21.305 12.8
    endloop
  endfacet
  facet normal 0 0 -1
    outer loop
      vertex -13.1632 -23.4801 12.8
      vertex -11.3812 -24 12.8
      vertex -13.0718 -26.9282 12.8
    endloop
  endfacet
  facet normal 0 0 -1
    outer loop
      vertex -11.3812 -24 12.8
      vertex -13.1632 -23.4801 12.8
      vertex -11.4555 -22.5839 12.8
    endloop
  endfacet
  facet normal 0 0 -1
    outer loop
      vertex -13.0718 -26.9282 12.8
      vertex -15.0357 -23.9417 12.8
      vertex -13.1632 -23.4801 12.8
    endloop
  endfacet
  facet normal 0 0 -1
    outer loop
      vertex -16 -25.2376 12.8
      vertex -15.0357 -23.9417 12.8
      vertex -13.0718 -26.9282 12.8
    endloop
  endfacet
  facet normal 0 0 -1
    outer loop
      vertex -16 -25.2376 12.8
      vertex -16.9643 -23.9417 12.8
      vertex -15.0357 -23.9417 12.8
    endloop
  endfacet
  facet normal 0 0 -1
    outer loop
      vertex -18.9282 -26.9282 12.8
      vertex -16.9643 -23.9417 12.8
      vertex -16 -25.2376 12.8
    endloop
  endfacet
  facet normal -0 0 -1
    outer loop
      vertex -16.9643 -23.9417 12.8
      vertex -18.9282 -26.9282 12.8
      vertex -18.8368 -23.4801 12.8
    endloop
  endfacet
  facet normal 0 0 -1
    outer loop
      vertex -20.6188 -24 12.8
      vertex -18.8368 -23.4801 12.8
      vertex -18.9282 -26.9282 12.8
    endloop
  endfacet
  facet normal -0 0 -1
    outer loop
      vertex -18.8368 -23.4801 12.8
      vertex -20.6188 -24 12.8
      vertex -20.5445 -22.5839 12.8
    endloop
  endfacet
  facet normal 0 0 -1
    outer loop
      vertex -24 -24 12.8
      vertex -20.5445 -22.5839 12.8
      vertex -20.6188 -24 12.8
    endloop
  endfacet
  facet normal -0 0 -1
    outer loop
      vertex -20.5445 -22.5839 12.8
      vertex -24 -24 12.8
      vertex -21.9881 -21.305 12.8
    endloop
  endfacet
  facet normal -0 0 -1
    outer loop
      vertex -21.9881 -21.305 12.8
      vertex -24 -24 12.8
      vertex -24 -20.6188 12.8
    endloop
  endfacet
  facet normal 0 0 -1
    outer loop
      vertex -21.9881 -21.305 12.8
      vertex -24 -20.6188 12.8
      vertex -23.0836 -19.7178 12.8
    endloop
  endfacet
  facet normal -0 0 -1
    outer loop
      vertex -23.0836 -19.7178 12.8
      vertex -24 -20.6188 12.8
      vertex -23.7675 -17.9145 12.8
    endloop
  endfacet
  facet normal 0 0 -1
    outer loop
      vertex -26.9282 -18.9282 12.8
      vertex -23.7675 -17.9145 12.8
      vertex -24 -20.6188 12.8
    endloop
  endfacet
  facet normal 0 0 -1
    outer loop
      vertex -23.7675 -17.9145 12.8
      vertex -25.2376 -16 12.8
      vertex -24 -16 12.8
    endloop
  endfacet
  facet normal 0 0 -1
    outer loop
      vertex -26.9282 -13.0718 12.8
      vertex -23.7675 -14.0855 12.8
      vertex -25.2376 -16 12.8
    endloop
  endfacet
  facet normal -0 0 -1
    outer loop
      vertex -23.7675 -17.9145 12.8
      vertex -26.9282 -18.9282 12.8
      vertex -25.2376 -16 12.8
    endloop
  endfacet
  facet normal 1 -0 0
    outer loop
      vertex -24 -11.3812 12.8
      vertex -24 -8 0
      vertex -24 -8 12.8
    endloop
  endfacet
  facet normal 1 0 0
    outer loop
      vertex -24 -8 0
      vertex -24 -11.3812 12.8
      vertex -24 -11.3812 0
    endloop
  endfacet
  facet normal 1 -0 0
    outer loop
      vertex -24 -24 12.8
      vertex -24 -20.6188 0
      vertex -24 -20.6188 12.8
    endloop
  endfacet
  facet normal 1 0 0
    outer loop
      vertex -24 -20.6188 0
      vertex -24 -24 12.8
      vertex -24 -24 0
    endloop
  endfacet
  facet normal 0 -1 0
    outer loop
      vertex -24 -8 0
      vertex -20.6188 -8 12.8
      vertex -24 -8 12.8
    endloop
  endfacet
  facet normal 0 -1 -0
    outer loop
      vertex -20.6188 -8 12.8
      vertex -24 -8 0
      vertex -20.6188 -8 0
    endloop
  endfacet
  facet normal 0 -1 0
    outer loop
      vertex -11.3812 -8 0
      vertex -8 -8 12.8
      vertex -11.3812 -8 12.8
    endloop
  endfacet
  facet normal 0 -1 -0
    outer loop
      vertex -8 -8 12.8
      vertex -11.3812 -8 0
      vertex -8 -8 0
    endloop
  endfacet
  facet normal 0 1 -0
    outer loop
      vertex -20.6188 -24 0
      vertex -24 -24 12.8
      vertex -20.6188 -24 12.8
    endloop
  endfacet
  facet normal 0 1 0
    outer loop
      vertex -24 -24 12.8
      vertex -20.6188 -24 0
      vertex -24 -24 0
    endloop
  endfacet
  facet normal 0 1 -0
    outer loop
      vertex -8 -24 0
      vertex -11.3812 -24 12.8
      vertex -8 -24 12.8
    endloop
  endfacet
  facet normal 0 1 0
    outer loop
      vertex -11.3812 -24 12.8
      vertex -8 -24 0
      vertex -11.3812 -24 0
    endloop
  endfacet
  facet normal 0.866025 0.500001 0
    outer loop
      vertex -25.2376 -16 12.8
      vertex -26.9282 -13.0718 0
      vertex -26.9282 -13.0718 12.8
    endloop
  endfacet
  facet normal 0.866025 0.500001 0
    outer loop
      vertex -26.9282 -13.0718 0
      vertex -25.2376 -16 12.8
      vertex -25.2376 -16 0
    endloop
  endfacet
  facet normal 0.866025 0.500001 0
    outer loop
      vertex -18.9282 -26.9282 12.8
      vertex -20.6188 -24 0
      vertex -20.6188 -24 12.8
    endloop
  endfacet
  facet normal 0.866025 0.500001 0
    outer loop
      vertex -20.6188 -24 0
      vertex -18.9282 -26.9282 12.8
      vertex -18.9282 -26.9282 0
    endloop
  endfacet
  facet normal 0.500001 -0.866025 0
    outer loop
      vertex -16 -6.7624 0
      vertex -13.0718 -5.0718 12.8
      vertex -16 -6.7624 12.8
    endloop
  endfacet
  facet normal 0.500001 -0.866025 0
    outer loop
      vertex -13.0718 -5.0718 12.8
      vertex -16 -6.7624 0
      vertex -13.0718 -5.0718 0
    endloop
  endfacet
  facet normal 0.500001 -0.866025 0
    outer loop
      vertex -26.9282 -13.0718 0
      vertex -24 -11.3812 12.8
      vertex -26.9282 -13.0718 12.8
    endloop
  endfacet
  facet normal 0.500001 -0.866025 0
    outer loop
      vertex -24 -11.3812 12.8
      vertex -26.9282 -13.0718 0
      vertex -24 -11.3812 0
    endloop
  endfacet
  facet normal -0.500001 0.866025 0
    outer loop
      vertex -5.0718 -18.9282 0
      vertex -8 -20.6188 12.8
      vertex -5.0718 -18.9282 12.8
    endloop
  endfacet
  facet normal -0.500001 0.866025 0
    outer loop
      vertex -8 -20.6188 12.8
      vertex -5.0718 -18.9282 0
      vertex -8 -20.6188 0
    endloop
  endfacet
  facet normal -0.500001 0.866025 0
    outer loop
      vertex -16 -25.2376 0
      vertex -18.9282 -26.9282 12.8
      vertex -16 -25.2376 12.8
    endloop
  endfacet
  facet normal -0.500001 0.866025 0
    outer loop
      vertex -18.9282 -26.9282 12.8
      vertex -16 -25.2376 0
      vertex -18.9282 -26.9282 0
    endloop
  endfacet
  facet normal -0.866025 -0.500001 0
    outer loop
      vertex -11.3812 -8 0
      vertex -13.0718 -5.0718 12.8
      vertex -13.0718 -5.0718 0
    endloop
  endfacet
  facet normal -0.866025 -0.500001 0
    outer loop
      vertex -13.0718 -5.0718 12.8
      vertex -11.3812 -8 0
      vertex -11.3812 -8 12.8
    endloop
  endfacet
  facet normal -0.866025 -0.500001 0
    outer loop
      vertex -5.0718 -18.9282 0
      vertex -6.7624 -16 12.8
      vertex -6.7624 -16 0
    endloop
  endfacet
  facet normal -0.866025 -0.500001 0
    outer loop
      vertex -6.7624 -16 12.8
      vertex -5.0718 -18.9282 0
      vertex -5.0718 -18.9282 12.8
    endloop
  endfacet
  facet normal 0.500001 0.866025 -0
    outer loop
      vertex -24 -20.6188 0
      vertex -26.9282 -18.9282 12.8
      vertex -24 -20.6188 12.8
    endloop
  endfacet
  facet normal 0.500001 0.866025 0
    outer loop
      vertex -26.9282 -18.9282 12.8
      vertex -24 -20.6188 0
      vertex -26.9282 -18.9282 0
    endloop
  endfacet
  facet normal 0.500001 0.866025 -0
    outer loop
      vertex -13.0718 -26.9282 0
      vertex -16 -25.2376 12.8
      vertex -13.0718 -26.9282 12.8
    endloop
  endfacet
  facet normal 0.500001 0.866025 0
    outer loop
      vertex -16 -25.2376 12.8
      vertex -13.0718 -26.9282 0
      vertex -16 -25.2376 0
    endloop
  endfacet
  facet normal 0.866025 -0.500001 0
    outer loop
      vertex -20.6188 -8 12.8
      vertex -18.9282 -5.0718 0
      vertex -18.9282 -5.0718 12.8
    endloop
  endfacet
  facet normal 0.866025 -0.500001 0
    outer loop
      vertex -18.9282 -5.0718 0
      vertex -20.6188 -8 12.8
      vertex -20.6188 -8 0
    endloop
  endfacet
  facet normal 0.866025 -0.500001 0
    outer loop
      vertex -26.9282 -18.9282 12.8
      vertex -25.2376 -16 0
      vertex -25.2376 -16 12.8
    endloop
  endfacet
  facet normal 0.866025 -0.500001 0
    outer loop
      vertex -25.2376 -16 0
      vertex -26.9282 -18.9282 12.8
      vertex -26.9282 -18.9282 0
    endloop
  endfacet
  facet normal -0.866025 0.500001 0
    outer loop
      vertex -6.7624 -16 0
      vertex -5.0718 -13.0718 12.8
      vertex -5.0718 -13.0718 0
    endloop
  endfacet
  facet normal -0.866025 0.500001 0
    outer loop
      vertex -5.0718 -13.0718 12.8
      vertex -6.7624 -16 0
      vertex -6.7624 -16 12.8
    endloop
  endfacet
  facet normal -0.866025 0.500001 0
    outer loop
      vertex -13.0718 -26.9282 0
      vertex -11.3812 -24 12.8
      vertex -11.3812 -24 0
    endloop
  endfacet
  facet normal -0.866025 0.500001 0
    outer loop
      vertex -11.3812 -24 12.8
      vertex -13.0718 -26.9282 0
      vertex -13.0718 -26.9282 12.8
    endloop
  endfacet
  facet normal -0.500001 -0.866025 0
    outer loop
      vertex -18.9282 -5.0718 0
      vertex -16 -6.7624 12.8
      vertex -18.9282 -5.0718 12.8
    endloop
  endfacet
  facet normal -0.500001 -0.866025 -0
    outer loop
      vertex -16 -6.7624 12.8
      vertex -18.9282 -5.0718 0
      vertex -16 -6.7624 0
    endloop
  endfacet
  facet normal -0.500001 -0.866025 0
    outer loop
      vertex -8 -11.3812 0
      vertex -5.0718 -13.0718 12.8
      vertex -8 -11.3812 12.8
    endloop
  endfacet
  facet normal -0.500001 -0.866025 -0
    outer loop
      vertex -5.0718 -13.0718 12.8
      vertex -8 -11.3812 0
      vertex -5.0718 -13.0718 0
    endloop
  endfacet
  facet normal 0.951056 0.309019 0
    outer loop
      vertex -2.69719 -13.1724 16
      vertex -3.57578 -10.4684 0
      vertex -3.57578 -10.4684 16
    endloop
  endfacet
  facet normal 0.951056 0.309019 0
    outer loop
      vertex -3.57578 -10.4684 0
      vertex -2.69719 -13.1724 16
      vertex -2.69719 -13.1724 0
    endloop
  endfacet
  facet normal 0.994522 0.104528 0
    outer loop
      vertex -2.4 -16 16
      vertex -2.69719 -13.1724 0
      vertex -2.69719 -13.1724 16
    endloop
  endfacet
  facet normal 0.994522 0.104528 0
    outer loop
      vertex -2.69719 -13.1724 0
      vertex -2.4 -16 16
      vertex -2.4 -16 0
    endloop
  endfacet
  facet normal 0.951056 -0.309019 0
    outer loop
      vertex -3.57578 -21.5316 16
      vertex -2.69719 -18.8276 0
      vertex -2.69719 -18.8276 16
    endloop
  endfacet
  facet normal 0.951056 -0.309019 0
    outer loop
      vertex -2.69719 -18.8276 0
      vertex -3.57578 -21.5316 16
      vertex -3.57578 -21.5316 0
    endloop
  endfacet
  facet normal -0.587764 -0.809033 0
    outer loop
      vertex -25.1002 -26.1068 0
      vertex -22.8 -27.7779 16
      vertex -25.1002 -26.1068 16
    endloop
  endfacet
  facet normal -0.587764 -0.809033 -0
    outer loop
      vertex -22.8 -27.7779 16
      vertex -25.1002 -26.1068 0
      vertex -22.8 -27.7779 0
    endloop
  endfacet
  facet normal 0.207905 -0.978149 0
    outer loop
      vertex -14.5784 -29.5255 0
      vertex -11.7974 -28.9344 16
      vertex -14.5784 -29.5255 16
    endloop
  endfacet
  facet normal 0.207905 -0.978149 0
    outer loop
      vertex -11.7974 -28.9344 16
      vertex -14.5784 -29.5255 0
      vertex -11.7974 -28.9344 0
    endloop
  endfacet
  facet normal -0.866027 -0.499997 0
    outer loop
      vertex -27.0026 -23.9939 0
      vertex -28.4242 -21.5316 16
      vertex -28.4242 -21.5316 0
    endloop
  endfacet
  facet normal -0.866027 -0.499997 0
    outer loop
      vertex -28.4242 -21.5316 16
      vertex -27.0026 -23.9939 0
      vertex -27.0026 -23.9939 16
    endloop
  endfacet
  facet normal 0.207915 0.978147 -0
    outer loop
      vertex -11.7974 -3.06563 0
      vertex -14.5784 -2.4745 16
      vertex -11.7974 -3.06563 16
    endloop
  endfacet
  facet normal 0.207915 0.978147 0
    outer loop
      vertex -14.5784 -2.4745 16
      vertex -11.7974 -3.06563 0
      vertex -14.5784 -2.4745 0
    endloop
  endfacet
  facet normal -0.207905 -0.978149 0
    outer loop
      vertex -20.2026 -28.9344 0
      vertex -17.4216 -29.5255 16
      vertex -20.2026 -28.9344 16
    endloop
  endfacet
  facet normal -0.207905 -0.978149 -0
    outer loop
      vertex -17.4216 -29.5255 16
      vertex -20.2026 -28.9344 0
      vertex -17.4216 -29.5255 0
    endloop
  endfacet
  facet normal 0.587783 0.809018 -0
    outer loop
      vertex -6.89982 -5.89323 0
      vertex -9.2 -4.22206 16
      vertex -6.89982 -5.89323 16
    endloop
  endfacet
  facet normal 0.587783 0.809018 0
    outer loop
      vertex -9.2 -4.22206 16
      vertex -6.89982 -5.89323 0
      vertex -9.2 -4.22206 0
    endloop
  endfacet
  facet normal 0.406735 0.913546 -0
    outer loop
      vertex -9.2 -4.22206 0
      vertex -11.7974 -3.06563 16
      vertex -9.2 -4.22206 16
    endloop
  endfacet
  facet normal 0.406735 0.913546 0
    outer loop
      vertex -11.7974 -3.06563 16
      vertex -9.2 -4.22206 0
      vertex -11.7974 -3.06563 0
    endloop
  endfacet
  facet normal -0.951055 0.309022 0
    outer loop
      vertex -29.3028 -13.1724 0
      vertex -28.4242 -10.4684 16
      vertex -28.4242 -10.4684 0
    endloop
  endfacet
  facet normal -0.951055 0.309022 0
    outer loop
      vertex -28.4242 -10.4684 16
      vertex -29.3028 -13.1724 0
      vertex -29.3028 -13.1724 16
    endloop
  endfacet
  facet normal -0.406755 -0.913537 0
    outer loop
      vertex -22.8 -27.7779 0
      vertex -20.2026 -28.9344 16
      vertex -22.8 -27.7779 16
    endloop
  endfacet
  facet normal -0.406755 -0.913537 -0
    outer loop
      vertex -20.2026 -28.9344 16
      vertex -22.8 -27.7779 0
      vertex -20.2026 -28.9344 0
    endloop
  endfacet
  facet normal -0.866025 0.500001 0
    outer loop
      vertex -28.4242 -10.4684 0
      vertex -27.0026 -8.00612 16
      vertex -27.0026 -8.00612 0
    endloop
  endfacet
  facet normal -0.866025 0.500001 0
    outer loop
      vertex -27.0026 -8.00612 16
      vertex -28.4242 -10.4684 0
      vertex -28.4242 -10.4684 16
    endloop
  endfacet
  facet normal 0.587767 -0.80903 0
    outer loop
      vertex -9.2 -27.7779 0
      vertex -6.89982 -26.1068 16
      vertex -9.2 -27.7779 16
    endloop
  endfacet
  facet normal 0.587767 -0.80903 0
    outer loop
      vertex -6.89982 -26.1068 16
      vertex -9.2 -27.7779 0
      vertex -6.89982 -26.1068 0
    endloop
  endfacet
  facet normal -0.207915 0.978147 0
    outer loop
      vertex -17.4216 -2.4745 0
      vertex -20.2026 -3.06563 16
      vertex -17.4216 -2.4745 16
    endloop
  endfacet
  facet normal -0.207915 0.978147 0
    outer loop
      vertex -20.2026 -3.06563 16
      vertex -17.4216 -2.4745 0
      vertex -20.2026 -3.06563 0
    endloop
  endfacet
  facet normal 0.994522 -0.104528 0
    outer loop
      vertex -2.69719 -18.8276 16
      vertex -2.4 -16 0
      vertex -2.4 -16 16
    endloop
  endfacet
  facet normal 0.994522 -0.104528 0
    outer loop
      vertex -2.4 -16 0
      vertex -2.69719 -18.8276 16
      vertex -2.69719 -18.8276 0
    endloop
  endfacet
  facet normal -0.743154 0.66912 0
    outer loop
      vertex -27.0026 -8.00612 0
      vertex -25.1002 -5.89323 16
      vertex -25.1002 -5.89323 0
    endloop
  endfacet
  facet normal -0.743154 0.66912 0
    outer loop
      vertex -25.1002 -5.89323 16
      vertex -27.0026 -8.00612 0
      vertex -27.0026 -8.00612 16
    endloop
  endfacet
  facet normal 0 1 -0
    outer loop
      vertex -14.5784 -2.4745 0
      vertex -17.4216 -2.4745 16
      vertex -14.5784 -2.4745 16
    endloop
  endfacet
  facet normal 0 1 0
    outer loop
      vertex -17.4216 -2.4745 16
      vertex -14.5784 -2.4745 0
      vertex -17.4216 -2.4745 0
    endloop
  endfacet
  facet normal 0.866028 -0.499995 0
    outer loop
      vertex -4.99737 -23.9939 16
      vertex -3.57578 -21.5316 0
      vertex -3.57578 -21.5316 16
    endloop
  endfacet
  facet normal 0.866028 -0.499995 0
    outer loop
      vertex -3.57578 -21.5316 0
      vertex -4.99737 -23.9939 16
      vertex -4.99737 -23.9939 0
    endloop
  endfacet
  facet normal -0.58778 0.809021 0
    outer loop
      vertex -22.8 -4.22206 0
      vertex -25.1002 -5.89323 16
      vertex -22.8 -4.22206 16
    endloop
  endfacet
  facet normal -0.58778 0.809021 0
    outer loop
      vertex -25.1002 -5.89323 16
      vertex -22.8 -4.22206 0
      vertex -25.1002 -5.89323 0
    endloop
  endfacet
  facet normal 0.406755 -0.913537 0
    outer loop
      vertex -11.7974 -28.9344 0
      vertex -9.2 -27.7779 16
      vertex -11.7974 -28.9344 16
    endloop
  endfacet
  facet normal 0.406755 -0.913537 0
    outer loop
      vertex -9.2 -27.7779 16
      vertex -11.7974 -28.9344 0
      vertex -9.2 -27.7779 0
    endloop
  endfacet
  facet normal -0.406735 0.913546 0
    outer loop
      vertex -20.2026 -3.06563 0
      vertex -22.8 -4.22206 16
      vertex -20.2026 -3.06563 16
    endloop
  endfacet
  facet normal -0.406735 0.913546 0
    outer loop
      vertex -22.8 -4.22206 16
      vertex -20.2026 -3.06563 0
      vertex -22.8 -4.22206 0
    endloop
  endfacet
  facet normal 0.743147 -0.669128 0
    outer loop
      vertex -6.89982 -26.1068 16
      vertex -4.99737 -23.9939 0
      vertex -4.99737 -23.9939 16
    endloop
  endfacet
  facet normal 0.743147 -0.669128 0
    outer loop
      vertex -4.99737 -23.9939 0
      vertex -6.89982 -26.1068 16
      vertex -6.89982 -26.1068 0
    endloop
  endfacet
  facet normal 0.743146 0.66913 0
    outer loop
      vertex -4.99737 -8.00612 16
      vertex -6.89982 -5.89323 0
      vertex -6.89982 -5.89323 16
    endloop
  endfacet
  facet normal 0.743146 0.66913 0
    outer loop
      vertex -6.89982 -5.89323 0
      vertex -4.99737 -8.00612 16
      vertex -4.99737 -8.00612 0
    endloop
  endfacet
  facet normal -0.994522 0.104531 0
    outer loop
      vertex -29.6 -16 0
      vertex -29.3028 -13.1724 16
      vertex -29.3028 -13.1724 0
    endloop
  endfacet
  facet normal -0.994522 0.104531 0
    outer loop
      vertex -29.3028 -13.1724 16
      vertex -29.6 -16 0
      vertex -29.6 -16 16
    endloop
  endfacet
  facet normal 0.866027 0.499998 0
    outer loop
      vertex -3.57578 -10.4684 16
      vertex -4.99737 -8.00612 0
      vertex -4.99737 -8.00612 16
    endloop
  endfacet
  facet normal 0.866027 0.499998 0
    outer loop
      vertex -4.99737 -8.00612 0
      vertex -3.57578 -10.4684 16
      vertex -3.57578 -10.4684 0
    endloop
  endfacet
  facet normal 0 0 1
    outer loop
      vertex -8 -16 16
      vertex -2.4 -16 16
      vertex -2.69719 -13.1724 16
    endloop
  endfacet
  facet normal 0 0 1
    outer loop
      vertex -8 -16 16
      vertex -2.69719 -13.1724 16
      vertex -3.57578 -10.4684 16
    endloop
  endfacet
  facet normal 0 0 1
    outer loop
      vertex -2.4 -16 16
      vertex -8 -16 16
      vertex -2.69719 -18.8276 16
    endloop
  endfacet
  facet normal 0 0 1
    outer loop
      vertex -8 -8 16
      vertex -3.57578 -10.4684 16
      vertex -4.99737 -8.00612 16
    endloop
  endfacet
  facet normal 0 0 1
    outer loop
      vertex -2.69719 -18.8276 16
      vertex -8 -16 16
      vertex -3.57578 -21.5316 16
    endloop
  endfacet
  facet normal -0 0 1
    outer loop
      vertex -8 -8 16
      vertex -4.99737 -8.00612 16
      vertex -6.89982 -5.89323 16
    endloop
  endfacet
  facet normal 0 0 1
    outer loop
      vertex -8 -24 16
      vertex -3.57578 -21.5316 16
      vertex -8 -16 16
    endloop
  endfacet
  facet normal 0 0 1
    outer loop
      vertex -3.57578 -10.4684 16
      vertex -8 -8 16
      vertex -8 -16 16
    endloop
  endfacet
  facet normal 0 0 1
    outer loop
      vertex -9.2 -4.22206 16
      vertex -8 -8 16
      vertex -6.89982 -5.89323 16
    endloop
  endfacet
  facet normal 0 0 1
    outer loop
      vertex -11.7974 -3.06563 16
      vertex -8 -8 16
      vertex -9.2 -4.22206 16
    endloop
  endfacet
  facet normal 0 0 1
    outer loop
      vertex -14.5784 -2.4745 16
      vertex -8 -8 16
      vertex -11.7974 -3.06563 16
    endloop
  endfacet
  facet normal -0 0 1
    outer loop
      vertex -17.4216 -2.4745 16
      vertex -8 -8 16
      vertex -14.5784 -2.4745 16
    endloop
  endfacet
  facet normal 0 0 1
    outer loop
      vertex -24 -8 16
      vertex -17.4216 -2.4745 16
      vertex -20.2026 -3.06563 16
    endloop
  endfacet
  facet normal 0 0 1
    outer loop
      vertex -24 -8 16
      vertex -20.2026 -3.06563 16
      vertex -22.8 -4.22206 16
    endloop
  endfacet
  facet normal 0 0 1
    outer loop
      vertex -17.4216 -2.4745 16
      vertex -24 -8 16
      vertex -8 -8 16
    endloop
  endfacet
  facet normal -0 0 1
    outer loop
      vertex -28.4242 -10.4684 16
      vertex -24 -16 16
      vertex -24 -8 16
    endloop
  endfacet
  facet normal 0 0 1
    outer loop
      vertex -27.0026 -8.00612 16
      vertex -24 -8 16
      vertex -25.1002 -5.89323 16
    endloop
  endfacet
  facet normal -0 0 1
    outer loop
      vertex -25.1002 -5.89323 16
      vertex -24 -8 16
      vertex -22.8 -4.22206 16
    endloop
  endfacet
  facet normal 0 0 1
    outer loop
      vertex -3.57578 -21.5316 16
      vertex -8 -24 16
      vertex -4.99737 -23.9939 16
    endloop
  endfacet
  facet normal 0 0 1
    outer loop
      vertex -4.99737 -23.9939 16
      vertex -8 -24 16
      vertex -6.89982 -26.1068 16
    endloop
  endfacet
  facet normal 0 0 1
    outer loop
      vertex -8 -24 16
      vertex -9.2 -27.7779 16
      vertex -6.89982 -26.1068 16
    endloop
  endfacet
  facet normal 0 0 1
    outer loop
      vertex -8 -24 16
      vertex -11.7974 -28.9344 16
      vertex -9.2 -27.7779 16
    endloop
  endfacet
  facet normal 0 0 1
    outer loop
      vertex -8 -24 16
      vertex -14.5784 -29.5255 16
      vertex -11.7974 -28.9344 16
    endloop
  endfacet
  facet normal 0 0 1
    outer loop
      vertex -8 -24 16
      vertex -17.4216 -29.5255 16
      vertex -14.5784 -29.5255 16
    endloop
  endfacet
  facet normal -0 0 1
    outer loop
      vertex -24 -24 16
      vertex -17.4216 -29.5255 16
      vertex -8 -24 16
    endloop
  endfacet
  facet normal 0 0 1
    outer loop
      vertex -17.4216 -29.5255 16
      vertex -24 -24 16
      vertex -20.2026 -28.9344 16
    endloop
  endfacet
  facet normal 0 0 1
    outer loop
      vertex -20.2026 -28.9344 16
      vertex -24 -24 16
      vertex -22.8 -27.7779 16
    endloop
  endfacet
  facet normal 0 0 1
    outer loop
      vertex -24 -24 16
      vertex -25.1002 -26.1068 16
      vertex -22.8 -27.7779 16
    endloop
  endfacet
  facet normal 0 0 1
    outer loop
      vertex -28.4242 -10.4684 16
      vertex -24 -8 16
      vertex -27.0026 -8.00612 16
    endloop
  endfacet
  facet normal 0 0 1
    outer loop
      vertex -24 -16 16
      vertex -28.4242 -10.4684 16
      vertex -29.3028 -13.1724 16
    endloop
  endfacet
  facet normal 0 0 1
    outer loop
      vertex -24 -24 16
      vertex -27.0026 -23.9939 16
      vertex -25.1002 -26.1068 16
    endloop
  endfacet
  facet normal 0 0 1
    outer loop
      vertex -24 -16 16
      vertex -29.3028 -13.1724 16
      vertex -29.6 -16 16
    endloop
  endfacet
  facet normal 0 0 1
    outer loop
      vertex -24 -24 16
      vertex -28.4242 -21.5316 16
      vertex -27.0026 -23.9939 16
    endloop
  endfacet
  facet normal 0 -0 1
    outer loop
      vertex -29.3028 -18.8276 16
      vertex -24 -16 16
      vertex -29.6 -16 16
    endloop
  endfacet
  facet normal 0 0 1
    outer loop
      vertex -24 -16 16
      vertex -28.4242 -21.5316 16
      vertex -24 -24 16
    endloop
  endfacet
  facet normal 0 -0 1
    outer loop
      vertex -28.4242 -21.5316 16
      vertex -24 -16 16
      vertex -29.3028 -18.8276 16
    endloop
  endfacet
  facet normal 0 0 -1
    outer loop
      vertex -10.5 -21.5 16
      vertex -8 -16 16
      vertex -8.23247 -17.9145 16
    endloop
  endfacet
  facet normal 0 0 -1
    outer loop
      vertex -10.5 -21.5 16
      vertex -8.23247 -17.9145 16
      vertex -8.91635 -19.7178 16
    endloop
  endfacet
  facet normal 0 0 -1
    outer loop
      vertex -10.5 -10.5 16
      vertex -8 -16 16
      vertex -10.5 -21.5 16
    endloop
  endfacet
  facet normal 0 0 -1
    outer loop
      vertex -10.5 -21.5 16
      vertex -8.91635 -19.7178 16
      vertex -10.0119 -21.305 16
    endloop
  endfacet
  facet normal 0 0 -1
    outer loop
      vertex -8 -16 16
      vertex -10.5 -10.5 16
      vertex -8.23247 -14.0855 16
    endloop
  endfacet
  facet normal 0 0 -1
    outer loop
      vertex -8.23247 -14.0855 16
      vertex -10.5 -10.5 16
      vertex -8.91635 -12.2822 16
    endloop
  endfacet
  facet normal 0 0 -1
    outer loop
      vertex -11.4555 -22.5839 16
      vertex -10.5 -21.5 16
      vertex -10.0119 -21.305 16
    endloop
  endfacet
  facet normal 0 0 -1
    outer loop
      vertex -13.1632 -23.4801 16
      vertex -10.5 -21.5 16
      vertex -11.4555 -22.5839 16
    endloop
  endfacet
  facet normal 0 0 -1
    outer loop
      vertex -15.0357 -23.9417 16
      vertex -10.5 -21.5 16
      vertex -13.1632 -23.4801 16
    endloop
  endfacet
  facet normal 0 0 -1
    outer loop
      vertex -16.9643 -23.9417 16
      vertex -10.5 -21.5 16
      vertex -15.0357 -23.9417 16
    endloop
  endfacet
  facet normal 0 0 -1
    outer loop
      vertex -21.5 -21.5 16
      vertex -16.9643 -23.9417 16
      vertex -18.8368 -23.4801 16
    endloop
  endfacet
  facet normal 0 0 -1
    outer loop
      vertex -21.5 -21.5 16
      vertex -18.8368 -23.4801 16
      vertex -20.5445 -22.5839 16
    endloop
  endfacet
  facet normal 0 0 -1
    outer loop
      vertex -16.9643 -23.9417 16
      vertex -21.5 -21.5 16
      vertex -10.5 -21.5 16
    endloop
  endfacet
  facet normal 0 0 -1
    outer loop
      vertex -23.0836 -19.7178 16
      vertex -21.5 -21.5 16
      vertex -21.9881 -21.305 16
    endloop
  endfacet
  facet normal 0 0 -1
    outer loop
      vertex -21.9881 -21.305 16
      vertex -21.5 -21.5 16
      vertex -20.5445 -22.5839 16
    endloop
  endfacet
  facet normal 0 0 -1
    outer loop
      vertex -8.91635 -12.2822 16
      vertex -10.5 -10.5 16
      vertex -10.0119 -10.695 16
    endloop
  endfacet
  facet normal 0 0 -1
    outer loop
      vertex -10.5 -10.5 16
      vertex -11.4555 -9.41613 16
      vertex -10.0119 -10.695 16
    endloop
  endfacet
  facet normal 0 0 -1
    outer loop
      vertex -10.5 -10.5 16
      vertex -13.1632 -8.51987 16
      vertex -11.4555 -9.41613 16
    endloop
  endfacet
  facet normal 0 0 -1
    outer loop
      vertex -10.5 -10.5 16
      vertex -15.0357 -8.05833 16
      vertex -13.1632 -8.51987 16
    endloop
  endfacet
  facet normal 0 0 -1
    outer loop
      vertex -10.5 -10.5 16
      vertex -16.9643 -8.05833 16
      vertex -15.0357 -8.05833 16
    endloop
  endfacet
  facet normal 0 0 -1
    outer loop
      vertex -21.5 -10.5 16
      vertex -16.9643 -8.05833 16
      vertex -10.5 -10.5 16
    endloop
  endfacet
  facet normal 0 0 -1
    outer loop
      vertex -16.9643 -8.05833 16
      vertex -21.5 -10.5 16
      vertex -18.8368 -8.51987 16
    endloop
  endfacet
  facet normal 0 0 -1
    outer loop
      vertex -18.8368 -8.51987 16
      vertex -21.5 -10.5 16
      vertex -20.5445 -9.41613 16
    endloop
  endfacet
  facet normal -0 0 -1
    outer loop
      vertex -21.5 -10.5 16
      vertex -21.9881 -10.695 16
      vertex -20.5445 -9.41613 16
    endloop
  endfacet
  facet normal 0 0 -1
    outer loop
      vertex -23.7675 -17.9145 16
      vertex -21.5 -21.5 16
      vertex -23.0836 -19.7178 16
    endloop
  endfacet
  facet normal 0 0 -1
    outer loop
      vertex -24 -16 16
      vertex -21.5 -21.5 16
      vertex -23.7675 -17.9145 16
    endloop
  endfacet
  facet normal 0 0 -1
    outer loop
      vertex -21.5 -10.5 16
      vertex -23.0836 -12.2822 16
      vertex -21.9881 -10.695 16
    endloop
  endfacet
  facet normal 0 0 -1
    outer loop
      vertex -21.5 -21.5 16
      vertex -24 -16 16
      vertex -21.5 -10.5 16
    endloop
  endfacet
  facet normal 0 0 -1
    outer loop
      vertex -21.5 -10.5 16
      vertex -23.7675 -14.0855 16
      vertex -23.0836 -12.2822 16
    endloop
  endfacet
  facet normal 0 0 -1
    outer loop
      vertex -21.5 -10.5 16
      vertex -24 -16 16
      vertex -23.7675 -14.0855 16
    endloop
  endfacet
  facet normal 0 -1 0
    outer loop
      vertex -17.4216 -29.5255 0
      vertex -14.5784 -29.5255 16
      vertex -17.4216 -29.5255 16
    endloop
  endfacet
  facet normal 0 -1 -0
    outer loop
      vertex -14.5784 -29.5255 16
      vertex -17.4216 -29.5255 0
      vertex -14.5784 -29.5255 0
    endloop
  endfacet
  facet normal -0.951055 -0.309022 0
    outer loop
      vertex -28.4242 -21.5316 0
      vertex -29.3028 -18.8276 16
      vertex -29.3028 -18.8276 0
    endloop
  endfacet
  facet normal -0.951055 -0.309022 0
    outer loop
      vertex -29.3028 -18.8276 16
      vertex -28.4242 -21.5316 0
      vertex -28.4242 -21.5316 16
    endloop
  endfacet
  facet normal -0.743156 -0.669118 0
    outer loop
      vertex -25.1002 -26.1068 0
      vertex -27.0026 -23.9939 16
      vertex -27.0026 -23.9939 0
    endloop
  endfacet
  facet normal -0.743156 -0.669118 0
    outer loop
      vertex -27.0026 -23.9939 16
      vertex -25.1002 -26.1068 0
      vertex -25.1002 -26.1068 16
    endloop
  endfacet
  facet normal 0 0 -1
    outer loop
      vertex -27.0026 -8.00612 0
      vertex -24 -8 0
      vertex -24 -11.3812 0
    endloop
  endfacet
  facet normal 0 0 -1
    outer loop
      vertex -28.4242 -10.4684 0
      vertex -24 -11.3812 0
      vertex -26.9282 -13.0718 0
    endloop
  endfacet
  facet normal -0 0 -1
    outer loop
      vertex -24 -8 0
      vertex -27.0026 -8.00612 0
      vertex -25.1002 -5.89323 0
    endloop
  endfacet
  facet normal 0 0 -1
    outer loop
      vertex -29.3028 -18.8276 0
      vertex -26.9282 -18.9282 0
      vertex -28.4242 -21.5316 0
    endloop
  endfacet
  facet normal 0 0 -1
    outer loop
      vertex -29.6 -16 0
      vertex -26.9282 -18.9282 0
      vertex -29.3028 -18.8276 0
    endloop
  endfacet
  facet normal 0 0 -1
    outer loop
      vertex -24 -11.3812 0
      vertex -28.4242 -10.4684 0
      vertex -27.0026 -8.00612 0
    endloop
  endfacet
  facet normal 0 0 -1
    outer loop
      vertex -26.9282 -18.9282 0
      vertex -29.6 -16 0
      vertex -26.9282 -13.0718 0
    endloop
  endfacet
  facet normal -0 0 -1
    outer loop
      vertex -26.9282 -13.0718 0
      vertex -29.3028 -13.1724 0
      vertex -28.4242 -10.4684 0
    endloop
  endfacet
  facet normal 0 0 -1
    outer loop
      vertex -26.9282 -13.0718 0
      vertex -29.6 -16 0
      vertex -29.3028 -13.1724 0
    endloop
  endfacet
  facet normal 0 0 -1
    outer loop
      vertex -9.2 -27.7779 0
      vertex -8 -24 0
      vertex -6.89982 -26.1068 0
    endloop
  endfacet
  facet normal 0 0 -1
    outer loop
      vertex -9.2 -27.7779 0
      vertex -11.3812 -24 0
      vertex -8 -24 0
    endloop
  endfacet
  facet normal 0 0 -1
    outer loop
      vertex -13.0718 -26.9282 0
      vertex -9.2 -27.7779 0
      vertex -11.7974 -28.9344 0
    endloop
  endfacet
  facet normal 0 0 -1
    outer loop
      vertex -9.2 -27.7779 0
      vertex -13.0718 -26.9282 0
      vertex -11.3812 -24 0
    endloop
  endfacet
  facet normal 0 0 -1
    outer loop
      vertex -14.5784 -29.5255 0
      vertex -13.0718 -26.9282 0
      vertex -11.7974 -28.9344 0
    endloop
  endfacet
  facet normal 0 0 -1
    outer loop
      vertex -14.5784 -29.5255 0
      vertex -16 -25.2376 0
      vertex -13.0718 -26.9282 0
    endloop
  endfacet
  facet normal 0 0 -1
    outer loop
      vertex -17.4216 -29.5255 0
      vertex -16 -25.2376 0
      vertex -14.5784 -29.5255 0
    endloop
  endfacet
  facet normal 0 0 -1
    outer loop
      vertex -17.4216 -29.5255 0
      vertex -18.9282 -26.9282 0
      vertex -16 -25.2376 0
    endloop
  endfacet
  facet normal 0 0 -1
    outer loop
      vertex -20.2026 -28.9344 0
      vertex -18.9282 -26.9282 0
      vertex -17.4216 -29.5255 0
    endloop
  endfacet
  facet normal 0 0 -1
    outer loop
      vertex -22.8 -27.7779 0
      vertex -18.9282 -26.9282 0
      vertex -20.2026 -28.9344 0
    endloop
  endfacet
  facet normal -0 0 -1
    outer loop
      vertex -18.9282 -26.9282 0
      vertex -22.8 -27.7779 0
      vertex -20.6188 -24 0
    endloop
  endfacet
  facet normal 0 0 -1
    outer loop
      vertex -22.8 -27.7779 0
      vertex -24 -24 0
      vertex -20.6188 -24 0
    endloop
  endfacet
  facet normal 0 0 -1
    outer loop
      vertex -25.1002 -26.1068 0
      vertex -24 -24 0
      vertex -22.8 -27.7779 0
    endloop
  endfacet
  facet normal 0 0 -1
    outer loop
      vertex -27.0026 -23.9939 0
      vertex -24 -24 0
      vertex -25.1002 -26.1068 0
    endloop
  endfacet
  facet normal 0 0 -1
    outer loop
      vertex -24 -24 0
      vertex -27.0026 -23.9939 0
      vertex -24 -20.6188 0
    endloop
  endfacet
  facet normal -0 0 -1
    outer loop
      vertex -24 -20.6188 0
      vertex -28.4242 -21.5316 0
      vertex -26.9282 -18.9282 0
    endloop
  endfacet
  facet normal 0 0 -1
    outer loop
      vertex -28.4242 -21.5316 0
      vertex -24 -20.6188 0
      vertex -27.0026 -23.9939 0
    endloop
  endfacet
  facet normal 0 0 -1
    outer loop
      vertex -2.4 -16 0
      vertex -6.7624 -16 0
      vertex -5.0718 -13.0718 0
    endloop
  endfacet
  facet normal 0 0 -1
    outer loop
      vertex -5.0718 -18.9282 0
      vertex -2.4 -16 0
      vertex -2.69719 -18.8276 0
    endloop
  endfacet
  facet normal 0 0 -1
    outer loop
      vertex -5.0718 -18.9282 0
      vertex -2.69719 -18.8276 0
      vertex -3.57578 -21.5316 0
    endloop
  endfacet
  facet normal 0 0 -1
    outer loop
      vertex -6.7624 -16 0
      vertex -2.4 -16 0
      vertex -5.0718 -18.9282 0
    endloop
  endfacet
  facet normal 0 0 -1
    outer loop
      vertex -8 -20.6188 0
      vertex -3.57578 -21.5316 0
      vertex -4.99737 -23.9939 0
    endloop
  endfacet
  facet normal 0 0 -1
    outer loop
      vertex -2.4 -16 0
      vertex -5.0718 -13.0718 0
      vertex -2.69719 -13.1724 0
    endloop
  endfacet
  facet normal 0 0 -1
    outer loop
      vertex -2.69719 -13.1724 0
      vertex -5.0718 -13.0718 0
      vertex -3.57578 -10.4684 0
    endloop
  endfacet
  facet normal 0 0 -1
    outer loop
      vertex -8 -24 0
      vertex -4.99737 -23.9939 0
      vertex -6.89982 -26.1068 0
    endloop
  endfacet
  facet normal 0 0 -1
    outer loop
      vertex -8 -20.6188 0
      vertex -4.99737 -23.9939 0
      vertex -8 -24 0
    endloop
  endfacet
  facet normal 0 0 -1
    outer loop
      vertex -3.57578 -21.5316 0
      vertex -8 -20.6188 0
      vertex -5.0718 -18.9282 0
    endloop
  endfacet
  facet normal 0 0 -1
    outer loop
      vertex -8 -11.3812 0
      vertex -3.57578 -10.4684 0
      vertex -5.0718 -13.0718 0
    endloop
  endfacet
  facet normal -0 0 -1
    outer loop
      vertex -3.57578 -10.4684 0
      vertex -8 -11.3812 0
      vertex -4.99737 -8.00612 0
    endloop
  endfacet
  facet normal -0 0 -1
    outer loop
      vertex -4.99737 -8.00612 0
      vertex -8 -11.3812 0
      vertex -8 -8 0
    endloop
  endfacet
  facet normal 0 0 -1
    outer loop
      vertex -4.99737 -8.00612 0
      vertex -8 -8 0
      vertex -6.89982 -5.89323 0
    endloop
  endfacet
  facet normal 0 0 -1
    outer loop
      vertex -8 -8 0
      vertex -9.2 -4.22206 0
      vertex -6.89982 -5.89323 0
    endloop
  endfacet
  facet normal 0 0 -1
    outer loop
      vertex -11.3812 -8 0
      vertex -9.2 -4.22206 0
      vertex -8 -8 0
    endloop
  endfacet
  facet normal 0 0 -1
    outer loop
      vertex -13.0718 -5.0718 0
      vertex -9.2 -4.22206 0
      vertex -11.3812 -8 0
    endloop
  endfacet
  facet normal -0 0 -1
    outer loop
      vertex -9.2 -4.22206 0
      vertex -13.0718 -5.0718 0
      vertex -11.7974 -3.06563 0
    endloop
  endfacet
  facet normal 0 0 -1
    outer loop
      vertex -13.0718 -5.0718 0
      vertex -14.5784 -2.4745 0
      vertex -11.7974 -3.06563 0
    endloop
  endfacet
  facet normal 0 0 -1
    outer loop
      vertex -16 -6.7624 0
      vertex -14.5784 -2.4745 0
      vertex -13.0718 -5.0718 0
    endloop
  endfacet
  facet normal 0 0 -1
    outer loop
      vertex -16 -6.7624 0
      vertex -17.4216 -2.4745 0
      vertex -14.5784 -2.4745 0
    endloop
  endfacet
  facet normal 0 0 -1
    outer loop
      vertex -18.9282 -5.0718 0
      vertex -17.4216 -2.4745 0
      vertex -16 -6.7624 0
    endloop
  endfacet
  facet normal 0 0 -1
    outer loop
      vertex -18.9282 -5.0718 0
      vertex -20.2026 -3.06563 0
      vertex -17.4216 -2.4745 0
    endloop
  endfacet
  facet normal 0 0 -1
    outer loop
      vertex -22.8 -4.22206 0
      vertex -18.9282 -5.0718 0
      vertex -20.6188 -8 0
    endloop
  endfacet
  facet normal 0 0 -1
    outer loop
      vertex -18.9282 -5.0718 0
      vertex -22.8 -4.22206 0
      vertex -20.2026 -3.06563 0
    endloop
  endfacet
  facet normal 0 0 -1
    outer loop
      vertex -24 -8 0
      vertex -22.8 -4.22206 0
      vertex -20.6188 -8 0
    endloop
  endfacet
  facet normal 0 0 -1
    outer loop
      vertex -22.8 -4.22206 0
      vertex -24 -8 0
      vertex -25.1002 -5.89323 0
    endloop
  endfacet
  facet normal -0 0 -1
    outer loop
      vertex -25.2376 -16 0
      vertex -26.9282 -18.9282 0
      vertex -26.9282 -13.0718 0
    endloop
  endfacet
  facet normal -0.994522 -0.104531 0
    outer loop
      vertex -29.3028 -18.8276 0
      vertex -29.6 -16 16
      vertex -29.6 -16 0
    endloop
  endfacet
  facet normal -0.994522 -0.104531 0
    outer loop
      vertex -29.6 -16 16
      vertex -29.3028 -18.8276 0
      vertex -29.3028 -18.8276 16
    endloop
  endfacet
  facet normal -0.464719 -0.885458 0
    outer loop
      vertex -13.1632 -8.51987 12.8
      vertex -11.4555 -9.41613 16
      vertex -13.1632 -8.51987 16
    endloop
  endfacet
  facet normal -0.464719 -0.885458 -0
    outer loop
      vertex -11.4555 -9.41613 16
      vertex -13.1632 -8.51987 12.8
      vertex -11.4555 -9.41613 12.8
    endloop
  endfacet
  facet normal 0.464719 -0.885458 0
    outer loop
      vertex -20.5445 -9.41613 12.8
      vertex -18.8368 -8.51987 16
      vertex -20.5445 -9.41613 16
    endloop
  endfacet
  facet normal 0.464719 -0.885458 0
    outer loop
      vertex -18.8368 -8.51987 16
      vertex -20.5445 -9.41613 12.8
      vertex -18.8368 -8.51987 12.8
    endloop
  endfacet
  facet normal 0.239321 -0.970941 0
    outer loop
      vertex -18.8368 -8.51987 12.8
      vertex -16.9643 -8.05833 16
      vertex -18.8368 -8.51987 16
    endloop
  endfacet
  facet normal 0.239321 -0.970941 0
    outer loop
      vertex -16.9643 -8.05833 16
      vertex -18.8368 -8.51987 12.8
      vertex -16.9643 -8.05833 12.8
    endloop
  endfacet
  facet normal -0.992708 0.120541 0
    outer loop
      vertex -8.23247 -17.9145 12.8
      vertex -8 -16 16
      vertex -8 -16 12.8
    endloop
  endfacet
  facet normal -0.992708 0.120541 0
    outer loop
      vertex -8 -16 16
      vertex -8.23247 -17.9145 12.8
      vertex -8.23247 -17.9145 16
    endloop
  endfacet
  facet normal -0.822988 0.568059 0
    outer loop
      vertex -10.0119 -21.305 12.8
      vertex -8.91635 -19.7178 16
      vertex -8.91635 -19.7178 12.8
    endloop
  endfacet
  facet normal -0.822988 0.568059 0
    outer loop
      vertex -8.91635 -19.7178 16
      vertex -10.0119 -21.305 12.8
      vertex -10.0119 -21.305 16
    endloop
  endfacet
  facet normal -0.822988 -0.568059 0
    outer loop
      vertex -8.91635 -12.2822 12.8
      vertex -10.0119 -10.695 16
      vertex -10.0119 -10.695 12.8
    endloop
  endfacet
  facet normal -0.822988 -0.568059 0
    outer loop
      vertex -10.0119 -10.695 16
      vertex -8.91635 -12.2822 12.8
      vertex -8.91635 -12.2822 16
    endloop
  endfacet
  facet normal -0.239321 -0.970941 0
    outer loop
      vertex -15.0357 -8.05833 12.8
      vertex -13.1632 -8.51987 16
      vertex -15.0357 -8.05833 16
    endloop
  endfacet
  facet normal -0.239321 -0.970941 -0
    outer loop
      vertex -13.1632 -8.51987 16
      vertex -15.0357 -8.05833 12.8
      vertex -13.1632 -8.51987 12.8
    endloop
  endfacet
  facet normal -0.23935 0.970933 0
    outer loop
      vertex -13.1632 -23.4801 12.8
      vertex -15.0357 -23.9417 16
      vertex -13.1632 -23.4801 16
    endloop
  endfacet
  facet normal -0.23935 0.970933 0
    outer loop
      vertex -15.0357 -23.9417 16
      vertex -13.1632 -23.4801 12.8
      vertex -15.0357 -23.9417 12.8
    endloop
  endfacet
  facet normal 0 -1 0
    outer loop
      vertex -16.9643 -8.05833 12.8
      vertex -15.0357 -8.05833 16
      vertex -16.9643 -8.05833 16
    endloop
  endfacet
  facet normal 0 -1 -0
    outer loop
      vertex -15.0357 -8.05833 16
      vertex -16.9643 -8.05833 12.8
      vertex -15.0357 -8.05833 12.8
    endloop
  endfacet
  facet normal 0.992707 0.120556 0
    outer loop
      vertex -23.7675 -17.9145 16
      vertex -24 -16 12.8
      vertex -24 -16 16
    endloop
  endfacet
  facet normal 0.992707 0.120556 0
    outer loop
      vertex -24 -16 12.8
      vertex -23.7675 -17.9145 16
      vertex -23.7675 -17.9145 12.8
    endloop
  endfacet
  facet normal -0.663109 -0.748523 0
    outer loop
      vertex -11.4555 -9.41613 12.8
      vertex -10.0119 -10.695 16
      vertex -11.4555 -9.41613 16
    endloop
  endfacet
  facet normal -0.663109 -0.748523 -0
    outer loop
      vertex -10.0119 -10.695 16
      vertex -11.4555 -9.41613 12.8
      vertex -10.0119 -10.695 12.8
    endloop
  endfacet
  facet normal -0.992708 -0.120541 0
    outer loop
      vertex -8 -16 12.8
      vertex -8.23247 -14.0855 16
      vertex -8.23247 -14.0855 12.8
    endloop
  endfacet
  facet normal -0.992708 -0.120541 0
    outer loop
      vertex -8.23247 -14.0855 16
      vertex -8 -16 12.8
      vertex -8 -16 16
    endloop
  endfacet
  facet normal -0.93502 -0.354595 0
    outer loop
      vertex -8.23247 -14.0855 12.8
      vertex -8.91635 -12.2822 16
      vertex -8.91635 -12.2822 12.8
    endloop
  endfacet
  facet normal -0.93502 -0.354595 0
    outer loop
      vertex -8.91635 -12.2822 16
      vertex -8.23247 -14.0855 12.8
      vertex -8.23247 -14.0855 16
    endloop
  endfacet
  facet normal 0.935016 -0.354604 0
    outer loop
      vertex -23.7675 -14.0855 16
      vertex -23.0836 -12.2822 12.8
      vertex -23.0836 -12.2822 16
    endloop
  endfacet
  facet normal 0.935016 -0.354604 0
    outer loop
      vertex -23.0836 -12.2822 12.8
      vertex -23.7675 -14.0855 16
      vertex -23.7675 -14.0855 12.8
    endloop
  endfacet
  facet normal 0 1 -0
    outer loop
      vertex -15.0357 -23.9417 12.8
      vertex -16.9643 -23.9417 16
      vertex -15.0357 -23.9417 16
    endloop
  endfacet
  facet normal 0 1 0
    outer loop
      vertex -16.9643 -23.9417 16
      vertex -15.0357 -23.9417 12.8
      vertex -16.9643 -23.9417 12.8
    endloop
  endfacet
  facet normal -0.663117 0.748515 0
    outer loop
      vertex -10.0119 -21.305 12.8
      vertex -11.4555 -22.5839 16
      vertex -10.0119 -21.305 16
    endloop
  endfacet
  facet normal -0.663117 0.748515 0
    outer loop
      vertex -11.4555 -22.5839 16
      vertex -10.0119 -21.305 12.8
      vertex -11.4555 -22.5839 12.8
    endloop
  endfacet
  facet normal 0.663109 -0.748523 0
    outer loop
      vertex -21.9881 -10.695 12.8
      vertex -20.5445 -9.41613 16
      vertex -21.9881 -10.695 16
    endloop
  endfacet
  facet normal 0.663109 -0.748523 0
    outer loop
      vertex -20.5445 -9.41613 16
      vertex -21.9881 -10.695 12.8
      vertex -20.5445 -9.41613 12.8
    endloop
  endfacet
  facet normal 0.992707 -0.120556 0
    outer loop
      vertex -24 -16 16
      vertex -23.7675 -14.0855 12.8
      vertex -23.7675 -14.0855 16
    endloop
  endfacet
  facet normal 0.992707 -0.120556 0
    outer loop
      vertex -23.7675 -14.0855 12.8
      vertex -24 -16 16
      vertex -24 -16 12.8
    endloop
  endfacet
  facet normal 0.464695 0.885471 -0
    outer loop
      vertex -18.8368 -23.4801 12.8
      vertex -20.5445 -22.5839 16
      vertex -18.8368 -23.4801 16
    endloop
  endfacet
  facet normal 0.464695 0.885471 0
    outer loop
      vertex -20.5445 -22.5839 16
      vertex -18.8368 -23.4801 12.8
      vertex -20.5445 -22.5839 12.8
    endloop
  endfacet
  facet normal -0.464695 0.885471 0
    outer loop
      vertex -11.4555 -22.5839 12.8
      vertex -13.1632 -23.4801 16
      vertex -11.4555 -22.5839 16
    endloop
  endfacet
  facet normal -0.464695 0.885471 0
    outer loop
      vertex -13.1632 -23.4801 16
      vertex -11.4555 -22.5839 12.8
      vertex -13.1632 -23.4801 12.8
    endloop
  endfacet
  facet normal 0.23935 0.970933 -0
    outer loop
      vertex -16.9643 -23.9417 12.8
      vertex -18.8368 -23.4801 16
      vertex -16.9643 -23.9417 16
    endloop
  endfacet
  facet normal 0.23935 0.970933 0
    outer loop
      vertex -18.8368 -23.4801 16
      vertex -16.9643 -23.9417 12.8
      vertex -18.8368 -23.4801 12.8
    endloop
  endfacet
  facet normal 0.663117 0.748515 -0
    outer loop
      vertex -20.5445 -22.5839 12.8
      vertex -21.9881 -21.305 16
      vertex -20.5445 -22.5839 16
    endloop
  endfacet
  facet normal 0.663117 0.748515 0
    outer loop
      vertex -21.9881 -21.305 16
      vertex -20.5445 -22.5839 12.8
      vertex -21.9881 -21.305 12.8
    endloop
  endfacet
  facet normal 0.935016 0.354604 0
    outer loop
      vertex -23.0836 -19.7178 16
      vertex -23.7675 -17.9145 12.8
      vertex -23.7675 -17.9145 16
    endloop
  endfacet
  facet normal 0.935016 0.354604 0
    outer loop
      vertex -23.7675 -17.9145 12.8
      vertex -23.0836 -19.7178 16
      vertex -23.0836 -19.7178 12.8
    endloop
  endfacet
  facet normal 0.823 0.568042 0
    outer loop
      vertex -21.9881 -21.305 16
      vertex -23.0836 -19.7178 12.8
      vertex -23.0836 -19.7178 16
    endloop
  endfacet
  facet normal 0.823 0.568042 0
    outer loop
      vertex -23.0836 -19.7178 12.8
      vertex -21.9881 -21.305 16
      vertex -21.9881 -21.305 12.8
    endloop
  endfacet
  facet normal -0.93502 0.354595 0
    outer loop
      vertex -8.91635 -19.7178 12.8
      vertex -8.23247 -17.9145 16
      vertex -8.23247 -17.9145 12.8
    endloop
  endfacet
  facet normal -0.93502 0.354595 0
    outer loop
      vertex -8.23247 -17.9145 16
      vertex -8.91635 -19.7178 12.8
      vertex -8.91635 -19.7178 16
    endloop
  endfacet
  facet normal 0.823 -0.568042 0
    outer loop
      vertex -23.0836 -12.2822 16
      vertex -21.9881 -10.695 12.8
      vertex -21.9881 -10.695 16
    endloop
  endfacet
  facet normal 0.823 -0.568042 0
    outer loop
      vertex -21.9881 -10.695 12.8
      vertex -23.0836 -12.2822 16
      vertex -23.0836 -12.2822 12.8
    endloop
  endfacet
  facet normal 1 0 0
    outer loop
      vertex -8 -8 32
      vertex -8 -16 16
      vertex -8 -8 16
    endloop
  endfacet
  facet normal 1 -0 0
    outer loop
      vertex -8 -24 32
      vertex -8 -16 16
      vertex -8 -8 32
    endloop
  endfacet
  facet normal 1 0 0
    outer loop
      vertex -8 -16 16
      vertex -8 -24 32
      vertex -8 -24 16
    endloop
  endfacet
  facet normal 0 0 1
    outer loop
      vertex -8 -8 32
      vertex -10.5 -10.5 32
      vertex -8 -24 32
    endloop
  endfacet
  facet normal 0 0 1
    outer loop
      vertex -8 -8 32
      vertex -21.5 -10.5 32
      vertex -10.5 -10.5 32
    endloop
  endfacet
  facet normal 0 0 1
    outer loop
      vertex -21.5 -10.5 32
      vertex -24 -8 32
      vertex -21.5 -21.5 32
    endloop
  endfacet
  facet normal -0 0 1
    outer loop
      vertex -24 -8 32
      vertex -21.5 -10.5 32
      vertex -8 -8 32
    endloop
  endfacet
  facet normal -0 0 1
    outer loop
      vertex -10.5 -21.5 32
      vertex -8 -24 32
      vertex -10.5 -10.5 32
    endloop
  endfacet
  facet normal -0 0 1
    outer loop
      vertex -21.5 -21.5 32
      vertex -8 -24 32
      vertex -10.5 -21.5 32
    endloop
  endfacet
  facet normal 0 0 1
    outer loop
      vertex -21.5 -21.5 32
      vertex -24 -24 32
      vertex -8 -24 32
    endloop
  endfacet
  facet normal 0 0 1
    outer loop
      vertex -24 -24 32
      vertex -21.5 -21.5 32
      vertex -24 -8 32
    endloop
  endfacet
  facet normal -1 0 0
    outer loop
      vertex -24 -16 16
      vertex -24 -8 32
      vertex -24 -8 16
    endloop
  endfacet
  facet normal -1 0 0
    outer loop
      vertex -24 -24 32
      vertex -24 -16 16
      vertex -24 -24 16
    endloop
  endfacet
  facet normal -1 0 0
    outer loop
      vertex -24 -16 16
      vertex -24 -24 32
      vertex -24 -8 32
    endloop
  endfacet
  facet normal 0 1 -0
    outer loop
      vertex -8 -8 16
      vertex -24 -8 32
      vertex -8 -8 32
    endloop
  endfacet
  facet normal 0 1 0
    outer loop
      vertex -24 -8 32
      vertex -8 -8 16
      vertex -24 -8 16
    endloop
  endfacet
  facet normal 0 -1 0
    outer loop
      vertex -24 -24 16
      vertex -8 -24 32
      vertex -24 -24 32
    endloop
  endfacet
  facet normal 0 -1 -0
    outer loop
      vertex -8 -24 32
      vertex -24 -24 16
      vertex -8 -24 16
    endloop
  endfacet
  facet normal -1 0 0
    outer loop
      vertex -10.5 -21.5 16
      vertex -10.5 -10.5 32
      vertex -10.5 -10.5 16
    endloop
  endfacet
  facet normal -1 -0 0
    outer loop
      vertex -10.5 -10.5 32
      vertex -10.5 -21.5 16
      vertex -10.5 -21.5 32
    endloop
  endfacet
  facet normal 1 -0 0
    outer loop
      vertex -21.5 -21.5 32
      vertex -21.5 -10.5 16
      vertex -21.5 -10.5 32
    endloop
  endfacet
  facet normal 1 0 0
    outer loop
      vertex -21.5 -10.5 16
      vertex -21.5 -21.5 32
      vertex -21.5 -21.5 16
    endloop
  endfacet
  facet normal 0 -1 0
    outer loop
      vertex -21.5 -10.5 16
      vertex -10.5 -10.5 32
      vertex -21.5 -10.5 32
    endloop
  endfacet
  facet normal 0 -1 -0
    outer loop
      vertex -10.5 -10.5 32
      vertex -21.5 -10.5 16
      vertex -10.5 -10.5 16
    endloop
  endfacet
  facet normal 0 1 -0
    outer loop
      vertex -10.5 -21.5 16
      vertex -21.5 -21.5 32
      vertex -10.5 -21.5 32
    endloop
  endfacet
  facet normal 0 1 0
    outer loop
      vertex -21.5 -21.5 32
      vertex -10.5 -21.5 16
      vertex -21.5 -21.5 16
    endloop
  endfacet
  facet normal 1 -0 0
    outer loop
      vertex 32 0 160
      vertex 32 16 0
      vertex 32 16 160
    endloop
  endfacet
  facet normal 1 0 0
    outer loop
      vertex 32 16 0
      vertex 32 0 160
      vertex 32 0 0
    endloop
  endfacet
  facet normal 0 0 1
    outer loop
      vertex 32 16 160
      vertex 29.5 13.5 160
      vertex 32 0 160
    endloop
  endfacet
  facet normal 0 0 1
    outer loop
      vertex 32 16 160
      vertex 18.5 13.5 160
      vertex 29.5 13.5 160
    endloop
  endfacet
  facet normal 0 0 1
    outer loop
      vertex 18.5 13.5 160
      vertex 16 16 160
      vertex 18.5 2.5 160
    endloop
  endfacet
  facet normal -0 0 1
    outer loop
      vertex 16 16 160
      vertex 18.5 13.5 160
      vertex 32 16 160
    endloop
  endfacet
  facet normal -0 0 1
    outer loop
      vertex 29.5 2.5 160
      vertex 32 0 160
      vertex 29.5 13.5 160
    endloop
  endfacet
  facet normal -0 0 1
    outer loop
      vertex 18.5 2.5 160
      vertex 32 0 160
      vertex 29.5 2.5 160
    endloop
  endfacet
  facet normal 0 0 1
    outer loop
      vertex 18.5 2.5 160
      vertex 16 0 160
      vertex 32 0 160
    endloop
  endfacet
  facet normal 0 0 1
    outer loop
      vertex 16 0 160
      vertex 18.5 2.5 160
      vertex 16 16 160
    endloop
  endfacet
  facet normal 0 0 -1
    outer loop
      vertex 32 0 0
      vertex 29.5 2.5 0
      vertex 32 16 0
    endloop
  endfacet
  facet normal 0 0 -1
    outer loop
      vertex 32 0 0
      vertex 18.5 2.5 0
      vertex 29.5 2.5 0
    endloop
  endfacet
  facet normal -0 0 -1
    outer loop
      vertex 18.5 2.5 0
      vertex 16 0 0
      vertex 18.5 13.5 0
    endloop
  endfacet
  facet normal 0 0 -1
    outer loop
      vertex 16 0 0
      vertex 18.5 2.5 0
      vertex 32 0 0
    endloop
  endfacet
  facet normal 0 0 -1
    outer loop
      vertex 29.5 13.5 0
      vertex 32 16 0
      vertex 29.5 2.5 0
    endloop
  endfacet
  facet normal 0 0 -1
    outer loop
      vertex 18.5 13.5 0
      vertex 32 16 0
      vertex 29.5 13.5 0
    endloop
  endfacet
  facet normal 0 0 -1
    outer loop
      vertex 18.5 13.5 0
      vertex 16 16 0
      vertex 32 16 0
    endloop
  endfacet
  facet normal 0 0 -1
    outer loop
      vertex 16 16 0
      vertex 18.5 13.5 0
      vertex 16 0 0
    endloop
  endfacet
  facet normal -1 0 0
    outer loop
      vertex 16 0 0
      vertex 16 16 160
      vertex 16 16 0
    endloop
  endfacet
  facet normal -1 -0 0
    outer loop
      vertex 16 16 160
      vertex 16 0 0
      vertex 16 0 160
    endloop
  endfacet
  facet normal 0 1 -0
    outer loop
      vertex 32 16 0
      vertex 16 16 160
      vertex 32 16 160
    endloop
  endfacet
  facet normal 0 1 0
    outer loop
      vertex 16 16 160
      vertex 32 16 0
      vertex 16 16 0
    endloop
  endfacet
  facet normal 0 -1 0
    outer loop
      vertex 16 0 0
      vertex 32 0 160
      vertex 16 0 160
    endloop
  endfacet
  facet normal 0 -1 -0
    outer loop
      vertex 32 0 160
      vertex 16 0 0
      vertex 32 0 0
    endloop
  endfacet
  facet normal -1 0 0
    outer loop
      vertex 29.5 2.5 0
      vertex 29.5 13.5 160
      vertex 29.5 13.5 0
    endloop
  endfacet
  facet normal -1 -0 0
    outer loop
      vertex 29.5 13.5 160
      vertex 29.5 2.5 0
      vertex 29.5 2.5 160
    endloop
  endfacet
  facet normal 1 -0 0
    outer loop
      vertex 18.5 2.5 160
      vertex 18.5 13.5 0
      vertex 18.5 13.5 160
    endloop
  endfacet
  facet normal 1 0 0
    outer loop
      vertex 18.5 13.5 0
      vertex 18.5 2.5 160
      vertex 18.5 2.5 0
    endloop
  endfacet
  facet normal 0 -1 0
    outer loop
      vertex 18.5 13.5 0
      vertex 29.5 13.5 160
      vertex 18.5 13.5 160
    endloop
  endfacet
  facet normal 0 -1 -0
    outer loop
      vertex 29.5 13.5 160
      vertex 18.5 13.5 0
      vertex 29.5 13.5 0
    endloop
  endfacet
  facet normal 0 1 -0
    outer loop
      vertex 29.5 2.5 0
      vertex 18.5 2.5 160
      vertex 29.5 2.5 160
    endloop
  endfacet
  facet normal 0 1 0
    outer loop
      vertex 18.5 2.5 160
      vertex 29.5 2.5 0
      vertex 18.5 2.5 0
    endloop
  endfacet
endsolid OpenSCAD_Model
