solid OpenSCAD_Model
  facet normal 1 -0 0
    outer loop
      vertex 22 -22 0
      vertex 22 0 -45
      vertex 22 0 0
    endloop
  endfacet
  facet normal 1 0 0
    outer loop
      vertex 22 0 -45
      vertex 22 -22 0
      vertex 22 -22 -45
    endloop
  endfacet
  facet normal 0 0 -1
    outer loop
      vertex 22 -22 -45
      vertex 19.5 -19.5 -45
      vertex 22 0 -45
    endloop
  endfacet
  facet normal 0 0 -1
    outer loop
      vertex 22 -22 -45
      vertex 2.5 -19.5 -45
      vertex 19.5 -19.5 -45
    endloop
  endfacet
  facet normal -0 0 -1
    outer loop
      vertex 2.5 -19.5 -45
      vertex 0 -22 -45
      vertex 2.5 -2.5 -45
    endloop
  endfacet
  facet normal 0 0 -1
    outer loop
      vertex 0 -22 -45
      vertex 2.5 -19.5 -45
      vertex 22 -22 -45
    endloop
  endfacet
  facet normal 0 0 -1
    outer loop
      vertex 19.5 -2.5 -45
      vertex 22 0 -45
      vertex 19.5 -19.5 -45
    endloop
  endfacet
  facet normal 0 0 -1
    outer loop
      vertex 2.5 -2.5 -45
      vertex 22 0 -45
      vertex 19.5 -2.5 -45
    endloop
  endfacet
  facet normal 0 0 -1
    outer loop
      vertex 2.5 -2.5 -45
      vertex 0 0 -45
      vertex 22 0 -45
    endloop
  endfacet
  facet normal 0 0 -1
    outer loop
      vertex 0 0 -45
      vertex 2.5 -2.5 -45
      vertex 0 -22 -45
    endloop
  endfacet
  facet normal 0 0 1
    outer loop
      vertex 2.5 0 0
      vertex 0 0 0
      vertex 2.5 -19.5 0
    endloop
  endfacet
  facet normal 0 0 1
    outer loop
      vertex 19.5 -19.5 0
      vertex 22 0 0
      vertex 19.5 0 0
    endloop
  endfacet
  facet normal 0 0 1
    outer loop
      vertex 22 0 0
      vertex 19.5 -19.5 0
      vertex 22 -22 0
    endloop
  endfacet
  facet normal -0 0 1
    outer loop
      vertex 2.5 -19.5 0
      vertex 22 -22 0
      vertex 19.5 -19.5 0
    endloop
  endfacet
  facet normal 0 0 1
    outer loop
      vertex 2.5 -19.5 0
      vertex 0 -22 0
      vertex 22 -22 0
    endloop
  endfacet
  facet normal 0 0 1
    outer loop
      vertex 0 -22 0
      vertex 2.5 -19.5 0
      vertex 0 0 0
    endloop
  endfacet
  facet normal -1 0 0
    outer loop
      vertex 0 -22 -45
      vertex 0 0 0
      vertex 0 0 -45
    endloop
  endfacet
  facet normal -1 -0 0
    outer loop
      vertex 0 0 0
      vertex 0 -22 -45
      vertex 0 -22 0
    endloop
  endfacet
  facet normal 0 -1 0
    outer loop
      vertex 0 -22 -45
      vertex 22 -22 0
      vertex 0 -22 0
    endloop
  endfacet
  facet normal 0 -1 -0
    outer loop
      vertex 22 -22 0
      vertex 0 -22 -45
      vertex 22 -22 -45
    endloop
  endfacet
  facet normal 0 1 0
    outer loop
      vertex 22 0 0
      vertex 19.5 0 -5
      vertex 19.5 0 0
    endloop
  endfacet
  facet normal 0 1 0
    outer loop
      vertex 19.5 0 -5
      vertex 22 0 -45
      vertex 2.5 0 -5
    endloop
  endfacet
  facet normal 0 1 -0
    outer loop
      vertex 22 0 -45
      vertex 19.5 0 -5
      vertex 22 0 0
    endloop
  endfacet
  facet normal 0 1 -0
    outer loop
      vertex 2.5 0 -5
      vertex 0 0 0
      vertex 2.5 0 0
    endloop
  endfacet
  facet normal 0 1 0
    outer loop
      vertex 0 0 -45
      vertex 2.5 0 -5
      vertex 22 0 -45
    endloop
  endfacet
  facet normal 0 1 0
    outer loop
      vertex 2.5 0 -5
      vertex 0 0 -45
      vertex 0 0 0
    endloop
  endfacet
  facet normal -1 0 0
    outer loop
      vertex 19.5 -2.5 -45
      vertex 19.5 -19.5 -45
      vertex 19.5 -2.5 -5
    endloop
  endfacet
  facet normal -1 0 0
    outer loop
      vertex 19.5 -2.5 -5
      vertex 19.5 0 0
      vertex 19.5 0 -5
    endloop
  endfacet
  facet normal -1 0 0
    outer loop
      vertex 19.5 -2.5 -5
      vertex 19.5 -19.5 0
      vertex 19.5 0 0
    endloop
  endfacet
  facet normal -1 0 0
    outer loop
      vertex 19.5 -19.5 0
      vertex 19.5 -2.5 -5
      vertex 19.5 -19.5 -45
    endloop
  endfacet
  facet normal 1 0 0
    outer loop
      vertex 2.5 0 0
      vertex 2.5 -2.5 -5
      vertex 2.5 0 -5
    endloop
  endfacet
  facet normal 1 -0 0
    outer loop
      vertex 2.5 -19.5 0
      vertex 2.5 -2.5 -5
      vertex 2.5 0 0
    endloop
  endfacet
  facet normal 1 0 0
    outer loop
      vertex 2.5 -19.5 -45
      vertex 2.5 -2.5 -5
      vertex 2.5 -19.5 0
    endloop
  endfacet
  facet normal 1 0 0
    outer loop
      vertex 2.5 -2.5 -5
      vertex 2.5 -19.5 -45
      vertex 2.5 -2.5 -45
    endloop
  endfacet
  facet normal 0 1 -0
    outer loop
      vertex 19.5 -19.5 -45
      vertex 2.5 -19.5 0
      vertex 19.5 -19.5 0
    endloop
  endfacet
  facet normal 0 1 0
    outer loop
      vertex 2.5 -19.5 0
      vertex 19.5 -19.5 -45
      vertex 2.5 -19.5 -45
    endloop
  endfacet
  facet normal 0 -1 0
    outer loop
      vertex 2.5 -2.5 -45
      vertex 19.5 -2.5 -5
      vertex 2.5 -2.5 -5
    endloop
  endfacet
  facet normal 0 -1 -0
    outer loop
      vertex 19.5 -2.5 -5
      vertex 2.5 -2.5 -45
      vertex 19.5 -2.5 -45
    endloop
  endfacet
  facet normal -0 0 1
    outer loop
      vertex 2.5 0 -5
      vertex 19.5 -2.5 -5
      vertex 19.5 0 -5
    endloop
  endfacet
  facet normal 0 0 1
    outer loop
      vertex 19.5 -2.5 -5
      vertex 2.5 0 -5
      vertex 2.5 -2.5 -5
    endloop
  endfacet
endsolid OpenSCAD_Model
