solid OpenSCAD_Model
  facet normal -0.707107 -0.707107 -0
    outer loop
      vertex 0 -15.5563 6.44365
      vertex -15.5563 -3.85445e-07 -11
      vertex 0 -15.5563 -11
    endloop
  endfacet
  facet normal -0.707107 -0.707107 0
    outer loop
      vertex -15.5563 -3.85445e-07 -11
      vertex 0 -15.5563 6.44365
      vertex -15.5563 -3.85445e-07 22
    endloop
  endfacet
  facet normal -0.707107 0.707107 0
    outer loop
      vertex -15.5563 -3.85445e-07 -11
      vertex 0 15.5563 6.44365
      vertex 0 15.5563 -11
    endloop
  endfacet
  facet normal -0.707107 0.707107 0
    outer loop
      vertex 0 15.5563 6.44365
      vertex -15.5563 -3.85445e-07 -11
      vertex -15.5563 -3.85445e-07 22
    endloop
  endfacet
  facet normal 0 0 -1
    outer loop
      vertex 0 -15.5563 -11
      vertex 12.0208 0 -11
      vertex 15.5563 -3.85445e-07 -11
    endloop
  endfacet
  facet normal 0 0 -1
    outer loop
      vertex 0 -15.5563 -11
      vertex 0 -12.0208 -11
      vertex 12.0208 0 -11
    endloop
  endfacet
  facet normal 0 0 -1
    outer loop
      vertex 0 -15.5563 -11
      vertex -12.0208 0 -11
      vertex 0 -12.0208 -11
    endloop
  endfacet
  facet normal 0 -0 -1
    outer loop
      vertex -12.0208 0 -11
      vertex 0 -15.5563 -11
      vertex -15.5563 -3.85445e-07 -11
    endloop
  endfacet
  facet normal 0 0 -1
    outer loop
      vertex 0 12.0208 -11
      vertex 15.5563 -3.85445e-07 -11
      vertex 12.0208 0 -11
    endloop
  endfacet
  facet normal 0 0 -1
    outer loop
      vertex 0 12.0208 -11
      vertex 0 15.5563 -11
      vertex 15.5563 -3.85445e-07 -11
    endloop
  endfacet
  facet normal 0 0 -1
    outer loop
      vertex -12.0208 0 -11
      vertex 0 15.5563 -11
      vertex 0 12.0208 -11
    endloop
  endfacet
  facet normal 0 0 -1
    outer loop
      vertex 0 15.5563 -11
      vertex -12.0208 0 -11
      vertex -15.5563 -3.85445e-07 -11
    endloop
  endfacet
  facet normal 0.707107 -0.707107 0
    outer loop
      vertex 0 -15.5563 6.44365
      vertex 15.5563 -3.85445e-07 -11
      vertex 15.5563 -3.85445e-07 22
    endloop
  endfacet
  facet normal 0.707107 -0.707107 0
    outer loop
      vertex 15.5563 -3.85445e-07 -11
      vertex 0 -15.5563 6.44365
      vertex 0 -15.5563 -11
    endloop
  endfacet
  facet normal 0.707107 0.707107 -0
    outer loop
      vertex 15.5563 -3.85445e-07 -11
      vertex 0 15.5563 6.44365
      vertex 15.5563 -3.85445e-07 22
    endloop
  endfacet
  facet normal 0.707107 0.707107 0
    outer loop
      vertex 0 15.5563 6.44365
      vertex 15.5563 -3.85445e-07 -11
      vertex 0 15.5563 -11
    endloop
  endfacet
  facet normal 0.707109 0 0.707105
    outer loop
      vertex 0 44 37.5564
      vertex 15.5563 -3.85445e-07 22
      vertex 15.5563 44 22
    endloop
  endfacet
  facet normal 0.707109 -0 0.707105
    outer loop
      vertex 0 -44 37.5564
      vertex 15.5563 -3.85445e-07 22
      vertex 0 44 37.5564
    endloop
  endfacet
  facet normal 0.707109 0 0.707105
    outer loop
      vertex 15.5563 -3.85445e-07 22
      vertex 0 -44 37.5564
      vertex 15.5563 -44 22
    endloop
  endfacet
  facet normal 0.707108 0 -0.707106
    outer loop
      vertex 15.5563 -44 22
      vertex 0 -15.5563 6.44365
      vertex 15.5563 -3.85445e-07 22
    endloop
  endfacet
  facet normal 0.707108 0 -0.707106
    outer loop
      vertex 0 -15.5563 6.44365
      vertex 15.5563 -44 22
      vertex 0 -44 6.44365
    endloop
  endfacet
  facet normal -0.707108 0 -0.707106
    outer loop
      vertex -15.5563 -44 22
      vertex 0 -15.5563 6.44365
      vertex 0 -44 6.44365
    endloop
  endfacet
  facet normal -0.707108 0 -0.707106
    outer loop
      vertex 0 -15.5563 6.44365
      vertex -15.5563 -44 22
      vertex -15.5563 -3.85445e-07 22
    endloop
  endfacet
  facet normal -0.707109 0 0.707105
    outer loop
      vertex -15.5563 -3.85445e-07 22
      vertex 0 44 37.5564
      vertex -15.5563 44 22
    endloop
  endfacet
  facet normal -0.707109 0 0.707105
    outer loop
      vertex 0 -44 37.5564
      vertex -15.5563 -3.85445e-07 22
      vertex -15.5563 -44 22
    endloop
  endfacet
  facet normal -0.707109 0 0.707105
    outer loop
      vertex -15.5563 -3.85445e-07 22
      vertex 0 -44 37.5564
      vertex 0 44 37.5564
    endloop
  endfacet
  facet normal 0 -1 0
    outer loop
      vertex -15.5563 -44 22
      vertex 0 -44 34.0208
      vertex 0 -44 37.5564
    endloop
  endfacet
  facet normal 0 -1 0
    outer loop
      vertex -15.5563 -44 22
      vertex -12.0208 -44 22
      vertex 0 -44 34.0208
    endloop
  endfacet
  facet normal 0 -1 0
    outer loop
      vertex -15.5563 -44 22
      vertex 0 -44 9.97918
      vertex -12.0208 -44 22
    endloop
  endfacet
  facet normal -0 -1 -0
    outer loop
      vertex 0 -44 9.97918
      vertex -15.5563 -44 22
      vertex 0 -44 6.44365
    endloop
  endfacet
  facet normal 0 -1 0
    outer loop
      vertex 12.0208 -44 22
      vertex 0 -44 37.5564
      vertex 0 -44 34.0208
    endloop
  endfacet
  facet normal 0 -1 0
    outer loop
      vertex 12.0208 -44 22
      vertex 15.5563 -44 22
      vertex 0 -44 37.5564
    endloop
  endfacet
  facet normal 0 -1 0
    outer loop
      vertex 0 -44 9.97918
      vertex 15.5563 -44 22
      vertex 12.0208 -44 22
    endloop
  endfacet
  facet normal 0 -1 0
    outer loop
      vertex 15.5563 -44 22
      vertex 0 -44 9.97918
      vertex 0 -44 6.44365
    endloop
  endfacet
  facet normal 0.707108 0 -0.707106
    outer loop
      vertex 15.5563 44 22
      vertex 0 15.5563 6.44365
      vertex 0 44 6.44365
    endloop
  endfacet
  facet normal 0.707108 0 -0.707106
    outer loop
      vertex 0 15.5563 6.44365
      vertex 15.5563 44 22
      vertex 15.5563 -3.85445e-07 22
    endloop
  endfacet
  facet normal -0.707108 0 -0.707106
    outer loop
      vertex 0 15.5563 6.44365
      vertex -15.5563 44 22
      vertex 0 44 6.44365
    endloop
  endfacet
  facet normal -0.707108 -0 -0.707106
    outer loop
      vertex -15.5563 44 22
      vertex 0 15.5563 6.44365
      vertex -15.5563 -3.85445e-07 22
    endloop
  endfacet
  facet normal 0 1 0
    outer loop
      vertex 15.5563 44 22
      vertex 0 44 34.0208
      vertex 0 44 37.5564
    endloop
  endfacet
  facet normal 0 1 0
    outer loop
      vertex 15.5563 44 22
      vertex 12.0208 44 22
      vertex 0 44 34.0208
    endloop
  endfacet
  facet normal 0 1 0
    outer loop
      vertex 15.5563 44 22
      vertex 0 44 9.97918
      vertex 12.0208 44 22
    endloop
  endfacet
  facet normal -0 1 0
    outer loop
      vertex 0 44 9.97918
      vertex 15.5563 44 22
      vertex 0 44 6.44365
    endloop
  endfacet
  facet normal 0 1 0
    outer loop
      vertex -12.0208 44 22
      vertex 0 44 37.5564
      vertex 0 44 34.0208
    endloop
  endfacet
  facet normal 0 1 -0
    outer loop
      vertex -12.0208 44 22
      vertex -15.5563 44 22
      vertex 0 44 37.5564
    endloop
  endfacet
  facet normal 0 1 0
    outer loop
      vertex 0 44 9.97918
      vertex -15.5563 44 22
      vertex -12.0208 44 22
    endloop
  endfacet
  facet normal 0 1 0
    outer loop
      vertex -15.5563 44 22
      vertex 0 44 9.97918
      vertex 0 44 6.44365
    endloop
  endfacet
  facet normal -0.707107 -0.707107 0
    outer loop
      vertex 12.0208 0 -11
      vertex 0 12.0208 9.97918
      vertex 0 12.0208 -11
    endloop
  endfacet
  facet normal -0.707107 -0.707107 0
    outer loop
      vertex 0 12.0208 9.97918
      vertex 12.0208 0 -11
      vertex 12.0208 0 22
    endloop
  endfacet
  facet normal 0.707107 0.707107 0
    outer loop
      vertex 0 -12.0208 9.97918
      vertex -12.0208 0 -11
      vertex -12.0208 0 22
    endloop
  endfacet
  facet normal 0.707107 0.707107 0
    outer loop
      vertex -12.0208 0 -11
      vertex 0 -12.0208 9.97918
      vertex 0 -12.0208 -11
    endloop
  endfacet
  facet normal 0.707107 -0.707107 0
    outer loop
      vertex -12.0208 0 -11
      vertex 0 12.0208 9.97918
      vertex -12.0208 0 22
    endloop
  endfacet
  facet normal 0.707107 -0.707107 0
    outer loop
      vertex 0 12.0208 9.97918
      vertex -12.0208 0 -11
      vertex 0 12.0208 -11
    endloop
  endfacet
  facet normal -0.707107 0.707107 0
    outer loop
      vertex 0 -12.0208 9.97918
      vertex 12.0208 0 -11
      vertex 0 -12.0208 -11
    endloop
  endfacet
  facet normal -0.707107 0.707107 0
    outer loop
      vertex 12.0208 0 -11
      vertex 0 -12.0208 9.97918
      vertex 12.0208 0 22
    endloop
  endfacet
  facet normal -0.707107 0 0.707106
    outer loop
      vertex 12.0208 -44 22
      vertex 0 -12.0208 9.97918
      vertex 0 -44 9.97918
    endloop
  endfacet
  facet normal -0.707107 0 0.707106
    outer loop
      vertex 0 -12.0208 9.97918
      vertex 12.0208 -44 22
      vertex 12.0208 0 22
    endloop
  endfacet
  facet normal -0.707107 0 0.707106
    outer loop
      vertex 0 12.0208 9.97918
      vertex 12.0208 44 22
      vertex 0 44 9.97918
    endloop
  endfacet
  facet normal -0.707107 0 0.707106
    outer loop
      vertex 12.0208 44 22
      vertex 0 12.0208 9.97918
      vertex 12.0208 0 22
    endloop
  endfacet
  facet normal -0.707107 0 -0.707107
    outer loop
      vertex 0 -44 34.0208
      vertex 12.0208 0 22
      vertex 12.0208 -44 22
    endloop
  endfacet
  facet normal -0.707107 -0 -0.707107
    outer loop
      vertex 0 44 34.0208
      vertex 12.0208 0 22
      vertex 0 -44 34.0208
    endloop
  endfacet
  facet normal -0.707107 0 -0.707107
    outer loop
      vertex 12.0208 0 22
      vertex 0 44 34.0208
      vertex 12.0208 44 22
    endloop
  endfacet
  facet normal 0.707107 -0 0.707106
    outer loop
      vertex -12.0208 -44 22
      vertex 0 -12.0208 9.97918
      vertex -12.0208 0 22
    endloop
  endfacet
  facet normal 0.707107 0 0.707106
    outer loop
      vertex 0 -12.0208 9.97918
      vertex -12.0208 -44 22
      vertex 0 -44 9.97918
    endloop
  endfacet
  facet normal 0.707107 0 0.707106
    outer loop
      vertex -12.0208 44 22
      vertex 0 12.0208 9.97918
      vertex 0 44 9.97918
    endloop
  endfacet
  facet normal 0.707107 0 0.707106
    outer loop
      vertex 0 12.0208 9.97918
      vertex -12.0208 44 22
      vertex -12.0208 0 22
    endloop
  endfacet
  facet normal 0.707107 0 -0.707107
    outer loop
      vertex -12.0208 0 22
      vertex 0 -44 34.0208
      vertex -12.0208 -44 22
    endloop
  endfacet
  facet normal 0.707107 0 -0.707107
    outer loop
      vertex 0 -44 34.0208
      vertex -12.0208 0 22
      vertex 0 44 34.0208
    endloop
  endfacet
  facet normal 0.707107 0 -0.707107
    outer loop
      vertex 0 44 34.0208
      vertex -12.0208 0 22
      vertex -12.0208 44 22
    endloop
  endfacet
endsolid OpenSCAD_Model
