solid OpenSCAD_Model
  facet normal 0 -0.707107 0.707107
    outer loop
      vertex 6.44365 -15.5563 0
      vertex 0 -3.85445e-07 15.5563
      vertex 0 -15.5563 0
    endloop
  endfacet
  facet normal 0 -0.707107 0.707107
    outer loop
      vertex 0 -3.85445e-07 15.5563
      vertex 6.44365 -15.5563 0
      vertex 22 -3.85445e-07 15.5563
    endloop
  endfacet
  facet normal 0 0.707107 0.707107
    outer loop
      vertex 6.44365 15.5563 0
      vertex 0 -3.85445e-07 15.5563
      vertex 22 -3.85445e-07 15.5563
    endloop
  endfacet
  facet normal 0 0.707107 0.707107
    outer loop
      vertex 0 -3.85445e-07 15.5563
      vertex 6.44365 15.5563 0
      vertex 0 15.5563 0
    endloop
  endfacet
  facet normal -1 -0 0
    outer loop
      vertex 0 15.5563 0
      vertex 0 0 -12.0208
      vertex 0 12.0208 0
    endloop
  endfacet
  facet normal -1 0 0
    outer loop
      vertex 0 -3.85445e-07 -15.5563
      vertex 0 0 -12.0208
      vertex 0 15.5563 0
    endloop
  endfacet
  facet normal -1 0 0
    outer loop
      vertex 0 -3.85445e-07 -15.5563
      vertex 0 -12.0208 0
      vertex 0 0 -12.0208
    endloop
  endfacet
  facet normal -1 -0 -0
    outer loop
      vertex 0 -12.0208 0
      vertex 0 -3.85445e-07 -15.5563
      vertex 0 -15.5563 0
    endloop
  endfacet
  facet normal -1 0 0
    outer loop
      vertex 0 0 12.0208
      vertex 0 15.5563 0
      vertex 0 12.0208 0
    endloop
  endfacet
  facet normal -1 0 0
    outer loop
      vertex 0 0 12.0208
      vertex 0 -3.85445e-07 15.5563
      vertex 0 15.5563 0
    endloop
  endfacet
  facet normal -1 0 0
    outer loop
      vertex 0 -12.0208 0
      vertex 0 -3.85445e-07 15.5563
      vertex 0 0 12.0208
    endloop
  endfacet
  facet normal -1 0 0
    outer loop
      vertex 0 -3.85445e-07 15.5563
      vertex 0 -12.0208 0
      vertex 0 -15.5563 0
    endloop
  endfacet
  facet normal 0 -0.707107 -0.707107
    outer loop
      vertex 0 -3.85445e-07 -15.5563
      vertex 6.44365 -15.5563 0
      vertex 0 -15.5563 0
    endloop
  endfacet
  facet normal 0 -0.707107 -0.707107
    outer loop
      vertex 6.44365 -15.5563 0
      vertex 0 -3.85445e-07 -15.5563
      vertex 22 -3.85445e-07 -15.5563
    endloop
  endfacet
  facet normal 0 0.707107 -0.707107
    outer loop
      vertex 0 -3.85445e-07 -15.5563
      vertex 6.44365 15.5563 0
      vertex 22 -3.85445e-07 -15.5563
    endloop
  endfacet
  facet normal 0 0.707107 -0.707107
    outer loop
      vertex 6.44365 15.5563 0
      vertex 0 -3.85445e-07 -15.5563
      vertex 0 15.5563 0
    endloop
  endfacet
  facet normal 0.707105 0 -0.707109
    outer loop
      vertex 22 -3.85445e-07 -15.5563
      vertex 37.5564 -22 0
      vertex 22 -22 -15.5563
    endloop
  endfacet
  facet normal 0.707105 0 -0.707109
    outer loop
      vertex 37.5564 -22 0
      vertex 22 -3.85445e-07 -15.5563
      vertex 37.5564 22 0
    endloop
  endfacet
  facet normal 0.707105 0 -0.707109
    outer loop
      vertex 37.5564 22 0
      vertex 22 -3.85445e-07 -15.5563
      vertex 22 22 -15.5563
    endloop
  endfacet
  facet normal -0.707106 0 -0.707108
    outer loop
      vertex 22 -22 -15.5563
      vertex 6.44365 -15.5563 0
      vertex 22 -3.85445e-07 -15.5563
    endloop
  endfacet
  facet normal -0.707106 -0 -0.707108
    outer loop
      vertex 6.44365 -15.5563 0
      vertex 22 -22 -15.5563
      vertex 6.44365 -22 0
    endloop
  endfacet
  facet normal -0.707106 0 0.707108
    outer loop
      vertex 22 -22 15.5563
      vertex 6.44365 -15.5563 0
      vertex 6.44365 -22 0
    endloop
  endfacet
  facet normal -0.707106 0 0.707108
    outer loop
      vertex 6.44365 -15.5563 0
      vertex 22 -22 15.5563
      vertex 22 -3.85445e-07 15.5563
    endloop
  endfacet
  facet normal 0.707105 -0 0.707109
    outer loop
      vertex 22 -3.85445e-07 15.5563
      vertex 37.5564 22 0
      vertex 22 22 15.5563
    endloop
  endfacet
  facet normal 0.707105 0 0.707109
    outer loop
      vertex 37.5564 22 0
      vertex 22 -3.85445e-07 15.5563
      vertex 37.5564 -22 0
    endloop
  endfacet
  facet normal 0.707105 0 0.707109
    outer loop
      vertex 37.5564 -22 0
      vertex 22 -3.85445e-07 15.5563
      vertex 22 -22 15.5563
    endloop
  endfacet
  facet normal 0 -1 0
    outer loop
      vertex 6.44365 -22 0
      vertex 22 -22 12.0208
      vertex 22 -22 15.5563
    endloop
  endfacet
  facet normal 0 -1 0
    outer loop
      vertex 6.44365 -22 0
      vertex 9.97918 -22 0
      vertex 22 -22 12.0208
    endloop
  endfacet
  facet normal 0 -1 0
    outer loop
      vertex 6.44365 -22 0
      vertex 22 -22 -12.0208
      vertex 9.97918 -22 0
    endloop
  endfacet
  facet normal -0 -1 -0
    outer loop
      vertex 22 -22 -12.0208
      vertex 6.44365 -22 0
      vertex 22 -22 -15.5563
    endloop
  endfacet
  facet normal 0 -1 0
    outer loop
      vertex 34.0208 -22 0
      vertex 22 -22 15.5563
      vertex 22 -22 12.0208
    endloop
  endfacet
  facet normal 0 -1 0
    outer loop
      vertex 34.0208 -22 0
      vertex 37.5564 -22 0
      vertex 22 -22 15.5563
    endloop
  endfacet
  facet normal 0 -1 0
    outer loop
      vertex 22 -22 -12.0208
      vertex 37.5564 -22 0
      vertex 34.0208 -22 0
    endloop
  endfacet
  facet normal 0 -1 0
    outer loop
      vertex 37.5564 -22 0
      vertex 22 -22 -12.0208
      vertex 22 -22 -15.5563
    endloop
  endfacet
  facet normal -0.707106 0 -0.707108
    outer loop
      vertex 22 22 -15.5563
      vertex 6.44365 15.5563 0
      vertex 6.44365 22 0
    endloop
  endfacet
  facet normal -0.707106 0 -0.707108
    outer loop
      vertex 6.44365 15.5563 0
      vertex 22 22 -15.5563
      vertex 22 -3.85445e-07 -15.5563
    endloop
  endfacet
  facet normal -0.707106 0 0.707108
    outer loop
      vertex 6.44365 15.5563 0
      vertex 22 22 15.5563
      vertex 6.44365 22 0
    endloop
  endfacet
  facet normal -0.707106 0 0.707108
    outer loop
      vertex 22 22 15.5563
      vertex 6.44365 15.5563 0
      vertex 22 -3.85445e-07 15.5563
    endloop
  endfacet
  facet normal 0 1 0
    outer loop
      vertex 37.5564 22 0
      vertex 22 22 12.0208
      vertex 22 22 15.5563
    endloop
  endfacet
  facet normal 0 1 0
    outer loop
      vertex 37.5564 22 0
      vertex 34.0208 22 0
      vertex 22 22 12.0208
    endloop
  endfacet
  facet normal 0 1 0
    outer loop
      vertex 37.5564 22 0
      vertex 22 22 -12.0208
      vertex 34.0208 22 0
    endloop
  endfacet
  facet normal -0 1 0
    outer loop
      vertex 22 22 -12.0208
      vertex 37.5564 22 0
      vertex 22 22 -15.5563
    endloop
  endfacet
  facet normal 0 1 0
    outer loop
      vertex 9.97918 22 0
      vertex 22 22 15.5563
      vertex 22 22 12.0208
    endloop
  endfacet
  facet normal 0 1 -0
    outer loop
      vertex 9.97918 22 0
      vertex 6.44365 22 0
      vertex 22 22 15.5563
    endloop
  endfacet
  facet normal 0 1 0
    outer loop
      vertex 22 22 -12.0208
      vertex 6.44365 22 0
      vertex 9.97918 22 0
    endloop
  endfacet
  facet normal 0 1 0
    outer loop
      vertex 6.44365 22 0
      vertex 22 22 -12.0208
      vertex 22 22 -15.5563
    endloop
  endfacet
  facet normal 0 0.707107 -0.707107
    outer loop
      vertex 9.97918 -12.0208 0
      vertex 0 0 12.0208
      vertex 22 0 12.0208
    endloop
  endfacet
  facet normal 0 0.707107 -0.707107
    outer loop
      vertex 0 0 12.0208
      vertex 9.97918 -12.0208 0
      vertex 0 -12.0208 0
    endloop
  endfacet
  facet normal -0 -0.707107 -0.707107
    outer loop
      vertex 9.97918 12.0208 0
      vertex 0 0 12.0208
      vertex 0 12.0208 0
    endloop
  endfacet
  facet normal 0 -0.707107 -0.707107
    outer loop
      vertex 0 0 12.0208
      vertex 9.97918 12.0208 0
      vertex 22 0 12.0208
    endloop
  endfacet
  facet normal -0 0.707107 0.707107
    outer loop
      vertex 0 0 -12.0208
      vertex 9.97918 -12.0208 0
      vertex 22 0 -12.0208
    endloop
  endfacet
  facet normal 0 0.707107 0.707107
    outer loop
      vertex 9.97918 -12.0208 0
      vertex 0 0 -12.0208
      vertex 0 -12.0208 0
    endloop
  endfacet
  facet normal 0 -0.707107 0.707107
    outer loop
      vertex 0 0 -12.0208
      vertex 9.97918 12.0208 0
      vertex 0 12.0208 0
    endloop
  endfacet
  facet normal 0 -0.707107 0.707107
    outer loop
      vertex 9.97918 12.0208 0
      vertex 0 0 -12.0208
      vertex 22 0 -12.0208
    endloop
  endfacet
  facet normal -0.707107 0 0.707107
    outer loop
      vertex 22 0 -12.0208
      vertex 34.0208 22 0
      vertex 22 22 -12.0208
    endloop
  endfacet
  facet normal -0.707107 0 0.707107
    outer loop
      vertex 34.0208 -22 0
      vertex 22 0 -12.0208
      vertex 22 -22 -12.0208
    endloop
  endfacet
  facet normal -0.707107 0 0.707107
    outer loop
      vertex 22 0 -12.0208
      vertex 34.0208 -22 0
      vertex 34.0208 22 0
    endloop
  endfacet
  facet normal 0.707106 0 0.707107
    outer loop
      vertex 9.97918 -12.0208 0
      vertex 22 -22 -12.0208
      vertex 22 0 -12.0208
    endloop
  endfacet
  facet normal 0.707106 0 0.707107
    outer loop
      vertex 22 -22 -12.0208
      vertex 9.97918 -12.0208 0
      vertex 9.97918 -22 0
    endloop
  endfacet
  facet normal 0.707106 -0 0.707107
    outer loop
      vertex 9.97918 12.0208 0
      vertex 22 22 -12.0208
      vertex 9.97918 22 0
    endloop
  endfacet
  facet normal 0.707106 0 0.707107
    outer loop
      vertex 22 22 -12.0208
      vertex 9.97918 12.0208 0
      vertex 22 0 -12.0208
    endloop
  endfacet
  facet normal 0.707106 0 -0.707107
    outer loop
      vertex 9.97918 -12.0208 0
      vertex 22 -22 12.0208
      vertex 9.97918 -22 0
    endloop
  endfacet
  facet normal 0.707106 0 -0.707107
    outer loop
      vertex 22 -22 12.0208
      vertex 9.97918 -12.0208 0
      vertex 22 0 12.0208
    endloop
  endfacet
  facet normal 0.707106 0 -0.707107
    outer loop
      vertex 9.97918 12.0208 0
      vertex 22 22 12.0208
      vertex 22 0 12.0208
    endloop
  endfacet
  facet normal 0.707106 0 -0.707107
    outer loop
      vertex 22 22 12.0208
      vertex 9.97918 12.0208 0
      vertex 9.97918 22 0
    endloop
  endfacet
  facet normal -0.707107 0 -0.707107
    outer loop
      vertex 34.0208 22 0
      vertex 22 0 12.0208
      vertex 22 22 12.0208
    endloop
  endfacet
  facet normal -0.707107 0 -0.707107
    outer loop
      vertex 34.0208 -22 0
      vertex 22 0 12.0208
      vertex 34.0208 22 0
    endloop
  endfacet
  facet normal -0.707107 -0 -0.707107
    outer loop
      vertex 22 0 12.0208
      vertex 34.0208 -22 0
      vertex 22 -22 12.0208
    endloop
  endfacet
endsolid OpenSCAD_Model
