solid OpenSCAD_Model
  facet normal 0.499999 -0.707108 0.499999
    outer loop
      vertex 4.55635 -15.5563 -4.55635
      vertex 3.22183 -3.85445e-07 18.7782
      vertex -7.77817 -15.5563 7.77817
    endloop
  endfacet
  facet normal 0.5 -0.707108 0.499998
    outer loop
      vertex 3.22183 -3.85445e-07 18.7782
      vertex 4.55635 -15.5563 -4.55635
      vertex 26.5563 -3.85445e-07 -4.55635
    endloop
  endfacet
  facet normal 0.499999 0.707108 0.499999
    outer loop
      vertex 3.22183 -3.85445e-07 18.7782
      vertex 4.55635 15.5563 -4.55635
      vertex -7.77817 15.5563 7.77817
    endloop
  endfacet
  facet normal 0.5 0.707108 0.499998
    outer loop
      vertex 4.55635 15.5563 -4.55635
      vertex 3.22183 -3.85445e-07 18.7782
      vertex 26.5563 -3.85445e-07 -4.55635
    endloop
  endfacet
  facet normal -0.707108 0 0.707106
    outer loop
      vertex -7.77817 12.0208 7.77817
      vertex 3.22183 -3.85445e-07 18.7782
      vertex -7.77817 15.5563 7.77817
    endloop
  endfacet
  facet normal -0.707106 3.05883e-06 0.707107
    outer loop
      vertex 3.22183 -3.85445e-07 18.7782
      vertex -7.77817 12.0208 7.77817
      vertex 0.721825 0 16.2782
    endloop
  endfacet
  facet normal -0.707106 0 0.707108
    outer loop
      vertex -18.7782 -3.85445e-07 -3.22183
      vertex -7.77817 12.0208 7.77817
      vertex -7.77817 15.5563 7.77817
    endloop
  endfacet
  facet normal -0.707107 3.05883e-06 0.707106
    outer loop
      vertex -7.77817 12.0208 7.77817
      vertex -18.7782 -3.85445e-07 -3.22183
      vertex -16.2782 0 -0.721825
    endloop
  endfacet
  facet normal -0.707106 -3.05883e-06 0.707107
    outer loop
      vertex -7.77817 -12.0208 7.77817
      vertex 3.22183 -3.85445e-07 18.7782
      vertex 0.721825 0 16.2782
    endloop
  endfacet
  facet normal -0.707108 0 0.707106
    outer loop
      vertex -7.77817 -12.0208 7.77817
      vertex -7.77817 -15.5563 7.77817
      vertex 3.22183 -3.85445e-07 18.7782
    endloop
  endfacet
  facet normal -0.707107 -3.05883e-06 0.707106
    outer loop
      vertex -18.7782 -3.85445e-07 -3.22183
      vertex -7.77817 -12.0208 7.77817
      vertex -16.2782 0 -0.721825
    endloop
  endfacet
  facet normal -0.707106 0 0.707108
    outer loop
      vertex -7.77817 -12.0208 7.77817
      vertex -18.7782 -3.85445e-07 -3.22183
      vertex -7.77817 -15.5563 7.77817
    endloop
  endfacet
  facet normal -0.499999 -0.707108 -0.499999
    outer loop
      vertex -18.7782 -3.85445e-07 -3.22183
      vertex 4.55635 -15.5563 -4.55635
      vertex -7.77817 -15.5563 7.77817
    endloop
  endfacet
  facet normal -0.499998 -0.707108 -0.5
    outer loop
      vertex 4.55635 -15.5563 -4.55635
      vertex -18.7782 -3.85445e-07 -3.22183
      vertex 4.55635 -3.85445e-07 -26.5563
    endloop
  endfacet
  facet normal -0.499999 0.707108 -0.499999
    outer loop
      vertex 4.55635 15.5563 -4.55635
      vertex -18.7782 -3.85445e-07 -3.22183
      vertex -7.77817 15.5563 7.77817
    endloop
  endfacet
  facet normal -0.499998 0.707108 -0.5
    outer loop
      vertex -18.7782 -3.85445e-07 -3.22183
      vertex 4.55635 15.5563 -4.55635
      vertex 4.55635 -3.85445e-07 -26.5563
    endloop
  endfacet
  facet normal 0 0 -1
    outer loop
      vertex 4.55635 -3.85445e-07 -26.5563
      vertex 26.5563 -15.5563 -26.5563
      vertex 4.55635 -15.5563 -26.5563
    endloop
  endfacet
  facet normal 0 0 -1
    outer loop
      vertex 26.5563 -15.5563 -26.5563
      vertex 4.55635 -3.85445e-07 -26.5563
      vertex 26.5563 33 -26.5563
    endloop
  endfacet
  facet normal -0 0 -1
    outer loop
      vertex 26.5563 33 -26.5563
      vertex 4.55635 -3.85445e-07 -26.5563
      vertex 4.55635 33 -26.5563
    endloop
  endfacet
  facet normal -1 0 0
    outer loop
      vertex 4.55635 33 -26.5563
      vertex 4.55635 15.5563 -4.55635
      vertex 4.55635 33 -4.55635
    endloop
  endfacet
  facet normal -1 0 -0
    outer loop
      vertex 4.55635 15.5563 -4.55635
      vertex 4.55635 33 -26.5563
      vertex 4.55635 -3.85445e-07 -26.5563
    endloop
  endfacet
  facet normal -1 0 0
    outer loop
      vertex 4.55635 -15.5563 -26.5563
      vertex 4.55635 -15.5563 -4.55635
      vertex 4.55635 -3.85445e-07 -26.5563
    endloop
  endfacet
  facet normal 0 0 1
    outer loop
      vertex 4.55635 15.5563 -4.55635
      vertex 26.5563 33 -4.55635
      vertex 4.55635 33 -4.55635
    endloop
  endfacet
  facet normal 0 0 1
    outer loop
      vertex 26.5563 33 -4.55635
      vertex 4.55635 15.5563 -4.55635
      vertex 26.5563 -3.85445e-07 -4.55635
    endloop
  endfacet
  facet normal 0 0 1
    outer loop
      vertex 4.55635 -15.5563 -4.55635
      vertex 26.5563 -15.5563 -4.55635
      vertex 26.5563 -3.85445e-07 -4.55635
    endloop
  endfacet
  facet normal 1 -0 0
    outer loop
      vertex 26.5563 -3.85445e-07 -4.55635
      vertex 26.5563 33 -26.5563
      vertex 26.5563 33 -4.55635
    endloop
  endfacet
  facet normal 1 0 0
    outer loop
      vertex 26.5563 -15.5563 -26.5563
      vertex 26.5563 -3.85445e-07 -4.55635
      vertex 26.5563 -15.5563 -4.55635
    endloop
  endfacet
  facet normal 1 0 0
    outer loop
      vertex 26.5563 -3.85445e-07 -4.55635
      vertex 26.5563 -15.5563 -26.5563
      vertex 26.5563 33 -26.5563
    endloop
  endfacet
  facet normal 0 -1 0
    outer loop
      vertex 4.55635 -15.5563 -4.55635
      vertex 7.05635 -15.5563 -7.05635
      vertex 26.5563 -15.5563 -4.55635
    endloop
  endfacet
  facet normal 0 -1 0
    outer loop
      vertex 4.55635 -15.5563 -4.55635
      vertex 7.05635 -15.5563 -24.0563
      vertex 7.05635 -15.5563 -7.05635
    endloop
  endfacet
  facet normal 0 -1 -0
    outer loop
      vertex 7.05635 -15.5563 -24.0563
      vertex 4.55635 -15.5563 -26.5563
      vertex 24.0563 -15.5563 -24.0563
    endloop
  endfacet
  facet normal 0 -1 0
    outer loop
      vertex 4.55635 -15.5563 -26.5563
      vertex 7.05635 -15.5563 -24.0563
      vertex 4.55635 -15.5563 -4.55635
    endloop
  endfacet
  facet normal 0 -1 0
    outer loop
      vertex 24.0563 -15.5563 -7.05635
      vertex 26.5563 -15.5563 -4.55635
      vertex 7.05635 -15.5563 -7.05635
    endloop
  endfacet
  facet normal 0 -1 0
    outer loop
      vertex 24.0563 -15.5563 -24.0563
      vertex 26.5563 -15.5563 -4.55635
      vertex 24.0563 -15.5563 -7.05635
    endloop
  endfacet
  facet normal 0 -1 0
    outer loop
      vertex 24.0563 -15.5563 -24.0563
      vertex 26.5563 -15.5563 -26.5563
      vertex 26.5563 -15.5563 -4.55635
    endloop
  endfacet
  facet normal 0 -1 0
    outer loop
      vertex 26.5563 -15.5563 -26.5563
      vertex 24.0563 -15.5563 -24.0563
      vertex 4.55635 -15.5563 -26.5563
    endloop
  endfacet
  facet normal 0 1 0
    outer loop
      vertex 26.5563 33 -4.55635
      vertex 24.0563 33 -7.05635
      vertex 7.05635 33 -7.05635
    endloop
  endfacet
  facet normal 0 1 0
    outer loop
      vertex 26.5563 33 -4.55635
      vertex 24.0563 33 -24.0563
      vertex 24.0563 33 -7.05635
    endloop
  endfacet
  facet normal 0 1 0
    outer loop
      vertex 24.0563 33 -24.0563
      vertex 26.5563 33 -26.5563
      vertex 7.05635 33 -24.0563
    endloop
  endfacet
  facet normal 0 1 -0
    outer loop
      vertex 26.5563 33 -26.5563
      vertex 24.0563 33 -24.0563
      vertex 26.5563 33 -4.55635
    endloop
  endfacet
  facet normal 0 1 -0
    outer loop
      vertex 7.05635 33 -7.05635
      vertex 4.55635 33 -4.55635
      vertex 26.5563 33 -4.55635
    endloop
  endfacet
  facet normal 0 1 -0
    outer loop
      vertex 7.05635 33 -24.0563
      vertex 4.55635 33 -4.55635
      vertex 7.05635 33 -7.05635
    endloop
  endfacet
  facet normal 0 1 0
    outer loop
      vertex 7.05635 33 -24.0563
      vertex 4.55635 33 -26.5563
      vertex 4.55635 33 -4.55635
    endloop
  endfacet
  facet normal 0 1 0
    outer loop
      vertex 4.55635 33 -26.5563
      vertex 7.05635 33 -24.0563
      vertex 26.5563 33 -26.5563
    endloop
  endfacet
  facet normal -0.499999 0.707108 -0.499999
    outer loop
      vertex 0.721825 0 16.2782
      vertex 7.05635 -12.0208 -7.05635
      vertex -7.77817 -12.0208 7.77817
    endloop
  endfacet
  facet normal -0.500001 0.707107 -0.499999
    outer loop
      vertex 7.05635 -12.0208 -7.05635
      vertex 0.721825 0 16.2782
      vertex 24.0563 0 -7.05635
    endloop
  endfacet
  facet normal -0.499999 -0.707108 -0.499999
    outer loop
      vertex 7.05635 12.0208 -7.05635
      vertex 0.721825 0 16.2782
      vertex -7.77817 12.0208 7.77817
    endloop
  endfacet
  facet normal -0.500001 -0.707107 -0.499999
    outer loop
      vertex 0.721825 0 16.2782
      vertex 7.05635 12.0208 -7.05635
      vertex 24.0563 0 -7.05635
    endloop
  endfacet
  facet normal 0.499999 0.707108 0.499999
    outer loop
      vertex 7.05635 -12.0208 -7.05635
      vertex -16.2782 0 -0.721825
      vertex -7.77817 -12.0208 7.77817
    endloop
  endfacet
  facet normal 0.499999 0.707107 0.500001
    outer loop
      vertex -16.2782 0 -0.721825
      vertex 7.05635 -12.0208 -7.05635
      vertex 7.05635 0 -24.0563
    endloop
  endfacet
  facet normal 0.499999 -0.707108 0.499999
    outer loop
      vertex -16.2782 0 -0.721825
      vertex 7.05635 12.0208 -7.05635
      vertex -7.77817 12.0208 7.77817
    endloop
  endfacet
  facet normal 0.499999 -0.707107 0.500001
    outer loop
      vertex 7.05635 12.0208 -7.05635
      vertex -16.2782 0 -0.721825
      vertex 7.05635 0 -24.0563
    endloop
  endfacet
  facet normal 0 0 1
    outer loop
      vertex 7.05635 0 -24.0563
      vertex 24.0563 33 -24.0563
      vertex 7.05635 33 -24.0563
    endloop
  endfacet
  facet normal 0 0 1
    outer loop
      vertex 24.0563 33 -24.0563
      vertex 7.05635 0 -24.0563
      vertex 24.0563 -15.5563 -24.0563
    endloop
  endfacet
  facet normal 0 0 1
    outer loop
      vertex 24.0563 -15.5563 -24.0563
      vertex 7.05635 0 -24.0563
      vertex 7.05635 -15.5563 -24.0563
    endloop
  endfacet
  facet normal 1 0 0
    outer loop
      vertex 7.05635 -15.5563 -24.0563
      vertex 7.05635 -12.0208 -7.05635
      vertex 7.05635 -15.5563 -7.05635
    endloop
  endfacet
  facet normal 1 0 0
    outer loop
      vertex 7.05635 -12.0208 -7.05635
      vertex 7.05635 -15.5563 -24.0563
      vertex 7.05635 0 -24.0563
    endloop
  endfacet
  facet normal 1 -0 0
    outer loop
      vertex 7.05635 12.0208 -7.05635
      vertex 7.05635 33 -24.0563
      vertex 7.05635 33 -7.05635
    endloop
  endfacet
  facet normal 1 0 0
    outer loop
      vertex 7.05635 33 -24.0563
      vertex 7.05635 12.0208 -7.05635
      vertex 7.05635 0 -24.0563
    endloop
  endfacet
  facet normal 0 0 -1
    outer loop
      vertex 7.05635 -12.0208 -7.05635
      vertex 24.0563 -15.5563 -7.05635
      vertex 7.05635 -15.5563 -7.05635
    endloop
  endfacet
  facet normal 0 0 -1
    outer loop
      vertex 24.0563 -15.5563 -7.05635
      vertex 7.05635 -12.0208 -7.05635
      vertex 24.0563 0 -7.05635
    endloop
  endfacet
  facet normal 0 0 -1
    outer loop
      vertex 7.05635 12.0208 -7.05635
      vertex 24.0563 33 -7.05635
      vertex 24.0563 0 -7.05635
    endloop
  endfacet
  facet normal -0 0 -1
    outer loop
      vertex 24.0563 33 -7.05635
      vertex 7.05635 12.0208 -7.05635
      vertex 7.05635 33 -7.05635
    endloop
  endfacet
  facet normal -1 0 0
    outer loop
      vertex 24.0563 33 -24.0563
      vertex 24.0563 0 -7.05635
      vertex 24.0563 33 -7.05635
    endloop
  endfacet
  facet normal -1 0 0
    outer loop
      vertex 24.0563 -15.5563 -24.0563
      vertex 24.0563 0 -7.05635
      vertex 24.0563 33 -24.0563
    endloop
  endfacet
  facet normal -1 -0 0
    outer loop
      vertex 24.0563 0 -7.05635
      vertex 24.0563 -15.5563 -24.0563
      vertex 24.0563 -15.5563 -7.05635
    endloop
  endfacet
endsolid OpenSCAD_Model
