solid OpenSCAD_Model
  facet normal 0.587785 -0.809017 0
    outer loop
      vertex 10 -17.3205 3
      vertex 13.3826 -14.8629 18
      vertex 10 -17.3205 18
    endloop
  endfacet
  facet normal 0.587785 -0.809017 0
    outer loop
      vertex 13.3826 -14.8629 18
      vertex 10 -17.3205 3
      vertex 13.3826 -14.8629 3
    endloop
  endfacet
  facet normal 0.951053 0.309029 0
    outer loop
      vertex 19.563 4.15823 18
      vertex 18.2709 8.13473 3
      vertex 18.2709 8.13473 18
    endloop
  endfacet
  facet normal 0.951053 0.309029 0
    outer loop
      vertex 18.2709 8.13473 3
      vertex 19.563 4.15823 18
      vertex 19.563 4.15823 3
    endloop
  endfacet
  facet normal 0.994523 0.104517 0
    outer loop
      vertex 20 0 18
      vertex 19.563 4.15823 3
      vertex 19.563 4.15823 18
    endloop
  endfacet
  facet normal 0.994523 0.104517 0
    outer loop
      vertex 19.563 4.15823 3
      vertex 20 0 18
      vertex 20 0 3
    endloop
  endfacet
  facet normal 0.866022 0.500006 0
    outer loop
      vertex 18.2709 8.13473 18
      vertex 16.1803 11.7557 3
      vertex 16.1803 11.7557 18
    endloop
  endfacet
  facet normal 0.866022 0.500006 0
    outer loop
      vertex 16.1803 11.7557 3
      vertex 18.2709 8.13473 18
      vertex 18.2709 8.13473 3
    endloop
  endfacet
  facet normal -0.587785 0.809017 0
    outer loop
      vertex -10 17.3205 3
      vertex -13.3826 14.8629 18
      vertex -10 17.3205 18
    endloop
  endfacet
  facet normal -0.587785 0.809017 0
    outer loop
      vertex -13.3826 14.8629 18
      vertex -10 17.3205 3
      vertex -13.3826 14.8629 3
    endloop
  endfacet
  facet normal 0 -1 0
    outer loop
      vertex -2.09057 -19.8904 3
      vertex 2.09057 -19.8904 18
      vertex -2.09057 -19.8904 18
    endloop
  endfacet
  facet normal 0 -1 -0
    outer loop
      vertex 2.09057 -19.8904 18
      vertex -2.09057 -19.8904 3
      vertex 2.09057 -19.8904 3
    endloop
  endfacet
  facet normal 0.994523 -0.104517 0
    outer loop
      vertex 19.563 -4.15823 18
      vertex 20 0 3
      vertex 20 0 18
    endloop
  endfacet
  facet normal 0.994523 -0.104517 0
    outer loop
      vertex 20 0 3
      vertex 19.563 -4.15823 18
      vertex 19.563 -4.15823 3
    endloop
  endfacet
  facet normal 0.866022 -0.500006 0
    outer loop
      vertex 16.1803 -11.7557 18
      vertex 18.2709 -8.13473 3
      vertex 18.2709 -8.13473 18
    endloop
  endfacet
  facet normal 0.866022 -0.500006 0
    outer loop
      vertex 18.2709 -8.13473 3
      vertex 16.1803 -11.7557 18
      vertex 16.1803 -11.7557 3
    endloop
  endfacet
  facet normal 0.406732 0.913547 -0
    outer loop
      vertex 10 17.3205 3
      vertex 6.18034 19.0211 18
      vertex 10 17.3205 18
    endloop
  endfacet
  facet normal 0.406732 0.913547 0
    outer loop
      vertex 6.18034 19.0211 18
      vertex 10 17.3205 3
      vertex 6.18034 19.0211 3
    endloop
  endfacet
  facet normal 0.743149 0.669126 0
    outer loop
      vertex 16.1803 11.7557 18
      vertex 13.3826 14.8629 3
      vertex 13.3826 14.8629 18
    endloop
  endfacet
  facet normal 0.743149 0.669126 0
    outer loop
      vertex 13.3826 14.8629 3
      vertex 16.1803 11.7557 18
      vertex 16.1803 11.7557 3
    endloop
  endfacet
  facet normal -0.743149 0.669126 0
    outer loop
      vertex -16.1803 11.7557 3
      vertex -13.3826 14.8629 18
      vertex -13.3826 14.8629 3
    endloop
  endfacet
  facet normal -0.743149 0.669126 0
    outer loop
      vertex -13.3826 14.8629 18
      vertex -16.1803 11.7557 3
      vertex -16.1803 11.7557 18
    endloop
  endfacet
  facet normal -0.994523 0.104517 0
    outer loop
      vertex -20 0 3
      vertex -19.563 4.15823 18
      vertex -19.563 4.15823 3
    endloop
  endfacet
  facet normal -0.994523 0.104517 0
    outer loop
      vertex -19.563 4.15823 18
      vertex -20 0 3
      vertex -20 0 18
    endloop
  endfacet
  facet normal 0.406732 -0.913547 0
    outer loop
      vertex 6.18034 -19.0211 3
      vertex 10 -17.3205 18
      vertex 6.18034 -19.0211 18
    endloop
  endfacet
  facet normal 0.406732 -0.913547 0
    outer loop
      vertex 10 -17.3205 18
      vertex 6.18034 -19.0211 3
      vertex 10 -17.3205 3
    endloop
  endfacet
  facet normal 0.20791 -0.978148 0
    outer loop
      vertex 2.09057 -19.8904 3
      vertex 6.18034 -19.0211 18
      vertex 2.09057 -19.8904 18
    endloop
  endfacet
  facet normal 0.20791 -0.978148 0
    outer loop
      vertex 6.18034 -19.0211 18
      vertex 2.09057 -19.8904 3
      vertex 6.18034 -19.0211 3
    endloop
  endfacet
  facet normal -0.951053 0.309029 0
    outer loop
      vertex -19.563 4.15823 3
      vertex -18.2709 8.13473 18
      vertex -18.2709 8.13473 3
    endloop
  endfacet
  facet normal -0.951053 0.309029 0
    outer loop
      vertex -18.2709 8.13473 18
      vertex -19.563 4.15823 3
      vertex -19.563 4.15823 18
    endloop
  endfacet
  facet normal -0.20791 0.978148 0
    outer loop
      vertex -2.09057 19.8904 3
      vertex -6.18034 19.0211 18
      vertex -2.09057 19.8904 18
    endloop
  endfacet
  facet normal -0.20791 0.978148 0
    outer loop
      vertex -6.18034 19.0211 18
      vertex -2.09057 19.8904 3
      vertex -6.18034 19.0211 3
    endloop
  endfacet
  facet normal -0.743149 -0.669126 0
    outer loop
      vertex -13.3826 -14.8629 3
      vertex -16.1803 -11.7557 18
      vertex -16.1803 -11.7557 3
    endloop
  endfacet
  facet normal -0.743149 -0.669126 0
    outer loop
      vertex -16.1803 -11.7557 18
      vertex -13.3826 -14.8629 3
      vertex -13.3826 -14.8629 18
    endloop
  endfacet
  facet normal 0 0 1
    outer loop
      vertex 18.5 0 18
      vertex 20 0 18
      vertex 19.563 4.15823 18
    endloop
  endfacet
  facet normal 0 0 1
    outer loop
      vertex 20 0 18
      vertex 18.5 0 18
      vertex 19.563 -4.15823 18
    endloop
  endfacet
  facet normal 0 0 1
    outer loop
      vertex 18.0957 3.84637 18
      vertex 19.563 4.15823 18
      vertex 18.2709 8.13473 18
    endloop
  endfacet
  facet normal 0 0 1
    outer loop
      vertex 19.563 4.15823 18
      vertex 18.0957 3.84637 18
      vertex 18.5 0 18
    endloop
  endfacet
  facet normal 0 0 1
    outer loop
      vertex 18.2709 8.13473 18
      vertex 16.9006 7.52463 18
      vertex 18.0957 3.84637 18
    endloop
  endfacet
  facet normal 0 0 1
    outer loop
      vertex 16.1803 11.7557 18
      vertex 16.9006 7.52463 18
      vertex 18.2709 8.13473 18
    endloop
  endfacet
  facet normal 0 0 1
    outer loop
      vertex 16.1803 11.7557 18
      vertex 14.9668 10.874 18
      vertex 16.9006 7.52463 18
    endloop
  endfacet
  facet normal 0 0 1
    outer loop
      vertex 13.3826 14.8629 18
      vertex 14.9668 10.874 18
      vertex 16.1803 11.7557 18
    endloop
  endfacet
  facet normal 0 0 1
    outer loop
      vertex 13.3826 14.8629 18
      vertex 12.3789 13.7482 18
      vertex 14.9668 10.874 18
    endloop
  endfacet
  facet normal 0 0 1
    outer loop
      vertex 10 17.3205 18
      vertex 12.3789 13.7482 18
      vertex 13.3826 14.8629 18
    endloop
  endfacet
  facet normal 0 0 1
    outer loop
      vertex 10 17.3205 18
      vertex 9.25 16.0215 18
      vertex 12.3789 13.7482 18
    endloop
  endfacet
  facet normal 0 0 1
    outer loop
      vertex 6.18034 19.0211 18
      vertex 9.25 16.0215 18
      vertex 10 17.3205 18
    endloop
  endfacet
  facet normal 0 0 1
    outer loop
      vertex 6.18034 19.0211 18
      vertex 5.71681 17.5945 18
      vertex 9.25 16.0215 18
    endloop
  endfacet
  facet normal 0 0 1
    outer loop
      vertex 2.09057 19.8904 18
      vertex 5.71681 17.5945 18
      vertex 6.18034 19.0211 18
    endloop
  endfacet
  facet normal 0 0 1
    outer loop
      vertex 2.09057 19.8904 18
      vertex 1.93378 18.3987 18
      vertex 5.71681 17.5945 18
    endloop
  endfacet
  facet normal 0 0 1
    outer loop
      vertex 2.09057 19.8904 18
      vertex -1.93378 18.3987 18
      vertex 1.93378 18.3987 18
    endloop
  endfacet
  facet normal -0 0 1
    outer loop
      vertex -2.09057 19.8904 18
      vertex -1.93378 18.3987 18
      vertex 2.09057 19.8904 18
    endloop
  endfacet
  facet normal 0 0 1
    outer loop
      vertex -2.09057 19.8904 18
      vertex -5.71681 17.5945 18
      vertex -1.93378 18.3987 18
    endloop
  endfacet
  facet normal -0 0 1
    outer loop
      vertex -6.18034 19.0211 18
      vertex -5.71681 17.5945 18
      vertex -2.09057 19.8904 18
    endloop
  endfacet
  facet normal 0 0 1
    outer loop
      vertex -6.18034 19.0211 18
      vertex -9.25 16.0215 18
      vertex -5.71681 17.5945 18
    endloop
  endfacet
  facet normal -0 0 1
    outer loop
      vertex -10 17.3205 18
      vertex -9.25 16.0215 18
      vertex -6.18034 19.0211 18
    endloop
  endfacet
  facet normal 0 0 1
    outer loop
      vertex -10 17.3205 18
      vertex -12.3789 13.7482 18
      vertex -9.25 16.0215 18
    endloop
  endfacet
  facet normal -0 0 1
    outer loop
      vertex -13.3826 14.8629 18
      vertex -12.3789 13.7482 18
      vertex -10 17.3205 18
    endloop
  endfacet
  facet normal 0 0 1
    outer loop
      vertex -13.3826 14.8629 18
      vertex -14.9668 10.874 18
      vertex -12.3789 13.7482 18
    endloop
  endfacet
  facet normal -0 0 1
    outer loop
      vertex -16.1803 11.7557 18
      vertex -14.9668 10.874 18
      vertex -13.3826 14.8629 18
    endloop
  endfacet
  facet normal 0 0 1
    outer loop
      vertex -16.1803 11.7557 18
      vertex -16.9006 7.52463 18
      vertex -14.9668 10.874 18
    endloop
  endfacet
  facet normal -0 0 1
    outer loop
      vertex -18.2709 8.13473 18
      vertex -16.9006 7.52463 18
      vertex -16.1803 11.7557 18
    endloop
  endfacet
  facet normal 0 0 1
    outer loop
      vertex -16.9006 7.52463 18
      vertex -18.2709 8.13473 18
      vertex -18.0957 3.84637 18
    endloop
  endfacet
  facet normal -0 0 1
    outer loop
      vertex -19.563 4.15823 18
      vertex -18.0957 3.84637 18
      vertex -18.2709 8.13473 18
    endloop
  endfacet
  facet normal 0 0 1
    outer loop
      vertex -18.0957 3.84637 18
      vertex -19.563 4.15823 18
      vertex -18.5 0 18
    endloop
  endfacet
  facet normal -0 0 1
    outer loop
      vertex 18.0957 -3.84637 18
      vertex 19.563 -4.15823 18
      vertex 18.5 0 18
    endloop
  endfacet
  facet normal 0 0 1
    outer loop
      vertex 19.563 -4.15823 18
      vertex 18.0957 -3.84637 18
      vertex 18.2709 -8.13473 18
    endloop
  endfacet
  facet normal -0 0 1
    outer loop
      vertex 16.9006 -7.52463 18
      vertex 18.2709 -8.13473 18
      vertex 18.0957 -3.84637 18
    endloop
  endfacet
  facet normal 0 0 1
    outer loop
      vertex 16.9006 -7.52463 18
      vertex 16.1803 -11.7557 18
      vertex 18.2709 -8.13473 18
    endloop
  endfacet
  facet normal -0 0 1
    outer loop
      vertex 14.9668 -10.874 18
      vertex 16.1803 -11.7557 18
      vertex 16.9006 -7.52463 18
    endloop
  endfacet
  facet normal 0 0 1
    outer loop
      vertex 14.9668 -10.874 18
      vertex 13.3826 -14.8629 18
      vertex 16.1803 -11.7557 18
    endloop
  endfacet
  facet normal -0 0 1
    outer loop
      vertex 12.3789 -13.7482 18
      vertex 13.3826 -14.8629 18
      vertex 14.9668 -10.874 18
    endloop
  endfacet
  facet normal 0 0 1
    outer loop
      vertex 12.3789 -13.7482 18
      vertex 10 -17.3205 18
      vertex 13.3826 -14.8629 18
    endloop
  endfacet
  facet normal -0 0 1
    outer loop
      vertex 9.25 -16.0215 18
      vertex 10 -17.3205 18
      vertex 12.3789 -13.7482 18
    endloop
  endfacet
  facet normal 0 0 1
    outer loop
      vertex 9.25 -16.0215 18
      vertex 6.18034 -19.0211 18
      vertex 10 -17.3205 18
    endloop
  endfacet
  facet normal -0 0 1
    outer loop
      vertex 5.71681 -17.5945 18
      vertex 6.18034 -19.0211 18
      vertex 9.25 -16.0215 18
    endloop
  endfacet
  facet normal 0 0 1
    outer loop
      vertex 5.71681 -17.5945 18
      vertex 2.09057 -19.8904 18
      vertex 6.18034 -19.0211 18
    endloop
  endfacet
  facet normal -0 0 1
    outer loop
      vertex 1.93378 -18.3987 18
      vertex 2.09057 -19.8904 18
      vertex 5.71681 -17.5945 18
    endloop
  endfacet
  facet normal -0 0 1
    outer loop
      vertex -1.93378 -18.3987 18
      vertex 2.09057 -19.8904 18
      vertex 1.93378 -18.3987 18
    endloop
  endfacet
  facet normal 0 0 1
    outer loop
      vertex -1.93378 -18.3987 18
      vertex -2.09057 -19.8904 18
      vertex 2.09057 -19.8904 18
    endloop
  endfacet
  facet normal 0 0 1
    outer loop
      vertex -5.71681 -17.5945 18
      vertex -2.09057 -19.8904 18
      vertex -1.93378 -18.3987 18
    endloop
  endfacet
  facet normal 0 0 1
    outer loop
      vertex -5.71681 -17.5945 18
      vertex -6.18034 -19.0211 18
      vertex -2.09057 -19.8904 18
    endloop
  endfacet
  facet normal 0 0 1
    outer loop
      vertex -9.25 -16.0215 18
      vertex -6.18034 -19.0211 18
      vertex -5.71681 -17.5945 18
    endloop
  endfacet
  facet normal 0 0 1
    outer loop
      vertex -9.25 -16.0215 18
      vertex -10 -17.3205 18
      vertex -6.18034 -19.0211 18
    endloop
  endfacet
  facet normal 0 0 1
    outer loop
      vertex -12.3789 -13.7482 18
      vertex -10 -17.3205 18
      vertex -9.25 -16.0215 18
    endloop
  endfacet
  facet normal 0 0 1
    outer loop
      vertex -12.3789 -13.7482 18
      vertex -13.3826 -14.8629 18
      vertex -10 -17.3205 18
    endloop
  endfacet
  facet normal 0 0 1
    outer loop
      vertex -14.9668 -10.874 18
      vertex -13.3826 -14.8629 18
      vertex -12.3789 -13.7482 18
    endloop
  endfacet
  facet normal 0 0 1
    outer loop
      vertex -14.9668 -10.874 18
      vertex -16.1803 -11.7557 18
      vertex -13.3826 -14.8629 18
    endloop
  endfacet
  facet normal 0 0 1
    outer loop
      vertex -16.9006 -7.52463 18
      vertex -16.1803 -11.7557 18
      vertex -14.9668 -10.874 18
    endloop
  endfacet
  facet normal 0 0 1
    outer loop
      vertex -18.2709 -8.13473 18
      vertex -16.9006 -7.52463 18
      vertex -18.0957 -3.84637 18
    endloop
  endfacet
  facet normal 0 0 1
    outer loop
      vertex -16.9006 -7.52463 18
      vertex -18.2709 -8.13473 18
      vertex -16.1803 -11.7557 18
    endloop
  endfacet
  facet normal 0 0 1
    outer loop
      vertex -19.563 -4.15823 18
      vertex -18.0957 -3.84637 18
      vertex -18.5 0 18
    endloop
  endfacet
  facet normal 0 0 1
    outer loop
      vertex -20 0 18
      vertex -18.5 0 18
      vertex -19.563 4.15823 18
    endloop
  endfacet
  facet normal 0 0 1
    outer loop
      vertex -18.0957 -3.84637 18
      vertex -19.563 -4.15823 18
      vertex -18.2709 -8.13473 18
    endloop
  endfacet
  facet normal 0 0 1
    outer loop
      vertex -18.5 0 18
      vertex -20 0 18
      vertex -19.563 -4.15823 18
    endloop
  endfacet
  facet normal -0.866022 -0.500006 0
    outer loop
      vertex -16.1803 -11.7557 3
      vertex -18.2709 -8.13473 18
      vertex -18.2709 -8.13473 3
    endloop
  endfacet
  facet normal -0.866022 -0.500006 0
    outer loop
      vertex -18.2709 -8.13473 18
      vertex -16.1803 -11.7557 3
      vertex -16.1803 -11.7557 18
    endloop
  endfacet
  facet normal 0 1 -0
    outer loop
      vertex 2.09057 19.8904 3
      vertex -2.09057 19.8904 18
      vertex 2.09057 19.8904 18
    endloop
  endfacet
  facet normal 0 1 0
    outer loop
      vertex -2.09057 19.8904 18
      vertex 2.09057 19.8904 3
      vertex -2.09057 19.8904 3
    endloop
  endfacet
  facet normal -0.994523 -0.104517 0
    outer loop
      vertex -19.563 -4.15823 3
      vertex -20 0 18
      vertex -20 0 3
    endloop
  endfacet
  facet normal -0.994523 -0.104517 0
    outer loop
      vertex -20 0 18
      vertex -19.563 -4.15823 3
      vertex -19.563 -4.15823 18
    endloop
  endfacet
  facet normal 0.743149 -0.669126 0
    outer loop
      vertex 13.3826 -14.8629 18
      vertex 16.1803 -11.7557 3
      vertex 16.1803 -11.7557 18
    endloop
  endfacet
  facet normal 0.743149 -0.669126 0
    outer loop
      vertex 16.1803 -11.7557 3
      vertex 13.3826 -14.8629 18
      vertex 13.3826 -14.8629 3
    endloop
  endfacet
  facet normal -0.866022 0.500006 0
    outer loop
      vertex -18.2709 8.13473 3
      vertex -16.1803 11.7557 18
      vertex -16.1803 11.7557 3
    endloop
  endfacet
  facet normal -0.866022 0.500006 0
    outer loop
      vertex -16.1803 11.7557 18
      vertex -18.2709 8.13473 3
      vertex -18.2709 8.13473 18
    endloop
  endfacet
  facet normal -0.20791 -0.978148 0
    outer loop
      vertex -6.18034 -19.0211 3
      vertex -2.09057 -19.8904 18
      vertex -6.18034 -19.0211 18
    endloop
  endfacet
  facet normal -0.20791 -0.978148 -0
    outer loop
      vertex -2.09057 -19.8904 18
      vertex -6.18034 -19.0211 3
      vertex -2.09057 -19.8904 3
    endloop
  endfacet
  facet normal -0.406732 0.913547 0
    outer loop
      vertex -6.18034 19.0211 3
      vertex -10 17.3205 18
      vertex -6.18034 19.0211 18
    endloop
  endfacet
  facet normal -0.406732 0.913547 0
    outer loop
      vertex -10 17.3205 18
      vertex -6.18034 19.0211 3
      vertex -10 17.3205 3
    endloop
  endfacet
  facet normal 0.587785 0.809017 -0
    outer loop
      vertex 13.3826 14.8629 3
      vertex 10 17.3205 18
      vertex 13.3826 14.8629 18
    endloop
  endfacet
  facet normal 0.587785 0.809017 0
    outer loop
      vertex 10 17.3205 18
      vertex 13.3826 14.8629 3
      vertex 10 17.3205 3
    endloop
  endfacet
  facet normal 0.951053 -0.309029 0
    outer loop
      vertex 18.2709 -8.13473 18
      vertex 19.563 -4.15823 3
      vertex 19.563 -4.15823 18
    endloop
  endfacet
  facet normal 0.951053 -0.309029 0
    outer loop
      vertex 19.563 -4.15823 3
      vertex 18.2709 -8.13473 18
      vertex 18.2709 -8.13473 3
    endloop
  endfacet
  facet normal -0.951053 -0.309029 0
    outer loop
      vertex -18.2709 -8.13473 3
      vertex -19.563 -4.15823 18
      vertex -19.563 -4.15823 3
    endloop
  endfacet
  facet normal -0.951053 -0.309029 0
    outer loop
      vertex -19.563 -4.15823 18
      vertex -18.2709 -8.13473 3
      vertex -18.2709 -8.13473 18
    endloop
  endfacet
  facet normal -0.587785 -0.809017 0
    outer loop
      vertex -13.3826 -14.8629 3
      vertex -10 -17.3205 18
      vertex -13.3826 -14.8629 18
    endloop
  endfacet
  facet normal -0.587785 -0.809017 -0
    outer loop
      vertex -10 -17.3205 18
      vertex -13.3826 -14.8629 3
      vertex -10 -17.3205 3
    endloop
  endfacet
  facet normal 0 0 1
    outer loop
      vertex 18.0957 3.84637 3
      vertex 18.0957 -3.84637 3
      vertex 18.5 0 3
    endloop
  endfacet
  facet normal 0 0 1
    outer loop
      vertex 16.9006 7.52463 3
      vertex 18.0957 -3.84637 3
      vertex 18.0957 3.84637 3
    endloop
  endfacet
  facet normal 0 0 1
    outer loop
      vertex 16.9006 7.52463 3
      vertex 16.9006 -7.52463 3
      vertex 18.0957 -3.84637 3
    endloop
  endfacet
  facet normal 0 0 1
    outer loop
      vertex 14.9668 10.874 3
      vertex 16.9006 -7.52463 3
      vertex 16.9006 7.52463 3
    endloop
  endfacet
  facet normal 0 0 1
    outer loop
      vertex 14.9668 10.874 3
      vertex 14.9668 -10.874 3
      vertex 16.9006 -7.52463 3
    endloop
  endfacet
  facet normal 0 0 1
    outer loop
      vertex 12.3789 13.7482 3
      vertex 14.9668 -10.874 3
      vertex 14.9668 10.874 3
    endloop
  endfacet
  facet normal 0 0 1
    outer loop
      vertex 12.3789 13.7482 3
      vertex 12.3789 -13.7482 3
      vertex 14.9668 -10.874 3
    endloop
  endfacet
  facet normal 0 0 1
    outer loop
      vertex 9.25 16.0215 3
      vertex 12.3789 -13.7482 3
      vertex 12.3789 13.7482 3
    endloop
  endfacet
  facet normal 0 0 1
    outer loop
      vertex 9.25 16.0215 3
      vertex 9.25 -16.0215 3
      vertex 12.3789 -13.7482 3
    endloop
  endfacet
  facet normal 0 0 1
    outer loop
      vertex 5.71681 17.5945 3
      vertex 9.25 -16.0215 3
      vertex 9.25 16.0215 3
    endloop
  endfacet
  facet normal 0 0 1
    outer loop
      vertex 5.71681 17.5945 3
      vertex 5.71681 -17.5945 3
      vertex 9.25 -16.0215 3
    endloop
  endfacet
  facet normal 0 0 1
    outer loop
      vertex 1.93378 18.3987 3
      vertex 5.71681 -17.5945 3
      vertex 5.71681 17.5945 3
    endloop
  endfacet
  facet normal 0 0 1
    outer loop
      vertex 1.93378 18.3987 3
      vertex 1.93378 -18.3987 3
      vertex 5.71681 -17.5945 3
    endloop
  endfacet
  facet normal -0 0 1
    outer loop
      vertex -1.93378 18.3987 3
      vertex 1.93378 -18.3987 3
      vertex 1.93378 18.3987 3
    endloop
  endfacet
  facet normal 0 0 1
    outer loop
      vertex -1.93378 18.3987 3
      vertex -1.93378 -18.3987 3
      vertex 1.93378 -18.3987 3
    endloop
  endfacet
  facet normal -0 0 1
    outer loop
      vertex -5.71681 17.5945 3
      vertex -1.93378 -18.3987 3
      vertex -1.93378 18.3987 3
    endloop
  endfacet
  facet normal 0 0 1
    outer loop
      vertex -5.71681 17.5945 3
      vertex -5.71681 -17.5945 3
      vertex -1.93378 -18.3987 3
    endloop
  endfacet
  facet normal -0 0 1
    outer loop
      vertex -9.25 16.0215 3
      vertex -5.71681 -17.5945 3
      vertex -5.71681 17.5945 3
    endloop
  endfacet
  facet normal 0 0 1
    outer loop
      vertex -9.25 16.0215 3
      vertex -9.25 -16.0215 3
      vertex -5.71681 -17.5945 3
    endloop
  endfacet
  facet normal -0 0 1
    outer loop
      vertex -12.3789 13.7482 3
      vertex -9.25 -16.0215 3
      vertex -9.25 16.0215 3
    endloop
  endfacet
  facet normal 0 0 1
    outer loop
      vertex -12.3789 13.7482 3
      vertex -12.3789 -13.7482 3
      vertex -9.25 -16.0215 3
    endloop
  endfacet
  facet normal -0 0 1
    outer loop
      vertex -14.9668 10.874 3
      vertex -12.3789 -13.7482 3
      vertex -12.3789 13.7482 3
    endloop
  endfacet
  facet normal 0 0 1
    outer loop
      vertex -14.9668 10.874 3
      vertex -14.9668 -10.874 3
      vertex -12.3789 -13.7482 3
    endloop
  endfacet
  facet normal -0 0 1
    outer loop
      vertex -16.9006 7.52463 3
      vertex -14.9668 -10.874 3
      vertex -14.9668 10.874 3
    endloop
  endfacet
  facet normal 0 0 1
    outer loop
      vertex -16.9006 7.52463 3
      vertex -16.9006 -7.52463 3
      vertex -14.9668 -10.874 3
    endloop
  endfacet
  facet normal -0 0 1
    outer loop
      vertex -18.0957 3.84637 3
      vertex -16.9006 -7.52463 3
      vertex -16.9006 7.52463 3
    endloop
  endfacet
  facet normal 0 0 1
    outer loop
      vertex -18.0957 3.84637 3
      vertex -18.0957 -3.84637 3
      vertex -16.9006 -7.52463 3
    endloop
  endfacet
  facet normal 0 -0 1
    outer loop
      vertex -18.0957 -3.84637 3
      vertex -18.0957 3.84637 3
      vertex -18.5 0 3
    endloop
  endfacet
  facet normal 0 0 1
    outer loop
      vertex 20 0 3
      vertex 30 0 3
      vertex 29.3444 6.23735 3
    endloop
  endfacet
  facet normal 0 0 1
    outer loop
      vertex 19.563 4.15823 3
      vertex 29.3444 6.23735 3
      vertex 27.4064 12.2021 3
    endloop
  endfacet
  facet normal 0 0 1
    outer loop
      vertex 30 0 3
      vertex 20 0 3
      vertex 29.3444 -6.23735 3
    endloop
  endfacet
  facet normal 0 0 1
    outer loop
      vertex 18.2709 8.13473 3
      vertex 27.4064 12.2021 3
      vertex 24.2705 17.6336 3
    endloop
  endfacet
  facet normal -0 0 1
    outer loop
      vertex 19.563 -4.15823 3
      vertex 29.3444 -6.23735 3
      vertex 20 0 3
    endloop
  endfacet
  facet normal 0 0 1
    outer loop
      vertex 16.1803 11.7557 3
      vertex 24.2705 17.6336 3
      vertex 20.0739 22.2943 3
    endloop
  endfacet
  facet normal 0 0 1
    outer loop
      vertex 29.3444 -6.23735 3
      vertex 19.563 -4.15823 3
      vertex 27.4064 -12.2021 3
    endloop
  endfacet
  facet normal -0 0 1
    outer loop
      vertex 18.2709 -8.13473 3
      vertex 27.4064 -12.2021 3
      vertex 19.563 -4.15823 3
    endloop
  endfacet
  facet normal 0 0 1
    outer loop
      vertex 29.3444 6.23735 3
      vertex 19.563 4.15823 3
      vertex 20 0 3
    endloop
  endfacet
  facet normal 0 0 1
    outer loop
      vertex 27.4064 12.2021 3
      vertex 18.2709 8.13473 3
      vertex 19.563 4.15823 3
    endloop
  endfacet
  facet normal 0 0 1
    outer loop
      vertex 24.2705 17.6336 3
      vertex 16.1803 11.7557 3
      vertex 18.2709 8.13473 3
    endloop
  endfacet
  facet normal 0 0 1
    outer loop
      vertex 13.3826 14.8629 3
      vertex 20.0739 22.2943 3
      vertex 15 25.9808 3
    endloop
  endfacet
  facet normal 0 0 1
    outer loop
      vertex 20.0739 22.2943 3
      vertex 13.3826 14.8629 3
      vertex 16.1803 11.7557 3
    endloop
  endfacet
  facet normal 0 0 1
    outer loop
      vertex 15 25.9808 3
      vertex 10 17.3205 3
      vertex 13.3826 14.8629 3
    endloop
  endfacet
  facet normal 0 0 1
    outer loop
      vertex 9.27051 28.5317 3
      vertex 10 17.3205 3
      vertex 15 25.9808 3
    endloop
  endfacet
  facet normal 0 0 1
    outer loop
      vertex 9.27051 28.5317 3
      vertex 6.18034 19.0211 3
      vertex 10 17.3205 3
    endloop
  endfacet
  facet normal 0 0 1
    outer loop
      vertex 3.13585 29.8357 3
      vertex 6.18034 19.0211 3
      vertex 9.27051 28.5317 3
    endloop
  endfacet
  facet normal 0 0 1
    outer loop
      vertex 3.13585 29.8357 3
      vertex 2.09057 19.8904 3
      vertex 6.18034 19.0211 3
    endloop
  endfacet
  facet normal 0 0 1
    outer loop
      vertex 3.13585 29.8357 3
      vertex -2.09057 19.8904 3
      vertex 2.09057 19.8904 3
    endloop
  endfacet
  facet normal -0 0 1
    outer loop
      vertex -3.13585 29.8357 3
      vertex -2.09057 19.8904 3
      vertex 3.13585 29.8357 3
    endloop
  endfacet
  facet normal 0 0 1
    outer loop
      vertex -3.13585 29.8357 3
      vertex -6.18034 19.0211 3
      vertex -2.09057 19.8904 3
    endloop
  endfacet
  facet normal -0 0 1
    outer loop
      vertex -9.27051 28.5317 3
      vertex -6.18034 19.0211 3
      vertex -3.13585 29.8357 3
    endloop
  endfacet
  facet normal 0 0 1
    outer loop
      vertex -9.27051 28.5317 3
      vertex -10 17.3205 3
      vertex -6.18034 19.0211 3
    endloop
  endfacet
  facet normal -0 0 1
    outer loop
      vertex -15 25.9808 3
      vertex -10 17.3205 3
      vertex -9.27051 28.5317 3
    endloop
  endfacet
  facet normal 0 0 1
    outer loop
      vertex -10 17.3205 3
      vertex -15 25.9808 3
      vertex -13.3826 14.8629 3
    endloop
  endfacet
  facet normal -0 0 1
    outer loop
      vertex -20.0739 22.2943 3
      vertex -13.3826 14.8629 3
      vertex -15 25.9808 3
    endloop
  endfacet
  facet normal 0 0 1
    outer loop
      vertex -13.3826 14.8629 3
      vertex -20.0739 22.2943 3
      vertex -16.1803 11.7557 3
    endloop
  endfacet
  facet normal -0 0 1
    outer loop
      vertex -24.2705 17.6336 3
      vertex -16.1803 11.7557 3
      vertex -20.0739 22.2943 3
    endloop
  endfacet
  facet normal -0 0 1
    outer loop
      vertex -27.4064 12.2021 3
      vertex -18.2709 8.13473 3
      vertex -24.2705 17.6336 3
    endloop
  endfacet
  facet normal 0 0 1
    outer loop
      vertex -16.1803 11.7557 3
      vertex -24.2705 17.6336 3
      vertex -18.2709 8.13473 3
    endloop
  endfacet
  facet normal 0 0 1
    outer loop
      vertex 27.4064 -12.2021 3
      vertex 18.2709 -8.13473 3
      vertex 24.2705 -17.6336 3
    endloop
  endfacet
  facet normal -0 0 1
    outer loop
      vertex 16.1803 -11.7557 3
      vertex 24.2705 -17.6336 3
      vertex 18.2709 -8.13473 3
    endloop
  endfacet
  facet normal 0 0 1
    outer loop
      vertex 24.2705 -17.6336 3
      vertex 16.1803 -11.7557 3
      vertex 20.0739 -22.2943 3
    endloop
  endfacet
  facet normal -0 0 1
    outer loop
      vertex 13.3826 -14.8629 3
      vertex 20.0739 -22.2943 3
      vertex 16.1803 -11.7557 3
    endloop
  endfacet
  facet normal 0 0 1
    outer loop
      vertex 20.0739 -22.2943 3
      vertex 13.3826 -14.8629 3
      vertex 15 -25.9808 3
    endloop
  endfacet
  facet normal -0 0 1
    outer loop
      vertex 10 -17.3205 3
      vertex 15 -25.9808 3
      vertex 13.3826 -14.8629 3
    endloop
  endfacet
  facet normal 0 0 1
    outer loop
      vertex 10 -17.3205 3
      vertex 9.27051 -28.5317 3
      vertex 15 -25.9808 3
    endloop
  endfacet
  facet normal -0 0 1
    outer loop
      vertex 6.18034 -19.0211 3
      vertex 9.27051 -28.5317 3
      vertex 10 -17.3205 3
    endloop
  endfacet
  facet normal 0 0 1
    outer loop
      vertex 6.18034 -19.0211 3
      vertex 3.13585 -29.8357 3
      vertex 9.27051 -28.5317 3
    endloop
  endfacet
  facet normal -0 0 1
    outer loop
      vertex 2.09057 -19.8904 3
      vertex 3.13585 -29.8357 3
      vertex 6.18034 -19.0211 3
    endloop
  endfacet
  facet normal -0 0 1
    outer loop
      vertex -2.09057 -19.8904 3
      vertex 3.13585 -29.8357 3
      vertex 2.09057 -19.8904 3
    endloop
  endfacet
  facet normal 0 0 1
    outer loop
      vertex -2.09057 -19.8904 3
      vertex -3.13585 -29.8357 3
      vertex 3.13585 -29.8357 3
    endloop
  endfacet
  facet normal 0 0 1
    outer loop
      vertex -6.18034 -19.0211 3
      vertex -3.13585 -29.8357 3
      vertex -2.09057 -19.8904 3
    endloop
  endfacet
  facet normal 0 0 1
    outer loop
      vertex -6.18034 -19.0211 3
      vertex -9.27051 -28.5317 3
      vertex -3.13585 -29.8357 3
    endloop
  endfacet
  facet normal 0 0 1
    outer loop
      vertex -10 -17.3205 3
      vertex -9.27051 -28.5317 3
      vertex -6.18034 -19.0211 3
    endloop
  endfacet
  facet normal 0 0 1
    outer loop
      vertex -15 -25.9808 3
      vertex -10 -17.3205 3
      vertex -13.3826 -14.8629 3
    endloop
  endfacet
  facet normal 0 0 1
    outer loop
      vertex -10 -17.3205 3
      vertex -15 -25.9808 3
      vertex -9.27051 -28.5317 3
    endloop
  endfacet
  facet normal 0 0 1
    outer loop
      vertex -20.0739 -22.2943 3
      vertex -13.3826 -14.8629 3
      vertex -16.1803 -11.7557 3
    endloop
  endfacet
  facet normal 0 0 1
    outer loop
      vertex -24.2705 -17.6336 3
      vertex -16.1803 -11.7557 3
      vertex -18.2709 -8.13473 3
    endloop
  endfacet
  facet normal 0 0 1
    outer loop
      vertex -27.4064 -12.2021 3
      vertex -18.2709 -8.13473 3
      vertex -19.563 -4.15823 3
    endloop
  endfacet
  facet normal 0 0 1
    outer loop
      vertex -13.3826 -14.8629 3
      vertex -20.0739 -22.2943 3
      vertex -15 -25.9808 3
    endloop
  endfacet
  facet normal 0 0 1
    outer loop
      vertex -29.3444 -6.23735 3
      vertex -19.563 -4.15823 3
      vertex -20 0 3
    endloop
  endfacet
  facet normal 0 0 1
    outer loop
      vertex -18.2709 8.13473 3
      vertex -27.4064 12.2021 3
      vertex -19.563 4.15823 3
    endloop
  endfacet
  facet normal -0 0 1
    outer loop
      vertex -29.3444 6.23735 3
      vertex -19.563 4.15823 3
      vertex -27.4064 12.2021 3
    endloop
  endfacet
  facet normal 0 0 1
    outer loop
      vertex -16.1803 -11.7557 3
      vertex -24.2705 -17.6336 3
      vertex -20.0739 -22.2943 3
    endloop
  endfacet
  facet normal 0 0 1
    outer loop
      vertex -19.563 4.15823 3
      vertex -29.3444 6.23735 3
      vertex -20 0 3
    endloop
  endfacet
  facet normal 0 0 1
    outer loop
      vertex -18.2709 -8.13473 3
      vertex -27.4064 -12.2021 3
      vertex -24.2705 -17.6336 3
    endloop
  endfacet
  facet normal 0 0 1
    outer loop
      vertex -30 0 3
      vertex -20 0 3
      vertex -29.3444 6.23735 3
    endloop
  endfacet
  facet normal 0 0 1
    outer loop
      vertex -19.563 -4.15823 3
      vertex -29.3444 -6.23735 3
      vertex -27.4064 -12.2021 3
    endloop
  endfacet
  facet normal 0 0 1
    outer loop
      vertex -20 0 3
      vertex -30 0 3
      vertex -29.3444 -6.23735 3
    endloop
  endfacet
  facet normal -0.406732 -0.913547 0
    outer loop
      vertex -10 -17.3205 3
      vertex -6.18034 -19.0211 18
      vertex -10 -17.3205 18
    endloop
  endfacet
  facet normal -0.406732 -0.913547 -0
    outer loop
      vertex -6.18034 -19.0211 18
      vertex -10 -17.3205 3
      vertex -6.18034 -19.0211 3
    endloop
  endfacet
  facet normal 0.20791 0.978148 -0
    outer loop
      vertex 6.18034 19.0211 3
      vertex 2.09057 19.8904 18
      vertex 6.18034 19.0211 18
    endloop
  endfacet
  facet normal 0.20791 0.978148 0
    outer loop
      vertex 2.09057 19.8904 18
      vertex 6.18034 19.0211 3
      vertex 2.09057 19.8904 3
    endloop
  endfacet
  facet normal -0.951059 -0.309008 0
    outer loop
      vertex 18.0957 3.84637 3
      vertex 16.9006 7.52463 18
      vertex 16.9006 7.52463 3
    endloop
  endfacet
  facet normal -0.951059 -0.309008 0
    outer loop
      vertex 16.9006 7.52463 18
      vertex 18.0957 3.84637 3
      vertex 18.0957 3.84637 18
    endloop
  endfacet
  facet normal -0.994521 -0.104536 0
    outer loop
      vertex 18.5 0 3
      vertex 18.0957 3.84637 18
      vertex 18.0957 3.84637 3
    endloop
  endfacet
  facet normal -0.994521 -0.104536 0
    outer loop
      vertex 18.0957 3.84637 18
      vertex 18.5 0 3
      vertex 18.5 0 18
    endloop
  endfacet
  facet normal -0.866021 -0.500008 0
    outer loop
      vertex 16.9006 7.52463 3
      vertex 14.9668 10.874 18
      vertex 14.9668 10.874 3
    endloop
  endfacet
  facet normal -0.866021 -0.500008 0
    outer loop
      vertex 14.9668 10.874 18
      vertex 16.9006 7.52463 3
      vertex 16.9006 7.52463 18
    endloop
  endfacet
  facet normal 0.40672 -0.913553 0
    outer loop
      vertex -9.25 16.0215 3
      vertex -5.71681 17.5945 18
      vertex -9.25 16.0215 18
    endloop
  endfacet
  facet normal 0.40672 -0.913553 0
    outer loop
      vertex -5.71681 17.5945 18
      vertex -9.25 16.0215 3
      vertex -5.71681 17.5945 3
    endloop
  endfacet
  facet normal -0.951059 0.309008 0
    outer loop
      vertex 16.9006 -7.52463 3
      vertex 18.0957 -3.84637 18
      vertex 18.0957 -3.84637 3
    endloop
  endfacet
  facet normal -0.951059 0.309008 0
    outer loop
      vertex 18.0957 -3.84637 18
      vertex 16.9006 -7.52463 3
      vertex 16.9006 -7.52463 18
    endloop
  endfacet
  facet normal -0.994521 0.104536 0
    outer loop
      vertex 18.0957 -3.84637 3
      vertex 18.5 0 18
      vertex 18.5 0 3
    endloop
  endfacet
  facet normal -0.994521 0.104536 0
    outer loop
      vertex 18.5 0 18
      vertex 18.0957 -3.84637 3
      vertex 18.0957 -3.84637 18
    endloop
  endfacet
  facet normal -0.40672 -0.913553 0
    outer loop
      vertex 5.71681 17.5945 3
      vertex 9.25 16.0215 18
      vertex 5.71681 17.5945 18
    endloop
  endfacet
  facet normal -0.40672 -0.913553 -0
    outer loop
      vertex 9.25 16.0215 18
      vertex 5.71681 17.5945 3
      vertex 9.25 16.0215 3
    endloop
  endfacet
  facet normal 0.74315 -0.669125 0
    outer loop
      vertex -14.9668 10.874 18
      vertex -12.3789 13.7482 3
      vertex -12.3789 13.7482 18
    endloop
  endfacet
  facet normal 0.74315 -0.669125 0
    outer loop
      vertex -12.3789 13.7482 3
      vertex -14.9668 10.874 18
      vertex -14.9668 10.874 3
    endloop
  endfacet
  facet normal 0.866021 -0.500008 0
    outer loop
      vertex -16.9006 7.52463 18
      vertex -14.9668 10.874 3
      vertex -14.9668 10.874 18
    endloop
  endfacet
  facet normal 0.866021 -0.500008 0
    outer loop
      vertex -14.9668 10.874 3
      vertex -16.9006 7.52463 18
      vertex -16.9006 7.52463 3
    endloop
  endfacet
  facet normal 0.587789 -0.809014 0
    outer loop
      vertex -12.3789 13.7482 3
      vertex -9.25 16.0215 18
      vertex -12.3789 13.7482 18
    endloop
  endfacet
  facet normal 0.587789 -0.809014 0
    outer loop
      vertex -9.25 16.0215 18
      vertex -12.3789 13.7482 3
      vertex -9.25 16.0215 3
    endloop
  endfacet
  facet normal -0.866021 0.500008 0
    outer loop
      vertex 14.9668 -10.874 3
      vertex 16.9006 -7.52463 18
      vertex 16.9006 -7.52463 3
    endloop
  endfacet
  facet normal -0.866021 0.500008 0
    outer loop
      vertex 16.9006 -7.52463 18
      vertex 14.9668 -10.874 3
      vertex 14.9668 -10.874 18
    endloop
  endfacet
  facet normal 0 -1 0
    outer loop
      vertex -1.93378 18.3987 3
      vertex 1.93378 18.3987 18
      vertex -1.93378 18.3987 18
    endloop
  endfacet
  facet normal 0 -1 -0
    outer loop
      vertex 1.93378 18.3987 18
      vertex -1.93378 18.3987 3
      vertex 1.93378 18.3987 3
    endloop
  endfacet
  facet normal -0.587789 0.809014 0
    outer loop
      vertex 12.3789 -13.7482 3
      vertex 9.25 -16.0215 18
      vertex 12.3789 -13.7482 18
    endloop
  endfacet
  facet normal -0.587789 0.809014 0
    outer loop
      vertex 9.25 -16.0215 18
      vertex 12.3789 -13.7482 3
      vertex 9.25 -16.0215 3
    endloop
  endfacet
  facet normal -0.74315 -0.669125 0
    outer loop
      vertex 14.9668 10.874 3
      vertex 12.3789 13.7482 18
      vertex 12.3789 13.7482 3
    endloop
  endfacet
  facet normal -0.74315 -0.669125 0
    outer loop
      vertex 12.3789 13.7482 18
      vertex 14.9668 10.874 3
      vertex 14.9668 10.874 18
    endloop
  endfacet
  facet normal 0.207934 0.978143 -0
    outer loop
      vertex -1.93378 -18.3987 3
      vertex -5.71681 -17.5945 18
      vertex -1.93378 -18.3987 18
    endloop
  endfacet
  facet normal 0.207934 0.978143 0
    outer loop
      vertex -5.71681 -17.5945 18
      vertex -1.93378 -18.3987 3
      vertex -5.71681 -17.5945 3
    endloop
  endfacet
  facet normal 0 1 -0
    outer loop
      vertex 1.93378 -18.3987 3
      vertex -1.93378 -18.3987 18
      vertex 1.93378 -18.3987 18
    endloop
  endfacet
  facet normal 0 1 0
    outer loop
      vertex -1.93378 -18.3987 18
      vertex 1.93378 -18.3987 3
      vertex -1.93378 -18.3987 3
    endloop
  endfacet
  facet normal 0.951059 -0.309008 0
    outer loop
      vertex -18.0957 3.84637 18
      vertex -16.9006 7.52463 3
      vertex -16.9006 7.52463 18
    endloop
  endfacet
  facet normal 0.951059 -0.309008 0
    outer loop
      vertex -16.9006 7.52463 3
      vertex -18.0957 3.84637 18
      vertex -18.0957 3.84637 3
    endloop
  endfacet
  facet normal 0.207934 -0.978143 0
    outer loop
      vertex -5.71681 17.5945 3
      vertex -1.93378 18.3987 18
      vertex -5.71681 17.5945 18
    endloop
  endfacet
  facet normal 0.207934 -0.978143 0
    outer loop
      vertex -1.93378 18.3987 18
      vertex -5.71681 17.5945 3
      vertex -1.93378 18.3987 3
    endloop
  endfacet
  facet normal -0.207934 0.978143 0
    outer loop
      vertex 5.71681 -17.5945 3
      vertex 1.93378 -18.3987 18
      vertex 5.71681 -17.5945 18
    endloop
  endfacet
  facet normal -0.207934 0.978143 0
    outer loop
      vertex 1.93378 -18.3987 18
      vertex 5.71681 -17.5945 3
      vertex 1.93378 -18.3987 3
    endloop
  endfacet
  facet normal 0.866021 0.500008 0
    outer loop
      vertex -14.9668 -10.874 18
      vertex -16.9006 -7.52463 3
      vertex -16.9006 -7.52463 18
    endloop
  endfacet
  facet normal 0.866021 0.500008 0
    outer loop
      vertex -16.9006 -7.52463 3
      vertex -14.9668 -10.874 18
      vertex -14.9668 -10.874 3
    endloop
  endfacet
  facet normal -0.40672 0.913553 0
    outer loop
      vertex 9.25 -16.0215 3
      vertex 5.71681 -17.5945 18
      vertex 9.25 -16.0215 18
    endloop
  endfacet
  facet normal -0.40672 0.913553 0
    outer loop
      vertex 5.71681 -17.5945 18
      vertex 9.25 -16.0215 3
      vertex 5.71681 -17.5945 3
    endloop
  endfacet
  facet normal 0.994521 -0.104536 0
    outer loop
      vertex -18.5 0 18
      vertex -18.0957 3.84637 3
      vertex -18.0957 3.84637 18
    endloop
  endfacet
  facet normal 0.994521 -0.104536 0
    outer loop
      vertex -18.0957 3.84637 3
      vertex -18.5 0 18
      vertex -18.5 0 3
    endloop
  endfacet
  facet normal -0.587789 -0.809014 0
    outer loop
      vertex 9.25 16.0215 3
      vertex 12.3789 13.7482 18
      vertex 9.25 16.0215 18
    endloop
  endfacet
  facet normal -0.587789 -0.809014 -0
    outer loop
      vertex 12.3789 13.7482 18
      vertex 9.25 16.0215 3
      vertex 12.3789 13.7482 3
    endloop
  endfacet
  facet normal -0.207934 -0.978143 0
    outer loop
      vertex 1.93378 18.3987 3
      vertex 5.71681 17.5945 18
      vertex 1.93378 18.3987 18
    endloop
  endfacet
  facet normal -0.207934 -0.978143 -0
    outer loop
      vertex 5.71681 17.5945 18
      vertex 1.93378 18.3987 3
      vertex 5.71681 17.5945 3
    endloop
  endfacet
  facet normal -0.74315 0.669125 0
    outer loop
      vertex 12.3789 -13.7482 3
      vertex 14.9668 -10.874 18
      vertex 14.9668 -10.874 3
    endloop
  endfacet
  facet normal -0.74315 0.669125 0
    outer loop
      vertex 14.9668 -10.874 18
      vertex 12.3789 -13.7482 3
      vertex 12.3789 -13.7482 18
    endloop
  endfacet
  facet normal 0.994521 0.104536 0
    outer loop
      vertex -18.0957 -3.84637 18
      vertex -18.5 0 3
      vertex -18.5 0 18
    endloop
  endfacet
  facet normal 0.994521 0.104536 0
    outer loop
      vertex -18.5 0 3
      vertex -18.0957 -3.84637 18
      vertex -18.0957 -3.84637 3
    endloop
  endfacet
  facet normal 0.951059 0.309008 0
    outer loop
      vertex -16.9006 -7.52463 18
      vertex -18.0957 -3.84637 3
      vertex -18.0957 -3.84637 18
    endloop
  endfacet
  facet normal 0.951059 0.309008 0
    outer loop
      vertex -18.0957 -3.84637 3
      vertex -16.9006 -7.52463 18
      vertex -16.9006 -7.52463 3
    endloop
  endfacet
  facet normal 0.587789 0.809014 -0
    outer loop
      vertex -9.25 -16.0215 3
      vertex -12.3789 -13.7482 18
      vertex -9.25 -16.0215 18
    endloop
  endfacet
  facet normal 0.587789 0.809014 0
    outer loop
      vertex -12.3789 -13.7482 18
      vertex -9.25 -16.0215 3
      vertex -12.3789 -13.7482 3
    endloop
  endfacet
  facet normal 0.74315 0.669125 0
    outer loop
      vertex -12.3789 -13.7482 18
      vertex -14.9668 -10.874 3
      vertex -14.9668 -10.874 18
    endloop
  endfacet
  facet normal 0.74315 0.669125 0
    outer loop
      vertex -14.9668 -10.874 3
      vertex -12.3789 -13.7482 18
      vertex -12.3789 -13.7482 3
    endloop
  endfacet
  facet normal 0.40672 0.913553 -0
    outer loop
      vertex -5.71681 -17.5945 3
      vertex -9.25 -16.0215 18
      vertex -5.71681 -17.5945 18
    endloop
  endfacet
  facet normal 0.40672 0.913553 0
    outer loop
      vertex -9.25 -16.0215 18
      vertex -5.71681 -17.5945 3
      vertex -9.25 -16.0215 3
    endloop
  endfacet
  facet normal -0.743138 -0.669138 0
    outer loop
      vertex -20.0739 -22.2943 0
      vertex -24.2705 -17.6336 3
      vertex -24.2705 -17.6336 0
    endloop
  endfacet
  facet normal -0.743138 -0.669138 0
    outer loop
      vertex -24.2705 -17.6336 3
      vertex -20.0739 -22.2943 0
      vertex -20.0739 -22.2943 3
    endloop
  endfacet
  facet normal 0.95106 0.309008 0
    outer loop
      vertex 29.3444 6.23735 3
      vertex 27.4064 12.2021 0
      vertex 27.4064 12.2021 3
    endloop
  endfacet
  facet normal 0.95106 0.309008 0
    outer loop
      vertex 27.4064 12.2021 0
      vertex 29.3444 6.23735 3
      vertex 29.3444 6.23735 0
    endloop
  endfacet
  facet normal 0.994521 0.104533 0
    outer loop
      vertex 30 0 3
      vertex 29.3444 6.23735 0
      vertex 29.3444 6.23735 3
    endloop
  endfacet
  facet normal 0.994521 0.104533 0
    outer loop
      vertex 29.3444 6.23735 0
      vertex 30 0 3
      vertex 30 0 0
    endloop
  endfacet
  facet normal 0.866024 0.500003 0
    outer loop
      vertex 27.4064 12.2021 3
      vertex 24.2705 17.6336 0
      vertex 24.2705 17.6336 3
    endloop
  endfacet
  facet normal 0.866024 0.500003 0
    outer loop
      vertex 24.2705 17.6336 0
      vertex 27.4064 12.2021 3
      vertex 27.4064 12.2021 0
    endloop
  endfacet
  facet normal 0.95106 -0.309008 0
    outer loop
      vertex 27.4064 -12.2021 3
      vertex 29.3444 -6.23735 0
      vertex 29.3444 -6.23735 3
    endloop
  endfacet
  facet normal 0.95106 -0.309008 0
    outer loop
      vertex 29.3444 -6.23735 0
      vertex 27.4064 -12.2021 3
      vertex 27.4064 -12.2021 0
    endloop
  endfacet
  facet normal 0.587795 -0.80901 0
    outer loop
      vertex 15 -25.9808 0
      vertex 20.0739 -22.2943 3
      vertex 15 -25.9808 3
    endloop
  endfacet
  facet normal 0.587795 -0.80901 0
    outer loop
      vertex 20.0739 -22.2943 3
      vertex 15 -25.9808 0
      vertex 20.0739 -22.2943 0
    endloop
  endfacet
  facet normal 0.743138 -0.669138 0
    outer loop
      vertex 20.0739 -22.2943 3
      vertex 24.2705 -17.6336 0
      vertex 24.2705 -17.6336 3
    endloop
  endfacet
  facet normal 0.743138 -0.669138 0
    outer loop
      vertex 24.2705 -17.6336 0
      vertex 20.0739 -22.2943 3
      vertex 20.0739 -22.2943 0
    endloop
  endfacet
  facet normal 0.994521 -0.104533 0
    outer loop
      vertex 29.3444 -6.23735 3
      vertex 30 0 0
      vertex 30 0 3
    endloop
  endfacet
  facet normal 0.994521 -0.104533 0
    outer loop
      vertex 30 0 0
      vertex 29.3444 -6.23735 3
      vertex 29.3444 -6.23735 0
    endloop
  endfacet
  facet normal -0.406732 -0.913547 0
    outer loop
      vertex -15 -25.9808 0
      vertex -9.27051 -28.5317 3
      vertex -15 -25.9808 3
    endloop
  endfacet
  facet normal -0.406732 -0.913547 -0
    outer loop
      vertex -9.27051 -28.5317 3
      vertex -15 -25.9808 0
      vertex -9.27051 -28.5317 0
    endloop
  endfacet
  facet normal 0.406732 0.913547 -0
    outer loop
      vertex 15 25.9808 0
      vertex 9.27051 28.5317 3
      vertex 15 25.9808 3
    endloop
  endfacet
  facet normal 0.406732 0.913547 0
    outer loop
      vertex 9.27051 28.5317 3
      vertex 15 25.9808 0
      vertex 9.27051 28.5317 0
    endloop
  endfacet
  facet normal 0.743138 0.669138 0
    outer loop
      vertex 24.2705 17.6336 3
      vertex 20.0739 22.2943 0
      vertex 20.0739 22.2943 3
    endloop
  endfacet
  facet normal 0.743138 0.669138 0
    outer loop
      vertex 20.0739 22.2943 0
      vertex 24.2705 17.6336 3
      vertex 24.2705 17.6336 0
    endloop
  endfacet
  facet normal -0.587795 -0.80901 0
    outer loop
      vertex -20.0739 -22.2943 0
      vertex -15 -25.9808 3
      vertex -20.0739 -22.2943 3
    endloop
  endfacet
  facet normal -0.587795 -0.80901 -0
    outer loop
      vertex -15 -25.9808 3
      vertex -20.0739 -22.2943 0
      vertex -15 -25.9808 0
    endloop
  endfacet
  facet normal -0.743138 0.669138 0
    outer loop
      vertex -24.2705 17.6336 0
      vertex -20.0739 22.2943 3
      vertex -20.0739 22.2943 0
    endloop
  endfacet
  facet normal -0.743138 0.669138 0
    outer loop
      vertex -20.0739 22.2943 3
      vertex -24.2705 17.6336 0
      vertex -24.2705 17.6336 3
    endloop
  endfacet
  facet normal 0 1 -0
    outer loop
      vertex 3.13585 29.8357 0
      vertex -3.13585 29.8357 3
      vertex 3.13585 29.8357 3
    endloop
  endfacet
  facet normal 0 1 0
    outer loop
      vertex -3.13585 29.8357 3
      vertex 3.13585 29.8357 0
      vertex -3.13585 29.8357 0
    endloop
  endfacet
  facet normal 0.406732 -0.913547 0
    outer loop
      vertex 9.27051 -28.5317 0
      vertex 15 -25.9808 3
      vertex 9.27051 -28.5317 3
    endloop
  endfacet
  facet normal 0.406732 -0.913547 0
    outer loop
      vertex 15 -25.9808 3
      vertex 9.27051 -28.5317 0
      vertex 15 -25.9808 0
    endloop
  endfacet
  facet normal 0.207917 -0.978146 0
    outer loop
      vertex 3.13585 -29.8357 0
      vertex 9.27051 -28.5317 3
      vertex 3.13585 -29.8357 3
    endloop
  endfacet
  facet normal 0.207917 -0.978146 0
    outer loop
      vertex 9.27051 -28.5317 3
      vertex 3.13585 -29.8357 0
      vertex 9.27051 -28.5317 0
    endloop
  endfacet
  facet normal -0.95106 0.309008 0
    outer loop
      vertex -29.3444 6.23735 0
      vertex -27.4064 12.2021 3
      vertex -27.4064 12.2021 0
    endloop
  endfacet
  facet normal -0.95106 0.309008 0
    outer loop
      vertex -27.4064 12.2021 3
      vertex -29.3444 6.23735 0
      vertex -29.3444 6.23735 3
    endloop
  endfacet
  facet normal 0 0 -1
    outer loop
      vertex 29.3444 -6.23735 0
      vertex 29.3444 6.23735 0
      vertex 30 0 0
    endloop
  endfacet
  facet normal 0 0 -1
    outer loop
      vertex 27.4064 -12.2021 0
      vertex 29.3444 6.23735 0
      vertex 29.3444 -6.23735 0
    endloop
  endfacet
  facet normal 0 0 -1
    outer loop
      vertex 27.4064 -12.2021 0
      vertex 27.4064 12.2021 0
      vertex 29.3444 6.23735 0
    endloop
  endfacet
  facet normal 0 0 -1
    outer loop
      vertex 24.2705 -17.6336 0
      vertex 27.4064 12.2021 0
      vertex 27.4064 -12.2021 0
    endloop
  endfacet
  facet normal 0 0 -1
    outer loop
      vertex 24.2705 -17.6336 0
      vertex 24.2705 17.6336 0
      vertex 27.4064 12.2021 0
    endloop
  endfacet
  facet normal 0 0 -1
    outer loop
      vertex 20.0739 -22.2943 0
      vertex 24.2705 17.6336 0
      vertex 24.2705 -17.6336 0
    endloop
  endfacet
  facet normal 0 0 -1
    outer loop
      vertex 20.0739 -22.2943 0
      vertex 20.0739 22.2943 0
      vertex 24.2705 17.6336 0
    endloop
  endfacet
  facet normal 0 0 -1
    outer loop
      vertex 15 -25.9808 0
      vertex 20.0739 22.2943 0
      vertex 20.0739 -22.2943 0
    endloop
  endfacet
  facet normal 0 0 -1
    outer loop
      vertex 15 -25.9808 0
      vertex 15 25.9808 0
      vertex 20.0739 22.2943 0
    endloop
  endfacet
  facet normal 0 0 -1
    outer loop
      vertex 9.27051 -28.5317 0
      vertex 15 25.9808 0
      vertex 15 -25.9808 0
    endloop
  endfacet
  facet normal 0 0 -1
    outer loop
      vertex 9.27051 -28.5317 0
      vertex 9.27051 28.5317 0
      vertex 15 25.9808 0
    endloop
  endfacet
  facet normal 0 0 -1
    outer loop
      vertex 3.13585 -29.8357 0
      vertex 9.27051 28.5317 0
      vertex 9.27051 -28.5317 0
    endloop
  endfacet
  facet normal 0 0 -1
    outer loop
      vertex 3.13585 -29.8357 0
      vertex 3.13585 29.8357 0
      vertex 9.27051 28.5317 0
    endloop
  endfacet
  facet normal 0 0 -1
    outer loop
      vertex -3.13585 -29.8357 0
      vertex 3.13585 29.8357 0
      vertex 3.13585 -29.8357 0
    endloop
  endfacet
  facet normal 0 0 -1
    outer loop
      vertex -3.13585 -29.8357 0
      vertex -3.13585 29.8357 0
      vertex 3.13585 29.8357 0
    endloop
  endfacet
  facet normal 0 0 -1
    outer loop
      vertex -9.27051 -28.5317 0
      vertex -3.13585 29.8357 0
      vertex -3.13585 -29.8357 0
    endloop
  endfacet
  facet normal 0 0 -1
    outer loop
      vertex -9.27051 -28.5317 0
      vertex -9.27051 28.5317 0
      vertex -3.13585 29.8357 0
    endloop
  endfacet
  facet normal 0 0 -1
    outer loop
      vertex -15 -25.9808 0
      vertex -9.27051 28.5317 0
      vertex -9.27051 -28.5317 0
    endloop
  endfacet
  facet normal 0 0 -1
    outer loop
      vertex -15 -25.9808 0
      vertex -15 25.9808 0
      vertex -9.27051 28.5317 0
    endloop
  endfacet
  facet normal 0 0 -1
    outer loop
      vertex -20.0739 -22.2943 0
      vertex -15 25.9808 0
      vertex -15 -25.9808 0
    endloop
  endfacet
  facet normal 0 0 -1
    outer loop
      vertex -20.0739 -22.2943 0
      vertex -20.0739 22.2943 0
      vertex -15 25.9808 0
    endloop
  endfacet
  facet normal 0 0 -1
    outer loop
      vertex -24.2705 -17.6336 0
      vertex -20.0739 22.2943 0
      vertex -20.0739 -22.2943 0
    endloop
  endfacet
  facet normal 0 0 -1
    outer loop
      vertex -24.2705 -17.6336 0
      vertex -24.2705 17.6336 0
      vertex -20.0739 22.2943 0
    endloop
  endfacet
  facet normal 0 0 -1
    outer loop
      vertex -27.4064 -12.2021 0
      vertex -24.2705 17.6336 0
      vertex -24.2705 -17.6336 0
    endloop
  endfacet
  facet normal 0 0 -1
    outer loop
      vertex -27.4064 -12.2021 0
      vertex -27.4064 12.2021 0
      vertex -24.2705 17.6336 0
    endloop
  endfacet
  facet normal 0 0 -1
    outer loop
      vertex -29.3444 -6.23735 0
      vertex -27.4064 12.2021 0
      vertex -27.4064 -12.2021 0
    endloop
  endfacet
  facet normal 0 0 -1
    outer loop
      vertex -29.3444 -6.23735 0
      vertex -29.3444 6.23735 0
      vertex -27.4064 12.2021 0
    endloop
  endfacet
  facet normal 0 -0 -1
    outer loop
      vertex -29.3444 6.23735 0
      vertex -29.3444 -6.23735 0
      vertex -30 0 0
    endloop
  endfacet
  facet normal -0.95106 -0.309008 0
    outer loop
      vertex -27.4064 -12.2021 0
      vertex -29.3444 -6.23735 3
      vertex -29.3444 -6.23735 0
    endloop
  endfacet
  facet normal -0.95106 -0.309008 0
    outer loop
      vertex -29.3444 -6.23735 3
      vertex -27.4064 -12.2021 0
      vertex -27.4064 -12.2021 3
    endloop
  endfacet
  facet normal -0.406732 0.913547 0
    outer loop
      vertex -9.27051 28.5317 0
      vertex -15 25.9808 3
      vertex -9.27051 28.5317 3
    endloop
  endfacet
  facet normal -0.406732 0.913547 0
    outer loop
      vertex -15 25.9808 3
      vertex -9.27051 28.5317 0
      vertex -15 25.9808 0
    endloop
  endfacet
  facet normal -0.207917 -0.978146 0
    outer loop
      vertex -9.27051 -28.5317 0
      vertex -3.13585 -29.8357 3
      vertex -9.27051 -28.5317 3
    endloop
  endfacet
  facet normal -0.207917 -0.978146 -0
    outer loop
      vertex -3.13585 -29.8357 3
      vertex -9.27051 -28.5317 0
      vertex -3.13585 -29.8357 0
    endloop
  endfacet
  facet normal 0.207917 0.978146 -0
    outer loop
      vertex 9.27051 28.5317 0
      vertex 3.13585 29.8357 3
      vertex 9.27051 28.5317 3
    endloop
  endfacet
  facet normal 0.207917 0.978146 0
    outer loop
      vertex 3.13585 29.8357 3
      vertex 9.27051 28.5317 0
      vertex 3.13585 29.8357 0
    endloop
  endfacet
  facet normal -0.994521 -0.104533 0
    outer loop
      vertex -29.3444 -6.23735 0
      vertex -30 0 3
      vertex -30 0 0
    endloop
  endfacet
  facet normal -0.994521 -0.104533 0
    outer loop
      vertex -30 0 3
      vertex -29.3444 -6.23735 0
      vertex -29.3444 -6.23735 3
    endloop
  endfacet
  facet normal -0.866024 -0.500003 0
    outer loop
      vertex -24.2705 -17.6336 0
      vertex -27.4064 -12.2021 3
      vertex -27.4064 -12.2021 0
    endloop
  endfacet
  facet normal -0.866024 -0.500003 0
    outer loop
      vertex -27.4064 -12.2021 3
      vertex -24.2705 -17.6336 0
      vertex -24.2705 -17.6336 3
    endloop
  endfacet
  facet normal -0.866024 0.500003 0
    outer loop
      vertex -27.4064 12.2021 0
      vertex -24.2705 17.6336 3
      vertex -24.2705 17.6336 0
    endloop
  endfacet
  facet normal -0.866024 0.500003 0
    outer loop
      vertex -24.2705 17.6336 3
      vertex -27.4064 12.2021 0
      vertex -27.4064 12.2021 3
    endloop
  endfacet
  facet normal 0.866024 -0.500003 0
    outer loop
      vertex 24.2705 -17.6336 3
      vertex 27.4064 -12.2021 0
      vertex 27.4064 -12.2021 3
    endloop
  endfacet
  facet normal 0.866024 -0.500003 0
    outer loop
      vertex 27.4064 -12.2021 0
      vertex 24.2705 -17.6336 3
      vertex 24.2705 -17.6336 0
    endloop
  endfacet
  facet normal 0.587795 0.80901 -0
    outer loop
      vertex 20.0739 22.2943 0
      vertex 15 25.9808 3
      vertex 20.0739 22.2943 3
    endloop
  endfacet
  facet normal 0.587795 0.80901 0
    outer loop
      vertex 15 25.9808 3
      vertex 20.0739 22.2943 0
      vertex 15 25.9808 0
    endloop
  endfacet
  facet normal -0.587795 0.80901 0
    outer loop
      vertex -15 25.9808 0
      vertex -20.0739 22.2943 3
      vertex -15 25.9808 3
    endloop
  endfacet
  facet normal -0.587795 0.80901 0
    outer loop
      vertex -20.0739 22.2943 3
      vertex -15 25.9808 0
      vertex -20.0739 22.2943 0
    endloop
  endfacet
  facet normal -0.207917 0.978146 0
    outer loop
      vertex -3.13585 29.8357 0
      vertex -9.27051 28.5317 3
      vertex -3.13585 29.8357 3
    endloop
  endfacet
  facet normal -0.207917 0.978146 0
    outer loop
      vertex -9.27051 28.5317 3
      vertex -3.13585 29.8357 0
      vertex -9.27051 28.5317 0
    endloop
  endfacet
  facet normal 0 -1 0
    outer loop
      vertex -3.13585 -29.8357 0
      vertex 3.13585 -29.8357 3
      vertex -3.13585 -29.8357 3
    endloop
  endfacet
  facet normal 0 -1 -0
    outer loop
      vertex 3.13585 -29.8357 3
      vertex -3.13585 -29.8357 0
      vertex 3.13585 -29.8357 0
    endloop
  endfacet
  facet normal -0.994521 0.104533 0
    outer loop
      vertex -30 0 0
      vertex -29.3444 6.23735 3
      vertex -29.3444 6.23735 0
    endloop
  endfacet
  facet normal -0.994521 0.104533 0
    outer loop
      vertex -29.3444 6.23735 3
      vertex -30 0 0
      vertex -30 0 3
    endloop
  endfacet
endsolid OpenSCAD_Model
