solid OpenSCAD_Model
  facet normal 1 0 0
    outer loop
      vertex 20.5 -20.5 240
      vertex 20.5 -30.5 240
      vertex 20.5 -20.5 10
    endloop
  endfacet
  facet normal 1 0 0
    outer loop
      vertex 20.5 20.5 10
      vertex 20.5 30.5 240
      vertex 20.5 20.5 240
    endloop
  endfacet
  facet normal 1 0 0
    outer loop
      vertex 20.5 30.5 240
      vertex 20.5 20.5 10
      vertex 20.5 30.5 0
    endloop
  endfacet
  facet normal 1 -0 0
    outer loop
      vertex 20.5 -20.5 10
      vertex 20.5 30.5 0
      vertex 20.5 20.5 10
    endloop
  endfacet
  facet normal 1 0 0
    outer loop
      vertex 20.5 -20.5 10
      vertex 20.5 -30.5 0
      vertex 20.5 30.5 0
    endloop
  endfacet
  facet normal 1 0 0
    outer loop
      vertex 20.5 -30.5 0
      vertex 20.5 -20.5 10
      vertex 20.5 -30.5 240
    endloop
  endfacet
  facet normal -0 0 1
    outer loop
      vertex -14.253 -13.9363 10
      vertex 13.6981 -14.6322 10
      vertex -14.253 13.9363 10
    endloop
  endfacet
  facet normal 0 0 1
    outer loop
      vertex 13.6981 -14.6322 10
      vertex -14.253 -13.9363 10
      vertex -13.5 -15.5 10
    endloop
  endfacet
  facet normal -0 0 1
    outer loop
      vertex -15.945 13.5501 10
      vertex -14.253 -13.9363 10
      vertex -14.253 13.9363 10
    endloop
  endfacet
  facet normal 0 0 1
    outer loop
      vertex -15.945 13.5501 10
      vertex -15.945 -13.5501 10
      vertex -14.253 -13.9363 10
    endloop
  endfacet
  facet normal 0 0 1
    outer loop
      vertex -17.3019 14.6322 10
      vertex -15.945 -13.5501 10
      vertex -15.945 13.5501 10
    endloop
  endfacet
  facet normal 0 0 1
    outer loop
      vertex -15.945 -13.5501 10
      vertex -17.3019 14.6322 10
      vertex -17.3019 -14.6322 10
    endloop
  endfacet
  facet normal 0 0 1
    outer loop
      vertex 13.6981 -14.6322 10
      vertex -13.5 -15.5 10
      vertex -2.5 -20.5 10
    endloop
  endfacet
  facet normal -0 0 1
    outer loop
      vertex -14.253 -17.0637 10
      vertex -2.5 -20.5 10
      vertex -13.5 -15.5 10
    endloop
  endfacet
  facet normal 0 0 1
    outer loop
      vertex -20.5 -20.5 10
      vertex -14.253 -17.0637 10
      vertex -15.945 -17.4499 10
    endloop
  endfacet
  facet normal 0 0 1
    outer loop
      vertex -14.253 -17.0637 10
      vertex -20.5 -20.5 10
      vertex -2.5 -20.5 10
    endloop
  endfacet
  facet normal 0 0 1
    outer loop
      vertex -17.3019 -16.3678 10
      vertex -20.5 -20.5 10
      vertex -15.945 -17.4499 10
    endloop
  endfacet
  facet normal 0 0 1
    outer loop
      vertex -17.3019 -14.6322 10
      vertex -20.5 -20.5 10
      vertex -17.3019 -16.3678 10
    endloop
  endfacet
  facet normal -0 0 1
    outer loop
      vertex 16.747 13.9363 10
      vertex 17.5 -15.5 10
      vertex 17.5 15.5 10
    endloop
  endfacet
  facet normal 0 0 1
    outer loop
      vertex 16.747 13.9363 10
      vertex 16.747 -13.9363 10
      vertex 17.5 -15.5 10
    endloop
  endfacet
  facet normal -0 0 1
    outer loop
      vertex 15.055 13.5501 10
      vertex 16.747 -13.9363 10
      vertex 16.747 13.9363 10
    endloop
  endfacet
  facet normal 0 0 1
    outer loop
      vertex 15.055 13.5501 10
      vertex 15.055 -13.5501 10
      vertex 16.747 -13.9363 10
    endloop
  endfacet
  facet normal 0 0 1
    outer loop
      vertex 13.6981 14.6322 10
      vertex 15.055 -13.5501 10
      vertex 15.055 13.5501 10
    endloop
  endfacet
  facet normal 0 0 1
    outer loop
      vertex 15.055 -13.5501 10
      vertex 13.6981 14.6322 10
      vertex 13.6981 -14.6322 10
    endloop
  endfacet
  facet normal 0 0 1
    outer loop
      vertex 20.5 20.5 10
      vertex 17.5 15.5 10
      vertex 20.5 -20.5 10
    endloop
  endfacet
  facet normal 0 0 1
    outer loop
      vertex 20.5 20.5 10
      vertex 16.747 17.0637 10
      vertex 17.5 15.5 10
    endloop
  endfacet
  facet normal 0 0 1
    outer loop
      vertex 20.5 20.5 10
      vertex 15.055 17.4499 10
      vertex 16.747 17.0637 10
    endloop
  endfacet
  facet normal 0 0 1
    outer loop
      vertex 2.5 20.5 10
      vertex 13.6981 14.6322 10
      vertex 13.6981 16.3678 10
    endloop
  endfacet
  facet normal -0 0 1
    outer loop
      vertex -2.5 20.5 10
      vertex 13.6981 14.6322 10
      vertex 2.5 20.5 10
    endloop
  endfacet
  facet normal 0 0 1
    outer loop
      vertex -14.253 13.9363 10
      vertex -2.5 20.5 10
      vertex -13.5 15.5 10
    endloop
  endfacet
  facet normal 0 0 1
    outer loop
      vertex 15.055 17.4499 10
      vertex 2.5 20.5 10
      vertex 13.6981 16.3678 10
    endloop
  endfacet
  facet normal -0 0 1
    outer loop
      vertex 2.5 20.5 10
      vertex 15.055 17.4499 10
      vertex 20.5 20.5 10
    endloop
  endfacet
  facet normal -0 0 1
    outer loop
      vertex 17.5 -15.5 10
      vertex 20.5 -20.5 10
      vertex 17.5 15.5 10
    endloop
  endfacet
  facet normal -0 0 1
    outer loop
      vertex 16.747 -17.0637 10
      vertex 20.5 -20.5 10
      vertex 17.5 -15.5 10
    endloop
  endfacet
  facet normal -0 0 1
    outer loop
      vertex 15.055 -17.4499 10
      vertex 20.5 -20.5 10
      vertex 16.747 -17.0637 10
    endloop
  endfacet
  facet normal 0 0 1
    outer loop
      vertex 15.055 -17.4499 10
      vertex 2.5 -20.5 10
      vertex 20.5 -20.5 10
    endloop
  endfacet
  facet normal 0 0 1
    outer loop
      vertex 13.6981 -16.3678 10
      vertex 2.5 -20.5 10
      vertex 15.055 -17.4499 10
    endloop
  endfacet
  facet normal 0 0 1
    outer loop
      vertex 13.6981 -14.6322 10
      vertex 2.5 -20.5 10
      vertex 13.6981 -16.3678 10
    endloop
  endfacet
  facet normal 0 0 1
    outer loop
      vertex -2.5 20.5 10
      vertex -14.253 13.9363 10
      vertex 13.6981 14.6322 10
    endloop
  endfacet
  facet normal 0 0 1
    outer loop
      vertex 13.6981 -14.6322 10
      vertex -2.5 -20.5 10
      vertex 2.5 -20.5 10
    endloop
  endfacet
  facet normal 0 0 1
    outer loop
      vertex 13.6981 14.6322 10
      vertex -14.253 13.9363 10
      vertex 13.6981 -14.6322 10
    endloop
  endfacet
  facet normal 0 0 1
    outer loop
      vertex -2.5 20.5 10
      vertex -14.253 17.0637 10
      vertex -13.5 15.5 10
    endloop
  endfacet
  facet normal -0 0 1
    outer loop
      vertex -20.5 20.5 10
      vertex -14.253 17.0637 10
      vertex -2.5 20.5 10
    endloop
  endfacet
  facet normal 0 0 1
    outer loop
      vertex -20.5 20.5 10
      vertex -17.3019 14.6322 10
      vertex -17.3019 16.3678 10
    endloop
  endfacet
  facet normal 0 0 1
    outer loop
      vertex -17.3019 14.6322 10
      vertex -20.5 20.5 10
      vertex -17.3019 -14.6322 10
    endloop
  endfacet
  facet normal 0 0 1
    outer loop
      vertex -20.5 -20.5 10
      vertex -17.3019 -14.6322 10
      vertex -20.5 20.5 10
    endloop
  endfacet
  facet normal 0 0 1
    outer loop
      vertex -15.945 17.4499 10
      vertex -20.5 20.5 10
      vertex -17.3019 16.3678 10
    endloop
  endfacet
  facet normal 0 0 1
    outer loop
      vertex -14.253 17.0637 10
      vertex -20.5 20.5 10
      vertex -15.945 17.4499 10
    endloop
  endfacet
  facet normal 0 0 -1
    outer loop
      vertex 13.6981 14.6322 0
      vertex -13.5 15.5 0
      vertex -2.5 20.5 0
    endloop
  endfacet
  facet normal -0 0 -1
    outer loop
      vertex 13.6981 14.6322 0
      vertex -14.253 13.9363 0
      vertex -13.5 15.5 0
    endloop
  endfacet
  facet normal 0 0 -1
    outer loop
      vertex -15.945 -13.5501 0
      vertex -14.253 13.9363 0
      vertex -14.253 -13.9363 0
    endloop
  endfacet
  facet normal 0 0 -1
    outer loop
      vertex -15.945 -13.5501 0
      vertex -15.945 13.5501 0
      vertex -14.253 13.9363 0
    endloop
  endfacet
  facet normal 0 0 -1
    outer loop
      vertex -17.3019 -14.6322 0
      vertex -15.945 13.5501 0
      vertex -15.945 -13.5501 0
    endloop
  endfacet
  facet normal -0 0 -1
    outer loop
      vertex -15.945 13.5501 0
      vertex -17.3019 -14.6322 0
      vertex -17.3019 14.6322 0
    endloop
  endfacet
  facet normal 0 0 -1
    outer loop
      vertex -14.253 -17.0637 0
      vertex -2.5 -20.5 0
      vertex -2.5 -30.5 0
    endloop
  endfacet
  facet normal 0 0 -1
    outer loop
      vertex -14.253 -13.9363 0
      vertex -2.5 -20.5 0
      vertex -13.5 -15.5 0
    endloop
  endfacet
  facet normal 0 0 -1
    outer loop
      vertex -14.253 13.9363 0
      vertex 13.6981 14.6322 0
      vertex -14.253 -13.9363 0
    endloop
  endfacet
  facet normal 0 0 -1
    outer loop
      vertex -2.5 -20.5 0
      vertex -14.253 -17.0637 0
      vertex -13.5 -15.5 0
    endloop
  endfacet
  facet normal 0 0 -1
    outer loop
      vertex -20.5 -30.5 0
      vertex -14.253 -17.0637 0
      vertex -2.5 -30.5 0
    endloop
  endfacet
  facet normal 0 0 -1
    outer loop
      vertex -14.253 -17.0637 0
      vertex -20.5 -30.5 0
      vertex -15.945 -17.4499 0
    endloop
  endfacet
  facet normal 0 0 -1
    outer loop
      vertex -20.5 -30.5 0
      vertex -17.3019 -14.6322 0
      vertex -17.3019 -16.3678 0
    endloop
  endfacet
  facet normal -0 0 -1
    outer loop
      vertex -17.3019 -14.6322 0
      vertex -20.5 -30.5 0
      vertex -17.3019 14.6322 0
    endloop
  endfacet
  facet normal 0 0 -1
    outer loop
      vertex -20.5 30.5 0
      vertex -17.3019 14.6322 0
      vertex -20.5 -30.5 0
    endloop
  endfacet
  facet normal -0 0 -1
    outer loop
      vertex -15.945 -17.4499 0
      vertex -20.5 -30.5 0
      vertex -17.3019 -16.3678 0
    endloop
  endfacet
  facet normal 0 0 -1
    outer loop
      vertex 13.6981 -14.6322 0
      vertex -14.253 -13.9363 0
      vertex 13.6981 14.6322 0
    endloop
  endfacet
  facet normal 0 0 -1
    outer loop
      vertex 13.6981 14.6322 0
      vertex -2.5 20.5 0
      vertex 2.5 20.5 0
    endloop
  endfacet
  facet normal 0 0 -1
    outer loop
      vertex -14.253 17.0637 0
      vertex -2.5 20.5 0
      vertex -13.5 15.5 0
    endloop
  endfacet
  facet normal -0 0 -1
    outer loop
      vertex -2.5 20.5 0
      vertex -14.253 17.0637 0
      vertex -2.5 30.5 0
    endloop
  endfacet
  facet normal 0 0 -1
    outer loop
      vertex -20.5 30.5 0
      vertex -14.253 17.0637 0
      vertex -15.945 17.4499 0
    endloop
  endfacet
  facet normal 0 0 -1
    outer loop
      vertex -20.5 30.5 0
      vertex -15.945 17.4499 0
      vertex -17.3019 16.3678 0
    endloop
  endfacet
  facet normal 0 0 -1
    outer loop
      vertex -14.253 17.0637 0
      vertex -20.5 30.5 0
      vertex -2.5 30.5 0
    endloop
  endfacet
  facet normal 0 0 -1
    outer loop
      vertex -17.3019 14.6322 0
      vertex -20.5 30.5 0
      vertex -17.3019 16.3678 0
    endloop
  endfacet
  facet normal 0 0 -1
    outer loop
      vertex 16.747 -13.9363 0
      vertex 17.5 15.5 0
      vertex 17.5 -15.5 0
    endloop
  endfacet
  facet normal 0 0 -1
    outer loop
      vertex 16.747 -13.9363 0
      vertex 16.747 13.9363 0
      vertex 17.5 15.5 0
    endloop
  endfacet
  facet normal 0 0 -1
    outer loop
      vertex 15.055 -13.5501 0
      vertex 16.747 13.9363 0
      vertex 16.747 -13.9363 0
    endloop
  endfacet
  facet normal 0 0 -1
    outer loop
      vertex 15.055 -13.5501 0
      vertex 15.055 13.5501 0
      vertex 16.747 13.9363 0
    endloop
  endfacet
  facet normal 0 0 -1
    outer loop
      vertex 13.6981 -14.6322 0
      vertex 15.055 13.5501 0
      vertex 15.055 -13.5501 0
    endloop
  endfacet
  facet normal -0 0 -1
    outer loop
      vertex 15.055 13.5501 0
      vertex 13.6981 -14.6322 0
      vertex 13.6981 14.6322 0
    endloop
  endfacet
  facet normal 0 0 -1
    outer loop
      vertex 20.5 -30.5 0
      vertex 17.5 -15.5 0
      vertex 20.5 30.5 0
    endloop
  endfacet
  facet normal 0 0 -1
    outer loop
      vertex 20.5 -30.5 0
      vertex 16.747 -17.0637 0
      vertex 17.5 -15.5 0
    endloop
  endfacet
  facet normal 0 0 -1
    outer loop
      vertex 20.5 -30.5 0
      vertex 15.055 -17.4499 0
      vertex 16.747 -17.0637 0
    endloop
  endfacet
  facet normal 0 0 -1
    outer loop
      vertex 2.5 -30.5 0
      vertex 15.055 -17.4499 0
      vertex 20.5 -30.5 0
    endloop
  endfacet
  facet normal 0 0 -1
    outer loop
      vertex 2.5 -20.5 0
      vertex 13.6981 -14.6322 0
      vertex 13.6981 -16.3678 0
    endloop
  endfacet
  facet normal 0 0 -1
    outer loop
      vertex -2.5 -20.5 0
      vertex 13.6981 -14.6322 0
      vertex 2.5 -20.5 0
    endloop
  endfacet
  facet normal -0 0 -1
    outer loop
      vertex 15.055 -17.4499 0
      vertex 2.5 -20.5 0
      vertex 13.6981 -16.3678 0
    endloop
  endfacet
  facet normal 0 0 -1
    outer loop
      vertex 2.5 -20.5 0
      vertex 15.055 -17.4499 0
      vertex 2.5 -30.5 0
    endloop
  endfacet
  facet normal 0 0 -1
    outer loop
      vertex 17.5 15.5 0
      vertex 20.5 30.5 0
      vertex 17.5 -15.5 0
    endloop
  endfacet
  facet normal 0 0 -1
    outer loop
      vertex 16.747 17.0637 0
      vertex 20.5 30.5 0
      vertex 17.5 15.5 0
    endloop
  endfacet
  facet normal 0 0 -1
    outer loop
      vertex 15.055 17.4499 0
      vertex 20.5 30.5 0
      vertex 16.747 17.0637 0
    endloop
  endfacet
  facet normal 0 0 -1
    outer loop
      vertex 2.5 20.5 0
      vertex 15.055 17.4499 0
      vertex 13.6981 16.3678 0
    endloop
  endfacet
  facet normal 0 0 -1
    outer loop
      vertex -14.253 -13.9363 0
      vertex 13.6981 -14.6322 0
      vertex -2.5 -20.5 0
    endloop
  endfacet
  facet normal 0 0 -1
    outer loop
      vertex 13.6981 14.6322 0
      vertex 2.5 20.5 0
      vertex 13.6981 16.3678 0
    endloop
  endfacet
  facet normal 0 0 -1
    outer loop
      vertex 15.055 17.4499 0
      vertex 2.5 20.5 0
      vertex 2.5 30.5 0
    endloop
  endfacet
  facet normal 0 0 -1
    outer loop
      vertex 15.055 17.4499 0
      vertex 2.5 30.5 0
      vertex 20.5 30.5 0
    endloop
  endfacet
  facet normal -1 0 0
    outer loop
      vertex -20.5 30.5 0
      vertex -20.5 20.5 10
      vertex -20.5 30.5 240
    endloop
  endfacet
  facet normal -1 0 0
    outer loop
      vertex -20.5 30.5 0
      vertex -20.5 -20.5 10
      vertex -20.5 20.5 10
    endloop
  endfacet
  facet normal -1 0 0
    outer loop
      vertex -20.5 -30.5 0
      vertex -20.5 -20.5 10
      vertex -20.5 30.5 0
    endloop
  endfacet
  facet normal -1 0 0
    outer loop
      vertex -20.5 -30.5 240
      vertex -20.5 -20.5 10
      vertex -20.5 -30.5 0
    endloop
  endfacet
  facet normal -1 0 0
    outer loop
      vertex -20.5 -20.5 10
      vertex -20.5 -30.5 240
      vertex -20.5 -20.5 240
    endloop
  endfacet
  facet normal -1 -0 0
    outer loop
      vertex -20.5 30.5 240
      vertex -20.5 20.5 10
      vertex -20.5 20.5 240
    endloop
  endfacet
  facet normal 0 -1 0
    outer loop
      vertex -20.5 20.5 240
      vertex -2.5 20.5 230
      vertex 20.5 20.5 240
    endloop
  endfacet
  facet normal 0 -1 0
    outer loop
      vertex -20.5 20.5 10
      vertex -2.5 20.5 230
      vertex -20.5 20.5 240
    endloop
  endfacet
  facet normal 0 -1 -0
    outer loop
      vertex -2.5 20.5 230
      vertex -20.5 20.5 10
      vertex -2.5 20.5 10
    endloop
  endfacet
  facet normal 0 -1 0
    outer loop
      vertex 2.5 20.5 230
      vertex 20.5 20.5 240
      vertex -2.5 20.5 230
    endloop
  endfacet
  facet normal 0 -1 0
    outer loop
      vertex 20.5 20.5 10
      vertex 2.5 20.5 230
      vertex 2.5 20.5 10
    endloop
  endfacet
  facet normal 0 -1 0
    outer loop
      vertex 2.5 20.5 230
      vertex 20.5 20.5 10
      vertex 20.5 20.5 240
    endloop
  endfacet
  facet normal 0 1 -0
    outer loop
      vertex 2.5 20.5 0
      vertex -2.5 20.5 10
      vertex 2.5 20.5 10
    endloop
  endfacet
  facet normal 0 1 0
    outer loop
      vertex -2.5 20.5 10
      vertex 2.5 20.5 0
      vertex -2.5 20.5 0
    endloop
  endfacet
  facet normal 0 1 0
    outer loop
      vertex 20.5 -20.5 240
      vertex 2.5 -20.5 230
      vertex -20.5 -20.5 240
    endloop
  endfacet
  facet normal 0 1 -0
    outer loop
      vertex 20.5 -20.5 10
      vertex 2.5 -20.5 230
      vertex 20.5 -20.5 240
    endloop
  endfacet
  facet normal 0 1 0
    outer loop
      vertex 2.5 -20.5 230
      vertex 20.5 -20.5 10
      vertex 2.5 -20.5 10
    endloop
  endfacet
  facet normal 0 1 -0
    outer loop
      vertex -2.5 -20.5 230
      vertex -20.5 -20.5 240
      vertex 2.5 -20.5 230
    endloop
  endfacet
  facet normal 0 1 0
    outer loop
      vertex -20.5 -20.5 10
      vertex -2.5 -20.5 230
      vertex -2.5 -20.5 10
    endloop
  endfacet
  facet normal 0 1 0
    outer loop
      vertex -2.5 -20.5 230
      vertex -20.5 -20.5 10
      vertex -20.5 -20.5 240
    endloop
  endfacet
  facet normal 0 -1 0
    outer loop
      vertex -2.5 -20.5 0
      vertex 2.5 -20.5 10
      vertex -2.5 -20.5 10
    endloop
  endfacet
  facet normal 0 -1 -0
    outer loop
      vertex 2.5 -20.5 10
      vertex -2.5 -20.5 0
      vertex 2.5 -20.5 0
    endloop
  endfacet
  facet normal -0.222528 -0.974926 0
    outer loop
      vertex -15.945 -13.5501 0
      vertex -14.253 -13.9363 10
      vertex -15.945 -13.5501 10
    endloop
  endfacet
  facet normal -0.222528 -0.974926 -0
    outer loop
      vertex -14.253 -13.9363 10
      vertex -15.945 -13.5501 0
      vertex -14.253 -13.9363 0
    endloop
  endfacet
  facet normal -0.900977 -0.433866 0
    outer loop
      vertex -13.5 -15.5 0
      vertex -14.253 -13.9363 10
      vertex -14.253 -13.9363 0
    endloop
  endfacet
  facet normal -0.900977 -0.433866 0
    outer loop
      vertex -14.253 -13.9363 10
      vertex -13.5 -15.5 0
      vertex -13.5 -15.5 10
    endloop
  endfacet
  facet normal -0.900977 0.433866 0
    outer loop
      vertex -14.253 -17.0637 0
      vertex -13.5 -15.5 10
      vertex -13.5 -15.5 0
    endloop
  endfacet
  facet normal -0.900977 0.433866 0
    outer loop
      vertex -13.5 -15.5 10
      vertex -14.253 -17.0637 0
      vertex -14.253 -17.0637 10
    endloop
  endfacet
  facet normal 0.623493 0.781829 -0
    outer loop
      vertex -15.945 -17.4499 0
      vertex -17.3019 -16.3678 10
      vertex -15.945 -17.4499 10
    endloop
  endfacet
  facet normal 0.623493 0.781829 0
    outer loop
      vertex -17.3019 -16.3678 10
      vertex -15.945 -17.4499 0
      vertex -17.3019 -16.3678 0
    endloop
  endfacet
  facet normal -0.222528 0.974926 0
    outer loop
      vertex -14.253 -17.0637 0
      vertex -15.945 -17.4499 10
      vertex -14.253 -17.0637 10
    endloop
  endfacet
  facet normal -0.222528 0.974926 0
    outer loop
      vertex -15.945 -17.4499 10
      vertex -14.253 -17.0637 0
      vertex -15.945 -17.4499 0
    endloop
  endfacet
  facet normal 1 -0 0
    outer loop
      vertex -17.3019 -16.3678 10
      vertex -17.3019 -14.6322 0
      vertex -17.3019 -14.6322 10
    endloop
  endfacet
  facet normal 1 0 0
    outer loop
      vertex -17.3019 -14.6322 0
      vertex -17.3019 -16.3678 10
      vertex -17.3019 -16.3678 0
    endloop
  endfacet
  facet normal 0.623493 -0.781829 0
    outer loop
      vertex -17.3019 -14.6322 0
      vertex -15.945 -13.5501 10
      vertex -17.3019 -14.6322 10
    endloop
  endfacet
  facet normal 0.623493 -0.781829 0
    outer loop
      vertex -15.945 -13.5501 10
      vertex -17.3019 -14.6322 0
      vertex -15.945 -13.5501 0
    endloop
  endfacet
  facet normal -0.222528 -0.974926 0
    outer loop
      vertex -15.945 17.4499 0
      vertex -14.253 17.0637 10
      vertex -15.945 17.4499 10
    endloop
  endfacet
  facet normal -0.222528 -0.974926 -0
    outer loop
      vertex -14.253 17.0637 10
      vertex -15.945 17.4499 0
      vertex -14.253 17.0637 0
    endloop
  endfacet
  facet normal -0.900977 -0.433866 0
    outer loop
      vertex -13.5 15.5 0
      vertex -14.253 17.0637 10
      vertex -14.253 17.0637 0
    endloop
  endfacet
  facet normal -0.900977 -0.433866 0
    outer loop
      vertex -14.253 17.0637 10
      vertex -13.5 15.5 0
      vertex -13.5 15.5 10
    endloop
  endfacet
  facet normal -0.900977 0.433866 0
    outer loop
      vertex -14.253 13.9363 0
      vertex -13.5 15.5 10
      vertex -13.5 15.5 0
    endloop
  endfacet
  facet normal -0.900977 0.433866 0
    outer loop
      vertex -13.5 15.5 10
      vertex -14.253 13.9363 0
      vertex -14.253 13.9363 10
    endloop
  endfacet
  facet normal 0.623493 0.781829 -0
    outer loop
      vertex -15.945 13.5501 0
      vertex -17.3019 14.6322 10
      vertex -15.945 13.5501 10
    endloop
  endfacet
  facet normal 0.623493 0.781829 0
    outer loop
      vertex -17.3019 14.6322 10
      vertex -15.945 13.5501 0
      vertex -17.3019 14.6322 0
    endloop
  endfacet
  facet normal -0.222528 0.974926 0
    outer loop
      vertex -14.253 13.9363 0
      vertex -15.945 13.5501 10
      vertex -14.253 13.9363 10
    endloop
  endfacet
  facet normal -0.222528 0.974926 0
    outer loop
      vertex -15.945 13.5501 10
      vertex -14.253 13.9363 0
      vertex -15.945 13.5501 0
    endloop
  endfacet
  facet normal 1 -0 0
    outer loop
      vertex -17.3019 14.6322 10
      vertex -17.3019 16.3678 0
      vertex -17.3019 16.3678 10
    endloop
  endfacet
  facet normal 1 0 0
    outer loop
      vertex -17.3019 16.3678 0
      vertex -17.3019 14.6322 10
      vertex -17.3019 14.6322 0
    endloop
  endfacet
  facet normal 0.623493 -0.781829 0
    outer loop
      vertex -17.3019 16.3678 0
      vertex -15.945 17.4499 10
      vertex -17.3019 16.3678 10
    endloop
  endfacet
  facet normal 0.623493 -0.781829 0
    outer loop
      vertex -15.945 17.4499 10
      vertex -17.3019 16.3678 0
      vertex -15.945 17.4499 0
    endloop
  endfacet
  facet normal -0.222528 -0.974926 0
    outer loop
      vertex 15.055 -13.5501 0
      vertex 16.747 -13.9363 10
      vertex 15.055 -13.5501 10
    endloop
  endfacet
  facet normal -0.222528 -0.974926 -0
    outer loop
      vertex 16.747 -13.9363 10
      vertex 15.055 -13.5501 0
      vertex 16.747 -13.9363 0
    endloop
  endfacet
  facet normal -0.900977 -0.433866 0
    outer loop
      vertex 17.5 -15.5 0
      vertex 16.747 -13.9363 10
      vertex 16.747 -13.9363 0
    endloop
  endfacet
  facet normal -0.900977 -0.433866 0
    outer loop
      vertex 16.747 -13.9363 10
      vertex 17.5 -15.5 0
      vertex 17.5 -15.5 10
    endloop
  endfacet
  facet normal -0.900977 0.433866 0
    outer loop
      vertex 16.747 -17.0637 0
      vertex 17.5 -15.5 10
      vertex 17.5 -15.5 0
    endloop
  endfacet
  facet normal -0.900977 0.433866 0
    outer loop
      vertex 17.5 -15.5 10
      vertex 16.747 -17.0637 0
      vertex 16.747 -17.0637 10
    endloop
  endfacet
  facet normal 0.623493 -0.781829 0
    outer loop
      vertex 13.6981 -14.6322 0
      vertex 15.055 -13.5501 10
      vertex 13.6981 -14.6322 10
    endloop
  endfacet
  facet normal 0.623493 -0.781829 0
    outer loop
      vertex 15.055 -13.5501 10
      vertex 13.6981 -14.6322 0
      vertex 15.055 -13.5501 0
    endloop
  endfacet
  facet normal 0.623493 0.781829 -0
    outer loop
      vertex 15.055 -17.4499 0
      vertex 13.6981 -16.3678 10
      vertex 15.055 -17.4499 10
    endloop
  endfacet
  facet normal 0.623493 0.781829 0
    outer loop
      vertex 13.6981 -16.3678 10
      vertex 15.055 -17.4499 0
      vertex 13.6981 -16.3678 0
    endloop
  endfacet
  facet normal -0.222528 0.974926 0
    outer loop
      vertex 16.747 -17.0637 0
      vertex 15.055 -17.4499 10
      vertex 16.747 -17.0637 10
    endloop
  endfacet
  facet normal -0.222528 0.974926 0
    outer loop
      vertex 15.055 -17.4499 10
      vertex 16.747 -17.0637 0
      vertex 15.055 -17.4499 0
    endloop
  endfacet
  facet normal 1 -0 0
    outer loop
      vertex 13.6981 -16.3678 10
      vertex 13.6981 -14.6322 0
      vertex 13.6981 -14.6322 10
    endloop
  endfacet
  facet normal 1 0 0
    outer loop
      vertex 13.6981 -14.6322 0
      vertex 13.6981 -16.3678 10
      vertex 13.6981 -16.3678 0
    endloop
  endfacet
  facet normal -0.222528 -0.974926 0
    outer loop
      vertex 15.055 17.4499 0
      vertex 16.747 17.0637 10
      vertex 15.055 17.4499 10
    endloop
  endfacet
  facet normal -0.222528 -0.974926 -0
    outer loop
      vertex 16.747 17.0637 10
      vertex 15.055 17.4499 0
      vertex 16.747 17.0637 0
    endloop
  endfacet
  facet normal -0.900977 -0.433866 0
    outer loop
      vertex 17.5 15.5 0
      vertex 16.747 17.0637 10
      vertex 16.747 17.0637 0
    endloop
  endfacet
  facet normal -0.900977 -0.433866 0
    outer loop
      vertex 16.747 17.0637 10
      vertex 17.5 15.5 0
      vertex 17.5 15.5 10
    endloop
  endfacet
  facet normal -0.900977 0.433866 0
    outer loop
      vertex 16.747 13.9363 0
      vertex 17.5 15.5 10
      vertex 17.5 15.5 0
    endloop
  endfacet
  facet normal -0.900977 0.433866 0
    outer loop
      vertex 17.5 15.5 10
      vertex 16.747 13.9363 0
      vertex 16.747 13.9363 10
    endloop
  endfacet
  facet normal 0.623493 0.781829 -0
    outer loop
      vertex 15.055 13.5501 0
      vertex 13.6981 14.6322 10
      vertex 15.055 13.5501 10
    endloop
  endfacet
  facet normal 0.623493 0.781829 0
    outer loop
      vertex 13.6981 14.6322 10
      vertex 15.055 13.5501 0
      vertex 13.6981 14.6322 0
    endloop
  endfacet
  facet normal -0.222528 0.974926 0
    outer loop
      vertex 16.747 13.9363 0
      vertex 15.055 13.5501 10
      vertex 16.747 13.9363 10
    endloop
  endfacet
  facet normal -0.222528 0.974926 0
    outer loop
      vertex 15.055 13.5501 10
      vertex 16.747 13.9363 0
      vertex 15.055 13.5501 0
    endloop
  endfacet
  facet normal 1 -0 0
    outer loop
      vertex 13.6981 14.6322 10
      vertex 13.6981 16.3678 0
      vertex 13.6981 16.3678 10
    endloop
  endfacet
  facet normal 1 0 0
    outer loop
      vertex 13.6981 16.3678 0
      vertex 13.6981 14.6322 10
      vertex 13.6981 14.6322 0
    endloop
  endfacet
  facet normal 0.623493 -0.781829 0
    outer loop
      vertex 13.6981 16.3678 0
      vertex 15.055 17.4499 10
      vertex 13.6981 16.3678 10
    endloop
  endfacet
  facet normal 0.623493 -0.781829 0
    outer loop
      vertex 15.055 17.4499 10
      vertex 13.6981 16.3678 0
      vertex 15.055 17.4499 0
    endloop
  endfacet
  facet normal -0 0 1
    outer loop
      vertex -20.5 30.5 240
      vertex 20.5 20.5 240
      vertex 20.5 30.5 240
    endloop
  endfacet
  facet normal 0 0 1
    outer loop
      vertex 20.5 20.5 240
      vertex -20.5 30.5 240
      vertex -20.5 20.5 240
    endloop
  endfacet
  facet normal -1 0 0
    outer loop
      vertex 2.5 20.5 10
      vertex 2.5 30.5 0
      vertex 2.5 20.5 0
    endloop
  endfacet
  facet normal -1 0 0
    outer loop
      vertex 2.5 30.5 0
      vertex 2.5 20.5 10
      vertex 2.5 30.5 230
    endloop
  endfacet
  facet normal -1 -0 0
    outer loop
      vertex 2.5 30.5 230
      vertex 2.5 20.5 10
      vertex 2.5 20.5 230
    endloop
  endfacet
  facet normal 0 1 0
    outer loop
      vertex 20.5 30.5 240
      vertex 2.5 30.5 230
      vertex -20.5 30.5 240
    endloop
  endfacet
  facet normal 0 1 -0
    outer loop
      vertex 20.5 30.5 0
      vertex 2.5 30.5 230
      vertex 20.5 30.5 240
    endloop
  endfacet
  facet normal 0 1 0
    outer loop
      vertex 2.5 30.5 230
      vertex 20.5 30.5 0
      vertex 2.5 30.5 0
    endloop
  endfacet
  facet normal 0 1 -0
    outer loop
      vertex -2.5 30.5 230
      vertex -20.5 30.5 240
      vertex 2.5 30.5 230
    endloop
  endfacet
  facet normal 0 1 0
    outer loop
      vertex -20.5 30.5 0
      vertex -2.5 30.5 230
      vertex -2.5 30.5 0
    endloop
  endfacet
  facet normal 0 1 0
    outer loop
      vertex -2.5 30.5 230
      vertex -20.5 30.5 0
      vertex -20.5 30.5 240
    endloop
  endfacet
  facet normal 1 0 0
    outer loop
      vertex -2.5 20.5 10
      vertex -2.5 30.5 230
      vertex -2.5 20.5 230
    endloop
  endfacet
  facet normal 1 0 0
    outer loop
      vertex -2.5 30.5 230
      vertex -2.5 20.5 10
      vertex -2.5 30.5 0
    endloop
  endfacet
  facet normal 1 0 0
    outer loop
      vertex -2.5 30.5 0
      vertex -2.5 20.5 10
      vertex -2.5 20.5 0
    endloop
  endfacet
  facet normal -0 0 1
    outer loop
      vertex -20.5 -20.5 240
      vertex 20.5 -30.5 240
      vertex 20.5 -20.5 240
    endloop
  endfacet
  facet normal 0 0 1
    outer loop
      vertex 20.5 -30.5 240
      vertex -20.5 -20.5 240
      vertex -20.5 -30.5 240
    endloop
  endfacet
  facet normal -1 0 0
    outer loop
      vertex 2.5 -30.5 0
      vertex 2.5 -20.5 10
      vertex 2.5 -20.5 0
    endloop
  endfacet
  facet normal -1 0 0
    outer loop
      vertex 2.5 -30.5 230
      vertex 2.5 -20.5 10
      vertex 2.5 -30.5 0
    endloop
  endfacet
  facet normal -1 0 0
    outer loop
      vertex 2.5 -20.5 10
      vertex 2.5 -30.5 230
      vertex 2.5 -20.5 230
    endloop
  endfacet
  facet normal 0 -1 0
    outer loop
      vertex -20.5 -30.5 240
      vertex -2.5 -30.5 230
      vertex 20.5 -30.5 240
    endloop
  endfacet
  facet normal 0 -1 0
    outer loop
      vertex -20.5 -30.5 0
      vertex -2.5 -30.5 230
      vertex -20.5 -30.5 240
    endloop
  endfacet
  facet normal 0 -1 -0
    outer loop
      vertex -2.5 -30.5 230
      vertex -20.5 -30.5 0
      vertex -2.5 -30.5 0
    endloop
  endfacet
  facet normal 0 -1 0
    outer loop
      vertex 2.5 -30.5 230
      vertex 20.5 -30.5 240
      vertex -2.5 -30.5 230
    endloop
  endfacet
  facet normal 0 -1 0
    outer loop
      vertex 20.5 -30.5 0
      vertex 2.5 -30.5 230
      vertex 2.5 -30.5 0
    endloop
  endfacet
  facet normal 0 -1 0
    outer loop
      vertex 2.5 -30.5 230
      vertex 20.5 -30.5 0
      vertex 20.5 -30.5 240
    endloop
  endfacet
  facet normal 1 -0 0
    outer loop
      vertex -2.5 -30.5 230
      vertex -2.5 -20.5 10
      vertex -2.5 -20.5 230
    endloop
  endfacet
  facet normal 1 0 0
    outer loop
      vertex -2.5 -30.5 0
      vertex -2.5 -20.5 10
      vertex -2.5 -30.5 230
    endloop
  endfacet
  facet normal 1 0 0
    outer loop
      vertex -2.5 -20.5 10
      vertex -2.5 -30.5 0
      vertex -2.5 -20.5 0
    endloop
  endfacet
  facet normal 0 0 -1
    outer loop
      vertex -2.5 20.5 230
      vertex 2.5 30.5 230
      vertex 2.5 20.5 230
    endloop
  endfacet
  facet normal -0 0 -1
    outer loop
      vertex 2.5 30.5 230
      vertex -2.5 20.5 230
      vertex -2.5 30.5 230
    endloop
  endfacet
  facet normal 0 0 -1
    outer loop
      vertex -2.5 -30.5 230
      vertex 2.5 -20.5 230
      vertex 2.5 -30.5 230
    endloop
  endfacet
  facet normal -0 0 -1
    outer loop
      vertex 2.5 -20.5 230
      vertex -2.5 -30.5 230
      vertex -2.5 -20.5 230
    endloop
  endfacet
endsolid OpenSCAD_Model
